<svg aria-roledescription="sequence" role="graphics-document document" viewBox="-60 -10 1451 1119" style="max-width:100%" xmlns="http://www.w3.org/2000/svg" width="100%" id="graph-div" height="100%"><style>@import url(https://cdnjs.cloudflare.com/ajax/libs/font-awesome/6.2.0/css/all.min.css);</style><rect class="rect" height="160" width="815.5" fill="#BFDFFF" y="383" x="460.5"/><rect class="actor" ry="3" rx="3" height="65" width="150" stroke="#666" fill="#eaeaea" y="1033" x="1191"/><text class="actor" alignment-baseline="central" dominant-baseline="central" y="1065.5" x="1266" text-anchor="middle" font-size="16" font-weight="400"><tspan dy="0" x="1266">writerMap</tspan></text><rect class="actor" ry="3" rx="3" height="65" width="150" stroke="#666" fill="#eaeaea" y="1033" x="991"/><text class="actor" alignment-baseline="central" dominant-baseline="central" y="1065.5" x="1066" text-anchor="middle" font-size="16" font-weight="400"><tspan dy="0" x="1066">readerMap</tspan></text><line stroke="#999" stroke-width=".5" class="200" y2="1033" x2="1266" y1="5" x1="1266" id="actor4"/><g id="root-4"><rect class="actor" ry="3" rx="3" height="65" width="150" stroke="#666" fill="#eaeaea" y="0" x="1191"/><text class="actor" alignment-baseline="central" dominant-baseline="central" y="32.5" x="1266" text-anchor="middle" font-size="16" font-weight="400"><tspan dy="0" x="1266">writerMap</tspan></text></g><line stroke="#999" stroke-width=".5" class="200" y2="1033" x2="1066" y1="5" x1="1066" id="actor3"/><g id="root-3"><rect class="actor" ry="3" rx="3" height="65" width="150" stroke="#666" fill="#eaeaea" y="0" x="991"/><text class="actor" alignment-baseline="central" dominant-baseline="central" y="32.5" x="1066" text-anchor="middle" font-size="16" font-weight="400"><tspan dy="0" x="1066">readerMap</tspan></text></g><style>#graph-div{font-family:&quot;trebuchet ms&quot;,verdana,arial,sans-serif;font-size:12px;fill:#333;}#graph-div .error-icon{fill:hsl(60, 90%, 100%);}#graph-div .error-text{fill:rgb(0, 0, 0);stroke:rgb(0, 0, 0);}#graph-div .edge-thickness-normal{stroke-width:2px;}#graph-div .edge-thickness-thick{stroke-width:3.5px;}#graph-div .edge-pattern-solid{stroke-dasharray:0;}#graph-div .edge-pattern-dashed{stroke-dasharray:3;}#graph-div .edge-pattern-dotted{stroke-dasharray:2;}#graph-div .marker{fill:#0b0b0b;stroke:#0b0b0b;}#graph-div .marker.cross{stroke:#0b0b0b;}#graph-div svg{font-family:&quot;trebuchet ms&quot;,verdana,arial,sans-serif;font-size:12px;}#graph-div .actor{stroke:#BCBCFB;fill:#ECECFE;}#graph-div text.actor&gt;tspan{fill:#333;stroke:none;}#graph-div .actor-line{stroke:grey;}#graph-div .messageLine0{stroke-width:1.5;stroke-dasharray:none;stroke:#333;}#graph-div .messageLine1{stroke-width:1.5;stroke-dasharray:2,2;stroke:#333;}#graph-div #arrowhead path{fill:#333;stroke:#333;}#graph-div .sequenceNumber{fill:#f4f4f4;}#graph-div #sequencenumber{fill:#333;}#graph-div #crosshead path{fill:#333;stroke:#333;}#graph-div .messageText{fill:#333;stroke:none;}#graph-div .labelBox{stroke:#BCBCFB;fill:#ECECFE;}#graph-div .labelText,#graph-div .labelText&gt;tspan{fill:#333;stroke:none;}#graph-div .loopText,#graph-div .loopText&gt;tspan{fill:#333;stroke:none;}#graph-div .loopLine{stroke-width:2px;stroke-dasharray:2,2;stroke:#BCBCFB;fill:#BCBCFB;}#graph-div .note{stroke:hsl(52.6829268293, 60%, 73.9215686275%);fill:#fff5ad;}#graph-div .noteText,#graph-div .noteText&gt;tspan{fill:#333;stroke:none;}#graph-div .activation0{fill:#E9E9F1;stroke:hsl(240, 22.2222222222%, 82.9411764706%);}#graph-div .activation1{fill:#E9E9F1;stroke:hsl(240, 22.2222222222%, 82.9411764706%);}#graph-div .activation2{fill:#E9E9F1;stroke:hsl(240, 22.2222222222%, 82.9411764706%);}#graph-div .actorPopupMenu{position:absolute;}#graph-div .actorPopupMenuPanel{position:absolute;fill:#ECECFE;box-shadow:0px 8px 16px 0px rgba(0,0,0,0.2);filter:drop-shadow(3px 5px 2px rgb(0 0 0 / 0.4));}#graph-div .actor-man line{stroke:#BCBCFB;fill:#ECECFE;}#graph-div .actor-man circle,#graph-div line{stroke:#BCBCFB;fill:#ECECFE;stroke-width:2px;}#graph-div :root{--mermaid-font-family:&quot;trebuchet ms&quot;,verdana,arial,sans-serif;}</style><defs><symbol height="24" width="24" id="computer"><path d="M2 2v13h20V2H2zm18 11H4V4h16v9zM9.772 19l.466-1h3.524l.467 1H9.772zM24 22H0l2-6h2.104l-1.33 4h18.45l-1.297-4H22l2 6zm-5-10H5V5h14v7z" transform="scale(.5)"/></symbol></defs><defs><symbol clip-rule="evenodd" fill-rule="evenodd" id="database"><path d="M12.258.001l.256.004.255.005.253.008.251.01.249.012.247.015.246.016.242.019.241.02.239.023.236.024.233.027.231.028.229.031.225.032.223.034.22.036.217.038.214.04.211.041.208.043.205.045.201.046.198.048.194.05.191.051.187.053.183.054.18.056.175.057.172.059.168.06.163.061.16.063.155.064.15.066.074.033.073.033.071.034.07.034.069.035.068.035.067.035.066.035.064.036.064.036.062.036.06.036.06.037.058.037.058.037.055.038.055.038.053.038.052.038.051.039.05.039.048.039.047.039.045.04.044.04.043.04.041.04.04.041.039.041.037.041.036.041.034.041.033.042.032.042.03.042.029.042.027.042.026.043.024.043.023.043.021.043.02.043.018.044.017.043.015.044.013.044.012.044.011.045.009.044.007.045.006.045.004.045.002.045L22 3.5v17l-.001.045-.002.045-.004.045-.006.045-.007.045-.009.044-.011.045-.012.044-.013.044-.015.044-.017.043-.018.044-.02.043-.021.043-.023.043-.024.043-.026.043-.027.042-.029.042-.03.042-.032.042-.033.042-.034.041-.036.041-.037.041-.039.041-.04.041-.041.04-.043.04-.044.04-.045.04-.047.039-.048.039-.05.039-.051.039-.052.038-.053.038-.055.038-.055.038-.058.037-.058.037-.06.037-.06.036-.062.036-.064.036-.064.036-.066.035-.067.035-.068.035-.069.035-.07.034-.071.034-.073.033-.074.033-.15.066-.155.064-.16.063-.163.061-.168.06-.172.059-.175.057-.18.056-.183.054-.187.053-.191.051-.194.05-.198.048-.201.046-.205.045-.208.043-.211.041-.214.04-.217.038-.22.036-.223.034-.225.032-.229.031-.231.028-.233.027-.236.024-.239.023-.241.02-.242.019-.246.016-.247.015-.249.012-.251.01-.253.008-.255.005-.256.004L12 24l-.258-.001-.256-.004-.255-.005-.253-.008-.251-.01-.249-.012-.247-.015-.245-.016-.243-.019-.241-.02-.238-.023-.236-.024-.234-.027-.231-.028-.228-.031-.226-.032-.223-.034-.22-.036-.217-.038-.214-.04-.211-.041-.208-.043-.204-.045-.201-.046-.198-.048-.195-.05-.19-.051-.187-.053-.184-.054-.179-.056-.176-.057-.172-.059-.167-.06-.164-.061-.159-.063-.155-.064-.151-.066-.074-.033-.072-.033-.072-.034-.07-.034-.069-.035-.068-.035-.067-.035-.066-.035-.064-.036-.063-.036-.062-.036-.061-.036-.06-.037-.058-.037-.057-.037-.056-.038-.055-.038-.053-.038-.052-.038-.051-.039-.049-.039-.049-.039-.046-.039-.046-.04-.044-.04-.043-.04-.041-.04-.04-.041-.039-.041-.037-.041-.036-.041-.034-.041-.033-.042-.032-.042-.03-.042-.029-.042-.027-.042-.026-.043-.024-.043-.023-.043-.021-.043-.02-.043-.018-.044-.017-.043-.015-.044-.013-.044-.012-.044-.011-.045-.009-.044-.007-.045-.006-.045-.004-.045-.002-.045L2 20.5v-17l.001-.045.002-.045.004-.045.006-.045.007-.045.009-.044.011-.045.012-.044.013-.044.015-.044.017-.043.018-.044.02-.043.021-.043.023-.043.024-.043.026-.043.027-.042.029-.042.03-.042.032-.042.033-.042.034-.041.036-.041.037-.041.039-.041.04-.041.041-.04.043-.04.044-.04.046-.04.046-.039.049-.039.049-.039.051-.039.052-.038.053-.038.055-.038.056-.038.057-.037.058-.037.06-.037.061-.036.062-.036.063-.036.064-.036.066-.035.067-.035.068-.035.069-.035.07-.034.072-.034.072-.033.074-.033.151-.066.155-.064.159-.063.164-.061.167-.06.172-.059.176-.057.179-.056L5.641.8l.187-.053.19-.051.195-.05.198-.048.201-.046.204-.045.208-.043.211-.041.214-.04.217-.038.22-.036.223-.034.226-.032.228-.031.231-.028.234-.027.236-.024.238-.023.241-.02.243-.019.245-.016.247-.015.249-.012.251-.01.253-.008.255-.005.256-.004L12 0l.258.001zM3 20.5v.01l.001.021.003.021.004.022.005.021.006.022.007.022.009.023.01.022.011.023.012.023.013.023.015.023.016.024.017.023.018.024.019.024.021.024.022.025.023.024.024.025.052.049.056.05.061.051.066.051.07.051.075.051.079.052.084.052.088.052.092.052.097.052.102.051.105.052.11.052.114.051.119.051.123.051.127.05.131.05.135.05.139.048.144.049.147.047.152.047.155.047.16.045.163.045.167.043.171.043.176.041.178.041.183.039.187.039.19.037.194.035.197.035.202.033.204.031.209.03.212.029.216.027.219.025.222.024.226.021.23.02.233.018.236.016.24.015.243.012.246.01.249.008.253.005.256.004L12 23l.26-.001.257-.004.254-.005.25-.008.247-.011.244-.012.241-.014.237-.016.233-.018.231-.021.226-.021.224-.024.22-.026.216-.027.212-.028.21-.031.205-.031.202-.034.198-.034.194-.036.191-.037.187-.039.183-.04.179-.04.175-.042.172-.043.168-.044.163-.045.16-.046.155-.046.152-.047.148-.048.143-.049.139-.049.136-.05.131-.05.126-.05.123-.051.118-.052.114-.051.11-.052.106-.052.101-.052.096-.052.092-.052.088-.053.083-.051.079-.052.074-.052.07-.051.065-.051.06-.051.056-.05.051-.05.023-.024.023-.025.021-.024.02-.024.019-.024.018-.024.017-.024.015-.023.014-.024.013-.023.012-.023.01-.023.01-.022.008-.022.006-.022.006-.022.004-.022.004-.021.001-.021L21 20.5v-4.127l-.077.055-.08.053-.083.054-.085.053-.087.052-.09.052-.093.051-.095.05-.097.05-.1.049-.102.049-.105.048-.106.047-.109.047-.111.046-.114.045-.115.045-.118.044-.12.043-.122.042-.124.042-.126.041-.128.04-.13.04-.132.038-.134.038-.135.037-.138.037-.139.035-.142.035-.143.034-.144.033-.147.032-.148.031-.15.03-.151.03-.153.029-.154.027-.156.027-.158.026-.159.025-.161.024-.162.023-.163.022-.165.021-.166.02-.167.019-.169.018-.169.017-.171.016-.173.015-.173.014-.175.013-.175.012-.177.011-.178.01-.179.008-.179.008-.181.006-.182.005-.182.004-.184.003-.184.002h-.37l-.184-.002-.184-.003-.182-.004-.182-.005-.181-.006-.179-.008-.179-.008-.178-.01-.176-.011-.176-.012-.175-.013-.173-.014-.172-.015-.171-.016-.17-.017-.169-.018-.167-.019-.166-.02-.165-.021-.163-.022-.162-.023L8 18.055l-.159-.025-.157-.026-.156-.027-.155-.027-.153-.029-.151-.03-.15-.03-.148-.031-.146-.032-.145-.033-.143-.034-.141-.035-.14-.035-.137-.037-.136-.037-.134-.038-.132-.038-.13-.04-.128-.04-.126-.041-.124-.042-.122-.042-.12-.044-.117-.043-.116-.045-.113-.045-.112-.046-.109-.047-.106-.047-.105-.048-.102-.049-.1-.049-.097-.05-.095-.05-.093-.052-.09-.051-.087-.052-.085-.053-.083-.054-.08-.054L3 16.373V20.5zm0-5.654v.011l.001.021.003.021.004.021.005.022.006.022.007.022.009.022.01.022.011.023.012.023.013.023.015.024.016.023.017.024.018.024.019.024.021.024.022.024.023.025.024.024.052.05.056.05.061.05.066.051.07.051.075.052.079.051.084.052.088.052.092.052.097.052.102.052.105.052.11.051.114.051.119.052.123.05.127.051.131.05.135.049.139.049.144.048.147.048.152.047.155.046.16.045.163.045.167.044.171.042.176.042.178.04.183.04.187.038.19.037.194.036.197.034.202.033.204.032.209.03.212.028.216.027.219.025.222.024.226.022.23.02.233.018.236.016.24.014.243.012.246.01.249.008.253.006.256.003.259.001.26-.001.257-.003.254-.006.25-.008.247-.01.244-.012.241-.015.237-.016.233-.018.231-.02.226-.022.224-.024.22-.025.216-.027.212-.029.21-.03.205-.032.202-.033.198-.035.194-.036.191-.037.187-.039.183-.039.179-.041.175-.042.172-.043.168-.044.163-.045.16-.045.155-.047.152-.047.148-.048.143-.048.139-.05.136-.049.131-.05.126-.051.123-.051.118-.051.114-.052.11-.052.106-.052.101-.052.096-.052.092-.052.088-.052.083-.052.079-.052.074-.051.07-.052.065-.051.06-.05.056-.051.051-.049.023-.025.023-.024.021-.025.02-.024.019-.024.018-.024.017-.024.015-.023.014-.023.013-.024.012-.022.01-.023.01-.023.008-.022.006-.022.006-.022.004-.021.004-.022.001-.021.001-.021v-4.139l-.077.054-.08.054-.083.054-.085.052-.087.053-.09.051-.093.051-.095.051-.097.05-.1.049-.102.049-.105.048-.106.047-.109.047-.111.046-.114.045-.115.044-.118.044-.12.044-.122.042-.124.042-.126.041-.128.04-.13.039-.132.039-.134.038-.135.037-.138.036-.139.036-.142.035-.143.033-.144.033-.147.033-.148.031-.15.03-.151.03-.153.028-.154.028-.156.027-.158.026-.159.025-.161.024-.162.023-.163.022-.165.021-.166.02-.167.019-.169.018-.169.017-.171.016-.173.015-.173.014-.175.013-.175.012-.177.011-.178.009-.179.009-.179.007-.181.007-.182.005-.182.004-.184.003-.184.002h-.37l-.184-.002-.184-.003-.182-.004-.182-.005-.181-.007-.179-.007-.179-.009-.178-.009-.176-.011-.176-.012-.175-.013-.173-.014-.172-.015-.171-.016-.17-.017-.169-.018-.167-.019-.166-.02-.165-.021-.163-.022-.162-.023L8 12.389l-.159-.025-.157-.026-.156-.027-.155-.028-.153-.028-.151-.03-.15-.03-.148-.031-.146-.033-.145-.033-.143-.033-.141-.035-.14-.036-.137-.036-.136-.037-.134-.038-.132-.039-.13-.039-.128-.04-.126-.041-.124-.042-.122-.043-.12-.043-.117-.044-.116-.044-.113-.046-.112-.046-.109-.046-.106-.047-.105-.048-.102-.049-.1-.049-.097-.05-.095-.051-.093-.051-.09-.051-.087-.053-.085-.052-.083-.054-.08-.054L3 10.707v4.139zM3 9.18v.011l.001.02.003.022.004.021.005.022.006.021.007.022.009.023.01.022.011.023.012.023.013.023.015.023.016.024.017.024.018.023.019.024.021.025.022.024.023.024.024.025.052.05.056.05.061.05.066.051.07.051.075.052.079.051.084.052.088.052.092.052.097.052.102.052.105.051.11.052.114.051.119.051.123.051.127.05.131.05.135.05.139.049.144.048.147.048.152.047.155.046.16.045.163.045.167.043.171.043.176.042.178.04.183.04.187.038.19.037.194.036.197.034.202.033.204.032.209.03.212.028.216.027.219.025.222.024.226.021.23.02.233.018.236.017.24.014.243.012.246.01.249.008.253.006.256.003.259.001.26-.001.257-.003.254-.006.25-.008.247-.01.244-.013.241-.014.237-.016.233-.018.231-.02.226-.022.224-.024.22-.025.216-.027.212-.029.21-.03.205-.032.202-.033.198-.035.194-.036.191-.037.187-.039.183-.039.179-.041.175-.042.172-.043.168-.044.163-.045.16-.045.155-.047.152-.047.148-.048.143-.049.139-.049.136-.049.131-.051.126-.05.123-.051.118-.052.114-.051.11-.052.106-.052.101-.052.096-.052.092-.052.088-.052.083-.052.079-.052.074-.052.07-.051.065-.051.06-.051.056-.05.051-.049.023-.025.023-.025.021-.024.02-.024.019-.024.018-.024.017-.024.015-.023.014-.024.013-.023.012-.023.01-.022.01-.023.008-.022.006-.022.006-.022.004-.022.004-.021.001-.021L21 9.18V5.027l-.077.054-.08.054-.083.053-.085.053-.087.053-.09.051-.093.051-.095.051-.097.05-.1.049-.102.048-.105.048-.106.048-.109.046-.111.046-.114.046-.115.044-.118.044-.12.043-.122.043-.124.042-.126.041-.128.04-.13.039-.132.039-.134.038-.135.037-.138.036-.139.036-.142.034-.143.034-.144.033-.147.032-.148.032-.15.03-.151.03-.153.028-.154.028-.156.027-.158.026-.159.024-.161.024-.162.023-.163.023-.165.021-.166.02-.167.019-.169.018-.169.017-.171.016-.173.015-.173.014-.175.013-.175.012-.177.01-.178.01-.179.009-.179.007-.181.006-.182.006-.182.004-.184.003-.184.001L12 7l-.185-.001-.184-.001-.184-.003-.182-.004-.182-.006-.181-.006-.179-.007-.179-.009-.178-.01-.176-.01-.176-.012-.175-.013-.173-.014-.172-.015-.171-.016-.17-.017-.169-.018-.167-.019-.166-.02-.165-.021-.163-.023-.162-.023L8 6.708l-.159-.024-.157-.026-.156-.027-.155-.028-.153-.028-.151-.03-.15-.03-.148-.032-.146-.032-.145-.033-.143-.034-.141-.034-.14-.036-.137-.036-.136-.037-.134-.038-.132-.039-.13-.039-.128-.041-.126-.041-.124-.041-.122-.043-.12-.043-.117-.044-.116-.044-.113-.046-.112-.046L4.2 5.69l-.106-.048-.105-.048-.102-.048-.1-.05-.097-.049-.095-.051-.093-.051-.09-.052-.087-.052-.085-.053-.083-.053-.08-.054L3 5.027V9.18zm8.74-8.179l-.257.004-.254.005-.25.008-.247.011-.244.012-.241.014-.237.016-.233.018-.231.021-.226.022-.224.023-.22.026-.216.027-.212.028-.21.031-.205.032-.202.033-.198.034-.194.036-.191.038-.187.038-.183.04-.179.041-.175.042-.172.043-.168.043-.163.045-.16.046-.155.046-.152.048-.148.048-.143.048-.139.049-.136.05-.131.05-.126.051-.123.051-.118.051-.114.052-.11.052-.106.052-.101.052-.096.052-.092.052-.088.052-.083.052-.079.052-.074.051-.07.052-.065.051-.06.05-.056.05-.051.05-.023.025-.023.024-.021.024-.02.025-.019.024-.018.024-.017.023-.015.024-.014.023-.013.023-.012.023-.01.023-.01.022-.008.022-.006.023-.006.021-.004.022-.004.021-.001.021L3 3.5l.001.021.001.021.004.021.004.022.006.021.006.023.008.022.01.022.01.023.012.023.013.023.014.023.015.024.017.023.018.024.019.024.02.025.021.024.023.024.023.025.051.05.056.05.06.05.065.051.07.052.074.051.079.052.083.052.088.052.092.052.096.052.101.052.106.052.11.052.114.052.118.051.123.051.126.051.131.05.136.05.139.049.143.048.148.048.152.048.155.046.16.046.163.045.168.043.172.043.175.042.179.041.183.04.187.038.191.038.194.036.198.034.202.033.205.032.21.031.212.028.216.027.22.026.224.023.226.022.231.021.233.018.237.016.241.014.244.012.247.011.25.008.254.005.257.004L12 6l.26-.001.257-.004.254-.005.25-.008.247-.011.244-.012.241-.014.237-.016.233-.018.231-.021.226-.022.224-.023.22-.026.216-.027.212-.028.21-.031.205-.032.202-.033.198-.034.194-.036.191-.038.187-.038.183-.04.179-.041.175-.042.172-.043.168-.043.163-.045.16-.046.155-.046.152-.048.148-.048.143-.048.139-.049.136-.05.131-.05.126-.051.123-.051.118-.051.114-.052.11-.052.106-.052.101-.052.096-.052.092-.052.088-.052.083-.052.079-.052.074-.051.07-.052.065-.051.06-.05.056-.05.051-.05.023-.025.023-.024.021-.024.02-.025.019-.024.018-.024.017-.023.015-.024.014-.023.013-.023.012-.023.01-.023.01-.022.008-.022.006-.023.006-.021.004-.022.004-.021.001-.021L21 3.5l-.001-.021-.001-.021-.004-.021-.004-.022-.006-.021-.006-.023-.008-.022-.01-.022-.01-.023-.012-.023-.013-.023-.014-.023-.015-.024-.017-.023-.018-.024-.019-.024-.02-.025-.021-.024-.023-.024-.023-.025-.051-.05-.056-.05-.06-.05-.065-.051-.07-.052-.074-.051-.079-.052-.083-.052-.088-.052-.092-.052-.096-.052-.101-.052-.106-.052-.11-.052-.114-.052-.118-.051-.123-.051-.126-.051-.131-.05-.136-.05-.139-.049-.143-.048-.148-.048-.152-.048-.155-.046-.16-.046-.163-.045-.168-.043-.172-.043-.175-.042-.179-.041-.183-.04-.187-.038-.191-.038-.194-.036-.198-.034-.202-.033-.205-.032-.21-.031-.212-.028-.216-.027-.22-.026-.224-.023-.226-.022-.231-.021-.233-.018-.237-.016-.241-.014-.244-.012-.247-.011-.25-.008-.254-.005-.257-.004L12 1l-.26.001z" transform="scale(.5)"/></symbol></defs><defs><symbol height="24" width="24" id="clock"><path d="M12 2c5.514 0 10 4.486 10 10s-4.486 10-10 10S2 17.514 2 12 6.486 2 12 2zm0-2C5.373 0 0 5.373 0 12s5.373 12 12 12 12-5.373 12-12S18.627 0 12 0zm5.848 12.459c.202.038.202.333.001.372-1.907.361-6.045 1.111-6.547 1.111a1.3 1.3 0 01-1.301-1.301c0-.512.77-5.447 1.125-7.445.034-.192.312-.181.343.014l.985 6.238 5.394 1.011z" transform="scale(.5)"/></symbol></defs><defs><marker orient="auto" markerHeight="12" markerWidth="12" markerUnits="userSpaceOnUse" refY="5" refX="9" id="arrowhead"><path d="M0 0l10 5-10 5z"/></marker></defs><defs><marker refY="5" refX="4" orient="auto" markerHeight="8" markerWidth="15" id="crosshead"><path d="M1 2l5 5m0-5L1 7" stroke-width="1pt" stroke="#000" fill="none" stroke-dasharray="0,0"/></marker></defs><defs><marker orient="auto" markerHeight="28" markerWidth="20" refY="7" refX="18" id="filled-head"><path d="M18 7l-9 6 5-6-5-6z"/></marker></defs><defs><marker orient="auto" markerHeight="40" markerWidth="60" refY="15" refX="15" id="sequencenumber"><circle r="6" cy="15" cx="15"/></marker></defs><rect class="note" ry="0" rx="0" height="38" width="250" stroke="#666" fill="#EDF2AE" y="75" x="1041"/><text dy="1em" class="noteText" alignment-baseline="middle" dominant-baseline="middle" text-anchor="middle" y="80" x="1166" font-size="16" font-weight="400"><tspan x="1166">readerMap=m0, writerMap=m1</tspan></text><rect class="activation0" ry="0" rx="0" height="46" width="10" stroke="#666" fill="#EDF2AE" y="159" x="1061"/><rect class="activation0" ry="0" rx="0" height="46" width="10" stroke="#666" fill="#EDF2AE" y="251" x="1261"/><rect class="note" ry="0" rx="0" height="38" width="205" stroke="#666" fill="#EDF2AE" y="403" x="495.5"/><text dy="1em" class="noteText" alignment-baseline="middle" dominant-baseline="middle" text-anchor="middle" y="408" x="598" font-size="16" font-weight="400"><tspan x="598">writerThread0 swap maps</tspan></text><rect class="note" ry="0" rx="0" height="38" width="250" stroke="#666" fill="#EDF2AE" y="553" x="1041"/><text dy="1em" class="noteText" alignment-baseline="middle" dominant-baseline="middle" text-anchor="middle" y="558" x="1166" font-size="16" font-weight="400"><tspan x="1166">readerMap=m1, writerMap=m0</tspan></text><rect class="activation0" ry="0" rx="0" height="46" width="10" stroke="#666" fill="#EDF2AE" y="637" x="1261"/><line class="loopLine" y2="693" x2="951" y1="693" x1="-10"/><line class="loopLine" y2="965" x2="951" y1="693" x1="951"/><line class="loopLine" y2="965" x2="951" y1="965" x1="-10"/><line class="loopLine" y2="965" x2="-10" y1="693" x1="-10"/><line class="loopLine" y2="819" x2="951" y1="819" x1="-10" stroke-dasharray="3px,3px"/><polygon class="labelBox" points="-10,693 40,693 40,706 31.6,713 -10,713"/><text class="labelText" alignment-baseline="middle" dominant-baseline="middle" text-anchor="middle" y="706" x="15" font-size="16" font-weight="400">par</text><text class="loopText" text-anchor="middle" y="711" x="495.5" font-size="16" font-weight="400"><tspan x="495.5">[writerThread1 mutates m0]</tspan></text><text class="loopText" text-anchor="middle" y="837" x="470.5" font-size="16" font-weight="400">[readerThread is reading m0 in parallel]</text><rect class="note" ry="0" rx="0" height="38" width="841" stroke="#666" fill="#EDF2AE" y="975" x="50"/><text dy="1em" class="noteText" alignment-baseline="middle" dominant-baseline="middle" text-anchor="middle" y="980" x="471" font-size="16" font-weight="400"><tspan x="471">Invariant violation: readerThread and writerThread1 are concurrently accessing the same map!</tspan></text><line stroke="#999" stroke-width=".5" class="200" y2="1033" x2="75" y1="80" x1="75" id="actor0"/><g class="actor-man"><line y2="45" x2="75" y1="25" x1="75" id="actor-man-torso0"/><line y2="33" x2="93" y1="33" x1="57" id="actor-man-arms0"/><line y2="45" x2="75" y1="60" x1="57"/><line y2="60" x2="91" y1="45" x1="75"/><circle height="65" width="150" r="15" cy="10" cx="75"/><text class="actor" alignment-baseline="central" dominant-baseline="central" y="67.5" x="75" text-anchor="middle" font-size="16" font-weight="400"><tspan dy="0" x="75">readerThread</tspan></text></g><line stroke="#999" stroke-width=".5" class="200" y2="1033" x2="470.5" y1="80" x1="470.5" id="actor1"/><g class="actor-man"><line y2="45" x2="470.5" y1="25" x1="470.5" id="actor-man-torso1"/><line y2="33" x2="488.5" y1="33" x1="452.5" id="actor-man-arms1"/><line y2="45" x2="470.5" y1="60" x1="452.5"/><line y2="60" x2="486.5" y1="45" x1="470.5"/><circle height="65" width="150" r="15" cy="10" cx="470.5"/><text class="actor" alignment-baseline="central" dominant-baseline="central" y="67.5" x="470.5" text-anchor="middle" font-size="16" font-weight="400"><tspan dy="0" x="470.5">writerThread0</tspan></text></g><line stroke="#999" stroke-width=".5" class="200" y2="1033" x2="866" y1="80" x1="866" id="actor2"/><g class="actor-man"><line y2="45" x2="866" y1="25" x1="866" id="actor-man-torso2"/><line y2="33" x2="884" y1="33" x1="848" id="actor-man-arms2"/><line y2="45" x2="866" y1="60" x1="848"/><line y2="60" x2="882" y1="45" x1="866"/><circle height="65" width="150" r="15" cy="10" cx="866"/><text class="actor" alignment-baseline="central" dominant-baseline="central" y="67.5" x="866" text-anchor="middle" font-size="16" font-weight="400"><tspan dy="0" x="866">writerThread1</tspan></text></g><text dy="1em" class="messageText" alignment-baseline="middle" dominant-baseline="middle" text-anchor="middle" y="128" x="571" font-size="16" font-weight="400">LOAD readerMap</text><line marker-end="url(#arrowhead)" stroke="none" stroke-width="2" class="messageLine0" y2="159" x2="1066" y1="159" x1="75" fill="none"/><text dy="1em" class="messageText" alignment-baseline="middle" dominant-baseline="middle" text-anchor="middle" y="174" x="568" font-size="16" font-weight="400">m0</text><line marker-end="url(#arrowhead)" stroke="none" stroke-width="2" class="messageLine0" y2="205" x2="75" y1="205" x1="1061" fill="none"/><text dy="1em" class="messageText" alignment-baseline="middle" dominant-baseline="middle" text-anchor="middle" y="220" x="868" font-size="16" font-weight="400">LOAD writerMap</text><line marker-end="url(#arrowhead)" stroke="none" stroke-width="2" class="messageLine0" y2="251" x2="1266" y1="251" x1="470.5" fill="none"/><text dy="1em" class="messageText" alignment-baseline="middle" dominant-baseline="middle" text-anchor="middle" y="266" x="866" font-size="16" font-weight="400">m1</text><line marker-end="url(#arrowhead)" stroke="none" stroke-width="2" class="messageLine0" y2="297" x2="470.5" y1="297" x1="1261" fill="none"/><text dy="1em" class="messageText" alignment-baseline="middle" dominant-baseline="middle" text-anchor="middle" y="312" x="471" font-size="16" font-weight="400">modifies m1</text><path marker-end="url(#arrowhead)" stroke="none" stroke-width="2" class="messageLine0" d="M470.5 343c60-10 60 30 0 20" fill="none"/><text dy="1em" class="messageText" alignment-baseline="middle" dominant-baseline="middle" text-anchor="middle" y="456" x="868" font-size="16" font-weight="400">STORE m0</text><line marker-end="url(#arrowhead)" stroke="none" stroke-width="2" class="messageLine0" y2="487" x2="1266" y1="487" x1="470.5" fill="none"/><text dy="1em" class="messageText" alignment-baseline="middle" dominant-baseline="middle" text-anchor="middle" y="502" x="768" font-size="16" font-weight="400">STORE m1</text><line marker-end="url(#arrowhead)" stroke="none" stroke-width="2" class="messageLine0" y2="533" x2="1066" y1="533" x1="470.5" fill="none"/><text dy="1em" class="messageText" alignment-baseline="middle" dominant-baseline="middle" text-anchor="middle" y="606" x="1066" font-size="16" font-weight="400">LOAD writerMap</text><line marker-end="url(#arrowhead)" stroke="none" stroke-width="2" class="messageLine0" y2="637" x2="1266" y1="637" x1="866" fill="none"/><text dy="1em" class="messageText" alignment-baseline="middle" dominant-baseline="middle" text-anchor="middle" y="652" x="1064" font-size="16" font-weight="400">m0</text><line marker-end="url(#arrowhead)" stroke="none" stroke-width="2" class="messageLine0" y2="683" x2="866" y1="683" x1="1261" fill="none"/><text dy="1em" class="messageText" alignment-baseline="middle" dominant-baseline="middle" text-anchor="middle" y="743" x="866" font-size="16" font-weight="400">modifies m0</text><path marker-end="url(#arrowhead)" stroke="none" stroke-width="2" class="messageLine0" d="M866 774c60-10 60 30 0 20" fill="none"/><text dy="1em" class="messageText" alignment-baseline="middle" dominant-baseline="middle" text-anchor="middle" y="864" x="75" font-size="16" font-weight="400">reads m0</text><path marker-end="url(#arrowhead)" stroke="none" stroke-width="2" class="messageLine0" d="M75 895c60-10 60 30 0 20" fill="none"/><g class="actor-man"><line y2="1078" x2="75" y1="1058" x1="75" id="actor-man-torso4"/><line y2="1066" x2="93" y1="1066" x1="57" id="actor-man-arms4"/><line y2="1078" x2="75" y1="1093" x1="57"/><line y2="1093" x2="91" y1="1078" x1="75"/><circle height="65" width="150" r="15" cy="1043" cx="75"/><text class="actor" alignment-baseline="central" dominant-baseline="central" y="1100.5" x="75" text-anchor="middle" font-size="16" font-weight="400"><tspan dy="0" x="75">readerThread</tspan></text></g><g class="actor-man"><line y2="1078" x2="470.5" y1="1058" x1="470.5" id="actor-man-torso4"/><line y2="1066" x2="488.5" y1="1066" x1="452.5" id="actor-man-arms4"/><line y2="1078" x2="470.5" y1="1093" x1="452.5"/><line y2="1093" x2="486.5" y1="1078" x1="470.5"/><circle height="65" width="150" r="15" cy="1043" cx="470.5"/><text class="actor" alignment-baseline="central" dominant-baseline="central" y="1100.5" x="470.5" text-anchor="middle" font-size="16" font-weight="400"><tspan dy="0" x="470.5">writerThread0</tspan></text></g><g class="actor-man"><line y2="1078" x2="866" y1="1058" x1="866" id="actor-man-torso4"/><line y2="1066" x2="884" y1="1066" x1="848" id="actor-man-arms4"/><line y2="1078" x2="866" y1="1093" x1="848"/><line y2="1093" x2="882" y1="1078" x1="866"/><circle height="65" width="150" r="15" cy="1043" cx="866"/><text class="actor" alignment-baseline="central" dominant-baseline="central" y="1100.5" x="866" text-anchor="middle" font-size="16" font-weight="400"><tspan dy="0" x="866">writerThread1</tspan></text></g></svg>