<svg version="1.1" viewBox="0.0 0.0 425.20997375328085 708.4041994750656" fill="none" stroke="none" stroke-linecap="square" stroke-miterlimit="10" xmlns:xlink="http://www.w3.org/1999/xlink" xmlns="http://www.w3.org/2000/svg"><clipPath id="p.0"><path d="m0 0l425.20996 0l0 708.4042l-425.20996 0l0 -708.4042z" clip-rule="nonzero"/></clipPath><g clip-path="url(#p.0)"><path fill="#000000" fill-opacity="0.0" d="m0 0l425.20996 0l0 708.4042l-425.20996 0z" fill-rule="evenodd"/><path fill="#267883" d="m23.005249 19.581366l44.314964 0l0 670.5827l-44.314964 0z" fill-rule="evenodd"/><path stroke="#ffffff" stroke-width="1.0" stroke-linejoin="round" stroke-linecap="butt" d="m23.005249 19.581366l44.314964 0l0 670.5827l-44.314964 0z" fill-rule="evenodd"/><path fill="#267883" d="m299.0735 19.581366l44.314972 0l0 670.5827l-44.314972 0z" fill-rule="evenodd"/><path stroke="#ffffff" stroke-width="1.0" stroke-linejoin="round" stroke-linecap="butt" d="m299.0735 19.581366l44.314972 0l0 670.5827l-44.314972 0z" fill-rule="evenodd"/><path fill="#3d85c6" d="m23.005249 207.72437l44.314964 0l0 -4.5984344l-44.314964 0z" fill-rule="evenodd"/><path stroke="#ffffff" stroke-width="1.0" stroke-linejoin="round" stroke-linecap="butt" d="m23.005249 207.72437l44.314964 0l0 -4.5984344l-44.314964 0z" fill-rule="evenodd"/><path fill="#000000" fill-opacity="0.0" d="m67.32021 205.42514l232.47244 0" fill-rule="evenodd"/><path stroke="#ffffff" stroke-width="2.0" stroke-linejoin="round" stroke-linecap="butt" stroke-dasharray="2.0,6.0" d="m67.32021 205.42514l232.47244 0" fill-rule="evenodd"/><path fill="#000000" fill-opacity="0.0" d="m67.32021 351.6521l232.47244 0" fill-rule="evenodd"/><path stroke="#ffffff" stroke-width="2.0" stroke-linejoin="round" stroke-linecap="butt" stroke-dasharray="2.0,6.0" d="m67.32021 351.6521l232.47244 0" fill-rule="evenodd"/><path fill="#000000" fill-opacity="0.0" d="m67.32021 497.8857l232.47244 0" fill-rule="evenodd"/><path stroke="#ffffff" stroke-width="2.0" stroke-linejoin="round" stroke-linecap="butt" stroke-dasharray="2.0,6.0" d="m67.32021 497.8857l232.47244 0" fill-rule="evenodd"/><path fill="#000000" fill-opacity="0.0" d="m67.32021 644.1193l232.47244 0" fill-rule="evenodd"/><path stroke="#ffffff" stroke-width="2.0" stroke-linejoin="round" stroke-linecap="butt" stroke-dasharray="2.0,6.0" d="m67.32021 644.1193l232.47244 0" fill-rule="evenodd"/><path fill="#000000" fill-opacity="0.0" d="m67.32021 205.42514c57.90551 0 86.85827 -12.496063 115.81103 -24.992126c28.952744 -12.496063 57.905502 -24.992126 115.81102 -24.992126" fill-rule="evenodd"/><path stroke="#ffffff" stroke-width="2.0" stroke-linejoin="round" stroke-linecap="butt" d="m67.32021 205.42514c57.90551 0 86.85827 -12.496063 115.81103 -24.992126c14.476364 -6.2480316 28.952744 -12.496063 47.048218 -17.182083c9.047745 -2.3430023 19.000244 -4.295517 30.309921 -5.662277c5.654846 -0.6833801 11.648956 -1.2203217 18.03891 -1.5864258c3.1949768 -0.18302917 6.488922 -0.32336426 9.888916 -0.4179535c0.8499756 -0.023635864 1.706604 -0.044418335 2.5699463 -0.062286377l1.1011963 -0.020874023" fill-rule="evenodd"/><path fill="#ffffff" stroke="#ffffff" stroke-width="2.0" stroke-linecap="butt" d="m292.08835 155.50111l-2.229309 2.2688446l6.1595154 -2.3033752l-6.1990356 -2.1947784z" fill-rule="evenodd"/><path fill="#000000" fill-opacity="0.0" d="m67.32021 351.6521c57.90551 0 86.85827 -12.496063 115.81103 -24.992126c28.952744 -12.496063 57.905502 -24.992126 115.81102 -24.992126" fill-rule="evenodd"/><path stroke="#ffffff" stroke-width="2.0" stroke-linejoin="round" stroke-linecap="butt" d="m67.32021 351.6521c57.90551 0 86.85827 -12.496063 115.81103 -24.992126c14.476364 -6.2480164 28.952744 -12.496063 47.048218 -17.182068c9.047745 -2.3430176 19.000244 -4.295532 30.309921 -5.6622925c5.654846 -0.6833801 11.648956 -1.2203064 18.03891 -1.5863953c3.1949768 -0.18307495 6.488922 -0.32339478 9.888916 -0.41796875c0.8499756 -0.023651123 1.706604 -0.044433594 2.5699463 -0.062316895l1.1011963 -0.020843506" fill-rule="evenodd"/><path fill="#ffffff" stroke="#ffffff" stroke-width="2.0" stroke-linecap="butt" d="m292.08835 301.7281l-2.229309 2.2688293l6.1595154 -2.3033752l-6.1990356 -2.1947937z" fill-rule="evenodd"/><path fill="#000000" fill-opacity="0.0" d="m67.32021 497.8857c57.90551 0 86.85827 -12.496063 115.81103 -24.992126c28.952744 -12.496063 57.905502 -24.992126 115.81102 -24.992126" fill-rule="evenodd"/><path stroke="#ffffff" stroke-width="2.0" stroke-linejoin="round" stroke-linecap="butt" d="m67.32021 497.8857c57.90551 0 86.85827 -12.496063 115.81103 -24.992126c14.476364 -6.248047 28.952744 -12.496063 47.048218 -17.182098c9.047745 -2.3430176 19.000244 -4.295532 30.309921 -5.662262c5.654846 -0.68341064 11.648956 -1.2203064 18.03891 -1.5864258c3.1949768 -0.18307495 6.488922 -0.32339478 9.888916 -0.41796875c0.8499756 -0.023620605 1.706604 -0.044433594 2.5699463 -0.062286377l1.1011963 -0.020843506" fill-rule="evenodd"/><path fill="#ffffff" stroke="#ffffff" stroke-width="2.0" stroke-linecap="butt" d="m292.08835 447.96167l-2.229309 2.2688599l6.1595154 -2.3033752l-6.1990356 -2.1947937z" fill-rule="evenodd"/><path fill="#000000" fill-opacity="0.0" d="m67.32021 644.1193c57.90551 0 86.85827 -12.496094 115.81103 -24.992126c28.952744 -12.496094 57.905502 -24.992126 115.81102 -24.992126" fill-rule="evenodd"/><path stroke="#ffffff" stroke-width="2.0" stroke-linejoin="round" stroke-linecap="butt" d="m67.32021 644.1193c57.90551 0 86.85827 -12.496094 115.81103 -24.992126c14.476364 -6.248047 28.952744 -12.496094 47.048218 -17.182129c9.047745 -2.3430176 19.000244 -4.295532 30.309921 -5.6622314c5.654846 -0.68341064 11.648956 -1.2203369 18.03891 -1.5864258c3.1949768 -0.18310547 6.488922 -0.3234253 9.888916 -0.41796875c0.8499756 -0.023620605 1.706604 -0.044433594 2.5699463 -0.062316895l1.1011963 -0.020812988" fill-rule="evenodd"/><path fill="#ffffff" stroke="#ffffff" stroke-width="2.0" stroke-linecap="butt" d="m292.08835 594.19525l-2.229309 2.2688599l6.1595154 -2.3033447l-6.1990356 -2.1948242z" fill-rule="evenodd"/><path fill="#ff0000" fill-opacity="0.3608" d="m299.0735 205.8268l44.314972 0l0 -50.393707l-44.314972 0z" fill-rule="evenodd"/><path stroke="#ffffff" stroke-width="1.0" stroke-linejoin="round" stroke-linecap="butt" d="m299.0735 205.8268l44.314972 0l0 -50.393707l-44.314972 0z" fill-rule="evenodd"/><path fill="#ff0000" fill-opacity="0.3608" d="m299.0735 351.6521l44.314972 0l0 -51.24411l-44.314972 0z" fill-rule="evenodd"/><path stroke="#ffffff" stroke-width="1.0" stroke-linejoin="round" stroke-linecap="butt" d="m299.0735 351.6521l44.314972 0l0 -51.24411l-44.314972 0z" fill-rule="evenodd"/><path fill="#ff0000" fill-opacity="0.3608" d="m299.0735 498.5156l44.314972 0l0 -51.24408l-44.314972 0z" fill-rule="evenodd"/><path stroke="#ffffff" stroke-width="1.0" stroke-linejoin="round" stroke-linecap="butt" d="m299.0735 498.5156l44.314972 0l0 -51.24408l-44.314972 0z" fill-rule="evenodd"/><path fill="#ff0000" fill-opacity="0.3608" d="m299.0735 645.3791l44.314972 0l0 -51.24408l-44.314972 0z" fill-rule="evenodd"/><path stroke="#ffffff" stroke-width="1.0" stroke-linejoin="round" stroke-linecap="butt" d="m299.0735 645.3791l44.314972 0l0 -51.24408l-44.314972 0z" fill-rule="evenodd"/><path fill="#3d85c6" d="m23.005249 353.954l44.314964 0l0 -4.598419l-44.314964 0z" fill-rule="evenodd"/><path stroke="#ffffff" stroke-width="1.0" stroke-linejoin="round" stroke-linecap="butt" d="m23.005249 353.954l44.314964 0l0 -4.598419l-44.314964 0z" fill-rule="evenodd"/><path fill="#3d85c6" d="m23.005249 500.185l44.314964 0l0 -4.5984497l-44.314964 0z" fill-rule="evenodd"/><path stroke="#ffffff" stroke-width="1.0" stroke-linejoin="round" stroke-linecap="butt" d="m23.005249 500.185l44.314964 0l0 -4.5984497l-44.314964 0z" fill-rule="evenodd"/><path fill="#3d85c6" d="m23.005249 646.41595l44.314964 0l0 -4.5984497l-44.314964 0z" fill-rule="evenodd"/><path stroke="#ffffff" stroke-width="1.0" stroke-linejoin="round" stroke-linecap="butt" d="m23.005249 646.41595l44.314964 0l0 -4.5984497l-44.314964 0z" fill-rule="evenodd"/><path fill="#000000" fill-opacity="0.0" d="m381.71915 41.947506l-0.1574707 603.5591" fill-rule="evenodd"/><path stroke="#d9d9d9" stroke-width="2.0" stroke-linejoin="round" stroke-linecap="butt" d="m381.71915 41.947506l-0.15435791 591.5591" fill-rule="evenodd"/><path fill="#d9d9d9" stroke="#d9d9d9" stroke-width="2.0" stroke-linecap="butt" d="m378.26135 633.5057l3.3010864 9.077087l3.3058472 -9.075317z" fill-rule="evenodd"/><path fill="#000000" fill-opacity="0.0" d="m423.57742 326.64566l0 66.70868l-42.015747 0l0 -66.70868z" fill-rule="evenodd"/><path fill="#efefef" d="m396.65744 340.4894l11.78125 0l0 -4.40625l1.578125 0l0 10.578125l-1.578125 0l0 -4.40625l-11.78125 0l0 -1.765625zm11.46875 7.0939026l1.890625 0l0 1.640625l-1.890625 0l0 -1.640625zm-11.46875 0l9.671875 0l0 1.640625l-9.671875 0l0 -1.640625zm0 4.1448364l9.671875 0l0 1.46875l-1.359375 0q0.71875 0.453125 1.140625 1.203125q0.4375 0.765625 0.4375 1.71875q0 1.078125 -0.453125 1.765625q-0.4375 0.6875 -1.234375 0.96875q1.6875 1.15625 1.6875 2.984375q0 1.453125 -0.796875 2.21875q-0.796875 0.78125 -2.453125 0.78125l-6.640625 0l0 -1.640625l6.09375 0q0.984375 0 1.40625 -0.15625q0.4375 -0.15625 0.703125 -0.578125q0.265625 -0.421875 0.265625 -0.984375q0 -1.015625 -0.6875 -1.6875q-0.671875 -0.671875 -2.15625 -0.671875l-5.625 0l0 -1.640625l6.28125 0q1.09375 0 1.640625 -0.40625q0.546875 -0.40625 0.546875 -1.3125q0 -0.6875 -0.359375 -1.28125q-0.359375 -0.59375 -1.0625 -0.859375q-0.703125 -0.25 -2.03125 -0.25l-5.015625 0l0 -1.640625zm3.109375 22.165802l-0.203125 1.6875q-1.484375 -0.40625 -2.3125 -1.484375q-0.8125 -1.078125 -0.8125 -2.765625q0 -2.125 1.296875 -3.375q1.3125 -1.234375 3.671875 -1.234375q2.453125 0 3.796875 1.25q1.34375 1.265625 1.34375 3.265625q0 1.9375 -1.328125 3.15625q-1.3125 1.234375 -3.703125 1.234375q-0.15625 0 -0.4375 0l0 -7.21875q-1.59375 0.09375 -2.453125 0.90625q-0.84375 0.8125 -0.84375 2.015625q0 0.90625 0.46875 1.546875q0.484375 0.640625 1.515625 1.015625zm2.65625 -5.390625l0 5.40625q1.21875 -0.109375 1.828125 -0.625q0.953125 -0.78125 0.953125 -2.03125q0 -1.125 -0.765625 -1.90625q-0.75 -0.765625 -2.015625 -0.84375z" fill-rule="nonzero"/></g></svg>