<svg version="1.1" viewBox="0.0 0.0 375.7979002624672 709.7454068241469" fill="none" stroke="none" stroke-linecap="square" stroke-miterlimit="10" xmlns:xlink="http://www.w3.org/1999/xlink" xmlns="http://www.w3.org/2000/svg"><clipPath id="p.0"><path d="m0 0l375.7979 0l0 709.7454l-375.7979 0l0 -709.7454z" clip-rule="nonzero"/></clipPath><g clip-path="url(#p.0)"><path fill="#000000" fill-opacity="0.0" d="m0 0l375.7979 0l0 709.7454l-375.7979 0z" fill-rule="evenodd"/><path fill="#267883" d="m23.005249 19.581366l44.314964 0l0 670.5827l-44.314964 0z" fill-rule="evenodd"/><path stroke="#ffffff" stroke-width="1.0" stroke-linejoin="round" stroke-linecap="butt" d="m23.005249 19.581366l44.314964 0l0 670.5827l-44.314964 0z" fill-rule="evenodd"/><path fill="#267883" d="m299.0735 19.581366l44.314972 0l0 670.5827l-44.314972 0z" fill-rule="evenodd"/><path stroke="#ffffff" stroke-width="1.0" stroke-linejoin="round" stroke-linecap="butt" d="m299.0735 19.581366l44.314972 0l0 670.5827l-44.314972 0z" fill-rule="evenodd"/><path fill="#3d85c6" d="m23.005249 207.72437l44.314964 0l0 -4.5984344l-44.314964 0z" fill-rule="evenodd"/><path stroke="#ffffff" stroke-width="1.0" stroke-linejoin="round" stroke-linecap="butt" d="m23.005249 207.72437l44.314964 0l0 -4.5984344l-44.314964 0z" fill-rule="evenodd"/><path fill="#000000" fill-opacity="0.0" d="m67.32021 205.42514l232.47244 0" fill-rule="evenodd"/><path stroke="#ffffff" stroke-width="2.0" stroke-linejoin="round" stroke-linecap="butt" stroke-dasharray="2.0,6.0" d="m67.32021 205.42514l232.47244 0" fill-rule="evenodd"/><path fill="#000000" fill-opacity="0.0" d="m-139.21523 87.11811l80.62993 80.62992" fill-rule="evenodd"/><path stroke="#ffffff" stroke-width="2.0" stroke-linejoin="round" stroke-linecap="butt" stroke-dasharray="2.0,6.0" d="m-139.21523 87.11811l80.62993 80.62992" fill-rule="evenodd"/><path fill="#000000" fill-opacity="0.0" d="m67.32021 351.6521l232.47244 0" fill-rule="evenodd"/><path stroke="#ffffff" stroke-width="2.0" stroke-linejoin="round" stroke-linecap="butt" stroke-dasharray="2.0,6.0" d="m67.32021 351.6521l232.47244 0" fill-rule="evenodd"/><path fill="#000000" fill-opacity="0.0" d="m67.32021 497.8857l232.47244 0" fill-rule="evenodd"/><path stroke="#ffffff" stroke-width="2.0" stroke-linejoin="round" stroke-linecap="butt" stroke-dasharray="2.0,6.0" d="m67.32021 497.8857l232.47244 0" fill-rule="evenodd"/><path fill="#000000" fill-opacity="0.0" d="m67.32021 644.1193l232.47244 0" fill-rule="evenodd"/><path stroke="#ffffff" stroke-width="2.0" stroke-linejoin="round" stroke-linecap="butt" stroke-dasharray="2.0,6.0" d="m67.32021 644.1193l232.47244 0" fill-rule="evenodd"/><path fill="#000000" fill-opacity="0.0" d="m67.32021 205.42514c57.90551 0 86.85827 -12.496063 115.81103 -24.992126c28.952744 -12.496063 57.905502 -24.992126 115.81102 -24.992126" fill-rule="evenodd"/><path stroke="#ffffff" stroke-width="2.0" stroke-linejoin="round" stroke-linecap="butt" d="m67.32021 205.42514c57.90551 0 86.85827 -12.496063 115.81103 -24.992126c14.476364 -6.2480316 28.952744 -12.496063 47.048218 -17.182083c9.047745 -2.3430023 19.000244 -4.295517 30.309921 -5.662277c5.654846 -0.6833801 11.648956 -1.2203217 18.03891 -1.5864258c3.1949768 -0.18302917 6.488922 -0.32336426 9.888916 -0.4179535c0.8499756 -0.023635864 1.706604 -0.044418335 2.5699463 -0.062286377l1.1011963 -0.020874023" fill-rule="evenodd"/><path fill="#ffffff" stroke="#ffffff" stroke-width="2.0" stroke-linecap="butt" d="m292.08835 155.50111l-2.229309 2.2688446l6.1595154 -2.3033752l-6.1990356 -2.1947784z" fill-rule="evenodd"/><path fill="#000000" fill-opacity="0.0" d="m67.32021 351.6521c57.90551 0 86.85827 -12.496063 115.81103 -24.992126c28.952744 -12.496063 57.905502 -24.992126 115.81102 -24.992126" fill-rule="evenodd"/><path stroke="#ffffff" stroke-width="2.0" stroke-linejoin="round" stroke-linecap="butt" d="m67.32021 351.6521c57.90551 0 86.85827 -12.496063 115.81103 -24.992126c14.476364 -6.2480164 28.952744 -12.496063 47.048218 -17.182068c9.047745 -2.3430176 19.000244 -4.295532 30.309921 -5.6622925c5.654846 -0.6833801 11.648956 -1.2203064 18.03891 -1.5863953c3.1949768 -0.18307495 6.488922 -0.32339478 9.888916 -0.41796875c0.8499756 -0.023651123 1.706604 -0.044433594 2.5699463 -0.062316895l1.1011963 -0.020843506" fill-rule="evenodd"/><path fill="#ffffff" stroke="#ffffff" stroke-width="2.0" stroke-linecap="butt" d="m292.08835 301.7281l-2.229309 2.2688293l6.1595154 -2.3033752l-6.1990356 -2.1947937z" fill-rule="evenodd"/><path fill="#000000" fill-opacity="0.0" d="m67.32021 497.8857c57.90551 0 86.85827 -12.496063 115.81103 -24.992126c28.952744 -12.496063 57.905502 -24.992126 115.81102 -24.992126" fill-rule="evenodd"/><path stroke="#ffffff" stroke-width="2.0" stroke-linejoin="round" stroke-linecap="butt" d="m67.32021 497.8857c57.90551 0 86.85827 -12.496063 115.81103 -24.992126c14.476364 -6.248047 28.952744 -12.496063 47.048218 -17.182098c9.047745 -2.3430176 19.000244 -4.295532 30.309921 -5.662262c5.654846 -0.68341064 11.648956 -1.2203064 18.03891 -1.5864258c3.1949768 -0.18307495 6.488922 -0.32339478 9.888916 -0.41796875c0.8499756 -0.023620605 1.706604 -0.044433594 2.5699463 -0.062286377l1.1011963 -0.020843506" fill-rule="evenodd"/><path fill="#ffffff" stroke="#ffffff" stroke-width="2.0" stroke-linecap="butt" d="m292.08835 447.96167l-2.229309 2.2688599l6.1595154 -2.3033752l-6.1990356 -2.1947937z" fill-rule="evenodd"/><path fill="#000000" fill-opacity="0.0" d="m67.32021 644.1193c57.90551 0 86.85827 -12.496094 115.81103 -24.992126c28.952744 -12.496094 57.905502 -24.992126 115.81102 -24.992126" fill-rule="evenodd"/><path stroke="#ffffff" stroke-width="2.0" stroke-linejoin="round" stroke-linecap="butt" d="m67.32021 644.1193c57.90551 0 86.85827 -12.496094 115.81103 -24.992126c14.476364 -6.248047 28.952744 -12.496094 47.048218 -17.182129c9.047745 -2.3430176 19.000244 -4.295532 30.309921 -5.6622314c5.654846 -0.68341064 11.648956 -1.2203369 18.03891 -1.5864258c3.1949768 -0.18310547 6.488922 -0.3234253 9.888916 -0.41796875c0.8499756 -0.023620605 1.706604 -0.044433594 2.5699463 -0.062316895l1.1011963 -0.020812988" fill-rule="evenodd"/><path fill="#ffffff" stroke="#ffffff" stroke-width="2.0" stroke-linecap="butt" d="m292.08835 594.19525l-2.229309 2.2688599l6.1595154 -2.3033447l-6.1990356 -2.1948242z" fill-rule="evenodd"/><path fill="#ff0000" fill-opacity="0.3608" d="m299.0735 205.8268l44.314972 0l0 -50.393707l-44.314972 0z" fill-rule="evenodd"/><path stroke="#ffffff" stroke-width="1.0" stroke-linejoin="round" stroke-linecap="butt" d="m299.0735 205.8268l44.314972 0l0 -50.393707l-44.314972 0z" fill-rule="evenodd"/><path fill="#ff0000" fill-opacity="0.3608" d="m299.0735 351.6521l44.314972 0l0 -51.24411l-44.314972 0z" fill-rule="evenodd"/><path stroke="#ffffff" stroke-width="1.0" stroke-linejoin="round" stroke-linecap="butt" d="m299.0735 351.6521l44.314972 0l0 -51.24411l-44.314972 0z" fill-rule="evenodd"/><path fill="#ff0000" fill-opacity="0.3608" d="m299.0735 498.5156l44.314972 0l0 -51.24408l-44.314972 0z" fill-rule="evenodd"/><path stroke="#ffffff" stroke-width="1.0" stroke-linejoin="round" stroke-linecap="butt" d="m299.0735 498.5156l44.314972 0l0 -51.24408l-44.314972 0z" fill-rule="evenodd"/><path fill="#ff0000" fill-opacity="0.3608" d="m299.0735 645.3791l44.314972 0l0 -51.24408l-44.314972 0z" fill-rule="evenodd"/><path stroke="#ffffff" stroke-width="1.0" stroke-linejoin="round" stroke-linecap="butt" d="m299.0735 645.3791l44.314972 0l0 -51.24408l-44.314972 0z" fill-rule="evenodd"/><path fill="#3d85c6" d="m23.005249 353.954l44.314964 0l0 -4.598419l-44.314964 0z" fill-rule="evenodd"/><path stroke="#ffffff" stroke-width="1.0" stroke-linejoin="round" stroke-linecap="butt" d="m23.005249 353.954l44.314964 0l0 -4.598419l-44.314964 0z" fill-rule="evenodd"/><path fill="#3d85c6" d="m23.005249 500.185l44.314964 0l0 -4.5984497l-44.314964 0z" fill-rule="evenodd"/><path stroke="#ffffff" stroke-width="1.0" stroke-linejoin="round" stroke-linecap="butt" d="m23.005249 500.185l44.314964 0l0 -4.5984497l-44.314964 0z" fill-rule="evenodd"/><path fill="#3d85c6" d="m23.005249 646.41595l44.314964 0l0 -4.5984497l-44.314964 0z" fill-rule="evenodd"/><path stroke="#ffffff" stroke-width="1.0" stroke-linejoin="round" stroke-linecap="butt" d="m23.005249 646.41595l44.314964 0l0 -4.5984497l-44.314964 0z" fill-rule="evenodd"/></g></svg>