<svg version="1.1" viewBox="0.0 0.0 424.503937007874 709.7454068241469" fill="none" stroke="none" stroke-linecap="square" stroke-miterlimit="10" xmlns:xlink="http://www.w3.org/1999/xlink" xmlns="http://www.w3.org/2000/svg"><clipPath id="p.0"><path d="m0 0l424.50394 0l0 709.7454l-424.50394 0l0 -709.7454z" clip-rule="nonzero"/></clipPath><g clip-path="url(#p.0)"><path fill="#000000" fill-opacity="0.0" d="m0 0l424.50394 0l0 709.7454l-424.50394 0z" fill-rule="evenodd"/><path fill="#267883" d="m23.005249 19.581366l44.314964 0l0 670.5827l-44.314964 0z" fill-rule="evenodd"/><path stroke="#ffffff" stroke-width="1.0" stroke-linejoin="round" stroke-linecap="butt" d="m23.005249 19.581366l44.314964 0l0 670.5827l-44.314964 0z" fill-rule="evenodd"/><path fill="#267883" d="m299.0735 19.581366l44.314972 0l0 670.5827l-44.314972 0z" fill-rule="evenodd"/><path stroke="#ffffff" stroke-width="1.0" stroke-linejoin="round" stroke-linecap="butt" d="m299.0735 19.581366l44.314972 0l0 670.5827l-44.314972 0z" fill-rule="evenodd"/><path fill="#3d85c6" d="m23.005249 207.72437l44.314964 0l0 -4.5984344l-44.314964 0z" fill-rule="evenodd"/><path stroke="#ffffff" stroke-width="1.0" stroke-linejoin="round" stroke-linecap="butt" d="m23.005249 207.72437l44.314964 0l0 -4.5984344l-44.314964 0z" fill-rule="evenodd"/><path fill="#000000" fill-opacity="0.0" d="m67.32021 205.42514l232.47244 0" fill-rule="evenodd"/><path stroke="#ffffff" stroke-width="2.0" stroke-linejoin="round" stroke-linecap="butt" stroke-dasharray="2.0,6.0" d="m67.32021 205.42514l232.47244 0" fill-rule="evenodd"/><path fill="#000000" fill-opacity="0.0" d="m67.32021 351.6521l232.47244 0" fill-rule="evenodd"/><path stroke="#ffffff" stroke-width="2.0" stroke-linejoin="round" stroke-linecap="butt" stroke-dasharray="2.0,6.0" d="m67.32021 351.6521l232.47244 0" fill-rule="evenodd"/><path fill="#000000" fill-opacity="0.0" d="m67.32021 497.8857l232.47244 0" fill-rule="evenodd"/><path stroke="#ffffff" stroke-width="2.0" stroke-linejoin="round" stroke-linecap="butt" stroke-dasharray="2.0,6.0" d="m67.32021 497.8857l232.47244 0" fill-rule="evenodd"/><path fill="#000000" fill-opacity="0.0" d="m67.32021 644.1193l232.47244 0" fill-rule="evenodd"/><path stroke="#ffffff" stroke-width="2.0" stroke-linejoin="round" stroke-linecap="butt" stroke-dasharray="2.0,6.0" d="m67.32021 644.1193l232.47244 0" fill-rule="evenodd"/><path fill="#000000" fill-opacity="0.0" d="m67.32021 205.42514c48.65339 0 68.239845 -43.377945 97.30677 -86.7559c29.06694 -43.377953 67.614334 -86.755905 135.22867 -86.755905" fill-rule="evenodd"/><path stroke="#ffffff" stroke-width="2.0" stroke-linejoin="round" stroke-linecap="butt" d="m67.32021 205.42514c48.65339 0 68.239845 -43.377945 97.30677 -86.7559c14.533463 -21.68898 31.437057 -43.377953 53.159058 -59.644688c10.861008 -8.133366 22.926605 -14.911171 36.502853 -19.655636c6.7881317 -2.3722305 13.953934 -4.236126 21.53563 -5.5069656c3.790863 -0.63541794 7.6856995 -1.1225739 11.68927 -1.4508743c1.0009155 -0.08207703 2.008606 -0.15422058 3.0231628 -0.21627426c0.5072937 -0.031028748 1.0162964 -0.05952835 1.527008 -0.085487366c0.2553711 -0.0129776 0.51116943 -0.02532196 0.767395 -0.03702545l0.17178345 -0.007408142" fill-rule="evenodd"/><path fill="#ffffff" stroke="#ffffff" stroke-width="2.0" stroke-linecap="butt" d="m293.00314 32.064884l-2.198883 2.2983475l6.128296 -2.38525l-6.2277527 -2.1119843z" fill-rule="evenodd"/><path fill="#ff0000" fill-opacity="0.3608" d="m299.0735 205.82672l44.314972 0l0 -173.92126l-44.314972 0z" fill-rule="evenodd"/><path stroke="#ffffff" stroke-width="1.0" stroke-linejoin="round" stroke-linecap="butt" d="m299.0735 205.82672l44.314972 0l0 -173.92126l-44.314972 0z" fill-rule="evenodd"/><path fill="#ff0000" fill-opacity="0.3608" d="m299.0735 351.64597l44.314972 0l0 -268.50394l-44.314972 0z" fill-rule="evenodd"/><path stroke="#ffffff" stroke-width="1.0" stroke-linejoin="round" stroke-linecap="butt" d="m299.0735 351.64597l44.314972 0l0 -268.50394l-44.314972 0z" fill-rule="evenodd"/><path fill="#ff0000" fill-opacity="0.3608" d="m299.0735 498.5092l44.314972 0l0 -325.48032l-44.314972 0z" fill-rule="evenodd"/><path stroke="#ffffff" stroke-width="1.0" stroke-linejoin="round" stroke-linecap="butt" d="m299.0735 498.5092l44.314972 0l0 -325.48032l-44.314972 0z" fill-rule="evenodd"/><path fill="#ff0000" fill-opacity="0.3608" d="m299.0735 645.3717l44.314972 0l0 -325.3543l-44.314972 0z" fill-rule="evenodd"/><path stroke="#ffffff" stroke-width="1.0" stroke-linejoin="round" stroke-linecap="butt" d="m299.0735 645.3717l44.314972 0l0 -325.3543l-44.314972 0z" fill-rule="evenodd"/><path fill="#3d85c6" d="m23.005249 353.954l44.314964 0l0 -4.598419l-44.314964 0z" fill-rule="evenodd"/><path stroke="#ffffff" stroke-width="1.0" stroke-linejoin="round" stroke-linecap="butt" d="m23.005249 353.954l44.314964 0l0 -4.598419l-44.314964 0z" fill-rule="evenodd"/><path fill="#3d85c6" d="m23.005249 500.185l44.314964 0l0 -4.5984497l-44.314964 0z" fill-rule="evenodd"/><path stroke="#ffffff" stroke-width="1.0" stroke-linejoin="round" stroke-linecap="butt" d="m23.005249 500.185l44.314964 0l0 -4.5984497l-44.314964 0z" fill-rule="evenodd"/><path fill="#3d85c6" d="m23.005249 646.41595l44.314964 0l0 -4.5984497l-44.314964 0z" fill-rule="evenodd"/><path stroke="#ffffff" stroke-width="1.0" stroke-linejoin="round" stroke-linecap="butt" d="m23.005249 646.41595l44.314964 0l0 -4.5984497l-44.314964 0z" fill-rule="evenodd"/><path fill="#000000" fill-opacity="0.0" d="m69.71391 351.93176c14.83902 -6.1592407 67.475494 1.6815491 89.03412 -36.955383c21.558624 -38.636932 17.07962 -156.22922 40.31758 -194.86615c23.237976 -38.636925 82.59186 -30.79615 99.11023 -36.955383" fill-rule="evenodd"/><path stroke="#ffffff" stroke-width="2.0" stroke-linejoin="round" stroke-linecap="butt" d="m69.71391 351.93176c14.83902 -6.1592407 67.47551 1.6815491 89.03412 -36.955383c21.558624 -38.6369 17.07962 -156.22922 40.31758 -194.86615c11.618973 -19.318459 32.266937 -27.017494 52.074966 -30.656822c9.904007 -1.8196564 19.598038 -2.6243973 27.848465 -3.359169c4.125183 -0.36738586 7.889496 -0.71728516 11.138702 -1.1678085c0.40615845 -0.05631256 0.80426025 -0.11420441 1.1940002 -0.17389679l0.1819458 -0.02859497" fill-rule="evenodd"/><path fill="#ffffff" stroke="#ffffff" stroke-width="2.0" stroke-linecap="butt" d="m291.5037 84.72394l-1.67453 2.7043304l5.500519 -3.6040802l-6.530304 -0.77479553z" fill-rule="evenodd"/><path fill="#000000" fill-opacity="0.0" d="m69.71391 498.5223c14.83902 -7.458893 65.37576 2.0765686 89.03412 -44.753265c23.658356 -46.829834 29.67804 -189.43658 52.916016 -236.22574c23.23796 -46.789154 72.093185 -37.09099 86.511795 -44.509186" fill-rule="evenodd"/><path stroke="#ffffff" stroke-width="2.0" stroke-linejoin="round" stroke-linecap="butt" d="m69.71391 498.5223c14.83902 -7.4588623 65.37576 2.0765686 89.03412 -44.753265c23.658356 -46.829865 29.67804 -189.43658 52.916016 -236.22574c11.618973 -23.394577 29.642258 -32.667313 46.563156 -37.018692c8.460449 -2.1756897 16.645264 -3.121048 23.61615 -3.9860992c3.485443 -0.4325409 6.6674194 -0.84498596 9.428589 -1.381134l0.36376953 -0.07235718" fill-rule="evenodd"/><path fill="#ffffff" stroke="#ffffff" stroke-width="2.0" stroke-linecap="butt" d="m291.6357 175.085l-1.4731445 2.819107l5.2234497 -3.9951477l-6.5694275 -0.29708862z" fill-rule="evenodd"/><path fill="#000000" fill-opacity="0.0" d="m69.71391 644.1181c14.83902 -7.4588623 65.37576 2.076538 89.03412 -44.753296c23.658356 -46.829834 29.67804 -189.43655 52.916016 -236.22571c23.23796 -46.789154 72.093185 -37.090973 86.511795 -44.509186" fill-rule="evenodd"/><path stroke="#ffffff" stroke-width="2.0" stroke-linejoin="round" stroke-linecap="butt" d="m69.71391 644.1181c14.83902 -7.4588623 65.37576 2.0765991 89.03412 -44.753296c23.658356 -46.829834 29.67804 -189.43652 52.916016 -236.22571c11.618973 -23.394562 29.642258 -32.667328 46.563156 -37.018707c8.460449 -2.1756592 16.645264 -3.1210022 23.61615 -3.986084c3.485443 -0.43252563 6.6674194 -0.8449707 9.428589 -1.381134l0.36376953 -0.07235718" fill-rule="evenodd"/><path fill="#ffffff" stroke="#ffffff" stroke-width="2.0" stroke-linecap="butt" d="m291.6357 320.68082l-1.4731445 2.8190918l5.2234497 -3.9951477l-6.5694275 -0.29708862z" fill-rule="evenodd"/><path fill="#000000" fill-opacity="0.0" d="m381.71915 41.947506l-0.1574707 603.5591" fill-rule="evenodd"/><path stroke="#d9d9d9" stroke-width="2.0" stroke-linejoin="round" stroke-linecap="butt" d="m381.71915 41.947506l-0.15435791 591.5591" fill-rule="evenodd"/><path fill="#d9d9d9" stroke="#d9d9d9" stroke-width="2.0" stroke-linecap="butt" d="m378.26135 633.5057l3.3010864 9.077087l3.3058472 -9.075317z" fill-rule="evenodd"/><path fill="#000000" fill-opacity="0.0" d="m423.57742 326.64566l0 66.70868l-42.015747 0l0 -66.70868z" fill-rule="evenodd"/><path fill="#efefef" d="m396.65744 340.4894l11.78125 0l0 -4.40625l1.578125 0l0 10.578125l-1.578125 0l0 -4.40625l-11.78125 0l0 -1.765625zm11.46875 7.0939026l1.890625 0l0 1.640625l-1.890625 0l0 -1.640625zm-11.46875 0l9.671875 0l0 1.640625l-9.671875 0l0 -1.640625zm0 4.1448364l9.671875 0l0 1.46875l-1.359375 0q0.71875 0.453125 1.140625 1.203125q0.4375 0.765625 0.4375 1.71875q0 1.078125 -0.453125 1.765625q-0.4375 0.6875 -1.234375 0.96875q1.6875 1.15625 1.6875 2.984375q0 1.453125 -0.796875 2.21875q-0.796875 0.78125 -2.453125 0.78125l-6.640625 0l0 -1.640625l6.09375 0q0.984375 0 1.40625 -0.15625q0.4375 -0.15625 0.703125 -0.578125q0.265625 -0.421875 0.265625 -0.984375q0 -1.015625 -0.6875 -1.6875q-0.671875 -0.671875 -2.15625 -0.671875l-5.625 0l0 -1.640625l6.28125 0q1.09375 0 1.640625 -0.40625q0.546875 -0.40625 0.546875 -1.3125q0 -0.6875 -0.359375 -1.28125q-0.359375 -0.59375 -1.0625 -0.859375q-0.703125 -0.25 -2.03125 -0.25l-5.015625 0l0 -1.640625zm3.109375 22.165802l-0.203125 1.6875q-1.484375 -0.40625 -2.3125 -1.484375q-0.8125 -1.078125 -0.8125 -2.765625q0 -2.125 1.296875 -3.375q1.3125 -1.234375 3.671875 -1.234375q2.453125 0 3.796875 1.25q1.34375 1.265625 1.34375 3.265625q0 1.9375 -1.328125 3.15625q-1.3125 1.234375 -3.703125 1.234375q-0.15625 0 -0.4375 0l0 -7.21875q-1.59375 0.09375 -2.453125 0.90625q-0.84375 0.8125 -0.84375 2.015625q0 0.90625 0.46875 1.546875q0.484375 0.640625 1.515625 1.015625zm2.65625 -5.390625l0 5.40625q1.21875 -0.109375 1.828125 -0.625q0.953125 -0.78125 0.953125 -2.03125q0 -1.125 -0.765625 -1.90625q-0.75 -0.765625 -2.015625 -0.84375z" fill-rule="nonzero"/></g></svg>