<?xml version="1.0" encoding="UTF-8" standalone="no"?>
<!-- Created with Inkscape (http://www.inkscape.org/) -->

<svg
   width="240mm"
   height="55mm"
   viewBox="0 0 240 55"
   version="1.1"
   id="svg1"
   inkscape:version="1.4 (e7c3feb1, 2024-10-09)"
   sodipodi:docname="mat-view-agg.svg"
   xmlns:inkscape="http://www.inkscape.org/namespaces/inkscape"
   xmlns:sodipodi="http://sodipodi.sourceforge.net/DTD/sodipodi-0.dtd"
   xmlns="http://www.w3.org/2000/svg"
   xmlns:svg="http://www.w3.org/2000/svg">
  <sodipodi:namedview
     id="namedview1"
     pagecolor="#21222c"
     bordercolor="#666666"
     borderopacity="1.0"
     inkscape:showpageshadow="2"
     inkscape:pageopacity="0.0"
     inkscape:pagecheckerboard="0"
     inkscape:deskcolor="#d1d1d1"
     inkscape:document-units="mm"
     inkscape:zoom="3.2143004"
     inkscape:cx="402.10927"
     inkscape:cy="181.99917"
     inkscape:window-width="3840"
     inkscape:window-height="2107"
     inkscape:window-x="0"
     inkscape:window-y="25"
     inkscape:window-maximized="0"
     inkscape:current-layer="layer1" />
  <defs
     id="defs1">
    <marker
       style="overflow:visible"
       id="ArrowWide"
       refX="0"
       refY="0"
       orient="auto-start-reverse"
       inkscape:stockid="Wide arrow"
       markerWidth="1"
       markerHeight="1"
       viewBox="0 0 1 1"
       inkscape:isstock="true"
       inkscape:collect="always"
       preserveAspectRatio="xMidYMid">
      <path
         style="fill:none;stroke:context-stroke;stroke-width:1;stroke-linecap:butt"
         d="M 3,-3 0,0 3,3"
         transform="rotate(180,0.125,0)"
         sodipodi:nodetypes="ccc"
         id="path7" />
    </marker>
  </defs>
  <g
     inkscape:label="Layer 1"
     inkscape:groupmode="layer"
     id="layer1"
     transform="translate(-3.946068,-10.805786)">
    <ellipse
       style="fill:#fc78c4;stroke:#fefeff;stroke-width:0.689381;stroke-dasharray:none;stroke-opacity:1;fill-opacity:1"
       id="path1"
       cx="87.058884"
       cy="33.793484"
       rx="2.759711"
       ry="2.7597115" />
    <ellipse
       style="fill:#fc78c4;stroke:#fefeff;stroke-width:0.689381;stroke-dasharray:none;stroke-opacity:1;fill-opacity:1"
       id="path1-7"
       cx="97.399597"
       cy="33.793484"
       rx="2.759711"
       ry="2.7597115" />
    <ellipse
       style="fill:#fc78c4;stroke:#fefeff;stroke-width:0.689381;stroke-dasharray:none;stroke-opacity:1;fill-opacity:1"
       id="path1-7-1"
       cx="107.7403"
       cy="33.793484"
       rx="2.759711"
       ry="2.7597115" />
    <ellipse
       style="fill:#fc78c4;stroke:#fefeff;stroke-width:0.689381;stroke-dasharray:none;stroke-opacity:1;fill-opacity:1"
       id="path1-7-1-4"
       cx="118.08101"
       cy="33.793484"
       rx="2.759711"
       ry="2.7597115" />
    <ellipse
       style="fill:#fc78c4;stroke:#fefeff;stroke-width:0.689381;stroke-dasharray:none;stroke-opacity:1;fill-opacity:1"
       id="path1-7-1-4-5"
       cx="128.42171"
       cy="33.793484"
       rx="2.759711"
       ry="2.7597115" />
    <ellipse
       style="fill:#fc78c4;stroke:#fefeff;stroke-width:0.689381;stroke-dasharray:none;stroke-opacity:1;fill-opacity:1"
       id="path1-4"
       cx="138.76242"
       cy="33.793484"
       rx="2.759711"
       ry="2.7597115" />
    <ellipse
       style="fill:#fc78c4;stroke:#fefeff;stroke-width:0.689381;stroke-dasharray:none;stroke-opacity:1;fill-opacity:1"
       id="path1-7-17"
       cx="149.10313"
       cy="33.793484"
       rx="2.759711"
       ry="2.7597115" />
    <ellipse
       style="fill:#fc78c4;stroke:#fefeff;stroke-width:0.689381;stroke-dasharray:none;stroke-opacity:1;fill-opacity:1"
       id="path1-7-1-1"
       cx="159.44383"
       cy="33.793484"
       rx="2.759711"
       ry="2.7597115" />
    <ellipse
       style="fill:#fc78c4;stroke:#fefeff;stroke-width:0.689381;stroke-dasharray:none;stroke-opacity:1;fill-opacity:1"
       id="path1-7-1-4-8"
       cx="169.78455"
       cy="33.793484"
       rx="2.759711"
       ry="2.7597115" />
    <ellipse
       style="fill:#fc78c4;stroke:#fefeff;stroke-width:0.689381;stroke-dasharray:none;stroke-opacity:1;fill-opacity:1"
       id="path1-7-1-4-5-7"
       cx="180.12526"
       cy="33.793484"
       rx="2.759711"
       ry="2.7597115" />
    <ellipse
       style="fill:#fc78c4;stroke:#fefeff;stroke-width:0.689381;stroke-dasharray:none;stroke-opacity:1;fill-opacity:1"
       id="path1-7-17-8"
       cx="190.46596"
       cy="33.793484"
       rx="2.759711"
       ry="2.7597115" />
    <ellipse
       style="fill:#fc78c4;stroke:#fefeff;stroke-width:0.689381;stroke-dasharray:none;stroke-opacity:1;fill-opacity:1"
       id="path1-7-1-1-2"
       cx="200.80667"
       cy="33.793484"
       rx="2.759711"
       ry="2.7597115" />
    <path
       style="fill:#ffffff;stroke:#fefeff;stroke-width:0.975473;stroke-linecap:butt;stroke-linejoin:miter;stroke-dasharray:none;stroke-opacity:1;marker-end:url(#ArrowWide)"
       d="M 83.954488,23.492052 H 203.1074"
       id="path4" />
    <path
       style="font-size:45.7511px;line-height:1.25;font-family:'.Nadeem PUA';-inkscape-font-specification:'.Nadeem PUA';fill:#ffffff;stroke:#fefeff;stroke-width:0.16427"
       d="m 110.56629,39.657292 q 0.18481,0 0.26181,0.0616 l 0.0154,0.354208 q 0.0308,2.109848 -0.89322,2.987668 -0.92402,0.86242 -3.06467,0.86242 h -6.32952 q -1.232024,0 -2.756659,1.355231 l -0.200204,0.169404 q -0.077,0.0924 -0.107803,0.169403 -1.201227,-1.694038 -3.064669,-1.694038 h -6.237142 q -2.18685,0 -3.203273,-0.970222 -1.031823,-0.970222 -1.031823,-3.172473 0.600613,-0.0462 0.90862,-0.0308 h 0.292607 q 0,1.832642 0.600613,2.387054 0.585214,0.554413 2.433256,0.554413 h 6.237142 q 1.293629,0 2.818263,1.232028 0.184805,0.169404 0.246406,0.277206 1.447633,-1.509234 3.064666,-1.509234 h 6.32955 q 1.70944,0 2.29465,-0.616014 0.58521,-0.616015 0.61601,-2.356254 0.50821,-0.0616 0.77002,-0.0616 z"
       id="text6"
       aria-label="{" />
    <path
       style="font-size:45.7511px;line-height:1.25;font-family:'.Nadeem PUA';-inkscape-font-specification:'.Nadeem PUA';fill:#ffffff;stroke:#fefeff;stroke-width:0.16427"
       d="m 141.58841,39.657292 q 0.18481,0 0.2618,0.0616 l 0.0154,0.354208 q 0.0308,2.109848 -0.89322,2.987668 -0.92403,0.86242 -3.06467,0.86242 h -6.32955 q -1.23202,0 -2.75666,1.355231 l -0.2002,0.169404 q -0.077,0.0924 -0.10781,0.169403 -1.20122,-1.694038 -3.06466,-1.694038 h -6.23715 q -2.18684,0 -3.20327,-0.970222 -1.03182,-0.970222 -1.03182,-3.172473 0.60061,-0.0462 0.90862,-0.0308 h 0.29261 q 0,1.832642 0.60061,2.387054 0.58521,0.554413 2.43325,0.554413 h 6.23715 q 1.29363,0 2.81826,1.232028 0.1848,0.169404 0.2464,0.277206 1.44764,-1.509234 3.06467,-1.509234 h 6.32955 q 1.70944,0 2.29465,-0.616014 0.58522,-0.616015 0.61601,-2.356254 0.50822,-0.0616 0.77002,-0.0616 z"
       id="text6-1"
       aria-label="{" />
    <path
       style="font-size:45.7511px;line-height:1.25;font-family:'.Nadeem PUA';-inkscape-font-specification:'.Nadeem PUA';fill:#ffffff;stroke:#fefeff;stroke-width:0.16427"
       d="m 172.61053,39.657292 q 0.18481,0 0.26181,0.0616 l 0.0154,0.354208 q 0.0308,2.109848 -0.89322,2.987668 -0.92402,0.86242 -3.06467,0.86242 h -6.32954 q -1.23203,0 -2.75666,1.355231 l -0.20021,0.169404 q -0.077,0.0924 -0.1078,0.169403 -1.20123,-1.694038 -3.06467,-1.694038 h -6.23714 q -2.18685,0 -3.20327,-0.970222 -1.03183,-0.970222 -1.03183,-3.172473 0.60061,-0.0462 0.90862,-0.0308 h 0.29261 q 0,1.832642 0.60062,2.387054 0.5852,0.554413 2.43325,0.554413 h 6.23714 q 1.29363,0 2.81826,1.232028 0.18481,0.169404 0.24641,0.277206 1.44764,-1.509234 3.06467,-1.509234 h 6.32954 q 1.70944,0 2.29466,-0.616014 0.58521,-0.616015 0.61601,-2.356254 0.50821,-0.0616 0.77001,-0.0616 z"
       id="text6-1-4"
       aria-label="{" />
    <path
       style="font-size:45.7511px;line-height:1.25;font-family:'.Nadeem PUA';-inkscape-font-specification:'.Nadeem PUA';fill:#ffffff;stroke:#fefeff;stroke-width:0.16427"
       d="m 203.63265,39.657292 q 0.18481,0 0.26181,0.0616 l 0.0154,0.354208 q 0.0308,2.109848 -0.89321,2.987668 -0.92403,0.86242 -3.06467,0.86242 h -6.32955 q -1.23203,0 -2.75666,1.355231 l -0.2002,0.169404 q -0.077,0.0924 -0.10781,0.169403 -1.20122,-1.694038 -3.06467,-1.694038 h -6.23714 q -2.18685,0 -3.20327,-0.970222 -1.03182,-0.970222 -1.03182,-3.172473 0.60061,-0.0462 0.90862,-0.0308 h 0.2926 q 0,1.832642 0.60062,2.387054 0.58521,0.554413 2.43325,0.554413 h 6.23714 q 1.29363,0 2.81827,1.232028 0.1848,0.169404 0.2464,0.277206 1.44764,-1.509234 3.06467,-1.509234 h 6.32955 q 1.70943,0 2.29465,-0.616014 0.58521,-0.616015 0.61601,-2.356254 0.50822,-0.0616 0.77002,-0.0616 z"
       id="text6-1-4-8"
       aria-label="{" />
    <ellipse
       style="fill:#8be9fd;stroke:#fefeff;stroke-width:0.689381;stroke-dasharray:none;stroke-opacity:1;fill-opacity:1"
       id="path1-7-4"
       cx="97.399597"
       cy="51.251972"
       rx="2.759711"
       ry="2.7597115" />
    <ellipse
       style="fill:#8be9fd;stroke:#fefeff;stroke-width:0.689381;stroke-dasharray:none;stroke-opacity:1;fill-opacity:1"
       id="path1-7-1-4-5-0"
       cx="128.42171"
       cy="51.251972"
       rx="2.759711"
       ry="2.7597115" />
    <ellipse
       style="fill:#8be9fd;stroke:#fefeff;stroke-width:0.689381;stroke-dasharray:none;stroke-opacity:1;fill-opacity:1"
       id="path1-7-1-1-6"
       cx="159.44383"
       cy="51.251972"
       rx="2.759711"
       ry="2.7597115" />
    <ellipse
       style="fill:#8be9fd;stroke:#fefeff;stroke-width:0.689381;stroke-dasharray:none;stroke-opacity:1;fill-opacity:1"
       id="path1-7-17-8-0"
       cx="190.46596"
       cy="51.251972"
       rx="2.759711"
       ry="2.7597115" />
    <path
       d="m 50.263555,25.047402 q -0.15105,0.0399 -0.330598,0.06555 -0.176699,0.02565 -0.316348,0.02565 -0.487346,0 -0.740994,-0.262198 -0.253648,-0.262199 -0.253648,-0.840744 v -1.69289 h -0.361948 v -0.450297 h 0.361948 V 20.97763 h 0.535795 v 0.914843 h 1.105793 v 0.450297 h -1.105793 v 1.45064 q 0,0.250798 0.0114,0.393297 0.0114,0.139648 0.0798,0.262197 0.0627,0.114 0.170999,0.168149 0.111149,0.0513 0.336297,0.0513 0.131099,0 0.273598,-0.03705 0.142499,-0.0399 0.205199,-0.06555 h 0.0285 z m 1.22264,-3.687874 H 50.882 v -0.555745 h 0.604195 z m -0.0342,3.716374 h -0.535796 v -3.183427 h 0.535796 z m 5.705659,0 h -0.535796 v -1.812587 q 0,-0.205199 -0.01995,-0.396147 -0.0171,-0.190949 -0.07695,-0.304948 -0.06555,-0.12255 -0.188099,-0.185249 -0.122549,-0.0627 -0.353397,-0.0627 -0.225149,0 -0.450298,0.114 -0.225148,0.111149 -0.450296,0.284998 0.0085,0.06555 0.01425,0.153898 0.0057,0.0855 0.0057,0.170999 v 2.037735 h -0.535796 v -1.812587 q 0,-0.210898 -0.01995,-0.398997 -0.0171,-0.190948 -0.07695,-0.304948 -0.06555,-0.122549 -0.188099,-0.182398 -0.122549,-0.0627 -0.353397,-0.0627 -0.219448,0 -0.441747,0.108299 -0.219448,0.108299 -0.438897,0.276448 v 2.376883 h -0.535796 v -3.183427 h 0.535796 v 0.353398 q 0.250799,-0.208049 0.498747,-0.324898 0.250798,-0.116849 0.532946,-0.116849 0.324897,0 0.550046,0.136799 0.227998,0.136799 0.339147,0.379047 0.324898,-0.273598 0.592797,-0.393297 0.267897,-0.122549 0.572845,-0.122549 0.524396,0 0.772344,0.319198 0.250799,0.316347 0.250799,0.886343 z m 3.696423,-1.53614 h -2.345533 q 0,0.293548 0.08835,0.512997 0.08835,0.216598 0.242248,0.356248 0.148199,0.136798 0.350547,0.205198 0.205198,0.0684 0.450297,0.0684 0.324897,0 0.652645,-0.128249 0.330597,-0.131099 0.470247,-0.256498 h 0.0285 v 0.584246 q -0.270748,0.113999 -0.552896,0.190948 -0.282148,0.07695 -0.592796,0.07695 -0.792294,0 -1.236891,-0.427497 -0.444597,-0.430347 -0.444597,-1.219791 0,-0.780895 0.424647,-1.239741 0.427497,-0.458847 1.122892,-0.458847 0.644095,0 0.991792,0.376197 0.350548,0.376197 0.350548,1.068742 z m -0.521546,-0.410396 q -0.0028,-0.421797 -0.213748,-0.652646 -0.208049,-0.230848 -0.635545,-0.230848 -0.430347,0 -0.686845,0.253648 -0.253649,0.253648 -0.287848,0.629846 z m 3.608074,1.028843 q 0,0.436046 -0.361947,0.715344 -0.359098,0.279298 -0.983243,0.279298 -0.353397,0 -0.649796,-0.08265 -0.293547,-0.0855 -0.493046,-0.185249 v -0.601345 h 0.0285 q 0.253648,0.190948 0.564296,0.304947 0.310647,0.11115 0.595645,0.11115 0.353398,0 0.552896,-0.114 0.199499,-0.113999 0.199499,-0.359098 0,-0.188098 -0.108299,-0.284997 -0.108299,-0.0969 -0.416097,-0.165299 -0.114,-0.02565 -0.299248,-0.05985 -0.182399,-0.0342 -0.333448,-0.0741 -0.418947,-0.111149 -0.595645,-0.324898 -0.173849,-0.216598 -0.173849,-0.530095 0,-0.196649 0.0798,-0.370498 0.08265,-0.173849 0.247948,-0.310648 0.159599,-0.133949 0.404698,-0.210898 0.247948,-0.0798 0.552895,-0.0798 0.284998,0 0.575696,0.07125 0.293548,0.0684 0.487347,0.168149 v 0.572846 h -0.0285 q -0.205199,-0.151049 -0.498747,-0.253648 -0.293548,-0.10545 -0.575695,-0.10545 -0.293548,0 -0.495897,0.113999 -0.202349,0.11115 -0.202349,0.333448 0,0.196649 0.12255,0.296398 0.119699,0.09975 0.387597,0.162448 0.148199,0.0342 0.330598,0.0684 0.185248,0.0342 0.307797,0.0627 0.373347,0.0855 0.575696,0.293548 0.202349,0.210898 0.202349,0.558596 z m 2.419633,0.889193 q -0.151049,0.0399 -0.330598,0.06555 -0.176699,0.02565 -0.316348,0.02565 -0.487346,0 -0.740994,-0.262198 Q 64.71865,24.614203 64.71865,24.035658 V 22.34277 H 64.356702 V 21.892473 H 64.71865 V 20.97763 h 0.535796 v 0.914843 h 1.105792 v 0.450297 h -1.105792 v 1.45064 q 0,0.250798 0.0114,0.393297 0.0114,0.139648 0.0798,0.262197 0.0627,0.114 0.170998,0.168149 0.11115,0.0513 0.336298,0.0513 0.131099,0 0.273598,-0.03705 0.142499,-0.0399 0.205199,-0.06555 h 0.0285 z m 3.120726,0.0285 h -0.532945 v -0.339148 q -0.07125,0.04845 -0.193799,0.136799 -0.119699,0.0855 -0.233699,0.136799 -0.133948,0.06555 -0.307797,0.1083 -0.173849,0.0456 -0.407547,0.0456 -0.430347,0 -0.729595,-0.284998 -0.299248,-0.284998 -0.299248,-0.726745 0,-0.361947 0.153899,-0.584246 0.156749,-0.225148 0.444597,-0.353397 0.290698,-0.128249 0.698245,-0.173849 0.407547,-0.0456 0.874944,-0.0684 v -0.08265 q 0,-0.182399 -0.06555,-0.302098 -0.0627,-0.119699 -0.182399,-0.188098 -0.113999,-0.06555 -0.273598,-0.08835 -0.159599,-0.0228 -0.333448,-0.0228 -0.210898,0 -0.470246,0.057 -0.259348,0.05415 -0.535796,0.159599 h -0.0285 v -0.544346 q 0.156748,-0.04275 0.453146,-0.09405 0.296398,-0.0513 0.584246,-0.0513 0.336298,0 0.584246,0.057 0.250798,0.05415 0.433197,0.188099 0.179548,0.131099 0.273598,0.339148 0.09405,0.208048 0.09405,0.515846 z m -0.532945,-0.783744 v -0.886344 q -0.245098,0.01425 -0.578546,0.04275 -0.330598,0.0285 -0.524396,0.08265 -0.230849,0.06555 -0.373347,0.205198 -0.142499,0.136799 -0.142499,0.379048 0,0.273597 0.165298,0.413247 0.165299,0.136798 0.504446,0.136798 0.282149,0 0.515847,-0.108299 0.233698,-0.111149 0.433197,-0.265048 z m 6.210104,0.783744 h -0.535796 v -1.812587 q 0,-0.205198 -0.01995,-0.396147 -0.0171,-0.190949 -0.07695,-0.304948 -0.06555,-0.122549 -0.188099,-0.185248 -0.122549,-0.0627 -0.353397,-0.0627 -0.225148,0 -0.450296,0.114 -0.225149,0.111149 -0.450298,0.284998 0.0085,0.06555 0.01425,0.153899 0.0057,0.0855 0.0057,0.170998 v 2.037736 h -0.535796 v -1.812587 q 0,-0.210899 -0.01995,-0.398997 -0.0171,-0.190949 -0.07695,-0.304948 -0.06555,-0.122549 -0.188099,-0.182399 -0.122549,-0.0627 -0.353397,-0.0627 -0.219449,0 -0.441747,0.1083 -0.219449,0.108299 -0.438897,0.276447 v 2.376883 h -0.535796 v -3.183427 h 0.535796 v 0.353398 q 0.250799,-0.208049 0.498747,-0.324898 0.250798,-0.116849 0.532945,-0.116849 0.324899,0 0.550047,0.136799 0.227998,0.136799 0.339147,0.379048 0.324898,-0.273599 0.592796,-0.393298 0.267898,-0.122549 0.572846,-0.122549 0.524396,0 0.772344,0.319198 0.250798,0.316347 0.250798,0.886343 z m 3.833224,-1.630189 q 0,0.387598 -0.11115,0.709645 -0.111149,0.319198 -0.313498,0.541496 -0.188098,0.210899 -0.444597,0.327748 -0.253647,0.114 -0.538646,0.114 -0.247948,0 -0.450296,-0.05415 -0.199499,-0.05415 -0.407547,-0.168149 v 1.333791 h -0.535797 v -4.357619 h 0.535797 v 0.333448 q 0.213748,-0.179549 0.478796,-0.299248 0.267899,-0.122549 0.569996,-0.122549 0.575696,0 0.894893,0.436047 0.322049,0.433197 0.322049,1.205541 z m -0.552897,0.01425 q 0,-0.575696 -0.196648,-0.860694 -0.196649,-0.284998 -0.604196,-0.284998 -0.230848,0 -0.464547,0.09975 -0.233698,0.09975 -0.447446,0.262199 v 1.804037 q 0.227998,0.102599 0.390447,0.139648 0.165299,0.03705 0.373347,0.03705 0.447447,0 0.698245,-0.302098 0.250798,-0.302098 0.250798,-0.894894 z"
       id="text7"
       style="font-size:8.46667px;line-height:1.25;text-align:end;text-anchor:end;fill:#ffffff;stroke-width:0.182398"
       aria-label="timestamp" />
    <path
       d="m 50.987451,35.925707 q -0.151049,0.0399 -0.330598,0.06555 -0.176698,0.02565 -0.316347,0.02565 -0.487347,0 -0.740995,-0.262198 -0.253648,-0.262198 -0.253648,-0.840744 V 33.221077 H 48.983916 V 32.77078 h 0.361947 v -0.914843 h 0.535796 v 0.914843 h 1.105792 v 0.450297 h -1.105792 v 1.45064 q 0,0.250798 0.0114,0.393297 0.0114,0.139648 0.0798,0.262197 0.0627,0.114 0.170999,0.168149 0.11115,0.0513 0.336298,0.0513 0.131099,0 0.273598,-0.03705 0.142499,-0.0399 0.205198,-0.06555 h 0.0285 z m 3.120727,0.0285 H 53.575232 V 35.61506 q -0.07125,0.04845 -0.193799,0.136799 -0.119699,0.0855 -0.233698,0.136799 -0.133949,0.06555 -0.307798,0.108299 -0.173848,0.0456 -0.407547,0.0456 -0.430346,0 -0.729594,-0.284998 -0.299248,-0.284999 -0.299248,-0.726745 0,-0.361947 0.153899,-0.584246 0.156749,-0.225148 0.444597,-0.353397 0.290698,-0.128249 0.698244,-0.173849 0.407548,-0.0456 0.874944,-0.0684 v -0.08265 q 0,-0.182399 -0.06555,-0.302097 -0.0627,-0.119699 -0.182399,-0.188099 -0.113999,-0.06555 -0.273597,-0.08835 -0.1596,-0.0228 -0.333448,-0.0228 -0.210899,0 -0.470247,0.057 -0.259348,0.05415 -0.535796,0.159598 h -0.0285 v -0.544346 q 0.156749,-0.04275 0.453146,-0.09405 0.296398,-0.0513 0.584246,-0.0513 0.336298,0 0.584246,0.057 0.250798,0.05415 0.433197,0.188099 0.179549,0.131099 0.273598,0.339147 0.09405,0.208049 0.09405,0.515847 z M 53.575232,35.170463 V 34.28412 q -0.245098,0.01425 -0.578546,0.04275 -0.330597,0.0285 -0.524396,0.08265 -0.230849,0.06555 -0.373347,0.205198 -0.142499,0.1368 -0.142499,0.379048 0,0.273598 0.165299,0.413247 0.165298,0.136799 0.504446,0.136799 0.282148,0 0.515846,-0.108299 0.233699,-0.11115 0.433197,-0.265048 z M 57.9414,34.338268 q 0,0.398997 -0.113999,0.718195 -0.11115,0.319197 -0.302098,0.535796 -0.202349,0.225148 -0.444597,0.339147 -0.242248,0.11115 -0.532946,0.11115 -0.270748,0 -0.473097,-0.06555 -0.202348,-0.0627 -0.398997,-0.170999 l -0.0342,0.148199 h -0.501597 v -4.434568 h 0.535797 v 1.584589 q 0.225148,-0.185249 0.478796,-0.302098 0.253648,-0.119699 0.569996,-0.119699 0.564296,0 0.889193,0.433196 0.327748,0.433197 0.327749,1.222642 z m -0.552896,0.01425 q 0,-0.569997 -0.188099,-0.863544 -0.188099,-0.296398 -0.607046,-0.296398 -0.233698,0 -0.473096,0.102599 -0.239398,0.09975 -0.444597,0.259348 v 1.823987 q 0.227998,0.102599 0.390448,0.142499 0.165298,0.0399 0.373347,0.0399 0.444596,0 0.695394,-0.290698 0.253649,-0.293548 0.253649,-0.917693 z m 1.929436,1.601688 h -0.535796 v -4.434568 h 0.535796 z m 3.724922,-1.536139 h -2.345533 q 0,0.293547 0.08835,0.512996 0.08835,0.216598 0.242248,0.356248 0.148199,0.136798 0.350547,0.205198 0.205199,0.0684 0.450297,0.0684 0.324898,0 0.652645,-0.128249 0.330598,-0.131099 0.470247,-0.256498 h 0.0285 v 0.584246 q -0.270748,0.113999 -0.552896,0.190948 -0.282148,0.07695 -0.592795,0.07695 -0.792295,0 -1.236892,-0.427497 -0.444596,-0.430347 -0.444596,-1.219791 0,-0.780894 0.424646,-1.239741 0.427498,-0.458847 1.122892,-0.458847 0.644095,0 0.991793,0.376198 0.350548,0.376197 0.350548,1.068742 z M 62.521316,34.00767 q -0.0028,-0.421797 -0.213748,-0.652645 -0.208049,-0.230848 -0.635546,-0.230848 -0.430347,0 -0.686845,0.253647 -0.253648,0.253648 -0.287848,0.629846 z m 5.372212,-0.652645 h -0.0285 q -0.119699,-0.0285 -0.233697,-0.0399 -0.11115,-0.01425 -0.265049,-0.01425 -0.247948,0 -0.478796,0.111149 -0.230849,0.108299 -0.444597,0.282148 v 2.260033 H 65.907092 V 32.77078 h 0.535796 v 0.470247 q 0.319198,-0.256498 0.561446,-0.361947 0.245099,-0.1083 0.498747,-0.1083 0.139649,0 0.202349,0.0085 0.0627,0.0057 0.188098,0.02565 z m 3.217626,1.008892 q 0,0.778045 -0.398997,1.228341 -0.398997,0.450297 -1.068742,0.450297 -0.675446,0 -1.074443,-0.450297 -0.396147,-0.450296 -0.396147,-1.228341 0,-0.778044 0.396147,-1.228341 0.398997,-0.453146 1.074443,-0.453146 0.669745,0 1.068742,0.453146 0.398997,0.450297 0.398997,1.228341 z m -0.552896,0 q 0,-0.618445 -0.242248,-0.917693 -0.242249,-0.302098 -0.672595,-0.302098 -0.436047,0 -0.678295,0.302098 -0.239399,0.299248 -0.239399,0.917693 0,0.598496 0.242248,0.909143 0.242249,0.307799 0.675446,0.307799 0.427496,0 0.669745,-0.304949 0.245098,-0.307797 0.245098,-0.911993 z m 5.38646,-1.593138 -0.829343,3.183427 H 74.619478 L 73.801534,33.500374 72.98929,35.954206 H 72.496244 L 71.65835,32.770779 h 0.558595 l 0.584246,2.465232 0.795145,-2.465232 h 0.441747 l 0.815094,2.465232 0.552895,-2.465232 z m 3.046629,2.265734 q 0,0.436046 -0.361947,0.715344 -0.359098,0.279298 -0.983243,0.279298 -0.353398,0 -0.649796,-0.08265 -0.293548,-0.0855 -0.493046,-0.185249 v -0.601345 h 0.0285 q 0.253648,0.190948 0.564296,0.304947 0.310648,0.11115 0.595645,0.11115 0.353398,0 0.552897,-0.114 0.199498,-0.113999 0.199498,-0.359097 0,-0.188099 -0.108299,-0.284998 -0.108299,-0.0969 -0.416097,-0.165299 -0.113999,-0.02565 -0.299248,-0.05985 -0.182399,-0.0342 -0.333447,-0.0741 -0.418947,-0.11115 -0.595646,-0.324898 -0.173849,-0.216598 -0.173849,-0.530096 0,-0.196649 0.0798,-0.370497 0.08265,-0.173849 0.247948,-0.310648 0.159598,-0.13395 0.404697,-0.210899 0.247948,-0.0798 0.552896,-0.0798 0.284998,0 0.575695,0.07125 0.293548,0.0684 0.487347,0.168149 v 0.572846 h -0.0285 q -0.205198,-0.151049 -0.498746,-0.253648 -0.293548,-0.105449 -0.575696,-0.105449 -0.293548,0 -0.495897,0.113998 -0.202348,0.11115 -0.202348,0.333448 0,0.196649 0.122549,0.296398 0.119699,0.09975 0.387597,0.162449 0.148199,0.0342 0.330598,0.0684 0.185249,0.0342 0.307798,0.0627 0.373347,0.0855 0.575695,0.293547 0.202349,0.210899 0.202349,0.558597 z"
       id="text7-4"
       style="font-size:8.46667px;line-height:1.25;text-align:end;text-anchor:end;fill:#ffffff;stroke-width:0.182398"
       aria-label="table rows" />
    <g
       id="text7-4-0"
       style="font-size:8.46667px;line-height:1.25;text-align:end;text-anchor:end;fill:#ffffff;stroke-width:0.264583"
       aria-label="materialized&#10;view rows"
       transform="matrix(0.68938053,0,0,0.68938053,38.500062,11.898523)">
      <path
         d="m 14.50071,53.828041 h -0.777214 v -2.629298 q 0,-0.297656 -0.02894,-0.574642 -0.0248,-0.276986 -0.111621,-0.44235 -0.09509,-0.177767 -0.272852,-0.268718 -0.177767,-0.09095 -0.51263,-0.09095 -0.326595,0 -0.65319,0.165365 -0.326596,0.161231 -0.653191,0.413412 0.0124,0.09508 0.02067,0.223242 0.0083,0.124023 0.0083,0.248047 v 2.955893 h -0.777214 v -2.629298 q 0,-0.305924 -0.02894,-0.578776 -0.0248,-0.276986 -0.111621,-0.442351 -0.09508,-0.177767 -0.272851,-0.264583 -0.177767,-0.09095 -0.5126308,-0.09095 -0.318327,0 -0.6407881,0.157097 -0.3183269,0.157096 -0.6366539,0.401009 v 3.447853 H 7.7621004 v -4.617808 h 0.7772138 v 0.512631 q 0.3638023,-0.301791 0.7234704,-0.47129 0.3638022,-0.169498 0.7730794,-0.169498 0.47129,0 0.797885,0.198437 0.330729,0.198438 0.49196,0.549838 0.471289,-0.396875 0.859896,-0.570508 0.388607,-0.177767 0.830957,-0.177767 0.760678,0 1.120346,0.463021 0.363802,0.458887 0.363802,1.28571 z m 5.084963,0 h -0.77308 v -0.49196 q -0.103352,0.07028 -0.281119,0.198438 -0.173633,0.124023 -0.338998,0.198437 -0.194303,0.09508 -0.446485,0.157097 -0.252181,0.06615 -0.591178,0.06615 -0.624252,0 -1.058334,-0.413412 -0.434082,-0.413412 -0.434082,-1.0542 0,-0.525032 0.223242,-0.847493 0.227377,-0.326596 0.644922,-0.512631 0.42168,-0.186035 1.012859,-0.252181 0.591178,-0.06615 1.269173,-0.09922 v -0.119889 q 0,-0.264584 -0.09508,-0.438216 -0.09095,-0.173633 -0.264584,-0.272852 -0.165364,-0.09508 -0.396875,-0.128158 -0.23151,-0.03307 -0.483691,-0.03307 -0.305925,0 -0.68213,0.08268 -0.376204,0.07855 -0.777213,0.23151 h -0.04134 v -0.789616 q 0.227377,-0.06201 0.657325,-0.136426 0.429948,-0.07441 0.847494,-0.07441 0.487825,0 0.847493,0.08268 0.363803,0.07855 0.628386,0.272852 0.260449,0.190169 0.396875,0.49196 0.136426,0.30179 0.136426,0.748275 z m -0.77308,-1.136882 v -1.28571 q -0.355534,0.02067 -0.839225,0.06201 -0.479558,0.04134 -0.760678,0.119889 -0.334863,0.09508 -0.541569,0.297656 -0.206706,0.198438 -0.206706,0.549838 0,0.396875 0.239779,0.599447 0.239779,0.198437 0.731739,0.198437 0.409277,0 0.748275,-0.157096 0.338997,-0.161231 0.628385,-0.384473 z m 4.667418,1.095541 q -0.219109,0.05788 -0.479558,0.09508 -0.256315,0.03721 -0.458887,0.03721 -0.706934,0 -1.07487,-0.380339 Q 21.09876,53.158312 21.09876,52.319087 V 49.863422 H 20.573727 V 49.210231 H 21.09876 V 47.88318 h 0.777213 v 1.327051 h 1.604038 v 0.653191 h -1.604038 v 2.104265 q 0,0.363802 0.01654,0.570508 0.01654,0.202572 0.115755,0.380339 0.09095,0.165364 0.248047,0.243912 0.161231,0.07441 0.487826,0.07441 0.190169,0 0.396875,-0.05374 0.206706,-0.05788 0.297656,-0.09508 h 0.04134 z m 4.803843,-2.186948 h -3.402378 q 0,0.425814 0.128158,0.744141 0.128158,0.314193 0.3514,0.516765 0.214974,0.198437 0.508496,0.297656 0.297656,0.09922 0.65319,0.09922 0.47129,0 0.946713,-0.186035 0.479558,-0.19017 0.682129,-0.372071 h 0.04134 v 0.847494 q -0.392741,0.165365 -0.802018,0.276986 -0.409278,0.111621 -0.859896,0.111621 -1.149285,0 -1.794207,-0.620117 -0.644922,-0.624252 -0.644922,-1.769402 0,-1.132748 0.615983,-1.798341 0.620118,-0.665592 1.628842,-0.665592 0.93431,0 1.438673,0.545703 0.508496,0.545703 0.508496,1.550294 z M 27.527311,51.00444 q -0.0041,-0.61185 -0.310059,-0.946713 -0.30179,-0.334863 -0.921908,-0.334863 -0.624251,0 -0.996322,0.367936 -0.367936,0.367936 -0.417546,0.91364 z m 4.816244,-0.946713 h -0.04134 q -0.173633,-0.04134 -0.338997,-0.05788 -0.161231,-0.02067 -0.384473,-0.02067 -0.359668,0 -0.694532,0.16123 -0.334863,0.157097 -0.644922,0.409278 v 3.278354 h -0.777214 v -4.617808 h 0.777214 v 0.682129 q 0.463021,-0.37207 0.814421,-0.525032 0.355534,-0.157097 0.72347,-0.157097 0.202572,0 0.293523,0.0124 0.09095,0.0083 0.272851,0.03721 z m 1.566831,-1.620573 h -0.876432 v -0.806153 h 0.876432 z m -0.04961,5.390887 h -0.777214 v -4.617808 h 0.777214 z m 5.126304,0 h -0.773079 v -0.49196 q -0.103353,0.07028 -0.28112,0.198438 -0.173633,0.124023 -0.338998,0.198437 -0.194303,0.09508 -0.446484,0.157097 -0.252181,0.06615 -0.591179,0.06615 -0.624252,0 -1.058334,-0.413412 -0.434082,-0.413412 -0.434082,-1.0542 0,-0.525032 0.223242,-0.847493 0.227377,-0.326596 0.644922,-0.512631 0.42168,-0.186035 1.012859,-0.252181 0.591179,-0.06615 1.269174,-0.09922 v -0.119889 q 0,-0.264584 -0.09508,-0.438216 -0.09095,-0.173633 -0.264583,-0.272852 -0.165365,-0.09508 -0.396876,-0.128158 -0.23151,-0.03307 -0.483691,-0.03307 -0.305925,0 -0.682129,0.08268 -0.376205,0.07855 -0.777214,0.23151 h -0.04134 v -0.789616 q 0.227376,-0.06201 0.657324,-0.136426 0.429948,-0.07441 0.847494,-0.07441 0.487826,0 0.847494,0.08268 0.363802,0.07855 0.628385,0.272852 0.26045,0.190169 0.396876,0.49196 0.136425,0.30179 0.136425,0.748275 z m -0.773079,-1.136882 v -1.28571 q -0.355534,0.02067 -0.839226,0.06201 -0.479557,0.04134 -0.760677,0.119889 -0.334864,0.09508 -0.54157,0.297656 -0.206705,0.198438 -0.206705,0.549838 0,0.396875 0.239778,0.599447 0.239779,0.198437 0.731739,0.198437 0.409277,0 0.748275,-0.157096 0.338997,-0.161231 0.628386,-0.384473 z m 3.055111,1.136882 H 40.4919 v -6.432685 h 0.777213 z m 2.372982,-5.390887 h -0.876433 v -0.806153 h 0.876433 z m -0.04961,5.390887 H 42.81527 v -4.617808 h 0.777214 z m 4.886528,0 H 44.75004 v -0.574642 l 2.69131,-3.39411 h -2.633432 v -0.649056 h 3.600815 v 0.553972 l -2.703712,3.406512 h 2.773992 z m 4.915465,-2.228289 H 49.9921 q 0,0.425814 0.128157,0.744141 0.128158,0.314193 0.3514,0.516765 0.214974,0.198437 0.508496,0.297656 0.297657,0.09922 0.653191,0.09922 0.471289,0 0.946712,-0.186035 0.479558,-0.19017 0.68213,-0.372071 h 0.04134 v 0.847494 q -0.392741,0.165365 -0.802019,0.276986 -0.409277,0.111621 -0.859896,0.111621 -1.149284,0 -1.794206,-0.620117 -0.644923,-0.624252 -0.644923,-1.769402 0,-1.132748 0.615984,-1.798341 0.620117,-0.665592 1.628842,-0.665592 0.93431,0 1.438672,0.545703 0.508496,0.545703 0.508496,1.550294 z M 52.637935,51.00444 q -0.0041,-0.61185 -0.310059,-0.946713 -0.30179,-0.334863 -0.921908,-0.334863 -0.624251,0 -0.996322,0.367936 -0.367936,0.367936 -0.417545,0.91364 z m 5.680271,2.823601 h -0.777214 v -0.483692 q -0.334863,0.289389 -0.698665,0.450619 -0.363803,0.161231 -0.789617,0.161231 -0.826823,0 -1.314648,-0.636654 -0.483692,-0.636654 -0.483692,-1.765268 0,-0.587044 0.165365,-1.045931 0.169498,-0.458887 0.454752,-0.781348 0.28112,-0.314193 0.653191,-0.479558 0.376204,-0.165364 0.777214,-0.165364 0.363802,0 0.644922,0.07855 0.28112,0.07441 0.591178,0.235644 v -2.000912 h 0.777214 z m -0.777214,-1.136882 v -2.649968 q -0.314193,-0.14056 -0.562239,-0.194304 -0.248047,-0.05374 -0.54157,-0.05374 -0.65319,0 -1.016992,0.454752 -0.363803,0.454753 -0.363803,1.289845 0,0.822689 0.28112,1.252637 0.28112,0.425814 0.901238,0.425814 0.330729,0 0.669727,-0.144694 0.338997,-0.148828 0.632519,-0.380339 z"
         id="path2" />
      <path
         d="m 21.466696,59.793571 -1.868621,4.617808 h -0.781348 l -1.856218,-4.617808 h 0.84336 l 1.430404,3.675229 1.418002,-3.675229 z m 1.852084,-0.77308 h -0.876433 v -0.806153 h 0.876433 z m -0.04961,5.390888 h -0.777214 v -4.617808 h 0.777214 z m 5.40329,-2.228289 h -3.402377 q 0,0.425814 0.128157,0.744141 0.128158,0.314193 0.3514,0.516764 0.214974,0.198438 0.508497,0.297657 0.297656,0.09922 0.65319,0.09922 0.471289,0 0.946713,-0.186036 0.479557,-0.190169 0.682129,-0.37207 h 0.04134 v 0.847494 q -0.392741,0.165364 -0.802019,0.276986 -0.409277,0.111621 -0.859896,0.111621 -1.149284,0 -1.794206,-0.620118 -0.644922,-0.624251 -0.644922,-1.769402 0,-1.132747 0.615983,-1.79834 0.620117,-0.665593 1.628842,-0.665593 0.93431,0 1.438672,0.545704 0.508496,0.545703 0.508496,1.550293 z m -0.756543,-0.595313 q -0.0041,-0.611849 -0.310059,-0.946712 -0.30179,-0.334864 -0.921907,-0.334864 -0.624252,0 -0.996322,0.367937 -0.367937,0.367936 -0.417546,0.913639 z m 7.7432,-1.794206 -1.203028,4.617808 h -0.719336 l -1.186491,-3.559474 -1.178223,3.559474 h -0.715203 l -1.21543,-4.617808 h 0.810287 l 0.847494,3.57601 1.153418,-3.57601 h 0.640788 l 1.182358,3.57601 0.802018,-3.57601 z m 6.978388,0.847494 h -0.04134 q -0.173633,-0.04134 -0.338998,-0.05788 -0.16123,-0.02067 -0.384473,-0.02067 -0.359668,0 -0.694531,0.161231 -0.334864,0.157096 -0.644922,0.409277 v 3.278355 H 39.756026 V 59.793571 H 40.53324 V 60.4757 q 0.463021,-0.37207 0.814421,-0.525033 0.355534,-0.157096 0.72347,-0.157096 0.202572,0 0.293522,0.0124 0.09095,0.0083 0.272852,0.03721 z m 4.667418,1.463477 q 0,1.128613 -0.578776,1.781804 -0.578777,0.65319 -1.550294,0.65319 -0.979786,0 -1.558562,-0.65319 -0.574642,-0.653191 -0.574642,-1.781804 0,-1.128614 0.574642,-1.781804 0.578776,-0.657325 1.558562,-0.657325 0.971517,0 1.550294,0.657325 0.578776,0.65319 0.578776,1.781804 z m -0.802019,0 q 0,-0.897103 -0.3514,-1.331186 -0.351399,-0.438216 -0.975651,-0.438216 -0.63252,0 -0.98392,0.438216 -0.347265,0.434083 -0.347265,1.331186 0,0.868164 0.351399,1.318783 0.3514,0.446484 0.979786,0.446484 0.620117,0 0.971517,-0.44235 0.355534,-0.446485 0.355534,-1.322917 z m 7.81348,-2.310971 -1.203028,4.617808 H 52.39402 l -1.186492,-3.559474 -1.178223,3.559474 h -0.715202 l -1.21543,-4.617808 h 0.810287 l 0.847494,3.57601 1.153418,-3.57601 h 0.640788 l 1.182357,3.57601 0.802019,-3.57601 z m 4.419369,3.286622 q 0,0.63252 -0.525033,1.037663 -0.520899,0.405144 -1.42627,0.405144 -0.51263,0 -0.942578,-0.11989 -0.425814,-0.124023 -0.715203,-0.268717 v -0.872299 h 0.04134 q 0.367936,0.276986 0.818555,0.442351 0.450618,0.16123 0.86403,0.16123 0.51263,0 0.802018,-0.165364 0.289389,-0.165365 0.289389,-0.520899 0,-0.272852 -0.157097,-0.413412 -0.157096,-0.14056 -0.603581,-0.239778 -0.165364,-0.03721 -0.434082,-0.08682 -0.264583,-0.04961 -0.483692,-0.107487 -0.607715,-0.16123 -0.86403,-0.471289 -0.252181,-0.314193 -0.252181,-0.768946 0,-0.285254 0.115755,-0.537435 0.11989,-0.252181 0.359668,-0.450618 0.231511,-0.194304 0.587045,-0.305925 0.359668,-0.115755 0.802018,-0.115755 0.413412,0 0.835092,0.103353 0.425814,0.09922 0.706934,0.243912 v 0.830958 h -0.04134 q -0.297657,-0.219108 -0.723471,-0.367937 -0.425814,-0.152962 -0.835091,-0.152962 -0.425814,0 -0.719336,0.165365 -0.293523,0.16123 -0.293523,0.483691 0,0.285254 0.177767,0.429948 0.173633,0.144695 0.56224,0.235645 0.214974,0.04961 0.479558,0.09922 0.268717,0.04961 0.446484,0.09095 0.541569,0.124024 0.835092,0.425814 0.293522,0.305925 0.293522,0.810287 z"
         id="path3" />
    </g>
  </g>
</svg>
