<svg width="19" height="19" viewBox="0 0 19 19" fill="none" xmlns="http://www.w3.org/2000/svg">
<g clip-path="url(#clip0_3309_99)">
<path d="M12.5 16.25V14.75C12.5 13.9544 12.1839 13.1913 11.6213 12.6287C11.0587 12.0661 10.2956 11.75 9.5 11.75H4.25C3.45435 11.75 2.69129 12.0661 2.12868 12.6287C1.56607 13.1913 1.25 13.9544 1.25 14.75V16.25" stroke="white" stroke-width="2" stroke-linecap="round" stroke-linejoin="round"/>
<path d="M6.875 8.75C8.53185 8.75 9.875 7.40685 9.875 5.75C9.875 4.09315 8.53185 2.75 6.875 2.75C5.21815 2.75 3.875 4.09315 3.875 5.75C3.875 7.40685 5.21815 8.75 6.875 8.75Z" stroke="white" stroke-width="2" stroke-linecap="round" stroke-linejoin="round"/>
<path d="M13.25 8.75L14.75 10.25L17.75 7.25" stroke="white" stroke-width="2" stroke-linecap="round" stroke-linejoin="round"/>
</g>
<defs>
<clipPath id="clip0_3309_99">
<rect width="18" height="18" fill="white" transform="translate(0.5 0.5)"/>
</clipPath>
</defs>
</svg>
