<svg xmlns="http://www.w3.org/2000/svg" width="763" height="113">
    <defs>
        <style type="text/css">
            @namespace "http://www.w3.org/2000/svg";
            .line                 {fill: none; stroke: #636273;}
            .bold-line            {stroke: #636273; shape-rendering: crispEdges; stroke-width: 2; }
            .thin-line           {stroke: #636273; shape-rendering: crispEdges}
            .filled              {fill: #636273; stroke: none;}
            text.terminal        {font-family: -apple-system, BlinkMacSystemFont, "Segoe UI", Roboto, Ubuntu, Cantarell, Helvetica, sans-serif;
            font-size: 12px;
            fill: #ffffff;
            font-weight: bold;
            }
            text.nonterminal     {font-family: -apple-system, BlinkMacSystemFont, "Segoe UI", Roboto, Ubuntu, Cantarell, Helvetica, sans-serif;
            font-size: 12px;
            fill: #e289a4;
            font-weight: normal;
            }
            text.regexp          {font-family: -apple-system, BlinkMacSystemFont, "Segoe UI", Roboto, Ubuntu, Cantarell, Helvetica, sans-serif;
            font-size: 12px;
            fill: #00141F;
            font-weight: normal;
            }
            rect, circle, polygon {fill: none; stroke: none;}
            rect.terminal        {fill: none; stroke: #be2f5b;}
            rect.nonterminal     {fill: rgba(255,255,255,0.1); stroke: none;}
            rect.text            {fill: none; stroke: none;}
            polygon.regexp       {fill: #C7ECFF; stroke: #038cbc;}
        </style>
    </defs>
    <polygon points="9 61 1 57 1 65"></polygon>
         <polygon points="17 61 9 57 9 65"></polygon>
         <rect x="31" y="47" width="48" height="32" rx="10"></rect>
         <rect x="29" y="45" width="48" height="32" class="terminal" rx="10"></rect>
         <text class="terminal" x="39" y="65">ADD</text>
         <rect x="99" y="47" width="78" height="32" rx="10"></rect>
         <rect x="97" y="45" width="78" height="32" class="terminal" rx="10"></rect>
         <text class="terminal" x="107" y="65">COLUMN</text><a xmlns:xlink="http://www.w3.org/1999/xlink" xlink:href="#columnName" xlink:title="columnName">
            <rect x="217" y="47" width="102" height="32"></rect>
            <rect x="215" y="45" width="102" height="32" class="nonterminal"></rect>
            <text class="nonterminal" x="225" y="65">columnName</text></a><a xmlns:xlink="http://www.w3.org/1999/xlink" xlink:href="#typeDef" xlink:title="typeDef">
            <rect x="339" y="47" width="70" height="32"></rect>
            <rect x="337" y="45" width="70" height="32" class="nonterminal"></rect>
            <text class="nonterminal" x="347" y="65">typeDef</text></a><rect x="217" y="3" width="24" height="32" rx="10"></rect>
         <rect x="215" y="1" width="24" height="32" class="terminal" rx="10"></rect>
         <text class="terminal" x="225" y="21">,</text>
         <rect x="469" y="79" width="72" height="32" rx="10"></rect>
         <rect x="467" y="77" width="72" height="32" class="terminal" rx="10"></rect>
         <text class="terminal" x="477" y="97">OWNED</text>
         <rect x="561" y="79" width="38" height="32" rx="10"></rect>
         <rect x="559" y="77" width="38" height="32" class="terminal" rx="10"></rect>
         <text class="terminal" x="569" y="97">BY</text><a xmlns:xlink="http://www.w3.org/1999/xlink" xlink:href="#ownerName" xlink:title="ownerName">
            <rect x="619" y="79" width="96" height="32"></rect>
            <rect x="617" y="77" width="96" height="32" class="nonterminal"></rect>
            <text class="nonterminal" x="627" y="97">ownerName</text></a><path class="line" d="m17 61 h2 m0 0 h10 m48 0 h10 m0 0 h10 m78 0 h10 m20 0 h10 m102 0 h10 m0 0 h10 m70 0 h10 m-232 0 l20 0 m-1 0 q-9 0 -9 -10 l0 -24 q0 -10 10 -10 m212 44 l20 0 m-20 0 q10 0 10 -10 l0 -24 q0 -10 -10 -10 m-212 0 h10 m24 0 h10 m0 0 h168 m40 44 h10 m0 0 h256 m-286 0 h20 m266 0 h20 m-306 0 q10 0 10 10 m286 0 q0 -10 10 -10 m-296 10 v12 m286 0 v-12 m-286 12 q0 10 10 10 m266 0 q10 0 10 -10 m-276 10 h10 m72 0 h10 m0 0 h10 m38 0 h10 m0 0 h10 m96 0 h10 m23 -32 h-3"></path>
         <polygon points="753 61 761 57 761 65"></polygon>
         <polygon points="753 61 745 57 745 65"></polygon>
</svg>