<svg xmlns="http://www.w3.org/2000/svg" width="445" height="37">
    <defs>
        <style type="text/css">
            @namespace "http://www.w3.org/2000/svg";
            .line                 {fill: none; stroke: #636273;}
            .bold-line            {stroke: #636273; shape-rendering: crispEdges; stroke-width: 2; }
            .thin-line           {stroke: #636273; shape-rendering: crispEdges}
            .filled              {fill: #636273; stroke: none;}
            text.terminal        {font-family: -apple-system, BlinkMacSystemFont, "Segoe UI", Roboto, Ubuntu, Cantarell, Helvetica, sans-serif;
            font-size: 12px;
            fill: #ffffff;
            font-weight: bold;
            }
            text.nonterminal     {font-family: -apple-system, BlinkMacSystemFont, "Segoe UI", Roboto, Ubuntu, Cantarell, Helvetica, sans-serif;
            font-size: 12px;
            fill: #e289a4;
            font-weight: normal;
            }
            text.regexp          {font-family: -apple-system, BlinkMacSystemFont, "Segoe UI", Roboto, Ubuntu, Cantarell, Helvetica, sans-serif;
            font-size: 12px;
            fill: #00141F;
            font-weight: normal;
            }
            rect, circle, polygon {fill: none; stroke: none;}
            rect.terminal        {fill: none; stroke: #be2f5b;}
            rect.nonterminal     {fill: rgba(255,255,255,0.1); stroke: none;}
            rect.text            {fill: none; stroke: none;}
            polygon.regexp       {fill: #C7ECFF; stroke: #038cbc;}
        </style>
    </defs>
    <polygon points="9 17 1 13 1 21"></polygon>
         <polygon points="17 17 9 13 9 21"></polygon>
         <rect x="31" y="3" width="62" height="32" rx="10"></rect>
         <rect x="29" y="1" width="62" height="32" class="terminal" rx="10"></rect>
         <text class="terminal" x="39" y="21">ALTER</text>
         <rect x="113" y="3" width="122" height="32" rx="10"></rect>
         <rect x="111" y="1" width="122" height="32" class="terminal" rx="10"></rect>
         <text class="terminal" x="121" y="21">MATERIALIZED</text>
         <rect x="255" y="3" width="58" height="32" rx="10"></rect>
         <rect x="253" y="1" width="58" height="32" class="terminal" rx="10"></rect>
         <text class="terminal" x="263" y="21">VIEW</text><a xmlns:xlink="http://www.w3.org/1999/xlink" xlink:href="#viewName" xlink:title="viewName">
            <rect x="333" y="3" width="84" height="32"></rect>
            <rect x="331" y="1" width="84" height="32" class="nonterminal"></rect>
            <text class="nonterminal" x="341" y="21">viewName</text></a><path class="line" d="m17 17 h2 m0 0 h10 m62 0 h10 m0 0 h10 m122 0 h10 m0 0 h10 m58 0 h10 m0 0 h10 m84 0 h10 m3 0 h-3"></path>
         <polygon points="435 17 443 13 443 21"></polygon>
         <polygon points="435 17 427 13 427 21"></polygon>
</svg>