<svg xmlns="http://www.w3.org/2000/svg" width="777" height="37"><defs><style type="text/css">text.nonterminal,text.terminal{font-family:-apple-system,BlinkMacSystemFont,&quot;Segoe UI&quot;,Roboto,Ubuntu,Cantarell,Helvetica,sans-serif;font-size:12px}text.terminal{fill:#fff;font-weight:700}text.nonterminal{fill:#e289a4;font-weight:400}.line{fill:none;stroke:#636273}polygon,rect{fill:none;stroke:none}rect.terminal{fill:none;stroke:#be2f5b}rect.nonterminal{fill:rgba(255,255,255,.1);stroke:none}</style></defs><polygon points="9 17 1 13 1 21"/><polygon points="17 17 9 13 9 21"/><rect x="31" y="3" width="62" height="32" rx="10"/><rect x="29" y="1" width="62" height="32" class="terminal" rx="10"/><text class="terminal" x="39" y="21">ALTER</text><rect x="113" y="3" width="62" height="32" rx="10"/><rect x="111" y="1" width="62" height="32" class="terminal" rx="10"/><text class="terminal" x="121" y="21">TABLE</text><a xmlns:xlink="http://www.w3.org/1999/xlink" xlink:href="#tableName" xlink:title="tableName"><rect x="195" y="3" width="88" height="32"/><rect x="193" y="1" width="88" height="32" class="nonterminal"/><text class="nonterminal" x="203" y="21">tableName</text></a><rect x="303" y="3" width="62" height="32" rx="10"/><rect x="301" y="1" width="62" height="32" class="terminal" rx="10"/><text class="terminal" x="311" y="21">ALTER</text><rect x="385" y="3" width="78" height="32" rx="10"/><rect x="383" y="1" width="78" height="32" class="terminal" rx="10"/><text class="terminal" x="393" y="21">COLUMN</text><a xmlns:xlink="http://www.w3.org/1999/xlink" xlink:href="#columnName" xlink:title="columnName"><rect x="483" y="3" width="102" height="32"/><rect x="481" y="1" width="102" height="32" class="nonterminal"/><text class="nonterminal" x="491" y="21">columnName</text></a><rect x="605" y="3" width="54" height="32" rx="10"/><rect x="603" y="1" width="54" height="32" class="terminal" rx="10"/><text class="terminal" x="613" y="21">TYPE</text><a xmlns:xlink="http://www.w3.org/1999/xlink" xlink:href="#typeDef" xlink:title="typeDef"><rect x="679" y="3" width="70" height="32"/><rect x="677" y="1" width="70" height="32" class="nonterminal"/><text class="nonterminal" x="687" y="21">typeDef</text></a><path class="line" d="M17 17h2m0 0h10m62 0h10m0 0h10m62 0h10m0 0h10m88 0h10m0 0h10m62 0h10m0 0h10m78 0h10m0 0h10m102 0h10m0 0h10m54 0h10m0 0h10m70 0h10m3 0h-3"/><polygon points="767 17 775 13 775 21"/><polygon points="767 17 759 13 759 21"/></svg>