<svg xmlns="http://www.w3.org/2000/svg" width="830" height="472"><defs><style type="text/css">@namespace &quot;http://www.w3.org/2000/svg&quot;;.line{fill:none;stroke:#636273}text.nonterminal,text.terminal{font-family:-apple-system,BlinkMacSystemFont,&quot;Segoe UI&quot;,Roboto,Ubuntu,Cantarell,Helvetica,sans-serif;font-size:12px}text.terminal{fill:#fff;font-weight:700}text.nonterminal{fill:#e289a4;font-weight:400}polygon,rect{fill:none;stroke:none}rect.terminal{fill:none;stroke:#be2f5b}rect.nonterminal{fill:rgba(255,255,255,.1);stroke:none}</style></defs><polygon points="11 17 3 13 3 21"/><polygon points="19 17 11 13 11 21"/><rect x="33" y="3" width="62" height="32" rx="10"/><rect x="31" y="1" width="62" height="32" class="terminal" rx="10"/><text class="terminal" x="41" y="21">ALTER</text><rect x="115" y="3" width="78" height="32" rx="10"/><rect x="113" y="1" width="78" height="32" class="terminal" rx="10"/><text class="terminal" x="123" y="21">SERVICE</text><rect x="213" y="3" width="86" height="32" rx="10"/><rect x="211" y="1" width="86" height="32" class="terminal" rx="10"/><text class="terminal" x="221" y="21">ACCOUNT</text><a xmlns:xlink="http://www.w3.org/1999/xlink" xlink:href="#serviceAccountName" xlink:title="serviceAccountName"><rect x="319" y="3" width="150" height="32"/><rect x="317" y="1" width="150" height="32" class="nonterminal"/><text class="nonterminal" x="327" y="21">serviceAccountName</text></a><rect x="45" y="69" width="72" height="32" rx="10"/><rect x="43" y="67" width="72" height="32" class="terminal" rx="10"/><text class="terminal" x="53" y="87">ENABLE</text><rect x="45" y="113" width="80" height="32" rx="10"/><rect x="43" y="111" width="80" height="32" class="terminal" rx="10"/><text class="terminal" x="53" y="131">DISABLE</text><rect x="45" y="157" width="58" height="32" rx="10"/><rect x="43" y="155" width="58" height="32" class="terminal" rx="10"/><text class="terminal" x="53" y="175">WITH</text><rect x="143" y="157" width="40" height="32" rx="10"/><rect x="141" y="155" width="40" height="32" class="terminal" rx="10"/><text class="terminal" x="151" y="175">NO</text><rect x="203" y="157" width="100" height="32" rx="10"/><rect x="201" y="155" width="100" height="32" class="terminal" rx="10"/><text class="terminal" x="211" y="175">PASSWORD</text><rect x="143" y="201" width="100" height="32" rx="10"/><rect x="141" y="199" width="100" height="32" class="terminal" rx="10"/><text class="terminal" x="151" y="219">PASSWORD</text><a xmlns:xlink="http://www.w3.org/1999/xlink" xlink:href="#password" xlink:title="password"><rect x="263" y="201" width="80" height="32"/><rect x="261" y="199" width="80" height="32" class="nonterminal"/><text class="nonterminal" x="271" y="219">password</text></a><rect x="45" y="245" width="72" height="32" rx="10"/><rect x="43" y="243" width="72" height="32" class="terminal" rx="10"/><text class="terminal" x="53" y="263">CREATE</text><rect x="137" y="245" width="66" height="32" rx="10"/><rect x="135" y="243" width="66" height="32" class="terminal" rx="10"/><text class="terminal" x="145" y="263">TOKEN</text><rect x="223" y="245" width="54" height="32" rx="10"/><rect x="221" y="243" width="54" height="32" class="terminal" rx="10"/><text class="terminal" x="231" y="263">TYPE</text><rect x="317" y="245" width="50" height="32" rx="10"/><rect x="315" y="243" width="50" height="32" class="terminal" rx="10"/><text class="terminal" x="325" y="263">JWK</text><rect x="317" y="289" width="54" height="32" rx="10"/><rect x="315" y="287" width="54" height="32" class="terminal" rx="10"/><text class="terminal" x="325" y="307">REST</text><rect x="391" y="289" width="58" height="32" rx="10"/><rect x="389" y="287" width="58" height="32" class="terminal" rx="10"/><text class="terminal" x="399" y="307">WITH</text><rect x="469" y="289" width="44" height="32" rx="10"/><rect x="467" y="287" width="44" height="32" class="terminal" rx="10"/><text class="terminal" x="477" y="307">TTL</text><rect x="533" y="289" width="78" height="32" rx="10"/><rect x="531" y="287" width="78" height="32" class="terminal" rx="10"/><text class="terminal" x="541" y="307">timeUnit</text><rect x="651" y="321" width="82" height="32" rx="10"/><rect x="649" y="319" width="82" height="32" class="terminal" rx="10"/><text class="terminal" x="659" y="339">REFRESH</text><rect x="45" y="365" width="58" height="32" rx="10"/><rect x="43" y="363" width="58" height="32" class="terminal" rx="10"/><text class="terminal" x="53" y="383">DROP</text><rect x="123" y="365" width="66" height="32" rx="10"/><rect x="121" y="363" width="66" height="32" class="terminal" rx="10"/><text class="terminal" x="131" y="383">TOKEN</text><rect x="209" y="365" width="54" height="32" rx="10"/><rect x="207" y="363" width="54" height="32" class="terminal" rx="10"/><text class="terminal" x="217" y="383">TYPE</text><rect x="303" y="365" width="50" height="32" rx="10"/><rect x="301" y="363" width="50" height="32" class="terminal" rx="10"/><text class="terminal" x="311" y="383">JWK</text><rect x="303" y="409" width="54" height="32" rx="10"/><rect x="301" y="407" width="54" height="32" class="terminal" rx="10"/><text class="terminal" x="311" y="427">REST</text><rect x="397" y="441" width="58" height="32" rx="10"/><rect x="395" y="439" width="58" height="32" class="terminal" rx="10"/><text class="terminal" x="405" y="459">token</text><path class="line" d="M19 17h2m0 0h10m62 0h10m0 0h10m78 0h10m0 0h10m86 0h10m0 0h10m150 0h10m2 0h2m2 0h2m2 0h2M1 83h2m2 0h2m2 0h2m22 0h10m72 0h10m0 0h656M13 83h20m748 0h20M13 83q10 0 10 10m768 0q0-10 10-10M23 93v24m768 0V93M23 117q0 10 10 10m748 0q10 0 10-10M33 127h10m80 0h10m0 0h648M23 117v20m768 0v-20M23 137v24m768 0v-24M23 161q0 10 10 10m748 0q10 0 10-10M33 171h10m58 0h10m20 0h10m40 0h10m0 0h10m100 0h10m0 0h40m-240 0h20m220 0h20m-260 0q10 0 10 10m240 0q0-10 10-10m-250 10v24m240 0v-24m-240 24q0 10 10 10m220 0q10 0 10-10m-230 10h10m100 0h10m0 0h10m80 0h10m20-44h410M23 161v20m768 0v-20M23 181v68m768 0v-68M23 249q0 10 10 10m748 0q10 0 10-10M33 259h10m72 0h10m0 0h10m66 0h10m0 0h10m54 0h10m20 0h10m50 0h10m0 0h386m-476 0h20m456 0h20m-496 0q10 0 10 10m476 0q0-10 10-10m-486 10v24m476 0v-24m-476 24q0 10 10 10m456 0q10 0 10-10m-466 10h10m54 0h10m0 0h10m58 0h10m0 0h10m44 0h10m0 0h10m78 0h10m20 0h10m0 0h92m-122 0h20m102 0h20m-142 0q10 0 10 10m122 0q0-10 10-10m-132 10v12m122 0v-12m-122 12q0 10 10 10m102 0q10 0 10-10m-112 10h10m82 0h10M23 249v20m768 0v-20M23 269v100m768 0V269M23 369q0 10 10 10m748 0q10 0 10-10M33 379h10m58 0h10m0 0h10m66 0h10m0 0h10m54 0h10m20 0h10m50 0h10m0 0h122m-212 0h20m192 0h20m-232 0q10 0 10 10m212 0q0-10 10-10m-222 10v24m212 0v-24m-212 24q0 10 10 10m192 0q10 0 10-10m-202 10h10m54 0h10m20 0h10m0 0h68m-98 0h20m78 0h20m-118 0q10 0 10 10m98 0q0-10 10-10m-108 10v12m98 0v-12m-98 12q0 10 10 10m78 0q10 0 10-10m-88 10h10m58 0h10m40-76h278m23-296h-3"/><polygon points="811 83 819 79 819 87"/><polygon points="811 83 803 79 803 87"/></svg>