<svg xmlns="http://www.w3.org/2000/svg" width="921" height="135">
    <defs>
        <style type="text/css">
            @namespace "http://www.w3.org/2000/svg";
            .line                 {fill: none; stroke: #636273;}
            .bold-line            {stroke: #636273; shape-rendering: crispEdges; stroke-width: 2; }
            .thin-line           {stroke: #636273; shape-rendering: crispEdges}
            .filled              {fill: #636273; stroke: none;}
            text.terminal        {font-family: -apple-system, BlinkMacSystemFont, "Segoe UI", Roboto, Ubuntu, Cantarell, Helvetica, sans-serif;
            font-size: 12px;
            fill: #ffffff;
            font-weight: bold;
            }
            text.nonterminal     {font-family: -apple-system, BlinkMacSystemFont, "Segoe UI", Roboto, Ubuntu, Cantarell, Helvetica, sans-serif;
            font-size: 12px;
            fill: #e289a4;
            font-weight: normal;
            }
            text.regexp          {font-family: -apple-system, BlinkMacSystemFont, "Segoe UI", Roboto, Ubuntu, Cantarell, Helvetica, sans-serif;
            font-size: 12px;
            fill: #00141F;
            font-weight: normal;
            }
            rect, circle, polygon {fill: none; stroke: none;}
            rect.terminal        {fill: none; stroke: #be2f5b;}
            rect.nonterminal     {fill: rgba(255,255,255,0.1); stroke: none;}
            rect.text            {fill: none; stroke: none;}
            polygon.regexp       {fill: #C7ECFF; stroke: #038cbc;}
        </style>
    </defs>
    <polygon points="9 17 1 13 1 21"></polygon>
         <polygon points="17 17 9 13 9 21"></polygon>
         <rect x="31" y="3" width="62" height="32" rx="10"></rect>
         <rect x="29" y="1" width="62" height="32" class="terminal" rx="10"></rect>
         <text class="terminal" x="39" y="21">ALTER</text>
         <rect x="113" y="3" width="122" height="32" rx="10"></rect>
         <rect x="111" y="1" width="122" height="32" class="terminal" rx="10"></rect>
         <text class="terminal" x="121" y="21">MATERIALIZED</text>
         <rect x="255" y="3" width="58" height="32" rx="10"></rect>
         <rect x="253" y="1" width="58" height="32" class="terminal" rx="10"></rect>
         <text class="terminal" x="263" y="21">VIEW</text><a xmlns:xlink="http://www.w3.org/1999/xlink" xlink:href="#viewName" xlink:title="viewName">
            <rect x="333" y="3" width="84" height="32"></rect>
            <rect x="331" y="1" width="84" height="32" class="nonterminal"></rect>
            <text class="nonterminal" x="341" y="21">viewName</text></a><rect x="437" y="3" width="44" height="32" rx="10"></rect>
         <rect x="435" y="1" width="44" height="32" class="terminal" rx="10"></rect>
         <text class="terminal" x="445" y="21">SET</text>
         <rect x="501" y="3" width="82" height="32" rx="10"></rect>
         <rect x="499" y="1" width="82" height="32" class="terminal" rx="10"></rect>
         <text class="terminal" x="509" y="21">REFRESH</text>
         <rect x="623" y="35" width="64" height="32" rx="10"></rect>
         <rect x="621" y="33" width="64" height="32" class="terminal" rx="10"></rect>
         <text class="terminal" x="631" y="53">START</text><a xmlns:xlink="http://www.w3.org/1999/xlink" xlink:href="#timestamp" xlink:title="timestamp">
            <rect x="707" y="35" width="88" height="32"></rect>
            <rect x="705" y="33" width="88" height="32" class="nonterminal"></rect>
            <text class="nonterminal" x="715" y="53">timestamp</text></a><rect x="835" y="3" width="64" height="32" rx="10"></rect>
         <rect x="833" y="1" width="64" height="32" class="terminal" rx="10"></rect>
         <text class="terminal" x="843" y="21">EVERY</text><a xmlns:xlink="http://www.w3.org/1999/xlink" xlink:href="#interval" xlink:title="interval">
            <rect x="825" y="101" width="68" height="32"></rect>
            <rect x="823" y="99" width="68" height="32" class="nonterminal"></rect>
            <text class="nonterminal" x="833" y="119">interval</text></a><path class="line" d="m17 17 h2 m0 0 h10 m62 0 h10 m0 0 h10 m122 0 h10 m0 0 h10 m58 0 h10 m0 0 h10 m84 0 h10 m0 0 h10 m44 0 h10 m0 0 h10 m82 0 h10 m20 0 h10 m0 0 h182 m-212 0 h20 m192 0 h20 m-232 0 q10 0 10 10 m212 0 q0 -10 10 -10 m-222 10 v12 m212 0 v-12 m-212 12 q0 10 10 10 m192 0 q10 0 10 -10 m-202 10 h10 m64 0 h10 m0 0 h10 m88 0 h10 m20 -32 h10 m64 0 h10 m2 0 l2 0 m2 0 l2 0 m2 0 l2 0 m-118 98 l2 0 m2 0 l2 0 m2 0 l2 0 m2 0 h10 m68 0 h10 m3 0 h-3"></path>
         <polygon points="911 115 919 111 919 119"></polygon>
         <polygon points="911 115 903 111 903 119"></polygon>
</svg>