<svg xmlns="http://www.w3.org/2000/svg" width="830" height="472">
    <defs>
        <style type="text/css">
            @namespace "http://www.w3.org/2000/svg";
            .line                 {fill: none; stroke: #636273;}
            .bold-line            {stroke: #636273; shape-rendering: crispEdges; stroke-width: 2; }
            .thin-line            {stroke: #636273; shape-rendering: crispEdges}
            .filled               {fill: #636273; stroke: none;}
            text.terminal         {font-family: -apple-system, BlinkMacSystemFont, "Segoe UI", Roboto, Ubuntu, Cantarell, Helvetica, sans-serif;
            font-size: 12px;
            fill: #ffffff;
            font-weight: bold;
            }
            text.nonterminal      {font-family: -apple-system, BlinkMacSystemFont, "Segoe UI", Roboto, Ubuntu, Cantarell, Helvetica, sans-serif;
            font-size: 12px;
            fill: #e289a4;
            font-weight: normal;
            }
            text.regexp           {font-family: -apple-system, BlinkMacSystemFont, "Segoe UI", Roboto, Ubuntu, Cantarell, Helvetica, sans-serif;
            font-size: 12px;
            fill: #00141F;
            font-weight: normal;
            }
            rect, circle, polygon {fill: none; stroke: none;}
            rect.terminal         {fill: none; stroke: #be2f5b;}
            rect.nonterminal      {fill: rgba(255,255,255,0.1); stroke: none;}
            rect.text             {fill: none; stroke: none;}
            polygon.regexp        {fill: #C7ECFF; stroke: #038cbc;}
        </style>
    </defs>
    <polygon points="11 17 3 13 3 21"/>
    <polygon points="19 17 11 13 11 21"/>
    <rect x="33" y="3" width="62" height="32" rx="10"/>
    <rect x="31" y="1" width="62" height="32" class="terminal" rx="10"/>
    <text class="terminal" x="41" y="21">ALTER</text>
    <rect x="115" y="3" width="56" height="32" rx="10"/>
    <rect x="113" y="1" width="56" height="32" class="terminal" rx="10"/>
    <text class="terminal" x="123" y="21">USER</text><a xmlns:xlink="http://www.w3.org/1999/xlink" xlink:href="#userName" xlink:title="userName">
    <rect x="191" y="3" width="84" height="32"/>
    <rect x="189" y="1" width="84" height="32" class="nonterminal"/>
    <text class="nonterminal" x="199" y="21">userName</text></a><rect x="45" y="69" width="72" height="32" rx="10"/>
    <rect x="43" y="67" width="72" height="32" class="terminal" rx="10"/>
    <text class="terminal" x="53" y="87">ENABLE</text>
    <rect x="45" y="113" width="80" height="32" rx="10"/>
    <rect x="43" y="111" width="80" height="32" class="terminal" rx="10"/>
    <text class="terminal" x="53" y="131">DISABLE</text>
    <rect x="45" y="157" width="58" height="32" rx="10"/>
    <rect x="43" y="155" width="58" height="32" class="terminal" rx="10"/>
    <text class="terminal" x="53" y="175">WITH</text>
    <rect x="143" y="157" width="40" height="32" rx="10"/>
    <rect x="141" y="155" width="40" height="32" class="terminal" rx="10"/>
    <text class="terminal" x="151" y="175">NO</text>
    <rect x="203" y="157" width="100" height="32" rx="10"/>
    <rect x="201" y="155" width="100" height="32" class="terminal" rx="10"/>
    <text class="terminal" x="211" y="175">PASSWORD</text>
    <rect x="143" y="201" width="100" height="32" rx="10"/>
    <rect x="141" y="199" width="100" height="32" class="terminal" rx="10"/>
    <text class="terminal" x="151" y="219">PASSWORD</text><a xmlns:xlink="http://www.w3.org/1999/xlink" xlink:href="#password" xlink:title="password">
    <rect x="263" y="201" width="80" height="32"/>
    <rect x="261" y="199" width="80" height="32" class="nonterminal"/>
    <text class="nonterminal" x="271" y="219">password</text></a><rect x="45" y="245" width="72" height="32" rx="10"/>
    <rect x="43" y="243" width="72" height="32" class="terminal" rx="10"/>
    <text class="terminal" x="53" y="263">CREATE</text>
    <rect x="137" y="245" width="66" height="32" rx="10"/>
    <rect x="135" y="243" width="66" height="32" class="terminal" rx="10"/>
    <text class="terminal" x="145" y="263">TOKEN</text>
    <rect x="223" y="245" width="54" height="32" rx="10"/>
    <rect x="221" y="243" width="54" height="32" class="terminal" rx="10"/>
    <text class="terminal" x="231" y="263">TYPE</text>
    <rect x="317" y="245" width="50" height="32" rx="10"/>
    <rect x="315" y="243" width="50" height="32" class="terminal" rx="10"/>
    <text class="terminal" x="325" y="263">JWK</text>
    <rect x="317" y="289" width="54" height="32" rx="10"/>
    <rect x="315" y="287" width="54" height="32" class="terminal" rx="10"/>
    <text class="terminal" x="325" y="307">REST</text>
    <rect x="391" y="289" width="58" height="32" rx="10"/>
    <rect x="389" y="287" width="58" height="32" class="terminal" rx="10"/>
    <text class="terminal" x="399" y="307">WITH</text>
    <rect x="469" y="289" width="44" height="32" rx="10"/>
    <rect x="467" y="287" width="44" height="32" class="terminal" rx="10"/>
    <text class="terminal" x="477" y="307">TTL</text>
    <rect x="533" y="289" width="78" height="32" rx="10"/>
    <rect x="531" y="287" width="78" height="32" class="terminal" rx="10"/>
    <text class="terminal" x="541" y="307">timeUnit</text>
    <rect x="651" y="321" width="82" height="32" rx="10"/>
    <rect x="649" y="319" width="82" height="32" class="terminal" rx="10"/>
    <text class="terminal" x="659" y="339">REFRESH</text>
    <rect x="45" y="365" width="58" height="32" rx="10"/>
    <rect x="43" y="363" width="58" height="32" class="terminal" rx="10"/>
    <text class="terminal" x="53" y="383">DROP</text>
    <rect x="123" y="365" width="66" height="32" rx="10"/>
    <rect x="121" y="363" width="66" height="32" class="terminal" rx="10"/>
    <text class="terminal" x="131" y="383">TOKEN</text>
    <rect x="209" y="365" width="54" height="32" rx="10"/>
    <rect x="207" y="363" width="54" height="32" class="terminal" rx="10"/>
    <text class="terminal" x="217" y="383">TYPE</text>
    <rect x="303" y="365" width="50" height="32" rx="10"/>
    <rect x="301" y="363" width="50" height="32" class="terminal" rx="10"/>
    <text class="terminal" x="311" y="383">JWK</text>
    <rect x="303" y="409" width="54" height="32" rx="10"/>
    <rect x="301" y="407" width="54" height="32" class="terminal" rx="10"/>
    <text class="terminal" x="311" y="427">REST</text>
    <rect x="397" y="441" width="58" height="32" rx="10"/>
    <rect x="395" y="439" width="58" height="32" class="terminal" rx="10"/>
    <text class="terminal" x="405" y="459">token</text>
    <path class="line" d="m19 17 h2 m0 0 h10 m62 0 h10 m0 0 h10 m56 0 h10 m0 0 h10 m84 0 h10 m2 0 l2 0 m2 0 l2 0 m2 0 l2 0 m-294 66 l2 0 m2 0 l2 0 m2 0 l2 0 m22 0 h10 m72 0 h10 m0 0 h656 m-768 0 h20 m748 0 h20 m-788 0 q10 0 10 10 m768 0 q0 -10 10 -10 m-778 10 v24 m768 0 v-24 m-768 24 q0 10 10 10 m748 0 q10 0 10 -10 m-758 10 h10 m80 0 h10 m0 0 h648 m-758 -10 v20 m768 0 v-20 m-768 20 v24 m768 0 v-24 m-768 24 q0 10 10 10 m748 0 q10 0 10 -10 m-758 10 h10 m58 0 h10 m20 0 h10 m40 0 h10 m0 0 h10 m100 0 h10 m0 0 h40 m-240 0 h20 m220 0 h20 m-260 0 q10 0 10 10 m240 0 q0 -10 10 -10 m-250 10 v24 m240 0 v-24 m-240 24 q0 10 10 10 m220 0 q10 0 10 -10 m-230 10 h10 m100 0 h10 m0 0 h10 m80 0 h10 m20 -44 h410 m-758 -10 v20 m768 0 v-20 m-768 20 v68 m768 0 v-68 m-768 68 q0 10 10 10 m748 0 q10 0 10 -10 m-758 10 h10 m72 0 h10 m0 0 h10 m66 0 h10 m0 0 h10 m54 0 h10 m20 0 h10 m50 0 h10 m0 0 h386 m-476 0 h20 m456 0 h20 m-496 0 q10 0 10 10 m476 0 q0 -10 10 -10 m-486 10 v24 m476 0 v-24 m-476 24 q0 10 10 10 m456 0 q10 0 10 -10 m-466 10 h10 m54 0 h10 m0 0 h10 m58 0 h10 m0 0 h10 m44 0 h10 m0 0 h10 m78 0 h10 m20 0 h10 m0 0 h92 m-122 0 h20 m102 0 h20 m-142 0 q10 0 10 10 m122 0 q0 -10 10 -10 m-132 10 v12 m122 0 v-12 m-122 12 q0 10 10 10 m102 0 q10 0 10 -10 m-112 10 h10 m82 0 h10 m-718 -86 v20 m768 0 v-20 m-768 20 v100 m768 0 v-100 m-768 100 q0 10 10 10 m748 0 q10 0 10 -10 m-758 10 h10 m58 0 h10 m0 0 h10 m66 0 h10 m0 0 h10 m54 0 h10 m20 0 h10 m50 0 h10 m0 0 h122 m-212 0 h20 m192 0 h20 m-232 0 q10 0 10 10 m212 0 q0 -10 10 -10 m-222 10 v24 m212 0 v-24 m-212 24 q0 10 10 10 m192 0 q10 0 10 -10 m-202 10 h10 m54 0 h10 m20 0 h10 m0 0 h68 m-98 0 h20 m78 0 h20 m-118 0 q10 0 10 10 m98 0 q0 -10 10 -10 m-108 10 v12 m98 0 v-12 m-98 12 q0 10 10 10 m78 0 q10 0 10 -10 m-88 10 h10 m58 0 h10 m40 -76 h278 m23 -296 h-3"/>
    <polygon points="811 83 819 79 819 87"/>
    <polygon points="811 83 803 79 803 87"/>
</svg>
