<svg xmlns="http://www.w3.org/2000/svg" width="921" height="357">
    <defs>
        <style type="text/css">
            @namespace "http://www.w3.org/2000/svg";
            .line                 {fill: none; stroke: #636273;}
            .bold-line            {stroke: #636273; shape-rendering: crispEdges; stroke-width: 2; }
            .thin-line           {stroke: #636273; shape-rendering: crispEdges}
            .filled              {fill: #636273; stroke: none;}
            text.terminal        {font-family: -apple-system, BlinkMacSystemFont, "Segoe UI", Roboto, Ubuntu, Cantarell, Helvetica, sans-serif;
            font-size: 12px;
            fill: #ffffff;
            font-weight: bold;
            }
            text.nonterminal     {font-family: -apple-system, BlinkMacSystemFont, "Segoe UI", Roboto, Ubuntu, Cantarell, Helvetica, sans-serif;
            font-size: 12px;
            fill: #e289a4;
            font-weight: normal;
            }
            text.regexp          {font-family: -apple-system, BlinkMacSystemFont, "Segoe UI", Roboto, Ubuntu, Cantarell, Helvetica, sans-serif;
            font-size: 12px;
            fill: #00141F;
            font-weight: normal;
            }
            rect, circle, polygon {fill: none; stroke: none;}
            rect.terminal        {fill: none; stroke: #be2f5b;}
            rect.nonterminal     {fill: rgba(255,255,255,0.1); stroke: none;}
            rect.text            {fill: none; stroke: none;}
            polygon.regexp       {fill: #C7ECFF; stroke: #038cbc;}
        </style>
    </defs>
    <polygon points="11 17 3 13 3 21"></polygon>
         <polygon points="19 17 11 13 11 21"></polygon>
         <rect x="33" y="3" width="62" height="32" rx="10"></rect>
         <rect x="31" y="1" width="62" height="32" class="terminal" rx="10"></rect>
         <text class="terminal" x="41" y="21">ALTER</text>
         <rect x="115" y="3" width="122" height="32" rx="10"></rect>
         <rect x="113" y="1" width="122" height="32" class="terminal" rx="10"></rect>
         <text class="terminal" x="123" y="21">MATERIALIZED</text>
         <rect x="257" y="3" width="58" height="32" rx="10"></rect>
         <rect x="255" y="1" width="58" height="32" class="terminal" rx="10"></rect>
         <text class="terminal" x="265" y="21">VIEW</text><a xmlns:xlink="http://www.w3.org/1999/xlink" xlink:href="#viewName" xlink:title="viewName">
            <rect x="335" y="3" width="84" height="32"></rect>
            <rect x="333" y="1" width="84" height="32" class="nonterminal"></rect>
            <text class="nonterminal" x="343" y="21">viewName</text></a><rect x="439" y="3" width="44" height="32" rx="10"></rect>
         <rect x="437" y="1" width="44" height="32" class="terminal" rx="10"></rect>
         <text class="terminal" x="447" y="21">SET</text>
         <rect x="503" y="3" width="82" height="32" rx="10"></rect>
         <rect x="501" y="1" width="82" height="32" class="terminal" rx="10"></rect>
         <text class="terminal" x="511" y="21">REFRESH</text>
         <rect x="51" y="85" width="100" height="32" rx="10"></rect>
         <rect x="49" y="83" width="100" height="32" class="terminal" rx="10"></rect>
         <text class="terminal" x="59" y="103">IMMEDIATE</text>
         <rect x="51" y="129" width="78" height="32" rx="10"></rect>
         <rect x="49" y="127" width="78" height="32" class="terminal" rx="10"></rect>
         <text class="terminal" x="59" y="147">MANUAL</text>
         <rect x="51" y="173" width="64" height="32" rx="10"></rect>
         <rect x="49" y="171" width="64" height="32" class="terminal" rx="10"></rect>
         <text class="terminal" x="59" y="191">EVERY</text><a xmlns:xlink="http://www.w3.org/1999/xlink" xlink:href="#interval" xlink:title="interval">
            <rect x="135" y="173" width="68" height="32"></rect>
            <rect x="133" y="171" width="68" height="32" class="nonterminal"></rect>
            <text class="nonterminal" x="143" y="191">interval</text></a><rect x="243" y="205" width="90" height="32" rx="10"></rect>
         <rect x="241" y="203" width="90" height="32" class="terminal" rx="10"></rect>
         <text class="terminal" x="251" y="223">DEFERRED</text>
         <rect x="393" y="205" width="64" height="32" rx="10"></rect>
         <rect x="391" y="203" width="64" height="32" class="terminal" rx="10"></rect>
         <text class="terminal" x="401" y="223">START</text><a xmlns:xlink="http://www.w3.org/1999/xlink" xlink:href="#timestamp" xlink:title="timestamp">
            <rect x="477" y="205" width="88" height="32"></rect>
            <rect x="475" y="203" width="88" height="32" class="nonterminal"></rect>
            <text class="nonterminal" x="485" y="223">timestamp</text></a><rect x="625" y="205" width="54" height="32" rx="10"></rect>
         <rect x="623" y="203" width="54" height="32" class="terminal" rx="10"></rect>
         <text class="terminal" x="633" y="223">TIME</text>
         <rect x="699" y="205" width="58" height="32" rx="10"></rect>
         <rect x="697" y="203" width="58" height="32" class="terminal" rx="10"></rect>
         <text class="terminal" x="707" y="223">ZONE</text><a xmlns:xlink="http://www.w3.org/1999/xlink" xlink:href="#timezone" xlink:title="timezone">
            <rect x="777" y="205" width="78" height="32"></rect>
            <rect x="775" y="203" width="78" height="32" class="nonterminal"></rect>
            <text class="nonterminal" x="785" y="223">timezone</text></a><rect x="45" y="291" width="74" height="32" rx="10"></rect>
         <rect x="43" y="289" width="74" height="32" class="terminal" rx="10"></rect>
         <text class="terminal" x="53" y="309">PERIOD</text>
         <rect x="139" y="291" width="26" height="32" rx="10"></rect>
         <rect x="137" y="289" width="26" height="32" class="terminal" rx="10"></rect>
         <text class="terminal" x="147" y="309">(</text>
         <rect x="185" y="291" width="74" height="32" rx="10"></rect>
         <rect x="183" y="289" width="74" height="32" class="terminal" rx="10"></rect>
         <text class="terminal" x="193" y="309">LENGTH</text><a xmlns:xlink="http://www.w3.org/1999/xlink" xlink:href="#length" xlink:title="length">
            <rect x="279" y="291" width="60" height="32"></rect>
            <rect x="277" y="289" width="60" height="32" class="nonterminal"></rect>
            <text class="nonterminal" x="287" y="309">length</text></a><rect x="379" y="323" width="54" height="32" rx="10"></rect>
         <rect x="377" y="321" width="54" height="32" class="terminal" rx="10"></rect>
         <text class="terminal" x="387" y="341">TIME</text>
         <rect x="453" y="323" width="58" height="32" rx="10"></rect>
         <rect x="451" y="321" width="58" height="32" class="terminal" rx="10"></rect>
         <text class="terminal" x="461" y="341">ZONE</text><a xmlns:xlink="http://www.w3.org/1999/xlink" xlink:href="#timezone" xlink:title="timezone">
            <rect x="531" y="323" width="78" height="32"></rect>
            <rect x="529" y="321" width="78" height="32" class="nonterminal"></rect>
            <text class="nonterminal" x="539" y="341">timezone</text></a><rect x="669" y="323" width="64" height="32" rx="10"></rect>
         <rect x="667" y="321" width="64" height="32" class="terminal" rx="10"></rect>
         <text class="terminal" x="677" y="341">DELAY</text><a xmlns:xlink="http://www.w3.org/1999/xlink" xlink:href="#delay" xlink:title="delay">
            <rect x="753" y="323" width="54" height="32"></rect>
            <rect x="751" y="321" width="54" height="32" class="nonterminal"></rect>
            <text class="nonterminal" x="761" y="341">delay</text></a><rect x="847" y="291" width="26" height="32" rx="10"></rect>
         <rect x="845" y="289" width="26" height="32" class="terminal" rx="10"></rect>
         <text class="terminal" x="855" y="309">)</text>
         <path class="line" d="m19 17 h2 m0 0 h10 m62 0 h10 m0 0 h10 m122 0 h10 m0 0 h10 m58 0 h10 m0 0 h10 m84 0 h10 m0 0 h10 m44 0 h10 m0 0 h10 m82 0 h10 m2 0 l2 0 m2 0 l2 0 m2 0 l2 0 m-598 50 l2 0 m2 0 l2 0 m2 0 l2 0 m22 0 h10 m0 0 h834 m-864 0 h20 m844 0 h20 m-884 0 q10 0 10 10 m864 0 q0 -10 10 -10 m-874 10 v12 m864 0 v-12 m-864 12 q0 10 10 10 m844 0 q10 0 10 -10 m-854 10 h10 m100 0 h10 m0 0 h724 m-854 -10 v20 m864 0 v-20 m-864 20 v24 m864 0 v-24 m-864 24 q0 10 10 10 m844 0 q10 0 10 -10 m-854 10 h10 m78 0 h10 m0 0 h746 m-854 -10 v20 m864 0 v-20 m-864 20 v24 m864 0 v-24 m-864 24 q0 10 10 10 m844 0 q10 0 10 -10 m-854 10 h10 m64 0 h10 m0 0 h10 m68 0 h10 m20 0 h10 m0 0 h100 m-130 0 h20 m110 0 h20 m-150 0 q10 0 10 10 m130 0 q0 -10 10 -10 m-140 10 v12 m130 0 v-12 m-130 12 q0 10 10 10 m110 0 q10 0 10 -10 m-120 10 h10 m90 0 h10 m40 -32 h10 m0 0 h182 m-212 0 h20 m192 0 h20 m-232 0 q10 0 10 10 m212 0 q0 -10 10 -10 m-222 10 v12 m212 0 v-12 m-212 12 q0 10 10 10 m192 0 q10 0 10 -10 m-202 10 h10 m64 0 h10 m0 0 h10 m88 0 h10 m40 -32 h10 m0 0 h240 m-270 0 h20 m250 0 h20 m-290 0 q10 0 10 10 m270 0 q0 -10 10 -10 m-280 10 v12 m270 0 v-12 m-270 12 q0 10 10 10 m250 0 q10 0 10 -10 m-260 10 h10 m54 0 h10 m0 0 h10 m58 0 h10 m0 0 h10 m78 0 h10 m42 -152 l2 0 m2 0 l2 0 m2 0 l2 0 m-914 206 l2 0 m2 0 l2 0 m2 0 l2 0 m22 0 h10 m0 0 h838 m-868 0 h20 m848 0 h20 m-888 0 q10 0 10 10 m868 0 q0 -10 10 -10 m-878 10 v12 m868 0 v-12 m-868 12 q0 10 10 10 m848 0 q10 0 10 -10 m-858 10 h10 m74 0 h10 m0 0 h10 m26 0 h10 m0 0 h10 m74 0 h10 m0 0 h10 m60 0 h10 m20 0 h10 m0 0 h240 m-270 0 h20 m250 0 h20 m-290 0 q10 0 10 10 m270 0 q0 -10 10 -10 m-280 10 v12 m270 0 v-12 m-270 12 q0 10 10 10 m250 0 q10 0 10 -10 m-260 10 h10 m54 0 h10 m0 0 h10 m58 0 h10 m0 0 h10 m78 0 h10 m40 -32 h10 m0 0 h148 m-178 0 h20 m158 0 h20 m-198 0 q10 0 10 10 m178 0 q0 -10 10 -10 m-188 10 v12 m178 0 v-12 m-178 12 q0 10 10 10 m158 0 q10 0 10 -10 m-168 10 h10 m64 0 h10 m0 0 h10 m54 0 h10 m20 -32 h10 m26 0 h10 m23 -32 h-3"></path>
         <polygon points="911 273 919 269 919 277"></polygon>
         <polygon points="911 273 903 269 903 277"></polygon>
</svg>