<svg xmlns="http://www.w3.org/2000/svg" width="761" height="213">
    <defs>
        <style type="text/css">
            @namespace "http://www.w3.org/2000/svg";
            .line                 {fill: none; stroke: #636273;}
            .bold-line            {stroke: #636273; shape-rendering: crispEdges; stroke-width: 2; }
            .thin-line           {stroke: #636273; shape-rendering: crispEdges}
            .filled              {fill: #636273; stroke: none;}
            text.terminal        {font-family: -apple-system, BlinkMacSystemFont, "Segoe UI", Roboto, Ubuntu, Cantarell, Helvetica, sans-serif;
            font-size: 12px;
            fill: #ffffff;
            font-weight: bold;
            }
            text.nonterminal     {font-family: -apple-system, BlinkMacSystemFont, "Segoe UI", Roboto, Ubuntu, Cantarell, Helvetica, sans-serif;
            font-size: 12px;
            fill: #e289a4;
            font-weight: normal;
            }
            text.regexp          {font-family: -apple-system, BlinkMacSystemFont, "Segoe UI", Roboto, Ubuntu, Cantarell, Helvetica, sans-serif;
            font-size: 12px;
            fill: #00141F;
            font-weight: normal;
            }
            rect, circle, polygon {fill: none; stroke: none;}
            rect.terminal        {fill: none; stroke: #be2f5b;}
            rect.nonterminal     {fill: rgba(255,255,255,0.1); stroke: none;}
            rect.text            {fill: none; stroke: none;}
            polygon.regexp       {fill: #C7ECFF; stroke: #038cbc;}
        </style>
    </defs>
    <polygon points="9 17 1 13 1 21"></polygon>
         <polygon points="17 17 9 13 9 21"></polygon>
         <rect x="31" y="3" width="62" height="32" rx="10"></rect>
         <rect x="29" y="1" width="62" height="32" class="terminal" rx="10"></rect>
         <text class="terminal" x="39" y="21">ALTER</text>
         <rect x="113" y="3" width="122" height="32" rx="10"></rect>
         <rect x="111" y="1" width="122" height="32" class="terminal" rx="10"></rect>
         <text class="terminal" x="121" y="21">MATERIALIZED</text>
         <rect x="255" y="3" width="58" height="32" rx="10"></rect>
         <rect x="253" y="1" width="58" height="32" class="terminal" rx="10"></rect>
         <text class="terminal" x="263" y="21">VIEW</text><a xmlns:xlink="http://www.w3.org/1999/xlink" xlink:href="#viewName" xlink:title="viewName">
            <rect x="333" y="3" width="84" height="32"></rect>
            <rect x="331" y="1" width="84" height="32" class="nonterminal"></rect>
            <text class="nonterminal" x="341" y="21">viewName</text></a><rect x="437" y="3" width="44" height="32" rx="10"></rect>
         <rect x="435" y="1" width="44" height="32" class="terminal" rx="10"></rect>
         <text class="terminal" x="445" y="21">SET</text>
         <rect x="501" y="3" width="44" height="32" rx="10"></rect>
         <rect x="499" y="1" width="44" height="32" class="terminal" rx="10"></rect>
         <text class="terminal" x="509" y="21">TTL</text><a xmlns:xlink="http://www.w3.org/1999/xlink" xlink:href="#n" xlink:title="n">
            <rect x="565" y="3" width="28" height="32"></rect>
            <rect x="563" y="1" width="28" height="32" class="nonterminal"></rect>
            <text class="nonterminal" x="573" y="21">n</text></a><rect x="633" y="3" width="68" height="32" rx="10"></rect>
         <rect x="631" y="1" width="68" height="32" class="terminal" rx="10"></rect>
         <text class="terminal" x="641" y="21">HOURS</text>
         <rect x="633" y="47" width="56" height="32" rx="10"></rect>
         <rect x="631" y="45" width="56" height="32" class="terminal" rx="10"></rect>
         <text class="terminal" x="641" y="65">DAYS</text>
         <rect x="633" y="91" width="68" height="32" rx="10"></rect>
         <rect x="631" y="89" width="68" height="32" class="terminal" rx="10"></rect>
         <text class="terminal" x="641" y="109">WEEKS</text>
         <rect x="633" y="135" width="80" height="32" rx="10"></rect>
         <rect x="631" y="133" width="80" height="32" class="terminal" rx="10"></rect>
         <text class="terminal" x="641" y="153">MONTHS</text>
         <rect x="633" y="179" width="64" height="32" rx="10"></rect>
         <rect x="631" y="177" width="64" height="32" class="terminal" rx="10"></rect>
         <text class="terminal" x="641" y="197">YEARS</text>
         <path class="line" d="m17 17 h2 m0 0 h10 m62 0 h10 m0 0 h10 m122 0 h10 m0 0 h10 m58 0 h10 m0 0 h10 m84 0 h10 m0 0 h10 m44 0 h10 m0 0 h10 m44 0 h10 m0 0 h10 m28 0 h10 m20 0 h10 m68 0 h10 m0 0 h12 m-120 0 h20 m100 0 h20 m-140 0 q10 0 10 10 m120 0 q0 -10 10 -10 m-130 10 v24 m120 0 v-24 m-120 24 q0 10 10 10 m100 0 q10 0 10 -10 m-110 10 h10 m56 0 h10 m0 0 h24 m-110 -10 v20 m120 0 v-20 m-120 20 v24 m120 0 v-24 m-120 24 q0 10 10 10 m100 0 q10 0 10 -10 m-110 10 h10 m68 0 h10 m0 0 h12 m-110 -10 v20 m120 0 v-20 m-120 20 v24 m120 0 v-24 m-120 24 q0 10 10 10 m100 0 q10 0 10 -10 m-110 10 h10 m80 0 h10 m-110 -10 v20 m120 0 v-20 m-120 20 v24 m120 0 v-24 m-120 24 q0 10 10 10 m100 0 q10 0 10 -10 m-110 10 h10 m64 0 h10 m0 0 h16 m23 -176 h-3"></path>
         <polygon points="751 17 759 13 759 21"></polygon>
         <polygon points="751 17 743 13 743 21"></polygon>
</svg>