<svg xmlns="http://www.w3.org/2000/svg" width="871" height="271">
    <defs>
        <style type="text/css">
            @namespace "http://www.w3.org/2000/svg";
            .line                 {fill: none; stroke: #636273;}
            .bold-line            {stroke: #636273; shape-rendering: crispEdges; stroke-width: 2; }
            .thin-line           {stroke: #636273; shape-rendering: crispEdges}
            .filled              {fill: #636273; stroke: none;}
            text.terminal        {font-family: -apple-system, BlinkMacSystemFont, "Segoe UI", Roboto, Ubuntu, Cantarell, Helvetica, sans-serif;
            font-size: 12px;
            fill: #ffffff;
            font-weight: bold;
            }
            text.nonterminal     {font-family: -apple-system, BlinkMacSystemFont, "Segoe UI", Roboto, Ubuntu, Cantarell, Helvetica, sans-serif;
            font-size: 12px;
            fill: #e289a4;
            font-weight: normal;
            }
            text.regexp          {font-family: -apple-system, BlinkMacSystemFont, "Segoe UI", Roboto, Ubuntu, Cantarell, Helvetica, sans-serif;
            font-size: 12px;
            fill: #00141F;
            font-weight: normal;
            }
            rect, circle, polygon {fill: none; stroke: none;}
            rect.terminal        {fill: none; stroke: #be2f5b;}
            rect.nonterminal     {fill: rgba(255,255,255,0.1); stroke: none;}
            rect.text            {fill: none; stroke: none;}
            polygon.regexp       {fill: #C7ECFF; stroke: #038cbc;}
        </style>
    </defs>
    <polygon points="9 61 1 57 1 65"></polygon>
         <polygon points="17 61 9 57 9 65"></polygon>
         <rect x="31" y="47" width="56" height="32" rx="10"></rect>
         <rect x="29" y="45" width="56" height="32" class="terminal" rx="10"></rect>
         <text class="terminal" x="39" y="65">ASOF</text>
         <rect x="107" y="47" width="54" height="32" rx="10"></rect>
         <rect x="105" y="45" width="54" height="32" class="terminal" rx="10"></rect>
         <text class="terminal" x="115" y="65">JOIN</text><a xmlns:xlink="http://www.w3.org/1999/xlink" xlink:href="#table" xlink:title="table">
            <rect x="201" y="47" width="52" height="32"></rect>
            <rect x="199" y="45" width="52" height="32" class="nonterminal"></rect>
            <text class="nonterminal" x="209" y="65">table</text></a><rect x="201" y="91" width="26" height="32" rx="10"></rect>
         <rect x="199" y="89" width="26" height="32" class="terminal" rx="10"></rect>
         <text class="terminal" x="209" y="109">(</text><a xmlns:xlink="http://www.w3.org/1999/xlink" xlink:href="#sub-query" xlink:title="sub-query">
            <rect x="247" y="91" width="84" height="32"></rect>
            <rect x="245" y="89" width="84" height="32" class="nonterminal"></rect>
            <text class="nonterminal" x="255" y="109">sub-query</text></a><rect x="351" y="91" width="26" height="32" rx="10"></rect>
         <rect x="349" y="89" width="26" height="32" class="terminal" rx="10"></rect>
         <text class="terminal" x="359" y="109">)</text>
         <rect x="437" y="47" width="40" height="32" rx="10"></rect>
         <rect x="435" y="45" width="40" height="32" class="terminal" rx="10"></rect>
         <text class="terminal" x="445" y="65">ON</text><a xmlns:xlink="http://www.w3.org/1999/xlink" xlink:href="#column" xlink:title="column">
            <rect x="537" y="47" width="64" height="32"></rect>
            <rect x="535" y="45" width="64" height="32" class="nonterminal"></rect>
            <text class="nonterminal" x="545" y="65">column</text></a><rect x="621" y="47" width="30" height="32" rx="10"></rect>
         <rect x="619" y="45" width="30" height="32" class="terminal" rx="10"></rect>
         <text class="terminal" x="629" y="65">=</text><a xmlns:xlink="http://www.w3.org/1999/xlink" xlink:href="#anotherColumn" xlink:title="anotherColumn">
            <rect x="671" y="47" width="118" height="32"></rect>
            <rect x="669" y="45" width="118" height="32" class="nonterminal"></rect>
            <text class="nonterminal" x="679" y="65">anotherColumn</text></a><rect x="537" y="3" width="48" height="32" rx="10"></rect>
         <rect x="535" y="1" width="48" height="32" class="terminal" rx="10"></rect>
         <text class="terminal" x="545" y="21">AND</text>
         <rect x="517" y="135" width="26" height="32" rx="10"></rect>
         <rect x="515" y="133" width="26" height="32" class="terminal" rx="10"></rect>
         <text class="terminal" x="525" y="153">(</text><a xmlns:xlink="http://www.w3.org/1999/xlink" xlink:href="#column" xlink:title="column">
            <rect x="583" y="135" width="64" height="32"></rect>
            <rect x="581" y="133" width="64" height="32" class="nonterminal"></rect>
            <text class="nonterminal" x="591" y="153">column</text></a><rect x="583" y="91" width="24" height="32" rx="10"></rect>
         <rect x="581" y="89" width="24" height="32" class="terminal" rx="10"></rect>
         <text class="terminal" x="591" y="109">,</text>
         <rect x="687" y="135" width="26" height="32" rx="10"></rect>
         <rect x="685" y="133" width="26" height="32" class="terminal" rx="10"></rect>
         <text class="terminal" x="695" y="153">)</text>
         <rect x="591" y="237" width="100" height="32" rx="10"></rect>
         <rect x="589" y="235" width="100" height="32" class="terminal" rx="10"></rect>
         <text class="terminal" x="599" y="255">TOLERANCE</text><a xmlns:xlink="http://www.w3.org/1999/xlink" xlink:href="#interval_literal" xlink:title="interval_literal">
            <rect x="711" y="237" width="112" height="32"></rect>
            <rect x="709" y="235" width="112" height="32" class="nonterminal"></rect>
            <text class="nonterminal" x="719" y="255">interval_literal</text></a><path class="line" d="m17 61 h2 m0 0 h10 m56 0 h10 m0 0 h10 m54 0 h10 m20 0 h10 m52 0 h10 m0 0 h124 m-216 0 h20 m196 0 h20 m-236 0 q10 0 10 10 m216 0 q0 -10 10 -10 m-226 10 v24 m216 0 v-24 m-216 24 q0 10 10 10 m196 0 q10 0 10 -10 m-206 10 h10 m26 0 h10 m0 0 h10 m84 0 h10 m0 0 h10 m26 0 h10 m40 -44 h10 m40 0 h10 m40 0 h10 m64 0 h10 m0 0 h10 m30 0 h10 m0 0 h10 m118 0 h10 m-292 0 l20 0 m-1 0 q-9 0 -9 -10 l0 -24 q0 -10 10 -10 m272 44 l20 0 m-20 0 q10 0 10 -10 l0 -24 q0 -10 -10 -10 m-272 0 h10 m48 0 h10 m0 0 h204 m-312 44 h20 m312 0 h20 m-352 0 q10 0 10 10 m332 0 q0 -10 10 -10 m-342 10 v68 m332 0 v-68 m-332 68 q0 10 10 10 m312 0 q10 0 10 -10 m-322 10 h10 m26 0 h10 m20 0 h10 m64 0 h10 m-104 0 l20 0 m-1 0 q-9 0 -9 -10 l0 -24 q0 -10 10 -10 m84 44 l20 0 m-20 0 q10 0 10 -10 l0 -24 q0 -10 -10 -10 m-84 0 h10 m24 0 h10 m0 0 h40 m20 44 h10 m26 0 h10 m0 0 h96 m-412 -88 h20 m412 0 h20 m-452 0 q10 0 10 10 m432 0 q0 -10 10 -10 m-442 10 v102 m432 0 v-102 m-432 102 q0 10 10 10 m412 0 q10 0 10 -10 m-422 10 h10 m0 0 h402 m22 -122 l2 0 m2 0 l2 0 m2 0 l2 0 m-322 158 l2 0 m2 0 l2 0 m2 0 l2 0 m22 0 h10 m0 0 h242 m-272 0 h20 m252 0 h20 m-292 0 q10 0 10 10 m272 0 q0 -10 10 -10 m-282 10 v12 m272 0 v-12 m-272 12 q0 10 10 10 m252 0 q10 0 10 -10 m-262 10 h10 m100 0 h10 m0 0 h10 m112 0 h10 m23 -32 h-3"></path>
         <polygon points="861 219 869 215 869 223"></polygon>
         <polygon points="861 219 853 215 853 223"></polygon>
</svg>