<svg xmlns="http://www.w3.org/2000/svg" width="1249" height="383">
    <defs>
        <style type="text/css">
            @namespace "http://www.w3.org/2000/svg";
            .line                 {fill: none; stroke: #636273;}
            .bold-line            {stroke: #636273; shape-rendering: crispEdges; stroke-width: 2; }
            .thin-line           {stroke: #636273; shape-rendering: crispEdges}
            .filled              {fill: #636273; stroke: none;}
            text.terminal        {font-family: -apple-system, BlinkMacSystemFont, "Segoe UI", Roboto, Ubuntu, Cantarell, Helvetica, sans-serif;
            font-size: 12px;
            fill: #ffffff;
            font-weight: bold;
            }
            text.nonterminal     {font-family: -apple-system, BlinkMacSystemFont, "Segoe UI", Roboto, Ubuntu, Cantarell, Helvetica, sans-serif;
            font-size: 12px;
            fill: #e289a4;
            font-weight: normal;
            }
            text.regexp          {font-family: -apple-system, BlinkMacSystemFont, "Segoe UI", Roboto, Ubuntu, Cantarell, Helvetica, sans-serif;
            font-size: 12px;
            fill: #00141F;
            font-weight: normal;
            }
            rect, circle, polygon {fill: none; stroke: none;}
            rect.terminal        {fill: none; stroke: #be2f5b;}
            rect.nonterminal     {fill: rgba(255,255,255,0.1); stroke: none;}
            rect.text            {fill: none; stroke: none;}
            polygon.regexp       {fill: #C7ECFF; stroke: #038cbc;}
        </style>
    </defs>
    <polygon points="9 61 1 57 1 65"></polygon>
         <polygon points="17 61 9 57 9 65"></polygon>
         <rect x="71" y="47" width="56" height="32" rx="10"></rect>
         <rect x="69" y="45" width="56" height="32" class="terminal" rx="10"></rect>
         <text class="terminal" x="79" y="65">ASOF</text>
         <rect x="71" y="91" width="36" height="32" rx="10"></rect>
         <rect x="69" y="89" width="36" height="32" class="terminal" rx="10"></rect>
         <text class="terminal" x="79" y="109">LT</text>
         <rect x="167" y="47" width="54" height="32" rx="10"></rect>
         <rect x="165" y="45" width="54" height="32" class="terminal" rx="10"></rect>
         <text class="terminal" x="175" y="65">JOIN</text><a xmlns:xlink="http://www.w3.org/1999/xlink" xlink:href="#table" xlink:title="table">
            <rect x="261" y="47" width="52" height="32"></rect>
            <rect x="259" y="45" width="52" height="32" class="nonterminal"></rect>
            <text class="nonterminal" x="269" y="65">table</text></a><rect x="261" y="91" width="26" height="32" rx="10"></rect>
         <rect x="259" y="89" width="26" height="32" class="terminal" rx="10"></rect>
         <text class="terminal" x="269" y="109">(</text><a xmlns:xlink="http://www.w3.org/1999/xlink" xlink:href="#sub-query" xlink:title="sub-query">
            <rect x="307" y="91" width="84" height="32"></rect>
            <rect x="305" y="89" width="84" height="32" class="nonterminal"></rect>
            <text class="nonterminal" x="315" y="109">sub-query</text></a><rect x="411" y="91" width="26" height="32" rx="10"></rect>
         <rect x="409" y="89" width="26" height="32" class="terminal" rx="10"></rect>
         <text class="terminal" x="419" y="109">)</text>
         <rect x="497" y="47" width="40" height="32" rx="10"></rect>
         <rect x="495" y="45" width="40" height="32" class="terminal" rx="10"></rect>
         <text class="terminal" x="505" y="65">ON</text><a xmlns:xlink="http://www.w3.org/1999/xlink" xlink:href="#column" xlink:title="column">
            <rect x="597" y="47" width="64" height="32"></rect>
            <rect x="595" y="45" width="64" height="32" class="nonterminal"></rect>
            <text class="nonterminal" x="605" y="65">column</text></a><rect x="681" y="47" width="30" height="32" rx="10"></rect>
         <rect x="679" y="45" width="30" height="32" class="terminal" rx="10"></rect>
         <text class="terminal" x="689" y="65">=</text><a xmlns:xlink="http://www.w3.org/1999/xlink" xlink:href="#anotherColumn" xlink:title="anotherColumn">
            <rect x="731" y="47" width="118" height="32"></rect>
            <rect x="729" y="45" width="118" height="32" class="nonterminal"></rect>
            <text class="nonterminal" x="739" y="65">anotherColumn</text></a><rect x="597" y="3" width="48" height="32" rx="10"></rect>
         <rect x="595" y="1" width="48" height="32" class="terminal" rx="10"></rect>
         <text class="terminal" x="605" y="21">AND</text>
         <rect x="577" y="135" width="26" height="32" rx="10"></rect>
         <rect x="575" y="133" width="26" height="32" class="terminal" rx="10"></rect>
         <text class="terminal" x="585" y="153">(</text><a xmlns:xlink="http://www.w3.org/1999/xlink" xlink:href="#column" xlink:title="column">
            <rect x="643" y="135" width="64" height="32"></rect>
            <rect x="641" y="133" width="64" height="32" class="nonterminal"></rect>
            <text class="nonterminal" x="651" y="153">column</text></a><rect x="643" y="91" width="24" height="32" rx="10"></rect>
         <rect x="641" y="89" width="24" height="32" class="terminal" rx="10"></rect>
         <text class="terminal" x="651" y="109">,</text>
         <rect x="747" y="135" width="26" height="32" rx="10"></rect>
         <rect x="745" y="133" width="26" height="32" class="terminal" rx="10"></rect>
         <text class="terminal" x="755" y="153">)</text>
         <rect x="949" y="79" width="100" height="32" rx="10"></rect>
         <rect x="947" y="77" width="100" height="32" class="terminal" rx="10"></rect>
         <text class="terminal" x="957" y="97">TOLERANCE</text><a xmlns:xlink="http://www.w3.org/1999/xlink" xlink:href="#interval_literal" xlink:title="interval_literal">
            <rect x="1069" y="79" width="112" height="32"></rect>
            <rect x="1067" y="77" width="112" height="32" class="nonterminal"></rect>
            <text class="nonterminal" x="1077" y="97">interval_literal</text></a><rect x="51" y="245" width="70" height="32" rx="10"></rect>
         <rect x="49" y="243" width="70" height="32" class="terminal" rx="10"></rect>
         <text class="terminal" x="59" y="263">SPLICE</text>
         <rect x="141" y="245" width="54" height="32" rx="10"></rect>
         <rect x="139" y="243" width="54" height="32" class="terminal" rx="10"></rect>
         <text class="terminal" x="149" y="263">JOIN</text><a xmlns:xlink="http://www.w3.org/1999/xlink" xlink:href="#table" xlink:title="table">
            <rect x="235" y="245" width="52" height="32"></rect>
            <rect x="233" y="243" width="52" height="32" class="nonterminal"></rect>
            <text class="nonterminal" x="243" y="263">table</text></a><rect x="235" y="289" width="26" height="32" rx="10"></rect>
         <rect x="233" y="287" width="26" height="32" class="terminal" rx="10"></rect>
         <text class="terminal" x="243" y="307">(</text><a xmlns:xlink="http://www.w3.org/1999/xlink" xlink:href="#sub-query" xlink:title="sub-query">
            <rect x="281" y="289" width="84" height="32"></rect>
            <rect x="279" y="287" width="84" height="32" class="nonterminal"></rect>
            <text class="nonterminal" x="289" y="307">sub-query</text></a><rect x="385" y="289" width="26" height="32" rx="10"></rect>
         <rect x="383" y="287" width="26" height="32" class="terminal" rx="10"></rect>
         <text class="terminal" x="393" y="307">)</text>
         <rect x="471" y="245" width="40" height="32" rx="10"></rect>
         <rect x="469" y="243" width="40" height="32" class="terminal" rx="10"></rect>
         <text class="terminal" x="479" y="263">ON</text><a xmlns:xlink="http://www.w3.org/1999/xlink" xlink:href="#column" xlink:title="column">
            <rect x="571" y="245" width="64" height="32"></rect>
            <rect x="569" y="243" width="64" height="32" class="nonterminal"></rect>
            <text class="nonterminal" x="579" y="263">column</text></a><rect x="655" y="245" width="30" height="32" rx="10"></rect>
         <rect x="653" y="243" width="30" height="32" class="terminal" rx="10"></rect>
         <text class="terminal" x="663" y="263">=</text><a xmlns:xlink="http://www.w3.org/1999/xlink" xlink:href="#anotherColumn" xlink:title="anotherColumn">
            <rect x="705" y="245" width="118" height="32"></rect>
            <rect x="703" y="243" width="118" height="32" class="nonterminal"></rect>
            <text class="nonterminal" x="713" y="263">anotherColumn</text></a><rect x="571" y="201" width="48" height="32" rx="10"></rect>
         <rect x="569" y="199" width="48" height="32" class="terminal" rx="10"></rect>
         <text class="terminal" x="579" y="219">AND</text>
         <rect x="551" y="333" width="26" height="32" rx="10"></rect>
         <rect x="549" y="331" width="26" height="32" class="terminal" rx="10"></rect>
         <text class="terminal" x="559" y="351">(</text><a xmlns:xlink="http://www.w3.org/1999/xlink" xlink:href="#column" xlink:title="column">
            <rect x="617" y="333" width="64" height="32"></rect>
            <rect x="615" y="331" width="64" height="32" class="nonterminal"></rect>
            <text class="nonterminal" x="625" y="351">column</text></a><rect x="617" y="289" width="24" height="32" rx="10"></rect>
         <rect x="615" y="287" width="24" height="32" class="terminal" rx="10"></rect>
         <text class="terminal" x="625" y="307">,</text>
         <rect x="721" y="333" width="26" height="32" rx="10"></rect>
         <rect x="719" y="331" width="26" height="32" class="terminal" rx="10"></rect>
         <text class="terminal" x="729" y="351">)</text>
         <path class="line" d="m17 61 h2 m40 0 h10 m56 0 h10 m-96 0 h20 m76 0 h20 m-116 0 q10 0 10 10 m96 0 q0 -10 10 -10 m-106 10 v24 m96 0 v-24 m-96 24 q0 10 10 10 m76 0 q10 0 10 -10 m-86 10 h10 m36 0 h10 m0 0 h20 m20 -44 h10 m54 0 h10 m20 0 h10 m52 0 h10 m0 0 h124 m-216 0 h20 m196 0 h20 m-236 0 q10 0 10 10 m216 0 q0 -10 10 -10 m-226 10 v24 m216 0 v-24 m-216 24 q0 10 10 10 m196 0 q10 0 10 -10 m-206 10 h10 m26 0 h10 m0 0 h10 m84 0 h10 m0 0 h10 m26 0 h10 m40 -44 h10 m40 0 h10 m40 0 h10 m64 0 h10 m0 0 h10 m30 0 h10 m0 0 h10 m118 0 h10 m-292 0 l20 0 m-1 0 q-9 0 -9 -10 l0 -24 q0 -10 10 -10 m272 44 l20 0 m-20 0 q10 0 10 -10 l0 -24 q0 -10 -10 -10 m-272 0 h10 m48 0 h10 m0 0 h204 m-312 44 h20 m312 0 h20 m-352 0 q10 0 10 10 m332 0 q0 -10 10 -10 m-342 10 v68 m332 0 v-68 m-332 68 q0 10 10 10 m312 0 q10 0 10 -10 m-322 10 h10 m26 0 h10 m20 0 h10 m64 0 h10 m-104 0 l20 0 m-1 0 q-9 0 -9 -10 l0 -24 q0 -10 10 -10 m84 44 l20 0 m-20 0 q10 0 10 -10 l0 -24 q0 -10 -10 -10 m-84 0 h10 m24 0 h10 m0 0 h40 m20 44 h10 m26 0 h10 m0 0 h96 m-412 -88 h20 m412 0 h20 m-452 0 q10 0 10 10 m432 0 q0 -10 10 -10 m-442 10 v102 m432 0 v-102 m-432 102 q0 10 10 10 m412 0 q10 0 10 -10 m-422 10 h10 m0 0 h402 m40 -122 h10 m0 0 h242 m-272 0 h20 m252 0 h20 m-292 0 q10 0 10 10 m272 0 q0 -10 10 -10 m-282 10 v12 m272 0 v-12 m-272 12 q0 10 10 10 m252 0 q10 0 10 -10 m-262 10 h10 m100 0 h10 m0 0 h10 m112 0 h10 m-1170 -32 h20 m1170 0 h20 m-1210 0 q10 0 10 10 m1190 0 q0 -10 10 -10 m-1200 10 v178 m1190 0 v-178 m-1190 178 q0 10 10 10 m1170 0 q10 0 10 -10 m-1180 10 h10 m70 0 h10 m0 0 h10 m54 0 h10 m20 0 h10 m52 0 h10 m0 0 h124 m-216 0 h20 m196 0 h20 m-236 0 q10 0 10 10 m216 0 q0 -10 10 -10 m-226 10 v24 m216 0 v-24 m-216 24 q0 10 10 10 m196 0 q10 0 10 -10 m-206 10 h10 m26 0 h10 m0 0 h10 m84 0 h10 m0 0 h10 m26 0 h10 m40 -44 h10 m40 0 h10 m40 0 h10 m64 0 h10 m0 0 h10 m30 0 h10 m0 0 h10 m118 0 h10 m-292 0 l20 0 m-1 0 q-9 0 -9 -10 l0 -24 q0 -10 10 -10 m272 44 l20 0 m-20 0 q10 0 10 -10 l0 -24 q0 -10 -10 -10 m-272 0 h10 m48 0 h10 m0 0 h204 m-312 44 h20 m312 0 h20 m-352 0 q10 0 10 10 m332 0 q0 -10 10 -10 m-342 10 v68 m332 0 v-68 m-332 68 q0 10 10 10 m312 0 q10 0 10 -10 m-322 10 h10 m26 0 h10 m20 0 h10 m64 0 h10 m-104 0 l20 0 m-1 0 q-9 0 -9 -10 l0 -24 q0 -10 10 -10 m84 44 l20 0 m-20 0 q10 0 10 -10 l0 -24 q0 -10 -10 -10 m-84 0 h10 m24 0 h10 m0 0 h40 m20 44 h10 m26 0 h10 m0 0 h96 m-412 -88 h20 m412 0 h20 m-452 0 q10 0 10 10 m432 0 q0 -10 10 -10 m-442 10 v102 m432 0 v-102 m-432 102 q0 10 10 10 m412 0 q10 0 10 -10 m-422 10 h10 m0 0 h402 m20 -122 h318 m23 -198 h-3"></path>
         <polygon points="1239 61 1247 57 1247 65"></polygon>
         <polygon points="1239 61 1231 57 1231 65"></polygon>
</svg>