<svg xmlns="http://www.w3.org/2000/svg" width="353" height="81">
    <defs>
        <style type="text/css">
            @namespace "http://www.w3.org/2000/svg";
            .line                 {fill: none; stroke: #636273;}
            .bold-line            {stroke: #636273; shape-rendering: crispEdges; stroke-width: 2; }
            .thin-line           {stroke: #636273; shape-rendering: crispEdges}
            .filled              {fill: #636273; stroke: none;}
            text.terminal        {font-family: -apple-system, BlinkMacSystemFont, "Segoe UI", Roboto, Ubuntu, Cantarell, Helvetica, sans-serif;
            font-size: 12px;
            fill: #ffffff;
            font-weight: bold;
            }
            text.nonterminal     {font-family: -apple-system, BlinkMacSystemFont, "Segoe UI", Roboto, Ubuntu, Cantarell, Helvetica, sans-serif;
            font-size: 12px;
            fill: #e289a4;
            font-weight: normal;
            }
            text.regexp          {font-family: -apple-system, BlinkMacSystemFont, "Segoe UI", Roboto, Ubuntu, Cantarell, Helvetica, sans-serif;
            font-size: 12px;
            fill: #00141F;
            font-weight: normal;
            }
            rect, circle, polygon {fill: none; stroke: none;}
            rect.terminal        {fill: none; stroke: #be2f5b;}
            rect.nonterminal     {fill: rgba(255,255,255,0.1); stroke: none;}
            rect.text            {fill: none; stroke: none;}
            polygon.regexp       {fill: #C7ECFF; stroke: #038cbc;}
        </style>
    </defs>
    <polygon points="9 17 1 13 1 21"></polygon>
         <polygon points="17 17 9 13 9 21"></polygon>
         <rect x="31" y="3" width="110" height="32" rx="10"></rect>
         <rect x="29" y="1" width="110" height="32" class="terminal" rx="10"></rect>
         <text class="terminal" x="39" y="21">CHECKPOINT</text>
         <rect x="181" y="3" width="72" height="32" rx="10"></rect>
         <rect x="179" y="1" width="72" height="32" class="terminal" rx="10"></rect>
         <text class="terminal" x="189" y="21">CREATE</text>
         <rect x="181" y="47" width="80" height="32" rx="10"></rect>
         <rect x="179" y="45" width="80" height="32" class="terminal" rx="10"></rect>
         <text class="terminal" x="189" y="65">RELEASE</text>
         <rect x="301" y="3" width="24" height="32" rx="10"></rect>
         <rect x="299" y="1" width="24" height="32" class="terminal" rx="10"></rect>
         <text class="terminal" x="309" y="21">;</text>
         <path class="line" d="m17 17 h2 m0 0 h10 m110 0 h10 m20 0 h10 m72 0 h10 m0 0 h8 m-120 0 h20 m100 0 h20 m-140 0 q10 0 10 10 m120 0 q0 -10 10 -10 m-130 10 v24 m120 0 v-24 m-120 24 q0 10 10 10 m100 0 q10 0 10 -10 m-110 10 h10 m80 0 h10 m20 -44 h10 m24 0 h10 m3 0 h-3"></path>
         <polygon points="343 17 351 13 351 21"></polygon>
         <polygon points="343 17 335 13 335 21"></polygon>
</svg>