<svg xmlns="http://www.w3.org/2000/svg" width="1069" height="1707">
    <defs>
        <style type="text/css">
            @namespace "http://www.w3.org/2000/svg";
            .line                 {fill: none; stroke: #636273;}
            .bold-line            {stroke: #636273; shape-rendering: crispEdges; stroke-width: 2; }
            .thin-line           {stroke: #636273; shape-rendering: crispEdges}
            .filled              {fill: #636273; stroke: none;}
            text.terminal        {font-family: -apple-system, BlinkMacSystemFont, "Segoe UI", Roboto, Ubuntu, Cantarell, Helvetica, sans-serif;
            font-size: 12px;
            fill: #ffffff;
            font-weight: bold;
            }
            text.nonterminal     {font-family: -apple-system, BlinkMacSystemFont, "Segoe UI", Roboto, Ubuntu, Cantarell, Helvetica, sans-serif;
            font-size: 12px;
            fill: #e289a4;
            font-weight: normal;
            }
            text.regexp          {font-family: -apple-system, BlinkMacSystemFont, "Segoe UI", Roboto, Ubuntu, Cantarell, Helvetica, sans-serif;
            font-size: 12px;
            fill: #00141F;
            font-weight: normal;
            }
            rect, circle, polygon {fill: none; stroke: none;}
            rect.terminal        {fill: none; stroke: #be2f5b;}
            rect.nonterminal     {fill: rgba(255,255,255,0.1); stroke: none;}
            rect.text            {fill: none; stroke: none;}
            polygon.regexp       {fill: #C7ECFF; stroke: #038cbc;}
        </style>
    </defs>
    <polygon points="11 17 3 13 3 21"></polygon>
         <polygon points="19 17 11 13 11 21"></polygon>
         <rect x="33" y="3" width="58" height="32" rx="10"></rect>
         <rect x="31" y="1" width="58" height="32" class="terminal" rx="10"></rect>
         <text class="terminal" x="41" y="21">COPY</text><a xmlns:xlink="http://www.w3.org/1999/xlink" xlink:href="#id" xlink:title="id">
            <rect x="45" y="69" width="30" height="32"></rect>
            <rect x="43" y="67" width="30" height="32" class="nonterminal"></rect>
            <text class="nonterminal" x="53" y="87">id</text></a><rect x="95" y="69" width="74" height="32" rx="10"></rect>
         <rect x="93" y="67" width="74" height="32" class="terminal" rx="10"></rect>
         <text class="terminal" x="103" y="87">CANCEL</text><a xmlns:xlink="http://www.w3.org/1999/xlink" xlink:href="#tableName" xlink:title="tableName">
            <rect x="45" y="113" width="88" height="32"></rect>
            <rect x="43" y="111" width="88" height="32" class="nonterminal"></rect>
            <text class="nonterminal" x="53" y="131">tableName</text></a><rect x="153" y="113" width="60" height="32" rx="10"></rect>
         <rect x="151" y="111" width="60" height="32" class="terminal" rx="10"></rect>
         <text class="terminal" x="161" y="131">FROM</text><a xmlns:xlink="http://www.w3.org/1999/xlink" xlink:href="#fileName" xlink:title="fileName">
            <rect x="233" y="113" width="74" height="32"></rect>
            <rect x="231" y="111" width="74" height="32" class="nonterminal"></rect>
            <text class="nonterminal" x="241" y="131">fileName</text></a><rect x="347" y="145" width="58" height="32" rx="10"></rect>
         <rect x="345" y="143" width="58" height="32" class="terminal" rx="10"></rect>
         <text class="terminal" x="355" y="163">WITH</text>
         <rect x="445" y="145" width="74" height="32" rx="10"></rect>
         <rect x="443" y="143" width="74" height="32" class="terminal" rx="10"></rect>
         <text class="terminal" x="453" y="163">HEADER</text><a xmlns:xlink="http://www.w3.org/1999/xlink" xlink:href="#true" xlink:title="true">
            <rect x="559" y="145" width="46" height="32"></rect>
            <rect x="557" y="143" width="46" height="32" class="nonterminal"></rect>
            <text class="nonterminal" x="567" y="163">true</text></a><a xmlns:xlink="http://www.w3.org/1999/xlink" xlink:href="#false" xlink:title="false">
            <rect x="559" y="189" width="50" height="32"></rect>
            <rect x="557" y="187" width="50" height="32" class="nonterminal"></rect>
            <text class="nonterminal" x="567" y="207">false</text></a><rect x="445" y="233" width="100" height="32" rx="10"></rect>
         <rect x="443" y="231" width="100" height="32" class="terminal" rx="10"></rect>
         <text class="terminal" x="453" y="251">TIMESTAMP</text><a xmlns:xlink="http://www.w3.org/1999/xlink" xlink:href="#columnName" xlink:title="columnName">
            <rect x="565" y="233" width="102" height="32"></rect>
            <rect x="563" y="231" width="102" height="32" class="nonterminal"></rect>
            <text class="nonterminal" x="573" y="251">columnName</text></a><rect x="445" y="277" width="96" height="32" rx="10"></rect>
         <rect x="443" y="275" width="96" height="32" class="terminal" rx="10"></rect>
         <text class="terminal" x="453" y="295">DELIMITER</text><a xmlns:xlink="http://www.w3.org/1999/xlink" xlink:href="#delimiter" xlink:title="delimiter">
            <rect x="561" y="277" width="76" height="32"></rect>
            <rect x="559" y="275" width="76" height="32" class="nonterminal"></rect>
            <text class="nonterminal" x="569" y="295">delimiter</text></a><rect x="445" y="321" width="76" height="32" rx="10"></rect>
         <rect x="443" y="319" width="76" height="32" class="terminal" rx="10"></rect>
         <text class="terminal" x="453" y="339">FORMAT</text><a xmlns:xlink="http://www.w3.org/1999/xlink" xlink:href="#format" xlink:title="format">
            <rect x="541" y="321" width="62" height="32"></rect>
            <rect x="539" y="319" width="62" height="32" class="nonterminal"></rect>
            <text class="nonterminal" x="549" y="339">format</text></a><rect x="445" y="365" width="120" height="32" rx="10"></rect>
         <rect x="443" y="363" width="120" height="32" class="terminal" rx="10"></rect>
         <text class="terminal" x="453" y="383">PARTITION BY</text>
         <rect x="605" y="365" width="58" height="32" rx="10"></rect>
         <rect x="603" y="363" width="58" height="32" class="terminal" rx="10"></rect>
         <text class="terminal" x="613" y="383">NONE</text>
         <rect x="605" y="409" width="56" height="32" rx="10"></rect>
         <rect x="603" y="407" width="56" height="32" class="terminal" rx="10"></rect>
         <text class="terminal" x="613" y="427">YEAR</text>
         <rect x="605" y="453" width="70" height="32" rx="10"></rect>
         <rect x="603" y="451" width="70" height="32" class="terminal" rx="10"></rect>
         <text class="terminal" x="613" y="471">MONTH</text>
         <rect x="605" y="497" width="48" height="32" rx="10"></rect>
         <rect x="603" y="495" width="48" height="32" class="terminal" rx="10"></rect>
         <text class="terminal" x="613" y="515">DAY</text>
         <rect x="605" y="541" width="60" height="32" rx="10"></rect>
         <rect x="603" y="539" width="60" height="32" class="terminal" rx="10"></rect>
         <text class="terminal" x="613" y="559">HOUR</text>
         <rect x="445" y="585" width="92" height="32" rx="10"></rect>
         <rect x="443" y="583" width="92" height="32" class="terminal" rx="10"></rect>
         <text class="terminal" x="453" y="603">ON ERROR</text>
         <rect x="577" y="585" width="96" height="32" rx="10"></rect>
         <rect x="575" y="583" width="96" height="32" class="terminal" rx="10"></rect>
         <text class="terminal" x="585" y="603">SKIP_ROW</text>
         <rect x="577" y="629" width="122" height="32" rx="10"></rect>
         <rect x="575" y="627" width="122" height="32" class="terminal" rx="10"></rect>
         <text class="terminal" x="585" y="647">SKIP_COLUMN</text>
         <rect x="577" y="673" width="66" height="32" rx="10"></rect>
         <rect x="575" y="671" width="66" height="32" class="terminal" rx="10"></rect>
         <text class="terminal" x="585" y="691">ABORT</text><a xmlns:xlink="http://www.w3.org/1999/xlink" xlink:href="#tableName" xlink:title="tableName">
            <rect x="65" y="717" width="88" height="32"></rect>
            <rect x="63" y="715" width="88" height="32" class="nonterminal"></rect>
            <text class="nonterminal" x="73" y="735">tableName</text></a><rect x="65" y="761" width="26" height="32" rx="10"></rect>
         <rect x="63" y="759" width="26" height="32" class="terminal" rx="10"></rect>
         <text class="terminal" x="73" y="779">(</text><a xmlns:xlink="http://www.w3.org/1999/xlink" xlink:href="#selectQuery" xlink:title="selectQuery">
            <rect x="111" y="761" width="94" height="32"></rect>
            <rect x="109" y="759" width="94" height="32" class="nonterminal"></rect>
            <text class="nonterminal" x="119" y="779">selectQuery</text></a><rect x="225" y="761" width="26" height="32" rx="10"></rect>
         <rect x="223" y="759" width="26" height="32" class="terminal" rx="10"></rect>
         <text class="terminal" x="233" y="779">)</text>
         <rect x="291" y="717" width="38" height="32" rx="10"></rect>
         <rect x="289" y="715" width="38" height="32" class="terminal" rx="10"></rect>
         <text class="terminal" x="299" y="735">TO</text><a xmlns:xlink="http://www.w3.org/1999/xlink" xlink:href="#destinationPath" xlink:title="destinationPath">
            <rect x="349" y="717" width="120" height="32"></rect>
            <rect x="347" y="715" width="120" height="32" class="nonterminal"></rect>
            <text class="nonterminal" x="357" y="735">destinationPath</text></a><rect x="509" y="749" width="58" height="32" rx="10"></rect>
         <rect x="507" y="747" width="58" height="32" class="terminal" rx="10"></rect>
         <text class="terminal" x="517" y="767">WITH</text>
         <rect x="607" y="749" width="76" height="32" rx="10"></rect>
         <rect x="605" y="747" width="76" height="32" class="terminal" rx="10"></rect>
         <text class="terminal" x="615" y="767">FORMAT</text>
         <rect x="703" y="749" width="84" height="32" rx="10"></rect>
         <rect x="701" y="747" width="84" height="32" class="terminal" rx="10"></rect>
         <text class="terminal" x="711" y="767">PARQUET</text>
         <rect x="607" y="793" width="124" height="32" rx="10"></rect>
         <rect x="605" y="791" width="124" height="32" class="terminal" rx="10"></rect>
         <text class="terminal" x="615" y="811">PARTITION_BY</text>
         <rect x="771" y="793" width="58" height="32" rx="10"></rect>
         <rect x="769" y="791" width="58" height="32" class="terminal" rx="10"></rect>
         <text class="terminal" x="779" y="811">NONE</text>
         <rect x="771" y="837" width="60" height="32" rx="10"></rect>
         <rect x="769" y="835" width="60" height="32" class="terminal" rx="10"></rect>
         <text class="terminal" x="779" y="855">HOUR</text>
         <rect x="771" y="881" width="48" height="32" rx="10"></rect>
         <rect x="769" y="879" width="48" height="32" class="terminal" rx="10"></rect>
         <text class="terminal" x="779" y="899">DAY</text>
         <rect x="771" y="925" width="60" height="32" rx="10"></rect>
         <rect x="769" y="923" width="60" height="32" class="terminal" rx="10"></rect>
         <text class="terminal" x="779" y="943">WEEK</text>
         <rect x="771" y="969" width="70" height="32" rx="10"></rect>
         <rect x="769" y="967" width="70" height="32" class="terminal" rx="10"></rect>
         <text class="terminal" x="779" y="987">MONTH</text>
         <rect x="771" y="1013" width="56" height="32" rx="10"></rect>
         <rect x="769" y="1011" width="56" height="32" class="terminal" rx="10"></rect>
         <text class="terminal" x="779" y="1031">YEAR</text>
         <rect x="607" y="1057" width="180" height="32" rx="10"></rect>
         <rect x="605" y="1055" width="180" height="32" class="terminal" rx="10"></rect>
         <text class="terminal" x="615" y="1075">COMPRESSION_CODEC</text>
         <rect x="827" y="1057" width="134" height="32" rx="10"></rect>
         <rect x="825" y="1055" width="134" height="32" class="terminal" rx="10"></rect>
         <text class="terminal" x="835" y="1075">UNCOMPRESSED</text>
         <rect x="827" y="1101" width="74" height="32" rx="10"></rect>
         <rect x="825" y="1099" width="74" height="32" class="terminal" rx="10"></rect>
         <text class="terminal" x="835" y="1119">SNAPPY</text>
         <rect x="827" y="1145" width="54" height="32" rx="10"></rect>
         <rect x="825" y="1143" width="54" height="32" class="terminal" rx="10"></rect>
         <text class="terminal" x="835" y="1163">GZIP</text>
         <rect x="827" y="1189" width="44" height="32" rx="10"></rect>
         <rect x="825" y="1187" width="44" height="32" class="terminal" rx="10"></rect>
         <text class="terminal" x="835" y="1207">LZ4</text>
         <rect x="827" y="1233" width="54" height="32" rx="10"></rect>
         <rect x="825" y="1231" width="54" height="32" class="terminal" rx="10"></rect>
         <text class="terminal" x="835" y="1251">ZSTD</text>
         <rect x="827" y="1277" width="86" height="32" rx="10"></rect>
         <rect x="825" y="1275" width="86" height="32" class="terminal" rx="10"></rect>
         <text class="terminal" x="835" y="1295">LZ4_RAW</text>
         <rect x="827" y="1321" width="72" height="32" rx="10"></rect>
         <rect x="825" y="1319" width="72" height="32" class="terminal" rx="10"></rect>
         <text class="terminal" x="835" y="1339">BROTLI</text>
         <rect x="827" y="1365" width="46" height="32" rx="10"></rect>
         <rect x="825" y="1363" width="46" height="32" class="terminal" rx="10"></rect>
         <text class="terminal" x="835" y="1383">LZO</text>
         <rect x="627" y="1409" width="174" height="32" rx="10"></rect>
         <rect x="625" y="1407" width="174" height="32" class="terminal" rx="10"></rect>
         <text class="terminal" x="635" y="1427">COMPRESSION_LEVEL</text>
         <rect x="627" y="1453" width="152" height="32" rx="10"></rect>
         <rect x="625" y="1451" width="152" height="32" class="terminal" rx="10"></rect>
         <text class="terminal" x="635" y="1471">ROW_GROUP_SIZE</text>
         <rect x="627" y="1497" width="142" height="32" rx="10"></rect>
         <rect x="625" y="1495" width="142" height="32" class="terminal" rx="10"></rect>
         <text class="terminal" x="635" y="1515">DATA_PAGE_SIZE</text><a xmlns:xlink="http://www.w3.org/1999/xlink" xlink:href="#number" xlink:title="number">
            <rect x="841" y="1409" width="68" height="32"></rect>
            <rect x="839" y="1407" width="68" height="32" class="nonterminal"></rect>
            <text class="nonterminal" x="849" y="1427">number</text></a><rect x="627" y="1541" width="174" height="32" rx="10"></rect>
         <rect x="625" y="1539" width="174" height="32" class="terminal" rx="10"></rect>
         <text class="terminal" x="635" y="1559">STATISTICS_ENABLED</text>
         <rect x="627" y="1585" width="190" height="32" rx="10"></rect>
         <rect x="625" y="1583" width="190" height="32" class="terminal" rx="10"></rect>
         <text class="terminal" x="635" y="1603">RAW_ARRAY_ENCODING</text><a xmlns:xlink="http://www.w3.org/1999/xlink" xlink:href="#true" xlink:title="true">
            <rect x="877" y="1541" width="46" height="32"></rect>
            <rect x="875" y="1539" width="46" height="32" class="nonterminal"></rect>
            <text class="nonterminal" x="885" y="1559">true</text></a><a xmlns:xlink="http://www.w3.org/1999/xlink" xlink:href="#false" xlink:title="false">
            <rect x="877" y="1585" width="50" height="32"></rect>
            <rect x="875" y="1583" width="50" height="32" class="nonterminal"></rect>
            <text class="nonterminal" x="885" y="1603">false</text></a><rect x="607" y="1629" width="156" height="32" rx="10"></rect>
         <rect x="605" y="1627" width="156" height="32" class="terminal" rx="10"></rect>
         <text class="terminal" x="615" y="1647">PARQUET_VERSION</text>
         <rect x="803" y="1629" width="28" height="32" rx="10"></rect>
         <rect x="801" y="1627" width="28" height="32" class="terminal" rx="10"></rect>
         <text class="terminal" x="811" y="1647">1</text>
         <rect x="803" y="1673" width="28" height="32" rx="10"></rect>
         <rect x="801" y="1671" width="28" height="32" class="terminal" rx="10"></rect>
         <text class="terminal" x="811" y="1691">2</text>
         <path class="line" d="m19 17 h2 m0 0 h10 m58 0 h10 m2 0 l2 0 m2 0 l2 0 m2 0 l2 0 m-110 66 l2 0 m2 0 l2 0 m2 0 l2 0 m22 0 h10 m30 0 h10 m0 0 h10 m74 0 h10 m0 0 h852 m-1016 0 h20 m996 0 h20 m-1036 0 q10 0 10 10 m1016 0 q0 -10 10 -10 m-1026 10 v24 m1016 0 v-24 m-1016 24 q0 10 10 10 m996 0 q10 0 10 -10 m-1006 10 h10 m88 0 h10 m0 0 h10 m60 0 h10 m0 0 h10 m74 0 h10 m20 0 h10 m0 0 h402 m-432 0 h20 m412 0 h20 m-452 0 q10 0 10 10 m432 0 q0 -10 10 -10 m-442 10 v12 m432 0 v-12 m-432 12 q0 10 10 10 m412 0 q10 0 10 -10 m-422 10 h10 m58 0 h10 m20 0 h10 m74 0 h10 m20 0 h10 m46 0 h10 m0 0 h4 m-90 0 h20 m70 0 h20 m-110 0 q10 0 10 10 m90 0 q0 -10 10 -10 m-100 10 v24 m90 0 v-24 m-90 24 q0 10 10 10 m70 0 q10 0 10 -10 m-80 10 h10 m50 0 h10 m20 -44 h90 m-314 0 h20 m294 0 h20 m-334 0 q10 0 10 10 m314 0 q0 -10 10 -10 m-324 10 v68 m314 0 v-68 m-314 68 q0 10 10 10 m294 0 q10 0 10 -10 m-304 10 h10 m100 0 h10 m0 0 h10 m102 0 h10 m0 0 h52 m-304 -10 v20 m314 0 v-20 m-314 20 v24 m314 0 v-24 m-314 24 q0 10 10 10 m294 0 q10 0 10 -10 m-304 10 h10 m96 0 h10 m0 0 h10 m76 0 h10 m0 0 h82 m-304 -10 v20 m314 0 v-20 m-314 20 v24 m314 0 v-24 m-314 24 q0 10 10 10 m294 0 q10 0 10 -10 m-304 10 h10 m76 0 h10 m0 0 h10 m62 0 h10 m0 0 h116 m-304 -10 v20 m314 0 v-20 m-314 20 v24 m314 0 v-24 m-314 24 q0 10 10 10 m294 0 q10 0 10 -10 m-304 10 h10 m120 0 h10 m20 0 h10 m58 0 h10 m0 0 h12 m-110 0 h20 m90 0 h20 m-130 0 q10 0 10 10 m110 0 q0 -10 10 -10 m-120 10 v24 m110 0 v-24 m-110 24 q0 10 10 10 m90 0 q10 0 10 -10 m-100 10 h10 m56 0 h10 m0 0 h14 m-100 -10 v20 m110 0 v-20 m-110 20 v24 m110 0 v-24 m-110 24 q0 10 10 10 m90 0 q10 0 10 -10 m-100 10 h10 m70 0 h10 m-100 -10 v20 m110 0 v-20 m-110 20 v24 m110 0 v-24 m-110 24 q0 10 10 10 m90 0 q10 0 10 -10 m-100 10 h10 m48 0 h10 m0 0 h22 m-100 -10 v20 m110 0 v-20 m-110 20 v24 m110 0 v-24 m-110 24 q0 10 10 10 m90 0 q10 0 10 -10 m-100 10 h10 m60 0 h10 m0 0 h10 m20 -176 h24 m-304 -10 v20 m314 0 v-20 m-314 20 v200 m314 0 v-200 m-314 200 q0 10 10 10 m294 0 q10 0 10 -10 m-304 10 h10 m92 0 h10 m20 0 h10 m96 0 h10 m0 0 h26 m-162 0 h20 m142 0 h20 m-182 0 q10 0 10 10 m162 0 q0 -10 10 -10 m-172 10 v24 m162 0 v-24 m-162 24 q0 10 10 10 m142 0 q10 0 10 -10 m-152 10 h10 m122 0 h10 m-152 -10 v20 m162 0 v-20 m-162 20 v24 m162 0 v-24 m-162 24 q0 10 10 10 m142 0 q10 0 10 -10 m-152 10 h10 m66 0 h10 m0 0 h56 m60 -560 h262 m-1006 -10 v20 m1016 0 v-20 m-1016 20 v584 m1016 0 v-584 m-1016 584 q0 10 10 10 m996 0 q10 0 10 -10 m-986 10 h10 m88 0 h10 m0 0 h98 m-226 0 h20 m206 0 h20 m-246 0 q10 0 10 10 m226 0 q0 -10 10 -10 m-236 10 v24 m226 0 v-24 m-226 24 q0 10 10 10 m206 0 q10 0 10 -10 m-216 10 h10 m26 0 h10 m0 0 h10 m94 0 h10 m0 0 h10 m26 0 h10 m20 -44 h10 m38 0 h10 m0 0 h10 m120 0 h10 m20 0 h10 m0 0 h502 m-532 0 h20 m512 0 h20 m-552 0 q10 0 10 10 m532 0 q0 -10 10 -10 m-542 10 v12 m532 0 v-12 m-532 12 q0 10 10 10 m512 0 q10 0 10 -10 m-522 10 h10 m58 0 h10 m20 0 h10 m76 0 h10 m0 0 h10 m84 0 h10 m0 0 h194 m-414 0 h20 m394 0 h20 m-434 0 q10 0 10 10 m414 0 q0 -10 10 -10 m-424 10 v24 m414 0 v-24 m-414 24 q0 10 10 10 m394 0 q10 0 10 -10 m-404 10 h10 m124 0 h10 m20 0 h10 m58 0 h10 m0 0 h12 m-110 0 h20 m90 0 h20 m-130 0 q10 0 10 10 m110 0 q0 -10 10 -10 m-120 10 v24 m110 0 v-24 m-110 24 q0 10 10 10 m90 0 q10 0 10 -10 m-100 10 h10 m60 0 h10 m0 0 h10 m-100 -10 v20 m110 0 v-20 m-110 20 v24 m110 0 v-24 m-110 24 q0 10 10 10 m90 0 q10 0 10 -10 m-100 10 h10 m48 0 h10 m0 0 h22 m-100 -10 v20 m110 0 v-20 m-110 20 v24 m110 0 v-24 m-110 24 q0 10 10 10 m90 0 q10 0 10 -10 m-100 10 h10 m60 0 h10 m0 0 h10 m-100 -10 v20 m110 0 v-20 m-110 20 v24 m110 0 v-24 m-110 24 q0 10 10 10 m90 0 q10 0 10 -10 m-100 10 h10 m70 0 h10 m-100 -10 v20 m110 0 v-20 m-110 20 v24 m110 0 v-24 m-110 24 q0 10 10 10 m90 0 q10 0 10 -10 m-100 10 h10 m56 0 h10 m0 0 h14 m20 -220 h120 m-404 -10 v20 m414 0 v-20 m-414 20 v244 m414 0 v-244 m-414 244 q0 10 10 10 m394 0 q10 0 10 -10 m-404 10 h10 m180 0 h10 m20 0 h10 m134 0 h10 m-174 0 h20 m154 0 h20 m-194 0 q10 0 10 10 m174 0 q0 -10 10 -10 m-184 10 v24 m174 0 v-24 m-174 24 q0 10 10 10 m154 0 q10 0 10 -10 m-164 10 h10 m74 0 h10 m0 0 h60 m-164 -10 v20 m174 0 v-20 m-174 20 v24 m174 0 v-24 m-174 24 q0 10 10 10 m154 0 q10 0 10 -10 m-164 10 h10 m54 0 h10 m0 0 h80 m-164 -10 v20 m174 0 v-20 m-174 20 v24 m174 0 v-24 m-174 24 q0 10 10 10 m154 0 q10 0 10 -10 m-164 10 h10 m44 0 h10 m0 0 h90 m-164 -10 v20 m174 0 v-20 m-174 20 v24 m174 0 v-24 m-174 24 q0 10 10 10 m154 0 q10 0 10 -10 m-164 10 h10 m54 0 h10 m0 0 h80 m-164 -10 v20 m174 0 v-20 m-174 20 v24 m174 0 v-24 m-174 24 q0 10 10 10 m154 0 q10 0 10 -10 m-164 10 h10 m86 0 h10 m0 0 h48 m-164 -10 v20 m174 0 v-20 m-174 20 v24 m174 0 v-24 m-174 24 q0 10 10 10 m154 0 q10 0 10 -10 m-164 10 h10 m72 0 h10 m0 0 h62 m-164 -10 v20 m174 0 v-20 m-174 20 v24 m174 0 v-24 m-174 24 q0 10 10 10 m154 0 q10 0 10 -10 m-164 10 h10 m46 0 h10 m0 0 h88 m-384 -318 v20 m414 0 v-20 m-414 20 v332 m414 0 v-332 m-414 332 q0 10 10 10 m394 0 q10 0 10 -10 m-384 10 h10 m174 0 h10 m-214 0 h20 m194 0 h20 m-234 0 q10 0 10 10 m214 0 q0 -10 10 -10 m-224 10 v24 m214 0 v-24 m-214 24 q0 10 10 10 m194 0 q10 0 10 -10 m-204 10 h10 m152 0 h10 m0 0 h22 m-204 -10 v20 m214 0 v-20 m-214 20 v24 m214 0 v-24 m-214 24 q0 10 10 10 m194 0 q10 0 10 -10 m-204 10 h10 m142 0 h10 m0 0 h32 m20 -88 h10 m68 0 h10 m0 0 h72 m-404 -10 v20 m414 0 v-20 m-414 20 v112 m414 0 v-112 m-414 112 q0 10 10 10 m394 0 q10 0 10 -10 m-384 10 h10 m174 0 h10 m0 0 h16 m-230 0 h20 m210 0 h20 m-250 0 q10 0 10 10 m230 0 q0 -10 10 -10 m-240 10 v24 m230 0 v-24 m-230 24 q0 10 10 10 m210 0 q10 0 10 -10 m-220 10 h10 m190 0 h10 m40 -44 h10 m46 0 h10 m0 0 h4 m-90 0 h20 m70 0 h20 m-110 0 q10 0 10 10 m90 0 q0 -10 10 -10 m-100 10 v24 m90 0 v-24 m-90 24 q0 10 10 10 m70 0 q10 0 10 -10 m-80 10 h10 m50 0 h10 m20 -44 h34 m-404 -10 v20 m414 0 v-20 m-414 20 v68 m414 0 v-68 m-414 68 q0 10 10 10 m394 0 q10 0 10 -10 m-404 10 h10 m156 0 h10 m20 0 h10 m28 0 h10 m-68 0 h20 m48 0 h20 m-88 0 q10 0 10 10 m68 0 q0 -10 10 -10 m-78 10 v24 m68 0 v-24 m-68 24 q0 10 10 10 m48 0 q10 0 10 -10 m-58 10 h10 m28 0 h10 m20 -44 h130 m63 -1560 h-3"></path>
         <polygon points="1059 83 1067 79 1067 87"></polygon>
         <polygon points="1059 83 1051 79 1051 87"></polygon>
</svg>