<svg xmlns="http://www.w3.org/2000/svg" width="585" height="69">
    <defs>
        <style type="text/css">
            @namespace "http://www.w3.org/2000/svg";
            .line                 {fill: none; stroke: #636273;}
            .bold-line            {stroke: #636273; shape-rendering: crispEdges; stroke-width: 2; }
            .thin-line           {stroke: #636273; shape-rendering: crispEdges}
            .filled              {fill: #636273; stroke: none;}
            text.terminal        {font-family: -apple-system, BlinkMacSystemFont, "Segoe UI", Roboto, Ubuntu, Cantarell, Helvetica, sans-serif;
            font-size: 12px;
            fill: #ffffff;
            font-weight: bold;
            }
            text.nonterminal     {font-family: -apple-system, BlinkMacSystemFont, "Segoe UI", Roboto, Ubuntu, Cantarell, Helvetica, sans-serif;
            font-size: 12px;
            fill: #e289a4;
            font-weight: normal;
            }
            text.regexp          {font-family: -apple-system, BlinkMacSystemFont, "Segoe UI", Roboto, Ubuntu, Cantarell, Helvetica, sans-serif;
            font-size: 12px;
            fill: #00141F;
            font-weight: normal;
            }
            rect, circle, polygon {fill: none; stroke: none;}
            rect.terminal        {fill: none; stroke: #be2f5b;}
            rect.nonterminal     {fill: rgba(255,255,255,0.1); stroke: none;}
            rect.text            {fill: none; stroke: none;}
            polygon.regexp       {fill: #C7ECFF; stroke: #038cbc;}
        </style>
    </defs>
    <polygon points="9 17 1 13 1 21"></polygon>
         <polygon points="17 17 9 13 9 21"></polygon>
         <rect x="31" y="3" width="72" height="32" rx="10"></rect>
         <rect x="29" y="1" width="72" height="32" class="terminal" rx="10"></rect>
         <text class="terminal" x="39" y="21">CREATE</text>
         <rect x="123" y="3" width="68" height="32" rx="10"></rect>
         <rect x="121" y="1" width="68" height="32" class="terminal" rx="10"></rect>
         <text class="terminal" x="131" y="21">GROUP</text>
         <rect x="231" y="35" width="34" height="32" rx="10"></rect>
         <rect x="229" y="33" width="34" height="32" class="terminal" rx="10"></rect>
         <text class="terminal" x="239" y="53">IF</text>
         <rect x="285" y="35" width="48" height="32" rx="10"></rect>
         <rect x="283" y="33" width="48" height="32" class="terminal" rx="10"></rect>
         <text class="terminal" x="293" y="53">NOT</text>
         <rect x="353" y="35" width="70" height="32" rx="10"></rect>
         <rect x="351" y="33" width="70" height="32" class="terminal" rx="10"></rect>
         <text class="terminal" x="361" y="53">EXISTS</text><a xmlns:xlink="http://www.w3.org/1999/xlink" xlink:href="#groupName" xlink:title="groupName">
            <rect x="463" y="3" width="94" height="32"></rect>
            <rect x="461" y="1" width="94" height="32" class="nonterminal"></rect>
            <text class="nonterminal" x="471" y="21">groupName</text></a><path class="line" d="m17 17 h2 m0 0 h10 m72 0 h10 m0 0 h10 m68 0 h10 m20 0 h10 m0 0 h202 m-232 0 h20 m212 0 h20 m-252 0 q10 0 10 10 m232 0 q0 -10 10 -10 m-242 10 v12 m232 0 v-12 m-232 12 q0 10 10 10 m212 0 q10 0 10 -10 m-222 10 h10 m34 0 h10 m0 0 h10 m48 0 h10 m0 0 h10 m70 0 h10 m20 -32 h10 m94 0 h10 m3 0 h-3"></path>
         <polygon points="575 17 583 13 583 21"></polygon>
         <polygon points="575 17 567 13 567 21"></polygon>
</svg>