<svg xmlns="http://www.w3.org/2000/svg" width="710" height="155">
    <defs>
        <style type="text/css">
            @namespace "http://www.w3.org/2000/svg";
            .line                 {fill: none; stroke: #636273;}
            .bold-line            {stroke: #636273; shape-rendering: crispEdges; stroke-width: 2; }
            .thin-line            {stroke: #636273; shape-rendering: crispEdges}
            .filled               {fill: #636273; stroke: none;}
            text.terminal         {font-family: -apple-system, BlinkMacSystemFont, "Segoe UI", Roboto, Ubuntu, Cantarell, Helvetica, sans-serif;
            font-size: 12px;
            fill: #ffffff;
            font-weight: bold;
            }
            text.nonterminal      {font-family: -apple-system, BlinkMacSystemFont, "Segoe UI", Roboto, Ubuntu, Cantarell, Helvetica, sans-serif;
            font-size: 12px;
            fill: #e289a4;
            font-weight: normal;
            }
            text.regexp           {font-family: -apple-system, BlinkMacSystemFont, "Segoe UI", Roboto, Ubuntu, Cantarell, Helvetica, sans-serif;
            font-size: 12px;
            fill: #00141F;
            font-weight: normal;
            }
            rect, circle, polygon {fill: none; stroke: none;}
            rect.terminal         {fill: none; stroke: #be2f5b;}
            rect.nonterminal      {fill: rgba(255,255,255,0.1); stroke: none;}
            rect.text             {fill: none; stroke: none;}
            polygon.regexp        {fill: #C7ECFF; stroke: #038cbc;}
        </style>
    </defs>
    <polygon points="9 17 1 13 1 21"/>
    <polygon points="17 17 9 13 9 21"/>
    <rect x="31" y="3" width="72" height="32" rx="10"/>
    <rect x="29" y="1" width="72" height="32" class="terminal" rx="10"/>
    <text class="terminal" x="39" y="21">CREATE</text>
    <rect x="123" y="3" width="78" height="32" rx="10"/>
    <rect x="121" y="1" width="78" height="32" class="terminal" rx="10"/>
    <text class="terminal" x="131" y="21">SERVICE</text>
    <rect x="221" y="3" width="86" height="32" rx="10"/>
    <rect x="219" y="1" width="86" height="32" class="terminal" rx="10"/>
    <text class="terminal" x="229" y="21">ACCOUNT</text>
    <rect x="347" y="35" width="34" height="32" rx="10"/>
    <rect x="345" y="33" width="34" height="32" class="terminal" rx="10"/>
    <text class="terminal" x="355" y="53">IF</text>
    <rect x="401" y="35" width="48" height="32" rx="10"/>
    <rect x="399" y="33" width="48" height="32" class="terminal" rx="10"/>
    <text class="terminal" x="409" y="53">NOT</text>
    <rect x="469" y="35" width="70" height="32" rx="10"/>
    <rect x="467" y="33" width="70" height="32" class="terminal" rx="10"/>
    <text class="terminal" x="477" y="53">EXISTS</text><a xmlns:xlink="http://www.w3.org/1999/xlink" xlink:href="#accountName" xlink:title="accountName">
    <rect x="579" y="3" width="106" height="32"/>
    <rect x="577" y="1" width="106" height="32" class="nonterminal"/>
    <text class="nonterminal" x="587" y="21">accountName</text></a><rect x="413" y="121" width="72" height="32" rx="10"/>
    <rect x="411" y="119" width="72" height="32" class="terminal" rx="10"/>
    <text class="terminal" x="421" y="139">OWNED</text>
    <rect x="505" y="121" width="38" height="32" rx="10"/>
    <rect x="503" y="119" width="38" height="32" class="terminal" rx="10"/>
    <text class="terminal" x="513" y="139">BY</text><a xmlns:xlink="http://www.w3.org/1999/xlink" xlink:href="#ownerName" xlink:title="ownerName">
    <rect x="563" y="121" width="96" height="32"/>
    <rect x="561" y="119" width="96" height="32" class="nonterminal"/>
    <text class="nonterminal" x="571" y="139">ownerName</text></a><path class="line" d="m17 17 h2 m0 0 h10 m72 0 h10 m0 0 h10 m78 0 h10 m0 0 h10 m86 0 h10 m20 0 h10 m0 0 h202 m-232 0 h20 m212 0 h20 m-252 0 q10 0 10 10 m232 0 q0 -10 10 -10 m-242 10 v12 m232 0 v-12 m-232 12 q0 10 10 10 m212 0 q10 0 10 -10 m-222 10 h10 m34 0 h10 m0 0 h10 m48 0 h10 m0 0 h10 m70 0 h10 m20 -32 h10 m106 0 h10 m2 0 l2 0 m2 0 l2 0 m2 0 l2 0 m-336 86 l2 0 m2 0 l2 0 m2 0 l2 0 m22 0 h10 m0 0 h256 m-286 0 h20 m266 0 h20 m-306 0 q10 0 10 10 m286 0 q0 -10 10 -10 m-296 10 v12 m286 0 v-12 m-286 12 q0 10 10 10 m266 0 q10 0 10 -10 m-276 10 h10 m72 0 h10 m0 0 h10 m38 0 h10 m0 0 h10 m96 0 h10 m23 -32 h-3"/>
    <polygon points="697 103 705 99 705 107"/>
    <polygon points="697 103 689 99 689 107"/>
</svg>
