<svg xmlns="http://www.w3.org/2000/svg" width="1307" height="745">
    <defs>
        <style type="text/css">
            @namespace "http://www.w3.org/2000/svg";
            .line                 {fill: none; stroke: #636273;}
            .bold-line            {stroke: #636273; shape-rendering: crispEdges; stroke-width: 2; }
            .thin-line           {stroke: #636273; shape-rendering: crispEdges}
            .filled              {fill: #636273; stroke: none;}
            text.terminal        {font-family: -apple-system, BlinkMacSystemFont, "Segoe UI", Roboto, Ubuntu, Cantarell, Helvetica, sans-serif;
            font-size: 12px;
            fill: #ffffff;
            font-weight: bold;
            }
            text.nonterminal     {font-family: -apple-system, BlinkMacSystemFont, "Segoe UI", Roboto, Ubuntu, Cantarell, Helvetica, sans-serif;
            font-size: 12px;
            fill: #e289a4;
            font-weight: normal;
            }
            text.regexp          {font-family: -apple-system, BlinkMacSystemFont, "Segoe UI", Roboto, Ubuntu, Cantarell, Helvetica, sans-serif;
            font-size: 12px;
            fill: #00141F;
            font-weight: normal;
            }
            rect, circle, polygon {fill: none; stroke: none;}
            rect.terminal        {fill: none; stroke: #be2f5b;}
            rect.nonterminal     {fill: rgba(255,255,255,0.1); stroke: none;}
            rect.text            {fill: none; stroke: none;}
            polygon.regexp       {fill: #C7ECFF; stroke: #038cbc;}
        </style>
    </defs>
    <polygon points="9 17 1 13 1 21"></polygon>
         <polygon points="17 17 9 13 9 21"></polygon>
         <rect x="31" y="3" width="72" height="32" rx="10"></rect>
         <rect x="29" y="1" width="72" height="32" class="terminal" rx="10"></rect>
         <text class="terminal" x="39" y="21">CREATE</text>
         <rect x="143" y="35" width="74" height="32" rx="10"></rect>
         <rect x="141" y="33" width="74" height="32" class="terminal" rx="10"></rect>
         <text class="terminal" x="151" y="53">ATOMIC</text>
         <rect x="143" y="79" width="66" height="32" rx="10"></rect>
         <rect x="141" y="77" width="66" height="32" class="terminal" rx="10"></rect>
         <text class="terminal" x="151" y="97">BATCH</text><a xmlns:xlink="http://www.w3.org/1999/xlink" xlink:href="#number" xlink:title="number">
            <rect x="229" y="79" width="68" height="32"></rect>
            <rect x="227" y="77" width="68" height="32" class="nonterminal"></rect>
            <text class="nonterminal" x="237" y="97">number</text></a><rect x="337" y="111" width="88" height="32" rx="10"></rect>
         <rect x="335" y="109" width="88" height="32" class="terminal" rx="10"></rect>
         <text class="terminal" x="345" y="129">o3MaxLag</text><a xmlns:xlink="http://www.w3.org/1999/xlink" xlink:href="#numberWithUnit" xlink:title="numberWithUnit">
            <rect x="445" y="111" width="122" height="32"></rect>
            <rect x="443" y="109" width="122" height="32" class="nonterminal"></rect>
            <text class="nonterminal" x="453" y="129">numberWithUnit</text></a><rect x="627" y="3" width="62" height="32" rx="10"></rect>
         <rect x="625" y="1" width="62" height="32" class="terminal" rx="10"></rect>
         <text class="terminal" x="635" y="21">TABLE</text>
         <rect x="729" y="35" width="34" height="32" rx="10"></rect>
         <rect x="727" y="33" width="34" height="32" class="terminal" rx="10"></rect>
         <text class="terminal" x="737" y="53">IF</text>
         <rect x="783" y="35" width="48" height="32" rx="10"></rect>
         <rect x="781" y="33" width="48" height="32" class="terminal" rx="10"></rect>
         <text class="terminal" x="791" y="53">NOT</text>
         <rect x="851" y="35" width="70" height="32" rx="10"></rect>
         <rect x="849" y="33" width="70" height="32" class="terminal" rx="10"></rect>
         <text class="terminal" x="859" y="53">EXISTS</text><a xmlns:xlink="http://www.w3.org/1999/xlink" xlink:href="#tableName" xlink:title="tableName">
            <rect x="252" y="221" width="88" height="32"></rect>
            <rect x="250" y="219" width="88" height="32" class="nonterminal"></rect>
            <text class="nonterminal" x="260" y="239">tableName</text></a><rect x="380" y="221" width="26" height="32" rx="10"></rect>
         <rect x="378" y="219" width="26" height="32" class="terminal" rx="10"></rect>
         <text class="terminal" x="388" y="239">(</text><a xmlns:xlink="http://www.w3.org/1999/xlink" xlink:href="#columnName" xlink:title="columnName">
            <rect x="446" y="221" width="102" height="32"></rect>
            <rect x="444" y="219" width="102" height="32" class="nonterminal"></rect>
            <text class="nonterminal" x="454" y="239">columnName</text></a><a xmlns:xlink="http://www.w3.org/1999/xlink" xlink:href="#typeDef" xlink:title="typeDef">
            <rect x="568" y="221" width="70" height="32"></rect>
            <rect x="566" y="219" width="70" height="32" class="nonterminal"></rect>
            <text class="nonterminal" x="576" y="239">typeDef</text></a><rect x="446" y="177" width="24" height="32" rx="10"></rect>
         <rect x="444" y="175" width="24" height="32" class="terminal" rx="10"></rect>
         <text class="terminal" x="454" y="195">,</text>
         <rect x="678" y="221" width="26" height="32" rx="10"></rect>
         <rect x="676" y="219" width="26" height="32" class="terminal" rx="10"></rect>
         <text class="terminal" x="686" y="239">)</text>
         <rect x="380" y="287" width="38" height="32" rx="10"></rect>
         <rect x="378" y="285" width="38" height="32" class="terminal" rx="10"></rect>
         <text class="terminal" x="388" y="305">AS</text>
         <rect x="438" y="287" width="26" height="32" rx="10"></rect>
         <rect x="436" y="285" width="26" height="32" class="terminal" rx="10"></rect>
         <text class="terminal" x="446" y="305">(</text><a xmlns:xlink="http://www.w3.org/1999/xlink" xlink:href="#selectSql" xlink:title="selectSql">
            <rect x="484" y="287" width="76" height="32"></rect>
            <rect x="482" y="285" width="76" height="32" class="nonterminal"></rect>
            <text class="nonterminal" x="492" y="305">selectSql</text></a><rect x="580" y="287" width="26" height="32" rx="10"></rect>
         <rect x="578" y="285" width="26" height="32" class="terminal" rx="10"></rect>
         <text class="terminal" x="588" y="305">)</text>
         <rect x="666" y="287" width="24" height="32" rx="10"></rect>
         <rect x="664" y="285" width="24" height="32" class="terminal" rx="10"></rect>
         <text class="terminal" x="674" y="305">,</text><a xmlns:xlink="http://www.w3.org/1999/xlink" xlink:href="#castDef" xlink:title="castDef">
            <rect x="710" y="287" width="68" height="32"></rect>
            <rect x="708" y="285" width="68" height="32" class="nonterminal"></rect>
            <text class="nonterminal" x="718" y="305">castDef</text></a><rect x="878" y="287" width="24" height="32" rx="10"></rect>
         <rect x="876" y="285" width="24" height="32" class="terminal" rx="10"></rect>
         <text class="terminal" x="886" y="305">,</text><a xmlns:xlink="http://www.w3.org/1999/xlink" xlink:href="#indexDef" xlink:title="indexDef">
            <rect x="922" y="287" width="76" height="32"></rect>
            <rect x="920" y="285" width="76" height="32" class="nonterminal"></rect>
            <text class="nonterminal" x="930" y="305">indexDef</text></a><rect x="45" y="385" width="100" height="32" rx="10"></rect>
         <rect x="43" y="383" width="100" height="32" class="terminal" rx="10"></rect>
         <text class="terminal" x="53" y="403">TIMESTAMP</text>
         <rect x="165" y="385" width="26" height="32" rx="10"></rect>
         <rect x="163" y="383" width="26" height="32" class="terminal" rx="10"></rect>
         <text class="terminal" x="173" y="403">(</text><a xmlns:xlink="http://www.w3.org/1999/xlink" xlink:href="#columnRef" xlink:title="columnRef">
            <rect x="211" y="385" width="86" height="32"></rect>
            <rect x="209" y="383" width="86" height="32" class="nonterminal"></rect>
            <text class="nonterminal" x="219" y="403">columnRef</text></a><rect x="317" y="385" width="26" height="32" rx="10"></rect>
         <rect x="315" y="383" width="26" height="32" class="terminal" rx="10"></rect>
         <text class="terminal" x="325" y="403">)</text>
         <rect x="383" y="417" width="98" height="32" rx="10"></rect>
         <rect x="381" y="415" width="98" height="32" class="terminal" rx="10"></rect>
         <text class="terminal" x="391" y="435">PARTITION</text>
         <rect x="501" y="417" width="38" height="32" rx="10"></rect>
         <rect x="499" y="415" width="38" height="32" class="terminal" rx="10"></rect>
         <text class="terminal" x="509" y="435">BY</text>
         <rect x="579" y="417" width="58" height="32" rx="10"></rect>
         <rect x="577" y="415" width="58" height="32" class="terminal" rx="10"></rect>
         <text class="terminal" x="587" y="435">NONE</text>
         <rect x="677" y="449" width="74" height="32" rx="10"></rect>
         <rect x="675" y="447" width="74" height="32" class="terminal" rx="10"></rect>
         <text class="terminal" x="685" y="467">BYPASS</text>
         <rect x="771" y="449" width="50" height="32" rx="10"></rect>
         <rect x="769" y="447" width="50" height="32" class="terminal" rx="10"></rect>
         <text class="terminal" x="779" y="467">WAL</text>
         <rect x="599" y="493" width="56" height="32" rx="10"></rect>
         <rect x="597" y="491" width="56" height="32" class="terminal" rx="10"></rect>
         <text class="terminal" x="607" y="511">YEAR</text>
         <rect x="599" y="537" width="70" height="32" rx="10"></rect>
         <rect x="597" y="535" width="70" height="32" class="terminal" rx="10"></rect>
         <text class="terminal" x="607" y="555">MONTH</text>
         <rect x="599" y="581" width="48" height="32" rx="10"></rect>
         <rect x="597" y="579" width="48" height="32" class="terminal" rx="10"></rect>
         <text class="terminal" x="607" y="599">DAY</text>
         <rect x="599" y="625" width="60" height="32" rx="10"></rect>
         <rect x="597" y="623" width="60" height="32" class="terminal" rx="10"></rect>
         <text class="terminal" x="607" y="643">HOUR</text>
         <rect x="749" y="557" width="74" height="32" rx="10"></rect>
         <rect x="747" y="555" width="74" height="32" class="terminal" rx="10"></rect>
         <text class="terminal" x="757" y="575">BYPASS</text>
         <rect x="863" y="525" width="50" height="32" rx="10"></rect>
         <rect x="861" y="523" width="50" height="32" class="terminal" rx="10"></rect>
         <text class="terminal" x="871" y="543">WAL</text>
         <rect x="993" y="449" width="44" height="32" rx="10"></rect>
         <rect x="991" y="447" width="44" height="32" class="terminal" rx="10"></rect>
         <text class="terminal" x="1001" y="467">TTL</text><a xmlns:xlink="http://www.w3.org/1999/xlink" xlink:href="#n" xlink:title="n">
            <rect x="1057" y="449" width="28" height="32"></rect>
            <rect x="1055" y="447" width="28" height="32" class="nonterminal"></rect>
            <text class="nonterminal" x="1065" y="467">n</text></a><rect x="1125" y="449" width="68" height="32" rx="10"></rect>
         <rect x="1123" y="447" width="68" height="32" class="terminal" rx="10"></rect>
         <text class="terminal" x="1133" y="467">HOURS</text>
         <rect x="1125" y="493" width="56" height="32" rx="10"></rect>
         <rect x="1123" y="491" width="56" height="32" class="terminal" rx="10"></rect>
         <text class="terminal" x="1133" y="511">DAYS</text>
         <rect x="1125" y="537" width="68" height="32" rx="10"></rect>
         <rect x="1123" y="535" width="68" height="32" class="terminal" rx="10"></rect>
         <text class="terminal" x="1133" y="555">WEEKS</text>
         <rect x="1125" y="581" width="80" height="32" rx="10"></rect>
         <rect x="1123" y="579" width="80" height="32" class="terminal" rx="10"></rect>
         <text class="terminal" x="1133" y="599">MONTHS</text>
         <rect x="1125" y="625" width="64" height="32" rx="10"></rect>
         <rect x="1123" y="623" width="64" height="32" class="terminal" rx="10"></rect>
         <text class="terminal" x="1133" y="643">YEARS</text>
         <rect x="535" y="711" width="58" height="32" rx="10"></rect>
         <rect x="533" y="709" width="58" height="32" class="terminal" rx="10"></rect>
         <text class="terminal" x="543" y="729">WITH</text><a xmlns:xlink="http://www.w3.org/1999/xlink" xlink:href="#tableParameter" xlink:title="tableParameter">
            <rect x="613" y="711" width="118" height="32"></rect>
            <rect x="611" y="709" width="118" height="32" class="nonterminal"></rect>
            <text class="nonterminal" x="621" y="729">tableParameter</text></a><a xmlns:xlink="http://www.w3.org/1999/xlink" xlink:href="#tableTargetVolumeDef" xlink:title="tableTargetVolumeDef">
            <rect x="791" y="711" width="162" height="32"></rect>
            <rect x="789" y="709" width="162" height="32" class="nonterminal"></rect>
            <text class="nonterminal" x="799" y="729">tableTargetVolumeDef</text></a><rect x="1013" y="711" width="72" height="32" rx="10"></rect>
         <rect x="1011" y="709" width="72" height="32" class="terminal" rx="10"></rect>
         <text class="terminal" x="1021" y="729">OWNED</text>
         <rect x="1105" y="711" width="38" height="32" rx="10"></rect>
         <rect x="1103" y="709" width="38" height="32" class="terminal" rx="10"></rect>
         <text class="terminal" x="1113" y="729">BY</text><a xmlns:xlink="http://www.w3.org/1999/xlink" xlink:href="#ownerName" xlink:title="ownerName">
            <rect x="1163" y="711" width="96" height="32"></rect>
            <rect x="1161" y="709" width="96" height="32" class="nonterminal"></rect>
            <text class="nonterminal" x="1171" y="729">ownerName</text></a><path class="line" d="m17 17 h2 m0 0 h10 m72 0 h10 m20 0 h10 m0 0 h454 m-484 0 h20 m464 0 h20 m-504 0 q10 0 10 10 m484 0 q0 -10 10 -10 m-494 10 v12 m484 0 v-12 m-484 12 q0 10 10 10 m464 0 q10 0 10 -10 m-474 10 h10 m74 0 h10 m0 0 h370 m-474 -10 v20 m484 0 v-20 m-484 20 v24 m484 0 v-24 m-484 24 q0 10 10 10 m464 0 q10 0 10 -10 m-474 10 h10 m66 0 h10 m0 0 h10 m68 0 h10 m20 0 h10 m0 0 h240 m-270 0 h20 m250 0 h20 m-290 0 q10 0 10 10 m270 0 q0 -10 10 -10 m-280 10 v12 m270 0 v-12 m-270 12 q0 10 10 10 m250 0 q10 0 10 -10 m-260 10 h10 m88 0 h10 m0 0 h10 m122 0 h10 m40 -108 h10 m62 0 h10 m20 0 h10 m0 0 h202 m-232 0 h20 m212 0 h20 m-252 0 q10 0 10 10 m232 0 q0 -10 10 -10 m-242 10 v12 m232 0 v-12 m-232 12 q0 10 10 10 m212 0 q10 0 10 -10 m-222 10 h10 m34 0 h10 m0 0 h10 m48 0 h10 m0 0 h10 m70 0 h10 m22 -32 l2 0 m2 0 l2 0 m2 0 l2 0 m-733 218 l2 0 m2 0 l2 0 m2 0 l2 0 m2 0 h10 m88 0 h10 m20 0 h10 m26 0 h10 m20 0 h10 m102 0 h10 m0 0 h10 m70 0 h10 m-232 0 l20 0 m-1 0 q-9 0 -9 -10 l0 -24 q0 -10 10 -10 m212 44 l20 0 m-20 0 q10 0 10 -10 l0 -24 q0 -10 -10 -10 m-212 0 h10 m24 0 h10 m0 0 h168 m20 44 h10 m26 0 h10 m0 0 h334 m-698 0 h20 m678 0 h20 m-718 0 q10 0 10 10 m698 0 q0 -10 10 -10 m-708 10 v46 m698 0 v-46 m-698 46 q0 10 10 10 m678 0 q10 0 10 -10 m-688 10 h10 m38 0 h10 m0 0 h10 m26 0 h10 m0 0 h10 m76 0 h10 m0 0 h10 m26 0 h10 m40 0 h10 m24 0 h10 m0 0 h10 m68 0 h10 m-152 0 l20 0 m-1 0 q-9 0 -9 -10 l0 -12 q0 -10 10 -10 m132 32 l20 0 m-20 0 q10 0 10 -10 l0 -12 q0 -10 -10 -10 m-132 0 h10 m0 0 h122 m-172 32 h20 m172 0 h20 m-212 0 q10 0 10 10 m192 0 q0 -10 10 -10 m-202 10 v14 m192 0 v-14 m-192 14 q0 10 10 10 m172 0 q10 0 10 -10 m-182 10 h10 m0 0 h162 m60 -34 h10 m24 0 h10 m0 0 h10 m76 0 h10 m-160 0 l20 0 m-1 0 q-9 0 -9 -10 l0 -12 q0 -10 10 -10 m140 32 l20 0 m-20 0 q10 0 10 -10 l0 -12 q0 -10 -10 -10 m-140 0 h10 m0 0 h130 m-180 32 h20 m180 0 h20 m-220 0 q10 0 10 10 m200 0 q0 -10 10 -10 m-210 10 v14 m200 0 v-14 m-200 14 q0 10 10 10 m180 0 q10 0 10 -10 m-190 10 h10 m0 0 h170 m42 -100 l2 0 m2 0 l2 0 m2 0 l2 0 m-1077 132 l2 0 m2 0 l2 0 m2 0 l2 0 m22 0 h10 m0 0 h1230 m-1260 0 h20 m1240 0 h20 m-1280 0 q10 0 10 10 m1260 0 q0 -10 10 -10 m-1270 10 v12 m1260 0 v-12 m-1260 12 q0 10 10 10 m1240 0 q10 0 10 -10 m-1250 10 h10 m100 0 h10 m0 0 h10 m26 0 h10 m0 0 h10 m86 0 h10 m0 0 h10 m26 0 h10 m20 0 h10 m0 0 h872 m-902 0 h20 m882 0 h20 m-922 0 q10 0 10 10 m902 0 q0 -10 10 -10 m-912 10 v12 m902 0 v-12 m-902 12 q0 10 10 10 m882 0 q10 0 10 -10 m-892 10 h10 m98 0 h10 m0 0 h10 m38 0 h10 m20 0 h10 m58 0 h10 m20 0 h10 m0 0 h154 m-184 0 h20 m164 0 h20 m-204 0 q10 0 10 10 m184 0 q0 -10 10 -10 m-194 10 v12 m184 0 v-12 m-184 12 q0 10 10 10 m164 0 q10 0 10 -10 m-174 10 h10 m74 0 h10 m0 0 h10 m50 0 h10 m20 -32 h92 m-394 0 h20 m374 0 h20 m-414 0 q10 0 10 10 m394 0 q0 -10 10 -10 m-404 10 v56 m394 0 v-56 m-394 56 q0 10 10 10 m374 0 q10 0 10 -10 m-364 10 h10 m56 0 h10 m0 0 h14 m-110 0 h20 m90 0 h20 m-130 0 q10 0 10 10 m110 0 q0 -10 10 -10 m-120 10 v24 m110 0 v-24 m-110 24 q0 10 10 10 m90 0 q10 0 10 -10 m-100 10 h10 m70 0 h10 m-100 -10 v20 m110 0 v-20 m-110 20 v24 m110 0 v-24 m-110 24 q0 10 10 10 m90 0 q10 0 10 -10 m-100 10 h10 m48 0 h10 m0 0 h22 m-100 -10 v20 m110 0 v-20 m-110 20 v24 m110 0 v-24 m-110 24 q0 10 10 10 m90 0 q10 0 10 -10 m-100 10 h10 m60 0 h10 m0 0 h10 m40 -132 h10 m0 0 h194 m-224 0 h20 m204 0 h20 m-244 0 q10 0 10 10 m224 0 q0 -10 10 -10 m-234 10 v12 m224 0 v-12 m-224 12 q0 10 10 10 m204 0 q10 0 10 -10 m-194 10 h10 m0 0 h84 m-114 0 h20 m94 0 h20 m-134 0 q10 0 10 10 m114 0 q0 -10 10 -10 m-124 10 v12 m114 0 v-12 m-114 12 q0 10 10 10 m94 0 q10 0 10 -10 m-104 10 h10 m74 0 h10 m20 -32 h10 m50 0 h10 m60 -108 h10 m0 0 h242 m-272 0 h20 m252 0 h20 m-292 0 q10 0 10 10 m272 0 q0 -10 10 -10 m-282 10 v12 m272 0 v-12 m-272 12 q0 10 10 10 m252 0 q10 0 10 -10 m-262 10 h10 m44 0 h10 m0 0 h10 m28 0 h10 m20 0 h10 m68 0 h10 m0 0 h12 m-120 0 h20 m100 0 h20 m-140 0 q10 0 10 10 m120 0 q0 -10 10 -10 m-130 10 v24 m120 0 v-24 m-120 24 q0 10 10 10 m100 0 q10 0 10 -10 m-110 10 h10 m56 0 h10 m0 0 h24 m-110 -10 v20 m120 0 v-20 m-120 20 v24 m120 0 v-24 m-120 24 q0 10 10 10 m100 0 q10 0 10 -10 m-110 10 h10 m68 0 h10 m0 0 h12 m-110 -10 v20 m120 0 v-20 m-120 20 v24 m120 0 v-24 m-120 24 q0 10 10 10 m100 0 q10 0 10 -10 m-110 10 h10 m80 0 h10 m-110 -10 v20 m120 0 v-20 m-120 20 v24 m120 0 v-24 m-120 24 q0 10 10 10 m100 0 q10 0 10 -10 m-110 10 h10 m64 0 h10 m0 0 h16 m82 -272 l2 0 m2 0 l2 0 m2 0 l2 0 m-814 326 l2 0 m2 0 l2 0 m2 0 l2 0 m22 0 h10 m0 0 h206 m-236 0 h20 m216 0 h20 m-256 0 q10 0 10 10 m236 0 q0 -10 10 -10 m-246 10 v12 m236 0 v-12 m-236 12 q0 10 10 10 m216 0 q10 0 10 -10 m-226 10 h10 m58 0 h10 m0 0 h10 m118 0 h10 m40 -32 h10 m0 0 h172 m-202 0 h20 m182 0 h20 m-222 0 q10 0 10 10 m202 0 q0 -10 10 -10 m-212 10 v12 m202 0 v-12 m-202 12 q0 10 10 10 m182 0 q10 0 10 -10 m-192 10 h10 m162 0 h10 m40 -32 h10 m0 0 h256 m-286 0 h20 m266 0 h20 m-306 0 q10 0 10 10 m286 0 q0 -10 10 -10 m-296 10 v12 m286 0 v-12 m-286 12 q0 10 10 10 m266 0 q10 0 10 -10 m-276 10 h10 m72 0 h10 m0 0 h10 m38 0 h10 m0 0 h10 m96 0 h10 m23 -32 h-3"></path>
         <polygon points="1297 693 1305 689 1305 697"></polygon>
         <polygon points="1297 693 1289 689 1289 697"></polygon>
</svg>