<svg xmlns="http://www.w3.org/2000/svg" width="1023" height="575">
    <defs>
        <style type="text/css">
            @namespace "http://www.w3.org/2000/svg";
            .line                 {fill: none; stroke: #636273;}
            .bold-line            {stroke: #636273; shape-rendering: crispEdges; stroke-width: 2; }
            .thin-line           {stroke: #636273; shape-rendering: crispEdges}
            .filled              {fill: #636273; stroke: none;}
            text.terminal        {font-family: -apple-system, BlinkMacSystemFont, "Segoe UI", Roboto, Ubuntu, Cantarell, Helvetica, sans-serif;
            font-size: 12px;
            fill: #ffffff;
            font-weight: bold;
            }
            text.nonterminal     {font-family: -apple-system, BlinkMacSystemFont, "Segoe UI", Roboto, Ubuntu, Cantarell, Helvetica, sans-serif;
            font-size: 12px;
            fill: #e289a4;
            font-weight: normal;
            }
            text.regexp          {font-family: -apple-system, BlinkMacSystemFont, "Segoe UI", Roboto, Ubuntu, Cantarell, Helvetica, sans-serif;
            font-size: 12px;
            fill: #00141F;
            font-weight: normal;
            }
            rect, circle, polygon {fill: none; stroke: none;}
            rect.terminal        {fill: none; stroke: #be2f5b;}
            rect.nonterminal     {fill: rgba(255,255,255,0.1); stroke: none;}
            rect.text            {fill: none; stroke: none;}
            polygon.regexp       {fill: #C7ECFF; stroke: #038cbc;}
        </style>
    </defs>
    <polygon points="9 17 1 13 1 21"></polygon>
         <polygon points="17 17 9 13 9 21"></polygon>
         <rect x="31" y="3" width="72" height="32" rx="10"></rect>
         <rect x="29" y="1" width="72" height="32" class="terminal" rx="10"></rect>
         <text class="terminal" x="39" y="21">CREATE</text>
         <rect x="123" y="3" width="122" height="32" rx="10"></rect>
         <rect x="121" y="1" width="122" height="32" class="terminal" rx="10"></rect>
         <text class="terminal" x="131" y="21">MATERIALIZED</text>
         <rect x="265" y="3" width="58" height="32" rx="10"></rect>
         <rect x="263" y="1" width="58" height="32" class="terminal" rx="10"></rect>
         <text class="terminal" x="273" y="21">VIEW</text>
         <rect x="363" y="35" width="34" height="32" rx="10"></rect>
         <rect x="361" y="33" width="34" height="32" class="terminal" rx="10"></rect>
         <text class="terminal" x="371" y="53">IF</text>
         <rect x="417" y="35" width="48" height="32" rx="10"></rect>
         <rect x="415" y="33" width="48" height="32" class="terminal" rx="10"></rect>
         <text class="terminal" x="425" y="53">NOT</text>
         <rect x="485" y="35" width="70" height="32" rx="10"></rect>
         <rect x="483" y="33" width="70" height="32" class="terminal" rx="10"></rect>
         <text class="terminal" x="493" y="53">EXISTS</text><a xmlns:xlink="http://www.w3.org/1999/xlink" xlink:href="#viewName" xlink:title="viewName">
            <rect x="595" y="3" width="84" height="32"></rect>
            <rect x="593" y="1" width="84" height="32" class="nonterminal"></rect>
            <text class="nonterminal" x="603" y="21">viewName</text></a><rect x="186" y="133" width="98" height="32" rx="10"></rect>
         <rect x="184" y="131" width="98" height="32" class="terminal" rx="10"></rect>
         <text class="terminal" x="194" y="151">WITH BASE</text><a xmlns:xlink="http://www.w3.org/1999/xlink" xlink:href="#baseTableName" xlink:title="baseTableName">
            <rect x="304" y="133" width="122" height="32"></rect>
            <rect x="302" y="131" width="122" height="32" class="nonterminal"></rect>
            <text class="nonterminal" x="312" y="151">baseTableName</text></a><rect x="486" y="133" width="82" height="32" rx="10"></rect>
         <rect x="484" y="131" width="82" height="32" class="terminal" rx="10"></rect>
         <text class="terminal" x="494" y="151">REFRESH</text>
         <rect x="588" y="133" width="118" height="32" rx="10"></rect>
         <rect x="586" y="131" width="118" height="32" class="terminal" rx="10"></rect>
         <text class="terminal" x="596" y="151">INCREMENTAL</text>
         <rect x="746" y="101" width="38" height="32" rx="10"></rect>
         <rect x="744" y="99" width="38" height="32" class="terminal" rx="10"></rect>
         <text class="terminal" x="754" y="119">AS</text><a xmlns:xlink="http://www.w3.org/1999/xlink" xlink:href="#query" xlink:title="query">
            <rect x="804" y="101" width="56" height="32"></rect>
            <rect x="802" y="99" width="56" height="32" class="nonterminal"></rect>
            <text class="nonterminal" x="812" y="119">query</text></a><rect x="45" y="215" width="100" height="32" rx="10"></rect>
         <rect x="43" y="213" width="100" height="32" class="terminal" rx="10"></rect>
         <text class="terminal" x="53" y="233">TIMESTAMP</text>
         <rect x="165" y="215" width="26" height="32" rx="10"></rect>
         <rect x="163" y="213" width="26" height="32" class="terminal" rx="10"></rect>
         <text class="terminal" x="173" y="233">(</text><a xmlns:xlink="http://www.w3.org/1999/xlink" xlink:href="#columnRef" xlink:title="columnRef">
            <rect x="211" y="215" width="86" height="32"></rect>
            <rect x="209" y="213" width="86" height="32" class="nonterminal"></rect>
            <text class="nonterminal" x="219" y="233">columnRef</text></a><rect x="317" y="215" width="26" height="32" rx="10"></rect>
         <rect x="315" y="213" width="26" height="32" class="terminal" rx="10"></rect>
         <text class="terminal" x="325" y="233">)</text>
         <rect x="383" y="247" width="98" height="32" rx="10"></rect>
         <rect x="381" y="245" width="98" height="32" class="terminal" rx="10"></rect>
         <text class="terminal" x="391" y="265">PARTITION</text>
         <rect x="501" y="247" width="38" height="32" rx="10"></rect>
         <rect x="499" y="245" width="38" height="32" class="terminal" rx="10"></rect>
         <text class="terminal" x="509" y="265">BY</text>
         <rect x="579" y="247" width="56" height="32" rx="10"></rect>
         <rect x="577" y="245" width="56" height="32" class="terminal" rx="10"></rect>
         <text class="terminal" x="587" y="265">YEAR</text>
         <rect x="579" y="291" width="70" height="32" rx="10"></rect>
         <rect x="577" y="289" width="70" height="32" class="terminal" rx="10"></rect>
         <text class="terminal" x="587" y="309">MONTH</text>
         <rect x="579" y="335" width="48" height="32" rx="10"></rect>
         <rect x="577" y="333" width="48" height="32" class="terminal" rx="10"></rect>
         <text class="terminal" x="587" y="353">DAY</text>
         <rect x="579" y="379" width="60" height="32" rx="10"></rect>
         <rect x="577" y="377" width="60" height="32" class="terminal" rx="10"></rect>
         <text class="terminal" x="587" y="397">HOUR</text>
         <rect x="709" y="279" width="44" height="32" rx="10"></rect>
         <rect x="707" y="277" width="44" height="32" class="terminal" rx="10"></rect>
         <text class="terminal" x="717" y="297">TTL</text><a xmlns:xlink="http://www.w3.org/1999/xlink" xlink:href="#n" xlink:title="n">
            <rect x="773" y="279" width="28" height="32"></rect>
            <rect x="771" y="277" width="28" height="32" class="nonterminal"></rect>
            <text class="nonterminal" x="781" y="297">n</text></a><rect x="841" y="279" width="68" height="32" rx="10"></rect>
         <rect x="839" y="277" width="68" height="32" class="terminal" rx="10"></rect>
         <text class="terminal" x="849" y="297">HOURS</text>
         <rect x="841" y="323" width="56" height="32" rx="10"></rect>
         <rect x="839" y="321" width="56" height="32" class="terminal" rx="10"></rect>
         <text class="terminal" x="849" y="341">DAYS</text>
         <rect x="841" y="367" width="68" height="32" rx="10"></rect>
         <rect x="839" y="365" width="68" height="32" class="terminal" rx="10"></rect>
         <text class="terminal" x="849" y="385">WEEKS</text>
         <rect x="841" y="411" width="80" height="32" rx="10"></rect>
         <rect x="839" y="409" width="80" height="32" class="terminal" rx="10"></rect>
         <text class="terminal" x="849" y="429">MONTHS</text>
         <rect x="841" y="455" width="64" height="32" rx="10"></rect>
         <rect x="839" y="453" width="64" height="32" class="terminal" rx="10"></rect>
         <text class="terminal" x="849" y="473">YEARS</text><a xmlns:xlink="http://www.w3.org/1999/xlink" xlink:href="#viewTargetVolumeDef" xlink:title="viewTargetVolumeDef">
            <rect x="511" y="541" width="158" height="32"></rect>
            <rect x="509" y="539" width="158" height="32" class="nonterminal"></rect>
            <text class="nonterminal" x="519" y="559">viewTargetVolumeDef</text></a><rect x="729" y="541" width="72" height="32" rx="10"></rect>
         <rect x="727" y="539" width="72" height="32" class="terminal" rx="10"></rect>
         <text class="terminal" x="737" y="559">OWNED</text>
         <rect x="821" y="541" width="38" height="32" rx="10"></rect>
         <rect x="819" y="539" width="38" height="32" class="terminal" rx="10"></rect>
         <text class="terminal" x="829" y="559">BY</text><a xmlns:xlink="http://www.w3.org/1999/xlink" xlink:href="#ownerName" xlink:title="ownerName">
            <rect x="879" y="541" width="96" height="32"></rect>
            <rect x="877" y="539" width="96" height="32" class="nonterminal"></rect>
            <text class="nonterminal" x="887" y="559">ownerName</text></a><path class="line" d="m17 17 h2 m0 0 h10 m72 0 h10 m0 0 h10 m122 0 h10 m0 0 h10 m58 0 h10 m20 0 h10 m0 0 h202 m-232 0 h20 m212 0 h20 m-252 0 q10 0 10 10 m232 0 q0 -10 10 -10 m-242 10 v12 m232 0 v-12 m-232 12 q0 10 10 10 m212 0 q10 0 10 -10 m-222 10 h10 m34 0 h10 m0 0 h10 m48 0 h10 m0 0 h10 m70 0 h10 m20 -32 h10 m84 0 h10 m2 0 l2 0 m2 0 l2 0 m2 0 l2 0 m-557 98 l2 0 m2 0 l2 0 m2 0 l2 0 m22 0 h10 m0 0 h250 m-280 0 h20 m260 0 h20 m-300 0 q10 0 10 10 m280 0 q0 -10 10 -10 m-290 10 v12 m280 0 v-12 m-280 12 q0 10 10 10 m260 0 q10 0 10 -10 m-270 10 h10 m98 0 h10 m0 0 h10 m122 0 h10 m40 -32 h10 m0 0 h230 m-260 0 h20 m240 0 h20 m-280 0 q10 0 10 10 m260 0 q0 -10 10 -10 m-270 10 v12 m260 0 v-12 m-260 12 q0 10 10 10 m240 0 q10 0 10 -10 m-250 10 h10 m82 0 h10 m0 0 h10 m118 0 h10 m20 -32 h10 m38 0 h10 m0 0 h10 m56 0 h10 m2 0 l2 0 m2 0 l2 0 m2 0 l2 0 m-879 82 l2 0 m2 0 l2 0 m2 0 l2 0 m22 0 h10 m0 0 h946 m-976 0 h20 m956 0 h20 m-996 0 q10 0 10 10 m976 0 q0 -10 10 -10 m-986 10 v12 m976 0 v-12 m-976 12 q0 10 10 10 m956 0 q10 0 10 -10 m-966 10 h10 m100 0 h10 m0 0 h10 m26 0 h10 m0 0 h10 m86 0 h10 m0 0 h10 m26 0 h10 m20 0 h10 m0 0 h588 m-618 0 h20 m598 0 h20 m-638 0 q10 0 10 10 m618 0 q0 -10 10 -10 m-628 10 v12 m618 0 v-12 m-618 12 q0 10 10 10 m598 0 q10 0 10 -10 m-608 10 h10 m98 0 h10 m0 0 h10 m38 0 h10 m20 0 h10 m56 0 h10 m0 0 h14 m-110 0 h20 m90 0 h20 m-130 0 q10 0 10 10 m110 0 q0 -10 10 -10 m-120 10 v24 m110 0 v-24 m-110 24 q0 10 10 10 m90 0 q10 0 10 -10 m-100 10 h10 m70 0 h10 m-100 -10 v20 m110 0 v-20 m-110 20 v24 m110 0 v-24 m-110 24 q0 10 10 10 m90 0 q10 0 10 -10 m-100 10 h10 m48 0 h10 m0 0 h22 m-100 -10 v20 m110 0 v-20 m-110 20 v24 m110 0 v-24 m-110 24 q0 10 10 10 m90 0 q10 0 10 -10 m-100 10 h10 m60 0 h10 m0 0 h10 m40 -132 h10 m0 0 h242 m-272 0 h20 m252 0 h20 m-292 0 q10 0 10 10 m272 0 q0 -10 10 -10 m-282 10 v12 m272 0 v-12 m-272 12 q0 10 10 10 m252 0 q10 0 10 -10 m-262 10 h10 m44 0 h10 m0 0 h10 m28 0 h10 m20 0 h10 m68 0 h10 m0 0 h12 m-120 0 h20 m100 0 h20 m-140 0 q10 0 10 10 m120 0 q0 -10 10 -10 m-130 10 v24 m120 0 v-24 m-120 24 q0 10 10 10 m100 0 q10 0 10 -10 m-110 10 h10 m56 0 h10 m0 0 h24 m-110 -10 v20 m120 0 v-20 m-120 20 v24 m120 0 v-24 m-120 24 q0 10 10 10 m100 0 q10 0 10 -10 m-110 10 h10 m68 0 h10 m0 0 h12 m-110 -10 v20 m120 0 v-20 m-120 20 v24 m120 0 v-24 m-120 24 q0 10 10 10 m100 0 q10 0 10 -10 m-110 10 h10 m80 0 h10 m-110 -10 v20 m120 0 v-20 m-120 20 v24 m120 0 v-24 m-120 24 q0 10 10 10 m100 0 q10 0 10 -10 m-110 10 h10 m64 0 h10 m0 0 h16 m82 -272 l2 0 m2 0 l2 0 m2 0 l2 0 m-554 326 l2 0 m2 0 l2 0 m2 0 l2 0 m22 0 h10 m0 0 h168 m-198 0 h20 m178 0 h20 m-218 0 q10 0 10 10 m198 0 q0 -10 10 -10 m-208 10 v12 m198 0 v-12 m-198 12 q0 10 10 10 m178 0 q10 0 10 -10 m-188 10 h10 m158 0 h10 m40 -32 h10 m0 0 h256 m-286 0 h20 m266 0 h20 m-306 0 q10 0 10 10 m286 0 q0 -10 10 -10 m-296 10 v12 m286 0 v-12 m-286 12 q0 10 10 10 m266 0 q10 0 10 -10 m-276 10 h10 m72 0 h10 m0 0 h10 m38 0 h10 m0 0 h10 m96 0 h10 m23 -32 h-3"></path>
         <polygon points="1013 523 1021 519 1021 527"></polygon>
         <polygon points="1013 523 1005 519 1005 527"></polygon>
</svg>