<svg xmlns="http://www.w3.org/2000/svg" width="1941" height="859">
    <defs>
        <style type="text/css">
            @namespace "http://www.w3.org/2000/svg";
            .line                 {fill: none; stroke: #636273;}
            .bold-line            {stroke: #636273; shape-rendering: crispEdges; stroke-width: 2; }
            .thin-line           {stroke: #636273; shape-rendering: crispEdges}
            .filled              {fill: #636273; stroke: none;}
            text.terminal        {font-family: -apple-system, BlinkMacSystemFont, "Segoe UI", Roboto, Ubuntu, Cantarell, Helvetica, sans-serif;
            font-size: 12px;
            fill: #ffffff;
            font-weight: bold;
            }
            text.nonterminal     {font-family: -apple-system, BlinkMacSystemFont, "Segoe UI", Roboto, Ubuntu, Cantarell, Helvetica, sans-serif;
            font-size: 12px;
            fill: #e289a4;
            font-weight: normal;
            }
            text.regexp          {font-family: -apple-system, BlinkMacSystemFont, "Segoe UI", Roboto, Ubuntu, Cantarell, Helvetica, sans-serif;
            font-size: 12px;
            fill: #00141F;
            font-weight: normal;
            }
            rect, circle, polygon {fill: none; stroke: none;}
            rect.terminal        {fill: none; stroke: #be2f5b;}
            rect.nonterminal     {fill: rgba(255,255,255,0.1); stroke: none;}
            rect.text            {fill: none; stroke: none;}
            polygon.regexp       {fill: #C7ECFF; stroke: #038cbc;}
        </style>
    </defs>
    <polygon points="9 17 1 13 1 21"></polygon>
         <polygon points="17 17 9 13 9 21"></polygon>
         <rect x="31" y="3" width="72" height="32" rx="10"></rect>
         <rect x="29" y="1" width="72" height="32" class="terminal" rx="10"></rect>
         <text class="terminal" x="39" y="21">CREATE</text>
         <rect x="123" y="3" width="122" height="32" rx="10"></rect>
         <rect x="121" y="1" width="122" height="32" class="terminal" rx="10"></rect>
         <text class="terminal" x="131" y="21">MATERIALIZED</text>
         <rect x="265" y="3" width="58" height="32" rx="10"></rect>
         <rect x="263" y="1" width="58" height="32" class="terminal" rx="10"></rect>
         <text class="terminal" x="273" y="21">VIEW</text>
         <rect x="363" y="35" width="34" height="32" rx="10"></rect>
         <rect x="361" y="33" width="34" height="32" class="terminal" rx="10"></rect>
         <text class="terminal" x="371" y="53">IF</text>
         <rect x="417" y="35" width="48" height="32" rx="10"></rect>
         <rect x="415" y="33" width="48" height="32" class="terminal" rx="10"></rect>
         <text class="terminal" x="425" y="53">NOT</text>
         <rect x="485" y="35" width="70" height="32" rx="10"></rect>
         <rect x="483" y="33" width="70" height="32" class="terminal" rx="10"></rect>
         <text class="terminal" x="493" y="53">EXISTS</text><a xmlns:xlink="http://www.w3.org/1999/xlink" xlink:href="#viewName" xlink:title="viewName">
            <rect x="595" y="3" width="84" height="32"></rect>
            <rect x="593" y="1" width="84" height="32" class="nonterminal"></rect>
            <text class="nonterminal" x="603" y="21">viewName</text></a><rect x="852" y="117" width="98" height="32" rx="10"></rect>
         <rect x="850" y="115" width="98" height="32" class="terminal" rx="10"></rect>
         <text class="terminal" x="860" y="135">WITH BASE</text><a xmlns:xlink="http://www.w3.org/1999/xlink" xlink:href="#baseTableName" xlink:title="baseTableName">
            <rect x="970" y="117" width="122" height="32"></rect>
            <rect x="968" y="115" width="122" height="32" class="nonterminal"></rect>
            <text class="nonterminal" x="978" y="135">baseTableName</text></a><rect x="45" y="199" width="82" height="32" rx="10"></rect>
         <rect x="43" y="197" width="82" height="32" class="terminal" rx="10"></rect>
         <text class="terminal" x="53" y="217">REFRESH</text>
         <rect x="187" y="231" width="100" height="32" rx="10"></rect>
         <rect x="185" y="229" width="100" height="32" class="terminal" rx="10"></rect>
         <text class="terminal" x="195" y="249">IMMEDIATE</text>
         <rect x="187" y="275" width="78" height="32" rx="10"></rect>
         <rect x="185" y="273" width="78" height="32" class="terminal" rx="10"></rect>
         <text class="terminal" x="195" y="293">MANUAL</text>
         <rect x="347" y="263" width="90" height="32" rx="10"></rect>
         <rect x="345" y="261" width="90" height="32" class="terminal" rx="10"></rect>
         <text class="terminal" x="355" y="281">DEFERRED</text>
         <rect x="167" y="319" width="64" height="32" rx="10"></rect>
         <rect x="165" y="317" width="64" height="32" class="terminal" rx="10"></rect>
         <text class="terminal" x="175" y="337">EVERY</text><a xmlns:xlink="http://www.w3.org/1999/xlink" xlink:href="#interval" xlink:title="interval">
            <rect x="251" y="319" width="68" height="32"></rect>
            <rect x="249" y="317" width="68" height="32" class="nonterminal"></rect>
            <text class="nonterminal" x="259" y="337">interval</text></a><rect x="359" y="351" width="90" height="32" rx="10"></rect>
         <rect x="357" y="349" width="90" height="32" class="terminal" rx="10"></rect>
         <text class="terminal" x="367" y="369">DEFERRED</text>
         <rect x="509" y="351" width="64" height="32" rx="10"></rect>
         <rect x="507" y="349" width="64" height="32" class="terminal" rx="10"></rect>
         <text class="terminal" x="517" y="369">START</text><a xmlns:xlink="http://www.w3.org/1999/xlink" xlink:href="#timestamp" xlink:title="timestamp">
            <rect x="593" y="351" width="88" height="32"></rect>
            <rect x="591" y="349" width="88" height="32" class="nonterminal"></rect>
            <text class="nonterminal" x="601" y="369">timestamp</text></a><rect x="741" y="351" width="54" height="32" rx="10"></rect>
         <rect x="739" y="349" width="54" height="32" class="terminal" rx="10"></rect>
         <text class="terminal" x="749" y="369">TIME</text>
         <rect x="815" y="351" width="58" height="32" rx="10"></rect>
         <rect x="813" y="349" width="58" height="32" class="terminal" rx="10"></rect>
         <text class="terminal" x="823" y="369">ZONE</text><a xmlns:xlink="http://www.w3.org/1999/xlink" xlink:href="#timezone" xlink:title="timezone">
            <rect x="893" y="351" width="78" height="32"></rect>
            <rect x="891" y="349" width="78" height="32" class="nonterminal"></rect>
            <text class="nonterminal" x="901" y="369">timezone</text></a><rect x="1051" y="231" width="74" height="32" rx="10"></rect>
         <rect x="1049" y="229" width="74" height="32" class="terminal" rx="10"></rect>
         <text class="terminal" x="1059" y="249">PERIOD</text>
         <rect x="1145" y="231" width="26" height="32" rx="10"></rect>
         <rect x="1143" y="229" width="26" height="32" class="terminal" rx="10"></rect>
         <text class="terminal" x="1153" y="249">(</text>
         <rect x="1191" y="231" width="74" height="32" rx="10"></rect>
         <rect x="1189" y="229" width="74" height="32" class="terminal" rx="10"></rect>
         <text class="terminal" x="1199" y="249">LENGTH</text><a xmlns:xlink="http://www.w3.org/1999/xlink" xlink:href="#length" xlink:title="length">
            <rect x="1285" y="231" width="60" height="32"></rect>
            <rect x="1283" y="229" width="60" height="32" class="nonterminal"></rect>
            <text class="nonterminal" x="1293" y="249">length</text></a><rect x="1385" y="263" width="54" height="32" rx="10"></rect>
         <rect x="1383" y="261" width="54" height="32" class="terminal" rx="10"></rect>
         <text class="terminal" x="1393" y="281">TIME</text>
         <rect x="1459" y="263" width="58" height="32" rx="10"></rect>
         <rect x="1457" y="261" width="58" height="32" class="terminal" rx="10"></rect>
         <text class="terminal" x="1467" y="281">ZONE</text><a xmlns:xlink="http://www.w3.org/1999/xlink" xlink:href="#timezone" xlink:title="timezone">
            <rect x="1537" y="263" width="78" height="32"></rect>
            <rect x="1535" y="261" width="78" height="32" class="nonterminal"></rect>
            <text class="nonterminal" x="1545" y="281">timezone</text></a><rect x="1675" y="263" width="64" height="32" rx="10"></rect>
         <rect x="1673" y="261" width="64" height="32" class="terminal" rx="10"></rect>
         <text class="terminal" x="1683" y="281">DELAY</text><a xmlns:xlink="http://www.w3.org/1999/xlink" xlink:href="#delay" xlink:title="delay">
            <rect x="1759" y="263" width="54" height="32"></rect>
            <rect x="1757" y="261" width="54" height="32" class="nonterminal"></rect>
            <text class="nonterminal" x="1767" y="281">delay</text></a><rect x="1853" y="231" width="26" height="32" rx="10"></rect>
         <rect x="1851" y="229" width="26" height="32" class="terminal" rx="10"></rect>
         <text class="terminal" x="1861" y="249">)</text>
         <rect x="650" y="417" width="38" height="32" rx="10"></rect>
         <rect x="648" y="415" width="38" height="32" class="terminal" rx="10"></rect>
         <text class="terminal" x="658" y="435">AS</text>
         <rect x="728" y="449" width="26" height="32" rx="10"></rect>
         <rect x="726" y="447" width="26" height="32" class="terminal" rx="10"></rect>
         <text class="terminal" x="736" y="467">(</text><a xmlns:xlink="http://www.w3.org/1999/xlink" xlink:href="#query" xlink:title="query">
            <rect x="794" y="417" width="56" height="32"></rect>
            <rect x="792" y="415" width="56" height="32" class="nonterminal"></rect>
            <text class="nonterminal" x="802" y="435">query</text></a><rect x="890" y="449" width="26" height="32" rx="10"></rect>
         <rect x="888" y="447" width="26" height="32" class="terminal" rx="10"></rect>
         <text class="terminal" x="898" y="467">)</text>
         <rect x="976" y="449" width="100" height="32" rx="10"></rect>
         <rect x="974" y="447" width="100" height="32" class="terminal" rx="10"></rect>
         <text class="terminal" x="984" y="467">TIMESTAMP</text>
         <rect x="1096" y="449" width="26" height="32" rx="10"></rect>
         <rect x="1094" y="447" width="26" height="32" class="terminal" rx="10"></rect>
         <text class="terminal" x="1104" y="467">(</text><a xmlns:xlink="http://www.w3.org/1999/xlink" xlink:href="#columnRef" xlink:title="columnRef">
            <rect x="1142" y="449" width="86" height="32"></rect>
            <rect x="1140" y="447" width="86" height="32" class="nonterminal"></rect>
            <text class="nonterminal" x="1150" y="467">columnRef</text></a><rect x="1248" y="449" width="26" height="32" rx="10"></rect>
         <rect x="1246" y="447" width="26" height="32" class="terminal" rx="10"></rect>
         <text class="terminal" x="1256" y="467">)</text>
         <rect x="574" y="531" width="98" height="32" rx="10"></rect>
         <rect x="572" y="529" width="98" height="32" class="terminal" rx="10"></rect>
         <text class="terminal" x="582" y="549">PARTITION</text>
         <rect x="692" y="531" width="38" height="32" rx="10"></rect>
         <rect x="690" y="529" width="38" height="32" class="terminal" rx="10"></rect>
         <text class="terminal" x="700" y="549">BY</text>
         <rect x="770" y="531" width="56" height="32" rx="10"></rect>
         <rect x="768" y="529" width="56" height="32" class="terminal" rx="10"></rect>
         <text class="terminal" x="778" y="549">YEAR</text>
         <rect x="770" y="575" width="70" height="32" rx="10"></rect>
         <rect x="768" y="573" width="70" height="32" class="terminal" rx="10"></rect>
         <text class="terminal" x="778" y="593">MONTH</text>
         <rect x="770" y="619" width="48" height="32" rx="10"></rect>
         <rect x="768" y="617" width="48" height="32" class="terminal" rx="10"></rect>
         <text class="terminal" x="778" y="637">DAY</text>
         <rect x="770" y="663" width="60" height="32" rx="10"></rect>
         <rect x="768" y="661" width="60" height="32" class="terminal" rx="10"></rect>
         <text class="terminal" x="778" y="681">HOUR</text>
         <rect x="900" y="563" width="44" height="32" rx="10"></rect>
         <rect x="898" y="561" width="44" height="32" class="terminal" rx="10"></rect>
         <text class="terminal" x="908" y="581">TTL</text><a xmlns:xlink="http://www.w3.org/1999/xlink" xlink:href="#n" xlink:title="n">
            <rect x="964" y="563" width="28" height="32"></rect>
            <rect x="962" y="561" width="28" height="32" class="nonterminal"></rect>
            <text class="nonterminal" x="972" y="581">n</text></a><rect x="1032" y="563" width="68" height="32" rx="10"></rect>
         <rect x="1030" y="561" width="68" height="32" class="terminal" rx="10"></rect>
         <text class="terminal" x="1040" y="581">HOURS</text>
         <rect x="1032" y="607" width="56" height="32" rx="10"></rect>
         <rect x="1030" y="605" width="56" height="32" class="terminal" rx="10"></rect>
         <text class="terminal" x="1040" y="625">DAYS</text>
         <rect x="1032" y="651" width="68" height="32" rx="10"></rect>
         <rect x="1030" y="649" width="68" height="32" class="terminal" rx="10"></rect>
         <text class="terminal" x="1040" y="669">WEEKS</text>
         <rect x="1032" y="695" width="80" height="32" rx="10"></rect>
         <rect x="1030" y="693" width="80" height="32" class="terminal" rx="10"></rect>
         <text class="terminal" x="1040" y="713">MONTHS</text>
         <rect x="1032" y="739" width="64" height="32" rx="10"></rect>
         <rect x="1030" y="737" width="64" height="32" class="terminal" rx="10"></rect>
         <text class="terminal" x="1040" y="757">YEARS</text><a xmlns:xlink="http://www.w3.org/1999/xlink" xlink:href="#viewTargetVolumeDef" xlink:title="viewTargetVolumeDef">
            <rect x="1212" y="531" width="158" height="32"></rect>
            <rect x="1210" y="529" width="158" height="32" class="nonterminal"></rect>
            <text class="nonterminal" x="1220" y="549">viewTargetVolumeDef</text></a><rect x="1647" y="825" width="72" height="32" rx="10"></rect>
         <rect x="1645" y="823" width="72" height="32" class="terminal" rx="10"></rect>
         <text class="terminal" x="1655" y="843">OWNED</text>
         <rect x="1739" y="825" width="38" height="32" rx="10"></rect>
         <rect x="1737" y="823" width="38" height="32" class="terminal" rx="10"></rect>
         <text class="terminal" x="1747" y="843">BY</text><a xmlns:xlink="http://www.w3.org/1999/xlink" xlink:href="#ownerName" xlink:title="ownerName">
            <rect x="1797" y="825" width="96" height="32"></rect>
            <rect x="1795" y="823" width="96" height="32" class="nonterminal"></rect>
            <text class="nonterminal" x="1805" y="843">ownerName</text></a><path class="line" d="m17 17 h2 m0 0 h10 m72 0 h10 m0 0 h10 m122 0 h10 m0 0 h10 m58 0 h10 m20 0 h10 m0 0 h202 m-232 0 h20 m212 0 h20 m-252 0 q10 0 10 10 m232 0 q0 -10 10 -10 m-242 10 v12 m232 0 v-12 m-232 12 q0 10 10 10 m212 0 q10 0 10 -10 m-222 10 h10 m34 0 h10 m0 0 h10 m48 0 h10 m0 0 h10 m70 0 h10 m20 -32 h10 m84 0 h10 m2 0 l2 0 m2 0 l2 0 m2 0 l2 0 m109 82 l2 0 m2 0 l2 0 m2 0 l2 0 m22 0 h10 m0 0 h250 m-280 0 h20 m260 0 h20 m-300 0 q10 0 10 10 m280 0 q0 -10 10 -10 m-290 10 v12 m280 0 v-12 m-280 12 q0 10 10 10 m260 0 q10 0 10 -10 m-270 10 h10 m98 0 h10 m0 0 h10 m122 0 h10 m22 -32 l2 0 m2 0 l2 0 m2 0 l2 0 m-1131 82 l2 0 m2 0 l2 0 m2 0 l2 0 m22 0 h10 m0 0 h1864 m-1894 0 h20 m1874 0 h20 m-1914 0 q10 0 10 10 m1894 0 q0 -10 10 -10 m-1904 10 v12 m1894 0 v-12 m-1894 12 q0 10 10 10 m1874 0 q10 0 10 -10 m-1884 10 h10 m82 0 h10 m20 0 h10 m0 0 h834 m-864 0 h20 m844 0 h20 m-884 0 q10 0 10 10 m864 0 q0 -10 10 -10 m-874 10 v12 m864 0 v-12 m-864 12 q0 10 10 10 m844 0 q10 0 10 -10 m-834 10 h10 m100 0 h10 m-140 0 h20 m120 0 h20 m-160 0 q10 0 10 10 m140 0 q0 -10 10 -10 m-150 10 v24 m140 0 v-24 m-140 24 q0 10 10 10 m120 0 q10 0 10 -10 m-130 10 h10 m78 0 h10 m0 0 h22 m40 -44 h10 m0 0 h100 m-130 0 h20 m110 0 h20 m-150 0 q10 0 10 10 m130 0 q0 -10 10 -10 m-140 10 v12 m130 0 v-12 m-130 12 q0 10 10 10 m110 0 q10 0 10 -10 m-120 10 h10 m90 0 h10 m20 -32 h534 m-854 -10 v20 m864 0 v-20 m-864 20 v68 m864 0 v-68 m-864 68 q0 10 10 10 m844 0 q10 0 10 -10 m-854 10 h10 m64 0 h10 m0 0 h10 m68 0 h10 m20 0 h10 m0 0 h100 m-130 0 h20 m110 0 h20 m-150 0 q10 0 10 10 m130 0 q0 -10 10 -10 m-140 10 v12 m130 0 v-12 m-130 12 q0 10 10 10 m110 0 q10 0 10 -10 m-120 10 h10 m90 0 h10 m40 -32 h10 m0 0 h182 m-212 0 h20 m192 0 h20 m-232 0 q10 0 10 10 m212 0 q0 -10 10 -10 m-222 10 v12 m212 0 v-12 m-212 12 q0 10 10 10 m192 0 q10 0 10 -10 m-202 10 h10 m64 0 h10 m0 0 h10 m88 0 h10 m40 -32 h10 m0 0 h240 m-270 0 h20 m250 0 h20 m-290 0 q10 0 10 10 m270 0 q0 -10 10 -10 m-280 10 v12 m270 0 v-12 m-270 12 q0 10 10 10 m250 0 q10 0 10 -10 m-260 10 h10 m54 0 h10 m0 0 h10 m58 0 h10 m0 0 h10 m78 0 h10 m60 -152 h10 m0 0 h838 m-868 0 h20 m848 0 h20 m-888 0 q10 0 10 10 m868 0 q0 -10 10 -10 m-878 10 v12 m868 0 v-12 m-868 12 q0 10 10 10 m848 0 q10 0 10 -10 m-858 10 h10 m74 0 h10 m0 0 h10 m26 0 h10 m0 0 h10 m74 0 h10 m0 0 h10 m60 0 h10 m20 0 h10 m0 0 h240 m-270 0 h20 m250 0 h20 m-290 0 q10 0 10 10 m270 0 q0 -10 10 -10 m-280 10 v12 m270 0 v-12 m-270 12 q0 10 10 10 m250 0 q10 0 10 -10 m-260 10 h10 m54 0 h10 m0 0 h10 m58 0 h10 m0 0 h10 m78 0 h10 m40 -32 h10 m0 0 h148 m-178 0 h20 m158 0 h20 m-198 0 q10 0 10 10 m178 0 q0 -10 10 -10 m-188 10 v12 m178 0 v-12 m-178 12 q0 10 10 10 m158 0 q10 0 10 -10 m-168 10 h10 m64 0 h10 m0 0 h10 m54 0 h10 m20 -32 h10 m26 0 h10 m42 -64 l2 0 m2 0 l2 0 m2 0 l2 0 m-1313 250 l2 0 m2 0 l2 0 m2 0 l2 0 m2 0 h10 m38 0 h10 m20 0 h10 m0 0 h36 m-66 0 h20 m46 0 h20 m-86 0 q10 0 10 10 m66 0 q0 -10 10 -10 m-76 10 v12 m66 0 v-12 m-66 12 q0 10 10 10 m46 0 q10 0 10 -10 m-56 10 h10 m26 0 h10 m20 -32 h10 m56 0 h10 m20 0 h10 m0 0 h36 m-66 0 h20 m46 0 h20 m-86 0 q10 0 10 10 m66 0 q0 -10 10 -10 m-76 10 v12 m66 0 v-12 m-66 12 q0 10 10 10 m46 0 q10 0 10 -10 m-56 10 h10 m26 0 h10 m40 -32 h10 m0 0 h308 m-338 0 h20 m318 0 h20 m-358 0 q10 0 10 10 m338 0 q0 -10 10 -10 m-348 10 v12 m338 0 v-12 m-338 12 q0 10 10 10 m318 0 q10 0 10 -10 m-328 10 h10 m100 0 h10 m0 0 h10 m26 0 h10 m0 0 h10 m86 0 h10 m0 0 h10 m26 0 h10 m22 -32 l2 0 m2 0 l2 0 m2 0 l2 0 m-784 82 l2 0 m2 0 l2 0 m2 0 l2 0 m22 0 h10 m0 0 h588 m-618 0 h20 m598 0 h20 m-638 0 q10 0 10 10 m618 0 q0 -10 10 -10 m-628 10 v12 m618 0 v-12 m-618 12 q0 10 10 10 m598 0 q10 0 10 -10 m-608 10 h10 m98 0 h10 m0 0 h10 m38 0 h10 m20 0 h10 m56 0 h10 m0 0 h14 m-110 0 h20 m90 0 h20 m-130 0 q10 0 10 10 m110 0 q0 -10 10 -10 m-120 10 v24 m110 0 v-24 m-110 24 q0 10 10 10 m90 0 q10 0 10 -10 m-100 10 h10 m70 0 h10 m-100 -10 v20 m110 0 v-20 m-110 20 v24 m110 0 v-24 m-110 24 q0 10 10 10 m90 0 q10 0 10 -10 m-100 10 h10 m48 0 h10 m0 0 h22 m-100 -10 v20 m110 0 v-20 m-110 20 v24 m110 0 v-24 m-110 24 q0 10 10 10 m90 0 q10 0 10 -10 m-100 10 h10 m60 0 h10 m0 0 h10 m40 -132 h10 m0 0 h242 m-272 0 h20 m252 0 h20 m-292 0 q10 0 10 10 m272 0 q0 -10 10 -10 m-282 10 v12 m272 0 v-12 m-272 12 q0 10 10 10 m252 0 q10 0 10 -10 m-262 10 h10 m44 0 h10 m0 0 h10 m28 0 h10 m20 0 h10 m68 0 h10 m0 0 h12 m-120 0 h20 m100 0 h20 m-140 0 q10 0 10 10 m120 0 q0 -10 10 -10 m-130 10 v24 m120 0 v-24 m-120 24 q0 10 10 10 m100 0 q10 0 10 -10 m-110 10 h10 m56 0 h10 m0 0 h24 m-110 -10 v20 m120 0 v-20 m-120 20 v24 m120 0 v-24 m-120 24 q0 10 10 10 m100 0 q10 0 10 -10 m-110 10 h10 m68 0 h10 m0 0 h12 m-110 -10 v20 m120 0 v-20 m-120 20 v24 m120 0 v-24 m-120 24 q0 10 10 10 m100 0 q10 0 10 -10 m-110 10 h10 m80 0 h10 m-110 -10 v20 m120 0 v-20 m-120 20 v24 m120 0 v-24 m-120 24 q0 10 10 10 m100 0 q10 0 10 -10 m-110 10 h10 m64 0 h10 m0 0 h16 m80 -240 h10 m0 0 h168 m-198 0 h20 m178 0 h20 m-218 0 q10 0 10 10 m198 0 q0 -10 10 -10 m-208 10 v12 m198 0 v-12 m-198 12 q0 10 10 10 m178 0 q10 0 10 -10 m-188 10 h10 m158 0 h10 m22 -32 l2 0 m2 0 l2 0 m2 0 l2 0 m193 294 l2 0 m2 0 l2 0 m2 0 l2 0 m22 0 h10 m0 0 h256 m-286 0 h20 m266 0 h20 m-306 0 q10 0 10 10 m286 0 q0 -10 10 -10 m-296 10 v12 m286 0 v-12 m-286 12 q0 10 10 10 m266 0 q10 0 10 -10 m-276 10 h10 m72 0 h10 m0 0 h10 m38 0 h10 m0 0 h10 m96 0 h10 m23 -32 h-3"></path>
         <polygon points="1931 807 1939 803 1939 811"></polygon>
         <polygon points="1931 807 1923 803 1923 811"></polygon>
</svg>