<svg xmlns="http://www.w3.org/2000/svg" width="1299" height="669">
    <defs>
        <style type="text/css">
            @namespace "http://www.w3.org/2000/svg";
            .line                 {fill: none; stroke: #636273;}
            .bold-line            {stroke: #636273; shape-rendering: crispEdges; stroke-width: 2; }
            .thin-line           {stroke: #636273; shape-rendering: crispEdges}
            .filled              {fill: #636273; stroke: none;}
            text.terminal        {font-family: -apple-system, BlinkMacSystemFont, "Segoe UI", Roboto, Ubuntu, Cantarell, Helvetica, sans-serif;
            font-size: 12px;
            fill: #ffffff;
            font-weight: bold;
            }
            text.nonterminal     {font-family: -apple-system, BlinkMacSystemFont, "Segoe UI", Roboto, Ubuntu, Cantarell, Helvetica, sans-serif;
            font-size: 12px;
            fill: #e289a4;
            font-weight: normal;
            }
            text.regexp          {font-family: -apple-system, BlinkMacSystemFont, "Segoe UI", Roboto, Ubuntu, Cantarell, Helvetica, sans-serif;
            font-size: 12px;
            fill: #00141F;
            font-weight: normal;
            }
            rect, circle, polygon {fill: none; stroke: none;}
            rect.terminal        {fill: none; stroke: #be2f5b;}
            rect.nonterminal     {fill: rgba(255,255,255,0.1); stroke: none;}
            rect.text            {fill: none; stroke: none;}
            polygon.regexp       {fill: #C7ECFF; stroke: #038cbc;}
        </style>
    </defs>
    <polygon points="9 17 1 13 1 21"></polygon>
         <polygon points="17 17 9 13 9 21"></polygon>
         <rect x="31" y="3" width="72" height="32" rx="10"></rect>
         <rect x="29" y="1" width="72" height="32" class="terminal" rx="10"></rect>
         <text class="terminal" x="39" y="21">CREATE</text>
         <rect x="123" y="3" width="62" height="32" rx="10"></rect>
         <rect x="121" y="1" width="62" height="32" class="terminal" rx="10"></rect>
         <text class="terminal" x="131" y="21">TABLE</text>
         <rect x="225" y="35" width="34" height="32" rx="10"></rect>
         <rect x="223" y="33" width="34" height="32" class="terminal" rx="10"></rect>
         <text class="terminal" x="233" y="53">IF</text>
         <rect x="279" y="35" width="48" height="32" rx="10"></rect>
         <rect x="277" y="33" width="48" height="32" class="terminal" rx="10"></rect>
         <text class="terminal" x="287" y="53">NOT</text>
         <rect x="347" y="35" width="70" height="32" rx="10"></rect>
         <rect x="345" y="33" width="70" height="32" class="terminal" rx="10"></rect>
         <text class="terminal" x="355" y="53">EXISTS</text><a xmlns:xlink="http://www.w3.org/1999/xlink" xlink:href="#tableName" xlink:title="tableName">
            <rect x="457" y="3" width="88" height="32"></rect>
            <rect x="455" y="1" width="88" height="32" class="nonterminal"></rect>
            <text class="nonterminal" x="465" y="21">tableName</text></a><rect x="322" y="145" width="26" height="32" rx="10"></rect>
         <rect x="320" y="143" width="26" height="32" class="terminal" rx="10"></rect>
         <text class="terminal" x="330" y="163">(</text><a xmlns:xlink="http://www.w3.org/1999/xlink" xlink:href="#columnName" xlink:title="columnName">
            <rect x="388" y="145" width="102" height="32"></rect>
            <rect x="386" y="143" width="102" height="32" class="nonterminal"></rect>
            <text class="nonterminal" x="396" y="163">columnName</text></a><a xmlns:xlink="http://www.w3.org/1999/xlink" xlink:href="#typeDef" xlink:title="typeDef">
            <rect x="510" y="145" width="70" height="32"></rect>
            <rect x="508" y="143" width="70" height="32" class="nonterminal"></rect>
            <text class="nonterminal" x="518" y="163">typeDef</text></a><rect x="388" y="101" width="24" height="32" rx="10"></rect>
         <rect x="386" y="99" width="24" height="32" class="terminal" rx="10"></rect>
         <text class="terminal" x="396" y="119">,</text>
         <rect x="620" y="145" width="26" height="32" rx="10"></rect>
         <rect x="618" y="143" width="26" height="32" class="terminal" rx="10"></rect>
         <text class="terminal" x="628" y="163">)</text>
         <rect x="322" y="211" width="38" height="32" rx="10"></rect>
         <rect x="320" y="209" width="38" height="32" class="terminal" rx="10"></rect>
         <text class="terminal" x="330" y="229">AS</text>
         <rect x="380" y="211" width="26" height="32" rx="10"></rect>
         <rect x="378" y="209" width="26" height="32" class="terminal" rx="10"></rect>
         <text class="terminal" x="388" y="229">(</text><a xmlns:xlink="http://www.w3.org/1999/xlink" xlink:href="#selectSql" xlink:title="selectSql">
            <rect x="426" y="211" width="76" height="32"></rect>
            <rect x="424" y="209" width="76" height="32" class="nonterminal"></rect>
            <text class="nonterminal" x="434" y="229">selectSql</text></a><rect x="522" y="211" width="26" height="32" rx="10"></rect>
         <rect x="520" y="209" width="26" height="32" class="terminal" rx="10"></rect>
         <text class="terminal" x="530" y="229">)</text>
         <rect x="608" y="211" width="24" height="32" rx="10"></rect>
         <rect x="606" y="209" width="24" height="32" class="terminal" rx="10"></rect>
         <text class="terminal" x="616" y="229">,</text><a xmlns:xlink="http://www.w3.org/1999/xlink" xlink:href="#castDef" xlink:title="castDef">
            <rect x="652" y="211" width="68" height="32"></rect>
            <rect x="650" y="209" width="68" height="32" class="nonterminal"></rect>
            <text class="nonterminal" x="660" y="229">castDef</text></a><rect x="820" y="211" width="24" height="32" rx="10"></rect>
         <rect x="818" y="209" width="24" height="32" class="terminal" rx="10"></rect>
         <text class="terminal" x="828" y="229">,</text><a xmlns:xlink="http://www.w3.org/1999/xlink" xlink:href="#indexDef" xlink:title="indexDef">
            <rect x="864" y="211" width="76" height="32"></rect>
            <rect x="862" y="209" width="76" height="32" class="nonterminal"></rect>
            <text class="nonterminal" x="872" y="229">indexDef</text></a><rect x="45" y="309" width="92" height="32" rx="10"></rect>
         <rect x="43" y="307" width="92" height="32" class="terminal" rx="10"></rect>
         <text class="terminal" x="53" y="327">timestamp</text>
         <rect x="157" y="309" width="26" height="32" rx="10"></rect>
         <rect x="155" y="307" width="26" height="32" class="terminal" rx="10"></rect>
         <text class="terminal" x="165" y="327">(</text><a xmlns:xlink="http://www.w3.org/1999/xlink" xlink:href="#columnRef" xlink:title="columnRef">
            <rect x="203" y="309" width="86" height="32"></rect>
            <rect x="201" y="307" width="86" height="32" class="nonterminal"></rect>
            <text class="nonterminal" x="211" y="327">columnRef</text></a><rect x="309" y="309" width="26" height="32" rx="10"></rect>
         <rect x="307" y="307" width="26" height="32" class="terminal" rx="10"></rect>
         <text class="terminal" x="317" y="327">)</text>
         <rect x="375" y="341" width="98" height="32" rx="10"></rect>
         <rect x="373" y="339" width="98" height="32" class="terminal" rx="10"></rect>
         <text class="terminal" x="383" y="359">PARTITION</text>
         <rect x="493" y="341" width="38" height="32" rx="10"></rect>
         <rect x="491" y="339" width="38" height="32" class="terminal" rx="10"></rect>
         <text class="terminal" x="501" y="359">BY</text>
         <rect x="571" y="341" width="58" height="32" rx="10"></rect>
         <rect x="569" y="339" width="58" height="32" class="terminal" rx="10"></rect>
         <text class="terminal" x="579" y="359">NONE</text>
         <rect x="669" y="373" width="74" height="32" rx="10"></rect>
         <rect x="667" y="371" width="74" height="32" class="terminal" rx="10"></rect>
         <text class="terminal" x="677" y="391">BYPASS</text>
         <rect x="763" y="373" width="50" height="32" rx="10"></rect>
         <rect x="761" y="371" width="50" height="32" class="terminal" rx="10"></rect>
         <text class="terminal" x="771" y="391">WAL</text>
         <rect x="591" y="417" width="56" height="32" rx="10"></rect>
         <rect x="589" y="415" width="56" height="32" class="terminal" rx="10"></rect>
         <text class="terminal" x="599" y="435">YEAR</text>
         <rect x="591" y="461" width="70" height="32" rx="10"></rect>
         <rect x="589" y="459" width="70" height="32" class="terminal" rx="10"></rect>
         <text class="terminal" x="599" y="479">MONTH</text>
         <rect x="591" y="505" width="48" height="32" rx="10"></rect>
         <rect x="589" y="503" width="48" height="32" class="terminal" rx="10"></rect>
         <text class="terminal" x="599" y="523">DAY</text>
         <rect x="591" y="549" width="60" height="32" rx="10"></rect>
         <rect x="589" y="547" width="60" height="32" class="terminal" rx="10"></rect>
         <text class="terminal" x="599" y="567">HOUR</text>
         <rect x="741" y="481" width="74" height="32" rx="10"></rect>
         <rect x="739" y="479" width="74" height="32" class="terminal" rx="10"></rect>
         <text class="terminal" x="749" y="499">BYPASS</text>
         <rect x="855" y="449" width="50" height="32" rx="10"></rect>
         <rect x="853" y="447" width="50" height="32" class="terminal" rx="10"></rect>
         <text class="terminal" x="863" y="467">WAL</text>
         <rect x="985" y="373" width="44" height="32" rx="10"></rect>
         <rect x="983" y="371" width="44" height="32" class="terminal" rx="10"></rect>
         <text class="terminal" x="993" y="391">TTL</text><a xmlns:xlink="http://www.w3.org/1999/xlink" xlink:href="#n" xlink:title="n">
            <rect x="1049" y="373" width="28" height="32"></rect>
            <rect x="1047" y="371" width="28" height="32" class="nonterminal"></rect>
            <text class="nonterminal" x="1057" y="391">n</text></a><rect x="1117" y="373" width="68" height="32" rx="10"></rect>
         <rect x="1115" y="371" width="68" height="32" class="terminal" rx="10"></rect>
         <text class="terminal" x="1125" y="391">HOURS</text>
         <rect x="1117" y="417" width="56" height="32" rx="10"></rect>
         <rect x="1115" y="415" width="56" height="32" class="terminal" rx="10"></rect>
         <text class="terminal" x="1125" y="435">DAYS</text>
         <rect x="1117" y="461" width="68" height="32" rx="10"></rect>
         <rect x="1115" y="459" width="68" height="32" class="terminal" rx="10"></rect>
         <text class="terminal" x="1125" y="479">WEEKS</text>
         <rect x="1117" y="505" width="80" height="32" rx="10"></rect>
         <rect x="1115" y="503" width="80" height="32" class="terminal" rx="10"></rect>
         <text class="terminal" x="1125" y="523">MONTHS</text>
         <rect x="1117" y="549" width="64" height="32" rx="10"></rect>
         <rect x="1115" y="547" width="64" height="32" class="terminal" rx="10"></rect>
         <text class="terminal" x="1125" y="567">YEARS</text>
         <rect x="527" y="635" width="58" height="32" rx="10"></rect>
         <rect x="525" y="633" width="58" height="32" class="terminal" rx="10"></rect>
         <text class="terminal" x="535" y="653">WITH</text><a xmlns:xlink="http://www.w3.org/1999/xlink" xlink:href="#tableParameter" xlink:title="tableParameter">
            <rect x="605" y="635" width="118" height="32"></rect>
            <rect x="603" y="633" width="118" height="32" class="nonterminal"></rect>
            <text class="nonterminal" x="613" y="653">tableParameter</text></a><a xmlns:xlink="http://www.w3.org/1999/xlink" xlink:href="#tableTargetVolumeDef" xlink:title="tableTargetVolumeDef">
            <rect x="783" y="635" width="162" height="32"></rect>
            <rect x="781" y="633" width="162" height="32" class="nonterminal"></rect>
            <text class="nonterminal" x="791" y="653">tableTargetVolumeDef</text></a><rect x="1005" y="635" width="72" height="32" rx="10"></rect>
         <rect x="1003" y="633" width="72" height="32" class="terminal" rx="10"></rect>
         <text class="terminal" x="1013" y="653">OWNED</text>
         <rect x="1097" y="635" width="38" height="32" rx="10"></rect>
         <rect x="1095" y="633" width="38" height="32" class="terminal" rx="10"></rect>
         <text class="terminal" x="1105" y="653">BY</text><a xmlns:xlink="http://www.w3.org/1999/xlink" xlink:href="#ownerName" xlink:title="ownerName">
            <rect x="1155" y="635" width="96" height="32"></rect>
            <rect x="1153" y="633" width="96" height="32" class="nonterminal"></rect>
            <text class="nonterminal" x="1163" y="653">ownerName</text></a><path class="line" d="m17 17 h2 m0 0 h10 m72 0 h10 m0 0 h10 m62 0 h10 m20 0 h10 m0 0 h202 m-232 0 h20 m212 0 h20 m-252 0 q10 0 10 10 m232 0 q0 -10 10 -10 m-242 10 v12 m232 0 v-12 m-232 12 q0 10 10 10 m212 0 q10 0 10 -10 m-222 10 h10 m34 0 h10 m0 0 h10 m48 0 h10 m0 0 h10 m70 0 h10 m20 -32 h10 m88 0 h10 m2 0 l2 0 m2 0 l2 0 m2 0 l2 0 m-287 142 l2 0 m2 0 l2 0 m2 0 l2 0 m22 0 h10 m26 0 h10 m20 0 h10 m102 0 h10 m0 0 h10 m70 0 h10 m-232 0 l20 0 m-1 0 q-9 0 -9 -10 l0 -24 q0 -10 10 -10 m212 44 l20 0 m-20 0 q10 0 10 -10 l0 -24 q0 -10 -10 -10 m-212 0 h10 m24 0 h10 m0 0 h168 m20 44 h10 m26 0 h10 m0 0 h334 m-698 0 h20 m678 0 h20 m-718 0 q10 0 10 10 m698 0 q0 -10 10 -10 m-708 10 v46 m698 0 v-46 m-698 46 q0 10 10 10 m678 0 q10 0 10 -10 m-688 10 h10 m38 0 h10 m0 0 h10 m26 0 h10 m0 0 h10 m76 0 h10 m0 0 h10 m26 0 h10 m40 0 h10 m24 0 h10 m0 0 h10 m68 0 h10 m-152 0 l20 0 m-1 0 q-9 0 -9 -10 l0 -12 q0 -10 10 -10 m132 32 l20 0 m-20 0 q10 0 10 -10 l0 -12 q0 -10 -10 -10 m-132 0 h10 m0 0 h122 m-172 32 h20 m172 0 h20 m-212 0 q10 0 10 10 m192 0 q0 -10 10 -10 m-202 10 v14 m192 0 v-14 m-192 14 q0 10 10 10 m172 0 q10 0 10 -10 m-182 10 h10 m0 0 h162 m60 -34 h10 m24 0 h10 m0 0 h10 m76 0 h10 m-160 0 l20 0 m-1 0 q-9 0 -9 -10 l0 -12 q0 -10 10 -10 m140 32 l20 0 m-20 0 q10 0 10 -10 l0 -12 q0 -10 -10 -10 m-140 0 h10 m0 0 h130 m-180 32 h20 m180 0 h20 m-220 0 q10 0 10 10 m200 0 q0 -10 10 -10 m-210 10 v14 m200 0 v-14 m-200 14 q0 10 10 10 m180 0 q10 0 10 -10 m-190 10 h10 m0 0 h170 m42 -100 l2 0 m2 0 l2 0 m2 0 l2 0 m-1019 132 l2 0 m2 0 l2 0 m2 0 l2 0 m22 0 h10 m0 0 h1222 m-1252 0 h20 m1232 0 h20 m-1272 0 q10 0 10 10 m1252 0 q0 -10 10 -10 m-1262 10 v12 m1252 0 v-12 m-1252 12 q0 10 10 10 m1232 0 q10 0 10 -10 m-1242 10 h10 m92 0 h10 m0 0 h10 m26 0 h10 m0 0 h10 m86 0 h10 m0 0 h10 m26 0 h10 m20 0 h10 m0 0 h872 m-902 0 h20 m882 0 h20 m-922 0 q10 0 10 10 m902 0 q0 -10 10 -10 m-912 10 v12 m902 0 v-12 m-902 12 q0 10 10 10 m882 0 q10 0 10 -10 m-892 10 h10 m98 0 h10 m0 0 h10 m38 0 h10 m20 0 h10 m58 0 h10 m20 0 h10 m0 0 h154 m-184 0 h20 m164 0 h20 m-204 0 q10 0 10 10 m184 0 q0 -10 10 -10 m-194 10 v12 m184 0 v-12 m-184 12 q0 10 10 10 m164 0 q10 0 10 -10 m-174 10 h10 m74 0 h10 m0 0 h10 m50 0 h10 m20 -32 h92 m-394 0 h20 m374 0 h20 m-414 0 q10 0 10 10 m394 0 q0 -10 10 -10 m-404 10 v56 m394 0 v-56 m-394 56 q0 10 10 10 m374 0 q10 0 10 -10 m-364 10 h10 m56 0 h10 m0 0 h14 m-110 0 h20 m90 0 h20 m-130 0 q10 0 10 10 m110 0 q0 -10 10 -10 m-120 10 v24 m110 0 v-24 m-110 24 q0 10 10 10 m90 0 q10 0 10 -10 m-100 10 h10 m70 0 h10 m-100 -10 v20 m110 0 v-20 m-110 20 v24 m110 0 v-24 m-110 24 q0 10 10 10 m90 0 q10 0 10 -10 m-100 10 h10 m48 0 h10 m0 0 h22 m-100 -10 v20 m110 0 v-20 m-110 20 v24 m110 0 v-24 m-110 24 q0 10 10 10 m90 0 q10 0 10 -10 m-100 10 h10 m60 0 h10 m0 0 h10 m40 -132 h10 m0 0 h194 m-224 0 h20 m204 0 h20 m-244 0 q10 0 10 10 m224 0 q0 -10 10 -10 m-234 10 v12 m224 0 v-12 m-224 12 q0 10 10 10 m204 0 q10 0 10 -10 m-194 10 h10 m0 0 h84 m-114 0 h20 m94 0 h20 m-134 0 q10 0 10 10 m114 0 q0 -10 10 -10 m-124 10 v12 m114 0 v-12 m-114 12 q0 10 10 10 m94 0 q10 0 10 -10 m-104 10 h10 m74 0 h10 m20 -32 h10 m50 0 h10 m60 -108 h10 m0 0 h242 m-272 0 h20 m252 0 h20 m-292 0 q10 0 10 10 m272 0 q0 -10 10 -10 m-282 10 v12 m272 0 v-12 m-272 12 q0 10 10 10 m252 0 q10 0 10 -10 m-262 10 h10 m44 0 h10 m0 0 h10 m28 0 h10 m20 0 h10 m68 0 h10 m0 0 h12 m-120 0 h20 m100 0 h20 m-140 0 q10 0 10 10 m120 0 q0 -10 10 -10 m-130 10 v24 m120 0 v-24 m-120 24 q0 10 10 10 m100 0 q10 0 10 -10 m-110 10 h10 m56 0 h10 m0 0 h24 m-110 -10 v20 m120 0 v-20 m-120 20 v24 m120 0 v-24 m-120 24 q0 10 10 10 m100 0 q10 0 10 -10 m-110 10 h10 m68 0 h10 m0 0 h12 m-110 -10 v20 m120 0 v-20 m-120 20 v24 m120 0 v-24 m-120 24 q0 10 10 10 m100 0 q10 0 10 -10 m-110 10 h10 m80 0 h10 m-110 -10 v20 m120 0 v-20 m-120 20 v24 m120 0 v-24 m-120 24 q0 10 10 10 m100 0 q10 0 10 -10 m-110 10 h10 m64 0 h10 m0 0 h16 m82 -272 l2 0 m2 0 l2 0 m2 0 l2 0 m-814 326 l2 0 m2 0 l2 0 m2 0 l2 0 m22 0 h10 m0 0 h206 m-236 0 h20 m216 0 h20 m-256 0 q10 0 10 10 m236 0 q0 -10 10 -10 m-246 10 v12 m236 0 v-12 m-236 12 q0 10 10 10 m216 0 q10 0 10 -10 m-226 10 h10 m58 0 h10 m0 0 h10 m118 0 h10 m40 -32 h10 m0 0 h172 m-202 0 h20 m182 0 h20 m-222 0 q10 0 10 10 m202 0 q0 -10 10 -10 m-212 10 v12 m202 0 v-12 m-202 12 q0 10 10 10 m182 0 q10 0 10 -10 m-192 10 h10 m162 0 h10 m40 -32 h10 m0 0 h256 m-286 0 h20 m266 0 h20 m-306 0 q10 0 10 10 m286 0 q0 -10 10 -10 m-296 10 v12 m286 0 v-12 m-286 12 q0 10 10 10 m266 0 q10 0 10 -10 m-276 10 h10 m72 0 h10 m0 0 h10 m38 0 h10 m0 0 h10 m96 0 h10 m23 -32 h-3"></path>
         <polygon points="1289 617 1297 613 1297 621"></polygon>
         <polygon points="1289 617 1281 613 1281 621"></polygon>
</svg>