<svg xmlns="http://www.w3.org/2000/svg" width="1007" height="669">
    <defs>
        <style type="text/css">
            text.nonterminal,text.terminal{font-family:-apple-system,BlinkMacSystemFont,&quot;Segoe UI&quot;,Roboto,Ubuntu,Cantarell,Helvetica,sans-serif;font-size:12px}text.terminal{fill:#fff;font-weight:700}text.nonterminal{fill:#e289a4;font-weight:400}.line{fill:none;stroke:#636273}polygon,rect{fill:none;stroke:none}rect.terminal{fill:none;stroke:#be2f5b}rect.nonterminal{fill:rgba(255,255,255,.1);stroke:none}
        </style>
    </defs>
    <polygon points="9 17 1 13 1 21"/>
    <polygon points="17 17 9 13 9 21"/>
    <rect x="31" y="3" width="72" height="32" rx="10"/>
    <rect x="29" y="1" width="72" height="32" class="terminal" rx="10"/>
    <text class="terminal" x="39" y="21">CREATE</text>
    <rect x="123" y="3" width="62" height="32" rx="10"/>
    <rect x="121" y="1" width="62" height="32" class="terminal" rx="10"/>
    <text class="terminal" x="131" y="21">TABLE</text>
    <rect x="225" y="35" width="34" height="32" rx="10"/>
    <rect x="223" y="33" width="34" height="32" class="terminal" rx="10"/>
    <text class="terminal" x="233" y="53">IF</text>
    <rect x="279" y="35" width="48" height="32" rx="10"/>
    <rect x="277" y="33" width="48" height="32" class="terminal" rx="10"/>
    <text class="terminal" x="287" y="53">NOT</text>
    <rect x="347" y="35" width="70" height="32" rx="10"/>
    <rect x="345" y="33" width="70" height="32" class="terminal" rx="10"/>
    <text class="terminal" x="355" y="53">EXISTS</text><a xmlns:xlink="http://www.w3.org/1999/xlink" xlink:href="#tableName" xlink:title="tableName">
    <rect x="457" y="3" width="88" height="32"/>
    <rect x="455" y="1" width="88" height="32" class="nonterminal"/>
    <text class="nonterminal" x="465" y="21">tableName</text></a><rect x="176" y="145" width="26" height="32" rx="10"/>
    <rect x="174" y="143" width="26" height="32" class="terminal" rx="10"/>
    <text class="terminal" x="184" y="163">(</text><a xmlns:xlink="http://www.w3.org/1999/xlink" xlink:href="#columnName" xlink:title="columnName">
    <rect x="242" y="145" width="102" height="32"/>
    <rect x="240" y="143" width="102" height="32" class="nonterminal"/>
    <text class="nonterminal" x="250" y="163">columnName</text></a><a xmlns:xlink="http://www.w3.org/1999/xlink" xlink:href="#typeDef" xlink:title="typeDef">
    <rect x="364" y="145" width="70" height="32"/>
    <rect x="362" y="143" width="70" height="32" class="nonterminal"/>
    <text class="nonterminal" x="372" y="163">typeDef</text></a><rect x="242" y="101" width="24" height="32" rx="10"/>
    <rect x="240" y="99" width="24" height="32" class="terminal" rx="10"/>
    <text class="terminal" x="250" y="119">,</text>
    <rect x="474" y="145" width="26" height="32" rx="10"/>
    <rect x="472" y="143" width="26" height="32" class="terminal" rx="10"/>
    <text class="terminal" x="482" y="163">)</text>
    <rect x="176" y="211" width="38" height="32" rx="10"/>
    <rect x="174" y="209" width="38" height="32" class="terminal" rx="10"/>
    <text class="terminal" x="184" y="229">AS</text>
    <rect x="234" y="211" width="26" height="32" rx="10"/>
    <rect x="232" y="209" width="26" height="32" class="terminal" rx="10"/>
    <text class="terminal" x="242" y="229">(</text><a xmlns:xlink="http://www.w3.org/1999/xlink" xlink:href="#selectSql" xlink:title="selectSql">
    <rect x="280" y="211" width="76" height="32"/>
    <rect x="278" y="209" width="76" height="32" class="nonterminal"/>
    <text class="nonterminal" x="288" y="229">selectSql</text></a><rect x="376" y="211" width="26" height="32" rx="10"/>
    <rect x="374" y="209" width="26" height="32" class="terminal" rx="10"/>
    <text class="terminal" x="384" y="229">)</text>
    <rect x="462" y="211" width="24" height="32" rx="10"/>
    <rect x="460" y="209" width="24" height="32" class="terminal" rx="10"/>
    <text class="terminal" x="470" y="229">,</text><a xmlns:xlink="http://www.w3.org/1999/xlink" xlink:href="#castDef" xlink:title="castDef">
    <rect x="506" y="211" width="68" height="32"/>
    <rect x="504" y="209" width="68" height="32" class="nonterminal"/>
    <text class="nonterminal" x="514" y="229">castDef</text></a><rect x="674" y="211" width="24" height="32" rx="10"/>
    <rect x="672" y="209" width="24" height="32" class="terminal" rx="10"/>
    <text class="terminal" x="682" y="229">,</text><a xmlns:xlink="http://www.w3.org/1999/xlink" xlink:href="#indexDef" xlink:title="indexDef">
    <rect x="718" y="211" width="76" height="32"/>
    <rect x="716" y="209" width="76" height="32" class="nonterminal"/>
    <text class="nonterminal" x="726" y="229">indexDef</text></a><rect x="45" y="309" width="92" height="32" rx="10"/>
    <rect x="43" y="307" width="92" height="32" class="terminal" rx="10"/>
    <text class="terminal" x="53" y="327">timestamp</text>
    <rect x="157" y="309" width="26" height="32" rx="10"/>
    <rect x="155" y="307" width="26" height="32" class="terminal" rx="10"/>
    <text class="terminal" x="165" y="327">(</text><a xmlns:xlink="http://www.w3.org/1999/xlink" xlink:href="#columnRef" xlink:title="columnRef">
    <rect x="203" y="309" width="86" height="32"/>
    <rect x="201" y="307" width="86" height="32" class="nonterminal"/>
    <text class="nonterminal" x="211" y="327">columnRef</text></a><rect x="309" y="309" width="26" height="32" rx="10"/>
    <rect x="307" y="307" width="26" height="32" class="terminal" rx="10"/>
    <text class="terminal" x="317" y="327">)</text>
    <rect x="375" y="341" width="98" height="32" rx="10"/>
    <rect x="373" y="339" width="98" height="32" class="terminal" rx="10"/>
    <text class="terminal" x="383" y="359">PARTITION</text>
    <rect x="493" y="341" width="38" height="32" rx="10"/>
    <rect x="491" y="339" width="38" height="32" class="terminal" rx="10"/>
    <text class="terminal" x="501" y="359">BY</text>
    <rect x="571" y="341" width="58" height="32" rx="10"/>
    <rect x="569" y="339" width="58" height="32" class="terminal" rx="10"/>
    <text class="terminal" x="579" y="359">NONE</text>
    <rect x="669" y="373" width="74" height="32" rx="10"/>
    <rect x="667" y="371" width="74" height="32" class="terminal" rx="10"/>
    <text class="terminal" x="677" y="391">BYPASS</text>
    <rect x="763" y="373" width="50" height="32" rx="10"/>
    <rect x="761" y="371" width="50" height="32" class="terminal" rx="10"/>
    <text class="terminal" x="771" y="391">WAL</text>
    <rect x="591" y="417" width="56" height="32" rx="10"/>
    <rect x="589" y="415" width="56" height="32" class="terminal" rx="10"/>
    <text class="terminal" x="599" y="435">YEAR</text>
    <rect x="591" y="461" width="70" height="32" rx="10"/>
    <rect x="589" y="459" width="70" height="32" class="terminal" rx="10"/>
    <text class="terminal" x="599" y="479">MONTH</text>
    <rect x="591" y="505" width="48" height="32" rx="10"/>
    <rect x="589" y="503" width="48" height="32" class="terminal" rx="10"/>
    <text class="terminal" x="599" y="523">DAY</text>
    <rect x="591" y="549" width="60" height="32" rx="10"/>
    <rect x="589" y="547" width="60" height="32" class="terminal" rx="10"/>
    <text class="terminal" x="599" y="567">HOUR</text>
    <rect x="741" y="481" width="74" height="32" rx="10"/>
    <rect x="739" y="479" width="74" height="32" class="terminal" rx="10"/>
    <text class="terminal" x="749" y="499">BYPASS</text>
    <rect x="855" y="449" width="50" height="32" rx="10"/>
    <rect x="853" y="447" width="50" height="32" class="terminal" rx="10"/>
    <text class="terminal" x="863" y="467">WAL</text>
    <rect x="235" y="635" width="58" height="32" rx="10"/>
    <rect x="233" y="633" width="58" height="32" class="terminal" rx="10"/>
    <text class="terminal" x="243" y="653">WITH</text><a xmlns:xlink="http://www.w3.org/1999/xlink" xlink:href="#tableParameter" xlink:title="tableParameter">
    <rect x="313" y="635" width="118" height="32"/>
    <rect x="311" y="633" width="118" height="32" class="nonterminal"/>
    <text class="nonterminal" x="321" y="653">tableParameter</text></a><a xmlns:xlink="http://www.w3.org/1999/xlink" xlink:href="#tableTargetVolumeDef" xlink:title="tableTargetVolumeDef">
    <rect x="491" y="635" width="162" height="32"/>
    <rect x="489" y="633" width="162" height="32" class="nonterminal"/>
    <text class="nonterminal" x="499" y="653">tableTargetVolumeDef</text></a><rect x="713" y="635" width="72" height="32" rx="10"/>
    <rect x="711" y="633" width="72" height="32" class="terminal" rx="10"/>
    <text class="terminal" x="721" y="653">OWNED</text>
    <rect x="805" y="635" width="38" height="32" rx="10"/>
    <rect x="803" y="633" width="38" height="32" class="terminal" rx="10"/>
    <text class="terminal" x="813" y="653">BY</text><a xmlns:xlink="http://www.w3.org/1999/xlink" xlink:href="#ownerName" xlink:title="ownerName">
    <rect x="863" y="635" width="96" height="32"/>
    <rect x="861" y="633" width="96" height="32" class="nonterminal"/>
    <text class="nonterminal" x="871" y="653">ownerName</text></a><path class="line" d="m17 17 h2 m0 0 h10 m72 0 h10 m0 0 h10 m62 0 h10 m20 0 h10 m0 0 h202 m-232 0 h20 m212 0 h20 m-252 0 q10 0 10 10 m232 0 q0 -10 10 -10 m-242 10 v12 m232 0 v-12 m-232 12 q0 10 10 10 m212 0 q10 0 10 -10 m-222 10 h10 m34 0 h10 m0 0 h10 m48 0 h10 m0 0 h10 m70 0 h10 m20 -32 h10 m88 0 h10 m2 0 l2 0 m2 0 l2 0 m2 0 l2 0 m-433 142 l2 0 m2 0 l2 0 m2 0 l2 0 m22 0 h10 m26 0 h10 m20 0 h10 m102 0 h10 m0 0 h10 m70 0 h10 m-232 0 l20 0 m-1 0 q-9 0 -9 -10 l0 -24 q0 -10 10 -10 m212 44 l20 0 m-20 0 q10 0 10 -10 l0 -24 q0 -10 -10 -10 m-212 0 h10 m24 0 h10 m0 0 h168 m20 44 h10 m26 0 h10 m0 0 h334 m-698 0 h20 m678 0 h20 m-718 0 q10 0 10 10 m698 0 q0 -10 10 -10 m-708 10 v46 m698 0 v-46 m-698 46 q0 10 10 10 m678 0 q10 0 10 -10 m-688 10 h10 m38 0 h10 m0 0 h10 m26 0 h10 m0 0 h10 m76 0 h10 m0 0 h10 m26 0 h10 m40 0 h10 m24 0 h10 m0 0 h10 m68 0 h10 m-152 0 l20 0 m-1 0 q-9 0 -9 -10 l0 -12 q0 -10 10 -10 m132 32 l20 0 m-20 0 q10 0 10 -10 l0 -12 q0 -10 -10 -10 m-132 0 h10 m0 0 h122 m-172 32 h20 m172 0 h20 m-212 0 q10 0 10 10 m192 0 q0 -10 10 -10 m-202 10 v14 m192 0 v-14 m-192 14 q0 10 10 10 m172 0 q10 0 10 -10 m-182 10 h10 m0 0 h162 m60 -34 h10 m24 0 h10 m0 0 h10 m76 0 h10 m-160 0 l20 0 m-1 0 q-9 0 -9 -10 l0 -12 q0 -10 10 -10 m140 32 l20 0 m-20 0 q10 0 10 -10 l0 -12 q0 -10 -10 -10 m-140 0 h10 m0 0 h130 m-180 32 h20 m180 0 h20 m-220 0 q10 0 10 10 m200 0 q0 -10 10 -10 m-210 10 v14 m200 0 v-14 m-200 14 q0 10 10 10 m180 0 q10 0 10 -10 m-190 10 h10 m0 0 h170 m42 -100 l2 0 m2 0 l2 0 m2 0 l2 0 m-873 132 l2 0 m2 0 l2 0 m2 0 l2 0 m22 0 h10 m0 0 h930 m-960 0 h20 m940 0 h20 m-980 0 q10 0 10 10 m960 0 q0 -10 10 -10 m-970 10 v12 m960 0 v-12 m-960 12 q0 10 10 10 m940 0 q10 0 10 -10 m-950 10 h10 m92 0 h10 m0 0 h10 m26 0 h10 m0 0 h10 m86 0 h10 m0 0 h10 m26 0 h10 m20 0 h10 m0 0 h580 m-610 0 h20 m590 0 h20 m-630 0 q10 0 10 10 m610 0 q0 -10 10 -10 m-620 10 v12 m610 0 v-12 m-610 12 q0 10 10 10 m590 0 q10 0 10 -10 m-600 10 h10 m98 0 h10 m0 0 h10 m38 0 h10 m20 0 h10 m58 0 h10 m20 0 h10 m0 0 h154 m-184 0 h20 m164 0 h20 m-204 0 q10 0 10 10 m184 0 q0 -10 10 -10 m-194 10 v12 m184 0 v-12 m-184 12 q0 10 10 10 m164 0 q10 0 10 -10 m-174 10 h10 m74 0 h10 m0 0 h10 m50 0 h10 m20 -32 h92 m-394 0 h20 m374 0 h20 m-414 0 q10 0 10 10 m394 0 q0 -10 10 -10 m-404 10 v56 m394 0 v-56 m-394 56 q0 10 10 10 m374 0 q10 0 10 -10 m-364 10 h10 m56 0 h10 m0 0 h14 m-110 0 h20 m90 0 h20 m-130 0 q10 0 10 10 m110 0 q0 -10 10 -10 m-120 10 v24 m110 0 v-24 m-110 24 q0 10 10 10 m90 0 q10 0 10 -10 m-100 10 h10 m70 0 h10 m-100 -10 v20 m110 0 v-20 m-110 20 v24 m110 0 v-24 m-110 24 q0 10 10 10 m90 0 q10 0 10 -10 m-100 10 h10 m48 0 h10 m0 0 h22 m-100 -10 v20 m110 0 v-20 m-110 20 v24 m110 0 v-24 m-110 24 q0 10 10 10 m90 0 q10 0 10 -10 m-100 10 h10 m60 0 h10 m0 0 h10 m40 -132 h10 m0 0 h194 m-224 0 h20 m204 0 h20 m-244 0 q10 0 10 10 m224 0 q0 -10 10 -10 m-234 10 v12 m224 0 v-12 m-224 12 q0 10 10 10 m204 0 q10 0 10 -10 m-194 10 h10 m0 0 h84 m-114 0 h20 m94 0 h20 m-134 0 q10 0 10 10 m114 0 q0 -10 10 -10 m-124 10 v12 m114 0 v-12 m-114 12 q0 10 10 10 m94 0 q10 0 10 -10 m-104 10 h10 m74 0 h10 m20 -32 h10 m50 0 h10 m82 -172 l2 0 m2 0 l2 0 m2 0 l2 0 m-814 326 l2 0 m2 0 l2 0 m2 0 l2 0 m22 0 h10 m0 0 h206 m-236 0 h20 m216 0 h20 m-256 0 q10 0 10 10 m236 0 q0 -10 10 -10 m-246 10 v12 m236 0 v-12 m-236 12 q0 10 10 10 m216 0 q10 0 10 -10 m-226 10 h10 m58 0 h10 m0 0 h10 m118 0 h10 m40 -32 h10 m0 0 h172 m-202 0 h20 m182 0 h20 m-222 0 q10 0 10 10 m202 0 q0 -10 10 -10 m-212 10 v12 m202 0 v-12 m-202 12 q0 10 10 10 m182 0 q10 0 10 -10 m-192 10 h10 m162 0 h10 m40 -32 h10 m0 0 h256 m-286 0 h20 m266 0 h20 m-306 0 q10 0 10 10 m286 0 q0 -10 10 -10 m-296 10 v12 m286 0 v-12 m-286 12 q0 10 10 10 m266 0 q10 0 10 -10 m-276 10 h10 m72 0 h10 m0 0 h10 m38 0 h10 m0 0 h10 m96 0 h10 m23 -32 h-3"/>
    <polygon points="997 617 1005 613 1005 621"/>
    <polygon points="997 617 989 613 989 621"/>
</svg>