<svg xmlns="http://www.w3.org/2000/svg" width="941" height="113">
    <defs>
        <style type="text/css">
            @namespace "http://www.w3.org/2000/svg";
            .line                 {fill: none; stroke: #636273;}
            .bold-line            {stroke: #636273; shape-rendering: crispEdges; stroke-width: 2; }
            .thin-line           {stroke: #636273; shape-rendering: crispEdges}
            .filled              {fill: #636273; stroke: none;}
            text.terminal        {font-family: -apple-system, BlinkMacSystemFont, "Segoe UI", Roboto, Ubuntu, Cantarell, Helvetica, sans-serif;
            font-size: 12px;
            fill: #ffffff;
            font-weight: bold;
            }
            text.nonterminal     {font-family: -apple-system, BlinkMacSystemFont, "Segoe UI", Roboto, Ubuntu, Cantarell, Helvetica, sans-serif;
            font-size: 12px;
            fill: #e289a4;
            font-weight: normal;
            }
            text.regexp          {font-family: -apple-system, BlinkMacSystemFont, "Segoe UI", Roboto, Ubuntu, Cantarell, Helvetica, sans-serif;
            font-size: 12px;
            fill: #00141F;
            font-weight: normal;
            }
            rect, circle, polygon {fill: none; stroke: none;}
            rect.terminal        {fill: none; stroke: #be2f5b;}
            rect.nonterminal     {fill: rgba(255,255,255,0.1); stroke: none;}
            rect.text            {fill: none; stroke: none;}
            polygon.regexp       {fill: #C7ECFF; stroke: #038cbc;}
        </style>
    </defs>
    <polygon points="9 17 1 13 1 21"></polygon>
         <polygon points="17 17 9 13 9 21"></polygon>
         <rect x="31" y="3" width="72" height="32" rx="10"></rect>
         <rect x="29" y="1" width="72" height="32" class="terminal" rx="10"></rect>
         <text class="terminal" x="39" y="21">CREATE</text>
         <rect x="123" y="3" width="56" height="32" rx="10"></rect>
         <rect x="121" y="1" width="56" height="32" class="terminal" rx="10"></rect>
         <text class="terminal" x="131" y="21">USER</text>
         <rect x="219" y="35" width="34" height="32" rx="10"></rect>
         <rect x="217" y="33" width="34" height="32" class="terminal" rx="10"></rect>
         <text class="terminal" x="227" y="53">IF</text>
         <rect x="273" y="35" width="48" height="32" rx="10"></rect>
         <rect x="271" y="33" width="48" height="32" class="terminal" rx="10"></rect>
         <text class="terminal" x="281" y="53">NOT</text>
         <rect x="341" y="35" width="70" height="32" rx="10"></rect>
         <rect x="339" y="33" width="70" height="32" class="terminal" rx="10"></rect>
         <text class="terminal" x="349" y="53">EXISTS</text><a xmlns:xlink="http://www.w3.org/1999/xlink" xlink:href="#userName" xlink:title="userName">
            <rect x="451" y="3" width="84" height="32"></rect>
            <rect x="449" y="1" width="84" height="32" class="nonterminal"></rect>
            <text class="nonterminal" x="459" y="21">userName</text></a><rect x="575" y="35" width="58" height="32" rx="10"></rect>
         <rect x="573" y="33" width="58" height="32" class="terminal" rx="10"></rect>
         <text class="terminal" x="583" y="53">WITH</text>
         <rect x="673" y="35" width="40" height="32" rx="10"></rect>
         <rect x="671" y="33" width="40" height="32" class="terminal" rx="10"></rect>
         <text class="terminal" x="681" y="53">NO</text>
         <rect x="733" y="35" width="100" height="32" rx="10"></rect>
         <rect x="731" y="33" width="100" height="32" class="terminal" rx="10"></rect>
         <text class="terminal" x="741" y="53">PASSWORD</text>
         <rect x="673" y="79" width="100" height="32" rx="10"></rect>
         <rect x="671" y="77" width="100" height="32" class="terminal" rx="10"></rect>
         <text class="terminal" x="681" y="97">PASSWORD</text><a xmlns:xlink="http://www.w3.org/1999/xlink" xlink:href="#password" xlink:title="password">
            <rect x="793" y="79" width="80" height="32"></rect>
            <rect x="791" y="77" width="80" height="32" class="nonterminal"></rect>
            <text class="nonterminal" x="801" y="97">password</text></a><path class="line" d="m17 17 h2 m0 0 h10 m72 0 h10 m0 0 h10 m56 0 h10 m20 0 h10 m0 0 h202 m-232 0 h20 m212 0 h20 m-252 0 q10 0 10 10 m232 0 q0 -10 10 -10 m-242 10 v12 m232 0 v-12 m-232 12 q0 10 10 10 m212 0 q10 0 10 -10 m-222 10 h10 m34 0 h10 m0 0 h10 m48 0 h10 m0 0 h10 m70 0 h10 m20 -32 h10 m84 0 h10 m20 0 h10 m0 0 h328 m-358 0 h20 m338 0 h20 m-378 0 q10 0 10 10 m358 0 q0 -10 10 -10 m-368 10 v12 m358 0 v-12 m-358 12 q0 10 10 10 m338 0 q10 0 10 -10 m-348 10 h10 m58 0 h10 m20 0 h10 m40 0 h10 m0 0 h10 m100 0 h10 m0 0 h40 m-240 0 h20 m220 0 h20 m-260 0 q10 0 10 10 m240 0 q0 -10 10 -10 m-250 10 v24 m240 0 v-24 m-240 24 q0 10 10 10 m220 0 q10 0 10 -10 m-230 10 h10 m100 0 h10 m0 0 h10 m80 0 h10 m43 -76 h-3"></path>
         <polygon points="931 17 939 13 939 21"></polygon>
         <polygon points="931 17 923 13 923 21"></polygon>
</svg>