<svg xmlns="http://www.w3.org/2000/svg" width="971" height="717">
    <defs>
        <style type="text/css">
            @namespace "http://www.w3.org/2000/svg";
            .line                 {fill: none; stroke: #636273;}
            .bold-line            {stroke: #636273; shape-rendering: crispEdges; stroke-width: 2; }
            .thin-line           {stroke: #636273; shape-rendering: crispEdges}
            .filled              {fill: #636273; stroke: none;}
            text.terminal        {font-family: -apple-system, BlinkMacSystemFont, "Segoe UI", Roboto, Ubuntu, Cantarell, Helvetica, sans-serif;
            font-size: 12px;
            fill: #ffffff;
            font-weight: bold;
            }
            text.nonterminal     {font-family: -apple-system, BlinkMacSystemFont, "Segoe UI", Roboto, Ubuntu, Cantarell, Helvetica, sans-serif;
            font-size: 12px;
            fill: #e289a4;
            font-weight: normal;
            }
            text.regexp          {font-family: -apple-system, BlinkMacSystemFont, "Segoe UI", Roboto, Ubuntu, Cantarell, Helvetica, sans-serif;
            font-size: 12px;
            fill: #00141F;
            font-weight: normal;
            }
            rect, circle, polygon {fill: none; stroke: none;}
            rect.terminal        {fill: none; stroke: #be2f5b;}
            rect.nonterminal     {fill: rgba(255,255,255,0.1); stroke: none;}
            rect.text            {fill: none; stroke: none;}
            polygon.regexp       {fill: #C7ECFF; stroke: #038cbc;}
        </style>
    </defs>
    <polygon points="9 17 1 13 1 21"></polygon>
         <polygon points="17 17 9 13 9 21"></polygon>
         <rect x="31" y="3" width="72" height="32" rx="10"></rect>
         <rect x="29" y="1" width="72" height="32" class="terminal" rx="10"></rect>
         <text class="terminal" x="39" y="21">CREATE</text>
         <rect x="123" y="3" width="122" height="32" rx="10"></rect>
         <rect x="121" y="1" width="122" height="32" class="terminal" rx="10"></rect>
         <text class="terminal" x="131" y="21">MATERIALIZED</text>
         <rect x="265" y="3" width="58" height="32" rx="10"></rect>
         <rect x="263" y="1" width="58" height="32" class="terminal" rx="10"></rect>
         <text class="terminal" x="273" y="21">VIEW</text>
         <rect x="363" y="35" width="34" height="32" rx="10"></rect>
         <rect x="361" y="33" width="34" height="32" class="terminal" rx="10"></rect>
         <text class="terminal" x="371" y="53">IF</text>
         <rect x="417" y="35" width="48" height="32" rx="10"></rect>
         <rect x="415" y="33" width="48" height="32" class="terminal" rx="10"></rect>
         <text class="terminal" x="425" y="53">NOT</text>
         <rect x="485" y="35" width="70" height="32" rx="10"></rect>
         <rect x="483" y="33" width="70" height="32" class="terminal" rx="10"></rect>
         <text class="terminal" x="493" y="53">EXISTS</text><a xmlns:xlink="http://www.w3.org/1999/xlink" xlink:href="#viewName" xlink:title="viewName">
            <rect x="595" y="3" width="84" height="32"></rect>
            <rect x="593" y="1" width="84" height="32" class="nonterminal"></rect>
            <text class="nonterminal" x="603" y="21">viewName</text></a><rect x="45" y="133" width="98" height="32" rx="10"></rect>
         <rect x="43" y="131" width="98" height="32" class="terminal" rx="10"></rect>
         <text class="terminal" x="53" y="151">WITH BASE</text><a xmlns:xlink="http://www.w3.org/1999/xlink" xlink:href="#baseTableName" xlink:title="baseTableName">
            <rect x="163" y="133" width="122" height="32"></rect>
            <rect x="161" y="131" width="122" height="32" class="nonterminal"></rect>
            <text class="nonterminal" x="171" y="151">baseTableName</text></a><rect x="345" y="133" width="82" height="32" rx="10"></rect>
         <rect x="343" y="131" width="82" height="32" class="terminal" rx="10"></rect>
         <text class="terminal" x="353" y="151">REFRESH</text>
         <rect x="467" y="133" width="118" height="32" rx="10"></rect>
         <rect x="465" y="131" width="118" height="32" class="terminal" rx="10"></rect>
         <text class="terminal" x="475" y="151">INCREMENTAL</text>
         <rect x="487" y="209" width="64" height="32" rx="10"></rect>
         <rect x="485" y="207" width="64" height="32" class="terminal" rx="10"></rect>
         <text class="terminal" x="495" y="227">START</text><a xmlns:xlink="http://www.w3.org/1999/xlink" xlink:href="#timestamp" xlink:title="timestamp">
            <rect x="571" y="209" width="88" height="32"></rect>
            <rect x="569" y="207" width="88" height="32" class="nonterminal"></rect>
            <text class="nonterminal" x="579" y="227">timestamp</text></a><rect x="699" y="177" width="64" height="32" rx="10"></rect>
         <rect x="697" y="175" width="64" height="32" class="terminal" rx="10"></rect>
         <text class="terminal" x="707" y="195">EVERY</text><a xmlns:xlink="http://www.w3.org/1999/xlink" xlink:href="#interval" xlink:title="interval">
            <rect x="783" y="177" width="68" height="32"></rect>
            <rect x="781" y="175" width="68" height="32" class="nonterminal"></rect>
            <text class="nonterminal" x="791" y="195">interval</text></a><rect x="911" y="101" width="38" height="32" rx="10"></rect>
         <rect x="909" y="99" width="38" height="32" class="terminal" rx="10"></rect>
         <text class="terminal" x="919" y="119">AS</text>
         <rect x="214" y="307" width="26" height="32" rx="10"></rect>
         <rect x="212" y="305" width="26" height="32" class="terminal" rx="10"></rect>
         <text class="terminal" x="222" y="325">(</text><a xmlns:xlink="http://www.w3.org/1999/xlink" xlink:href="#query" xlink:title="query">
            <rect x="280" y="275" width="56" height="32"></rect>
            <rect x="278" y="273" width="56" height="32" class="nonterminal"></rect>
            <text class="nonterminal" x="288" y="293">query</text></a><rect x="376" y="307" width="26" height="32" rx="10"></rect>
         <rect x="374" y="305" width="26" height="32" class="terminal" rx="10"></rect>
         <text class="terminal" x="384" y="325">)</text>
         <rect x="462" y="307" width="100" height="32" rx="10"></rect>
         <rect x="460" y="305" width="100" height="32" class="terminal" rx="10"></rect>
         <text class="terminal" x="470" y="325">TIMESTAMP</text>
         <rect x="582" y="307" width="26" height="32" rx="10"></rect>
         <rect x="580" y="305" width="26" height="32" class="terminal" rx="10"></rect>
         <text class="terminal" x="590" y="325">(</text><a xmlns:xlink="http://www.w3.org/1999/xlink" xlink:href="#columnRef" xlink:title="columnRef">
            <rect x="628" y="307" width="86" height="32"></rect>
            <rect x="626" y="305" width="86" height="32" class="nonterminal"></rect>
            <text class="nonterminal" x="636" y="325">columnRef</text></a><rect x="734" y="307" width="26" height="32" rx="10"></rect>
         <rect x="732" y="305" width="26" height="32" class="terminal" rx="10"></rect>
         <text class="terminal" x="742" y="325">)</text>
         <rect x="89" y="389" width="98" height="32" rx="10"></rect>
         <rect x="87" y="387" width="98" height="32" class="terminal" rx="10"></rect>
         <text class="terminal" x="97" y="407">PARTITION</text>
         <rect x="207" y="389" width="38" height="32" rx="10"></rect>
         <rect x="205" y="387" width="38" height="32" class="terminal" rx="10"></rect>
         <text class="terminal" x="215" y="407">BY</text>
         <rect x="285" y="389" width="56" height="32" rx="10"></rect>
         <rect x="283" y="387" width="56" height="32" class="terminal" rx="10"></rect>
         <text class="terminal" x="293" y="407">YEAR</text>
         <rect x="285" y="433" width="70" height="32" rx="10"></rect>
         <rect x="283" y="431" width="70" height="32" class="terminal" rx="10"></rect>
         <text class="terminal" x="293" y="451">MONTH</text>
         <rect x="285" y="477" width="48" height="32" rx="10"></rect>
         <rect x="283" y="475" width="48" height="32" class="terminal" rx="10"></rect>
         <text class="terminal" x="293" y="495">DAY</text>
         <rect x="285" y="521" width="60" height="32" rx="10"></rect>
         <rect x="283" y="519" width="60" height="32" class="terminal" rx="10"></rect>
         <text class="terminal" x="293" y="539">HOUR</text>
         <rect x="415" y="421" width="44" height="32" rx="10"></rect>
         <rect x="413" y="419" width="44" height="32" class="terminal" rx="10"></rect>
         <text class="terminal" x="423" y="439">TTL</text><a xmlns:xlink="http://www.w3.org/1999/xlink" xlink:href="#n" xlink:title="n">
            <rect x="479" y="421" width="28" height="32"></rect>
            <rect x="477" y="419" width="28" height="32" class="nonterminal"></rect>
            <text class="nonterminal" x="487" y="439">n</text></a><rect x="547" y="421" width="68" height="32" rx="10"></rect>
         <rect x="545" y="419" width="68" height="32" class="terminal" rx="10"></rect>
         <text class="terminal" x="555" y="439">HOURS</text>
         <rect x="547" y="465" width="56" height="32" rx="10"></rect>
         <rect x="545" y="463" width="56" height="32" class="terminal" rx="10"></rect>
         <text class="terminal" x="555" y="483">DAYS</text>
         <rect x="547" y="509" width="68" height="32" rx="10"></rect>
         <rect x="545" y="507" width="68" height="32" class="terminal" rx="10"></rect>
         <text class="terminal" x="555" y="527">WEEKS</text>
         <rect x="547" y="553" width="80" height="32" rx="10"></rect>
         <rect x="545" y="551" width="80" height="32" class="terminal" rx="10"></rect>
         <text class="terminal" x="555" y="571">MONTHS</text>
         <rect x="547" y="597" width="64" height="32" rx="10"></rect>
         <rect x="545" y="595" width="64" height="32" class="terminal" rx="10"></rect>
         <text class="terminal" x="555" y="615">YEARS</text><a xmlns:xlink="http://www.w3.org/1999/xlink" xlink:href="#viewTargetVolumeDef" xlink:title="viewTargetVolumeDef">
            <rect x="727" y="389" width="158" height="32"></rect>
            <rect x="725" y="387" width="158" height="32" class="nonterminal"></rect>
            <text class="nonterminal" x="735" y="407">viewTargetVolumeDef</text></a><rect x="677" y="683" width="72" height="32" rx="10"></rect>
         <rect x="675" y="681" width="72" height="32" class="terminal" rx="10"></rect>
         <text class="terminal" x="685" y="701">OWNED</text>
         <rect x="769" y="683" width="38" height="32" rx="10"></rect>
         <rect x="767" y="681" width="38" height="32" class="terminal" rx="10"></rect>
         <text class="terminal" x="777" y="701">BY</text><a xmlns:xlink="http://www.w3.org/1999/xlink" xlink:href="#ownerName" xlink:title="ownerName">
            <rect x="827" y="683" width="96" height="32"></rect>
            <rect x="825" y="681" width="96" height="32" class="nonterminal"></rect>
            <text class="nonterminal" x="835" y="701">ownerName</text></a><path class="line" d="m17 17 h2 m0 0 h10 m72 0 h10 m0 0 h10 m122 0 h10 m0 0 h10 m58 0 h10 m20 0 h10 m0 0 h202 m-232 0 h20 m212 0 h20 m-252 0 q10 0 10 10 m232 0 q0 -10 10 -10 m-242 10 v12 m232 0 v-12 m-232 12 q0 10 10 10 m212 0 q10 0 10 -10 m-222 10 h10 m34 0 h10 m0 0 h10 m48 0 h10 m0 0 h10 m70 0 h10 m20 -32 h10 m84 0 h10 m2 0 l2 0 m2 0 l2 0 m2 0 l2 0 m-698 98 l2 0 m2 0 l2 0 m2 0 l2 0 m22 0 h10 m0 0 h250 m-280 0 h20 m260 0 h20 m-300 0 q10 0 10 10 m280 0 q0 -10 10 -10 m-290 10 v12 m280 0 v-12 m-280 12 q0 10 10 10 m260 0 q10 0 10 -10 m-270 10 h10 m98 0 h10 m0 0 h10 m122 0 h10 m40 -32 h10 m0 0 h536 m-566 0 h20 m546 0 h20 m-586 0 q10 0 10 10 m566 0 q0 -10 10 -10 m-576 10 v12 m566 0 v-12 m-566 12 q0 10 10 10 m546 0 q10 0 10 -10 m-556 10 h10 m82 0 h10 m20 0 h10 m118 0 h10 m0 0 h266 m-424 0 h20 m404 0 h20 m-444 0 q10 0 10 10 m424 0 q0 -10 10 -10 m-434 10 v24 m424 0 v-24 m-424 24 q0 10 10 10 m404 0 q10 0 10 -10 m-394 10 h10 m0 0 h182 m-212 0 h20 m192 0 h20 m-232 0 q10 0 10 10 m212 0 q0 -10 10 -10 m-222 10 v12 m212 0 v-12 m-212 12 q0 10 10 10 m192 0 q10 0 10 -10 m-202 10 h10 m64 0 h10 m0 0 h10 m88 0 h10 m20 -32 h10 m64 0 h10 m0 0 h10 m68 0 h10 m40 -76 h10 m38 0 h10 m2 0 l2 0 m2 0 l2 0 m2 0 l2 0 m-799 174 l2 0 m2 0 l2 0 m2 0 l2 0 m22 0 h10 m0 0 h36 m-66 0 h20 m46 0 h20 m-86 0 q10 0 10 10 m66 0 q0 -10 10 -10 m-76 10 v12 m66 0 v-12 m-66 12 q0 10 10 10 m46 0 q10 0 10 -10 m-56 10 h10 m26 0 h10 m20 -32 h10 m56 0 h10 m20 0 h10 m0 0 h36 m-66 0 h20 m46 0 h20 m-86 0 q10 0 10 10 m66 0 q0 -10 10 -10 m-76 10 v12 m66 0 v-12 m-66 12 q0 10 10 10 m46 0 q10 0 10 -10 m-56 10 h10 m26 0 h10 m40 -32 h10 m0 0 h308 m-338 0 h20 m318 0 h20 m-358 0 q10 0 10 10 m338 0 q0 -10 10 -10 m-348 10 v12 m338 0 v-12 m-338 12 q0 10 10 10 m318 0 q10 0 10 -10 m-328 10 h10 m100 0 h10 m0 0 h10 m26 0 h10 m0 0 h10 m86 0 h10 m0 0 h10 m26 0 h10 m22 -32 l2 0 m2 0 l2 0 m2 0 l2 0 m-755 82 l2 0 m2 0 l2 0 m2 0 l2 0 m22 0 h10 m0 0 h588 m-618 0 h20 m598 0 h20 m-638 0 q10 0 10 10 m618 0 q0 -10 10 -10 m-628 10 v12 m618 0 v-12 m-618 12 q0 10 10 10 m598 0 q10 0 10 -10 m-608 10 h10 m98 0 h10 m0 0 h10 m38 0 h10 m20 0 h10 m56 0 h10 m0 0 h14 m-110 0 h20 m90 0 h20 m-130 0 q10 0 10 10 m110 0 q0 -10 10 -10 m-120 10 v24 m110 0 v-24 m-110 24 q0 10 10 10 m90 0 q10 0 10 -10 m-100 10 h10 m70 0 h10 m-100 -10 v20 m110 0 v-20 m-110 20 v24 m110 0 v-24 m-110 24 q0 10 10 10 m90 0 q10 0 10 -10 m-100 10 h10 m48 0 h10 m0 0 h22 m-100 -10 v20 m110 0 v-20 m-110 20 v24 m110 0 v-24 m-110 24 q0 10 10 10 m90 0 q10 0 10 -10 m-100 10 h10 m60 0 h10 m0 0 h10 m40 -132 h10 m0 0 h242 m-272 0 h20 m252 0 h20 m-292 0 q10 0 10 10 m272 0 q0 -10 10 -10 m-282 10 v12 m272 0 v-12 m-272 12 q0 10 10 10 m252 0 q10 0 10 -10 m-262 10 h10 m44 0 h10 m0 0 h10 m28 0 h10 m20 0 h10 m68 0 h10 m0 0 h12 m-120 0 h20 m100 0 h20 m-140 0 q10 0 10 10 m120 0 q0 -10 10 -10 m-130 10 v24 m120 0 v-24 m-120 24 q0 10 10 10 m100 0 q10 0 10 -10 m-110 10 h10 m56 0 h10 m0 0 h24 m-110 -10 v20 m120 0 v-20 m-120 20 v24 m120 0 v-24 m-120 24 q0 10 10 10 m100 0 q10 0 10 -10 m-110 10 h10 m68 0 h10 m0 0 h12 m-110 -10 v20 m120 0 v-20 m-120 20 v24 m120 0 v-24 m-120 24 q0 10 10 10 m100 0 q10 0 10 -10 m-110 10 h10 m80 0 h10 m-110 -10 v20 m120 0 v-20 m-120 20 v24 m120 0 v-24 m-120 24 q0 10 10 10 m100 0 q10 0 10 -10 m-110 10 h10 m64 0 h10 m0 0 h16 m80 -240 h10 m0 0 h168 m-198 0 h20 m178 0 h20 m-218 0 q10 0 10 10 m198 0 q0 -10 10 -10 m-208 10 v12 m198 0 v-12 m-198 12 q0 10 10 10 m178 0 q10 0 10 -10 m-188 10 h10 m158 0 h10 m22 -32 l2 0 m2 0 l2 0 m2 0 l2 0 m-292 294 l2 0 m2 0 l2 0 m2 0 l2 0 m22 0 h10 m0 0 h256 m-286 0 h20 m266 0 h20 m-306 0 q10 0 10 10 m286 0 q0 -10 10 -10 m-296 10 v12 m286 0 v-12 m-286 12 q0 10 10 10 m266 0 q10 0 10 -10 m-276 10 h10 m72 0 h10 m0 0 h10 m38 0 h10 m0 0 h10 m96 0 h10 m23 -32 h-3"></path>
         <polygon points="961 665 969 661 969 669"></polygon>
         <polygon points="961 665 953 661 953 669"></polygon>
</svg>