<svg xmlns="http://www.w3.org/2000/svg" width="913" height="625">
    <defs>
        <style type="text/css">
            @namespace "http://www.w3.org/2000/svg";
            .line                 {fill: none; stroke: #636273;}
            .bold-line            {stroke: #636273; shape-rendering: crispEdges; stroke-width: 2; }
            .thin-line           {stroke: #636273; shape-rendering: crispEdges}
            .filled              {fill: #636273; stroke: none;}
            text.terminal        {font-family: -apple-system, BlinkMacSystemFont, "Segoe UI", Roboto, Ubuntu, Cantarell, Helvetica, sans-serif;
            font-size: 12px;
            fill: #ffffff;
            font-weight: bold;
            }
            text.nonterminal     {font-family: -apple-system, BlinkMacSystemFont, "Segoe UI", Roboto, Ubuntu, Cantarell, Helvetica, sans-serif;
            font-size: 12px;
            fill: #e289a4;
            font-weight: normal;
            }
            text.regexp          {font-family: -apple-system, BlinkMacSystemFont, "Segoe UI", Roboto, Ubuntu, Cantarell, Helvetica, sans-serif;
            font-size: 12px;
            fill: #00141F;
            font-weight: normal;
            }
            rect, circle, polygon {fill: none; stroke: none;}
            rect.terminal        {fill: none; stroke: #be2f5b;}
            rect.nonterminal     {fill: rgba(255,255,255,0.1); stroke: none;}
            rect.text            {fill: none; stroke: none;}
            polygon.regexp       {fill: #C7ECFF; stroke: #038cbc;}
        </style>
    </defs>
    <polygon points="9 17 1 13 1 21"></polygon>
         <polygon points="17 17 9 13 9 21"></polygon>
         <rect x="31" y="3" width="72" height="32" rx="10"></rect>
         <rect x="29" y="1" width="72" height="32" class="terminal" rx="10"></rect>
         <text class="terminal" x="39" y="21">CREATE</text>
         <rect x="123" y="3" width="122" height="32" rx="10"></rect>
         <rect x="121" y="1" width="122" height="32" class="terminal" rx="10"></rect>
         <text class="terminal" x="131" y="21">MATERIALIZED</text>
         <rect x="265" y="3" width="58" height="32" rx="10"></rect>
         <rect x="263" y="1" width="58" height="32" class="terminal" rx="10"></rect>
         <text class="terminal" x="273" y="21">VIEW</text>
         <rect x="363" y="35" width="34" height="32" rx="10"></rect>
         <rect x="361" y="33" width="34" height="32" class="terminal" rx="10"></rect>
         <text class="terminal" x="371" y="53">IF</text>
         <rect x="417" y="35" width="48" height="32" rx="10"></rect>
         <rect x="415" y="33" width="48" height="32" class="terminal" rx="10"></rect>
         <text class="terminal" x="425" y="53">NOT</text>
         <rect x="485" y="35" width="70" height="32" rx="10"></rect>
         <rect x="483" y="33" width="70" height="32" class="terminal" rx="10"></rect>
         <text class="terminal" x="493" y="53">EXISTS</text><a xmlns:xlink="http://www.w3.org/1999/xlink" xlink:href="#viewName" xlink:title="viewName">
            <rect x="595" y="3" width="84" height="32"></rect>
            <rect x="593" y="1" width="84" height="32" class="nonterminal"></rect>
            <text class="nonterminal" x="603" y="21">viewName</text></a><rect x="45" y="133" width="98" height="32" rx="10"></rect>
         <rect x="43" y="131" width="98" height="32" class="terminal" rx="10"></rect>
         <text class="terminal" x="53" y="151">WITH BASE</text><a xmlns:xlink="http://www.w3.org/1999/xlink" xlink:href="#baseTableName" xlink:title="baseTableName">
            <rect x="163" y="133" width="122" height="32"></rect>
            <rect x="161" y="131" width="122" height="32" class="nonterminal"></rect>
            <text class="nonterminal" x="171" y="151">baseTableName</text></a><rect x="345" y="133" width="82" height="32" rx="10"></rect>
         <rect x="343" y="131" width="82" height="32" class="terminal" rx="10"></rect>
         <text class="terminal" x="353" y="151">REFRESH</text>
         <rect x="447" y="133" width="118" height="32" rx="10"></rect>
         <rect x="445" y="131" width="118" height="32" class="terminal" rx="10"></rect>
         <text class="terminal" x="455" y="151">INCREMENTAL</text>
         <rect x="605" y="101" width="38" height="32" rx="10"></rect>
         <rect x="603" y="99" width="38" height="32" class="terminal" rx="10"></rect>
         <text class="terminal" x="613" y="119">AS</text>
         <rect x="683" y="133" width="26" height="32" rx="10"></rect>
         <rect x="681" y="131" width="26" height="32" class="terminal" rx="10"></rect>
         <text class="terminal" x="691" y="151">(</text><a xmlns:xlink="http://www.w3.org/1999/xlink" xlink:href="#query" xlink:title="query">
            <rect x="749" y="101" width="56" height="32"></rect>
            <rect x="747" y="99" width="56" height="32" class="nonterminal"></rect>
            <text class="nonterminal" x="757" y="119">query</text></a><rect x="845" y="133" width="26" height="32" rx="10"></rect>
         <rect x="843" y="131" width="26" height="32" class="terminal" rx="10"></rect>
         <text class="terminal" x="853" y="151">)</text>
         <rect x="309" y="215" width="100" height="32" rx="10"></rect>
         <rect x="307" y="213" width="100" height="32" class="terminal" rx="10"></rect>
         <text class="terminal" x="317" y="233">TIMESTAMP</text>
         <rect x="429" y="215" width="26" height="32" rx="10"></rect>
         <rect x="427" y="213" width="26" height="32" class="terminal" rx="10"></rect>
         <text class="terminal" x="437" y="233">(</text><a xmlns:xlink="http://www.w3.org/1999/xlink" xlink:href="#columnRef" xlink:title="columnRef">
            <rect x="475" y="215" width="86" height="32"></rect>
            <rect x="473" y="213" width="86" height="32" class="nonterminal"></rect>
            <text class="nonterminal" x="483" y="233">columnRef</text></a><rect x="581" y="215" width="26" height="32" rx="10"></rect>
         <rect x="579" y="213" width="26" height="32" class="terminal" rx="10"></rect>
         <text class="terminal" x="589" y="233">)</text>
         <rect x="60" y="297" width="98" height="32" rx="10"></rect>
         <rect x="58" y="295" width="98" height="32" class="terminal" rx="10"></rect>
         <text class="terminal" x="68" y="315">PARTITION</text>
         <rect x="178" y="297" width="38" height="32" rx="10"></rect>
         <rect x="176" y="295" width="38" height="32" class="terminal" rx="10"></rect>
         <text class="terminal" x="186" y="315">BY</text>
         <rect x="256" y="297" width="56" height="32" rx="10"></rect>
         <rect x="254" y="295" width="56" height="32" class="terminal" rx="10"></rect>
         <text class="terminal" x="264" y="315">YEAR</text>
         <rect x="256" y="341" width="70" height="32" rx="10"></rect>
         <rect x="254" y="339" width="70" height="32" class="terminal" rx="10"></rect>
         <text class="terminal" x="264" y="359">MONTH</text>
         <rect x="256" y="385" width="48" height="32" rx="10"></rect>
         <rect x="254" y="383" width="48" height="32" class="terminal" rx="10"></rect>
         <text class="terminal" x="264" y="403">DAY</text>
         <rect x="256" y="429" width="60" height="32" rx="10"></rect>
         <rect x="254" y="427" width="60" height="32" class="terminal" rx="10"></rect>
         <text class="terminal" x="264" y="447">HOUR</text>
         <rect x="386" y="329" width="44" height="32" rx="10"></rect>
         <rect x="384" y="327" width="44" height="32" class="terminal" rx="10"></rect>
         <text class="terminal" x="394" y="347">TTL</text><a xmlns:xlink="http://www.w3.org/1999/xlink" xlink:href="#n" xlink:title="n">
            <rect x="450" y="329" width="28" height="32"></rect>
            <rect x="448" y="327" width="28" height="32" class="nonterminal"></rect>
            <text class="nonterminal" x="458" y="347">n</text></a><rect x="518" y="329" width="68" height="32" rx="10"></rect>
         <rect x="516" y="327" width="68" height="32" class="terminal" rx="10"></rect>
         <text class="terminal" x="526" y="347">HOURS</text>
         <rect x="518" y="373" width="56" height="32" rx="10"></rect>
         <rect x="516" y="371" width="56" height="32" class="terminal" rx="10"></rect>
         <text class="terminal" x="526" y="391">DAYS</text>
         <rect x="518" y="417" width="68" height="32" rx="10"></rect>
         <rect x="516" y="415" width="68" height="32" class="terminal" rx="10"></rect>
         <text class="terminal" x="526" y="435">WEEKS</text>
         <rect x="518" y="461" width="80" height="32" rx="10"></rect>
         <rect x="516" y="459" width="80" height="32" class="terminal" rx="10"></rect>
         <text class="terminal" x="526" y="479">MONTHS</text>
         <rect x="518" y="505" width="64" height="32" rx="10"></rect>
         <rect x="516" y="503" width="64" height="32" class="terminal" rx="10"></rect>
         <text class="terminal" x="526" y="523">YEARS</text><a xmlns:xlink="http://www.w3.org/1999/xlink" xlink:href="#viewTargetVolumeDef" xlink:title="viewTargetVolumeDef">
            <rect x="698" y="297" width="158" height="32"></rect>
            <rect x="696" y="295" width="158" height="32" class="nonterminal"></rect>
            <text class="nonterminal" x="706" y="315">viewTargetVolumeDef</text></a><rect x="619" y="591" width="72" height="32" rx="10"></rect>
         <rect x="617" y="589" width="72" height="32" class="terminal" rx="10"></rect>
         <text class="terminal" x="627" y="609">OWNED</text>
         <rect x="711" y="591" width="38" height="32" rx="10"></rect>
         <rect x="709" y="589" width="38" height="32" class="terminal" rx="10"></rect>
         <text class="terminal" x="719" y="609">BY</text><a xmlns:xlink="http://www.w3.org/1999/xlink" xlink:href="#ownerName" xlink:title="ownerName">
            <rect x="769" y="591" width="96" height="32"></rect>
            <rect x="767" y="589" width="96" height="32" class="nonterminal"></rect>
            <text class="nonterminal" x="777" y="609">ownerName</text></a><path class="line" d="m17 17 h2 m0 0 h10 m72 0 h10 m0 0 h10 m122 0 h10 m0 0 h10 m58 0 h10 m20 0 h10 m0 0 h202 m-232 0 h20 m212 0 h20 m-252 0 q10 0 10 10 m232 0 q0 -10 10 -10 m-242 10 v12 m232 0 v-12 m-232 12 q0 10 10 10 m212 0 q10 0 10 -10 m-222 10 h10 m34 0 h10 m0 0 h10 m48 0 h10 m0 0 h10 m70 0 h10 m20 -32 h10 m84 0 h10 m2 0 l2 0 m2 0 l2 0 m2 0 l2 0 m-698 98 l2 0 m2 0 l2 0 m2 0 l2 0 m22 0 h10 m0 0 h250 m-280 0 h20 m260 0 h20 m-300 0 q10 0 10 10 m280 0 q0 -10 10 -10 m-290 10 v12 m280 0 v-12 m-280 12 q0 10 10 10 m260 0 q10 0 10 -10 m-270 10 h10 m98 0 h10 m0 0 h10 m122 0 h10 m40 -32 h10 m0 0 h230 m-260 0 h20 m240 0 h20 m-280 0 q10 0 10 10 m260 0 q0 -10 10 -10 m-270 10 v12 m260 0 v-12 m-260 12 q0 10 10 10 m240 0 q10 0 10 -10 m-250 10 h10 m82 0 h10 m0 0 h10 m118 0 h10 m20 -32 h10 m38 0 h10 m20 0 h10 m0 0 h36 m-66 0 h20 m46 0 h20 m-86 0 q10 0 10 10 m66 0 q0 -10 10 -10 m-76 10 v12 m66 0 v-12 m-66 12 q0 10 10 10 m46 0 q10 0 10 -10 m-56 10 h10 m26 0 h10 m20 -32 h10 m56 0 h10 m20 0 h10 m0 0 h36 m-66 0 h20 m46 0 h20 m-86 0 q10 0 10 10 m66 0 q0 -10 10 -10 m-76 10 v12 m66 0 v-12 m-66 12 q0 10 10 10 m46 0 q10 0 10 -10 m-56 10 h10 m26 0 h10 m22 -32 l2 0 m2 0 l2 0 m2 0 l2 0 m-646 82 l2 0 m2 0 l2 0 m2 0 l2 0 m22 0 h10 m0 0 h308 m-338 0 h20 m318 0 h20 m-358 0 q10 0 10 10 m338 0 q0 -10 10 -10 m-348 10 v12 m338 0 v-12 m-338 12 q0 10 10 10 m318 0 q10 0 10 -10 m-328 10 h10 m100 0 h10 m0 0 h10 m26 0 h10 m0 0 h10 m86 0 h10 m0 0 h10 m26 0 h10 m22 -32 l2 0 m2 0 l2 0 m2 0 l2 0 m-631 82 l2 0 m2 0 l2 0 m2 0 l2 0 m22 0 h10 m0 0 h588 m-618 0 h20 m598 0 h20 m-638 0 q10 0 10 10 m618 0 q0 -10 10 -10 m-628 10 v12 m618 0 v-12 m-618 12 q0 10 10 10 m598 0 q10 0 10 -10 m-608 10 h10 m98 0 h10 m0 0 h10 m38 0 h10 m20 0 h10 m56 0 h10 m0 0 h14 m-110 0 h20 m90 0 h20 m-130 0 q10 0 10 10 m110 0 q0 -10 10 -10 m-120 10 v24 m110 0 v-24 m-110 24 q0 10 10 10 m90 0 q10 0 10 -10 m-100 10 h10 m70 0 h10 m-100 -10 v20 m110 0 v-20 m-110 20 v24 m110 0 v-24 m-110 24 q0 10 10 10 m90 0 q10 0 10 -10 m-100 10 h10 m48 0 h10 m0 0 h22 m-100 -10 v20 m110 0 v-20 m-110 20 v24 m110 0 v-24 m-110 24 q0 10 10 10 m90 0 q10 0 10 -10 m-100 10 h10 m60 0 h10 m0 0 h10 m40 -132 h10 m0 0 h242 m-272 0 h20 m252 0 h20 m-292 0 q10 0 10 10 m272 0 q0 -10 10 -10 m-282 10 v12 m272 0 v-12 m-272 12 q0 10 10 10 m252 0 q10 0 10 -10 m-262 10 h10 m44 0 h10 m0 0 h10 m28 0 h10 m20 0 h10 m68 0 h10 m0 0 h12 m-120 0 h20 m100 0 h20 m-140 0 q10 0 10 10 m120 0 q0 -10 10 -10 m-130 10 v24 m120 0 v-24 m-120 24 q0 10 10 10 m100 0 q10 0 10 -10 m-110 10 h10 m56 0 h10 m0 0 h24 m-110 -10 v20 m120 0 v-20 m-120 20 v24 m120 0 v-24 m-120 24 q0 10 10 10 m100 0 q10 0 10 -10 m-110 10 h10 m68 0 h10 m0 0 h12 m-110 -10 v20 m120 0 v-20 m-120 20 v24 m120 0 v-24 m-120 24 q0 10 10 10 m100 0 q10 0 10 -10 m-110 10 h10 m80 0 h10 m-110 -10 v20 m120 0 v-20 m-120 20 v24 m120 0 v-24 m-120 24 q0 10 10 10 m100 0 q10 0 10 -10 m-110 10 h10 m64 0 h10 m0 0 h16 m80 -240 h10 m0 0 h168 m-198 0 h20 m178 0 h20 m-218 0 q10 0 10 10 m198 0 q0 -10 10 -10 m-208 10 v12 m198 0 v-12 m-198 12 q0 10 10 10 m178 0 q10 0 10 -10 m-188 10 h10 m158 0 h10 m22 -32 l2 0 m2 0 l2 0 m2 0 l2 0 m-321 294 l2 0 m2 0 l2 0 m2 0 l2 0 m22 0 h10 m0 0 h256 m-286 0 h20 m266 0 h20 m-306 0 q10 0 10 10 m286 0 q0 -10 10 -10 m-296 10 v12 m286 0 v-12 m-286 12 q0 10 10 10 m266 0 q10 0 10 -10 m-276 10 h10 m72 0 h10 m0 0 h10 m38 0 h10 m0 0 h10 m96 0 h10 m23 -32 h-3"></path>
         <polygon points="903 573 911 569 911 577"></polygon>
         <polygon points="903 573 895 569 895 577"></polygon>
</svg>