<?xml version="1.0" encoding="UTF-8"?>
<svg xmlns="http://www.w3.org/2000/svg" width="691" height="113">
    <defs>
        <style type="text/css">
            @namespace "http://www.w3.org/2000/svg";
            .line                 {fill: none; stroke: #636273;}
            .bold-line            {stroke: #636273; shape-rendering: crispEdges; stroke-width: 2; }
            .thin-line            {stroke: #636273; shape-rendering: crispEdges}
            .filled               {fill: #636273; stroke: none;}
            text.terminal         {font-family: -apple-system, BlinkMacSystemFont, "Segoe UI", Roboto, Ubuntu, Cantarell, Helvetica, sans-serif;
            font-size: 12px;
            fill: #ffffff;
            font-weight: bold;
            }
            text.nonterminal      {font-family: -apple-system, BlinkMacSystemFont, "Segoe UI", Roboto, Ubuntu, Cantarell, Helvetica, sans-serif;
            font-size: 12px;
            fill: #e289a4;
            font-weight: normal;
            }
            text.regexp           {font-family: -apple-system, BlinkMacSystemFont, "Segoe UI", Roboto, Ubuntu, Cantarell, Helvetica, sans-serif;
            font-size: 12px;
            fill: #00141F;
            font-weight: normal;
            }
            rect, circle, polygon {fill: none; stroke: none;}
            rect.terminal         {fill: none; stroke: #be2f5b;}
            rect.nonterminal      {fill: rgba(255,255,255,0.1); stroke: none;}
            rect.text             {fill: none; stroke: none;}
            polygon.regexp        {fill: #C7ECFF; stroke: #038cbc;}
        </style>
    </defs>
    <polygon points="9 61 1 57 1 65"/>
    <polygon points="17 61 9 57 9 65"/>
    <rect x="31" y="47" width="82" height="32" rx="10"/>
    <rect x="29"
          y="45"
          width="82"
          height="32"
          class="terminal"
          rx="10"/>
    <text class="terminal" x="39" y="65">DECLARE</text>
    <rect x="153" y="47" width="86" height="32" rx="10"/>
    <rect x="151"
          y="45"
          width="86"
          height="32"
          class="terminal"
          rx="10"/>
    <text class="terminal" x="161" y="65">@variable</text>
    <rect x="259" y="47" width="34" height="32" rx="10"/>
    <rect x="257"
          y="45"
          width="34"
          height="32"
          class="terminal"
          rx="10"/>
    <text class="terminal" x="267" y="65">:=</text>
    <a xmlns:xlink="http://www.w3.org/1999/xlink"
       xlink:href="#expression"
       xlink:title="expression">
        <rect x="313" y="47" width="90" height="32"/>
        <rect x="311" y="45" width="90" height="32" class="nonterminal"/>
        <text class="nonterminal" x="321" y="65">expression</text>
    </a>
    <rect x="153" y="3" width="24" height="32" rx="10"/>
    <rect x="151"
          y="1"
          width="24"
          height="32"
          class="terminal"
          rx="10"/>
    <text class="terminal" x="161" y="21">,</text>
    <a xmlns:xlink="http://www.w3.org/1999/xlink"
       xlink:href="#withExpr"
       xlink:title="withExpr">
        <rect x="463" y="79" width="74" height="32"/>
        <rect x="461" y="77" width="74" height="32" class="nonterminal"/>
        <text class="nonterminal" x="471" y="97">withExpr</text>
    </a>
    <a xmlns:xlink="http://www.w3.org/1999/xlink"
       xlink:href="#selectExpr"
       xlink:title="selectExpr">
        <rect x="577" y="47" width="86" height="32"/>
        <rect x="575" y="45" width="86" height="32" class="nonterminal"/>
        <text class="nonterminal" x="585" y="65">selectExpr</text>
    </a>
    <path class="line"
          d="m17 61 h2 m0 0 h10 m82 0 h10 m20 0 h10 m86 0 h10 m0 0 h10 m34 0 h10 m0 0 h10 m90 0 h10 m-290 0 l20 0 m-1 0 q-9 0 -9 -10 l0 -24 q0 -10 10 -10 m270 44 l20 0 m-20 0 q10 0 10 -10 l0 -24 q0 -10 -10 -10 m-270 0 h10 m24 0 h10 m0 0 h226 m40 44 h10 m0 0 h84 m-114 0 h20 m94 0 h20 m-134 0 q10 0 10 10 m114 0 q0 -10 10 -10 m-124 10 v12 m114 0 v-12 m-114 12 q0 10 10 10 m94 0 q10 0 10 -10 m-104 10 h10 m74 0 h10 m20 -32 h10 m86 0 h10 m3 0 h-3"/>
    <polygon points="681 61 689 57 689 65"/>
    <polygon points="681 61 673 57 673 65"/>
</svg>
