<svg xmlns="http://www.w3.org/2000/svg" width="799" height="455">
    <defs>
        <style type="text/css">
            @namespace "http://www.w3.org/2000/svg";
            .line                 {fill: none; stroke: #636273;}
            .bold-line            {stroke: #636273; shape-rendering: crispEdges; stroke-width: 2; }
            .thin-line           {stroke: #636273; shape-rendering: crispEdges}
            .filled              {fill: #636273; stroke: none;}
            text.terminal        {font-family: -apple-system, BlinkMacSystemFont, "Segoe UI", Roboto, Ubuntu, Cantarell, Helvetica, sans-serif;
            font-size: 12px;
            fill: #ffffff;
            font-weight: bold;
            }
            text.nonterminal     {font-family: -apple-system, BlinkMacSystemFont, "Segoe UI", Roboto, Ubuntu, Cantarell, Helvetica, sans-serif;
            font-size: 12px;
            fill: #e289a4;
            font-weight: normal;
            }
            text.regexp          {font-family: -apple-system, BlinkMacSystemFont, "Segoe UI", Roboto, Ubuntu, Cantarell, Helvetica, sans-serif;
            font-size: 12px;
            fill: #00141F;
            font-weight: normal;
            }
            rect, circle, polygon {fill: none; stroke: none;}
            rect.terminal        {fill: none; stroke: #be2f5b;}
            rect.nonterminal     {fill: rgba(255,255,255,0.1); stroke: none;}
            rect.text            {fill: none; stroke: none;}
            polygon.regexp       {fill: #C7ECFF; stroke: #038cbc;}
        </style>
    </defs>
    <polygon points="11 17 3 13 3 21"></polygon>
         <polygon points="19 17 11 13 11 21"></polygon>
         <rect x="33" y="3" width="62" height="32" rx="10"></rect>
         <rect x="31" y="1" width="62" height="32" class="terminal" rx="10"></rect>
         <text class="terminal" x="41" y="21">ALTER</text>
         <rect x="115" y="3" width="62" height="32" rx="10"></rect>
         <rect x="113" y="1" width="62" height="32" class="terminal" rx="10"></rect>
         <text class="terminal" x="123" y="21">TABLE</text><a xmlns:xlink="http://www.w3.org/1999/xlink" xlink:href="#tableName" xlink:title="tableName">
            <rect x="197" y="3" width="88" height="32"></rect>
            <rect x="195" y="1" width="88" height="32" class="nonterminal"></rect>
            <text class="nonterminal" x="205" y="21">tableName</text></a><rect x="305" y="3" width="74" height="32" rx="10"></rect>
         <rect x="303" y="1" width="74" height="32" class="terminal" rx="10"></rect>
         <text class="terminal" x="313" y="21">DETACH</text>
         <rect x="399" y="3" width="98" height="32" rx="10"></rect>
         <rect x="397" y="1" width="98" height="32" class="terminal" rx="10"></rect>
         <text class="terminal" x="407" y="21">PARTITION</text>
         <rect x="45" y="113" width="52" height="32" rx="10"></rect>
         <rect x="43" y="111" width="52" height="32" class="terminal" rx="10"></rect>
         <text class="terminal" x="53" y="131">LIST</text><a xmlns:xlink="http://www.w3.org/1999/xlink" xlink:href="#partitionName" xlink:title="partitionName">
            <rect x="137" y="113" width="110" height="32"></rect>
            <rect x="135" y="111" width="110" height="32" class="nonterminal"></rect>
            <text class="nonterminal" x="145" y="131">partitionName</text></a><rect x="137" y="69" width="24" height="32" rx="10"></rect>
         <rect x="135" y="67" width="24" height="32" class="terminal" rx="10"></rect>
         <text class="terminal" x="145" y="87">,</text>
         <rect x="45" y="157" width="70" height="32" rx="10"></rect>
         <rect x="43" y="155" width="70" height="32" class="terminal" rx="10"></rect>
         <text class="terminal" x="53" y="175">WHERE</text><a xmlns:xlink="http://www.w3.org/1999/xlink" xlink:href="#timestampColumn" xlink:title="timestampColumn">
            <rect x="135" y="157" width="134" height="32"></rect>
            <rect x="133" y="155" width="134" height="32" class="nonterminal"></rect>
            <text class="nonterminal" x="143" y="175">timestampColumn</text></a><rect x="329" y="157" width="30" height="32" rx="10"></rect>
         <rect x="327" y="155" width="30" height="32" class="terminal" rx="10"></rect>
         <text class="terminal" x="337" y="175">=</text>
         <rect x="329" y="201" width="30" height="32" rx="10"></rect>
         <rect x="327" y="199" width="30" height="32" class="terminal" rx="10"></rect>
         <text class="terminal" x="337" y="219">&gt;</text>
         <rect x="329" y="245" width="30" height="32" rx="10"></rect>
         <rect x="327" y="243" width="30" height="32" class="terminal" rx="10"></rect>
         <text class="terminal" x="337" y="263">&lt;</text>
         <rect x="329" y="289" width="40" height="32" rx="10"></rect>
         <rect x="327" y="287" width="40" height="32" class="terminal" rx="10"></rect>
         <text class="terminal" x="337" y="307">&gt;=</text>
         <rect x="329" y="333" width="40" height="32" rx="10"></rect>
         <rect x="327" y="331" width="40" height="32" class="terminal" rx="10"></rect>
         <text class="terminal" x="337" y="351">&lt;=</text>
         <rect x="409" y="157" width="24" height="32" rx="10"></rect>
         <rect x="407" y="155" width="24" height="32" class="terminal" rx="10"></rect>
         <text class="terminal" x="417" y="175">'</text><a xmlns:xlink="http://www.w3.org/1999/xlink" xlink:href="#timestamp" xlink:title="timestamp">
            <rect x="453" y="157" width="88" height="32"></rect>
            <rect x="451" y="155" width="88" height="32" class="nonterminal"></rect>
            <text class="nonterminal" x="461" y="175">timestamp</text></a><rect x="561" y="157" width="24" height="32" rx="10"></rect>
         <rect x="559" y="155" width="24" height="32" class="terminal" rx="10"></rect>
         <text class="terminal" x="569" y="175">'</text>
         <rect x="309" y="421" width="36" height="32" rx="10"></rect>
         <rect x="307" y="419" width="36" height="32" class="terminal" rx="10"></rect>
         <text class="terminal" x="317" y="439">IN</text>
         <rect x="365" y="421" width="26" height="32" rx="10"></rect>
         <rect x="363" y="419" width="26" height="32" class="terminal" rx="10"></rect>
         <text class="terminal" x="373" y="439">(</text><a xmlns:xlink="http://www.w3.org/1999/xlink" xlink:href="#timestamp" xlink:title="timestamp">
            <rect x="431" y="421" width="88" height="32"></rect>
            <rect x="429" y="419" width="88" height="32" class="nonterminal"></rect>
            <text class="nonterminal" x="439" y="439">timestamp</text></a><rect x="431" y="377" width="24" height="32" rx="10"></rect>
         <rect x="429" y="375" width="24" height="32" class="terminal" rx="10"></rect>
         <text class="terminal" x="439" y="395">,</text>
         <rect x="559" y="421" width="26" height="32" rx="10"></rect>
         <rect x="557" y="419" width="26" height="32" class="terminal" rx="10"></rect>
         <text class="terminal" x="567" y="439">)</text><a xmlns:xlink="http://www.w3.org/1999/xlink" xlink:href="#squashPartitions" xlink:title="squashPartitions">
            <rect x="605" y="421" width="126" height="32"></rect>
            <rect x="603" y="419" width="126" height="32" class="nonterminal"></rect>
            <text class="nonterminal" x="613" y="439">squashPartitions</text></a><path class="line" d="m19 17 h2 m0 0 h10 m62 0 h10 m0 0 h10 m62 0 h10 m0 0 h10 m88 0 h10 m0 0 h10 m74 0 h10 m0 0 h10 m98 0 h10 m2 0 l2 0 m2 0 l2 0 m2 0 l2 0 m-516 110 l2 0 m2 0 l2 0 m2 0 l2 0 m22 0 h10 m52 0 h10 m20 0 h10 m110 0 h10 m-150 0 l20 0 m-1 0 q-9 0 -9 -10 l0 -24 q0 -10 10 -10 m130 44 l20 0 m-20 0 q10 0 10 -10 l0 -24 q0 -10 -10 -10 m-130 0 h10 m24 0 h10 m0 0 h86 m20 44 h484 m-746 0 h20 m726 0 h20 m-766 0 q10 0 10 10 m746 0 q0 -10 10 -10 m-756 10 v24 m746 0 v-24 m-746 24 q0 10 10 10 m726 0 q10 0 10 -10 m-736 10 h10 m70 0 h10 m0 0 h10 m134 0 h10 m40 0 h10 m30 0 h10 m0 0 h10 m-80 0 h20 m60 0 h20 m-100 0 q10 0 10 10 m80 0 q0 -10 10 -10 m-90 10 v24 m80 0 v-24 m-80 24 q0 10 10 10 m60 0 q10 0 10 -10 m-70 10 h10 m30 0 h10 m0 0 h10 m-70 -10 v20 m80 0 v-20 m-80 20 v24 m80 0 v-24 m-80 24 q0 10 10 10 m60 0 q10 0 10 -10 m-70 10 h10 m30 0 h10 m0 0 h10 m-70 -10 v20 m80 0 v-20 m-80 20 v24 m80 0 v-24 m-80 24 q0 10 10 10 m60 0 q10 0 10 -10 m-70 10 h10 m40 0 h10 m-70 -10 v20 m80 0 v-20 m-80 20 v24 m80 0 v-24 m-80 24 q0 10 10 10 m60 0 q10 0 10 -10 m-70 10 h10 m40 0 h10 m20 -176 h10 m24 0 h10 m0 0 h10 m88 0 h10 m0 0 h10 m24 0 h10 m0 0 h146 m-462 0 h20 m442 0 h20 m-482 0 q10 0 10 10 m462 0 q0 -10 10 -10 m-472 10 v244 m462 0 v-244 m-462 244 q0 10 10 10 m442 0 q10 0 10 -10 m-452 10 h10 m36 0 h10 m0 0 h10 m26 0 h10 m20 0 h10 m88 0 h10 m-128 0 l20 0 m-1 0 q-9 0 -9 -10 l0 -24 q0 -10 10 -10 m108 44 l20 0 m-20 0 q10 0 10 -10 l0 -24 q0 -10 -10 -10 m-108 0 h10 m24 0 h10 m0 0 h64 m20 44 h10 m26 0 h10 m0 0 h10 m126 0 h10 m43 -308 h-3"></path>
         <polygon points="789 127 797 123 797 131"></polygon>
         <polygon points="789 127 781 123 781 131"></polygon>
</svg>