<svg xmlns="http://www.w3.org/2000/svg" width="631" height="70">
    <defs>
        <style type="text/css">
            @namespace "http://www.w3.org/2000/svg";
            .line                 {fill: none; stroke: #636273;}
            .bold-line            {stroke: #636273; shape-rendering: crispEdges; stroke-width: 2; }
            .thin-line            {stroke: #636273; shape-rendering: crispEdges}
            .filled               {fill: #636273; stroke: none;}
            text.terminal         {font-family: -apple-system, BlinkMacSystemFont, "Segoe UI", Roboto, Ubuntu, Cantarell, Helvetica, sans-serif;
            font-size: 12px;
            fill: #ffffff;
            font-weight: bold;
            }
            text.nonterminal      {font-family: -apple-system, BlinkMacSystemFont, "Segoe UI", Roboto, Ubuntu, Cantarell, Helvetica, sans-serif;
            font-size: 12px;
            fill: #e289a4;
            font-weight: normal;
            }
            text.regexp           {font-family: -apple-system, BlinkMacSystemFont, "Segoe UI", Roboto, Ubuntu, Cantarell, Helvetica, sans-serif;
            font-size: 12px;
            fill: #00141F;
            font-weight: normal;
            }
            rect, circle, polygon {fill: none; stroke: none;}
            rect.terminal         {fill: none; stroke: #be2f5b;}
            rect.nonterminal      {fill: rgba(255,255,255,0.1); stroke: none;}
            rect.text             {fill: none; stroke: none;}
            polygon.regexp        {fill: #C7ECFF; stroke: #038cbc;}
        </style>
    </defs>
    <polygon points="9 17 1 13 1 21"/>
    <polygon points="17 17 9 13 9 21"/>
    <rect x="31" y="3" width="58" height="32" rx="10"/>
    <rect x="29" y="1" width="58" height="32" class="terminal" rx="10"/>
    <text class="terminal" x="39" y="21">DROP</text>
    <rect x="109" y="3" width="78" height="32" rx="10"/>
    <rect x="107" y="1" width="78" height="32" class="terminal" rx="10"/>
    <text class="terminal" x="117" y="21">SERVICE</text>
    <rect x="207" y="3" width="86" height="32" rx="10"/>
    <rect x="205" y="1" width="86" height="32" class="terminal" rx="10"/>
    <text class="terminal" x="215" y="21">ACCOUNT</text>
    <rect x="333" y="35" width="34" height="32" rx="10"/>
    <rect x="331" y="33" width="34" height="32" class="terminal" rx="10"/>
    <text class="terminal" x="341" y="53">IF</text>
    <rect x="387" y="35" width="70" height="32" rx="10"/>
    <rect x="385" y="33" width="70" height="32" class="terminal" rx="10"/>
    <text class="terminal" x="395" y="53">EXISTS</text><a xmlns:xlink="http://www.w3.org/1999/xlink" xlink:href="#accountName" xlink:title="accountName">
    <rect x="497" y="3" width="106" height="32"/>
    <rect x="495" y="1" width="106" height="32" class="nonterminal"/>
    <text class="nonterminal" x="505" y="21">accountName</text></a><path class="line" d="m17 17 h2 m0 0 h10 m58 0 h10 m0 0 h10 m78 0 h10 m0 0 h10 m86 0 h10 m20 0 h10 m0 0 h134 m-164 0 h20 m144 0 h20 m-184 0 q10 0 10 10 m164 0 q0 -10 10 -10 m-174 10 v12 m164 0 v-12 m-164 12 q0 10 10 10 m144 0 q10 0 10 -10 m-154 10 h10 m34 0 h10 m0 0 h10 m70 0 h10 m20 -32 h10 m106 0 h10 m3 0 h-3"/>
    <polygon points="621 17 629 13 629 21"/>
    <polygon points="621 17 613 13 613 21"/>
</svg>
