<svg xmlns="http://www.w3.org/2000/svg" width="541" height="37">
    <defs>
        <style type="text/css">
            @namespace "http://www.w3.org/2000/svg";
            .line                 {fill: none; stroke: #636273;}
            .bold-line            {stroke: #636273; shape-rendering: crispEdges; stroke-width: 2; }
            .thin-line           {stroke: #636273; shape-rendering: crispEdges}
            .filled              {fill: #636273; stroke: none;}
            text.terminal        {font-family: -apple-system, BlinkMacSystemFont, "Segoe UI", Roboto, Ubuntu, Cantarell, Helvetica, sans-serif;
            font-size: 12px;
            fill: #ffffff;
            font-weight: bold;
            }
            text.nonterminal     {font-family: -apple-system, BlinkMacSystemFont, "Segoe UI", Roboto, Ubuntu, Cantarell, Helvetica, sans-serif;
            font-size: 12px;
            fill: #e289a4;
            font-weight: normal;
            }
            text.regexp          {font-family: -apple-system, BlinkMacSystemFont, "Segoe UI", Roboto, Ubuntu, Cantarell, Helvetica, sans-serif;
            font-size: 12px;
            fill: #00141F;
            font-weight: normal;
            }
            rect, circle, polygon {fill: none; stroke: none;}
            rect.terminal        {fill: none; stroke: #be2f5b;}
            rect.nonterminal     {fill: rgba(255,255,255,0.1); stroke: none;}
            rect.text            {fill: none; stroke: none;}
            polygon.regexp       {fill: #C7ECFF; stroke: #038cbc;}
        </style>
    </defs>
    <polygon points="9 17 1 13 1 21"></polygon>
         <polygon points="17 17 9 13 9 21"></polygon>
         <rect x="31" y="3" width="70" height="32" rx="10"></rect>
         <rect x="29" y="1" width="70" height="32" class="terminal" rx="10"></rect>
         <text class="terminal" x="39" y="21">WHERE</text><a xmlns:xlink="http://www.w3.org/1999/xlink" xlink:href="#column" xlink:title="column">
            <rect x="121" y="3" width="64" height="32"></rect>
            <rect x="119" y="1" width="64" height="32" class="nonterminal"></rect>
            <text class="nonterminal" x="129" y="21">column</text></a><rect x="205" y="3" width="30" height="32" rx="10"></rect>
         <rect x="203" y="1" width="30" height="32" class="terminal" rx="10"></rect>
         <text class="terminal" x="213" y="21">=</text>
         <rect x="255" y="3" width="24" height="32" rx="10"></rect>
         <rect x="253" y="1" width="24" height="32" class="terminal" rx="10"></rect>
         <text class="terminal" x="263" y="21">'</text><a xmlns:xlink="http://www.w3.org/1999/xlink" xlink:href="#string" xlink:title="string">
            <rect x="299" y="3" width="56" height="32"></rect>
            <rect x="297" y="1" width="56" height="32" class="nonterminal"></rect>
            <text class="nonterminal" x="307" y="21">string</text></a><rect x="375" y="3" width="24" height="32" rx="10"></rect>
         <rect x="373" y="1" width="24" height="32" class="terminal" rx="10"></rect>
         <text class="terminal" x="383" y="21">'</text><a xmlns:xlink="http://www.w3.org/1999/xlink" xlink:href="#regexMatch" xlink:title="regexMatch">
            <rect x="419" y="3" width="94" height="32"></rect>
            <rect x="417" y="1" width="94" height="32" class="nonterminal"></rect>
            <text class="nonterminal" x="427" y="21">regexMatch</text></a><path class="line" d="m17 17 h2 m0 0 h10 m70 0 h10 m0 0 h10 m64 0 h10 m0 0 h10 m30 0 h10 m0 0 h10 m24 0 h10 m0 0 h10 m56 0 h10 m0 0 h10 m24 0 h10 m0 0 h10 m94 0 h10 m3 0 h-3"></path>
         <polygon points="531 17 539 13 539 21"></polygon>
         <polygon points="531 17 523 13 523 21"></polygon>
</svg>