<svg xmlns="http://www.w3.org/2000/svg" width="723" height="123">
    <defs>
        <style type="text/css">
            @namespace "http://www.w3.org/2000/svg";
            .line                 {fill: none; stroke: #636273;}
            .bold-line            {stroke: #636273; shape-rendering: crispEdges; stroke-width: 2; }
            .thin-line           {stroke: #636273; shape-rendering: crispEdges}
            .filled              {fill: #636273; stroke: none;}
            text.terminal        {font-family: -apple-system, BlinkMacSystemFont, "Segoe UI", Roboto, Ubuntu, Cantarell, Helvetica, sans-serif;
            font-size: 12px;
            fill: #ffffff;
            font-weight: bold;
            }
            text.nonterminal     {font-family: -apple-system, BlinkMacSystemFont, "Segoe UI", Roboto, Ubuntu, Cantarell, Helvetica, sans-serif;
            font-size: 12px;
            fill: #e289a4;
            font-weight: normal;
            }
            text.regexp          {font-family: -apple-system, BlinkMacSystemFont, "Segoe UI", Roboto, Ubuntu, Cantarell, Helvetica, sans-serif;
            font-size: 12px;
            fill: #00141F;
            font-weight: normal;
            }
            rect, circle, polygon {fill: none; stroke: none;}
            rect.terminal        {fill: none; stroke: #be2f5b;}
            rect.nonterminal     {fill: rgba(255,255,255,0.1); stroke: none;}
            rect.text            {fill: none; stroke: none;}
            polygon.regexp       {fill: #C7ECFF; stroke: #038cbc;}
        </style>
    </defs>
    <polygon points="9 17 1 13 1 21"></polygon>
         <polygon points="17 17 9 13 9 21"></polygon>
         <rect x="31" y="3" width="66" height="32" rx="10"></rect>
         <rect x="29" y="1" width="66" height="32" class="terminal" rx="10"></rect>
         <text class="terminal" x="39" y="21">GRANT</text>
         <rect x="117" y="3" width="76" height="32" rx="10"></rect>
         <rect x="115" y="1" width="76" height="32" class="terminal" rx="10"></rect>
         <text class="terminal" x="125" y="21">ASSUME</text>
         <rect x="213" y="3" width="78" height="32" rx="10"></rect>
         <rect x="211" y="1" width="78" height="32" class="terminal" rx="10"></rect>
         <text class="terminal" x="221" y="21">SERVICE</text>
         <rect x="311" y="3" width="86" height="32" rx="10"></rect>
         <rect x="309" y="1" width="86" height="32" class="terminal" rx="10"></rect>
         <text class="terminal" x="319" y="21">ACCOUNT</text><a xmlns:xlink="http://www.w3.org/1999/xlink" xlink:href="#serviceAccount" xlink:title="serviceAccount">
            <rect x="417" y="3" width="114" height="32"></rect>
            <rect x="415" y="1" width="114" height="32" class="nonterminal"></rect>
            <text class="nonterminal" x="425" y="21">serviceAccount</text></a><rect x="551" y="3" width="38" height="32" rx="10"></rect>
         <rect x="549" y="1" width="38" height="32" class="terminal" rx="10"></rect>
         <text class="terminal" x="559" y="21">TO</text><a xmlns:xlink="http://www.w3.org/1999/xlink" xlink:href="#entityName" xlink:title="entityName">
            <rect x="609" y="3" width="92" height="32"></rect>
            <rect x="607" y="1" width="92" height="32" class="nonterminal"></rect>
            <text class="nonterminal" x="617" y="21">entityName</text></a><rect x="435" y="89" width="58" height="32" rx="10"></rect>
         <rect x="433" y="87" width="58" height="32" class="terminal" rx="10"></rect>
         <text class="terminal" x="443" y="107">WITH</text>
         <rect x="513" y="89" width="66" height="32" rx="10"></rect>
         <rect x="511" y="87" width="66" height="32" class="terminal" rx="10"></rect>
         <text class="terminal" x="521" y="107">GRANT</text>
         <rect x="599" y="89" width="76" height="32" rx="10"></rect>
         <rect x="597" y="87" width="76" height="32" class="terminal" rx="10"></rect>
         <text class="terminal" x="607" y="107">OPTION</text>
         <path class="line" d="m17 17 h2 m0 0 h10 m66 0 h10 m0 0 h10 m76 0 h10 m0 0 h10 m78 0 h10 m0 0 h10 m86 0 h10 m0 0 h10 m114 0 h10 m0 0 h10 m38 0 h10 m0 0 h10 m92 0 h10 m2 0 l2 0 m2 0 l2 0 m2 0 l2 0 m-330 54 l2 0 m2 0 l2 0 m2 0 l2 0 m22 0 h10 m0 0 h250 m-280 0 h20 m260 0 h20 m-300 0 q10 0 10 10 m280 0 q0 -10 10 -10 m-290 10 v12 m280 0 v-12 m-280 12 q0 10 10 10 m260 0 q10 0 10 -10 m-270 10 h10 m58 0 h10 m0 0 h10 m66 0 h10 m0 0 h10 m76 0 h10 m23 -32 h-3"></path>
         <polygon points="713 71 721 67 721 75"></polygon>
         <polygon points="713 71 705 67 705 75"></polygon>
</svg>