<svg xmlns="http://www.w3.org/2000/svg" width="963" height="251">
    <defs>
        <style type="text/css">
            @namespace "http://www.w3.org/2000/svg";
            .line                 {fill: none; stroke: #636273;}
            .bold-line            {stroke: #636273; shape-rendering: crispEdges; stroke-width: 2; }
            .thin-line           {stroke: #636273; shape-rendering: crispEdges}
            .filled              {fill: #636273; stroke: none;}
            text.terminal        {font-family: -apple-system, BlinkMacSystemFont, "Segoe UI", Roboto, Ubuntu, Cantarell, Helvetica, sans-serif;
            font-size: 12px;
            fill: #ffffff;
            font-weight: bold;
            }
            text.nonterminal     {font-family: -apple-system, BlinkMacSystemFont, "Segoe UI", Roboto, Ubuntu, Cantarell, Helvetica, sans-serif;
            font-size: 12px;
            fill: #e289a4;
            font-weight: normal;
            }
            text.regexp          {font-family: -apple-system, BlinkMacSystemFont, "Segoe UI", Roboto, Ubuntu, Cantarell, Helvetica, sans-serif;
            font-size: 12px;
            fill: #00141F;
            font-weight: normal;
            }
            rect, circle, polygon {fill: none; stroke: none;}
            rect.terminal        {fill: none; stroke: #be2f5b;}
            rect.nonterminal     {fill: rgba(255,255,255,0.1); stroke: none;}
            rect.text            {fill: none; stroke: none;}
            polygon.regexp       {fill: #C7ECFF; stroke: #038cbc;}
        </style>
    </defs>
    <polygon points="9 61 1 57 1 65"></polygon>
         <polygon points="17 61 9 57 9 65"></polygon>
         <rect x="51" y="79" width="64" height="32" rx="10"></rect>
         <rect x="49" y="77" width="64" height="32" class="terminal" rx="10"></rect>
         <text class="terminal" x="59" y="97">INNER</text>
         <rect x="51" y="123" width="52" height="32" rx="10"></rect>
         <rect x="49" y="121" width="52" height="32" class="terminal" rx="10"></rect>
         <text class="terminal" x="59" y="141">LEFT</text>
         <rect x="155" y="47" width="54" height="32" rx="10"></rect>
         <rect x="153" y="45" width="54" height="32" class="terminal" rx="10"></rect>
         <text class="terminal" x="163" y="65">JOIN</text><a xmlns:xlink="http://www.w3.org/1999/xlink" xlink:href="#table" xlink:title="table">
            <rect x="249" y="47" width="52" height="32"></rect>
            <rect x="247" y="45" width="52" height="32" class="nonterminal"></rect>
            <text class="nonterminal" x="257" y="65">table</text></a><rect x="249" y="91" width="26" height="32" rx="10"></rect>
         <rect x="247" y="89" width="26" height="32" class="terminal" rx="10"></rect>
         <text class="terminal" x="257" y="109">(</text><a xmlns:xlink="http://www.w3.org/1999/xlink" xlink:href="#sub-query" xlink:title="sub-query">
            <rect x="295" y="91" width="84" height="32"></rect>
            <rect x="293" y="89" width="84" height="32" class="nonterminal"></rect>
            <text class="nonterminal" x="303" y="109">sub-query</text></a><rect x="399" y="91" width="26" height="32" rx="10"></rect>
         <rect x="397" y="89" width="26" height="32" class="terminal" rx="10"></rect>
         <text class="terminal" x="407" y="109">)</text>
         <rect x="485" y="47" width="40" height="32" rx="10"></rect>
         <rect x="483" y="45" width="40" height="32" class="terminal" rx="10"></rect>
         <text class="terminal" x="493" y="65">ON</text><a xmlns:xlink="http://www.w3.org/1999/xlink" xlink:href="#column" xlink:title="column">
            <rect x="585" y="47" width="64" height="32"></rect>
            <rect x="583" y="45" width="64" height="32" class="nonterminal"></rect>
            <text class="nonterminal" x="593" y="65">column</text></a><a xmlns:xlink="http://www.w3.org/1999/xlink" xlink:href="#operator" xlink:title="operator">
            <rect x="669" y="47" width="74" height="32"></rect>
            <rect x="667" y="45" width="74" height="32" class="nonterminal"></rect>
            <text class="nonterminal" x="677" y="65">operator</text></a><a xmlns:xlink="http://www.w3.org/1999/xlink" xlink:href="#anotherColumn" xlink:title="anotherColumn">
            <rect x="763" y="47" width="118" height="32"></rect>
            <rect x="761" y="45" width="118" height="32" class="nonterminal"></rect>
            <text class="nonterminal" x="771" y="65">anotherColumn</text></a><rect x="585" y="3" width="48" height="32" rx="10"></rect>
         <rect x="583" y="1" width="48" height="32" class="terminal" rx="10"></rect>
         <text class="terminal" x="593" y="21">AND</text>
         <rect x="565" y="135" width="26" height="32" rx="10"></rect>
         <rect x="563" y="133" width="26" height="32" class="terminal" rx="10"></rect>
         <text class="terminal" x="573" y="153">(</text><a xmlns:xlink="http://www.w3.org/1999/xlink" xlink:href="#column" xlink:title="column">
            <rect x="631" y="135" width="64" height="32"></rect>
            <rect x="629" y="133" width="64" height="32" class="nonterminal"></rect>
            <text class="nonterminal" x="639" y="153">column</text></a><rect x="631" y="91" width="24" height="32" rx="10"></rect>
         <rect x="629" y="89" width="24" height="32" class="terminal" rx="10"></rect>
         <text class="terminal" x="639" y="109">,</text>
         <rect x="735" y="135" width="26" height="32" rx="10"></rect>
         <rect x="733" y="133" width="26" height="32" class="terminal" rx="10"></rect>
         <text class="terminal" x="743" y="153">)</text><a xmlns:xlink="http://www.w3.org/1999/xlink" xlink:href="#aAsofLtSpliceJoin" xlink:title="aAsofLtSpliceJoin">
            <rect x="807" y="217" width="128" height="32"></rect>
            <rect x="805" y="215" width="128" height="32" class="nonterminal"></rect>
            <text class="nonterminal" x="815" y="235">aAsofLtSpliceJoin</text></a><path class="line" d="m17 61 h2 m20 0 h10 m0 0 h74 m-104 0 h20 m84 0 h20 m-124 0 q10 0 10 10 m104 0 q0 -10 10 -10 m-114 10 v12 m104 0 v-12 m-104 12 q0 10 10 10 m84 0 q10 0 10 -10 m-94 10 h10 m64 0 h10 m-94 -10 v20 m104 0 v-20 m-104 20 v24 m104 0 v-24 m-104 24 q0 10 10 10 m84 0 q10 0 10 -10 m-94 10 h10 m52 0 h10 m0 0 h12 m20 -76 h10 m54 0 h10 m20 0 h10 m52 0 h10 m0 0 h124 m-216 0 h20 m196 0 h20 m-236 0 q10 0 10 10 m216 0 q0 -10 10 -10 m-226 10 v24 m216 0 v-24 m-216 24 q0 10 10 10 m196 0 q10 0 10 -10 m-206 10 h10 m26 0 h10 m0 0 h10 m84 0 h10 m0 0 h10 m26 0 h10 m40 -44 h10 m40 0 h10 m40 0 h10 m64 0 h10 m0 0 h10 m74 0 h10 m0 0 h10 m118 0 h10 m-336 0 l20 0 m-1 0 q-9 0 -9 -10 l0 -24 q0 -10 10 -10 m316 44 l20 0 m-20 0 q10 0 10 -10 l0 -24 q0 -10 -10 -10 m-316 0 h10 m48 0 h10 m0 0 h248 m-356 44 h20 m356 0 h20 m-396 0 q10 0 10 10 m376 0 q0 -10 10 -10 m-386 10 v68 m376 0 v-68 m-376 68 q0 10 10 10 m356 0 q10 0 10 -10 m-366 10 h10 m26 0 h10 m20 0 h10 m64 0 h10 m-104 0 l20 0 m-1 0 q-9 0 -9 -10 l0 -24 q0 -10 10 -10 m84 44 l20 0 m-20 0 q10 0 10 -10 l0 -24 q0 -10 -10 -10 m-84 0 h10 m24 0 h10 m0 0 h40 m20 44 h10 m26 0 h10 m0 0 h140 m-456 -88 h20 m456 0 h20 m-496 0 q10 0 10 10 m476 0 q0 -10 10 -10 m-486 10 v102 m476 0 v-102 m-476 102 q0 10 10 10 m456 0 q10 0 10 -10 m-466 10 h10 m0 0 h446 m22 -122 l2 0 m2 0 l2 0 m2 0 l2 0 m-178 170 l2 0 m2 0 l2 0 m2 0 l2 0 m2 0 h10 m128 0 h10 m3 0 h-3"></path>
         <polygon points="953 231 961 227 961 235"></polygon>
         <polygon points="953 231 945 227 945 235"></polygon>
</svg>