<svg xmlns="http://www.w3.org/2000/svg" width="811" height="343">
    <defs>
        <style type="text/css">
            @namespace "http://www.w3.org/2000/svg";
            .line                 {fill: none; stroke: #636273;}
            .bold-line            {stroke: #636273; shape-rendering: crispEdges; stroke-width: 2; }
            .thin-line           {stroke: #636273; shape-rendering: crispEdges}
            .filled              {fill: #636273; stroke: none;}
            text.terminal        {font-family: -apple-system, BlinkMacSystemFont, "Segoe UI", Roboto, Ubuntu, Cantarell, Helvetica, sans-serif;
            font-size: 12px;
            fill: #ffffff;
            font-weight: bold;
            }
            text.nonterminal     {font-family: -apple-system, BlinkMacSystemFont, "Segoe UI", Roboto, Ubuntu, Cantarell, Helvetica, sans-serif;
            font-size: 12px;
            fill: #e289a4;
            font-weight: normal;
            }
            text.regexp          {font-family: -apple-system, BlinkMacSystemFont, "Segoe UI", Roboto, Ubuntu, Cantarell, Helvetica, sans-serif;
            font-size: 12px;
            fill: #00141F;
            font-weight: normal;
            }
            rect, circle, polygon {fill: none; stroke: none;}
            rect.terminal        {fill: none; stroke: #be2f5b;}
            rect.nonterminal     {fill: rgba(255,255,255,0.1); stroke: none;}
            rect.text            {fill: none; stroke: none;}
            polygon.regexp       {fill: #C7ECFF; stroke: #038cbc;}
        </style>
    </defs>
    <polygon points="9 17 1 13 1 21"></polygon>
         <polygon points="17 17 9 13 9 21"></polygon>
         <rect x="31" y="3" width="70" height="32" rx="10"></rect>
         <rect x="29" y="1" width="70" height="32" class="terminal" rx="10"></rect>
         <text class="terminal" x="39" y="21">INSERT</text>
         <rect x="141" y="35" width="74" height="32" rx="10"></rect>
         <rect x="139" y="33" width="74" height="32" class="terminal" rx="10"></rect>
         <text class="terminal" x="149" y="53">ATOMIC</text>
         <rect x="141" y="79" width="66" height="32" rx="10"></rect>
         <rect x="139" y="77" width="66" height="32" class="terminal" rx="10"></rect>
         <text class="terminal" x="149" y="97">BATCH</text><a xmlns:xlink="http://www.w3.org/1999/xlink" xlink:href="#number" xlink:title="number">
            <rect x="227" y="79" width="68" height="32"></rect>
            <rect x="225" y="77" width="68" height="32" class="nonterminal"></rect>
            <text class="nonterminal" x="235" y="97">number</text></a><rect x="335" y="111" width="88" height="32" rx="10"></rect>
         <rect x="333" y="109" width="88" height="32" class="terminal" rx="10"></rect>
         <text class="terminal" x="343" y="129">o3MaxLag</text><a xmlns:xlink="http://www.w3.org/1999/xlink" xlink:href="#numberWithUnit" xlink:title="numberWithUnit">
            <rect x="443" y="111" width="122" height="32"></rect>
            <rect x="441" y="109" width="122" height="32" class="nonterminal"></rect>
            <text class="nonterminal" x="451" y="129">numberWithUnit</text></a><rect x="625" y="3" width="56" height="32" rx="10"></rect>
         <rect x="623" y="1" width="56" height="32" class="terminal" rx="10"></rect>
         <text class="terminal" x="633" y="21">INTO</text><a xmlns:xlink="http://www.w3.org/1999/xlink" xlink:href="#tableName" xlink:title="tableName">
            <rect x="701" y="3" width="88" height="32"></rect>
            <rect x="699" y="1" width="88" height="32" class="nonterminal"></rect>
            <text class="nonterminal" x="709" y="21">tableName</text></a><rect x="107" y="265" width="26" height="32" rx="10"></rect>
         <rect x="105" y="263" width="26" height="32" class="terminal" rx="10"></rect>
         <text class="terminal" x="115" y="283">(</text><a xmlns:xlink="http://www.w3.org/1999/xlink" xlink:href="#columnName" xlink:title="columnName">
            <rect x="173" y="265" width="102" height="32"></rect>
            <rect x="171" y="263" width="102" height="32" class="nonterminal"></rect>
            <text class="nonterminal" x="181" y="283">columnName</text></a><rect x="173" y="221" width="24" height="32" rx="10"></rect>
         <rect x="171" y="219" width="24" height="32" class="terminal" rx="10"></rect>
         <text class="terminal" x="181" y="239">,</text>
         <rect x="315" y="265" width="26" height="32" rx="10"></rect>
         <rect x="313" y="263" width="26" height="32" class="terminal" rx="10"></rect>
         <text class="terminal" x="323" y="283">)</text>
         <rect x="401" y="265" width="72" height="32" rx="10"></rect>
         <rect x="399" y="263" width="72" height="32" class="terminal" rx="10"></rect>
         <text class="terminal" x="409" y="283">VALUES</text>
         <rect x="513" y="265" width="26" height="32" rx="10"></rect>
         <rect x="511" y="263" width="26" height="32" class="terminal" rx="10"></rect>
         <text class="terminal" x="521" y="283">(</text><a xmlns:xlink="http://www.w3.org/1999/xlink" xlink:href="#value" xlink:title="value">
            <rect x="579" y="265" width="54" height="32"></rect>
            <rect x="577" y="263" width="54" height="32" class="nonterminal"></rect>
            <text class="nonterminal" x="587" y="283">value</text></a><rect x="579" y="221" width="24" height="32" rx="10"></rect>
         <rect x="577" y="219" width="24" height="32" class="terminal" rx="10"></rect>
         <text class="terminal" x="587" y="239">,</text>
         <rect x="673" y="265" width="26" height="32" rx="10"></rect>
         <rect x="671" y="263" width="26" height="32" class="terminal" rx="10"></rect>
         <text class="terminal" x="681" y="283">)</text>
         <rect x="513" y="177" width="24" height="32" rx="10"></rect>
         <rect x="511" y="175" width="24" height="32" class="terminal" rx="10"></rect>
         <text class="terminal" x="521" y="195">,</text>
         <rect x="401" y="309" width="70" height="32" rx="10"></rect>
         <rect x="399" y="307" width="70" height="32" class="terminal" rx="10"></rect>
         <text class="terminal" x="409" y="327">SELECT</text><a xmlns:xlink="http://www.w3.org/1999/xlink" xlink:href="#queryDef" xlink:title="queryDef">
            <rect x="491" y="309" width="78" height="32"></rect>
            <rect x="489" y="307" width="78" height="32" class="nonterminal"></rect>
            <text class="nonterminal" x="499" y="327">queryDef</text></a><a xmlns:xlink="http://www.w3.org/1999/xlink" xlink:href="#mainQuery" xlink:title="mainQuery">
            <rect x="589" y="309" width="88" height="32"></rect>
            <rect x="587" y="307" width="88" height="32" class="nonterminal"></rect>
            <text class="nonterminal" x="597" y="327">mainQuery</text></a><rect x="759" y="265" width="24" height="32" rx="10"></rect>
         <rect x="757" y="263" width="24" height="32" class="terminal" rx="10"></rect>
         <text class="terminal" x="767" y="283">;</text>
         <path class="line" d="m17 17 h2 m0 0 h10 m70 0 h10 m20 0 h10 m0 0 h454 m-484 0 h20 m464 0 h20 m-504 0 q10 0 10 10 m484 0 q0 -10 10 -10 m-494 10 v12 m484 0 v-12 m-484 12 q0 10 10 10 m464 0 q10 0 10 -10 m-474 10 h10 m74 0 h10 m0 0 h370 m-474 -10 v20 m484 0 v-20 m-484 20 v24 m484 0 v-24 m-484 24 q0 10 10 10 m464 0 q10 0 10 -10 m-474 10 h10 m66 0 h10 m0 0 h10 m68 0 h10 m20 0 h10 m0 0 h240 m-270 0 h20 m250 0 h20 m-290 0 q10 0 10 10 m270 0 q0 -10 10 -10 m-280 10 v12 m270 0 v-12 m-270 12 q0 10 10 10 m250 0 q10 0 10 -10 m-260 10 h10 m88 0 h10 m0 0 h10 m122 0 h10 m40 -108 h10 m56 0 h10 m0 0 h10 m88 0 h10 m2 0 l2 0 m2 0 l2 0 m2 0 l2 0 m-746 262 l2 0 m2 0 l2 0 m2 0 l2 0 m22 0 h10 m26 0 h10 m20 0 h10 m102 0 h10 m-142 0 l20 0 m-1 0 q-9 0 -9 -10 l0 -24 q0 -10 10 -10 m122 44 l20 0 m-20 0 q10 0 10 -10 l0 -24 q0 -10 -10 -10 m-122 0 h10 m24 0 h10 m0 0 h78 m20 44 h10 m26 0 h10 m-274 0 h20 m254 0 h20 m-294 0 q10 0 10 10 m274 0 q0 -10 10 -10 m-284 10 v14 m274 0 v-14 m-274 14 q0 10 10 10 m254 0 q10 0 10 -10 m-264 10 h10 m0 0 h244 m40 -34 h10 m72 0 h10 m20 0 h10 m26 0 h10 m20 0 h10 m54 0 h10 m-94 0 l20 0 m-1 0 q-9 0 -9 -10 l0 -24 q0 -10 10 -10 m74 44 l20 0 m-20 0 q10 0 10 -10 l0 -24 q0 -10 -10 -10 m-74 0 h10 m24 0 h10 m0 0 h30 m20 44 h10 m26 0 h10 m-226 0 l20 0 m-1 0 q-9 0 -9 -10 l0 -68 q0 -10 10 -10 m206 88 l20 0 m-20 0 q10 0 10 -10 l0 -68 q0 -10 -10 -10 m-206 0 h10 m24 0 h10 m0 0 h162 m-338 88 h20 m338 0 h20 m-378 0 q10 0 10 10 m358 0 q0 -10 10 -10 m-368 10 v24 m358 0 v-24 m-358 24 q0 10 10 10 m338 0 q10 0 10 -10 m-348 10 h10 m70 0 h10 m0 0 h10 m78 0 h10 m0 0 h10 m88 0 h10 m0 0 h42 m20 -44 h10 m24 0 h10 m3 0 h-3"></path>
         <polygon points="801 279 809 275 809 283"></polygon>
         <polygon points="801 279 793 275 793 283"></polygon>
</svg>