<svg xmlns="http://www.w3.org/2000/svg" width="939" height="443">
    <defs>
        <style type="text/css">
            @namespace "http://www.w3.org/2000/svg";
            .line                 {fill: none; stroke: #636273;}
            .bold-line            {stroke: #636273; shape-rendering: crispEdges; stroke-width: 2; }
            .thin-line           {stroke: #636273; shape-rendering: crispEdges}
            .filled              {fill: #636273; stroke: none;}
            text.terminal        {font-family: -apple-system, BlinkMacSystemFont, "Segoe UI", Roboto, Ubuntu, Cantarell, Helvetica, sans-serif;
            font-size: 12px;
            fill: #ffffff;
            font-weight: bold;
            }
            text.nonterminal     {font-family: -apple-system, BlinkMacSystemFont, "Segoe UI", Roboto, Ubuntu, Cantarell, Helvetica, sans-serif;
            font-size: 12px;
            fill: #e289a4;
            font-weight: normal;
            }
            text.regexp          {font-family: -apple-system, BlinkMacSystemFont, "Segoe UI", Roboto, Ubuntu, Cantarell, Helvetica, sans-serif;
            font-size: 12px;
            fill: #00141F;
            font-weight: normal;
            }
            rect, circle, polygon {fill: none; stroke: none;}
            rect.terminal        {fill: none; stroke: #be2f5b;}
            rect.nonterminal     {fill: rgba(255,255,255,0.1); stroke: none;}
            rect.text            {fill: none; stroke: none;}
            polygon.regexp       {fill: #C7ECFF; stroke: #038cbc;}
        </style>
    </defs>
    <polygon points="11 17 3 13 3 21"></polygon>
         <polygon points="19 17 11 13 11 21"></polygon>
         <rect x="33" y="3" width="70" height="32" rx="10"></rect>
         <rect x="31" y="1" width="70" height="32" class="terminal" rx="10"></rect>
         <text class="terminal" x="41" y="21">INSERT</text>
         <rect x="143" y="35" width="56" height="32" rx="10"></rect>
         <rect x="141" y="33" width="56" height="32" class="terminal" rx="10"></rect>
         <text class="terminal" x="151" y="53">batch</text><a xmlns:xlink="http://www.w3.org/1999/xlink" xlink:href="#batchCount" xlink:title="batchCount">
            <rect x="219" y="35" width="92" height="32"></rect>
            <rect x="217" y="33" width="92" height="32" class="nonterminal"></rect>
            <text class="nonterminal" x="227" y="53">batchCount</text></a><rect x="331" y="35" width="94" height="32" rx="10"></rect>
         <rect x="329" y="33" width="94" height="32" class="terminal" rx="10"></rect>
         <text class="terminal" x="339" y="53">commitLag</text><a xmlns:xlink="http://www.w3.org/1999/xlink" xlink:href="#n" xlink:title="n">
            <rect x="445" y="35" width="28" height="32"></rect>
            <rect x="443" y="33" width="28" height="32" class="nonterminal"></rect>
            <text class="nonterminal" x="453" y="53">n</text></a><rect x="513" y="35" width="36" height="32" rx="10"></rect>
         <rect x="511" y="33" width="36" height="32" class="terminal" rx="10"></rect>
         <text class="terminal" x="521" y="53">us</text>
         <rect x="513" y="79" width="26" height="32" rx="10"></rect>
         <rect x="511" y="77" width="26" height="32" class="terminal" rx="10"></rect>
         <text class="terminal" x="521" y="97">s</text>
         <rect x="513" y="123" width="32" height="32" rx="10"></rect>
         <rect x="511" y="121" width="32" height="32" class="terminal" rx="10"></rect>
         <text class="terminal" x="521" y="141">m</text>
         <rect x="513" y="167" width="28" height="32" rx="10"></rect>
         <rect x="511" y="165" width="28" height="32" class="terminal" rx="10"></rect>
         <text class="terminal" x="521" y="185">h</text>
         <rect x="513" y="211" width="28" height="32" rx="10"></rect>
         <rect x="511" y="209" width="28" height="32" class="terminal" rx="10"></rect>
         <text class="terminal" x="521" y="229">d</text>
         <rect x="609" y="3" width="56" height="32" rx="10"></rect>
         <rect x="607" y="1" width="56" height="32" class="terminal" rx="10"></rect>
         <text class="terminal" x="617" y="21">INTO</text><a xmlns:xlink="http://www.w3.org/1999/xlink" xlink:href="#tableName" xlink:title="tableName">
            <rect x="685" y="3" width="88" height="32"></rect>
            <rect x="683" y="1" width="88" height="32" class="nonterminal"></rect>
            <text class="nonterminal" x="693" y="21">tableName</text></a><rect x="45" y="365" width="26" height="32" rx="10"></rect>
         <rect x="43" y="363" width="26" height="32" class="terminal" rx="10"></rect>
         <text class="terminal" x="53" y="383">(</text><a xmlns:xlink="http://www.w3.org/1999/xlink" xlink:href="#columnName" xlink:title="columnName">
            <rect x="111" y="365" width="102" height="32"></rect>
            <rect x="109" y="363" width="102" height="32" class="nonterminal"></rect>
            <text class="nonterminal" x="119" y="383">columnName</text></a><rect x="111" y="321" width="24" height="32" rx="10"></rect>
         <rect x="109" y="319" width="24" height="32" class="terminal" rx="10"></rect>
         <text class="terminal" x="119" y="339">,</text>
         <rect x="253" y="365" width="26" height="32" rx="10"></rect>
         <rect x="251" y="363" width="26" height="32" class="terminal" rx="10"></rect>
         <text class="terminal" x="261" y="383">)</text>
         <rect x="339" y="365" width="72" height="32" rx="10"></rect>
         <rect x="337" y="363" width="72" height="32" class="terminal" rx="10"></rect>
         <text class="terminal" x="347" y="383">VALUES</text>
         <rect x="451" y="365" width="26" height="32" rx="10"></rect>
         <rect x="449" y="363" width="26" height="32" class="terminal" rx="10"></rect>
         <text class="terminal" x="459" y="383">(</text><a xmlns:xlink="http://www.w3.org/1999/xlink" xlink:href="#value" xlink:title="value">
            <rect x="517" y="365" width="54" height="32"></rect>
            <rect x="515" y="363" width="54" height="32" class="nonterminal"></rect>
            <text class="nonterminal" x="525" y="383">value</text></a><rect x="517" y="321" width="24" height="32" rx="10"></rect>
         <rect x="515" y="319" width="24" height="32" class="terminal" rx="10"></rect>
         <text class="terminal" x="525" y="339">,</text>
         <rect x="611" y="365" width="26" height="32" rx="10"></rect>
         <rect x="609" y="363" width="26" height="32" class="terminal" rx="10"></rect>
         <text class="terminal" x="619" y="383">)</text>
         <rect x="451" y="277" width="24" height="32" rx="10"></rect>
         <rect x="449" y="275" width="24" height="32" class="terminal" rx="10"></rect>
         <text class="terminal" x="459" y="295">,</text>
         <rect x="339" y="409" width="70" height="32" rx="10"></rect>
         <rect x="337" y="407" width="70" height="32" class="terminal" rx="10"></rect>
         <text class="terminal" x="347" y="427">SELECT</text><a xmlns:xlink="http://www.w3.org/1999/xlink" xlink:href="#queryDef" xlink:title="queryDef">
            <rect x="429" y="409" width="78" height="32"></rect>
            <rect x="427" y="407" width="78" height="32" class="nonterminal"></rect>
            <text class="nonterminal" x="437" y="427">queryDef</text></a><a xmlns:xlink="http://www.w3.org/1999/xlink" xlink:href="#mainQuery" xlink:title="mainQuery">
            <rect x="527" y="409" width="88" height="32"></rect>
            <rect x="525" y="407" width="88" height="32" class="nonterminal"></rect>
            <text class="nonterminal" x="535" y="427">mainQuery</text></a><rect x="697" y="365" width="24" height="32" rx="10"></rect>
         <rect x="695" y="363" width="24" height="32" class="terminal" rx="10"></rect>
         <text class="terminal" x="705" y="383">;</text><a xmlns:xlink="http://www.w3.org/1999/xlink" xlink:href="#withAsInsertCommitLag" xlink:title="withAsInsertCommitLag">
            <rect x="741" y="365" width="170" height="32"></rect>
            <rect x="739" y="363" width="170" height="32" class="nonterminal"></rect>
            <text class="nonterminal" x="749" y="383">withAsInsertCommitLag</text></a><path class="line" d="m19 17 h2 m0 0 h10 m70 0 h10 m20 0 h10 m0 0 h436 m-466 0 h20 m446 0 h20 m-486 0 q10 0 10 10 m466 0 q0 -10 10 -10 m-476 10 v12 m466 0 v-12 m-466 12 q0 10 10 10 m446 0 q10 0 10 -10 m-456 10 h10 m56 0 h10 m0 0 h10 m92 0 h10 m0 0 h10 m94 0 h10 m0 0 h10 m28 0 h10 m20 0 h10 m36 0 h10 m-76 0 h20 m56 0 h20 m-96 0 q10 0 10 10 m76 0 q0 -10 10 -10 m-86 10 v24 m76 0 v-24 m-76 24 q0 10 10 10 m56 0 q10 0 10 -10 m-66 10 h10 m26 0 h10 m0 0 h10 m-66 -10 v20 m76 0 v-20 m-76 20 v24 m76 0 v-24 m-76 24 q0 10 10 10 m56 0 q10 0 10 -10 m-66 10 h10 m32 0 h10 m0 0 h4 m-66 -10 v20 m76 0 v-20 m-76 20 v24 m76 0 v-24 m-76 24 q0 10 10 10 m56 0 q10 0 10 -10 m-66 10 h10 m28 0 h10 m0 0 h8 m-66 -10 v20 m76 0 v-20 m-76 20 v24 m76 0 v-24 m-76 24 q0 10 10 10 m56 0 q10 0 10 -10 m-66 10 h10 m28 0 h10 m0 0 h8 m40 -208 h10 m56 0 h10 m0 0 h10 m88 0 h10 m2 0 l2 0 m2 0 l2 0 m2 0 l2 0 m-792 362 l2 0 m2 0 l2 0 m2 0 l2 0 m22 0 h10 m26 0 h10 m20 0 h10 m102 0 h10 m-142 0 l20 0 m-1 0 q-9 0 -9 -10 l0 -24 q0 -10 10 -10 m122 44 l20 0 m-20 0 q10 0 10 -10 l0 -24 q0 -10 -10 -10 m-122 0 h10 m24 0 h10 m0 0 h78 m20 44 h10 m26 0 h10 m-274 0 h20 m254 0 h20 m-294 0 q10 0 10 10 m274 0 q0 -10 10 -10 m-284 10 v14 m274 0 v-14 m-274 14 q0 10 10 10 m254 0 q10 0 10 -10 m-264 10 h10 m0 0 h244 m40 -34 h10 m72 0 h10 m20 0 h10 m26 0 h10 m20 0 h10 m54 0 h10 m-94 0 l20 0 m-1 0 q-9 0 -9 -10 l0 -24 q0 -10 10 -10 m74 44 l20 0 m-20 0 q10 0 10 -10 l0 -24 q0 -10 -10 -10 m-74 0 h10 m24 0 h10 m0 0 h30 m20 44 h10 m26 0 h10 m-226 0 l20 0 m-1 0 q-9 0 -9 -10 l0 -68 q0 -10 10 -10 m206 88 l20 0 m-20 0 q10 0 10 -10 l0 -68 q0 -10 -10 -10 m-206 0 h10 m24 0 h10 m0 0 h162 m-338 88 h20 m338 0 h20 m-378 0 q10 0 10 10 m358 0 q0 -10 10 -10 m-368 10 v24 m358 0 v-24 m-358 24 q0 10 10 10 m338 0 q10 0 10 -10 m-348 10 h10 m70 0 h10 m0 0 h10 m78 0 h10 m0 0 h10 m88 0 h10 m0 0 h42 m20 -44 h10 m24 0 h10 m0 0 h10 m170 0 h10 m3 0 h-3"></path>
         <polygon points="929 379 937 375 937 383"></polygon>
         <polygon points="929 379 921 375 921 383"></polygon>
</svg>