<svg xmlns="http://www.w3.org/2000/svg" width="875" height="81">
    <defs>
        <style type="text/css">
            @namespace "http://www.w3.org/2000/svg";
            .line                 {fill: none; stroke: #636273;}
            .bold-line            {stroke: #636273; shape-rendering: crispEdges; stroke-width: 2; }
            .thin-line           {stroke: #636273; shape-rendering: crispEdges}
            .filled              {fill: #636273; stroke: none;}
            text.terminal        {font-family: -apple-system, BlinkMacSystemFont, "Segoe UI", Roboto, Ubuntu, Cantarell, Helvetica, sans-serif;
            font-size: 12px;
            fill: #ffffff;
            font-weight: bold;
            }
            text.nonterminal     {font-family: -apple-system, BlinkMacSystemFont, "Segoe UI", Roboto, Ubuntu, Cantarell, Helvetica, sans-serif;
            font-size: 12px;
            fill: #e289a4;
            font-weight: normal;
            }
            text.regexp          {font-family: -apple-system, BlinkMacSystemFont, "Segoe UI", Roboto, Ubuntu, Cantarell, Helvetica, sans-serif;
            font-size: 12px;
            fill: #00141F;
            font-weight: normal;
            }
            rect, circle, polygon {fill: none; stroke: none;}
            rect.terminal        {fill: none; stroke: #be2f5b;}
            rect.nonterminal     {fill: rgba(255,255,255,0.1); stroke: none;}
            rect.text            {fill: none; stroke: none;}
            polygon.regexp       {fill: #C7ECFF; stroke: #038cbc;}
        </style>
    </defs>
    <polygon points="9 17 1 13 1 21"></polygon>
         <polygon points="17 17 9 13 9 21"></polygon>
         <rect x="31" y="3" width="62" height="32" rx="10"></rect>
         <rect x="29" y="1" width="62" height="32" class="terminal" rx="10"></rect>
         <text class="terminal" x="39" y="21">ALTER</text>
         <rect x="113" y="3" width="62" height="32" rx="10"></rect>
         <rect x="111" y="1" width="62" height="32" class="terminal" rx="10"></rect>
         <text class="terminal" x="121" y="21">TABLE</text><a xmlns:xlink="http://www.w3.org/1999/xlink" xlink:href="#tableName" xlink:title="tableName">
            <rect x="195" y="3" width="88" height="32"></rect>
            <rect x="193" y="1" width="88" height="32" class="nonterminal"></rect>
            <text class="nonterminal" x="203" y="21">tableName</text></a><rect x="303" y="3" width="62" height="32" rx="10"></rect>
         <rect x="301" y="1" width="62" height="32" class="terminal" rx="10"></rect>
         <text class="terminal" x="311" y="21">ALTER</text>
         <rect x="385" y="3" width="78" height="32" rx="10"></rect>
         <rect x="383" y="1" width="78" height="32" class="terminal" rx="10"></rect>
         <text class="terminal" x="393" y="21">COLUMN</text><a xmlns:xlink="http://www.w3.org/1999/xlink" xlink:href="#columnName" xlink:title="columnName">
            <rect x="483" y="3" width="102" height="32"></rect>
            <rect x="481" y="1" width="102" height="32" class="nonterminal"></rect>
            <text class="nonterminal" x="491" y="21">columnName</text></a><rect x="625" y="3" width="86" height="32" rx="10"></rect>
         <rect x="623" y="1" width="86" height="32" class="terminal" rx="10"></rect>
         <text class="terminal" x="633" y="21">NOCACHE</text>
         <rect x="625" y="47" width="66" height="32" rx="10"></rect>
         <rect x="623" y="45" width="66" height="32" class="terminal" rx="10"></rect>
         <text class="terminal" x="633" y="65">CACHE</text><a xmlns:xlink="http://www.w3.org/1999/xlink" xlink:href="#dropColumn" xlink:title="dropColumn">
            <rect x="751" y="3" width="96" height="32"></rect>
            <rect x="749" y="1" width="96" height="32" class="nonterminal"></rect>
            <text class="nonterminal" x="759" y="21">dropColumn</text></a><path class="line" d="m17 17 h2 m0 0 h10 m62 0 h10 m0 0 h10 m62 0 h10 m0 0 h10 m88 0 h10 m0 0 h10 m62 0 h10 m0 0 h10 m78 0 h10 m0 0 h10 m102 0 h10 m20 0 h10 m86 0 h10 m-126 0 h20 m106 0 h20 m-146 0 q10 0 10 10 m126 0 q0 -10 10 -10 m-136 10 v24 m126 0 v-24 m-126 24 q0 10 10 10 m106 0 q10 0 10 -10 m-116 10 h10 m66 0 h10 m0 0 h20 m20 -44 h10 m96 0 h10 m3 0 h-3"></path>
         <polygon points="865 17 873 13 873 21"></polygon>
         <polygon points="865 17 857 13 857 21"></polygon>
</svg>