<svg xmlns="http://www.w3.org/2000/svg" width="925" height="145">
    <defs>
        <style type="text/css">
            @namespace "http://www.w3.org/2000/svg";
            .line                 {fill: none; stroke: #636273;}
            .bold-line            {stroke: #636273; shape-rendering: crispEdges; stroke-width: 2; }
            .thin-line           {stroke: #636273; shape-rendering: crispEdges}
            .filled              {fill: #636273; stroke: none;}
            text.terminal        {font-family: -apple-system, BlinkMacSystemFont, "Segoe UI", Roboto, Ubuntu, Cantarell, Helvetica, sans-serif;
            font-size: 12px;
            fill: #ffffff;
            font-weight: bold;
            }
            text.nonterminal     {font-family: -apple-system, BlinkMacSystemFont, "Segoe UI", Roboto, Ubuntu, Cantarell, Helvetica, sans-serif;
            font-size: 12px;
            fill: #e289a4;
            font-weight: normal;
            }
            text.regexp          {font-family: -apple-system, BlinkMacSystemFont, "Segoe UI", Roboto, Ubuntu, Cantarell, Helvetica, sans-serif;
            font-size: 12px;
            fill: #00141F;
            font-weight: normal;
            }
            rect, circle, polygon {fill: none; stroke: none;}
            rect.terminal        {fill: none; stroke: #be2f5b;}
            rect.nonterminal     {fill: rgba(255,255,255,0.1); stroke: none;}
            rect.text            {fill: none; stroke: none;}
            polygon.regexp       {fill: #C7ECFF; stroke: #038cbc;}
        </style>
    </defs>
    <polygon points="9 33 1 29 1 37"></polygon>
         <polygon points="17 33 9 29 9 37"></polygon><a xmlns:xlink="http://www.w3.org/1999/xlink" xlink:href="#someSelectQuery" xlink:title="someSelectQuery">
            <rect x="31" y="19" width="130" height="32"></rect>
            <rect x="29" y="17" width="130" height="32" class="nonterminal"></rect>
            <text class="nonterminal" x="39" y="37">someSelectQuery</text></a><rect x="181" y="19" width="68" height="32" rx="10"></rect>
         <rect x="179" y="17" width="68" height="32" class="terminal" rx="10"></rect>
         <text class="terminal" x="189" y="37">ORDER</text>
         <rect x="269" y="19" width="38" height="32" rx="10"></rect>
         <rect x="267" y="17" width="38" height="32" class="terminal" rx="10"></rect>
         <text class="terminal" x="277" y="37">BY</text><a xmlns:xlink="http://www.w3.org/1999/xlink" xlink:href="#columnName" xlink:title="columnName">
            <rect x="327" y="19" width="102" height="32"></rect>
            <rect x="325" y="17" width="102" height="32" class="nonterminal"></rect>
            <text class="nonterminal" x="335" y="37">columnName</text></a><a xmlns:xlink="http://www.w3.org/1999/xlink" xlink:href="#ASC" xlink:title="ASC">
            <rect x="469" y="51" width="44" height="32"></rect>
            <rect x="467" y="49" width="44" height="32" class="nonterminal"></rect>
            <text class="nonterminal" x="477" y="69">ASC</text></a><a xmlns:xlink="http://www.w3.org/1999/xlink" xlink:href="#DESC" xlink:title="DESC">
            <rect x="469" y="95" width="54" height="32"></rect>
            <rect x="467" y="93" width="54" height="32" class="nonterminal"></rect>
            <text class="nonterminal" x="477" y="113">DESC</text></a><rect x="603" y="19" width="24" height="32" rx="10"></rect>
         <rect x="601" y="17" width="24" height="32" class="terminal" rx="10"></rect>
         <text class="terminal" x="611" y="37">,</text><a xmlns:xlink="http://www.w3.org/1999/xlink" xlink:href="#columnName" xlink:title="columnName">
            <rect x="647" y="19" width="102" height="32"></rect>
            <rect x="645" y="17" width="102" height="32" class="nonterminal"></rect>
            <text class="nonterminal" x="655" y="37">columnName</text></a><a xmlns:xlink="http://www.w3.org/1999/xlink" xlink:href="#asc" xlink:title="asc">
            <rect x="789" y="51" width="40" height="32"></rect>
            <rect x="787" y="49" width="40" height="32" class="nonterminal"></rect>
            <text class="nonterminal" x="797" y="69">asc</text></a><a xmlns:xlink="http://www.w3.org/1999/xlink" xlink:href="#desc" xlink:title="desc">
            <rect x="789" y="95" width="48" height="32"></rect>
            <rect x="787" y="93" width="48" height="32" class="nonterminal"></rect>
            <text class="nonterminal" x="797" y="113">desc</text></a><path class="line" d="m17 33 h2 m0 0 h10 m130 0 h10 m0 0 h10 m68 0 h10 m0 0 h10 m38 0 h10 m0 0 h10 m102 0 h10 m20 0 h10 m0 0 h64 m-94 0 h20 m74 0 h20 m-114 0 q10 0 10 10 m94 0 q0 -10 10 -10 m-104 10 v12 m94 0 v-12 m-94 12 q0 10 10 10 m74 0 q10 0 10 -10 m-84 10 h10 m44 0 h10 m0 0 h10 m-84 -10 v20 m94 0 v-20 m-94 20 v24 m94 0 v-24 m-94 24 q0 10 10 10 m74 0 q10 0 10 -10 m-84 10 h10 m54 0 h10 m60 -76 h10 m24 0 h10 m0 0 h10 m102 0 h10 m20 0 h10 m0 0 h58 m-88 0 h20 m68 0 h20 m-108 0 q10 0 10 10 m88 0 q0 -10 10 -10 m-98 10 v12 m88 0 v-12 m-88 12 q0 10 10 10 m68 0 q10 0 10 -10 m-78 10 h10 m40 0 h10 m0 0 h8 m-78 -10 v20 m88 0 v-20 m-88 20 v24 m88 0 v-24 m-88 24 q0 10 10 10 m68 0 q10 0 10 -10 m-78 10 h10 m48 0 h10 m-274 -76 l20 0 m-1 0 q-9 0 -9 -10 l0 -12 q0 -10 10 -10 m274 32 l20 0 m-20 0 q10 0 10 -10 l0 -12 q0 -10 -10 -10 m-274 0 h10 m0 0 h264 m-314 32 h20 m314 0 h20 m-354 0 q10 0 10 10 m334 0 q0 -10 10 -10 m-344 10 v90 m334 0 v-90 m-334 90 q0 10 10 10 m314 0 q10 0 10 -10 m-324 10 h10 m0 0 h304 m23 -110 h-3"></path>
         <polygon points="915 33 923 29 923 37"></polygon>
         <polygon points="915 33 907 29 907 37"></polygon>
</svg>