<svg xmlns="http://www.w3.org/2000/svg" width="765" height="101">
    <defs>
        <style type="text/css">
            @namespace "http://www.w3.org/2000/svg";
            .line                 {fill: none; stroke: #636273;}
            .bold-line            {stroke: #636273; shape-rendering: crispEdges; stroke-width: 2; }
            .thin-line           {stroke: #636273; shape-rendering: crispEdges}
            .filled              {fill: #636273; stroke: none;}
            text.terminal        {font-family: -apple-system, BlinkMacSystemFont, "Segoe UI", Roboto, Ubuntu, Cantarell, Helvetica, sans-serif;
            font-size: 12px;
            fill: #ffffff;
            font-weight: bold;
            }
            text.nonterminal     {font-family: -apple-system, BlinkMacSystemFont, "Segoe UI", Roboto, Ubuntu, Cantarell, Helvetica, sans-serif;
            font-size: 12px;
            fill: #e289a4;
            font-weight: normal;
            }
            text.regexp          {font-family: -apple-system, BlinkMacSystemFont, "Segoe UI", Roboto, Ubuntu, Cantarell, Helvetica, sans-serif;
            font-size: 12px;
            fill: #00141F;
            font-weight: normal;
            }
            rect, circle, polygon {fill: none; stroke: none;}
            rect.terminal        {fill: none; stroke: #be2f5b;}
            rect.nonterminal     {fill: rgba(255,255,255,0.1); stroke: none;}
            rect.text            {fill: none; stroke: none;}
            polygon.regexp       {fill: #C7ECFF; stroke: #038cbc;}
        </style>
    </defs>
    <polygon points="9 17 1 13 1 21"></polygon>
         <polygon points="17 17 9 13 9 21"></polygon>
         <rect x="31" y="3" width="84" height="32" rx="10"></rect>
         <rect x="29" y="1" width="84" height="32" class="terminal" rx="10"></rect>
         <text class="terminal" x="39" y="21">PARQUET</text>
         <rect x="155" y="35" width="94" height="32" rx="10"></rect>
         <rect x="153" y="33" width="94" height="32" class="terminal" rx="10"></rect>
         <text class="terminal" x="163" y="53">ENCODING</text><a xmlns:xlink="http://www.w3.org/1999/xlink" xlink:href="#encoding" xlink:title="encoding">
            <rect x="269" y="35" width="78" height="32"></rect>
            <rect x="267" y="33" width="78" height="32" class="nonterminal"></rect>
            <text class="nonterminal" x="277" y="53">encoding</text></a><rect x="407" y="35" width="124" height="32" rx="10"></rect>
         <rect x="405" y="33" width="124" height="32" class="terminal" rx="10"></rect>
         <text class="terminal" x="415" y="53">COMPRESSION</text><a xmlns:xlink="http://www.w3.org/1999/xlink" xlink:href="#codec" xlink:title="codec">
            <rect x="551" y="35" width="56" height="32"></rect>
            <rect x="549" y="33" width="56" height="32" class="nonterminal"></rect>
            <text class="nonterminal" x="559" y="53">codec</text></a><a xmlns:xlink="http://www.w3.org/1999/xlink" xlink:href="#level" xlink:title="level">
            <rect x="647" y="67" width="50" height="32"></rect>
            <rect x="645" y="65" width="50" height="32" class="nonterminal"></rect>
            <text class="nonterminal" x="655" y="85">level</text></a><path class="line" d="m17 17 h2 m0 0 h10 m84 0 h10 m20 0 h10 m0 0 h202 m-232 0 h20 m212 0 h20 m-252 0 q10 0 10 10 m232 0 q0 -10 10 -10 m-242 10 v12 m232 0 v-12 m-232 12 q0 10 10 10 m212 0 q10 0 10 -10 m-222 10 h10 m94 0 h10 m0 0 h10 m78 0 h10 m40 -32 h10 m0 0 h320 m-350 0 h20 m330 0 h20 m-370 0 q10 0 10 10 m350 0 q0 -10 10 -10 m-360 10 v12 m350 0 v-12 m-350 12 q0 10 10 10 m330 0 q10 0 10 -10 m-340 10 h10 m124 0 h10 m0 0 h10 m56 0 h10 m20 0 h10 m0 0 h60 m-90 0 h20 m70 0 h20 m-110 0 q10 0 10 10 m90 0 q0 -10 10 -10 m-100 10 v12 m90 0 v-12 m-90 12 q0 10 10 10 m70 0 q10 0 10 -10 m-80 10 h10 m50 0 h10 m43 -64 h-3"></path>
         <polygon points="755 17 763 13 763 21"></polygon>
         <polygon points="755 17 747 13 747 21"></polygon>
</svg>