<svg xmlns="http://www.w3.org/2000/svg" width="961" height="167">
    <defs>
        <style type="text/css">
            @namespace "http://www.w3.org/2000/svg";
            .line                 {fill: none; stroke: #636273;}
            .bold-line            {stroke: #636273; shape-rendering: crispEdges; stroke-width: 2; }
            .thin-line           {stroke: #636273; shape-rendering: crispEdges}
            .filled              {fill: #636273; stroke: none;}
            text.terminal        {font-family: -apple-system, BlinkMacSystemFont, "Segoe UI", Roboto, Ubuntu, Cantarell, Helvetica, sans-serif;
            font-size: 12px;
            fill: #ffffff;
            font-weight: bold;
            }
            text.nonterminal     {font-family: -apple-system, BlinkMacSystemFont, "Segoe UI", Roboto, Ubuntu, Cantarell, Helvetica, sans-serif;
            font-size: 12px;
            fill: #e289a4;
            font-weight: normal;
            }
            text.regexp          {font-family: -apple-system, BlinkMacSystemFont, "Segoe UI", Roboto, Ubuntu, Cantarell, Helvetica, sans-serif;
            font-size: 12px;
            fill: #00141F;
            font-weight: normal;
            }
            rect, circle, polygon {fill: none; stroke: none;}
            rect.terminal        {fill: none; stroke: #be2f5b;}
            rect.nonterminal     {fill: rgba(255,255,255,0.1); stroke: none;}
            rect.text            {fill: none; stroke: none;}
            polygon.regexp       {fill: #C7ECFF; stroke: #038cbc;}
        </style>
    </defs>
    <polygon points="9 17 1 13 1 21"></polygon>
         <polygon points="17 17 9 13 9 21"></polygon>
         <rect x="31" y="3" width="84" height="32" rx="10"></rect>
         <rect x="29" y="1" width="84" height="32" class="terminal" rx="10"></rect>
         <text class="terminal" x="39" y="21">PARQUET</text>
         <rect x="135" y="3" width="26" height="32" rx="10"></rect>
         <rect x="133" y="1" width="26" height="32" class="terminal" rx="10"></rect>
         <text class="terminal" x="143" y="21">(</text><a xmlns:xlink="http://www.w3.org/1999/xlink" xlink:href="#encoding" xlink:title="encoding">
            <rect x="181" y="3" width="78" height="32"></rect>
            <rect x="179" y="1" width="78" height="32" class="nonterminal"></rect>
            <text class="nonterminal" x="189" y="21">encoding</text></a><rect x="299" y="35" width="24" height="32" rx="10"></rect>
         <rect x="297" y="33" width="24" height="32" class="terminal" rx="10"></rect>
         <text class="terminal" x="307" y="53">,</text><a xmlns:xlink="http://www.w3.org/1999/xlink" xlink:href="#compression-codec" xlink:title="compression-codec">
            <rect x="343" y="35" width="142" height="32"></rect>
            <rect x="341" y="33" width="142" height="32" class="nonterminal"></rect>
            <text class="nonterminal" x="351" y="53">compression-codec</text></a><rect x="525" y="67" width="26" height="32" rx="10"></rect>
         <rect x="523" y="65" width="26" height="32" class="terminal" rx="10"></rect>
         <text class="terminal" x="533" y="85">(</text><a xmlns:xlink="http://www.w3.org/1999/xlink" xlink:href="#level" xlink:title="level">
            <rect x="571" y="67" width="50" height="32"></rect>
            <rect x="569" y="65" width="50" height="32" class="nonterminal"></rect>
            <text class="nonterminal" x="579" y="85">level</text></a><rect x="641" y="67" width="26" height="32" rx="10"></rect>
         <rect x="639" y="65" width="26" height="32" class="terminal" rx="10"></rect>
         <text class="terminal" x="649" y="85">)</text>
         <rect x="747" y="35" width="24" height="32" rx="10"></rect>
         <rect x="745" y="33" width="24" height="32" class="terminal" rx="10"></rect>
         <text class="terminal" x="755" y="53">,</text>
         <rect x="791" y="35" width="128" height="32" rx="10"></rect>
         <rect x="789" y="33" width="128" height="32" class="terminal" rx="10"></rect>
         <text class="terminal" x="799" y="53">BLOOM_FILTER</text>
         <rect x="907" y="133" width="26" height="32" rx="10"></rect>
         <rect x="905" y="131" width="26" height="32" class="terminal" rx="10"></rect>
         <text class="terminal" x="915" y="151">)</text>
         <path class="line" d="m17 17 h2 m0 0 h10 m84 0 h10 m0 0 h10 m26 0 h10 m0 0 h10 m78 0 h10 m20 0 h10 m0 0 h398 m-428 0 h20 m408 0 h20 m-448 0 q10 0 10 10 m428 0 q0 -10 10 -10 m-438 10 v12 m428 0 v-12 m-428 12 q0 10 10 10 m408 0 q10 0 10 -10 m-418 10 h10 m24 0 h10 m0 0 h10 m142 0 h10 m20 0 h10 m0 0 h152 m-182 0 h20 m162 0 h20 m-202 0 q10 0 10 10 m182 0 q0 -10 10 -10 m-192 10 v12 m182 0 v-12 m-182 12 q0 10 10 10 m162 0 q10 0 10 -10 m-172 10 h10 m26 0 h10 m0 0 h10 m50 0 h10 m0 0 h10 m26 0 h10 m60 -64 h10 m0 0 h182 m-212 0 h20 m192 0 h20 m-232 0 q10 0 10 10 m212 0 q0 -10 10 -10 m-222 10 v12 m212 0 v-12 m-212 12 q0 10 10 10 m192 0 q10 0 10 -10 m-202 10 h10 m24 0 h10 m0 0 h10 m128 0 h10 m22 -32 l2 0 m2 0 l2 0 m2 0 l2 0 m-76 130 l2 0 m2 0 l2 0 m2 0 l2 0 m2 0 h10 m26 0 h10 m3 0 h-3"></path>
         <polygon points="951 147 959 143 959 151"></polygon>
         <polygon points="951 147 943 143 943 151"></polygon>
</svg>