<svg xmlns="http://www.w3.org/2000/svg" width="955" height="381">
    <defs>
        <style type="text/css">
            @namespace "http://www.w3.org/2000/svg";
            .line                 {fill: none; stroke: #636273;}
            .bold-line            {stroke: #636273; shape-rendering: crispEdges; stroke-width: 2; }
            .thin-line           {stroke: #636273; shape-rendering: crispEdges}
            .filled              {fill: #636273; stroke: none;}
            text.terminal        {font-family: -apple-system, BlinkMacSystemFont, "Segoe UI", Roboto, Ubuntu, Cantarell, Helvetica, sans-serif;
            font-size: 12px;
            fill: #ffffff;
            font-weight: bold;
            }
            text.nonterminal     {font-family: -apple-system, BlinkMacSystemFont, "Segoe UI", Roboto, Ubuntu, Cantarell, Helvetica, sans-serif;
            font-size: 12px;
            fill: #e289a4;
            font-weight: normal;
            }
            text.regexp          {font-family: -apple-system, BlinkMacSystemFont, "Segoe UI", Roboto, Ubuntu, Cantarell, Helvetica, sans-serif;
            font-size: 12px;
            fill: #00141F;
            font-weight: normal;
            }
            rect, circle, polygon {fill: none; stroke: none;}
            rect.terminal        {fill: none; stroke: #be2f5b;}
            rect.nonterminal     {fill: rgba(255,255,255,0.1); stroke: none;}
            rect.text            {fill: none; stroke: none;}
            polygon.regexp       {fill: #C7ECFF; stroke: #038cbc;}
        </style>
    </defs>
    <polygon points="9 61 1 57 1 65"></polygon>
         <polygon points="17 61 9 57 9 65"></polygon>
         <rect x="51" y="79" width="70" height="32" rx="10"></rect>
         <rect x="49" y="77" width="70" height="32" class="terminal" rx="10"></rect>
         <text class="terminal" x="59" y="97">SELECT</text>
         <rect x="141" y="79" width="28" height="32" rx="10"></rect>
         <rect x="139" y="77" width="28" height="32" class="terminal" rx="10"></rect>
         <text class="terminal" x="149" y="97">*</text>
         <rect x="189" y="79" width="60" height="32" rx="10"></rect>
         <rect x="187" y="77" width="60" height="32" class="terminal" rx="10"></rect>
         <text class="terminal" x="197" y="97">FROM</text><a xmlns:xlink="http://www.w3.org/1999/xlink" xlink:href="#tableNameExpr" xlink:title="tableNameExpr">
            <rect x="289" y="47" width="116" height="32"></rect>
            <rect x="287" y="45" width="116" height="32" class="nonterminal"></rect>
            <text class="nonterminal" x="297" y="65">tableNameExpr</text></a><rect x="425" y="47" width="64" height="32" rx="10"></rect>
         <rect x="423" y="45" width="64" height="32" class="terminal" rx="10"></rect>
         <text class="terminal" x="433" y="65">PIVOT</text>
         <rect x="509" y="47" width="26" height="32" rx="10"></rect>
         <rect x="507" y="45" width="26" height="32" class="terminal" rx="10"></rect>
         <text class="terminal" x="517" y="65">(</text><a xmlns:xlink="http://www.w3.org/1999/xlink" xlink:href="#aggregateExpr" xlink:title="aggregateExpr">
            <rect x="575" y="47" width="114" height="32"></rect>
            <rect x="573" y="45" width="114" height="32" class="nonterminal"></rect>
            <text class="nonterminal" x="583" y="65">aggregateExpr</text></a><rect x="709" y="47" width="38" height="32" rx="10"></rect>
         <rect x="707" y="45" width="38" height="32" class="terminal" rx="10"></rect>
         <text class="terminal" x="717" y="65">AS</text><a xmlns:xlink="http://www.w3.org/1999/xlink" xlink:href="#aliasExpr" xlink:title="aliasExpr">
            <rect x="767" y="47" width="78" height="32"></rect>
            <rect x="765" y="45" width="78" height="32" class="nonterminal"></rect>
            <text class="nonterminal" x="775" y="65">aliasExpr</text></a><rect x="575" y="3" width="24" height="32" rx="10"></rect>
         <rect x="573" y="1" width="24" height="32" class="terminal" rx="10"></rect>
         <text class="terminal" x="583" y="21">,</text>
         <rect x="885" y="47" width="48" height="32" rx="10"></rect>
         <rect x="883" y="45" width="48" height="32" class="terminal" rx="10"></rect>
         <text class="terminal" x="893" y="65">FOR</text><a xmlns:xlink="http://www.w3.org/1999/xlink" xlink:href="#pivotColumn" xlink:title="pivotColumn">
            <rect x="140" y="189" width="98" height="32"></rect>
            <rect x="138" y="187" width="98" height="32" class="nonterminal"></rect>
            <text class="nonterminal" x="148" y="207">pivotColumn</text></a><rect x="258" y="189" width="36" height="32" rx="10"></rect>
         <rect x="256" y="187" width="36" height="32" class="terminal" rx="10"></rect>
         <text class="terminal" x="266" y="207">IN</text>
         <rect x="314" y="189" width="26" height="32" rx="10"></rect>
         <rect x="312" y="187" width="26" height="32" class="terminal" rx="10"></rect>
         <text class="terminal" x="322" y="207">(</text><a xmlns:xlink="http://www.w3.org/1999/xlink" xlink:href="#listExpr" xlink:title="listExpr">
            <rect x="360" y="189" width="66" height="32"></rect>
            <rect x="358" y="187" width="66" height="32" class="nonterminal"></rect>
            <text class="nonterminal" x="368" y="207">listExpr</text></a><rect x="446" y="189" width="26" height="32" rx="10"></rect>
         <rect x="444" y="187" width="26" height="32" class="terminal" rx="10"></rect>
         <text class="terminal" x="454" y="207">)</text>
         <rect x="532" y="189" width="68" height="32" rx="10"></rect>
         <rect x="530" y="187" width="68" height="32" class="terminal" rx="10"></rect>
         <text class="terminal" x="540" y="207">GROUP</text>
         <rect x="620" y="189" width="38" height="32" rx="10"></rect>
         <rect x="618" y="187" width="38" height="32" class="terminal" rx="10"></rect>
         <text class="terminal" x="628" y="207">BY</text><a xmlns:xlink="http://www.w3.org/1999/xlink" xlink:href="#groupByExpr" xlink:title="groupByExpr">
            <rect x="698" y="189" width="100" height="32"></rect>
            <rect x="696" y="187" width="100" height="32" class="nonterminal"></rect>
            <text class="nonterminal" x="706" y="207">groupByExpr</text></a><rect x="698" y="145" width="24" height="32" rx="10"></rect>
         <rect x="696" y="143" width="24" height="32" class="terminal" rx="10"></rect>
         <text class="terminal" x="706" y="163">,</text>
         <rect x="363" y="315" width="68" height="32" rx="10"></rect>
         <rect x="361" y="313" width="68" height="32" class="terminal" rx="10"></rect>
         <text class="terminal" x="371" y="333">ORDER</text>
         <rect x="451" y="315" width="38" height="32" rx="10"></rect>
         <rect x="449" y="313" width="38" height="32" class="terminal" rx="10"></rect>
         <text class="terminal" x="459" y="333">BY</text><a xmlns:xlink="http://www.w3.org/1999/xlink" xlink:href="#orderByExpr" xlink:title="orderByExpr">
            <rect x="529" y="315" width="98" height="32"></rect>
            <rect x="527" y="313" width="98" height="32" class="nonterminal"></rect>
            <text class="nonterminal" x="537" y="333">orderByExpr</text></a><rect x="529" y="271" width="24" height="32" rx="10"></rect>
         <rect x="527" y="269" width="24" height="32" class="terminal" rx="10"></rect>
         <text class="terminal" x="537" y="289">,</text>
         <rect x="707" y="347" width="60" height="32" rx="10"></rect>
         <rect x="705" y="345" width="60" height="32" class="terminal" rx="10"></rect>
         <text class="terminal" x="715" y="365">LIMIT</text><a xmlns:xlink="http://www.w3.org/1999/xlink" xlink:href="#limitExpr" xlink:title="limitExpr">
            <rect x="787" y="347" width="74" height="32"></rect>
            <rect x="785" y="345" width="74" height="32" class="nonterminal"></rect>
            <text class="nonterminal" x="795" y="365">limitExpr</text></a><rect x="901" y="315" width="26" height="32" rx="10"></rect>
         <rect x="899" y="313" width="26" height="32" class="terminal" rx="10"></rect>
         <text class="terminal" x="909" y="333">)</text>
         <path class="line" d="m17 61 h2 m20 0 h10 m0 0 h208 m-238 0 h20 m218 0 h20 m-258 0 q10 0 10 10 m238 0 q0 -10 10 -10 m-248 10 v12 m238 0 v-12 m-238 12 q0 10 10 10 m218 0 q10 0 10 -10 m-228 10 h10 m70 0 h10 m0 0 h10 m28 0 h10 m0 0 h10 m60 0 h10 m20 -32 h10 m116 0 h10 m0 0 h10 m64 0 h10 m0 0 h10 m26 0 h10 m20 0 h10 m114 0 h10 m0 0 h10 m38 0 h10 m0 0 h10 m78 0 h10 m-310 0 l20 0 m-1 0 q-9 0 -9 -10 l0 -24 q0 -10 10 -10 m290 44 l20 0 m-20 0 q10 0 10 -10 l0 -24 q0 -10 -10 -10 m-290 0 h10 m24 0 h10 m0 0 h246 m20 44 h10 m48 0 h10 m2 0 l2 0 m2 0 l2 0 m2 0 l2 0 m-857 142 l2 0 m2 0 l2 0 m2 0 l2 0 m22 0 h10 m98 0 h10 m0 0 h10 m36 0 h10 m0 0 h10 m26 0 h10 m0 0 h10 m66 0 h10 m0 0 h10 m26 0 h10 m-372 0 l20 0 m-1 0 q-9 0 -9 -10 l0 -12 q0 -10 10 -10 m352 32 l20 0 m-20 0 q10 0 10 -10 l0 -12 q0 -10 -10 -10 m-352 0 h10 m0 0 h342 m40 32 h10 m68 0 h10 m0 0 h10 m38 0 h10 m20 0 h10 m100 0 h10 m-140 0 l20 0 m-1 0 q-9 0 -9 -10 l0 -24 q0 -10 10 -10 m120 44 l20 0 m-20 0 q10 0 10 -10 l0 -24 q0 -10 -10 -10 m-120 0 h10 m24 0 h10 m0 0 h76 m-306 44 h20 m306 0 h20 m-346 0 q10 0 10 10 m326 0 q0 -10 10 -10 m-336 10 v14 m326 0 v-14 m-326 14 q0 10 10 10 m306 0 q10 0 10 -10 m-316 10 h10 m0 0 h296 m22 -34 l2 0 m2 0 l2 0 m2 0 l2 0 m-539 126 l2 0 m2 0 l2 0 m2 0 l2 0 m22 0 h10 m68 0 h10 m0 0 h10 m38 0 h10 m20 0 h10 m98 0 h10 m-138 0 l20 0 m-1 0 q-9 0 -9 -10 l0 -24 q0 -10 10 -10 m118 44 l20 0 m-20 0 q10 0 10 -10 l0 -24 q0 -10 -10 -10 m-118 0 h10 m24 0 h10 m0 0 h74 m-304 44 h20 m304 0 h20 m-344 0 q10 0 10 10 m324 0 q0 -10 10 -10 m-334 10 v14 m324 0 v-14 m-324 14 q0 10 10 10 m304 0 q10 0 10 -10 m-314 10 h10 m0 0 h294 m40 -34 h10 m0 0 h164 m-194 0 h20 m174 0 h20 m-214 0 q10 0 10 10 m194 0 q0 -10 10 -10 m-204 10 v12 m194 0 v-12 m-194 12 q0 10 10 10 m174 0 q10 0 10 -10 m-184 10 h10 m60 0 h10 m0 0 h10 m74 0 h10 m20 -32 h10 m26 0 h10 m3 0 h-3"></path>
         <polygon points="945 329 953 325 953 333"></polygon>
         <polygon points="945 329 937 325 937 333"></polygon>
</svg>