<svg xmlns="http://www.w3.org/2000/svg" width="983" height="441">
    <defs>
        <style type="text/css">
            @namespace "http://www.w3.org/2000/svg";
            .line                 {fill: none; stroke: #636273;}
            .bold-line            {stroke: #636273; shape-rendering: crispEdges; stroke-width: 2; }
            .thin-line           {stroke: #636273; shape-rendering: crispEdges}
            .filled              {fill: #636273; stroke: none;}
            text.terminal        {font-family: -apple-system, BlinkMacSystemFont, "Segoe UI", Roboto, Ubuntu, Cantarell, Helvetica, sans-serif;
            font-size: 12px;
            fill: #ffffff;
            font-weight: bold;
            }
            text.nonterminal     {font-family: -apple-system, BlinkMacSystemFont, "Segoe UI", Roboto, Ubuntu, Cantarell, Helvetica, sans-serif;
            font-size: 12px;
            fill: #e289a4;
            font-weight: normal;
            }
            text.regexp          {font-family: -apple-system, BlinkMacSystemFont, "Segoe UI", Roboto, Ubuntu, Cantarell, Helvetica, sans-serif;
            font-size: 12px;
            fill: #00141F;
            font-weight: normal;
            }
            rect, circle, polygon {fill: none; stroke: none;}
            rect.terminal        {fill: none; stroke: #be2f5b;}
            rect.nonterminal     {fill: rgba(255,255,255,0.1); stroke: none;}
            rect.text            {fill: none; stroke: none;}
            polygon.regexp       {fill: #C7ECFF; stroke: #038cbc;}
        </style>
    </defs>
    <polygon points="11 61 3 57 3 65"></polygon>
         <polygon points="19 61 11 57 11 65"></polygon>
         <rect x="53" y="47" width="26" height="32" rx="10"></rect>
         <rect x="51" y="45" width="26" height="32" class="terminal" rx="10"></rect>
         <text class="terminal" x="61" y="65">(</text><a xmlns:xlink="http://www.w3.org/1999/xlink" xlink:href="#selectQuery" xlink:title="selectQuery">
            <rect x="99" y="47" width="94" height="32"></rect>
            <rect x="97" y="45" width="94" height="32" class="nonterminal"></rect>
            <text class="nonterminal" x="107" y="65">selectQuery</text></a><rect x="213" y="47" width="26" height="32" rx="10"></rect>
         <rect x="211" y="45" width="26" height="32" class="terminal" rx="10"></rect>
         <text class="terminal" x="221" y="65">)</text><a xmlns:xlink="http://www.w3.org/1999/xlink" xlink:href="#tableName" xlink:title="tableName">
            <rect x="53" y="91" width="88" height="32"></rect>
            <rect x="51" y="89" width="88" height="32" class="nonterminal"></rect>
            <text class="nonterminal" x="61" y="109">tableName</text></a><rect x="279" y="47" width="64" height="32" rx="10"></rect>
         <rect x="277" y="45" width="64" height="32" class="terminal" rx="10"></rect>
         <text class="terminal" x="287" y="65">PIVOT</text>
         <rect x="363" y="47" width="26" height="32" rx="10"></rect>
         <rect x="361" y="45" width="26" height="32" class="terminal" rx="10"></rect>
         <text class="terminal" x="371" y="65">(</text><a xmlns:xlink="http://www.w3.org/1999/xlink" xlink:href="#aggregateFunc" xlink:title="aggregateFunc">
            <rect x="429" y="47" width="114" height="32"></rect>
            <rect x="427" y="45" width="114" height="32" class="nonterminal"></rect>
            <text class="nonterminal" x="437" y="65">aggregateFunc</text></a><rect x="583" y="79" width="38" height="32" rx="10"></rect>
         <rect x="581" y="77" width="38" height="32" class="terminal" rx="10"></rect>
         <text class="terminal" x="591" y="97">AS</text><a xmlns:xlink="http://www.w3.org/1999/xlink" xlink:href="#alias" xlink:title="alias">
            <rect x="641" y="79" width="50" height="32"></rect>
            <rect x="639" y="77" width="50" height="32" class="nonterminal"></rect>
            <text class="nonterminal" x="649" y="97">alias</text></a><rect x="429" y="3" width="24" height="32" rx="10"></rect>
         <rect x="427" y="1" width="24" height="32" class="terminal" rx="10"></rect>
         <text class="terminal" x="437" y="21">,</text>
         <rect x="751" y="47" width="48" height="32" rx="10"></rect>
         <rect x="749" y="45" width="48" height="32" class="terminal" rx="10"></rect>
         <text class="terminal" x="759" y="65">FOR</text><a xmlns:xlink="http://www.w3.org/1999/xlink" xlink:href="#pivotColumn" xlink:title="pivotColumn">
            <rect x="200" y="189" width="98" height="32"></rect>
            <rect x="198" y="187" width="98" height="32" class="nonterminal"></rect>
            <text class="nonterminal" x="208" y="207">pivotColumn</text></a><rect x="318" y="189" width="36" height="32" rx="10"></rect>
         <rect x="316" y="187" width="36" height="32" class="terminal" rx="10"></rect>
         <text class="terminal" x="326" y="207">IN</text>
         <rect x="374" y="189" width="26" height="32" rx="10"></rect>
         <rect x="372" y="187" width="26" height="32" class="terminal" rx="10"></rect>
         <text class="terminal" x="382" y="207">(</text><a xmlns:xlink="http://www.w3.org/1999/xlink" xlink:href="#constant" xlink:title="constant">
            <rect x="460" y="189" width="74" height="32"></rect>
            <rect x="458" y="187" width="74" height="32" class="nonterminal"></rect>
            <text class="nonterminal" x="468" y="207">constant</text></a><rect x="574" y="221" width="38" height="32" rx="10"></rect>
         <rect x="572" y="219" width="38" height="32" class="terminal" rx="10"></rect>
         <text class="terminal" x="582" y="239">AS</text><a xmlns:xlink="http://www.w3.org/1999/xlink" xlink:href="#alias" xlink:title="alias">
            <rect x="632" y="221" width="50" height="32"></rect>
            <rect x="630" y="219" width="50" height="32" class="nonterminal"></rect>
            <text class="nonterminal" x="640" y="239">alias</text></a><a xmlns:xlink="http://www.w3.org/1999/xlink" xlink:href="#selectDistinctQuery" xlink:title="selectDistinctQuery">
            <rect x="440" y="265" width="142" height="32"></rect>
            <rect x="438" y="263" width="142" height="32" class="nonterminal"></rect>
            <text class="nonterminal" x="448" y="283">selectDistinctQuery</text></a><rect x="762" y="189" width="26" height="32" rx="10"></rect>
         <rect x="760" y="187" width="26" height="32" class="terminal" rx="10"></rect>
         <text class="terminal" x="770" y="207">)</text>
         <rect x="45" y="375" width="68" height="32" rx="10"></rect>
         <rect x="43" y="373" width="68" height="32" class="terminal" rx="10"></rect>
         <text class="terminal" x="53" y="393">GROUP</text>
         <rect x="133" y="375" width="38" height="32" rx="10"></rect>
         <rect x="131" y="373" width="38" height="32" class="terminal" rx="10"></rect>
         <text class="terminal" x="141" y="393">BY</text><a xmlns:xlink="http://www.w3.org/1999/xlink" xlink:href="#groupByExpr" xlink:title="groupByExpr">
            <rect x="211" y="375" width="100" height="32"></rect>
            <rect x="209" y="373" width="100" height="32" class="nonterminal"></rect>
            <text class="nonterminal" x="219" y="393">groupByExpr</text></a><rect x="211" y="331" width="24" height="32" rx="10"></rect>
         <rect x="209" y="329" width="24" height="32" class="terminal" rx="10"></rect>
         <text class="terminal" x="219" y="349">,</text>
         <rect x="391" y="375" width="68" height="32" rx="10"></rect>
         <rect x="389" y="373" width="68" height="32" class="terminal" rx="10"></rect>
         <text class="terminal" x="399" y="393">ORDER</text>
         <rect x="479" y="375" width="38" height="32" rx="10"></rect>
         <rect x="477" y="373" width="38" height="32" class="terminal" rx="10"></rect>
         <text class="terminal" x="487" y="393">BY</text><a xmlns:xlink="http://www.w3.org/1999/xlink" xlink:href="#orderByExpr" xlink:title="orderByExpr">
            <rect x="557" y="375" width="98" height="32"></rect>
            <rect x="555" y="373" width="98" height="32" class="nonterminal"></rect>
            <text class="nonterminal" x="565" y="393">orderByExpr</text></a><rect x="557" y="331" width="24" height="32" rx="10"></rect>
         <rect x="555" y="329" width="24" height="32" class="terminal" rx="10"></rect>
         <text class="terminal" x="565" y="349">,</text>
         <rect x="735" y="407" width="60" height="32" rx="10"></rect>
         <rect x="733" y="405" width="60" height="32" class="terminal" rx="10"></rect>
         <text class="terminal" x="743" y="425">LIMIT</text><a xmlns:xlink="http://www.w3.org/1999/xlink" xlink:href="#limitExpr" xlink:title="limitExpr">
            <rect x="815" y="407" width="74" height="32"></rect>
            <rect x="813" y="405" width="74" height="32" class="nonterminal"></rect>
            <text class="nonterminal" x="823" y="425">limitExpr</text></a><rect x="929" y="375" width="26" height="32" rx="10"></rect>
         <rect x="927" y="373" width="26" height="32" class="terminal" rx="10"></rect>
         <text class="terminal" x="937" y="393">)</text>
         <path class="line" d="m19 61 h2 m20 0 h10 m26 0 h10 m0 0 h10 m94 0 h10 m0 0 h10 m26 0 h10 m-226 0 h20 m206 0 h20 m-246 0 q10 0 10 10 m226 0 q0 -10 10 -10 m-236 10 v24 m226 0 v-24 m-226 24 q0 10 10 10 m206 0 q10 0 10 -10 m-216 10 h10 m88 0 h10 m0 0 h98 m20 -44 h10 m64 0 h10 m0 0 h10 m26 0 h10 m20 0 h10 m114 0 h10 m20 0 h10 m0 0 h118 m-148 0 h20 m128 0 h20 m-168 0 q10 0 10 10 m148 0 q0 -10 10 -10 m-158 10 v12 m148 0 v-12 m-148 12 q0 10 10 10 m128 0 q10 0 10 -10 m-138 10 h10 m38 0 h10 m0 0 h10 m50 0 h10 m-302 -32 l20 0 m-1 0 q-9 0 -9 -10 l0 -24 q0 -10 10 -10 m302 44 l20 0 m-20 0 q10 0 10 -10 l0 -24 q0 -10 -10 -10 m-302 0 h10 m24 0 h10 m0 0 h258 m20 44 h10 m48 0 h10 m2 0 l2 0 m2 0 l2 0 m2 0 l2 0 m-663 142 l2 0 m2 0 l2 0 m2 0 l2 0 m22 0 h10 m98 0 h10 m0 0 h10 m36 0 h10 m0 0 h10 m26 0 h10 m40 0 h10 m74 0 h10 m20 0 h10 m0 0 h118 m-148 0 h20 m128 0 h20 m-168 0 q10 0 10 10 m148 0 q0 -10 10 -10 m-158 10 v12 m148 0 v-12 m-148 12 q0 10 10 10 m128 0 q10 0 10 -10 m-138 10 h10 m38 0 h10 m0 0 h10 m50 0 h10 m-262 -32 l20 0 m-1 0 q-9 0 -9 -10 l0 -12 q0 -10 10 -10 m262 32 l20 0 m-20 0 q10 0 10 -10 l0 -12 q0 -10 -10 -10 m-262 0 h10 m0 0 h252 m-302 32 h20 m302 0 h20 m-342 0 q10 0 10 10 m322 0 q0 -10 10 -10 m-332 10 v56 m322 0 v-56 m-322 56 q0 10 10 10 m302 0 q10 0 10 -10 m-312 10 h10 m142 0 h10 m0 0 h140 m20 -76 h10 m26 0 h10 m-628 0 l20 0 m-1 0 q-9 0 -9 -10 l0 -28 q0 -10 10 -10 m608 48 l20 0 m-20 0 q10 0 10 -10 l0 -28 q0 -10 -10 -10 m-608 0 h10 m0 0 h598 m22 48 l2 0 m2 0 l2 0 m2 0 l2 0 m-827 186 l2 0 m2 0 l2 0 m2 0 l2 0 m22 0 h10 m68 0 h10 m0 0 h10 m38 0 h10 m20 0 h10 m100 0 h10 m-140 0 l20 0 m-1 0 q-9 0 -9 -10 l0 -24 q0 -10 10 -10 m120 44 l20 0 m-20 0 q10 0 10 -10 l0 -24 q0 -10 -10 -10 m-120 0 h10 m24 0 h10 m0 0 h76 m-306 44 h20 m306 0 h20 m-346 0 q10 0 10 10 m326 0 q0 -10 10 -10 m-336 10 v14 m326 0 v-14 m-326 14 q0 10 10 10 m306 0 q10 0 10 -10 m-316 10 h10 m0 0 h296 m40 -34 h10 m68 0 h10 m0 0 h10 m38 0 h10 m20 0 h10 m98 0 h10 m-138 0 l20 0 m-1 0 q-9 0 -9 -10 l0 -24 q0 -10 10 -10 m118 44 l20 0 m-20 0 q10 0 10 -10 l0 -24 q0 -10 -10 -10 m-118 0 h10 m24 0 h10 m0 0 h74 m-304 44 h20 m304 0 h20 m-344 0 q10 0 10 10 m324 0 q0 -10 10 -10 m-334 10 v14 m324 0 v-14 m-324 14 q0 10 10 10 m304 0 q10 0 10 -10 m-314 10 h10 m0 0 h294 m40 -34 h10 m0 0 h164 m-194 0 h20 m174 0 h20 m-214 0 q10 0 10 10 m194 0 q0 -10 10 -10 m-204 10 v12 m194 0 v-12 m-194 12 q0 10 10 10 m174 0 q10 0 10 -10 m-184 10 h10 m60 0 h10 m0 0 h10 m74 0 h10 m20 -32 h10 m26 0 h10 m3 0 h-3"></path>
         <polygon points="973 389 981 385 981 393"></polygon>
         <polygon points="973 389 965 385 965 393"></polygon>
</svg>