<svg xmlns="http://www.w3.org/2000/svg" width="643" height="81">
    <defs>
        <style type="text/css">
            @namespace "http://www.w3.org/2000/svg";
            .line                 {fill: none; stroke: #636273;}
            .bold-line            {stroke: #636273; shape-rendering: crispEdges; stroke-width: 2; }
            .thin-line           {stroke: #636273; shape-rendering: crispEdges}
            .filled              {fill: #636273; stroke: none;}
            text.terminal        {font-family: -apple-system, BlinkMacSystemFont, "Segoe UI", Roboto, Ubuntu, Cantarell, Helvetica, sans-serif;
            font-size: 12px;
            fill: #ffffff;
            font-weight: bold;
            }
            text.nonterminal     {font-family: -apple-system, BlinkMacSystemFont, "Segoe UI", Roboto, Ubuntu, Cantarell, Helvetica, sans-serif;
            font-size: 12px;
            fill: #e289a4;
            font-weight: normal;
            }
            text.regexp          {font-family: -apple-system, BlinkMacSystemFont, "Segoe UI", Roboto, Ubuntu, Cantarell, Helvetica, sans-serif;
            font-size: 12px;
            fill: #00141F;
            font-weight: normal;
            }
            rect, circle, polygon {fill: none; stroke: none;}
            rect.terminal        {fill: none; stroke: #be2f5b;}
            rect.nonterminal     {fill: rgba(255,255,255,0.1); stroke: none;}
            rect.text            {fill: none; stroke: none;}
            polygon.regexp       {fill: #C7ECFF; stroke: #038cbc;}
        </style>
    </defs>
    <polygon points="9 17 1 13 1 21"></polygon>
         <polygon points="17 17 9 13 9 21"></polygon>
         <rect x="31" y="3" width="82" height="32" rx="10"></rect>
         <rect x="29" y="1" width="82" height="32" class="terminal" rx="10"></rect>
         <text class="terminal" x="39" y="21">REFRESH</text>
         <rect x="133" y="3" width="122" height="32" rx="10"></rect>
         <rect x="131" y="1" width="122" height="32" class="terminal" rx="10"></rect>
         <text class="terminal" x="141" y="21">MATERIALIZED</text>
         <rect x="275" y="3" width="58" height="32" rx="10"></rect>
         <rect x="273" y="1" width="58" height="32" class="terminal" rx="10"></rect>
         <text class="terminal" x="283" y="21">VIEW</text><a xmlns:xlink="http://www.w3.org/1999/xlink" xlink:href="#viewName" xlink:title="viewName">
            <rect x="353" y="3" width="84" height="32"></rect>
            <rect x="351" y="1" width="84" height="32" class="nonterminal"></rect>
            <text class="nonterminal" x="361" y="21">viewName</text></a><rect x="477" y="3" width="54" height="32" rx="10"></rect>
         <rect x="475" y="1" width="54" height="32" class="terminal" rx="10"></rect>
         <text class="terminal" x="485" y="21">FULL</text>
         <rect x="477" y="47" width="118" height="32" rx="10"></rect>
         <rect x="475" y="45" width="118" height="32" class="terminal" rx="10"></rect>
         <text class="terminal" x="485" y="65">INCREMENTAL</text>
         <path class="line" d="m17 17 h2 m0 0 h10 m82 0 h10 m0 0 h10 m122 0 h10 m0 0 h10 m58 0 h10 m0 0 h10 m84 0 h10 m20 0 h10 m54 0 h10 m0 0 h64 m-158 0 h20 m138 0 h20 m-178 0 q10 0 10 10 m158 0 q0 -10 10 -10 m-168 10 v24 m158 0 v-24 m-158 24 q0 10 10 10 m138 0 q10 0 10 -10 m-148 10 h10 m118 0 h10 m23 -44 h-3"></path>
         <polygon points="633 17 641 13 641 21"></polygon>
         <polygon points="633 17 625 13 625 21"></polygon>
</svg>