<svg xmlns="http://www.w3.org/2000/svg" width="579" height="191">
    <defs>
        <style type="text/css">
            @namespace "http://www.w3.org/2000/svg";
            .line                 {fill: none; stroke: #636273;}
            .bold-line            {stroke: #636273; shape-rendering: crispEdges; stroke-width: 2; }
            .thin-line           {stroke: #636273; shape-rendering: crispEdges}
            .filled              {fill: #636273; stroke: none;}
            text.terminal        {font-family: -apple-system, BlinkMacSystemFont, "Segoe UI", Roboto, Ubuntu, Cantarell, Helvetica, sans-serif;
            font-size: 12px;
            fill: #ffffff;
            font-weight: bold;
            }
            text.nonterminal     {font-family: -apple-system, BlinkMacSystemFont, "Segoe UI", Roboto, Ubuntu, Cantarell, Helvetica, sans-serif;
            font-size: 12px;
            fill: #e289a4;
            font-weight: normal;
            }
            text.regexp          {font-family: -apple-system, BlinkMacSystemFont, "Segoe UI", Roboto, Ubuntu, Cantarell, Helvetica, sans-serif;
            font-size: 12px;
            fill: #00141F;
            font-weight: normal;
            }
            rect, circle, polygon {fill: none; stroke: none;}
            rect.terminal        {fill: none; stroke: #be2f5b;}
            rect.nonterminal     {fill: rgba(255,255,255,0.1); stroke: none;}
            rect.text            {fill: none; stroke: none;}
            polygon.regexp       {fill: #C7ECFF; stroke: #038cbc;}
        </style>
    </defs>
    <polygon points="11 17 3 13 3 21"></polygon>
         <polygon points="19 17 11 13 11 21"></polygon>
         <rect x="33" y="3" width="82" height="32" rx="10"></rect>
         <rect x="31" y="1" width="82" height="32" class="terminal" rx="10"></rect>
         <text class="terminal" x="41" y="21">REFRESH</text>
         <rect x="135" y="3" width="122" height="32" rx="10"></rect>
         <rect x="133" y="1" width="122" height="32" class="terminal" rx="10"></rect>
         <text class="terminal" x="143" y="21">MATERIALIZED</text>
         <rect x="277" y="3" width="58" height="32" rx="10"></rect>
         <rect x="275" y="1" width="58" height="32" class="terminal" rx="10"></rect>
         <text class="terminal" x="285" y="21">VIEW</text><a xmlns:xlink="http://www.w3.org/1999/xlink" xlink:href="#viewName" xlink:title="viewName">
            <rect x="355" y="3" width="84" height="32"></rect>
            <rect x="353" y="1" width="84" height="32" class="nonterminal"></rect>
            <text class="nonterminal" x="363" y="21">viewName</text></a><rect x="45" y="69" width="54" height="32" rx="10"></rect>
         <rect x="43" y="67" width="54" height="32" class="terminal" rx="10"></rect>
         <text class="terminal" x="53" y="87">FULL</text>
         <rect x="45" y="113" width="118" height="32" rx="10"></rect>
         <rect x="43" y="111" width="118" height="32" class="terminal" rx="10"></rect>
         <text class="terminal" x="53" y="131">INCREMENTAL</text>
         <rect x="45" y="157" width="88" height="32" rx="10"></rect>
         <rect x="43" y="155" width="88" height="32" class="terminal" rx="10"></rect>
         <text class="terminal" x="53" y="175">INTERVAL</text>
         <rect x="153" y="157" width="60" height="32" rx="10"></rect>
         <rect x="151" y="155" width="60" height="32" class="terminal" rx="10"></rect>
         <text class="terminal" x="161" y="175">FROM</text><a xmlns:xlink="http://www.w3.org/1999/xlink" xlink:href="#fromTimestamp" xlink:title="fromTimestamp">
            <rect x="233" y="157" width="118" height="32"></rect>
            <rect x="231" y="155" width="118" height="32" class="nonterminal"></rect>
            <text class="nonterminal" x="241" y="175">fromTimestamp</text></a><rect x="371" y="157" width="38" height="32" rx="10"></rect>
         <rect x="369" y="155" width="38" height="32" class="terminal" rx="10"></rect>
         <text class="terminal" x="379" y="175">TO</text><a xmlns:xlink="http://www.w3.org/1999/xlink" xlink:href="#toTimestamp" xlink:title="toTimestamp">
            <rect x="429" y="157" width="102" height="32"></rect>
            <rect x="427" y="155" width="102" height="32" class="nonterminal"></rect>
            <text class="nonterminal" x="437" y="175">toTimestamp</text></a><path class="line" d="m19 17 h2 m0 0 h10 m82 0 h10 m0 0 h10 m122 0 h10 m0 0 h10 m58 0 h10 m0 0 h10 m84 0 h10 m2 0 l2 0 m2 0 l2 0 m2 0 l2 0 m-458 66 l2 0 m2 0 l2 0 m2 0 l2 0 m22 0 h10 m54 0 h10 m0 0 h432 m-526 0 h20 m506 0 h20 m-546 0 q10 0 10 10 m526 0 q0 -10 10 -10 m-536 10 v24 m526 0 v-24 m-526 24 q0 10 10 10 m506 0 q10 0 10 -10 m-516 10 h10 m118 0 h10 m0 0 h368 m-516 -10 v20 m526 0 v-20 m-526 20 v24 m526 0 v-24 m-526 24 q0 10 10 10 m506 0 q10 0 10 -10 m-516 10 h10 m88 0 h10 m0 0 h10 m60 0 h10 m0 0 h10 m118 0 h10 m0 0 h10 m38 0 h10 m0 0 h10 m102 0 h10 m23 -88 h-3"></path>
         <polygon points="569 83 577 79 577 87"></polygon>
         <polygon points="569 83 561 79 561 87"></polygon>
</svg>