<svg xmlns="http://www.w3.org/2000/svg" width="549" height="81">
    <defs>
        <style type="text/css">
            @namespace "http://www.w3.org/2000/svg";
            .line                 {fill: none; stroke: #636273;}
            .bold-line            {stroke: #636273; shape-rendering: crispEdges; stroke-width: 2; }
            .thin-line           {stroke: #636273; shape-rendering: crispEdges}
            .filled              {fill: #636273; stroke: none;}
            text.terminal        {font-family: -apple-system, BlinkMacSystemFont, "Segoe UI", Roboto, Ubuntu, Cantarell, Helvetica, sans-serif;
            font-size: 12px;
            fill: #ffffff;
            font-weight: bold;
            }
            text.nonterminal     {font-family: -apple-system, BlinkMacSystemFont, "Segoe UI", Roboto, Ubuntu, Cantarell, Helvetica, sans-serif;
            font-size: 12px;
            fill: #e289a4;
            font-weight: normal;
            }
            text.regexp          {font-family: -apple-system, BlinkMacSystemFont, "Segoe UI", Roboto, Ubuntu, Cantarell, Helvetica, sans-serif;
            font-size: 12px;
            fill: #00141F;
            font-weight: normal;
            }
            rect, circle, polygon {fill: none; stroke: none;}
            rect.terminal        {fill: none; stroke: #be2f5b;}
            rect.nonterminal     {fill: rgba(255,255,255,0.1); stroke: none;}
            rect.text            {fill: none; stroke: none;}
            polygon.regexp       {fill: #C7ECFF; stroke: #038cbc;}
        </style>
    </defs>
    <polygon points="9 61 1 57 1 65"></polygon>
         <polygon points="17 61 9 57 9 65"></polygon>
         <rect x="31" y="47" width="76" height="32" rx="10"></rect>
         <rect x="29" y="45" width="76" height="32" class="terminal" rx="10"></rect>
         <text class="terminal" x="39" y="65">REMOVE</text>
         <rect x="127" y="47" width="56" height="32" rx="10"></rect>
         <rect x="125" y="45" width="56" height="32" class="terminal" rx="10"></rect>
         <text class="terminal" x="135" y="65">USER</text><a xmlns:xlink="http://www.w3.org/1999/xlink" xlink:href="#userName" xlink:title="userName">
            <rect x="203" y="47" width="84" height="32"></rect>
            <rect x="201" y="45" width="84" height="32" class="nonterminal"></rect>
            <text class="nonterminal" x="211" y="65">userName</text></a><rect x="307" y="47" width="60" height="32" rx="10"></rect>
         <rect x="305" y="45" width="60" height="32" class="terminal" rx="10"></rect>
         <text class="terminal" x="315" y="65">FROM</text><a xmlns:xlink="http://www.w3.org/1999/xlink" xlink:href="#groupName" xlink:title="groupName">
            <rect x="407" y="47" width="94" height="32"></rect>
            <rect x="405" y="45" width="94" height="32" class="nonterminal"></rect>
            <text class="nonterminal" x="415" y="65">groupName</text></a><rect x="407" y="3" width="24" height="32" rx="10"></rect>
         <rect x="405" y="1" width="24" height="32" class="terminal" rx="10"></rect>
         <text class="terminal" x="415" y="21">,</text>
         <path class="line" d="m17 61 h2 m0 0 h10 m76 0 h10 m0 0 h10 m56 0 h10 m0 0 h10 m84 0 h10 m0 0 h10 m60 0 h10 m20 0 h10 m94 0 h10 m-134 0 l20 0 m-1 0 q-9 0 -9 -10 l0 -24 q0 -10 10 -10 m114 44 l20 0 m-20 0 q10 0 10 -10 l0 -24 q0 -10 -10 -10 m-114 0 h10 m24 0 h10 m0 0 h70 m23 44 h-3"></path>
         <polygon points="539 61 547 57 547 65"></polygon>
         <polygon points="539 61 531 57 531 65"></polygon>
</svg>