<svg xmlns="http://www.w3.org/2000/svg" width="979" height="261">
    <defs>
        <style type="text/css">
            @namespace "http://www.w3.org/2000/svg";
            .line                 {fill: none; stroke: #636273;}
            .bold-line            {stroke: #636273; shape-rendering: crispEdges; stroke-width: 2; }
            .thin-line           {stroke: #636273; shape-rendering: crispEdges}
            .filled              {fill: #636273; stroke: none;}
            text.terminal        {font-family: -apple-system, BlinkMacSystemFont, "Segoe UI", Roboto, Ubuntu, Cantarell, Helvetica, sans-serif;
            font-size: 12px;
            fill: #ffffff;
            font-weight: bold;
            }
            text.nonterminal     {font-family: -apple-system, BlinkMacSystemFont, "Segoe UI", Roboto, Ubuntu, Cantarell, Helvetica, sans-serif;
            font-size: 12px;
            fill: #e289a4;
            font-weight: normal;
            }
            text.regexp          {font-family: -apple-system, BlinkMacSystemFont, "Segoe UI", Roboto, Ubuntu, Cantarell, Helvetica, sans-serif;
            font-size: 12px;
            fill: #00141F;
            font-weight: normal;
            }
            rect, circle, polygon {fill: none; stroke: none;}
            rect.terminal        {fill: none; stroke: #be2f5b;}
            rect.nonterminal     {fill: rgba(255,255,255,0.1); stroke: none;}
            rect.text            {fill: none; stroke: none;}
            polygon.regexp       {fill: #C7ECFF; stroke: #038cbc;}
        </style>
    </defs>
    <polygon points="11 61 3 57 3 65"></polygon>
         <polygon points="19 61 11 57 11 65"></polygon>
         <rect x="33" y="47" width="74" height="32" rx="10"></rect>
         <rect x="31" y="45" width="74" height="32" class="terminal" rx="10"></rect>
         <text class="terminal" x="41" y="65">REVOKE</text><a xmlns:xlink="http://www.w3.org/1999/xlink" xlink:href="#permission" xlink:title="permission">
            <rect x="147" y="47" width="88" height="32"></rect>
            <rect x="145" y="45" width="88" height="32" class="nonterminal"></rect>
            <text class="nonterminal" x="155" y="65">permission</text></a><rect x="147" y="3" width="24" height="32" rx="10"></rect>
         <rect x="145" y="1" width="24" height="32" class="terminal" rx="10"></rect>
         <text class="terminal" x="155" y="21">,</text>
         <rect x="45" y="179" width="40" height="32" rx="10"></rect>
         <rect x="43" y="177" width="40" height="32" class="terminal" rx="10"></rect>
         <text class="terminal" x="53" y="197">ON</text><a xmlns:xlink="http://www.w3.org/1999/xlink" xlink:href="#tableName" xlink:title="tableName">
            <rect x="125" y="179" width="88" height="32"></rect>
            <rect x="123" y="177" width="88" height="32" class="nonterminal"></rect>
            <text class="nonterminal" x="133" y="197">tableName</text></a><rect x="253" y="179" width="26" height="32" rx="10"></rect>
         <rect x="251" y="177" width="26" height="32" class="terminal" rx="10"></rect>
         <text class="terminal" x="261" y="197">(</text>
         <rect x="299" y="179" width="108" height="32" rx="10"></rect>
         <rect x="297" y="177" width="108" height="32" class="terminal" rx="10"></rect>
         <text class="terminal" x="307" y="197">columnName</text>
         <rect x="467" y="179" width="24" height="32" rx="10"></rect>
         <rect x="465" y="177" width="24" height="32" class="terminal" rx="10"></rect>
         <text class="terminal" x="475" y="197">,</text><a xmlns:xlink="http://www.w3.org/1999/xlink" xlink:href="#columnName" xlink:title="columnName">
            <rect x="511" y="179" width="102" height="32"></rect>
            <rect x="509" y="177" width="102" height="32" class="nonterminal"></rect>
            <text class="nonterminal" x="519" y="197">columnName</text></a><rect x="673" y="179" width="26" height="32" rx="10"></rect>
         <rect x="671" y="177" width="26" height="32" class="terminal" rx="10"></rect>
         <text class="terminal" x="681" y="197">)</text>
         <rect x="125" y="113" width="24" height="32" rx="10"></rect>
         <rect x="123" y="111" width="24" height="32" class="terminal" rx="10"></rect>
         <text class="terminal" x="133" y="131">,</text>
         <rect x="779" y="179" width="60" height="32" rx="10"></rect>
         <rect x="777" y="177" width="60" height="32" class="terminal" rx="10"></rect>
         <text class="terminal" x="787" y="197">FROM</text><a xmlns:xlink="http://www.w3.org/1999/xlink" xlink:href="#entityName" xlink:title="entityName">
            <rect x="859" y="179" width="92" height="32"></rect>
            <rect x="857" y="177" width="92" height="32" class="nonterminal"></rect>
            <text class="nonterminal" x="867" y="197">entityName</text></a><path class="line" d="m19 61 h2 m0 0 h10 m74 0 h10 m20 0 h10 m88 0 h10 m-128 0 l20 0 m-1 0 q-9 0 -9 -10 l0 -24 q0 -10 10 -10 m108 44 l20 0 m-20 0 q10 0 10 -10 l0 -24 q0 -10 -10 -10 m-108 0 h10 m24 0 h10 m0 0 h64 m22 44 l2 0 m2 0 l2 0 m2 0 l2 0 m-274 132 l2 0 m2 0 l2 0 m2 0 l2 0 m22 0 h10 m40 0 h10 m20 0 h10 m88 0 h10 m20 0 h10 m26 0 h10 m0 0 h10 m108 0 h10 m40 0 h10 m24 0 h10 m0 0 h10 m102 0 h10 m-186 0 l20 0 m-1 0 q-9 0 -9 -10 l0 -12 q0 -10 10 -10 m166 32 l20 0 m-20 0 q10 0 10 -10 l0 -12 q0 -10 -10 -10 m-166 0 h10 m0 0 h156 m-206 32 h20 m206 0 h20 m-246 0 q10 0 10 10 m226 0 q0 -10 10 -10 m-236 10 v14 m226 0 v-14 m-226 14 q0 10 10 10 m206 0 q10 0 10 -10 m-216 10 h10 m0 0 h196 m20 -34 h10 m26 0 h10 m-486 0 h20 m466 0 h20 m-506 0 q10 0 10 10 m486 0 q0 -10 10 -10 m-496 10 v30 m486 0 v-30 m-486 30 q0 10 10 10 m466 0 q10 0 10 -10 m-476 10 h10 m0 0 h456 m-614 -50 l20 0 m-1 0 q-9 0 -9 -10 l0 -46 q0 -10 10 -10 m614 66 l20 0 m-20 0 q10 0 10 -10 l0 -46 q0 -10 -10 -10 m-614 0 h10 m24 0 h10 m0 0 h570 m-714 66 h20 m714 0 h20 m-754 0 q10 0 10 10 m734 0 q0 -10 10 -10 m-744 10 v46 m734 0 v-46 m-734 46 q0 10 10 10 m714 0 q10 0 10 -10 m-724 10 h10 m0 0 h704 m20 -66 h10 m60 0 h10 m0 0 h10 m92 0 h10 m3 0 h-3"></path>
         <polygon points="969 193 977 189 977 197"></polygon>
         <polygon points="969 193 961 189 961 197"></polygon>
</svg>