<svg xmlns="http://www.w3.org/2000/svg" width="720" height="33">
    <defs>
        <style type="text/css">
            @namespace "http://www.w3.org/2000/svg";
            .line                 {fill: none; stroke: #636273;}
            .bold-line            {stroke: #636273; shape-rendering: crispEdges; stroke-width: 2; }
            .thin-line            {stroke: #636273; shape-rendering: crispEdges}
            .filled               {fill: #636273; stroke: none;}
            text.terminal         {font-family: -apple-system, BlinkMacSystemFont, "Segoe UI", Roboto, Ubuntu, Cantarell, Helvetica, sans-serif;
            font-size: 12px;
            fill: #ffffff;
            font-weight: bold;
            }
            text.nonterminal      {font-family: -apple-system, BlinkMacSystemFont, "Segoe UI", Roboto, Ubuntu, Cantarell, Helvetica, sans-serif;
            font-size: 12px;
            fill: #e289a4;
            font-weight: normal;
            }
            text.regexp           {font-family: -apple-system, BlinkMacSystemFont, "Segoe UI", Roboto, Ubuntu, Cantarell, Helvetica, sans-serif;
            font-size: 12px;
            fill: #00141F;
            font-weight: normal;
            }
            rect, circle, polygon {fill: none; stroke: none;}
            rect.terminal         {fill: none; stroke: #be2f5b;}
            rect.nonterminal      {fill: rgba(255,255,255,0.1); stroke: none;}
            rect.text             {fill: none; stroke: none;}
            polygon.regexp        {fill: #C7ECFF; stroke: #038cbc;}
        </style>
    </defs>
    <polygon points="9 17 1 13 1 21"/>
    <polygon points="17 17 9 13 9 21"/>
    <rect x="31" y="3" width="74" height="32" rx="10"/>
    <rect x="29" y="1" width="74" height="32" class="terminal" rx="10"/>
    <text class="terminal" x="39" y="21">REVOKE</text>
    <rect x="125" y="3" width="76" height="32" rx="10"/>
    <rect x="123" y="1" width="76" height="32" class="terminal" rx="10"/>
    <text class="terminal" x="133" y="21">ASSUME</text>
    <rect x="221" y="3" width="78" height="32" rx="10"/>
    <rect x="219" y="1" width="78" height="32" class="terminal" rx="10"/>
    <text class="terminal" x="229" y="21">SERVICE</text>
    <rect x="319" y="3" width="86" height="32" rx="10"/>
    <rect x="317" y="1" width="86" height="32" class="terminal" rx="10"/>
    <text class="terminal" x="327" y="21">ACCOUNT</text><a xmlns:xlink="http://www.w3.org/1999/xlink" xlink:href="#serviceAccount" xlink:title="serviceAccount">
    <rect x="425" y="3" width="114" height="32"/>
    <rect x="423" y="1" width="114" height="32" class="nonterminal"/>
    <text class="nonterminal" x="433" y="21">serviceAccount</text></a><rect x="559" y="3" width="60" height="32" rx="10"/>
    <rect x="557" y="1" width="60" height="32" class="terminal" rx="10"/>
    <text class="terminal" x="567" y="21">FROM</text><a xmlns:xlink="http://www.w3.org/1999/xlink" xlink:href="#entityName" xlink:title="entityName">
    <rect x="639" y="3" width="92" height="32"/>
    <rect x="637" y="1" width="92" height="32" class="nonterminal"/>
    <text class="nonterminal" x="647" y="21">entityName</text></a><path class="line" d="m17 17 h2 m0 0 h10 m74 0 h10 m0 0 h10 m76 0 h10 m0 0 h10 m78 0 h10 m0 0 h10 m86 0 h10 m0 0 h10 m114 0 h10 m0 0 h10 m60 0 h10 m0 0 h10 m92 0 h10 m3 0 h-3"/>
    <polygon points="749 17 757 13 757 21"/>
    <polygon points="749 17 741 13 741 21"/>
</svg>
