<svg xmlns="http://www.w3.org/2000/svg" width="935" height="320">
    <defs>
        <style type="text/css">
            @namespace "http://www.w3.org/2000/svg";
            .line                 {fill: none; stroke: #636273;}
            .bold-line            {stroke: #636273; shape-rendering: crispEdges; stroke-width: 2; }
            .thin-line            {stroke: #636273; shape-rendering: crispEdges}
            .filled               {fill: #636273; stroke: none;}
            text.terminal         {font-family: -apple-system, BlinkMacSystemFont, "Segoe UI", Roboto, Ubuntu, Cantarell, Helvetica, sans-serif;
            font-size: 12px;
            fill: #ffffff;
            font-weight: bold;
            }
            text.nonterminal      {font-family: -apple-system, BlinkMacSystemFont, "Segoe UI", Roboto, Ubuntu, Cantarell, Helvetica, sans-serif;
            font-size: 12px;
            fill: #e289a4;
            font-weight: normal;
            }
            text.regexp           {font-family: -apple-system, BlinkMacSystemFont, "Segoe UI", Roboto, Ubuntu, Cantarell, Helvetica, sans-serif;
            font-size: 12px;
            fill: #00141F;
            font-weight: normal;
            }
            rect, circle, polygon {fill: none; stroke: none;}
            rect.terminal         {fill: none; stroke: #be2f5b;}
            rect.nonterminal      {fill: rgba(255,255,255,0.1); stroke: none;}
            rect.text             {fill: none; stroke: none;}
            polygon.regexp        {fill: #C7ECFF; stroke: #038cbc;}
        </style>
    </defs>
    <polygon points="9 61 1 57 1 65"/>
    <polygon points="17 61 9 57 9 65"/>
    <rect x="31" y="47" width="74" height="32" rx="10"/>
    <rect x="29" y="45" width="74" height="32" class="terminal" rx="10"/>
    <text class="terminal" x="39" y="65">REVOKE</text><a xmlns:xlink="http://www.w3.org/1999/xlink" xlink:href="#permission" xlink:title="permission">
    <rect x="145" y="47" width="88" height="32"/>
    <rect x="143" y="45" width="88" height="32" class="nonterminal"/>
    <text class="nonterminal" x="153" y="65">permission</text></a><rect x="145" y="3" width="24" height="32" rx="10"/>
    <rect x="143" y="1" width="24" height="32" class="terminal" rx="10"/>
    <text class="terminal" x="153" y="21">,</text>
    <rect x="293" y="47" width="40" height="32" rx="10"/>
    <rect x="291" y="45" width="40" height="32" class="terminal" rx="10"/>
    <text class="terminal" x="301" y="65">ON</text>
    <rect x="373" y="47" width="44" height="32" rx="10"/>
    <rect x="371" y="45" width="44" height="32" class="terminal" rx="10"/>
    <text class="terminal" x="381" y="65">ALL</text>
    <rect x="437" y="47" width="72" height="32" rx="10"/>
    <rect x="435" y="45" width="72" height="32" class="terminal" rx="10"/>
    <text class="terminal" x="445" y="65">TABLES</text><a xmlns:xlink="http://www.w3.org/1999/xlink" xlink:href="#tableName" xlink:title="tableName">
    <rect x="393" y="179" width="88" height="32"/>
    <rect x="391" y="177" width="88" height="32" class="nonterminal"/>
    <text class="nonterminal" x="401" y="197">tableName</text></a><rect x="521" y="179" width="26" height="32" rx="10"/>
    <rect x="519" y="177" width="26" height="32" class="terminal" rx="10"/>
    <text class="terminal" x="529" y="197">(</text><a xmlns:xlink="http://www.w3.org/1999/xlink" xlink:href="#columnName" xlink:title="columnName">
    <rect x="587" y="179" width="102" height="32"/>
    <rect x="585" y="177" width="102" height="32" class="nonterminal"/>
    <text class="nonterminal" x="595" y="197">columnName</text></a><rect x="587" y="135" width="24" height="32" rx="10"/>
    <rect x="585" y="133" width="24" height="32" class="terminal" rx="10"/>
    <text class="terminal" x="595" y="153">,</text>
    <rect x="729" y="179" width="26" height="32" rx="10"/>
    <rect x="727" y="177" width="26" height="32" class="terminal" rx="10"/>
    <text class="terminal" x="737" y="197">)</text>
    <rect x="393" y="91" width="24" height="32" rx="10"/>
    <rect x="391" y="89" width="24" height="32" class="terminal" rx="10"/>
    <text class="terminal" x="401" y="109">,</text>
    <rect x="855" y="47" width="60" height="32" rx="10"/>
    <rect x="853" y="45" width="60" height="32" class="terminal" rx="10"/>
    <text class="terminal" x="863" y="65">FROM</text><a xmlns:xlink="http://www.w3.org/1999/xlink" xlink:href="#entityName" xlink:title="entityName">
    <rect x="817" y="277" width="92" height="32"/>
    <rect x="815" y="275" width="92" height="32" class="nonterminal"/>
    <text class="nonterminal" x="825" y="295">entityName</text></a><path class="line" d="m17 61 h2 m0 0 h10 m74 0 h10 m20 0 h10 m88 0 h10 m-128 0 l20 0 m-1 0 q-9 0 -9 -10 l0 -24 q0 -10 10 -10 m108 44 l20 0 m-20 0 q10 0 10 -10 l0 -24 q0 -10 -10 -10 m-108 0 h10 m24 0 h10 m0 0 h64 m40 44 h10 m40 0 h10 m20 0 h10 m44 0 h10 m0 0 h10 m72 0 h10 m0 0 h286 m-462 0 h20 m442 0 h20 m-482 0 q10 0 10 10 m462 0 q0 -10 10 -10 m-472 10 v112 m462 0 v-112 m-462 112 q0 10 10 10 m442 0 q10 0 10 -10 m-432 10 h10 m88 0 h10 m20 0 h10 m26 0 h10 m20 0 h10 m102 0 h10 m-142 0 l20 0 m-1 0 q-9 0 -9 -10 l0 -24 q0 -10 10 -10 m122 44 l20 0 m-20 0 q10 0 10 -10 l0 -24 q0 -10 -10 -10 m-122 0 h10 m24 0 h10 m0 0 h78 m20 44 h10 m26 0 h10 m-274 0 h20 m254 0 h20 m-294 0 q10 0 10 10 m274 0 q0 -10 10 -10 m-284 10 v14 m274 0 v-14 m-274 14 q0 10 10 10 m254 0 q10 0 10 -10 m-264 10 h10 m0 0 h244 m-402 -34 l20 0 m-1 0 q-9 0 -9 -10 l0 -68 q0 -10 10 -10 m402 88 l20 0 m-20 0 q10 0 10 -10 l0 -68 q0 -10 -10 -10 m-402 0 h10 m24 0 h10 m0 0 h358 m-522 -44 h20 m542 0 h20 m-582 0 q10 0 10 10 m562 0 q0 -10 10 -10 m-572 10 v162 m562 0 v-162 m-562 162 q0 10 10 10 m542 0 q10 0 10 -10 m-552 10 h10 m0 0 h532 m20 -182 h10 m60 0 h10 m2 0 l2 0 m2 0 l2 0 m2 0 l2 0 m-142 230 l2 0 m2 0 l2 0 m2 0 l2 0 m2 0 h10 m92 0 h10 m3 0 h-3"/>
    <polygon points="927 291 935 287 935 295"/>
    <polygon points="927 291 919 287 919 295"/>
</svg>
