<svg xmlns="http://www.w3.org/2000/svg" width="849" height="303">
    <defs>
        <style type="text/css">
            @namespace "http://www.w3.org/2000/svg";
            .line                 {fill: none; stroke: #636273;}
            .bold-line            {stroke: #636273; shape-rendering: crispEdges; stroke-width: 2; }
            .thin-line           {stroke: #636273; shape-rendering: crispEdges}
            .filled              {fill: #636273; stroke: none;}
            text.terminal        {font-family: -apple-system, BlinkMacSystemFont, "Segoe UI", Roboto, Ubuntu, Cantarell, Helvetica, sans-serif;
            font-size: 12px;
            fill: #ffffff;
            font-weight: bold;
            }
            text.nonterminal     {font-family: -apple-system, BlinkMacSystemFont, "Segoe UI", Roboto, Ubuntu, Cantarell, Helvetica, sans-serif;
            font-size: 12px;
            fill: #e289a4;
            font-weight: normal;
            }
            text.regexp          {font-family: -apple-system, BlinkMacSystemFont, "Segoe UI", Roboto, Ubuntu, Cantarell, Helvetica, sans-serif;
            font-size: 12px;
            fill: #00141F;
            font-weight: normal;
            }
            rect, circle, polygon {fill: none; stroke: none;}
            rect.terminal        {fill: none; stroke: #be2f5b;}
            rect.nonterminal     {fill: rgba(255,255,255,0.1); stroke: none;}
            rect.text            {fill: none; stroke: none;}
            polygon.regexp       {fill: #C7ECFF; stroke: #038cbc;}
        </style>
    </defs>
    <polygon points="9 61 1 57 1 65"></polygon>
         <polygon points="17 61 9 57 9 65"></polygon>
         <rect x="51" y="47" width="70" height="32" rx="10"></rect>
         <rect x="49" y="45" width="70" height="32" class="terminal" rx="10"></rect>
         <text class="terminal" x="59" y="65">SELECT</text><a xmlns:xlink="http://www.w3.org/1999/xlink" xlink:href="#column" xlink:title="column">
            <rect x="181" y="47" width="64" height="32"></rect>
            <rect x="179" y="45" width="64" height="32" class="nonterminal"></rect>
            <text class="nonterminal" x="189" y="65">column</text></a><a xmlns:xlink="http://www.w3.org/1999/xlink" xlink:href="#expression" xlink:title="expression">
            <rect x="181" y="91" width="90" height="32"></rect>
            <rect x="179" y="89" width="90" height="32" class="nonterminal"></rect>
            <text class="nonterminal" x="189" y="109">expression</text></a><a xmlns:xlink="http://www.w3.org/1999/xlink" xlink:href="#function" xlink:title="function">
            <rect x="181" y="135" width="70" height="32"></rect>
            <rect x="179" y="133" width="70" height="32" class="nonterminal"></rect>
            <text class="nonterminal" x="189" y="153">function</text></a><rect x="351" y="111" width="38" height="32" rx="10"></rect>
         <rect x="349" y="109" width="38" height="32" class="terminal" rx="10"></rect>
         <text class="terminal" x="359" y="129">AS</text><a xmlns:xlink="http://www.w3.org/1999/xlink" xlink:href="#alias" xlink:title="alias">
            <rect x="429" y="79" width="50" height="32"></rect>
            <rect x="427" y="77" width="50" height="32" class="nonterminal"></rect>
            <text class="nonterminal" x="437" y="97">alias</text></a><rect x="161" y="3" width="24" height="32" rx="10"></rect>
         <rect x="159" y="1" width="24" height="32" class="terminal" rx="10"></rect>
         <text class="terminal" x="169" y="21">,</text>
         <rect x="539" y="47" width="60" height="32" rx="10"></rect>
         <rect x="537" y="45" width="60" height="32" class="terminal" rx="10"></rect>
         <text class="terminal" x="547" y="65">FROM</text><a xmlns:xlink="http://www.w3.org/1999/xlink" xlink:href="#table" xlink:title="table">
            <rect x="659" y="47" width="52" height="32"></rect>
            <rect x="657" y="45" width="52" height="32" class="nonterminal"></rect>
            <text class="nonterminal" x="667" y="65">table</text></a><rect x="659" y="91" width="26" height="32" rx="10"></rect>
         <rect x="657" y="89" width="26" height="32" class="terminal" rx="10"></rect>
         <text class="terminal" x="667" y="109">(</text><a xmlns:xlink="http://www.w3.org/1999/xlink" xlink:href="#query" xlink:title="query">
            <rect x="705" y="91" width="56" height="32"></rect>
            <rect x="703" y="89" width="56" height="32" class="nonterminal"></rect>
            <text class="nonterminal" x="713" y="109">query</text></a><rect x="781" y="91" width="26" height="32" rx="10"></rect>
         <rect x="779" y="89" width="26" height="32" class="terminal" rx="10"></rect>
         <text class="terminal" x="789" y="109">)</text>
         <rect x="673" y="269" width="38" height="32" rx="10"></rect>
         <rect x="671" y="267" width="38" height="32" class="terminal" rx="10"></rect>
         <text class="terminal" x="681" y="287">AS</text><a xmlns:xlink="http://www.w3.org/1999/xlink" xlink:href="#alias" xlink:title="alias">
            <rect x="751" y="237" width="50" height="32"></rect>
            <rect x="749" y="235" width="50" height="32" class="nonterminal"></rect>
            <text class="nonterminal" x="759" y="255">alias</text></a><path class="line" d="m17 61 h2 m20 0 h10 m70 0 h10 m40 0 h10 m64 0 h10 m0 0 h26 m-130 0 h20 m110 0 h20 m-150 0 q10 0 10 10 m130 0 q0 -10 10 -10 m-140 10 v24 m130 0 v-24 m-130 24 q0 10 10 10 m110 0 q10 0 10 -10 m-120 10 h10 m90 0 h10 m-120 -10 v20 m130 0 v-20 m-130 20 v24 m130 0 v-24 m-130 24 q0 10 10 10 m110 0 q10 0 10 -10 m-120 10 h10 m70 0 h10 m0 0 h20 m40 -88 h10 m0 0 h158 m-188 0 h20 m168 0 h20 m-208 0 q10 0 10 10 m188 0 q0 -10 10 -10 m-198 10 v12 m188 0 v-12 m-188 12 q0 10 10 10 m168 0 q10 0 10 -10 m-158 10 h10 m0 0 h48 m-78 0 h20 m58 0 h20 m-98 0 q10 0 10 10 m78 0 q0 -10 10 -10 m-88 10 v12 m78 0 v-12 m-78 12 q0 10 10 10 m58 0 q10 0 10 -10 m-68 10 h10 m38 0 h10 m20 -32 h10 m50 0 h10 m-358 -32 l20 0 m-1 0 q-9 0 -9 -10 l0 -24 q0 -10 10 -10 m358 44 l20 0 m-20 0 q10 0 10 -10 l0 -24 q0 -10 -10 -10 m-358 0 h10 m24 0 h10 m0 0 h314 m20 44 h10 m60 0 h10 m-588 0 h20 m568 0 h20 m-608 0 q10 0 10 10 m588 0 q0 -10 10 -10 m-598 10 v102 m588 0 v-102 m-588 102 q0 10 10 10 m568 0 q10 0 10 -10 m-578 10 h10 m0 0 h558 m40 -122 h10 m52 0 h10 m0 0 h96 m-188 0 h20 m168 0 h20 m-208 0 q10 0 10 10 m188 0 q0 -10 10 -10 m-198 10 v24 m188 0 v-24 m-188 24 q0 10 10 10 m168 0 q10 0 10 -10 m-178 10 h10 m26 0 h10 m0 0 h10 m56 0 h10 m0 0 h10 m26 0 h10 m22 -44 l2 0 m2 0 l2 0 m2 0 l2 0 m-238 158 l2 0 m2 0 l2 0 m2 0 l2 0 m22 0 h10 m0 0 h158 m-188 0 h20 m168 0 h20 m-208 0 q10 0 10 10 m188 0 q0 -10 10 -10 m-198 10 v12 m188 0 v-12 m-188 12 q0 10 10 10 m168 0 q10 0 10 -10 m-158 10 h10 m0 0 h48 m-78 0 h20 m58 0 h20 m-98 0 q10 0 10 10 m78 0 q0 -10 10 -10 m-88 10 v12 m78 0 v-12 m-78 12 q0 10 10 10 m58 0 q10 0 10 -10 m-68 10 h10 m38 0 h10 m20 -32 h10 m50 0 h10 m23 -32 h-3"></path>
         <polygon points="839 219 847 215 847 223"></polygon>
         <polygon points="839 219 831 215 831 223"></polygon>
</svg>