<svg xmlns="http://www.w3.org/2000/svg" width="381" height="69">
    <defs>
        <style type="text/css">
            @namespace "http://www.w3.org/2000/svg";
            .line                 {fill: none; stroke: #636273;}
            .bold-line            {stroke: #636273; shape-rendering: crispEdges; stroke-width: 2; }
            .thin-line           {stroke: #636273; shape-rendering: crispEdges}
            .filled              {fill: #636273; stroke: none;}
            text.terminal        {font-family: -apple-system, BlinkMacSystemFont, "Segoe UI", Roboto, Ubuntu, Cantarell, Helvetica, sans-serif;
            font-size: 12px;
            fill: #ffffff;
            font-weight: bold;
            }
            text.nonterminal     {font-family: -apple-system, BlinkMacSystemFont, "Segoe UI", Roboto, Ubuntu, Cantarell, Helvetica, sans-serif;
            font-size: 12px;
            fill: #e289a4;
            font-weight: normal;
            }
            text.regexp          {font-family: -apple-system, BlinkMacSystemFont, "Segoe UI", Roboto, Ubuntu, Cantarell, Helvetica, sans-serif;
            font-size: 12px;
            fill: #00141F;
            font-weight: normal;
            }
            rect, circle, polygon {fill: none; stroke: none;}
            rect.terminal        {fill: none; stroke: #be2f5b;}
            rect.nonterminal     {fill: rgba(255,255,255,0.1); stroke: none;}
            rect.text            {fill: none; stroke: none;}
            polygon.regexp       {fill: #C7ECFF; stroke: #038cbc;}
        </style>
    </defs>
    <polygon points="9 17 1 13 1 21"></polygon>
         <polygon points="17 17 9 13 9 21"></polygon>
         <rect x="31" y="3" width="44" height="32" rx="10"></rect>
         <rect x="29" y="1" width="44" height="32" class="terminal" rx="10"></rect>
         <text class="terminal" x="39" y="21">SET</text>
         <rect x="95" y="3" width="54" height="32" rx="10"></rect>
         <rect x="93" y="1" width="54" height="32" class="terminal" rx="10"></rect>
         <text class="terminal" x="103" y="21">TYPE</text>
         <rect x="189" y="35" width="74" height="32" rx="10"></rect>
         <rect x="187" y="33" width="74" height="32" class="terminal" rx="10"></rect>
         <text class="terminal" x="197" y="53">BYPASS</text>
         <rect x="303" y="3" width="50" height="32" rx="10"></rect>
         <rect x="301" y="1" width="50" height="32" class="terminal" rx="10"></rect>
         <text class="terminal" x="311" y="21">WAL</text>
         <path class="line" d="m17 17 h2 m0 0 h10 m44 0 h10 m0 0 h10 m54 0 h10 m20 0 h10 m0 0 h84 m-114 0 h20 m94 0 h20 m-134 0 q10 0 10 10 m114 0 q0 -10 10 -10 m-124 10 v12 m114 0 v-12 m-114 12 q0 10 10 10 m94 0 q10 0 10 -10 m-104 10 h10 m74 0 h10 m20 -32 h10 m50 0 h10 m3 0 h-3"></path>
         <polygon points="371 17 379 13 379 21"></polygon>
         <polygon points="371 17 363 13 363 21"></polygon>
</svg>