<svg xmlns="http://www.w3.org/2000/svg" width="573" height="617">
    <defs>
        <style type="text/css">
            @namespace "http://www.w3.org/2000/svg";
            .line                 {fill: none; stroke: #636273;}
            .bold-line            {stroke: #636273; shape-rendering: crispEdges; stroke-width: 2; }
            .thin-line           {stroke: #636273; shape-rendering: crispEdges}
            .filled              {fill: #636273; stroke: none;}
            text.terminal        {font-family: -apple-system, BlinkMacSystemFont, "Segoe UI", Roboto, Ubuntu, Cantarell, Helvetica, sans-serif;
            font-size: 12px;
            fill: #ffffff;
            font-weight: bold;
            }
            text.nonterminal     {font-family: -apple-system, BlinkMacSystemFont, "Segoe UI", Roboto, Ubuntu, Cantarell, Helvetica, sans-serif;
            font-size: 12px;
            fill: #e289a4;
            font-weight: normal;
            }
            text.regexp          {font-family: -apple-system, BlinkMacSystemFont, "Segoe UI", Roboto, Ubuntu, Cantarell, Helvetica, sans-serif;
            font-size: 12px;
            fill: #00141F;
            font-weight: normal;
            }
            rect, circle, polygon {fill: none; stroke: none;}
            rect.terminal        {fill: none; stroke: #be2f5b;}
            rect.nonterminal     {fill: rgba(255,255,255,0.1); stroke: none;}
            rect.text            {fill: none; stroke: none;}
            polygon.regexp       {fill: #C7ECFF; stroke: #038cbc;}
        </style>
    </defs>
    <polygon points="9 17 1 13 1 21"></polygon>
         <polygon points="17 17 9 13 9 21"></polygon>
         <rect x="31" y="3" width="64" height="32" rx="10"></rect>
         <rect x="29" y="1" width="64" height="32" class="terminal" rx="10"></rect>
         <text class="terminal" x="39" y="21">SHOW</text>
         <rect x="135" y="3" width="72" height="32" rx="10"></rect>
         <rect x="133" y="1" width="72" height="32" class="terminal" rx="10"></rect>
         <text class="terminal" x="143" y="21">TABLES</text>
         <rect x="175" y="47" width="88" height="32" rx="10"></rect>
         <rect x="173" y="45" width="88" height="32" class="terminal" rx="10"></rect>
         <text class="terminal" x="183" y="65">COLUMNS</text>
         <rect x="175" y="91" width="106" height="32" rx="10"></rect>
         <rect x="173" y="89" width="106" height="32" class="terminal" rx="10"></rect>
         <text class="terminal" x="183" y="109">PARTITIONS</text>
         <rect x="321" y="47" width="60" height="32" rx="10"></rect>
         <rect x="319" y="45" width="60" height="32" class="terminal" rx="10"></rect>
         <text class="terminal" x="329" y="65">FROM</text>
         <rect x="155" y="135" width="72" height="32" rx="10"></rect>
         <rect x="153" y="133" width="72" height="32" class="terminal" rx="10"></rect>
         <text class="terminal" x="163" y="153">CREATE</text>
         <rect x="247" y="135" width="62" height="32" rx="10"></rect>
         <rect x="245" y="133" width="62" height="32" class="terminal" rx="10"></rect>
         <text class="terminal" x="255" y="153">TABLE</text><a xmlns:xlink="http://www.w3.org/1999/xlink" xlink:href="#tableName" xlink:title="tableName">
            <rect x="421" y="47" width="88" height="32"></rect>
            <rect x="419" y="45" width="88" height="32" class="nonterminal"></rect>
            <text class="nonterminal" x="429" y="65">tableName</text></a><rect x="155" y="179" width="56" height="32" rx="10"></rect>
         <rect x="153" y="177" width="56" height="32" class="terminal" rx="10"></rect>
         <text class="terminal" x="163" y="197">USER</text>
         <rect x="155" y="223" width="78" height="32" rx="10"></rect>
         <rect x="153" y="221" width="78" height="32" class="terminal" rx="10"></rect>
         <text class="terminal" x="163" y="241">GROUPS</text><a xmlns:xlink="http://www.w3.org/1999/xlink" xlink:href="#userName" xlink:title="userName">
            <rect x="293" y="211" width="84" height="32"></rect>
            <rect x="291" y="209" width="84" height="32" class="nonterminal"></rect>
            <text class="nonterminal" x="301" y="229">userName</text></a><rect x="135" y="267" width="64" height="32" rx="10"></rect>
         <rect x="133" y="265" width="64" height="32" class="terminal" rx="10"></rect>
         <text class="terminal" x="143" y="285">USERS</text>
         <rect x="135" y="311" width="78" height="32" rx="10"></rect>
         <rect x="133" y="309" width="78" height="32" class="terminal" rx="10"></rect>
         <text class="terminal" x="143" y="329">SERVICE</text>
         <rect x="253" y="311" width="86" height="32" rx="10"></rect>
         <rect x="251" y="309" width="86" height="32" class="terminal" rx="10"></rect>
         <text class="terminal" x="261" y="329">ACCOUNT</text><a xmlns:xlink="http://www.w3.org/1999/xlink" xlink:href="#accountName" xlink:title="accountName">
            <rect x="379" y="343" width="106" height="32"></rect>
            <rect x="377" y="341" width="106" height="32" class="nonterminal"></rect>
            <text class="nonterminal" x="387" y="361">accountName</text></a><rect x="253" y="387" width="94" height="32" rx="10"></rect>
         <rect x="251" y="385" width="94" height="32" class="terminal" rx="10"></rect>
         <text class="terminal" x="261" y="405">ACCOUNTS</text><a xmlns:xlink="http://www.w3.org/1999/xlink" xlink:href="#userName" xlink:title="userName">
            <rect x="387" y="419" width="84" height="32"></rect>
            <rect x="385" y="417" width="84" height="32" class="nonterminal"></rect>
            <text class="nonterminal" x="395" y="437">userName</text></a><rect x="135" y="463" width="118" height="32" rx="10"></rect>
         <rect x="133" y="461" width="118" height="32" class="terminal" rx="10"></rect>
         <text class="terminal" x="143" y="481">PERMISSIONS</text><a xmlns:xlink="http://www.w3.org/1999/xlink" xlink:href="#entityName" xlink:title="entityName">
            <rect x="293" y="495" width="92" height="32"></rect>
            <rect x="291" y="493" width="92" height="32" class="nonterminal"></rect>
            <text class="nonterminal" x="301" y="513">entityName</text></a><rect x="135" y="539" width="146" height="32" rx="10"></rect>
         <rect x="133" y="537" width="146" height="32" class="terminal" rx="10"></rect>
         <text class="terminal" x="143" y="557">SERVER_VERSION</text>
         <rect x="135" y="583" width="110" height="32" rx="10"></rect>
         <rect x="133" y="581" width="110" height="32" class="terminal" rx="10"></rect>
         <text class="terminal" x="143" y="601">PARAMETERS</text>
         <path class="line" d="m17 17 h2 m0 0 h10 m64 0 h10 m20 0 h10 m72 0 h10 m0 0 h318 m-430 0 h20 m410 0 h20 m-450 0 q10 0 10 10 m430 0 q0 -10 10 -10 m-440 10 v24 m430 0 v-24 m-430 24 q0 10 10 10 m410 0 q10 0 10 -10 m-380 10 h10 m88 0 h10 m0 0 h18 m-146 0 h20 m126 0 h20 m-166 0 q10 0 10 10 m146 0 q0 -10 10 -10 m-156 10 v24 m146 0 v-24 m-146 24 q0 10 10 10 m126 0 q10 0 10 -10 m-136 10 h10 m106 0 h10 m20 -44 h10 m60 0 h10 m-266 0 h20 m246 0 h20 m-286 0 q10 0 10 10 m266 0 q0 -10 10 -10 m-276 10 v68 m266 0 v-68 m-266 68 q0 10 10 10 m246 0 q10 0 10 -10 m-256 10 h10 m72 0 h10 m0 0 h10 m62 0 h10 m0 0 h72 m20 -88 h10 m88 0 h10 m0 0 h16 m-420 -10 v20 m430 0 v-20 m-430 20 v112 m430 0 v-112 m-430 112 q0 10 10 10 m410 0 q10 0 10 -10 m-400 10 h10 m56 0 h10 m0 0 h22 m-118 0 h20 m98 0 h20 m-138 0 q10 0 10 10 m118 0 q0 -10 10 -10 m-128 10 v24 m118 0 v-24 m-118 24 q0 10 10 10 m98 0 q10 0 10 -10 m-108 10 h10 m78 0 h10 m40 -44 h10 m0 0 h94 m-124 0 h20 m104 0 h20 m-144 0 q10 0 10 10 m124 0 q0 -10 10 -10 m-134 10 v12 m124 0 v-12 m-124 12 q0 10 10 10 m104 0 q10 0 10 -10 m-114 10 h10 m84 0 h10 m20 -32 h128 m-420 -10 v20 m430 0 v-20 m-430 20 v68 m430 0 v-68 m-430 68 q0 10 10 10 m410 0 q10 0 10 -10 m-420 10 h10 m64 0 h10 m0 0 h326 m-420 -10 v20 m430 0 v-20 m-430 20 v24 m430 0 v-24 m-430 24 q0 10 10 10 m410 0 q10 0 10 -10 m-420 10 h10 m78 0 h10 m20 0 h10 m86 0 h10 m20 0 h10 m0 0 h116 m-146 0 h20 m126 0 h20 m-166 0 q10 0 10 10 m146 0 q0 -10 10 -10 m-156 10 v12 m146 0 v-12 m-146 12 q0 10 10 10 m126 0 q10 0 10 -10 m-136 10 h10 m106 0 h10 m-272 -32 h20 m272 0 h20 m-312 0 q10 0 10 10 m292 0 q0 -10 10 -10 m-302 10 v56 m292 0 v-56 m-292 56 q0 10 10 10 m272 0 q10 0 10 -10 m-282 10 h10 m94 0 h10 m20 0 h10 m0 0 h94 m-124 0 h20 m104 0 h20 m-144 0 q10 0 10 10 m124 0 q0 -10 10 -10 m-134 10 v12 m124 0 v-12 m-124 12 q0 10 10 10 m104 0 q10 0 10 -10 m-114 10 h10 m84 0 h10 m20 -32 h14 m-400 -86 v20 m430 0 v-20 m-430 20 v132 m430 0 v-132 m-430 132 q0 10 10 10 m410 0 q10 0 10 -10 m-420 10 h10 m118 0 h10 m20 0 h10 m0 0 h102 m-132 0 h20 m112 0 h20 m-152 0 q10 0 10 10 m132 0 q0 -10 10 -10 m-142 10 v12 m132 0 v-12 m-132 12 q0 10 10 10 m112 0 q10 0 10 -10 m-122 10 h10 m92 0 h10 m20 -32 h120 m-420 -10 v20 m430 0 v-20 m-430 20 v56 m430 0 v-56 m-430 56 q0 10 10 10 m410 0 q10 0 10 -10 m-420 10 h10 m146 0 h10 m0 0 h244 m-420 -10 v20 m430 0 v-20 m-430 20 v24 m430 0 v-24 m-430 24 q0 10 10 10 m410 0 q10 0 10 -10 m-420 10 h10 m110 0 h10 m0 0 h280 m23 -580 h-3"></path>
         <polygon points="563 17 571 13 571 21"></polygon>
         <polygon points="563 17 555 13 555 21"></polygon>
</svg>