<svg xmlns="http://www.w3.org/2000/svg" width="625" height="69">
    <defs>
        <style type="text/css">
            @namespace "http://www.w3.org/2000/svg";
            .line                 {fill: none; stroke: #636273;}
            .bold-line            {stroke: #636273; shape-rendering: crispEdges; stroke-width: 2; }
            .thin-line           {stroke: #636273; shape-rendering: crispEdges}
            .filled              {fill: #636273; stroke: none;}
            text.terminal        {font-family: -apple-system, BlinkMacSystemFont, "Segoe UI", Roboto, Ubuntu, Cantarell, Helvetica, sans-serif;
            font-size: 12px;
            fill: #ffffff;
            font-weight: bold;
            }
            text.nonterminal     {font-family: -apple-system, BlinkMacSystemFont, "Segoe UI", Roboto, Ubuntu, Cantarell, Helvetica, sans-serif;
            font-size: 12px;
            fill: #e289a4;
            font-weight: normal;
            }
            text.regexp          {font-family: -apple-system, BlinkMacSystemFont, "Segoe UI", Roboto, Ubuntu, Cantarell, Helvetica, sans-serif;
            font-size: 12px;
            fill: #00141F;
            font-weight: normal;
            }
            rect, circle, polygon {fill: none; stroke: none;}
            rect.terminal        {fill: none; stroke: #be2f5b;}
            rect.nonterminal     {fill: rgba(255,255,255,0.1); stroke: none;}
            rect.text            {fill: none; stroke: none;}
            polygon.regexp       {fill: #C7ECFF; stroke: #038cbc;}
        </style>
    </defs>
    <polygon points="9 17 1 13 1 21"></polygon>
         <polygon points="17 17 9 13 9 21"></polygon>
         <rect x="51" y="35" width="24" height="32" rx="10"></rect>
         <rect x="49" y="33" width="24" height="32" class="terminal" rx="10"></rect>
         <text class="terminal" x="59" y="53">,</text>
         <rect x="115" y="3" width="36" height="32" rx="10"></rect>
         <rect x="113" y="1" width="36" height="32" class="terminal" rx="10"></rect>
         <text class="terminal" x="123" y="21">IN</text>
         <rect x="171" y="3" width="76" height="32" rx="10"></rect>
         <rect x="169" y="1" width="76" height="32" class="terminal" rx="10"></rect>
         <text class="terminal" x="179" y="21">VOLUME</text>
         <rect x="287" y="35" width="24" height="32" rx="10"></rect>
         <rect x="285" y="33" width="24" height="32" class="terminal" rx="10"></rect>
         <text class="terminal" x="295" y="53">'</text><a xmlns:xlink="http://www.w3.org/1999/xlink" xlink:href="#secondaryVolumeAlias" xlink:title="secondaryVolumeAlias">
            <rect x="351" y="3" width="162" height="32"></rect>
            <rect x="349" y="1" width="162" height="32" class="nonterminal"></rect>
            <text class="nonterminal" x="359" y="21">secondaryVolumeAlias</text></a><rect x="553" y="35" width="24" height="32" rx="10"></rect>
         <rect x="551" y="33" width="24" height="32" class="terminal" rx="10"></rect>
         <text class="terminal" x="561" y="53">'</text>
         <path class="line" d="m17 17 h2 m20 0 h10 m0 0 h34 m-64 0 h20 m44 0 h20 m-84 0 q10 0 10 10 m64 0 q0 -10 10 -10 m-74 10 v12 m64 0 v-12 m-64 12 q0 10 10 10 m44 0 q10 0 10 -10 m-54 10 h10 m24 0 h10 m20 -32 h10 m36 0 h10 m0 0 h10 m76 0 h10 m20 0 h10 m0 0 h34 m-64 0 h20 m44 0 h20 m-84 0 q10 0 10 10 m64 0 q0 -10 10 -10 m-74 10 v12 m64 0 v-12 m-64 12 q0 10 10 10 m44 0 q10 0 10 -10 m-54 10 h10 m24 0 h10 m20 -32 h10 m162 0 h10 m20 0 h10 m0 0 h34 m-64 0 h20 m44 0 h20 m-84 0 q10 0 10 10 m64 0 q0 -10 10 -10 m-74 10 v12 m64 0 v-12 m-64 12 q0 10 10 10 m44 0 q10 0 10 -10 m-54 10 h10 m24 0 h10 m23 -32 h-3"></path>
         <polygon points="615 17 623 13 623 21"></polygon>
         <polygon points="615 17 607 13 607 21"></polygon>
</svg>