<svg xmlns="http://www.w3.org/2000/svg" width="769" height="257">
    <defs>
        <style type="text/css">
            @namespace "http://www.w3.org/2000/svg";
            .line                 {fill: none; stroke: #636273;}
            .bold-line            {stroke: #636273; shape-rendering: crispEdges; stroke-width: 2; }
            .thin-line           {stroke: #636273; shape-rendering: crispEdges}
            .filled              {fill: #636273; stroke: none;}
            text.terminal        {font-family: -apple-system, BlinkMacSystemFont, "Segoe UI", Roboto, Ubuntu, Cantarell, Helvetica, sans-serif;
            font-size: 12px;
            fill: #ffffff;
            font-weight: bold;
            }
            text.nonterminal     {font-family: -apple-system, BlinkMacSystemFont, "Segoe UI", Roboto, Ubuntu, Cantarell, Helvetica, sans-serif;
            font-size: 12px;
            fill: #e289a4;
            font-weight: normal;
            }
            text.regexp          {font-family: -apple-system, BlinkMacSystemFont, "Segoe UI", Roboto, Ubuntu, Cantarell, Helvetica, sans-serif;
            font-size: 12px;
            fill: #00141F;
            font-weight: normal;
            }
            rect, circle, polygon {fill: none; stroke: none;}
            rect.terminal        {fill: none; stroke: #be2f5b;}
            rect.nonterminal     {fill: rgba(255,255,255,0.1); stroke: none;}
            rect.text            {fill: none; stroke: none;}
            polygon.regexp       {fill: #C7ECFF; stroke: #038cbc;}
        </style>
    </defs>
    <polygon points="9 17 1 13 1 21"></polygon>
         <polygon points="17 17 9 13 9 21"></polygon>
         <rect x="31" y="3" width="70" height="32" rx="10"></rect>
         <rect x="29" y="1" width="70" height="32" class="terminal" rx="10"></rect>
         <text class="terminal" x="39" y="21">WHERE</text><a xmlns:xlink="http://www.w3.org/1999/xlink" xlink:href="#timestampColumn" xlink:title="timestampColumn">
            <rect x="121" y="3" width="134" height="32"></rect>
            <rect x="119" y="1" width="134" height="32" class="nonterminal"></rect>
            <text class="nonterminal" x="129" y="21">timestampColumn</text></a><rect x="275" y="3" width="36" height="32" rx="10"></rect>
         <rect x="273" y="1" width="36" height="32" class="terminal" rx="10"></rect>
         <text class="terminal" x="283" y="21">IN</text>
         <rect x="351" y="3" width="52" height="32" rx="10"></rect>
         <rect x="349" y="1" width="52" height="32" class="terminal" rx="10"></rect>
         <text class="terminal" x="359" y="21">yyyy</text>
         <rect x="351" y="47" width="80" height="32" rx="10"></rect>
         <rect x="349" y="45" width="80" height="32" class="terminal" rx="10"></rect>
         <text class="terminal" x="359" y="65">yyyy-MM</text>
         <rect x="351" y="91" width="106" height="32" rx="10"></rect>
         <rect x="349" y="89" width="106" height="32" class="terminal" rx="10"></rect>
         <text class="terminal" x="359" y="109">YYYY-MM-dd</text>
         <rect x="351" y="135" width="128" height="32" rx="10"></rect>
         <rect x="349" y="133" width="128" height="32" class="terminal" rx="10"></rect>
         <text class="terminal" x="359" y="153">yyyy-MM-ddThh</text>
         <rect x="351" y="179" width="158" height="32" rx="10"></rect>
         <rect x="349" y="177" width="158" height="32" class="terminal" rx="10"></rect>
         <text class="terminal" x="359" y="197">yyyy-MM-ddThh:mm</text>
         <rect x="351" y="223" width="178" height="32" rx="10"></rect>
         <rect x="349" y="221" width="178" height="32" class="terminal" rx="10"></rect>
         <text class="terminal" x="359" y="241">yyyy-MM-ddThh:mm:ss</text><a xmlns:xlink="http://www.w3.org/1999/xlink" xlink:href="#timestampExplicitRange" xlink:title="timestampExplicitRange">
            <rect x="569" y="3" width="172" height="32"></rect>
            <rect x="567" y="1" width="172" height="32" class="nonterminal"></rect>
            <text class="nonterminal" x="577" y="21">timestampExplicitRange</text></a><path class="line" d="m17 17 h2 m0 0 h10 m70 0 h10 m0 0 h10 m134 0 h10 m0 0 h10 m36 0 h10 m20 0 h10 m52 0 h10 m0 0 h126 m-218 0 h20 m198 0 h20 m-238 0 q10 0 10 10 m218 0 q0 -10 10 -10 m-228 10 v24 m218 0 v-24 m-218 24 q0 10 10 10 m198 0 q10 0 10 -10 m-208 10 h10 m80 0 h10 m0 0 h98 m-208 -10 v20 m218 0 v-20 m-218 20 v24 m218 0 v-24 m-218 24 q0 10 10 10 m198 0 q10 0 10 -10 m-208 10 h10 m106 0 h10 m0 0 h72 m-208 -10 v20 m218 0 v-20 m-218 20 v24 m218 0 v-24 m-218 24 q0 10 10 10 m198 0 q10 0 10 -10 m-208 10 h10 m128 0 h10 m0 0 h50 m-208 -10 v20 m218 0 v-20 m-218 20 v24 m218 0 v-24 m-218 24 q0 10 10 10 m198 0 q10 0 10 -10 m-208 10 h10 m158 0 h10 m0 0 h20 m-208 -10 v20 m218 0 v-20 m-218 20 v24 m218 0 v-24 m-218 24 q0 10 10 10 m198 0 q10 0 10 -10 m-208 10 h10 m178 0 h10 m20 -220 h10 m172 0 h10 m3 0 h-3"></path>
         <polygon points="759 17 767 13 767 21"></polygon>
         <polygon points="759 17 751 13 751 21"></polygon>
</svg>