<svg xmlns="http://www.w3.org/2000/svg" width="763" height="575">
    <defs>
        <style type="text/css">
            @namespace "http://www.w3.org/2000/svg";
            .line                 {fill: none; stroke: #636273;}
            .bold-line            {stroke: #636273; shape-rendering: crispEdges; stroke-width: 2; }
            .thin-line           {stroke: #636273; shape-rendering: crispEdges}
            .filled              {fill: #636273; stroke: none;}
            text.terminal        {font-family: -apple-system, BlinkMacSystemFont, "Segoe UI", Roboto, Ubuntu, Cantarell, Helvetica, sans-serif;
            font-size: 12px;
            fill: #ffffff;
            font-weight: bold;
            }
            text.nonterminal     {font-family: -apple-system, BlinkMacSystemFont, "Segoe UI", Roboto, Ubuntu, Cantarell, Helvetica, sans-serif;
            font-size: 12px;
            fill: #e289a4;
            font-weight: normal;
            }
            text.regexp          {font-family: -apple-system, BlinkMacSystemFont, "Segoe UI", Roboto, Ubuntu, Cantarell, Helvetica, sans-serif;
            font-size: 12px;
            fill: #00141F;
            font-weight: normal;
            }
            rect, circle, polygon {fill: none; stroke: none;}
            rect.terminal        {fill: none; stroke: #be2f5b;}
            rect.nonterminal     {fill: rgba(255,255,255,0.1); stroke: none;}
            rect.text            {fill: none; stroke: none;}
            polygon.regexp       {fill: #C7ECFF; stroke: #038cbc;}
        </style>
    </defs>
    <polygon points="9 17 1 13 1 21"></polygon>
         <polygon points="17 17 9 13 9 21"></polygon>
         <rect x="31" y="3" width="70" height="32" rx="10"></rect>
         <rect x="29" y="1" width="70" height="32" class="terminal" rx="10"></rect>
         <text class="terminal" x="39" y="21">WHERE</text><a xmlns:xlink="http://www.w3.org/1999/xlink" xlink:href="#timestampColumn" xlink:title="timestampColumn">
            <rect x="121" y="3" width="134" height="32"></rect>
            <rect x="119" y="1" width="134" height="32" class="nonterminal"></rect>
            <text class="nonterminal" x="129" y="21">timestampColumn</text></a><rect x="275" y="3" width="36" height="32" rx="10"></rect>
         <rect x="273" y="1" width="36" height="32" class="terminal" rx="10"></rect>
         <text class="terminal" x="283" y="21">IN</text>
         <rect x="331" y="3" width="24" height="32" rx="10"></rect>
         <rect x="329" y="1" width="24" height="32" class="terminal" rx="10"></rect>
         <text class="terminal" x="339" y="21">'</text><a xmlns:xlink="http://www.w3.org/1999/xlink" xlink:href="#timestamp" xlink:title="timestamp">
            <rect x="375" y="3" width="88" height="32"></rect>
            <rect x="373" y="1" width="88" height="32" class="nonterminal"></rect>
            <text class="nonterminal" x="383" y="21">timestamp</text></a><rect x="483" y="3" width="24" height="32" rx="10"></rect>
         <rect x="481" y="1" width="24" height="32" class="terminal" rx="10"></rect>
         <text class="terminal" x="491" y="21">;</text><a xmlns:xlink="http://www.w3.org/1999/xlink" xlink:href="#multiplier" xlink:title="multiplier">
            <rect x="527" y="3" width="78" height="32"></rect>
            <rect x="525" y="1" width="78" height="32" class="nonterminal"></rect>
            <text class="nonterminal" x="535" y="21">multiplier</text></a><a xmlns:xlink="http://www.w3.org/1999/xlink" xlink:href="#s" xlink:title="s">
            <rect x="645" y="3" width="26" height="32"></rect>
            <rect x="643" y="1" width="26" height="32" class="nonterminal"></rect>
            <text class="nonterminal" x="653" y="21">s</text></a><a xmlns:xlink="http://www.w3.org/1999/xlink" xlink:href="#m" xlink:title="m">
            <rect x="645" y="47" width="32" height="32"></rect>
            <rect x="643" y="45" width="32" height="32" class="nonterminal"></rect>
            <text class="nonterminal" x="653" y="65">m</text></a><a xmlns:xlink="http://www.w3.org/1999/xlink" xlink:href="#h" xlink:title="h">
            <rect x="645" y="91" width="28" height="32"></rect>
            <rect x="643" y="89" width="28" height="32" class="nonterminal"></rect>
            <text class="nonterminal" x="653" y="109">h</text></a><a xmlns:xlink="http://www.w3.org/1999/xlink" xlink:href="#d" xlink:title="d">
            <rect x="645" y="135" width="28" height="32"></rect>
            <rect x="643" y="133" width="28" height="32" class="nonterminal"></rect>
            <text class="nonterminal" x="653" y="153">d</text></a><a xmlns:xlink="http://www.w3.org/1999/xlink" xlink:href="#M" xlink:title="M">
            <rect x="645" y="179" width="30" height="32"></rect>
            <rect x="643" y="177" width="30" height="32" class="nonterminal"></rect>
            <text class="nonterminal" x="653" y="197">M</text></a><a xmlns:xlink="http://www.w3.org/1999/xlink" xlink:href="#y" xlink:title="y">
            <rect x="645" y="223" width="26" height="32"></rect>
            <rect x="643" y="221" width="26" height="32" class="nonterminal"></rect>
            <text class="nonterminal" x="653" y="241">y</text></a><rect x="717" y="3" width="24" height="32" rx="10"></rect>
         <rect x="715" y="1" width="24" height="32" class="terminal" rx="10"></rect>
         <text class="terminal" x="725" y="21">;</text><a xmlns:xlink="http://www.w3.org/1999/xlink" xlink:href="#occurrence" xlink:title="occurrence">
            <rect x="181" y="321" width="88" height="32"></rect>
            <rect x="179" y="319" width="88" height="32" class="nonterminal"></rect>
            <text class="nonterminal" x="189" y="339">occurrence</text></a><a xmlns:xlink="http://www.w3.org/1999/xlink" xlink:href="#s" xlink:title="s">
            <rect x="309" y="321" width="26" height="32"></rect>
            <rect x="307" y="319" width="26" height="32" class="nonterminal"></rect>
            <text class="nonterminal" x="317" y="339">s</text></a><a xmlns:xlink="http://www.w3.org/1999/xlink" xlink:href="#m" xlink:title="m">
            <rect x="309" y="365" width="32" height="32"></rect>
            <rect x="307" y="363" width="32" height="32" class="nonterminal"></rect>
            <text class="nonterminal" x="317" y="383">m</text></a><a xmlns:xlink="http://www.w3.org/1999/xlink" xlink:href="#h" xlink:title="h">
            <rect x="309" y="409" width="28" height="32"></rect>
            <rect x="307" y="407" width="28" height="32" class="nonterminal"></rect>
            <text class="nonterminal" x="317" y="427">h</text></a><a xmlns:xlink="http://www.w3.org/1999/xlink" xlink:href="#d" xlink:title="d">
            <rect x="309" y="453" width="28" height="32"></rect>
            <rect x="307" y="451" width="28" height="32" class="nonterminal"></rect>
            <text class="nonterminal" x="317" y="471">d</text></a><a xmlns:xlink="http://www.w3.org/1999/xlink" xlink:href="#M" xlink:title="M">
            <rect x="309" y="497" width="30" height="32"></rect>
            <rect x="307" y="495" width="30" height="32" class="nonterminal"></rect>
            <text class="nonterminal" x="317" y="515">M</text></a><a xmlns:xlink="http://www.w3.org/1999/xlink" xlink:href="#y" xlink:title="y">
            <rect x="309" y="541" width="26" height="32"></rect>
            <rect x="307" y="539" width="26" height="32" class="nonterminal"></rect>
            <text class="nonterminal" x="317" y="559">y</text></a><rect x="381" y="321" width="24" height="32" rx="10"></rect>
         <rect x="379" y="319" width="24" height="32" class="terminal" rx="10"></rect>
         <text class="terminal" x="389" y="339">;</text><a xmlns:xlink="http://www.w3.org/1999/xlink" xlink:href="#repetition" xlink:title="repetition">
            <rect x="425" y="321" width="82" height="32"></rect>
            <rect x="423" y="319" width="82" height="32" class="nonterminal"></rect>
            <text class="nonterminal" x="433" y="339">repetition</text></a><rect x="547" y="289" width="24" height="32" rx="10"></rect>
         <rect x="545" y="287" width="24" height="32" class="terminal" rx="10"></rect>
         <text class="terminal" x="555" y="307">'</text><a xmlns:xlink="http://www.w3.org/1999/xlink" xlink:href="#timestampInSearch" xlink:title="timestampInSearch">
            <rect x="591" y="289" width="144" height="32"></rect>
            <rect x="589" y="287" width="144" height="32" class="nonterminal"></rect>
            <text class="nonterminal" x="599" y="307">timestampInSearch</text></a><path class="line" d="m17 17 h2 m0 0 h10 m70 0 h10 m0 0 h10 m134 0 h10 m0 0 h10 m36 0 h10 m0 0 h10 m24 0 h10 m0 0 h10 m88 0 h10 m0 0 h10 m24 0 h10 m0 0 h10 m78 0 h10 m20 0 h10 m26 0 h10 m0 0 h6 m-72 0 h20 m52 0 h20 m-92 0 q10 0 10 10 m72 0 q0 -10 10 -10 m-82 10 v24 m72 0 v-24 m-72 24 q0 10 10 10 m52 0 q10 0 10 -10 m-62 10 h10 m32 0 h10 m-62 -10 v20 m72 0 v-20 m-72 20 v24 m72 0 v-24 m-72 24 q0 10 10 10 m52 0 q10 0 10 -10 m-62 10 h10 m28 0 h10 m0 0 h4 m-62 -10 v20 m72 0 v-20 m-72 20 v24 m72 0 v-24 m-72 24 q0 10 10 10 m52 0 q10 0 10 -10 m-62 10 h10 m28 0 h10 m0 0 h4 m-62 -10 v20 m72 0 v-20 m-72 20 v24 m72 0 v-24 m-72 24 q0 10 10 10 m52 0 q10 0 10 -10 m-62 10 h10 m30 0 h10 m0 0 h2 m-62 -10 v20 m72 0 v-20 m-72 20 v24 m72 0 v-24 m-72 24 q0 10 10 10 m52 0 q10 0 10 -10 m-62 10 h10 m26 0 h10 m0 0 h6 m20 -220 h10 m24 0 h10 m2 0 l2 0 m2 0 l2 0 m2 0 l2 0 m-624 286 l2 0 m2 0 l2 0 m2 0 l2 0 m22 0 h10 m0 0 h336 m-366 0 h20 m346 0 h20 m-386 0 q10 0 10 10 m366 0 q0 -10 10 -10 m-376 10 v12 m366 0 v-12 m-366 12 q0 10 10 10 m346 0 q10 0 10 -10 m-356 10 h10 m88 0 h10 m20 0 h10 m26 0 h10 m0 0 h6 m-72 0 h20 m52 0 h20 m-92 0 q10 0 10 10 m72 0 q0 -10 10 -10 m-82 10 v24 m72 0 v-24 m-72 24 q0 10 10 10 m52 0 q10 0 10 -10 m-62 10 h10 m32 0 h10 m-62 -10 v20 m72 0 v-20 m-72 20 v24 m72 0 v-24 m-72 24 q0 10 10 10 m52 0 q10 0 10 -10 m-62 10 h10 m28 0 h10 m0 0 h4 m-62 -10 v20 m72 0 v-20 m-72 20 v24 m72 0 v-24 m-72 24 q0 10 10 10 m52 0 q10 0 10 -10 m-62 10 h10 m28 0 h10 m0 0 h4 m-62 -10 v20 m72 0 v-20 m-72 20 v24 m72 0 v-24 m-72 24 q0 10 10 10 m52 0 q10 0 10 -10 m-62 10 h10 m30 0 h10 m0 0 h2 m-62 -10 v20 m72 0 v-20 m-72 20 v24 m72 0 v-24 m-72 24 q0 10 10 10 m52 0 q10 0 10 -10 m-62 10 h10 m26 0 h10 m0 0 h6 m20 -220 h10 m24 0 h10 m0 0 h10 m82 0 h10 m20 -32 h10 m24 0 h10 m0 0 h10 m144 0 h10 m3 0 h-3"></path>
         <polygon points="753 303 761 299 761 307"></polygon>
         <polygon points="753 303 745 299 745 307"></polygon>
</svg>