<svg xmlns="http://www.w3.org/2000/svg" width="731" height="37">
    <defs>
        <style type="text/css">
            @namespace "http://www.w3.org/2000/svg";
            .line                 {fill: none; stroke: #636273;}
            .bold-line            {stroke: #636273; shape-rendering: crispEdges; stroke-width: 2; }
            .thin-line           {stroke: #636273; shape-rendering: crispEdges}
            .filled              {fill: #636273; stroke: none;}
            text.terminal        {font-family: -apple-system, BlinkMacSystemFont, "Segoe UI", Roboto, Ubuntu, Cantarell, Helvetica, sans-serif;
            font-size: 12px;
            fill: #ffffff;
            font-weight: bold;
            }
            text.nonterminal     {font-family: -apple-system, BlinkMacSystemFont, "Segoe UI", Roboto, Ubuntu, Cantarell, Helvetica, sans-serif;
            font-size: 12px;
            fill: #e289a4;
            font-weight: normal;
            }
            text.regexp          {font-family: -apple-system, BlinkMacSystemFont, "Segoe UI", Roboto, Ubuntu, Cantarell, Helvetica, sans-serif;
            font-size: 12px;
            fill: #00141F;
            font-weight: normal;
            }
            rect, circle, polygon {fill: none; stroke: none;}
            rect.terminal        {fill: none; stroke: #be2f5b;}
            rect.nonterminal     {fill: rgba(255,255,255,0.1); stroke: none;}
            rect.text            {fill: none; stroke: none;}
            polygon.regexp       {fill: #C7ECFF; stroke: #038cbc;}
        </style>
    </defs>
    <polygon points="9 17 1 13 1 21"></polygon>
         <polygon points="17 17 9 13 9 21"></polygon>
         <rect x="31" y="3" width="70" height="32" rx="10"></rect>
         <rect x="29" y="1" width="70" height="32" class="terminal" rx="10"></rect>
         <text class="terminal" x="39" y="21">WHERE</text><a xmlns:xlink="http://www.w3.org/1999/xlink" xlink:href="#timestampColumn" xlink:title="timestampColumn">
            <rect x="121" y="3" width="134" height="32"></rect>
            <rect x="119" y="1" width="134" height="32" class="nonterminal"></rect>
            <text class="nonterminal" x="129" y="21">timestampColumn</text></a><rect x="275" y="3" width="36" height="32" rx="10"></rect>
         <rect x="273" y="1" width="36" height="32" class="terminal" rx="10"></rect>
         <text class="terminal" x="283" y="21">IN</text>
         <rect x="331" y="3" width="26" height="32" rx="10"></rect>
         <rect x="329" y="1" width="26" height="32" class="terminal" rx="10"></rect>
         <text class="terminal" x="339" y="21">(</text>
         <rect x="377" y="3" width="108" height="32" rx="10"></rect>
         <rect x="375" y="1" width="108" height="32" class="terminal" rx="10"></rect>
         <text class="terminal" x="385" y="21">'timestamp1'</text>
         <rect x="505" y="3" width="24" height="32" rx="10"></rect>
         <rect x="503" y="1" width="24" height="32" class="terminal" rx="10"></rect>
         <text class="terminal" x="513" y="21">;</text>
         <rect x="549" y="3" width="108" height="32" rx="10"></rect>
         <rect x="547" y="1" width="108" height="32" class="terminal" rx="10"></rect>
         <text class="terminal" x="557" y="21">'timestamp2'</text>
         <rect x="677" y="3" width="26" height="32" rx="10"></rect>
         <rect x="675" y="1" width="26" height="32" class="terminal" rx="10"></rect>
         <text class="terminal" x="685" y="21">)</text>
         <path class="line" d="m17 17 h2 m0 0 h10 m70 0 h10 m0 0 h10 m134 0 h10 m0 0 h10 m36 0 h10 m0 0 h10 m26 0 h10 m0 0 h10 m108 0 h10 m0 0 h10 m24 0 h10 m0 0 h10 m108 0 h10 m0 0 h10 m26 0 h10 m3 0 h-3"></path>
         <polygon points="721 17 729 13 729 21"></polygon>
         <polygon points="721 17 713 13 713 21"></polygon>
</svg>