<svg xmlns="http://www.w3.org/2000/svg" width="533" height="69">
    <defs>
        <style type="text/css">
            @namespace "http://www.w3.org/2000/svg";
            .line                 {fill: none; stroke: #636273;}
            .bold-line            {stroke: #636273; shape-rendering: crispEdges; stroke-width: 2; }
            .thin-line           {stroke: #636273; shape-rendering: crispEdges}
            .filled              {fill: #636273; stroke: none;}
            text.terminal        {font-family: -apple-system, BlinkMacSystemFont, "Segoe UI", Roboto, Ubuntu, Cantarell, Helvetica, sans-serif;
            font-size: 12px;
            fill: #ffffff;
            font-weight: bold;
            }
            text.nonterminal     {font-family: -apple-system, BlinkMacSystemFont, "Segoe UI", Roboto, Ubuntu, Cantarell, Helvetica, sans-serif;
            font-size: 12px;
            fill: #e289a4;
            font-weight: normal;
            }
            text.regexp          {font-family: -apple-system, BlinkMacSystemFont, "Segoe UI", Roboto, Ubuntu, Cantarell, Helvetica, sans-serif;
            font-size: 12px;
            fill: #00141F;
            font-weight: normal;
            }
            rect, circle, polygon {fill: none; stroke: none;}
            rect.terminal        {fill: none; stroke: #be2f5b;}
            rect.nonterminal     {fill: rgba(255,255,255,0.1); stroke: none;}
            rect.text            {fill: none; stroke: none;}
            polygon.regexp       {fill: #C7ECFF; stroke: #038cbc;}
        </style>
    </defs>
    <polygon points="9 17 1 13 1 21"></polygon>
         <polygon points="17 17 9 13 9 21"></polygon>
         <rect x="31" y="3" width="138" height="32" rx="10"></rect>
         <rect x="29" y="1" width="138" height="32" class="terminal" rx="10"></rect>
         <text class="terminal" x="39" y="21">TRUNCATE TABLE</text>
         <rect x="209" y="35" width="34" height="32" rx="10"></rect>
         <rect x="207" y="33" width="34" height="32" class="terminal" rx="10"></rect>
         <text class="terminal" x="217" y="53">IF</text>
         <rect x="263" y="35" width="70" height="32" rx="10"></rect>
         <rect x="261" y="33" width="70" height="32" class="terminal" rx="10"></rect>
         <text class="terminal" x="271" y="53">EXISTS</text><a xmlns:xlink="http://www.w3.org/1999/xlink" xlink:href="#tableName" xlink:title="tableName">
            <rect x="373" y="3" width="88" height="32"></rect>
            <rect x="371" y="1" width="88" height="32" class="nonterminal"></rect>
            <text class="nonterminal" x="381" y="21">tableName</text></a><rect x="481" y="3" width="24" height="32" rx="10"></rect>
         <rect x="479" y="1" width="24" height="32" class="terminal" rx="10"></rect>
         <text class="terminal" x="489" y="21">;</text>
         <path class="line" d="m17 17 h2 m0 0 h10 m138 0 h10 m20 0 h10 m0 0 h134 m-164 0 h20 m144 0 h20 m-184 0 q10 0 10 10 m164 0 q0 -10 10 -10 m-174 10 v12 m164 0 v-12 m-164 12 q0 10 10 10 m144 0 q10 0 10 -10 m-154 10 h10 m34 0 h10 m0 0 h10 m70 0 h10 m20 -32 h10 m88 0 h10 m0 0 h10 m24 0 h10 m3 0 h-3"></path>
         <polygon points="523 17 531 13 531 21"></polygon>
         <polygon points="523 17 515 13 515 21"></polygon>
</svg>