<svg xmlns="http://www.w3.org/2000/svg" width="729" height="81">
    <defs>
        <style type="text/css">
            @namespace "http://www.w3.org/2000/svg";
            .line                 {fill: none; stroke: #636273;}
            .bold-line            {stroke: #636273; shape-rendering: crispEdges; stroke-width: 2; }
            .thin-line           {stroke: #636273; shape-rendering: crispEdges}
            .filled              {fill: #636273; stroke: none;}
            text.terminal        {font-family: -apple-system, BlinkMacSystemFont, "Segoe UI", Roboto, Ubuntu, Cantarell, Helvetica, sans-serif;
            font-size: 12px;
            fill: #ffffff;
            font-weight: bold;
            }
            text.nonterminal     {font-family: -apple-system, BlinkMacSystemFont, "Segoe UI", Roboto, Ubuntu, Cantarell, Helvetica, sans-serif;
            font-size: 12px;
            fill: #e289a4;
            font-weight: normal;
            }
            text.regexp          {font-family: -apple-system, BlinkMacSystemFont, "Segoe UI", Roboto, Ubuntu, Cantarell, Helvetica, sans-serif;
            font-size: 12px;
            fill: #00141F;
            font-weight: normal;
            }
            rect, circle, polygon {fill: none; stroke: none;}
            rect.terminal        {fill: none; stroke: #be2f5b;}
            rect.nonterminal     {fill: rgba(255,255,255,0.1); stroke: none;}
            rect.text            {fill: none; stroke: none;}
            polygon.regexp       {fill: #C7ECFF; stroke: #038cbc;}
        </style>
    </defs>
    <polygon points="9 61 1 57 1 65"></polygon>
         <polygon points="17 61 9 57 9 65"></polygon>
         <rect x="31" y="47" width="92" height="32" rx="10"></rect>
         <rect x="29" y="45" width="92" height="32" class="terminal" rx="10"></rect>
         <text class="terminal" x="39" y="65">UNASSIGN</text>
         <rect x="143" y="47" width="78" height="32" rx="10"></rect>
         <rect x="141" y="45" width="78" height="32" class="terminal" rx="10"></rect>
         <text class="terminal" x="151" y="65">SERVICE</text>
         <rect x="241" y="47" width="86" height="32" rx="10"></rect>
         <rect x="239" y="45" width="86" height="32" class="terminal" rx="10"></rect>
         <text class="terminal" x="249" y="65">ACCOUNT</text><a xmlns:xlink="http://www.w3.org/1999/xlink" xlink:href="#serviceAccount" xlink:title="serviceAccount">
            <rect x="347" y="47" width="114" height="32"></rect>
            <rect x="345" y="45" width="114" height="32" class="nonterminal"></rect>
            <text class="nonterminal" x="355" y="65">serviceAccount</text></a><rect x="481" y="47" width="60" height="32" rx="10"></rect>
         <rect x="479" y="45" width="60" height="32" class="terminal" rx="10"></rect>
         <text class="terminal" x="489" y="65">FROM</text><a xmlns:xlink="http://www.w3.org/1999/xlink" xlink:href="#userOrGroup" xlink:title="userOrGroup">
            <rect x="581" y="47" width="100" height="32"></rect>
            <rect x="579" y="45" width="100" height="32" class="nonterminal"></rect>
            <text class="nonterminal" x="589" y="65">userOrGroup</text></a><rect x="581" y="3" width="24" height="32" rx="10"></rect>
         <rect x="579" y="1" width="24" height="32" class="terminal" rx="10"></rect>
         <text class="terminal" x="589" y="21">,</text>
         <path class="line" d="m17 61 h2 m0 0 h10 m92 0 h10 m0 0 h10 m78 0 h10 m0 0 h10 m86 0 h10 m0 0 h10 m114 0 h10 m0 0 h10 m60 0 h10 m20 0 h10 m100 0 h10 m-140 0 l20 0 m-1 0 q-9 0 -9 -10 l0 -24 q0 -10 10 -10 m120 44 l20 0 m-20 0 q10 0 10 -10 l0 -24 q0 -10 -10 -10 m-120 0 h10 m24 0 h10 m0 0 h76 m23 44 h-3"></path>
         <polygon points="719 61 727 57 727 65"></polygon>
         <polygon points="719 61 711 57 711 65"></polygon>
</svg>