<svg xmlns="http://www.w3.org/2000/svg" width="483" height="125">
    <defs>
        <style type="text/css">
            @namespace "http://www.w3.org/2000/svg";
            .line                 {fill: none; stroke: #636273;}
            .bold-line            {stroke: #636273; shape-rendering: crispEdges; stroke-width: 2; }
            .thin-line           {stroke: #636273; shape-rendering: crispEdges}
            .filled              {fill: #636273; stroke: none;}
            text.terminal        {font-family: -apple-system, BlinkMacSystemFont, "Segoe UI", Roboto, Ubuntu, Cantarell, Helvetica, sans-serif;
            font-size: 12px;
            fill: #ffffff;
            font-weight: bold;
            }
            text.nonterminal     {font-family: -apple-system, BlinkMacSystemFont, "Segoe UI", Roboto, Ubuntu, Cantarell, Helvetica, sans-serif;
            font-size: 12px;
            fill: #e289a4;
            font-weight: normal;
            }
            text.regexp          {font-family: -apple-system, BlinkMacSystemFont, "Segoe UI", Roboto, Ubuntu, Cantarell, Helvetica, sans-serif;
            font-size: 12px;
            fill: #00141F;
            font-weight: normal;
            }
            rect, circle, polygon {fill: none; stroke: none;}
            rect.terminal        {fill: none; stroke: #be2f5b;}
            rect.nonterminal     {fill: rgba(255,255,255,0.1); stroke: none;}
            rect.text            {fill: none; stroke: none;}
            polygon.regexp       {fill: #C7ECFF; stroke: #038cbc;}
        </style>
    </defs>
    <polygon points="9 17 1 13 1 21"></polygon>
         <polygon points="17 17 9 13 9 21"></polygon><a xmlns:xlink="http://www.w3.org/1999/xlink" xlink:href="#query_1" xlink:title="query_1">
            <rect x="31" y="3" width="72" height="32"></rect>
            <rect x="29" y="1" width="72" height="32" class="nonterminal"></rect>
            <text class="nonterminal" x="39" y="21">query_1</text></a><rect x="143" y="3" width="66" height="32" rx="10"></rect>
         <rect x="141" y="1" width="66" height="32" class="terminal" rx="10"></rect>
         <text class="terminal" x="151" y="21">UNION</text>
         <rect x="143" y="47" width="72" height="32" rx="10"></rect>
         <rect x="141" y="45" width="72" height="32" class="terminal" rx="10"></rect>
         <text class="terminal" x="151" y="65">EXCEPT</text>
         <rect x="143" y="91" width="96" height="32" rx="10"></rect>
         <rect x="141" y="89" width="96" height="32" class="terminal" rx="10"></rect>
         <text class="terminal" x="151" y="109">INTERSECT</text>
         <rect x="299" y="35" width="44" height="32" rx="10"></rect>
         <rect x="297" y="33" width="44" height="32" class="terminal" rx="10"></rect>
         <text class="terminal" x="307" y="53">ALL</text><a xmlns:xlink="http://www.w3.org/1999/xlink" xlink:href="#query_2" xlink:title="query_2">
            <rect x="383" y="3" width="72" height="32"></rect>
            <rect x="381" y="1" width="72" height="32" class="nonterminal"></rect>
            <text class="nonterminal" x="391" y="21">query_2</text></a><path class="line" d="m17 17 h2 m0 0 h10 m72 0 h10 m20 0 h10 m66 0 h10 m0 0 h30 m-136 0 h20 m116 0 h20 m-156 0 q10 0 10 10 m136 0 q0 -10 10 -10 m-146 10 v24 m136 0 v-24 m-136 24 q0 10 10 10 m116 0 q10 0 10 -10 m-126 10 h10 m72 0 h10 m0 0 h24 m-126 -10 v20 m136 0 v-20 m-136 20 v24 m136 0 v-24 m-136 24 q0 10 10 10 m116 0 q10 0 10 -10 m-126 10 h10 m96 0 h10 m40 -88 h10 m0 0 h54 m-84 0 h20 m64 0 h20 m-104 0 q10 0 10 10 m84 0 q0 -10 10 -10 m-94 10 v12 m84 0 v-12 m-84 12 q0 10 10 10 m64 0 q10 0 10 -10 m-74 10 h10 m44 0 h10 m20 -32 h10 m72 0 h10 m3 0 h-3"></path>
         <polygon points="473 17 481 13 481 21"></polygon>
         <polygon points="473 17 465 13 465 21"></polygon>
</svg>