<svg xmlns="http://www.w3.org/2000/svg" width="483" height="125"><defs xmlns="http://www.w3.org/1999/xhtml"><style type="text/css">text.nonterminal,text.terminal{font-family:-apple-system,BlinkMacSystemFont,&quot;Segoe UI&quot;,Roboto,Ubuntu,Cantarell,Helvetica,sans-serif;font-size:12px}text.terminal{fill:#fff;font-weight:700}text.nonterminal{fill:#e289a4;font-weight:400}.line{fill:none;stroke:#636273}polygon,rect{fill:none;stroke:none}rect.terminal{fill:none;stroke:#be2f5b}rect.nonterminal{fill:rgba(255,255,255,.1);stroke:none}</style></defs><polygon points="9 17 1 13 1 21"/><polygon points="17 17 9 13 9 21"/><a xmlns:xlink="http://www.w3.org/1999/xlink" xlink:href="#query_1" xlink:title="query_1"><rect x="31" y="3" width="72" height="32"/><rect x="29" y="1" width="72" height="32" class="nonterminal"/><text class="nonterminal" x="39" y="21">query_1</text></a><rect x="143" y="3" width="66" height="32" rx="10"/><rect x="141" y="1" width="66" height="32" class="terminal" rx="10"/><text class="terminal" x="151" y="21">UNION</text><rect x="143" y="47" width="72" height="32" rx="10"/><rect x="141" y="45" width="72" height="32" class="terminal" rx="10"/><text class="terminal" x="151" y="65">EXCEPT</text><rect x="143" y="91" width="96" height="32" rx="10"/><rect x="141" y="89" width="96" height="32" class="terminal" rx="10"/><text class="terminal" x="151" y="109">INTERSECT</text><rect x="299" y="35" width="44" height="32" rx="10"/><rect x="297" y="33" width="44" height="32" class="terminal" rx="10"/><text class="terminal" x="307" y="53">ALL</text><a xmlns:xlink="http://www.w3.org/1999/xlink" xlink:href="#query_2" xlink:title="query_2"><rect x="383" y="3" width="72" height="32"/><rect x="381" y="1" width="72" height="32" class="nonterminal"/><text class="nonterminal" x="391" y="21">query_2</text></a><path class="line" d="M17 17h2m0 0h10m72 0h10m20 0h10m66 0h10m0 0h30m-136 0h20m116 0h20m-156 0q10 0 10 10m136 0q0-10 10-10M121 27v24m136 0V27M121 51q0 10 10 10m116 0q10 0 10-10M131 61h10m72 0h10m0 0h24M121 51v20m136 0V51M121 71v24m136 0V71M121 95q0 10 10 10m116 0q10 0 10-10m-126 10h10m96 0h10m40-88h10m0 0h54m-84 0h20m64 0h20m-104 0q10 0 10 10m84 0q0-10 10-10m-94 10v12m84 0V27m-84 12q0 10 10 10m64 0q10 0 10-10m-74 10h10m44 0h10m20-32h10m72 0h10m3 0h-3"/><polygon points="473 17 481 13 481 21"/><polygon points="473 17 465 13 465 21"/></svg>