<svg xmlns="http://www.w3.org/2000/svg" width="985" height="179">
    <defs>
        <style type="text/css">
            @namespace "http://www.w3.org/2000/svg";
            .line                 {fill: none; stroke: #636273;}
            .bold-line            {stroke: #636273; shape-rendering: crispEdges; stroke-width: 2; }
            .thin-line           {stroke: #636273; shape-rendering: crispEdges}
            .filled              {fill: #636273; stroke: none;}
            text.terminal        {font-family: -apple-system, BlinkMacSystemFont, "Segoe UI", Roboto, Ubuntu, Cantarell, Helvetica, sans-serif;
            font-size: 12px;
            fill: #ffffff;
            font-weight: bold;
            }
            text.nonterminal     {font-family: -apple-system, BlinkMacSystemFont, "Segoe UI", Roboto, Ubuntu, Cantarell, Helvetica, sans-serif;
            font-size: 12px;
            fill: #e289a4;
            font-weight: normal;
            }
            text.regexp          {font-family: -apple-system, BlinkMacSystemFont, "Segoe UI", Roboto, Ubuntu, Cantarell, Helvetica, sans-serif;
            font-size: 12px;
            fill: #00141F;
            font-weight: normal;
            }
            rect, circle, polygon {fill: none; stroke: none;}
            rect.terminal        {fill: none; stroke: #be2f5b;}
            rect.nonterminal     {fill: rgba(255,255,255,0.1); stroke: none;}
            rect.text            {fill: none; stroke: none;}
            polygon.regexp       {fill: #C7ECFF; stroke: #038cbc;}
        </style>
    </defs>
    <polygon points="9 17 1 13 1 21"></polygon>
         <polygon points="17 17 9 13 9 21"></polygon>
         <rect x="51" y="35" width="70" height="32" rx="10"></rect>
         <rect x="49" y="33" width="70" height="32" class="terminal" rx="10"></rect>
         <text class="terminal" x="59" y="53">SELECT</text>
         <rect x="141" y="35" width="28" height="32" rx="10"></rect>
         <rect x="139" y="33" width="28" height="32" class="terminal" rx="10"></rect>
         <text class="terminal" x="149" y="53">*</text>
         <rect x="189" y="35" width="60" height="32" rx="10"></rect>
         <rect x="187" y="33" width="60" height="32" class="terminal" rx="10"></rect>
         <text class="terminal" x="197" y="53">FROM</text><a xmlns:xlink="http://www.w3.org/1999/xlink" xlink:href="#tableNameExpr" xlink:title="tableNameExpr">
            <rect x="289" y="3" width="116" height="32"></rect>
            <rect x="287" y="1" width="116" height="32" class="nonterminal"></rect>
            <text class="nonterminal" x="297" y="21">tableNameExpr</text></a><rect x="425" y="3" width="84" height="32" rx="10"></rect>
         <rect x="423" y="1" width="84" height="32" class="terminal" rx="10"></rect>
         <text class="terminal" x="433" y="21">UNPIVOT</text><a xmlns:xlink="http://www.w3.org/1999/xlink" xlink:href="#EXCLUDE" xlink:title="EXCLUDE">
            <rect x="569" y="35" width="78" height="32"></rect>
            <rect x="567" y="33" width="78" height="32" class="nonterminal"></rect>
            <text class="nonterminal" x="577" y="53">EXCLUDE</text></a><a xmlns:xlink="http://www.w3.org/1999/xlink" xlink:href="#INCLUDE" xlink:title="INCLUDE">
            <rect x="569" y="79" width="76" height="32"></rect>
            <rect x="567" y="77" width="76" height="32" class="nonterminal"></rect>
            <text class="nonterminal" x="577" y="97">INCLUDE</text></a><a xmlns:xlink="http://www.w3.org/1999/xlink" xlink:href="#NULLS" xlink:title="NULLS">
            <rect x="687" y="35" width="60" height="32"></rect>
            <rect x="685" y="33" width="60" height="32" class="nonterminal"></rect>
            <text class="nonterminal" x="695" y="53">NULLS</text></a><rect x="787" y="3" width="26" height="32" rx="10"></rect>
         <rect x="785" y="1" width="26" height="32" class="terminal" rx="10"></rect>
         <text class="terminal" x="795" y="21">(</text><a xmlns:xlink="http://www.w3.org/1999/xlink" xlink:href="#valueColumnExpr" xlink:title="valueColumnExpr">
            <rect x="833" y="3" width="130" height="32"></rect>
            <rect x="831" y="1" width="130" height="32" class="nonterminal"></rect>
            <text class="nonterminal" x="841" y="21">valueColumnExpr</text></a><rect x="495" y="145" width="48" height="32" rx="10"></rect>
         <rect x="493" y="143" width="48" height="32" class="terminal" rx="10"></rect>
         <text class="terminal" x="503" y="163">FOR</text><a xmlns:xlink="http://www.w3.org/1999/xlink" xlink:href="#unpivotColumn" xlink:title="unpivotColumn">
            <rect x="563" y="145" width="114" height="32"></rect>
            <rect x="561" y="143" width="114" height="32" class="nonterminal"></rect>
            <text class="nonterminal" x="571" y="163">unpivotColumn</text></a><rect x="697" y="145" width="36" height="32" rx="10"></rect>
         <rect x="695" y="143" width="36" height="32" class="terminal" rx="10"></rect>
         <text class="terminal" x="705" y="163">IN</text>
         <rect x="753" y="145" width="26" height="32" rx="10"></rect>
         <rect x="751" y="143" width="26" height="32" class="terminal" rx="10"></rect>
         <text class="terminal" x="761" y="163">(</text><a xmlns:xlink="http://www.w3.org/1999/xlink" xlink:href="#listExpr" xlink:title="listExpr">
            <rect x="799" y="145" width="66" height="32"></rect>
            <rect x="797" y="143" width="66" height="32" class="nonterminal"></rect>
            <text class="nonterminal" x="807" y="163">listExpr</text></a><rect x="885" y="145" width="26" height="32" rx="10"></rect>
         <rect x="883" y="143" width="26" height="32" class="terminal" rx="10"></rect>
         <text class="terminal" x="893" y="163">)</text>
         <rect x="931" y="145" width="26" height="32" rx="10"></rect>
         <rect x="929" y="143" width="26" height="32" class="terminal" rx="10"></rect>
         <text class="terminal" x="939" y="163">)</text>
         <path class="line" d="m17 17 h2 m20 0 h10 m0 0 h208 m-238 0 h20 m218 0 h20 m-258 0 q10 0 10 10 m238 0 q0 -10 10 -10 m-248 10 v12 m238 0 v-12 m-238 12 q0 10 10 10 m218 0 q10 0 10 -10 m-228 10 h10 m70 0 h10 m0 0 h10 m28 0 h10 m0 0 h10 m60 0 h10 m20 -32 h10 m116 0 h10 m0 0 h10 m84 0 h10 m20 0 h10 m0 0 h208 m-238 0 h20 m218 0 h20 m-258 0 q10 0 10 10 m238 0 q0 -10 10 -10 m-248 10 v12 m238 0 v-12 m-238 12 q0 10 10 10 m218 0 q10 0 10 -10 m-208 10 h10 m78 0 h10 m-118 0 h20 m98 0 h20 m-138 0 q10 0 10 10 m118 0 q0 -10 10 -10 m-128 10 v24 m118 0 v-24 m-118 24 q0 10 10 10 m98 0 q10 0 10 -10 m-108 10 h10 m76 0 h10 m0 0 h2 m20 -44 h10 m60 0 h10 m20 -32 h10 m26 0 h10 m0 0 h10 m130 0 h10 m2 0 l2 0 m2 0 l2 0 m2 0 l2 0 m-512 142 l2 0 m2 0 l2 0 m2 0 l2 0 m2 0 h10 m48 0 h10 m0 0 h10 m114 0 h10 m0 0 h10 m36 0 h10 m0 0 h10 m26 0 h10 m0 0 h10 m66 0 h10 m0 0 h10 m26 0 h10 m0 0 h10 m26 0 h10 m3 0 h-3"></path>
         <polygon points="975 159 983 155 983 163"></polygon>
         <polygon points="975 159 967 155 967 163"></polygon>
</svg>