<svg xmlns="http://www.w3.org/2000/svg" width="625" height="81">
    <defs>
        <style type="text/css">
            @namespace "http://www.w3.org/2000/svg";
            .line                 {fill: none; stroke: #636273;}
            .bold-line            {stroke: #636273; shape-rendering: crispEdges; stroke-width: 2; }
            .thin-line           {stroke: #636273; shape-rendering: crispEdges}
            .filled              {fill: #636273; stroke: none;}
            text.terminal        {font-family: -apple-system, BlinkMacSystemFont, "Segoe UI", Roboto, Ubuntu, Cantarell, Helvetica, sans-serif;
            font-size: 12px;
            fill: #ffffff;
            font-weight: bold;
            }
            text.nonterminal     {font-family: -apple-system, BlinkMacSystemFont, "Segoe UI", Roboto, Ubuntu, Cantarell, Helvetica, sans-serif;
            font-size: 12px;
            fill: #e289a4;
            font-weight: normal;
            }
            text.regexp          {font-family: -apple-system, BlinkMacSystemFont, "Segoe UI", Roboto, Ubuntu, Cantarell, Helvetica, sans-serif;
            font-size: 12px;
            fill: #00141F;
            font-weight: normal;
            }
            rect, circle, polygon {fill: none; stroke: none;}
            rect.terminal        {fill: none; stroke: #be2f5b;}
            rect.nonterminal     {fill: rgba(255,255,255,0.1); stroke: none;}
            rect.text            {fill: none; stroke: none;}
            polygon.regexp       {fill: #C7ECFF; stroke: #038cbc;}
        </style>
    </defs>
    <polygon points="9 61 1 57 1 65"></polygon>
         <polygon points="17 61 9 57 9 65"></polygon><a xmlns:xlink="http://www.w3.org/1999/xlink" xlink:href="#UPDATE" xlink:title="UPDATE">
            <rect x="31" y="47" width="68" height="32"></rect>
            <rect x="29" y="45" width="68" height="32" class="nonterminal"></rect>
            <text class="nonterminal" x="39" y="65">UPDATE</text></a><rect x="119" y="47" width="92" height="32" rx="10"></rect>
         <rect x="117" y="45" width="92" height="32" class="terminal" rx="10"></rect>
         <text class="terminal" x="127" y="65">tableName</text><a xmlns:xlink="http://www.w3.org/1999/xlink" xlink:href="#SET" xlink:title="SET">
            <rect x="231" y="47" width="42" height="32"></rect>
            <rect x="229" y="45" width="42" height="32" class="nonterminal"></rect>
            <text class="nonterminal" x="239" y="65">SET</text></a><a xmlns:xlink="http://www.w3.org/1999/xlink" xlink:href="#columnName" xlink:title="columnName">
            <rect x="313" y="47" width="102" height="32"></rect>
            <rect x="311" y="45" width="102" height="32" class="nonterminal"></rect>
            <text class="nonterminal" x="321" y="65">columnName</text></a><rect x="435" y="47" width="30" height="32" rx="10"></rect>
         <rect x="433" y="45" width="30" height="32" class="terminal" rx="10"></rect>
         <text class="terminal" x="443" y="65">=</text>
         <rect x="485" y="47" width="92" height="32" rx="10"></rect>
         <rect x="483" y="45" width="92" height="32" class="terminal" rx="10"></rect>
         <text class="terminal" x="493" y="65">expression</text>
         <rect x="313" y="3" width="24" height="32" rx="10"></rect>
         <rect x="311" y="1" width="24" height="32" class="terminal" rx="10"></rect>
         <text class="terminal" x="321" y="21">,</text>
         <path class="line" d="m17 61 h2 m0 0 h10 m68 0 h10 m0 0 h10 m92 0 h10 m0 0 h10 m42 0 h10 m20 0 h10 m102 0 h10 m0 0 h10 m30 0 h10 m0 0 h10 m92 0 h10 m-304 0 l20 0 m-1 0 q-9 0 -9 -10 l0 -24 q0 -10 10 -10 m284 44 l20 0 m-20 0 q10 0 10 -10 l0 -24 q0 -10 -10 -10 m-284 0 h10 m24 0 h10 m0 0 h240 m23 44 h-3"></path>
         <polygon points="615 61 623 57 623 65"></polygon>
         <polygon points="615 61 607 57 607 65"></polygon>
</svg>