<svg xmlns="http://www.w3.org/2000/svg" width="465" height="81">
    <defs>
        <style type="text/css">
            @namespace "http://www.w3.org/2000/svg";
            .line                 {fill: none; stroke: #636273;}
            .bold-line            {stroke: #636273; shape-rendering: crispEdges; stroke-width: 2; }
            .thin-line           {stroke: #636273; shape-rendering: crispEdges}
            .filled              {fill: #636273; stroke: none;}
            text.terminal        {font-family: -apple-system, BlinkMacSystemFont, "Segoe UI", Roboto, Ubuntu, Cantarell, Helvetica, sans-serif;
            font-size: 12px;
            fill: #ffffff;
            font-weight: bold;
            }
            text.nonterminal     {font-family: -apple-system, BlinkMacSystemFont, "Segoe UI", Roboto, Ubuntu, Cantarell, Helvetica, sans-serif;
            font-size: 12px;
            fill: #e289a4;
            font-weight: normal;
            }
            text.regexp          {font-family: -apple-system, BlinkMacSystemFont, "Segoe UI", Roboto, Ubuntu, Cantarell, Helvetica, sans-serif;
            font-size: 12px;
            fill: #00141F;
            font-weight: normal;
            }
            rect, circle, polygon {fill: none; stroke: none;}
            rect.terminal        {fill: none; stroke: #be2f5b;}
            rect.nonterminal     {fill: rgba(255,255,255,0.1); stroke: none;}
            rect.text            {fill: none; stroke: none;}
            polygon.regexp       {fill: #C7ECFF; stroke: #038cbc;}
        </style>
    </defs>
    <polygon points="9 17 1 13 1 21"></polygon>
         <polygon points="17 17 9 13 9 21"></polygon><a xmlns:xlink="http://www.w3.org/1999/xlink" xlink:href="#selectStatement" xlink:title="selectStatement">
            <rect x="51" y="3" width="124" height="32"></rect>
            <rect x="49" y="1" width="124" height="32" class="nonterminal"></rect>
            <text class="nonterminal" x="59" y="21">selectStatement</text></a><rect x="51" y="47" width="26" height="32" rx="10"></rect>
         <rect x="49" y="45" width="26" height="32" class="terminal" rx="10"></rect>
         <text class="terminal" x="59" y="65">(</text><a xmlns:xlink="http://www.w3.org/1999/xlink" xlink:href="#query" xlink:title="query">
            <rect x="97" y="47" width="56" height="32"></rect>
            <rect x="95" y="45" width="56" height="32" class="nonterminal"></rect>
            <text class="nonterminal" x="105" y="65">query</text></a><rect x="173" y="47" width="26" height="32" rx="10"></rect>
         <rect x="171" y="45" width="26" height="32" class="terminal" rx="10"></rect>
         <text class="terminal" x="181" y="65">)</text>
         <rect x="239" y="3" width="70" height="32" rx="10"></rect>
         <rect x="237" y="1" width="70" height="32" class="terminal" rx="10"></rect>
         <text class="terminal" x="247" y="21">WHERE</text><a xmlns:xlink="http://www.w3.org/1999/xlink" xlink:href="#boolean_expr" xlink:title="boolean_expr">
            <rect x="329" y="3" width="108" height="32"></rect>
            <rect x="327" y="1" width="108" height="32" class="nonterminal"></rect>
            <text class="nonterminal" x="337" y="21">boolean_expr</text></a><path class="line" d="m17 17 h2 m20 0 h10 m124 0 h10 m0 0 h24 m-188 0 h20 m168 0 h20 m-208 0 q10 0 10 10 m188 0 q0 -10 10 -10 m-198 10 v24 m188 0 v-24 m-188 24 q0 10 10 10 m168 0 q10 0 10 -10 m-178 10 h10 m26 0 h10 m0 0 h10 m56 0 h10 m0 0 h10 m26 0 h10 m20 -44 h10 m70 0 h10 m0 0 h10 m108 0 h10 m3 0 h-3"></path>
         <polygon points="455 17 463 13 463 21"></polygon>
         <polygon points="455 17 447 13 447 21"></polygon>
</svg>