<svg xmlns="http://www.w3.org/2000/svg" width="1329" height="721">
    <defs>
        <style type="text/css">
            @namespace "http://www.w3.org/2000/svg";
            .line                 {fill: none; stroke: #636273;}
            .bold-line            {stroke: #636273; shape-rendering: crispEdges; stroke-width: 2; }
            .thin-line            {stroke: #636273; shape-rendering: crispEdges}
            .filled               {fill: #636273; stroke: none;}
            text.terminal         {font-family: -apple-system, BlinkMacSystemFont, "Segoe UI", Roboto, Ubuntu, Cantarell, Helvetica, sans-serif;
            font-size: 12px;
            fill: #ffffff;
            font-weight: bold;
            }
            text.nonterminal      {font-family: -apple-system, BlinkMacSystemFont, "Segoe UI", Roboto, Ubuntu, Cantarell, Helvetica, sans-serif;
            font-size: 12px;
            fill: #e289a4;
            font-weight: normal;
            }
            text.regexp           {font-family: -apple-system, BlinkMacSystemFont, "Segoe UI", Roboto, Ubuntu, Cantarell, Helvetica, sans-serif;
            font-size: 12px;
            fill: #00141F;
            font-weight: normal;
            }
            rect, circle, polygon {fill: none; stroke: none;}
            rect.terminal         {fill: none; stroke: #be2f5b;}
            rect.nonterminal      {fill: rgba(255,255,255,0.1); stroke: none;}
            rect.text             {fill: none; stroke: none;}
            polygon.regexp        {fill: #C7ECFF; stroke: #038cbc;}
        </style>
    </defs>
<polygon points="9 51 1 47 1 55"/>
<polygon points="17 51 9 47 9 55"/>
<a xmlns:xlink="http://www.w3.org/1999/xlink"
   xlink:href="#functionName"
   xlink:title="functionName">
    <rect x="31" y="37" width="106" height="32"/>
    <rect x="29" y="35" width="106" height="32" class="nonterminal"/>
    <text class="nonterminal" x="39" y="55">functionName</text>
</a>
<rect x="157" y="37" width="58" height="32" rx="10"/>
<rect x="155"
      y="35"
      width="58"
      height="32"
      class="terminal"
      rx="10"/>
<text class="terminal" x="165" y="55">OVER</text>
<rect x="235" y="37" width="26" height="32" rx="10"/>
<rect x="233"
      y="35"
      width="26"
      height="32"
      class="terminal"
      rx="10"/>
<text class="terminal" x="243" y="55">(</text>
<rect x="301" y="37" width="98" height="32" rx="10"/>
<rect x="299"
      y="35"
      width="98"
      height="32"
      class="terminal"
      rx="10"/>
<text class="terminal" x="309" y="55">PARTITION</text>
<rect x="419" y="37" width="38" height="32" rx="10"/>
<rect x="417"
      y="35"
      width="38"
      height="32"
      class="terminal"
      rx="10"/>
<text class="terminal" x="427" y="55">BY</text>
<a xmlns:xlink="http://www.w3.org/1999/xlink"
   xlink:href="#columnName"
   xlink:title="columnName">
    <rect x="517" y="69" width="102" height="32"/>
    <rect x="515" y="67" width="102" height="32" class="nonterminal"/>
    <text class="nonterminal" x="525" y="87">columnName</text>
</a>
<rect x="497" y="3" width="24" height="32" rx="10"/>
<rect x="495"
      y="1"
      width="24"
      height="32"
      class="terminal"
      rx="10"/>
<text class="terminal" x="505" y="21">,</text>
<rect x="464" y="195" width="68" height="32" rx="10"/>
<rect x="462"
      y="193"
      width="68"
      height="32"
      class="terminal"
      rx="10"/>
<text class="terminal" x="472" y="213">ORDER</text>
<rect x="552" y="195" width="38" height="32" rx="10"/>
<rect x="550"
      y="193"
      width="38"
      height="32"
      class="terminal"
      rx="10"/>
<text class="terminal" x="560" y="213">BY</text>
<a xmlns:xlink="http://www.w3.org/1999/xlink"
   xlink:href="#columnName"
   xlink:title="columnName">
    <rect x="630" y="195" width="102" height="32"/>
    <rect x="628" y="193" width="102" height="32" class="nonterminal"/>
    <text class="nonterminal" x="638" y="213">columnName</text>
</a>
<rect x="772" y="227" width="46" height="32" rx="10"/>
<rect x="770"
      y="225"
      width="46"
      height="32"
      class="terminal"
      rx="10"/>
<text class="terminal" x="780" y="245">ASC</text>
<rect x="772" y="271" width="56" height="32" rx="10"/>
<rect x="770"
      y="269"
      width="56"
      height="32"
      class="terminal"
      rx="10"/>
<text class="terminal" x="780" y="289">DESC</text>
<rect x="630" y="151" width="24" height="32" rx="10"/>
<rect x="628"
      y="149"
      width="24"
      height="32"
      class="terminal"
      rx="10"/>
<text class="terminal" x="638" y="169">,</text>
<rect x="65" y="369" width="66" height="32" rx="10"/>
<rect x="63"
      y="367"
      width="66"
      height="32"
      class="terminal"
      rx="10"/>
<text class="terminal" x="73" y="387">RANGE</text>
<rect x="65" y="413" width="62" height="32" rx="10"/>
<rect x="63"
      y="411"
      width="62"
      height="32"
      class="terminal"
      rx="10"/>
<text class="terminal" x="73" y="431">ROWS</text>
<rect x="211" y="401" width="108" height="32" rx="10"/>
<rect x="209"
      y="399"
      width="108"
      height="32"
      class="terminal"
      rx="10"/>
<text class="terminal" x="219" y="419">UNBOUNDED</text>
<a xmlns:xlink="http://www.w3.org/1999/xlink"
   xlink:href="#offset"
   xlink:title="offset">
    <rect x="211" y="445" width="56" height="32"/>
    <rect x="209" y="443" width="56" height="32" class="nonterminal"/>
    <text class="nonterminal" x="219" y="463">offset</text>
</a>
<rect x="359" y="401" width="100" height="32" rx="10"/>
<rect x="357"
      y="399"
      width="100"
      height="32"
      class="terminal"
      rx="10"/>
<text class="terminal" x="367" y="419">PRECEDING</text>
<rect x="191" y="489" width="84" height="32" rx="10"/>
<rect x="189"
      y="487"
      width="84"
      height="32"
      class="terminal"
      rx="10"/>
<text class="terminal" x="199" y="507">CURRENT</text>
<rect x="295" y="489" width="54" height="32" rx="10"/>
<rect x="293"
      y="487"
      width="54"
      height="32"
      class="terminal"
      rx="10"/>
<text class="terminal" x="303" y="507">ROW</text>
<rect x="191" y="533" width="86" height="32" rx="10"/>
<rect x="189"
      y="531"
      width="86"
      height="32"
      class="terminal"
      rx="10"/>
<text class="terminal" x="199" y="551">BETWEEN</text>
<rect x="337" y="533" width="108" height="32" rx="10"/>
<rect x="335"
      y="531"
      width="108"
      height="32"
      class="terminal"
      rx="10"/>
<text class="terminal" x="345" y="551">UNBOUNDED</text>
<a xmlns:xlink="http://www.w3.org/1999/xlink"
   xlink:href="#offset"
   xlink:title="offset">
    <rect x="337" y="577" width="56" height="32"/>
    <rect x="335" y="575" width="56" height="32" class="nonterminal"/>
    <text class="nonterminal" x="345" y="595">offset</text>
</a>
<rect x="485" y="533" width="100" height="32" rx="10"/>
<rect x="483"
      y="531"
      width="100"
      height="32"
      class="terminal"
      rx="10"/>
<text class="terminal" x="493" y="551">PRECEDING</text>
<rect x="317" y="621" width="84" height="32" rx="10"/>
<rect x="315"
      y="619"
      width="84"
      height="32"
      class="terminal"
      rx="10"/>
<text class="terminal" x="325" y="639">CURRENT</text>
<rect x="421" y="621" width="54" height="32" rx="10"/>
<rect x="419"
      y="619"
      width="54"
      height="32"
      class="terminal"
      rx="10"/>
<text class="terminal" x="429" y="639">ROW</text>
<a xmlns:xlink="http://www.w3.org/1999/xlink"
   xlink:href="#AND"
   xlink:title="AND">
    <rect x="625" y="533" width="46" height="32"/>
    <rect x="623" y="531" width="46" height="32" class="nonterminal"/>
    <text class="nonterminal" x="633" y="551">AND</text>
</a>
<a xmlns:xlink="http://www.w3.org/1999/xlink"
   xlink:href="#offset"
   xlink:title="offset">
    <rect x="711" y="533" width="56" height="32"/>
    <rect x="709" y="531" width="56" height="32" class="nonterminal"/>
    <text class="nonterminal" x="719" y="551">offset</text>
</a>
<rect x="787" y="533" width="100" height="32" rx="10"/>
<rect x="785"
      y="531"
      width="100"
      height="32"
      class="terminal"
      rx="10"/>
<text class="terminal" x="795" y="551">PRECEDING</text>
<rect x="711" y="577" width="84" height="32" rx="10"/>
<rect x="709"
      y="575"
      width="84"
      height="32"
      class="terminal"
      rx="10"/>
<text class="terminal" x="719" y="595">CURRENT</text>
<rect x="815" y="577" width="54" height="32" rx="10"/>
<rect x="813"
      y="575"
      width="54"
      height="32"
      class="terminal"
      rx="10"/>
<text class="terminal" x="823" y="595">ROW</text>
<rect x="967" y="401" width="82" height="32" rx="10"/>
<rect x="965"
      y="399"
      width="82"
      height="32"
      class="terminal"
      rx="10"/>
<text class="terminal" x="975" y="419">EXCLUDE</text>
<rect x="1089" y="401" width="84" height="32" rx="10"/>
<rect x="1087"
      y="399"
      width="84"
      height="32"
      class="terminal"
      rx="10"/>
<text class="terminal" x="1097" y="419">CURRENT</text>
<rect x="1193" y="401" width="54" height="32" rx="10"/>
<rect x="1191"
      y="399"
      width="54"
      height="32"
      class="terminal"
      rx="10"/>
<text class="terminal" x="1201" y="419">ROW</text>
<rect x="1089" y="445" width="40" height="32" rx="10"/>
<rect x="1087"
      y="443"
      width="40"
      height="32"
      class="terminal"
      rx="10"/>
<text class="terminal" x="1097" y="463">NO</text>
<rect x="1149" y="445" width="76" height="32" rx="10"/>
<rect x="1147"
      y="443"
      width="76"
      height="32"
      class="terminal"
      rx="10"/>
<text class="terminal" x="1157" y="463">OTHERS</text>
<rect x="1275" y="687" width="26" height="32" rx="10"/>
<rect x="1273"
      y="685"
      width="26"
      height="32"
      class="terminal"
      rx="10"/>
<text class="terminal" x="1283" y="705">)</text>
<path class="line"
      d="m17 51 h2 m0 0 h10 m106 0 h10 m0 0 h10 m58 0 h10 m0 0 h10 m26 0 h10 m20 0 h10 m98 0 h10 m0 0 h10 m38 0 h10 m40 0 h10 m0 0 h112 m-142 0 h20 m122 0 h20 m-162 0 q10 0 10 10 m142 0 q0 -10 10 -10 m-152 10 v12 m142 0 v-12 m-142 12 q0 10 10 10 m122 0 q10 0 10 -10 m-132 10 h10 m102 0 h10 m-162 -32 l20 0 m-1 0 q-9 0 -9 -10 l0 -14 q0 -10 10 -10 m162 34 l20 0 m-20 0 q10 0 10 -10 l0 -14 q0 -10 -10 -10 m-162 0 h10 m24 0 h10 m0 0 h118 m-378 34 h20 m378 0 h20 m-418 0 q10 0 10 10 m398 0 q0 -10 10 -10 m-408 10 v46 m398 0 v-46 m-398 46 q0 10 10 10 m378 0 q10 0 10 -10 m-388 10 h10 m0 0 h368 m22 -66 l2 0 m2 0 l2 0 m2 0 l2 0 m-279 158 l2 0 m2 0 l2 0 m2 0 l2 0 m22 0 h10 m68 0 h10 m0 0 h10 m38 0 h10 m20 0 h10 m102 0 h10 m20 0 h10 m0 0 h66 m-96 0 h20 m76 0 h20 m-116 0 q10 0 10 10 m96 0 q0 -10 10 -10 m-106 10 v12 m96 0 v-12 m-96 12 q0 10 10 10 m76 0 q10 0 10 -10 m-86 10 h10 m46 0 h10 m0 0 h10 m-86 -10 v20 m96 0 v-20 m-96 20 v24 m96 0 v-24 m-96 24 q0 10 10 10 m76 0 q10 0 10 -10 m-86 10 h10 m56 0 h10 m-238 -76 l20 0 m-1 0 q-9 0 -9 -10 l0 -24 q0 -10 10 -10 m238 44 l20 0 m-20 0 q10 0 10 -10 l0 -24 q0 -10 -10 -10 m-238 0 h10 m24 0 h10 m0 0 h194 m-424 44 h20 m424 0 h20 m-464 0 q10 0 10 10 m444 0 q0 -10 10 -10 m-454 10 v90 m444 0 v-90 m-444 90 q0 10 10 10 m424 0 q10 0 10 -10 m-434 10 h10 m0 0 h414 m22 -110 l2 0 m2 0 l2 0 m2 0 l2 0 m-907 142 l2 0 m2 0 l2 0 m2 0 l2 0 m22 0 h10 m0 0 h1252 m-1282 0 h20 m1262 0 h20 m-1302 0 q10 0 10 10 m1282 0 q0 -10 10 -10 m-1292 10 v12 m1282 0 v-12 m-1282 12 q0 10 10 10 m1262 0 q10 0 10 -10 m-1252 10 h10 m66 0 h10 m-106 0 h20 m86 0 h20 m-126 0 q10 0 10 10 m106 0 q0 -10 10 -10 m-116 10 v24 m106 0 v-24 m-106 24 q0 10 10 10 m86 0 q10 0 10 -10 m-96 10 h10 m62 0 h10 m0 0 h4 m40 -44 h10 m0 0 h726 m-756 0 h20 m736 0 h20 m-776 0 q10 0 10 10 m756 0 q0 -10 10 -10 m-766 10 v12 m756 0 v-12 m-756 12 q0 10 10 10 m736 0 q10 0 10 -10 m-726 10 h10 m108 0 h10 m-148 0 h20 m128 0 h20 m-168 0 q10 0 10 10 m148 0 q0 -10 10 -10 m-158 10 v24 m148 0 v-24 m-148 24 q0 10 10 10 m128 0 q10 0 10 -10 m-138 10 h10 m56 0 h10 m0 0 h52 m20 -44 h10 m100 0 h10 m0 0 h448 m-746 -10 v20 m756 0 v-20 m-756 20 v68 m756 0 v-68 m-756 68 q0 10 10 10 m736 0 q10 0 10 -10 m-746 10 h10 m84 0 h10 m0 0 h10 m54 0 h10 m0 0 h558 m-746 -10 v20 m756 0 v-20 m-756 20 v24 m756 0 v-24 m-756 24 q0 10 10 10 m736 0 q10 0 10 -10 m-746 10 h10 m86 0 h10 m40 0 h10 m108 0 h10 m-148 0 h20 m128 0 h20 m-168 0 q10 0 10 10 m148 0 q0 -10 10 -10 m-158 10 v24 m148 0 v-24 m-148 24 q0 10 10 10 m128 0 q10 0 10 -10 m-138 10 h10 m56 0 h10 m0 0 h52 m20 -44 h10 m100 0 h10 m-308 0 h20 m288 0 h20 m-328 0 q10 0 10 10 m308 0 q0 -10 10 -10 m-318 10 v68 m308 0 v-68 m-308 68 q0 10 10 10 m288 0 q10 0 10 -10 m-298 10 h10 m84 0 h10 m0 0 h10 m54 0 h10 m0 0 h110 m20 -88 h10 m46 0 h10 m20 0 h10 m56 0 h10 m0 0 h10 m100 0 h10 m-216 0 h20 m196 0 h20 m-236 0 q10 0 10 10 m216 0 q0 -10 10 -10 m-226 10 v24 m216 0 v-24 m-216 24 q0 10 10 10 m196 0 q10 0 10 -10 m-206 10 h10 m84 0 h10 m0 0 h10 m54 0 h10 m0 0 h18 m60 -208 h10 m0 0 h310 m-340 0 h20 m320 0 h20 m-360 0 q10 0 10 10 m340 0 q0 -10 10 -10 m-350 10 v12 m340 0 v-12 m-340 12 q0 10 10 10 m320 0 q10 0 10 -10 m-330 10 h10 m82 0 h10 m20 0 h10 m84 0 h10 m0 0 h10 m54 0 h10 m-198 0 h20 m178 0 h20 m-218 0 q10 0 10 10 m198 0 q0 -10 10 -10 m-208 10 v24 m198 0 v-24 m-198 24 q0 10 10 10 m178 0 q10 0 10 -10 m-188 10 h10 m40 0 h10 m0 0 h10 m76 0 h10 m0 0 h22 m62 -108 l2 0 m2 0 l2 0 m2 0 l2 0 m-76 350 l2 0 m2 0 l2 0 m2 0 l2 0 m2 0 h10 m26 0 h10 m3 0 h-3"/>
<polygon points="1319 701 1327 697 1327 705"/>
<polygon points="1319 701 1311 697 1311 705"/>
</svg>