<svg width="613" height="199" viewBox="0 0 613 199" fill="none" xmlns="http://www.w3.org/2000/svg">
<path d="M76.0001 5.00001C78.4726 8.70881 78.6539 11.7002 78.0001 16C76.5001 18.9375 76.5001 18.9375 74.0001 21C70.7165 21.9622 67.535 22.402 64.1954 21.5274C53.8177 19.0345 43.8389 20.9606 34.8243 26.2852C27.6855 31.1116 22.8753 38.2343 20.4728 46.4922C18.494 56.9909 20.0229 66.3222 25.4728 75.4727C31.1099 83.4553 38.5772 87.7517 48.0001 90C50.6398 90.2757 53.2873 90.4843 55.9376 90.625C56.6215 90.6637 57.3053 90.7024 58.0099 90.7422C59.6729 90.8352 61.3365 90.9186 63.0001 91C63.5037 93.4368 64.0031 95.8744 64.5001 98.3125C64.6432 99.0028 64.7863 99.6931 64.9337 100.404C65.5264 103.325 66.0001 106.011 66.0001 109C49.9898 112.632 35.5238 108.562 21.8707 100.225C11.7917 93.6263 4.12336 82.0304 1.3673 70.3086C-1.7289 52.2475 0.617408 36.2774 11.0001 21C21.0371 8.40395 34.8062 2.42256 50.4532 0.21876C59.0013 -0.30843 68.4871 0.631978 76.0001 5.00001Z" fill="url(#paint0_linear_519_1818)"/>
<path d="M132 32C132.33 31.34 132.66 30.68 133 30C137.62 30 142.24 30 147 30C147 55.74 147 81.48 147 108C138.833 106.833 138.833 106.833 135 103C133.256 100.091 132.723 97.8251 132.586 94.4531C132.528 93.1866 132.528 93.1866 132.469 91.8945C132.438 91.0218 132.407 90.1491 132.375 89.25C132.336 88.3618 132.298 87.4737 132.258 86.5586C132.164 84.3726 132.078 82.1866 132 80C131.261 80.3145 130.523 80.6291 129.762 80.9531C122.62 83.6604 115.191 83.5399 108 81C101.073 77.0883 95.6839 71.7015 93.1876 64.0625C90.9595 55.5322 91.9259 48.4882 96.2189 40.8242C100.15 35.0254 105.279 31.4648 111.977 29.3867C119.256 27.9954 125.304 29.0241 132 32ZM106.625 49.8125C105.162 54.9329 105.314 58.6536 107.688 63.3125C111.262 67.467 113.438 68.8264 118.938 69.4375C123.215 69.2599 125.734 67.8101 129 65C131.967 61.4392 132.48 58.4231 132.285 53.9219C131.69 49.9106 129.559 47.6268 126.938 44.6875C118.828 40.0287 111.943 42.8022 106.625 49.8125Z" fill="white"/>
<path d="M68.0001 32C68.0001 31.34 68.0001 30.68 68.0001 30C72.6201 30 77.2401 30 82.0001 30C82.0001 46.83 82.0001 63.66 82.0001 81C76.3334 81 70.6668 81 65.0001 81C63.1234 81.3663 61.2486 81.7426 59.3751 82.125C50.5283 83.5942 44.3969 82.0526 37.0821 76.8516C32.1132 72.4326 28.3361 66.691 27.7267 59.9961C27.46 50.6527 28.5208 44.0428 34.8321 36.9375C44.4604 27.822 56.0244 26.577 68.0001 32ZM44.0001 47C41.2087 50.962 40.4573 54.1312 41.2853 58.9688C42.5849 62.6618 45.0538 65.4715 48.0001 68C51.6194 69.2064 54.1924 69.3227 58.0001 69C61.8285 66.9385 64.9056 64.8584 67.0001 61C68.2561 56.6459 68.2215 53.8165 66.3751 49.75C64.4064 46.3064 62.8447 44.367 59.0001 43C52.8935 42.1066 48.7233 42.7267 44.0001 47Z" fill="white"/>
<path d="M160 30C164.62 30 169.24 30 174 30C174.025 30.984 174.05 31.9679 174.076 32.9817C174.17 36.6327 174.27 40.2835 174.372 43.9343C174.416 45.5144 174.457 47.0945 174.497 48.6746C174.555 50.946 174.619 53.2171 174.684 55.4883C174.7 56.1946 174.717 56.901 174.734 57.6287C174.826 60.6665 175.032 63.0962 176 66C180.065 67.7545 184.083 68.1167 188.438 67.5625C191.309 66.1796 191.309 66.1796 192.134 62.8416C192.974 59.1179 193.313 55.7818 193.414 51.9727C193.453 50.6868 193.492 49.401 193.531 48.0762C193.563 46.7383 193.594 45.4004 193.625 44.0625C193.663 42.6973 193.702 41.332 193.742 39.9668C193.836 36.6448 193.919 33.3224 194 30C198.29 30 202.58 30 207 30C207.15 34.9437 207.258 39.8861 207.33 44.8316C207.36 46.5095 207.4 48.1873 207.453 49.8648C208.008 68.1455 208.008 68.1455 201 76C195.944 80.793 190.517 82.9424 183.551 83.0313C176.833 82.6198 170.965 81.1498 166.242 76.1328C161.355 69.876 159.694 64.828 159.805 56.8555C159.808 56.0857 159.81 55.3159 159.813 54.5228C159.825 52.0775 159.85 49.6327 159.875 47.1875C159.885 45.5241 159.894 43.8607 159.902 42.1973C159.924 38.1314 159.959 34.0658 160 30Z" fill="white"/>
<path d="M284 35C284.66 36.32 285.32 37.64 286 39C283.69 41.64 281.38 44.28 279 47C278.299 46.7113 277.598 46.4225 276.875 46.125C275.926 45.7538 274.978 45.3825 274 45C273.031 44.6081 272.061 44.2163 271.063 43.8125C267.636 42.9034 265.418 43.1863 262 44C262.33 44.99 262.66 45.98 263 47C266.244 48.3694 269.49 49.4849 272.834 50.5742C278.134 52.4044 283.358 54.7155 286 60C286.512 65.6099 286.763 70.4477 284.25 75.5625C279.629 80.5689 275.76 82.2444 269 83C260.216 83.2246 251.82 81.5126 245.223 75.3359C244.819 74.8951 244.416 74.4542 244 74C245.668 70.0586 248.227 67.2107 251 64C254.039 64.6533 256.588 65.6982 259.375 67.0625C263.087 68.7504 265.867 69.5041 270 69C270.99 68.505 270.99 68.505 272 68C271.67 67.01 271.34 66.02 271 65C268.248 63.8928 265.574 62.9423 262.75 62.0625C251.302 58.4815 251.303 58.4815 247.711 53.0508C246.142 48.5261 246.214 43.4907 247.652 38.9336C250.109 34.0518 253.218 32.1815 258 30C267.06 27.6981 276.42 29.4966 284 35Z" fill="white"/>
<path d="M552.398 137.902C554.313 139 554.313 139 557 141C557.33 140.01 557.66 139.02 558 138C560.31 138 562.62 138 565 138C565.076 144.262 565.129 150.524 565.165 156.787C565.18 158.915 565.2 161.043 565.226 163.17C565.263 166.239 565.28 169.307 565.293 172.375C565.309 173.318 565.324 174.261 565.34 175.233C565.342 181.4 564.985 187.707 560.619 192.524C555.092 197.321 550.891 198.344 543.688 198.313C542.953 198.329 542.219 198.345 541.463 198.361C536.252 198.366 532.66 197.333 528 195C528 193.02 528 191.04 528 189C531 188 531 188 533.281 188.918C536.504 190.201 539.04 190.3 542.5 190.313C543.603 190.329 544.707 190.346 545.844 190.363C549.332 189.962 551.184 189.052 554 187C556.791 183.412 556.145 179.34 556 175C555.216 175.639 554.433 176.279 553.625 176.938C548.848 180.092 543.321 180.653 537.754 179.559C531.88 177.616 528.331 174.33 525.25 168.938C522.205 161.781 522.361 155.448 525.023 148.145C527 143.805 529.666 141.001 533.5 138.125C539.482 136.202 546.425 135.655 552.398 137.902ZM534 148C531.109 152.757 530.564 156.485 531.434 161.855C532.737 166.792 534.919 169.322 539.188 172C544.043 173.274 547.406 173.005 552 171C555.983 167.681 557.255 165.221 558.063 160.125C558.337 154.919 557.123 151.16 554 147C550.433 143.739 546.884 143.47 542.215 143.656C538.615 144.215 536.647 145.542 534 148Z" fill="white"/>
<path d="M192 113C194.64 113 197.28 113 200 113C200.33 125.54 200.66 138.08 201 151C204.3 148.03 207.6 145.06 211 142C216.625 137.5 216.625 137.5 221.313 137.75C222.196 137.786 223.079 137.822 223.988 137.859C224.984 137.929 224.984 137.929 226 138C226 138.66 226 139.32 226 140C224.366 141.478 222.665 142.883 220.938 144.25C216.551 147.758 212.244 151.322 208 155C214.648 163.048 221.911 170.401 230 177C230 177.33 230 177.66 230 178C224.947 178.778 220.744 179.123 216.324 176.277C213.757 173.949 211.367 171.531 209 169C207.461 167.476 205.92 165.955 204.375 164.438C203.261 163.303 202.148 162.169 201 161C200.67 166.61 200.34 172.22 200 178C197.36 178 194.72 178 192 178C192 156.55 192 135.1 192 113Z" fill="white"/>
<path d="M453.137 137.871C454.947 139.067 456.467 140.467 458 142C458.33 140.68 458.66 139.36 459 138C461.31 138 463.62 138 466 138C466 151.2 466 164.4 466 178C463.69 178 461.38 178 459 178C458.505 176.02 458.505 176.02 458 174C456.948 174.928 456.948 174.928 455.875 175.875C450.437 179.895 445.951 180.39 439.395 179.535C433.299 178.173 429.447 173.979 426 169C423.365 161.934 422.989 154.427 426.164 147.438C432.075 137.829 442.056 133.354 453.137 137.871ZM434.25 149.125C432.224 153.785 431.303 158.211 432.555 163.219C434.517 167.873 437.109 170.547 441.781 172.5C445.853 173.418 449.255 172.776 453 171C456.021 168.467 457.746 165.761 459 162C459.536 155.564 458.812 152.255 455 147C451.331 143.75 447.875 143.534 443.149 143.715C439.01 144.264 436.846 145.972 434.25 149.125Z" fill="white"/>
<path d="M605.625 138.625C613.001 146.001 613 150.227 613 161C603.1 161 593.2 161 583 161C586.007 168.45 586.007 168.45 588.938 170.508C596.935 172.901 604.097 171.028 612 169C612 171.64 612 174.28 612 177C601.754 180.113 594.133 180.981 584 177C579.166 174.163 576.573 170.314 575 165C574.027 157.217 574.212 149.497 579 143C586.005 135.58 596.466 134.519 605.625 138.625ZM588 145C586.03 146.9 584.612 148.743 583 151C583 151.99 583 152.98 583 154C590.59 154 598.18 154 606 154C604.186 147.907 604.186 147.907 600 144C595.379 142.824 592.137 142.496 588 145Z" fill="white"/>
<path d="M280.625 138.688C283.938 141.913 286.524 144.571 288 149C288 152.96 288 156.92 288 161C278.1 161 268.2 161 258 161C258.99 162.98 259.98 164.96 261 167C261 167.66 261 168.32 261 169C270.541 172.525 277.452 172.047 287 169C287.495 172.465 287.495 172.465 288 176C281.57 180.226 273.593 180.751 266.109 179.527C260.123 177.887 255.881 175.688 252.25 170.5C248.995 163.99 248.791 156.098 250.836 149.168C253.049 144.215 255.64 140.373 260.488 137.777C267.122 135.724 274.337 135.76 280.625 138.688ZM260.188 147.375C258.564 149.357 258.564 149.357 258 154C265.59 154 273.18 154 281 154C279.186 147.907 279.186 147.907 275 144C268.769 142.269 265.23 143.55 260.188 147.375Z" fill="white"/>
<path d="M380 113C382.31 113 384.62 113 387 113C387.33 122.24 387.66 131.48 388 141C389.98 139.68 391.96 138.36 394 137C399.489 136.028 404.457 136.323 409.563 138.563C413.385 142.385 414.834 146.272 415.341 151.549C415.317 153.379 415.317 153.379 415.293 155.246C415.289 155.902 415.285 156.558 415.28 157.234C415.264 159.302 415.226 161.37 415.188 163.438C415.173 164.851 415.159 166.264 415.147 167.678C415.114 171.119 415.062 174.559 415 178C412.36 178 409.72 178 407 178C406.98 177.173 406.96 176.346 406.94 175.493C406.845 171.745 406.735 167.998 406.625 164.25C406.594 162.948 406.563 161.646 406.531 160.305C406.493 159.054 406.454 157.804 406.414 156.516C406.367 154.787 406.367 154.787 406.319 153.024C406.012 150.111 405.633 148.406 404 146C401.32 144.383 401.32 144.383 398 144C393.616 145.388 391.573 146.14 389 150C388.094 153.507 387.825 156.908 387.684 160.52C387.642 161.541 387.6 162.563 387.557 163.615C387.498 165.198 387.498 165.198 387.438 166.813C387.373 168.424 387.373 168.424 387.307 170.068C387.201 172.712 387.099 175.356 387 178C384.69 178 382.38 178 380 178C380 156.55 380 135.1 380 113Z" fill="white"/>
<path d="M119 136.625C120.764 136.613 120.764 136.613 122.563 136.602C128.37 137.275 132.094 139.568 135.813 144C136.689 145.021 136.689 145.021 137.582 146.063C141.48 151.388 140.496 158.734 140 165C138.374 170.681 133.803 174.805 129 178C122.834 180.676 116.275 180.596 109.981 178.246C103.96 175.111 100.136 170.399 98.0001 164C97.053 155.66 98.4085 149.642 103.313 142.75C108.045 137.908 112.301 136.581 119 136.625ZM108 149C105.405 153.246 105.3 158.157 106 163C108.612 168.038 111.321 171.147 116.75 172.875C121.087 173.042 124.243 172.159 128 170C131.732 166.362 132.335 163.101 132.625 158.063C132.466 152.718 131.273 149.945 127.508 146.207C124.068 143.454 120.815 143.609 116.547 143.652C112.34 144.227 110.803 145.846 108 149Z" fill="white"/>
<path d="M505 137C509.269 138.798 510.548 140.113 512.641 144.219C514.906 150.584 514.315 157.34 514.188 164C514.173 165.361 514.159 166.721 514.147 168.082C514.111 171.388 514.062 174.694 514 178C511.36 178 508.72 178 506 178C505.98 177.173 505.96 176.346 505.94 175.493C505.845 171.745 505.735 167.998 505.625 164.25C505.594 162.948 505.563 161.646 505.531 160.305C505.493 159.054 505.454 157.804 505.414 156.516C505.367 154.787 505.367 154.787 505.319 153.024C505.012 150.111 504.633 148.406 503 146C499.22 143.978 497.494 143.875 493.313 144.938C489.348 147.406 488.151 149.623 487 154C486.518 158.143 486.399 162.269 486.313 166.438C486.278 167.551 486.244 168.664 486.209 169.811C486.127 172.54 486.058 175.27 486 178C483.69 178 481.38 178 479 178C479 164.8 479 151.6 479 138C481.31 138 483.62 138 486 138C486.33 138.99 486.66 139.98 487 141C487.743 140.34 488.485 139.68 489.25 139C494.022 135.819 499.51 136.277 505 137Z" fill="white"/>
<path d="M294 138C299.461 136.855 299.461 136.855 303 138C307.051 141.671 310.014 146.462 313 151C313.545 150.062 314.091 149.123 314.652 148.156C320.596 138.466 320.596 138.466 324.602 137.137C326.864 137.183 328.822 137.398 331 138C329.688 140.774 328.225 143.208 326.399 145.672C325.664 146.668 325.664 146.668 324.914 147.684C324.406 148.366 323.898 149.047 323.375 149.75C322.859 150.447 322.344 151.145 321.813 151.863C320.545 153.578 319.273 155.289 318 157C318.369 157.491 318.737 157.983 319.117 158.489C320.101 159.801 321.084 161.113 322.066 162.426C323.507 164.344 324.953 166.257 326.402 168.168C327.016 168.979 327.016 168.979 327.641 169.806C328.84 171.391 330.041 172.975 331.242 174.559C333 177 333 177 333 178C329.359 178.976 326.614 179.162 323 178C318.829 174.061 315.928 168.884 313 164C309.944 166.838 307.93 169.674 305.813 173.25C302.741 177.804 302.741 177.804 299.547 178.648C297.284 178.627 295.215 178.452 293 178C295.726 173 298.723 168.527 302.25 164.063C302.709 163.474 303.168 162.886 303.641 162.279C304.756 160.85 305.878 159.424 307 158C303.371 152.377 299.549 147.037 295.32 141.848C294 140 294 140 294 138Z" fill="white"/>
<path d="M48.5001 136.688C49.7892 136.691 51.0782 136.695 52.4064 136.699C55.7333 136.978 58.0184 137.561 61.0001 139C60.6701 141.31 60.3401 143.62 60.0001 146C58.8657 145.649 57.7314 145.299 56.5626 144.938C51.8613 143.735 47.7351 144.189 43.0001 145C42.6701 146.65 42.3401 148.3 42.0001 150C46.2091 152.143 50.3746 154.16 54.7501 155.938C58.6095 157.664 60.9799 159.135 63.0001 163C63.6942 166.971 63.3708 170.073 61.8751 173.813C58.3546 177.92 54.4054 179.108 49.1876 179.813C44.2675 180.185 39.6492 179.713 35.0001 178C33.0001 176 33.0001 176 32.8751 172.875C32.9164 171.926 32.9576 170.978 33.0001 170C33.9901 169.505 33.9901 169.505 35.0001 169C36.9481 169.759 38.8958 170.52 40.84 171.289C44.8816 172.619 48.514 172.61 52.4376 171C53.211 170.505 53.211 170.505 54.0001 170C54.0001 168.35 54.0001 166.7 54.0001 165C52.9753 164.625 51.9505 164.25 50.8946 163.863C49.5337 163.347 48.173 162.83 46.8126 162.313C46.1391 162.068 45.4655 161.824 44.7716 161.572C40.2112 159.815 37.1635 157.872 34.0001 154C32.4063 150.023 32.7662 146.689 34.1251 142.688C37.9701 137.176 42.0052 136.603 48.5001 136.688Z" fill="white"/>
<path d="M221 30C225.29 30 229.58 30 234 30C234 46.83 234 63.66 234 81C229.71 81 225.42 81 221 81C221 64.17 221 47.34 221 30Z" fill="white"/>
<path d="M181 139C181 141.31 181 143.62 181 146C180.031 145.835 179.061 145.67 178.063 145.5C171.669 144.607 164.896 143.98 159 147C156.469 150.977 155.806 156.327 156 161C157.137 164.764 158.477 167.982 161.813 170.211C167.998 172.442 175.64 171.131 182 170C182 172.31 182 174.62 182 177C175.295 180.205 166.571 180.217 159.418 178.313C153.565 175.626 149.993 171.601 147.688 165.563C146.081 157.237 147.347 150.422 151.688 143.188C159.566 135.735 171.127 134.352 181 139Z" fill="white"/>
<path d="M356.313 136.813C357.422 136.798 358.532 136.784 359.676 136.77C363.096 137.007 365.81 137.779 369 139C369 140.98 369 142.96 369 145C365.99 145.934 365.134 146.045 362 145C357.465 144.6 353.344 144.485 349.063 146.125C345.95 148.954 344.328 151.751 343.715 155.957C343.508 160.661 344.316 164.02 347 168C350.948 171.701 355.206 171.307 360.332 171.176C363.266 170.982 366.11 170.532 369 170C370 171 370 171 370.063 174.063C370.042 175.032 370.021 176.001 370 177C363.295 180.205 354.571 180.217 347.418 178.313C341.816 175.742 338.34 171.808 335.688 166.25C334.169 159.072 334.297 152.704 337.59 146.047C342.224 139.321 348.396 136.858 356.313 136.813Z" fill="white"/>
<path d="M76.0001 126C78.6401 126 81.2801 126 84.0001 126C84.0001 129.96 84.0001 133.92 84.0001 138C87.6301 138 91.2601 138 95.0001 138C95.0001 140.31 95.0001 142.62 95.0001 145C91.3701 145 87.7401 145 84.0001 145C84.0001 155.89 84.0001 166.78 84.0001 178C81.3601 178 78.7201 178 76.0001 178C76.0001 167.11 76.0001 156.22 76.0001 145C73.0301 145 70.0601 145 67.0001 145C67.0001 142.69 67.0001 140.38 67.0001 138C69.9701 138 72.9401 138 76.0001 138C76.0001 134.04 76.0001 130.08 76.0001 126Z" fill="white"/>
<path d="M231 7.00001C233.438 8.56251 233.438 8.56251 235 11C235.563 14.9402 235.604 17.0578 233.438 20.4375C230.058 22.604 227.94 22.5629 224 22C221.563 20.4375 221.563 20.4375 220 18C219.437 14.0598 219.396 11.9422 221.563 8.56251C224.942 6.39605 227.06 6.43713 231 7.00001Z" fill="white"/>
<defs>
<linearGradient id="paint0_linear_519_1818" x1="306.55" y1="0.0864258" x2="306.55" y2="198.361" gradientUnits="userSpaceOnUse">
<stop stop-color="#CACACA"/>
<stop offset="1" stop-color="#2C2C2C" stop-opacity="0"/>
</linearGradient>
</defs>
</svg>
