<svg width="2600" height="647" fill="none" xmlns="http://www.w3.org/2000/svg"><path d="M180.333 2.133c-42.266 5.2-81.2 34.267-98.666 73.6-9.067 20.534-9.067 20.8-10 90.934-.934 70.133-.8 69.2-9.734 86.666-5.2 10.534-20.4 25.734-31.066 31.067-8.267 4.133-19.6 7.867-26.4 8.533l-3.734.4v40l3.734.4C26.333 336 51.133 352.8 61.4 372.4c9.6 18.4 9.333 15.867 10.267 94.933.8 68.8.933 71.734 3.866 81.334C88.6 592.4 120.333 625.6 162.067 639.2c9.066 2.933 18.533 4.8 32 6.133l8.266.934v-40.134l-6.266-.8C171.667 602.267 154.6 594.4 139 578.8c-11.6-11.467-18.267-21.867-23.6-36.8-2.933-8.533-3.067-10-3.867-80-.933-78.667-1.066-80-10.266-100.133-7.734-17.2-22.534-35.867-35.067-44.534l-5.467-3.866L64.6 310.8c14.133-10.133 31.867-32.8 37.733-48.4 8.267-22.133 8.4-22.533 9.2-90.4l.8-62.667 3.6-9.733c5.2-14.267 11.067-23.2 22.534-34.267 16.666-15.866 33.066-22.666 58.933-24.266l14.267-.8V.667L200.733.8c-6.133.133-15.2.667-20.4 1.333ZM643.667 20.667v20h9.733c12 .133 27.333 2.8 36.667 6.533 22.8 9.067 41.866 29.467 49.866 53.467 2.8 8.266 2.934 11.733 3.734 72 .8 59.466 1.066 64 3.733 74 6.267 22.933 20.133 44.666 38.667 60.266C790.6 310.8 793.8 314 793.133 314c-2.4 0-21.733 19.2-27.466 27.333C757.933 352 751.133 366.667 747.4 380c-2.8 10.133-2.933 14-3.6 81.333L743 532l-4 11.333c-12 34.534-41.067 57.2-79.6 62l-6.4.8v40.134l8.4-.934C711.667 640 749.133 614.8 770.333 572c12.4-25.067 12.4-24.533 13.334-105.333.666-48.534 1.466-72.534 2.533-76.667 5.067-18.8 20.533-38.4 37.2-47.067 10-5.2 21.333-8.933 27.467-8.933H855v-41.333h-4.133c-6.134 0-17.467-3.734-27.467-8.934-11.6-6.133-25.467-20.4-31.467-32.666-7.466-15.334-8.266-22.934-8.266-83.6 0-32.667-.534-57.467-1.467-62.267-7.467-41.467-34-75.733-72.133-93.067C693.667 4.667 673.533.667 652.733.667h-9.066v20ZM223.667 162.666C223.667 164.4 352.733 284 359.8 288.8c28.8 19.467 65.067 25.467 100.667 16.533 10-2.533 30.133-12.4 39.066-19.066 3.734-2.934 33.067-29.734 64.934-59.734 32-30 60.666-56.8 63.733-59.467l5.467-4.933-30.134-.133H573.4l-50.133 46.533c-27.6 25.733-53.067 48.267-56.4 50.267-22.8 13.333-48.534 14.533-71.867 3.2-11.867-5.733-11.6-5.467-72.933-63.067L282.6 162h-29.467c-16.266 0-29.466.266-29.466.666ZM2151.67 220c-28.27 5.333-50.94 25.6-60.54 54-5.46 16.533-6.4 25.733-5.73 54.4.4 21.733 1.07 27.867 3.33 35.6 9.07 29.867 27.6 49.867 54.27 58.4 31.07 10.133 82.93 1.467 106-17.6l4.67-3.733-.4-42.934-.4-42.8h-82.54v33.334h34.8l-.4 16.266-.4 16.267-8 4c-7.06 3.6-9.33 4-19.33 4-22.8-.133-34.13-9.6-40.8-34-1.87-6.667-2.4-14-2.4-33.2-.13-22.4.13-25.467 2.93-33.867 4.4-13.066 7.34-18.4 13.07-23.466 6.8-5.867 13.07-8.267 22.53-8.534 16.27-.266 27.87 8.134 32.4 23.467l2.27 7.733h46.93l-1.06-6.4c-5.07-32.266-23.74-52.533-54.54-59.466-13.86-3.2-34.4-3.867-46.66-1.467ZM978.067 226.266c8.666 14.267 53.603 94.534 53.603 95.867 0 1.067-40.937 74.134-55.07 98.134l-2.533 4.4h56.263l16.94-34 17.06-34 16.94 34 17.06 34h56.14l-1.6-3.067c-.94-1.6-13.87-24.4-28.8-50.533-14.8-26.267-27.07-48.267-27.07-48.934 0-.933 48-86.4 55.6-99.2.27-.533-12.13-.933-27.47-.933H1097l-16.27 32.666c-9.06 18-16.66 32.667-17.06 32.667-.4 0-7.6-14.667-16-32.667L1032.33 222H975.4l2.667 4.266ZM1166.33 322.533v100.8h49.34v-70.666H1241.8l17.2 36 17.33 35.866 26.4.134c17.47 0 26.27-.534 26.27-1.467 0-.667-9.33-19.467-20.67-41.467-11.33-22.133-20.53-40.267-20.26-40.4.13-.133 2.93-1.733 6.26-3.6 7.34-4.133 17.47-14.667 21.07-21.867 5.47-10.8 7.2-20 6.67-35.066-.4-12.534-.94-15.2-4.67-23.2-5.07-10.8-14-19.867-25.33-25.867-15.74-8.4-18.54-8.8-74.67-9.467l-51.07-.533v100.8Zm93.74-61.067c10 5.067 14.26 12.534 14.26 24.8-.13 14.267-7.06 24.534-18.66 27.734-2.94.8-12.94 1.2-22.27 1.066l-17.07-.4-.4-27.733-.26-27.6h20c15.86 0 21.06.4 24.4 2.133ZM1350.33 322.533v100.8h48v-66.267l25.07-.8c18.53-.666 27.6-1.466 35.33-3.466 29.47-7.6 47.87-27.334 50.14-53.6 1.33-15.6-.27-26.667-5.74-38-5.6-12-15.73-22.267-28.13-28.8-18.27-9.467-18.53-9.467-74.27-10.134l-50.4-.4v100.667Zm93.2-60.533c10 5.066 14.8 14.266 14.8 28.266 0 10-1.6 14.4-7.6 20-6.8 6.534-11.86 7.734-33.06 7.734h-19.34v-58.667h20c17.34 0 20.8.4 25.2 2.667ZM1599.67 323.333v101.334H1733v-37.334l-42.27-.266-42.4-.4-.4-82.401-.26-82.266h-48v101.333ZM1751.67 323.333v101.334h140v-37.334H1801V338h76v-36h-76.13l.4-21.067.4-20.933 45.06-.4 44.94-.267V222h-140v101.333ZM1907.67 323.2v101.467h41.06c36.67 0 42.27-.267 51.47-2.667 15.73-4 27.73-10.933 40.27-23.333 9.06-8.934 11.86-12.8 16.93-23.334 8.13-16.666 10.27-27.467 10.27-51.067 0-21.866-2.67-35.2-9.74-50.666-11.46-24.4-30.53-40.4-57.6-48.4-6.66-1.867-15.33-2.4-50.26-2.8l-42.4-.667V323.2Zm80.66-60.267c9.34 3.067 19.47 13.467 23.2 23.6 4.27 11.333 5.87 26 5.07 44.133-1.47 30.267-9.6 46.267-27.73 53.601-4.27 1.733-9.6 2.4-19.2 2.4h-13.34l-.4-63.067-.26-62.934h13.06c8.67 0 15.34.8 19.6 2.267ZM2281 323.333v101.334H2419.67v-37.334l-44.94-.266-45.06-.4V338.666l38.4-.4 38.26-.266v-36h-76v-42.667H2421V222h-140v101.333ZM2437 322.533v100.8h49.33v-70.667h26l16.94 35.6L2546.2 424l26.67.4c14.8.133 26.8 0 26.8-.4 0-.267-9.34-18.667-20.67-40.667-11.33-22-20.67-40.4-20.67-41.067 0-.533 3.87-3.6 8.54-6.666 14.4-9.467 22.53-23.2 25.06-42.4 4.54-33.2-12.66-58.534-46.26-68.134-6.8-1.866-16-2.266-58.27-2.8l-50.4-.4v100.667Zm91.07-62c11.73 4.533 18.53 18.267 15.73 31.867-1.87 9.2-5.87 15.2-12.8 19.2-4.8 2.8-7.33 3.066-24.93 3.466l-19.74.534V259.333h19.2c10.67 0 20.8.533 22.54 1.2ZM405.133 338c-18.533 3.866-38.933 13.466-52.266 24.533-6.134 5.2-108.134 100-129.2 120.267-1.6 1.6 2.266 1.867 28.133 1.867h30l49.333-46.134C358.2 413.2 383.4 390.4 387 388.133c10.533-6.8 20.133-10.267 32.533-11.733 14.4-1.867 28.267.666 42.534 7.733 10.4 5.067 12.933 7.333 78.266 68.934l33.334 31.466 30 .134h30l-5.334-5.2C604.867 456.267 502.867 362 497 358c-10.667-7.2-25.067-14.134-36.267-17.467-7.466-2.133-14.266-2.933-29.733-3.333-10.933-.134-22.667.133-25.867.8Z" fill="#fff"/></svg>
