<svg width="141" height="24" viewBox="0 0 301 50" fill="none" xmlns="http://www.w3.org/2000/svg"><path fill-rule="evenodd" clip-rule="evenodd" d="M4.77125 8.39739C4.77125 6.39362 6.39362 4.77125 8.39739 4.77125H17.0837V45.2288H8.39739C6.3943 45.2288 4.77125 43.6044 4.77125 41.6026V8.39739ZM20.2645 45.2288H41.6026C43.6037 45.2288 45.2288 43.6037 45.2288 41.6026V26.5891H20.2645V45.2288ZM45.2288 23.4083V8.39739C45.2288 6.39362 43.6064 4.77125 41.6026 4.77125H20.2645V23.4083H45.2288ZM8.39739 0C3.75853 0 0 3.75853 0 8.39739V41.6026C0 46.2381 3.75785 50 8.39739 50H41.6026C46.2388 50 50 46.2388 50 41.6026V8.39739C50 3.75853 46.2415 0 41.6026 0H8.39739Z" fill="#FFFFFF"></path><path d="M66.6676 39.7233C64.8863 37.4384 63.9453 34.5465 63.8446 31.0502L63.7942 29.5367L63.8446 28.0231C63.9453 24.5613 64.8863 21.6774 66.6676 19.3739C68.4488 17.0705 71.0889 15.9201 74.5852 15.9201C78.047 15.9201 80.7693 17.1474 82.7546 19.6019V8.00512C82.7546 7.66848 82.8633 7.39281 83.0833 7.1728C83.3007 6.95545 83.579 6.84412 83.9156 6.84412H86.3357C86.6724 6.84412 86.948 6.95279 87.168 7.1728C87.3854 7.39281 87.4967 7.66848 87.4967 8.00512V41.4887C87.4967 41.8253 87.388 42.1036 87.168 42.321C86.948 42.541 86.6724 42.6497 86.3357 42.6497H84.0667C83.7301 42.6497 83.4518 42.541 83.2344 42.321C83.0144 42.1036 82.9057 41.8253 82.9057 41.4887V39.3708C80.9548 41.8916 78.1822 43.1533 74.5852 43.1533C71.0863 43.1533 68.4488 42.0108 66.6676 39.7233ZM80.862 36.7731C82.023 35.2436 82.6513 33.42 82.752 31.302C82.7838 30.9336 82.8023 30.2921 82.8023 29.3856C82.8023 28.4446 82.7838 27.7899 82.752 27.4188C82.6831 25.4361 82.0469 23.7052 80.8355 22.2261C79.6242 20.747 77.8933 20.0075 75.6428 20.0075C73.2545 20.0075 71.5157 20.747 70.4236 22.2261C69.3315 23.7052 68.7351 25.6561 68.6344 28.0762L68.584 29.5393C68.584 35.893 70.9378 39.0712 75.6428 39.0712C77.9622 39.0686 79.701 38.3052 80.862 36.7731Z" fill="#FFFFFF"></path><path d="M97.7284 42.1434C96.3155 41.4701 95.1996 40.5556 94.3752 39.3946C93.5509 38.2336 93.14 36.948 93.14 35.5379C93.14 33.3192 94.0545 31.4956 95.8888 30.0668C97.7204 28.6381 100.201 27.7051 103.327 27.2677L110.841 26.2074V24.7442C110.841 21.3142 108.875 19.6019 104.941 19.6019C103.462 19.6019 102.25 19.912 101.309 20.5349C100.368 21.1579 99.6607 21.8894 99.1915 22.7297C99.0908 23.0319 98.9636 23.2519 98.8125 23.3844C98.6614 23.5196 98.452 23.5859 98.1816 23.5859H96.0134C95.7112 23.5859 95.4514 23.4772 95.2314 23.2572C95.0114 23.0398 94.9027 22.7774 94.9027 22.4753C94.9345 21.6694 95.3136 20.7523 96.0372 19.7265C96.7609 18.7007 97.8768 17.81 99.3903 17.0546C100.904 16.2991 102.77 15.9201 104.989 15.9201C108.753 15.9201 111.459 16.8028 113.108 18.5681C114.754 20.3335 115.578 22.5256 115.578 25.1498V41.4887C115.578 41.8253 115.469 42.1036 115.249 42.321C115.029 42.541 114.754 42.6497 114.417 42.6497H112.098C111.761 42.6497 111.483 42.541 111.265 42.321C111.045 42.1036 110.937 41.8253 110.937 41.4887V39.3204C110.197 40.3966 109.121 41.3031 107.708 42.0427C106.295 42.7822 104.498 43.1533 102.311 43.1533C100.671 43.1533 99.1412 42.8167 97.7284 42.1434ZM108.747 37.229C110.142 35.8003 110.841 33.7407 110.841 31.0529V29.6401L104.991 30.4962C102.603 30.8329 100.806 31.3948 99.5945 32.1847C98.3831 32.9746 97.7787 33.974 97.7787 35.1853C97.7787 36.5292 98.3327 37.563 99.4434 38.2866C100.554 39.0103 101.863 39.3708 103.377 39.3708C105.561 39.3708 107.353 38.6577 108.747 37.229Z" fill="#FFFFFF"></path><path d="M124.858 33.7725V20.4607H120.925C120.588 20.4607 120.31 20.352 120.092 20.132C119.872 19.9147 119.764 19.6364 119.764 19.2997V17.5847C119.764 17.2481 119.872 16.9724 120.092 16.7524C120.31 16.535 120.588 16.4237 120.925 16.4237H124.858V8.00512C124.858 7.66848 124.967 7.39281 125.187 7.1728C125.404 6.95545 125.683 6.84412 126.019 6.84412H128.389C128.726 6.84412 129.001 6.95279 129.221 7.1728C129.439 7.39281 129.55 7.66848 129.55 8.00512V16.4264H135.803C136.14 16.4264 136.415 16.535 136.635 16.7551C136.853 16.9751 136.964 17.2507 136.964 17.5874V19.3024C136.964 19.639 136.855 19.9173 136.635 20.1347C136.415 20.3547 136.14 20.4634 135.803 20.4634H129.55V33.4226C129.55 35.1031 129.836 36.3728 130.406 37.229C130.976 38.0852 131.92 38.5146 133.229 38.5146H136.304C136.64 38.5146 136.916 38.6233 137.136 38.8433C137.354 39.0633 137.465 39.3389 137.465 39.6756V41.4913C137.465 41.8279 137.356 42.1063 137.136 42.3236C136.916 42.5436 136.64 42.6523 136.304 42.6523H132.826C127.514 42.6497 124.858 39.6915 124.858 33.7725Z" fill="#FFFFFF"></path><path d="M145.027 42.1434C143.614 41.4701 142.499 40.5556 141.674 39.3946C140.85 38.2336 140.439 36.948 140.439 35.5379C140.439 33.3192 141.353 31.4956 143.188 30.0668C145.019 28.6381 147.5 27.7051 150.626 27.2677L158.14 26.2074V24.7442C158.14 21.3142 156.173 19.6019 152.24 19.6019C150.761 19.6019 149.549 19.912 148.608 20.5349C147.667 21.1579 146.96 21.8894 146.491 22.7297C146.39 23.0319 146.263 23.2519 146.111 23.3844C145.96 23.5196 145.751 23.5859 145.481 23.5859H143.312C143.01 23.5859 142.75 23.4772 142.53 23.2572C142.31 23.0398 142.202 22.7774 142.202 22.4753C142.233 21.6694 142.613 20.7523 143.336 19.7265C144.06 18.7007 145.176 17.81 146.689 17.0546C148.203 16.2991 150.069 15.9201 152.288 15.9201C156.052 15.9201 158.758 16.8028 160.407 18.5681C162.053 20.3335 162.877 22.5256 162.877 25.1498V41.4887C162.877 41.8253 162.768 42.1036 162.548 42.321C162.328 42.541 162.053 42.6497 161.716 42.6497H159.397C159.06 42.6497 158.782 42.541 158.564 42.321C158.344 42.1036 158.236 41.8253 158.236 41.4887V39.3204C157.496 40.3966 156.42 41.3031 155.007 42.0427C153.594 42.7822 151.797 43.1533 149.61 43.1533C147.97 43.1533 146.44 42.8167 145.027 42.1434ZM156.046 37.229C157.441 35.8003 158.14 33.7407 158.14 31.0529V29.6401L152.29 30.4962C149.902 30.8329 148.105 31.3948 146.893 32.1847C145.682 32.9746 145.078 33.974 145.078 35.1853C145.078 36.5292 145.632 37.563 146.742 38.2866C147.853 39.0103 149.162 39.3708 150.676 39.3708C152.86 39.3708 154.652 38.6577 156.046 37.229Z" fill="#FFFFFF"></path><path d="M174.829 39.3708V41.4887C174.829 41.8253 174.72 42.1036 174.5 42.321C174.28 42.541 174.005 42.6497 173.668 42.6497H171.349C171.012 42.6497 170.734 42.541 170.516 42.321C170.296 42.1036 170.188 41.8253 170.188 41.4887V8.00512C170.188 7.66848 170.296 7.39281 170.516 7.1728C170.734 6.95545 171.012 6.84412 171.349 6.84412H173.819C174.156 6.84412 174.423 6.95279 174.625 7.1728C174.826 7.39281 174.927 7.66848 174.927 8.00512V19.6045C176.91 17.15 179.632 15.9227 183.097 15.9227C186.593 15.9227 189.23 17.0758 191.014 19.3766C192.795 21.68 193.755 24.5613 193.888 28.0258C193.919 28.3969 193.938 28.9005 193.938 29.5393C193.938 30.1782 193.919 30.6818 193.888 31.0529C193.752 34.5491 192.795 37.4411 191.014 39.7259C189.233 42.0135 186.593 43.1559 183.097 43.1559C179.47 43.1533 176.711 41.8916 174.829 39.3708ZM187.261 36.8499C188.353 35.3709 188.949 33.42 189.05 30.9999C189.082 30.6632 189.1 30.1755 189.1 29.5367C189.1 23.183 186.747 20.0048 182.042 20.0048C179.788 20.0048 178.058 20.7443 176.849 22.2234C175.638 23.7025 174.999 25.4334 174.932 27.4161L174.882 29.3829L174.932 31.2994C175.033 33.4173 175.664 35.241 176.822 36.7704C177.983 38.2999 179.722 39.0659 182.042 39.0659C184.427 39.0686 186.166 38.329 187.261 36.8499Z" fill="white"></path><path d="M202.338 39.9513C200.27 37.8175 199.136 34.9017 198.934 31.2013L198.884 29.4863L198.934 27.8217C199.17 24.1902 200.321 21.301 202.388 19.1486C204.456 16.9989 207.186 15.9201 210.582 15.9201C214.314 15.9201 217.203 17.1049 219.255 19.4747C221.304 21.8444 222.332 25.0464 222.332 29.0808V29.9369C222.332 30.2736 222.223 30.5519 222.003 30.7693C221.783 30.9893 221.508 31.0979 221.171 31.0979H203.724V31.5512C203.825 33.738 204.488 35.5935 205.718 37.123C206.945 38.6524 208.567 39.4185 210.584 39.4185C212.13 39.4185 213.399 39.1083 214.391 38.4854C215.382 37.8625 216.114 37.2157 216.585 36.5451C216.888 36.1422 217.116 35.8984 217.267 35.8135C217.418 35.7287 217.696 35.6863 218.099 35.6863H220.569C220.872 35.6863 221.123 35.7711 221.325 35.9381C221.526 36.1078 221.627 36.341 221.627 36.6432C221.627 37.3827 221.166 38.2734 220.241 39.3151C219.316 40.3568 218.022 41.2554 216.357 42.0135C214.693 42.7689 212.784 43.148 210.635 43.148C207.17 43.1533 204.405 42.0851 202.338 39.9513ZM217.54 27.6229V27.4718C217.54 25.1524 216.909 23.2625 215.65 21.7993C214.391 20.3361 212.699 19.6046 210.582 19.6046C208.464 19.6046 206.791 20.3361 205.564 21.7993C204.337 23.2625 203.724 25.1524 203.724 27.4718V27.6229H217.54Z" fill="white"></path><path d="M228.71 42.321C228.49 42.1036 228.381 41.8253 228.381 41.4887V17.5874C228.381 17.2507 228.49 16.9751 228.71 16.7551C228.927 16.5377 229.205 16.4264 229.542 16.4264H231.912C232.248 16.4264 232.524 16.535 232.744 16.7551C232.961 16.9751 233.073 17.2507 233.073 17.5874V19.806C234.048 18.5628 235.199 17.6033 236.527 16.9326C237.855 16.2594 239.509 15.9254 241.494 15.9254C244.722 15.9254 247.233 16.9592 249.033 19.0267C250.83 21.0942 251.731 23.843 251.731 27.2703V41.4913C251.731 41.8279 251.622 42.1063 251.402 42.3236C251.182 42.5436 250.907 42.6523 250.57 42.6523H248.049C247.712 42.6523 247.434 42.5436 247.217 42.3236C246.997 42.1063 246.888 41.8279 246.888 41.4913V27.5222C246.888 25.1365 246.308 23.2864 245.149 21.9743C243.988 20.6622 242.316 20.0075 240.131 20.0075C238.014 20.0075 236.333 20.6728 235.09 21.9981C233.847 23.3261 233.224 25.1683 233.224 27.5195V41.4887C233.224 41.8253 233.115 42.1036 232.895 42.321C232.675 42.541 232.399 42.6497 232.063 42.6497H229.542C229.205 42.6497 228.93 42.541 228.71 42.321Z" fill="white"></path><path d="M260.857 33.7725V20.4607H256.924C256.587 20.4607 256.309 20.352 256.091 20.132C255.871 19.9147 255.763 19.6364 255.763 19.2997V17.5847C255.763 17.2481 255.871 16.9724 256.091 16.7524C256.309 16.535 256.587 16.4237 256.924 16.4237H260.857V8.00512C260.857 7.66848 260.966 7.39281 261.186 7.1728C261.403 6.95545 261.682 6.84412 262.018 6.84412H264.388C264.725 6.84412 265 6.95279 265.22 7.1728C265.438 7.39281 265.549 7.66848 265.549 8.00512V16.4264H271.802C272.139 16.4264 272.414 16.535 272.634 16.7551C272.852 16.9751 272.963 17.2507 272.963 17.5874V19.3024C272.963 19.639 272.854 19.9173 272.634 20.1347C272.414 20.3547 272.139 20.4634 271.802 20.4634H265.549V33.4226C265.549 35.1031 265.835 36.3728 266.405 37.229C266.978 38.0852 267.919 38.5146 269.228 38.5146H272.303C272.64 38.5146 272.915 38.6233 273.135 38.8433C273.353 39.0633 273.464 39.3389 273.464 39.6756V41.4913C273.464 41.8279 273.355 42.1063 273.135 42.3236C272.915 42.5436 272.64 42.6523 272.303 42.6523H268.823C263.513 42.6497 260.857 39.6915 260.857 33.7725Z" fill="white"></path><path d="M280.449 40.0255C278.415 37.942 277.329 35.1667 277.196 31.7049L277.146 29.5367L277.196 27.3684C277.329 23.9384 278.423 21.1737 280.475 19.0744C282.524 16.9751 285.384 15.9227 289.047 15.9227C292.711 15.9227 295.568 16.9751 297.62 19.0744C299.669 21.1764 300.763 23.9411 300.899 27.3684C300.93 27.7395 300.949 28.4605 300.949 29.5367C300.949 30.6129 300.93 31.3365 300.899 31.7049C300.763 35.1667 299.679 37.942 297.646 40.0255C295.613 42.1116 292.745 43.1506 289.047 43.1506C285.347 43.1533 282.482 42.1116 280.449 40.0255ZM294.062 37.2528C295.29 35.9089 295.952 33.9739 296.053 31.4531C296.085 31.1165 296.104 30.4777 296.104 29.5367C296.104 28.5957 296.085 27.9569 296.053 27.6202C295.952 25.0994 295.287 23.1671 294.062 21.8205C292.835 20.4766 291.163 19.8033 289.045 19.8033C286.927 19.8033 285.246 20.4766 284.003 21.8205C282.76 23.1644 282.103 25.0994 282.036 27.6202L281.986 29.5367L282.036 31.4531C282.103 33.9739 282.76 35.9089 284.003 37.2528C285.246 38.5967 286.927 39.27 289.045 39.27C291.163 39.27 292.835 38.5994 294.062 37.2528Z" fill="white"></path></svg>
