<svg version="1.1" id="Layer_1" xmlns="http://www.w3.org/2000/svg" x="0" y="0" viewBox="0 0 285.8 123.7" xml:space="preserve"><style type="text/css">.st0{fill:#fff}</style><path class="st0" d="M80.6 64.9c2.7-3.5 4.3-7.8 4.3-12.5 0-11.4-9.3-20.7-20.7-20.7h-38v70.1h41.2c11.4 0 20.7-9.3 20.7-20.7.1-6.6-2.9-12.4-7.5-16.2zM43.4 44.5h17.3c4.3 0 7.8 3.5 7.8 7.8s-3.5 7.8-7.8 7.8H43.4V44.5zm18.9 44.3H43.4V73.1h18.8c4.3 0 7.8 3.5 7.8 7.8s-3.4 7.9-7.7 7.9zm81.8-69.7c0 2.5-1 4.6-2.9 6.3-1.9 1.6-4.4 2.4-7.5 2.4-2.9 0-5.3-.8-7.3-2.3-2-1.5-3.1-3.6-3.5-6.2h7.7c.6 1.5 1.6 2.3 3.1 2.3.9 0 1.7-.2 2.3-.7.6-.5.9-1.1.9-1.9 0-.8-.3-1.4-.9-1.8-.6-.5-1.4-.7-2.4-.7H131v-5.4h2.4c1 0 1.8-.2 2.3-.7.6-.4.9-1 .9-1.7 0-.8-.3-1.4-.8-1.9s-1.3-.7-2.2-.7c-.9 0-1.7.3-2.3 1-.4.4-.6.9-.8 1.5h-7.4c.4-2.7 1.6-4.8 3.4-6.3 1.9-1.5 4.2-2.2 7-2.2 2.9 0 5.4.8 7.3 2.4 1.9 1.6 2.8 3.6 2.8 6.1 0 2.3-.9 4-2.8 5.2 2.3 1 3.3 2.9 3.3 5.3z"/><polygon class="st0" points="26.4,18.2 26.4,9.6 0,9.6 0,123.7 26.4,123.7 26.4,115.1 8.6,115.1 8.6,18.2"/><polygon class="st0" points="87.7,115.1 87.7,123.7 114.1,123.7 114.1,9.6 87.7,9.6 87.7,18.2 105.5,18.2 105.5,115.1"/><path class="st0" d="M175.3 44.4c.8.1 1.5.5 2.1 1.1s.8 1.4.8 2.4c0 1.2-.4 2.1-1.2 2.9-.8.7-1.9 1.1-3.3 1.1h-6.9V37.3h6.7c1.3 0 2.4.3 3.2 1 .8.7 1.1 1.6 1.1 2.8 0 .9-.2 1.6-.7 2.2-.5.6-1.1 1-1.8 1.1zm-6.8-.6h4.9c.8 0 1.5-.2 2-.7.5-.5.7-1.1.7-1.9 0-.7-.3-1.3-.8-1.8-.5-.4-1.2-.7-2.1-.7h-4.8v5.1zm5.1 6.5c.9 0 1.6-.2 2.1-.7.5-.5.8-1.1.8-1.9 0-.8-.3-1.4-.8-1.8-.5-.5-1.2-.7-2.1-.7h-5.1v5.1h5.1zm17.7 1.5l-5.5-6.2h-2.7v6.2h-1.7V37.3h6.7c1.4 0 2.6.4 3.4 1.1.9.8 1.3 1.8 1.3 3s-.4 2.2-1.3 3c-.9.8-2 1.1-3.4 1.1h-.3l5.6 6.2h-2.1zm-3.2-7.8c.9 0 1.6-.2 2.2-.7.6-.5.8-1.1.8-1.9 0-.8-.3-1.4-.8-1.9s-1.3-.7-2.2-.7h-5V44h5zm19.6 7.8l-1.6-3.7h-7.6l-1.6 3.7H195l6.5-14.5h1.6l6.5 14.5h-1.9zm-5.5-12.4l-3.2 7.1h6.3l-3.1-7.1zm20.3 12.4h-11.1v-1.1l8.9-11.9h-8.6v-1.5h10.8v1.2l-8.7 11.8h8.7v1.5zm2.7 0V37.3h1.7v14.5h-1.7zm15.5 0h-10V37.3h1.7v12.9h8.3v1.6zm2.5 0V37.3h1.7v14.5h-1.7zm16.5 0l-1.6-3.7h-7.6l-1.6 3.7H247l6.5-14.5h1.6l6.5 14.5h-1.9zm-5.4-12.4l-3.2 7.1h6.3l-3.1-7.1zm22.1 12.4h-1.5l-9.5-11.5v11.5h-1.7V37.3h1.5l9.5 11.6V37.3h1.7v14.5zm-99 22.8h-10.6V60.1h10.5v1.5h-8.8v4.9h8.2V68h-8.2v5h8.9v1.6zm8.4-6.2l-4.3 6.2h-2.1l5.2-7.3-5.1-7.2h2.1l4.3 6.1 4.3-6.1h2.1l-5.1 7.2 5.2 7.3h-2.1l-4.5-6.2zm18.2 3.9c.9-.6 1.6-1.6 2-2.7l1.6.4c-.4 1.5-1.3 2.7-2.5 3.6-1.2.9-2.7 1.3-4.4 1.3-2.1 0-3.9-.7-5.3-2.2-1.5-1.5-2.2-3.2-2.2-5.3 0-2.1.7-3.9 2.2-5.3 1.5-1.5 3.2-2.2 5.3-2.2 1.7 0 3.1.4 4.4 1.3s2.1 2 2.5 3.5l-1.6.5c-.4-1.2-1-2.1-1.9-2.7s-2-1-3.3-1c-1.6 0-3 .6-4.1 1.7-1.1 1.1-1.7 2.5-1.7 4.2 0 1.7.6 3.1 1.7 4.2s2.5 1.7 4.1 1.7c1.2-.1 2.3-.4 3.2-1zm18.7 2.3H221V68h-8.7v6.5h-1.7V60.1h1.7v6.4h8.7v-6.4h1.7v14.5zm14.9 0l-1.6-3.7h-7.6l-1.6 3.7H225l6.5-14.5h1.6l6.5 14.5h-2zm-5.4-12.4l-3.2 7.1h6.3l-3.1-7.1zm22.1 12.4h-1.5l-9.5-11.5v11.5h-1.7V60.1h1.5l9.5 11.6V60.1h1.7v14.5zm17.8-8v.7c0 2.1-.7 3.9-2 5.3-1.4 1.4-3.1 2.1-5.2 2.1s-3.9-.7-5.4-2.2c-1.5-1.5-2.2-3.2-2.2-5.3 0-2.1.7-3.9 2.2-5.3 1.4-1.5 3.2-2.2 5.3-2.2 1.6 0 3 .4 4.2 1.1 1.2.7 2.1 1.8 2.6 3.1l-1.5.5c-.5-1-1.2-1.8-2.1-2.3-.9-.5-2-.8-3.2-.8-1.6 0-3 .6-4.1 1.7s-1.7 2.5-1.7 4.2c0 1.7.6 3.1 1.7 4.2s2.5 1.7 4.2 1.7c1.5 0 2.8-.5 3.8-1.4 1-1 1.6-2.2 1.8-3.6h-6.4v-1.6h8zm13.7 8h-10.6V60.1h10.5v1.5h-8.8v4.9h8.2V68h-8.2v5h8.9v1.6zM178.5 97.3l-1.6-3.7h-7.6l-1.6 3.7h-1.8l6.5-14.5h1.6l6.5 14.5h-2zM173.1 85l-3.2 7.1h6.3l-3.1-7.1zm22.1 12.3h-1.5l-9.5-11.5v11.5h-1.7V82.8h1.5l9.5 11.6V82.8h1.7v14.5zm8.6-14.5c2.5 0 4.4.7 5.9 2 1.4 1.4 2.1 3.1 2.1 5.2s-.7 3.8-2.1 5.2c-1.4 1.4-3.4 2-5.9 2H199V82.8h4.8zm0 13c2 0 3.5-.5 4.6-1.6 1.1-1.1 1.7-2.4 1.7-4.1 0-1.7-.6-3-1.7-4.1-1.1-1.1-2.7-1.6-4.6-1.6h-3.1v11.4h3.1zm28.7-11.1c1.4 1.5 2.2 3.2 2.2 5.3 0 2.1-.7 3.9-2.2 5.3-1.4 1.5-3.2 2.2-5.3 2.2-2.1 0-3.9-.7-5.3-2.2-1.4-1.5-2.2-3.2-2.2-5.3 0-2.1.7-3.9 2.2-5.3 1.4-1.5 3.2-2.2 5.3-2.2 2.1.1 3.8.8 5.3 2.2zm-1.2 9.6c1.1-1.1 1.7-2.5 1.7-4.2 0-1.7-.6-3.1-1.7-4.2s-2.5-1.7-4.1-1.7c-1.6 0-3 .6-4.1 1.7s-1.7 2.5-1.7 4.2c0 1.7.6 3.1 1.7 4.2s2.5 1.7 4.1 1.7c1.6 0 2.9-.6 4.1-1.7zm11.3-9.9v12.9h-1.7V84.4h-5.4v-1.5H248v1.5h-5.4zM259.7 95c.9-.6 1.6-1.6 2-2.7l1.6.4c-.4 1.5-1.3 2.7-2.5 3.6s-2.7 1.3-4.4 1.3c-2.1 0-3.9-.7-5.3-2.2-1.5-1.5-2.2-3.2-2.2-5.3 0-2.1.7-3.9 2.2-5.3 1.5-1.5 3.2-2.2 5.3-2.2 1.7 0 3.1.4 4.4 1.3 1.2.9 2.1 2 2.5 3.5l-1.6.5c-.4-1.2-1-2.1-1.9-2.7s-2-1-3.3-1c-1.6 0-3 .6-4.1 1.7s-1.7 2.5-1.7 4.2c0 1.7.6 3.1 1.7 4.2s2.5 1.7 4.1 1.7c1.1 0 2.2-.3 3.2-1z"/></svg>