<svg id="Grids" xmlns="http://www.w3.org/2000/svg" xmlns:xlink="http://www.w3.org/1999/xlink" viewBox="0 0 380.04 106.9"><defs><style>.cls-1,.cls-2{fill:#fff;}.cls-1{stroke:#002d4e;stroke-miterlimit:10;stroke-width:0.64px;}.cls-3{fill:url(#linear-gradient);}</style><linearGradient id="linear-gradient" x1="321.74" y1="103.79" x2="367.66" y2="103.79" gradientTransform="matrix(1, 0, 0, -1, 0, 113.89)" gradientUnits="userSpaceOnUse"><stop offset="0.4" stop-color="#00aec1"/><stop offset="0.51" stop-color="#01aabe"/><stop offset="0.61" stop-color="#049eb7"/><stop offset="0.72" stop-color="#0a8baa"/><stop offset="0.82" stop-color="#116f98"/><stop offset="0.92" stop-color="#1b4c81"/><stop offset="1" stop-color="#232e6d"/></linearGradient></defs><path class="cls-1" d="M63.7,69a22.86,22.86,0,0,1,5.12,14.59,22.6,22.6,0,0,1-3.61,12.55A24.51,24.51,0,0,1,54.76,105a36.83,36.83,0,0,1-15.89,3.22H2.34V16.86H37.16a37.3,37.3,0,0,1,16,3.16A23.43,23.43,0,0,1,63.3,28.49a21.5,21.5,0,0,1,3.42,11.89,20.34,20.34,0,0,1-4.2,13.14,24.39,24.39,0,0,1-11.3,7.75A20.22,20.22,0,0,1,63.7,69ZM17.32,55.23H35.84q7.36,0,11.5-3.35t4.14-9.66a12,12,0,0,0-4.14-9.66q-4.14-3.48-11.5-3.48H17.32ZM49.51,92.28Q53.85,88.6,53.84,82a13.28,13.28,0,0,0-4.59-10.64Q44.65,67.44,37,67.45H17.32V96H37.55Q45.17,96,49.51,92.28Z" transform="translate(-2.02 -2.79)"/><path class="cls-1" d="M143.92,77.56H88.61A20,20,0,0,0,95,91.49a20.35,20.35,0,0,0,14.19,5.26q12.09,0,17.08-10.12h16.17A32.57,32.57,0,0,1,130.58,103q-8.6,6.38-21.35,6.37a37,37,0,0,1-18.59-4.66A33.09,33.09,0,0,1,77.77,91.56,40,40,0,0,1,73.1,71.91a40.89,40.89,0,0,1,4.54-19.64A31.82,31.82,0,0,1,90.38,39.2a37.91,37.91,0,0,1,18.85-4.6,37,37,0,0,1,18.27,4.47A31.58,31.58,0,0,1,140,51.62a37.75,37.75,0,0,1,4.47,18.59A46.37,46.37,0,0,1,143.92,77.56ZM128.81,65.48a17,17,0,0,0-5.91-13.27,21.15,21.15,0,0,0-14.32-5,19.26,19.26,0,0,0-13.27,4.93q-5.52,4.94-6.57,13.34Z" transform="translate(-2.02 -2.79)"/><path class="cls-1" d="M219.73,77.56H164.42a20,20,0,0,0,6.43,13.93A20.29,20.29,0,0,0,185,96.75q12.09,0,17.08-10.12h16.17A32.57,32.57,0,0,1,206.39,103q-8.59,6.38-21.35,6.37a37,37,0,0,1-18.59-4.66,33.13,33.13,0,0,1-12.87-13.14,40,40,0,0,1-4.67-19.65,40.89,40.89,0,0,1,4.54-19.64A31.85,31.85,0,0,1,166.19,39.2,37.89,37.89,0,0,1,185,34.6a37,37,0,0,1,18.27,4.47,31.59,31.59,0,0,1,12.48,12.55,37.75,37.75,0,0,1,4.47,18.59A46.32,46.32,0,0,1,219.73,77.56ZM204.62,65.48a17,17,0,0,0-5.91-13.27,21.15,21.15,0,0,0-14.32-5,19.26,19.26,0,0,0-13.27,4.93q-5.52,4.94-6.57,13.34Z" transform="translate(-2.02 -2.79)"/><path class="cls-1" d="M275,108.18l-32.5-32.4v32.4H227.91V35.46H242.5V68.07l32.28-32.61h17.6L256.56,71.51l36.83,36.67Z" transform="translate(-2.02 -2.79)"/><path class="cls-1" d="M305.54,106.27a26.89,26.89,0,0,1-10.71-8.41A21,21,0,0,1,290.63,86h15.5a10.57,10.57,0,0,0,4.41,7.69,16,16,0,0,0,10,3.09q6.3,0,9.79-2.43a7.35,7.35,0,0,0,3.48-6.24A6.43,6.43,0,0,0,330,82a72.3,72.3,0,0,0-12.3-4.3,116.2,116.2,0,0,1-13.27-4.34,23.26,23.26,0,0,1-8.87-6.44q-3.75-4.34-3.75-11.43a17.8,17.8,0,0,1,3.42-10.58A22.77,22.77,0,0,1,305,37.36a36.43,36.43,0,0,1,14.65-2.76q12.35,0,19.9,6.24t8.08,17h-15a10.65,10.65,0,0,0-3.94-7.76q-3.54-2.88-9.59-2.89T310,49.43a6.91,6.91,0,0,0-3.16,5.91A6.37,6.37,0,0,0,309,60.2a14.8,14.8,0,0,0,5.13,3.09c2,.74,5,1.69,8.93,2.82a98.83,98.83,0,0,1,13,4.29,24,24,0,0,1,8.74,6.38q3.67,4.2,3.81,11.16a18.82,18.82,0,0,1-3.41,11,22.71,22.71,0,0,1-9.66,7.62,40,40,0,0,1-29.94-.29Z" transform="translate(-2.02 -2.79)"/><path class="cls-2" d="M357.44,2.83A11.24,11.24,0,0,1,367.66,14.1v3.31h0V42.3a17.41,17.41,0,0,0,5,12.22l9.4,9.55V27.45A24.46,24.46,0,0,0,357.8,2.79h-1.14Z" transform="translate(-2.02 -2.79)"/><path class="cls-3" d="M343.17,17.41h24.49V14.1A11.22,11.22,0,0,0,356.53,2.79H321.74l9.4,9.56A16.9,16.9,0,0,0,343.17,17.41Z" transform="translate(-2.02 -2.79)"/></svg>
