<svg width="203" height="30" viewBox="0 0 203 30" fill="none" xmlns="http://www.w3.org/2000/svg">
<path d="M48.8553 12.5934H58.2415V9.73356H48.8553V3.26124H59.5547V0.301035H45.7427V22.3772H59.8465V19.4671H48.8553V12.5934Z" fill="white"/>
<path d="M70.935 6.3218C68.6006 6.3218 67.3361 7.32526 66.4607 8.52941H66.2662L65.9744 6.62284H63.1536V22.3772H66.2662V13.5467C66.2662 10.436 68.0656 9.08131 70.0596 9.08131C72.0049 9.08131 73.5612 10.3858 73.5612 13.2958V22.3772H76.6738V12.5934C76.6251 8.52941 74.3394 6.3218 70.935 6.3218Z" fill="white"/>
<path d="M87.3245 6.3218C83.1906 6.3218 79.8835 9.53287 79.8835 14.6505C79.8835 19.5173 83.0447 22.6782 87.4217 22.6782C91.0206 22.6782 93.5982 20.7716 94.2304 17.6107H91.2151C90.7288 19.2163 89.3184 20.019 87.3731 20.019C84.6983 20.019 83.0447 18.0623 82.8988 15.2526H94.1818C94.2304 14.8512 94.2304 14.5502 94.2304 14.199C94.3277 8.88062 91.0206 6.3218 87.3245 6.3218ZM82.9961 13.045C83.2879 10.737 84.9414 8.93079 87.3245 8.93079C89.6589 8.93079 91.2638 10.6367 91.3124 13.045H82.9961Z" fill="white"/>
<path d="M101.039 8.83045H100.845L100.553 6.62284H97.7321V22.3772H100.845V14.4498C100.845 11.7405 102.06 9.43252 104.978 9.43252C105.513 9.43252 106 9.4827 106.486 9.53287V6.3218H105.513C102.936 6.3218 101.866 7.32526 101.039 8.83045Z" fill="white"/>
<path d="M119.909 8.7301H119.666C118.936 7.67647 117.429 6.3218 114.851 6.3218C110.766 6.3218 107.751 9.58304 107.751 14.5502C107.751 19.6176 110.814 22.7284 114.851 22.7284C117.234 22.7284 118.79 21.6246 119.569 20.5709V22.5277C119.569 25.0865 117.72 26.391 115.435 26.391C113.198 26.391 111.69 25.4377 111.252 23.481H108.188C108.626 27.0934 111.301 29.0502 115.435 29.0502C119.666 29.0502 122.73 26.7422 122.73 22.4273V6.62284H120.201L119.909 8.7301ZM115.289 19.8685C112.663 19.8685 110.863 17.7111 110.863 14.5C110.863 11.2388 112.711 9.08131 115.289 9.08131C117.915 9.08131 119.617 11.2388 119.617 14.5C119.617 17.7111 117.915 19.8685 115.289 19.8685Z" fill="white"/>
<path d="M133.478 6.3218C129.344 6.3218 126.037 9.53287 126.037 14.6505C126.037 19.5173 129.198 22.6782 133.575 22.6782C137.174 22.6782 139.752 20.7716 140.384 17.6107H137.369C136.882 19.2163 135.472 20.019 133.526 20.019C130.852 20.019 129.198 18.0623 129.052 15.2526H140.335C140.384 14.8512 140.384 14.5502 140.384 14.199C140.432 8.88062 137.174 6.3218 133.478 6.3218ZM129.101 13.045C129.393 10.737 131.046 8.93079 133.429 8.93079C135.764 8.93079 137.369 10.6367 137.417 13.045H129.101Z" fill="white"/>
<path d="M148.36 2.30795H145.539V4.21453C145.539 5.92041 144.858 6.57266 143.059 6.57266H141.989V9.18166H145.296V18.564C145.296 20.3702 145.928 22.6782 149.478 22.6782C150.5 22.6782 151.278 22.4775 151.861 22.327V19.8183C151.424 19.9689 150.84 20.0692 150.354 20.0692C148.749 20.0692 148.36 19.1159 148.36 18.0623V9.18166H152.25V6.57266H148.36V2.30795Z" fill="white"/>
<path d="M161.102 6.3218C156.968 6.3218 153.661 9.53287 153.661 14.6505C153.661 19.5173 156.822 22.6782 161.199 22.6782C164.798 22.6782 167.375 20.7716 168.008 17.6107H164.992C164.506 19.2163 163.096 20.019 161.15 20.019C158.475 20.019 156.822 18.0623 156.676 15.2526H167.959C168.008 14.8512 168.008 14.5502 168.008 14.199C168.056 8.88062 164.798 6.3218 161.102 6.3218ZM156.725 13.045C157.016 10.737 158.67 8.93079 161.053 8.93079C163.387 8.93079 164.992 10.6367 165.041 13.045H156.725Z" fill="white"/>
<path d="M178.464 19.8685C175.595 19.8685 173.844 17.6107 173.844 14.5502C173.844 11.3893 175.789 9.08132 178.464 9.08132C180.604 9.08132 182.063 10.436 182.452 12.0917H185.564C185.029 8.27855 181.917 6.27163 178.464 6.27163C174.038 6.27163 170.78 9.68339 170.78 14.5502C170.78 19.1661 173.795 22.628 178.513 22.628C182.306 22.628 185.078 20.4706 185.613 17.0588H182.501C181.868 18.8149 180.555 19.8685 178.464 19.8685Z" fill="white"/>
<path d="M196.458 6.3218C194.124 6.3218 192.859 7.32526 191.984 8.52941H191.79V0H188.677V22.3772H191.79V13.5467C191.79 10.436 193.589 9.08132 195.583 9.08132C197.528 9.08132 199.085 10.3858 199.085 13.2958V22.3772H202.197V12.5934C202.197 8.52941 199.863 6.3218 196.458 6.3218Z" fill="white"/>
<path d="M25.7544 0.301025H14.7632C13.3042 0.301025 11.9425 1.05362 11.1157 2.25777L9.94849 4.01383H23.2741L25.7544 0.301025Z" fill="white"/>
<path d="M34.2166 4.01385L23.2741 4.01383L20.7451 7.67649H34.0707L35.2379 5.9706C35.8215 5.16783 35.2379 4.01385 34.2166 4.01385Z" fill="white"/>
<path d="M20.7451 7.67649L7.41933 7.67648L4.89038 11.3391H18.216L20.7451 7.67649Z" fill="white"/>
<path d="M15.7358 15.0519H29.0615L31.5418 11.3391L18.216 11.3391L15.7358 15.0519Z" fill="white"/>
<path d="M15.7358 15.0519L2.36099 15.0519L1.19378 16.7578C0.61018 17.6107 1.19378 18.7647 2.16646 18.7647H13.1577L15.7358 15.0519Z" fill="white"/>
<path d="M10.678 22.3772H21.6692C23.1282 22.3772 24.4899 21.6246 25.3167 20.4204L26.4839 18.7145H13.2069L10.678 22.3772Z" fill="white"/>
</svg>
