<svg version="1.1" id="Layer_1" xmlns="http://www.w3.org/2000/svg" x="0" y="0" width="100%" viewBox="0 0 1500 424" xml:space="preserve"><path fill="#000" opacity="1" stroke="none" d="M1501 242v183c-439.028 0-878.056 0-1317.887-.266 1.887-2.062 4.457-4.075 7.283-5.62 23.3-12.727 46.797-25.104 69.933-38.122 16.758-9.43 32.737-20.158 47.081-33.072 22.574-20.325 37.646-45.079 44.5-74.873 4.661-20.26 5.624-40.794 5.834-61.41.224-21.982.044-43.969.044-65.954 0-28.646-.023-57.293.036-85.939.009-4.359-.806-8.354-4.793-10.635-5.981-3.422-12.174-6.472-18.273-9.69-38.109-20.1-78.57-32.328-121.486-36.41-.814-.077-1.517-1.313-2.272-2.009h1290c0 67.028 0 134.056-.324 201.88-.79.007-1.485-.726-1.688-1.576-2.568-10.78-6.653-20.818-12.979-30.047-11.566-16.876-27.424-28.147-46.627-33.824-18.713-5.532-38.095-6.217-57.258-1.265-25.638 6.624-45.294 21.08-57.442 44.973-9.391 18.469-11.53 38.102-8.174 58.284 3.171 19.073 11.916 35.567 25.808 49.006 13.701 13.254 30.774 20.46 49.24 23.29 12.809 1.964 26.088 1.758 38.893-1.231 36.347-8.485 59.858-30.302 68.61-67.131.136-.574 1.272-.911 1.941-1.359M480.536 300.992c19.319 8.524 39.713 11.723 60.638 11.729 6.674.002 13.502-.591 19.987-2.092 11.458-2.651 23.14-5.16 33.942-9.628 16.784-6.943 31.396-17.636 43.764-31.07 1.686-1.83 2.984-4.807 3.002-7.264.207-28.328.132-56.657.132-84.986v-4.455H528.198v53.38h52.105c0 5.18.3 9.995-.149 14.74-.179 1.891-1.602 4.608-3.168 5.268-8.485 3.578-16.968 7.579-25.866 9.677-23.056 5.437-43.628-.85-59.727-17.753-17.973-18.871-22.07-42.175-15.665-67.043 5.27-20.46 17.473-35.552 37.639-43.312 18.373-7.07 36.621-7.311 53.28 4.084 7.99 5.465 14.496 13.1 22.363 20.392l49.978-26.069c-7.186-12.398-15.545-22.912-25.886-31.807-17.542-15.089-38.296-23.015-60.915-25.3-16.512-1.666-33.153-.715-49.473 3.498-28.49 7.355-52.481 21.537-69.825 45.696-21.958 30.584-26.457 64.672-19.317 100.884 3.398 17.234 10.788 32.829 21.482 46.563 11.872 15.246 27.182 26.506 45.482 34.868m253.86 9.827c13.32-2.647 25.236-8.102 35.726-18.684v15.585h54.847v-5.56c0-32.158.055-64.315-.049-96.472-.019-5.95-.312-11.946-1.1-17.837-3.258-24.371-16.638-40.778-39.863-48.712-22.39-7.648-45.224-7.662-68.17-2.61-16.688 3.673-31.941 10.463-45.25 21.282-1.038.843-2.103 3.248-1.639 4.1 6.035 11.074 12.344 21.997 18.77 33.285 13.383-11.447 28.723-17.368 45.843-18.312 10.223-.564 20.27.892 28.532 7.629 11.51 9.383 7.152 22.368 8.088 34.836-3.121-2.484-5.443-4.341-7.778-6.182a14.653 14.653 0 00-1.61-1.115c-18.4-10.866-38.17-13.251-58.87-9.236-17.207 3.338-30.574 12.186-38.21 28.348-4.586 9.702-5.368 20.153-4.559 30.756 1.008 13.196 5.925 24.771 15.624 33.732 16.76 15.485 36.766 19.617 59.667 15.167m459.574-49.19c-6.897-5.634-12.23-12.26-13.95-21.873h121.512c-.876-10.88-1.03-21.338-2.671-31.558-4.874-30.337-19.54-53.951-48.374-67.154-14.733-6.746-30.265-9.08-46.317-7.466-29.549 2.971-53.089 16.316-68.735 41.866-10.896 17.792-14.88 37.337-12.396 58.237 4.146 34.883 22.002 59.29 54.816 72.175 16.238 6.376 33.248 7.9 50.57 6.108 20.25-2.094 39.453-6.989 56.016-19.726 2.786-2.142 2.691-3.497 1.022-5.922-7.136-10.365-14.204-20.777-21.408-31.337-7.99 7.225-17.595 10.598-27.557 12.801-14.578 3.223-28.82 2.628-42.528-6.15m-291.4-106.13V73.241h-55.366v5.582c0 59.8-.022 119.6.038 179.4.006 5.443.049 10.968.932 16.313 2.538 15.37 10.415 27.234 25.15 33.165 11.177 4.498 22.944 5.662 35.154 4.471 9.828-.958 19.217-2.535 27.904-7.343 3.423-1.896 5.883-3.933 3.766-8.576-1.313-2.878-1.454-6.276-2.233-9.413-2.255-9.08-4.566-18.146-6.909-27.432-1.588.898-2.656 1.686-3.85 2.148-9.338 3.612-20.777 2.44-23.517-7.358-.827-2.96-1.061-6.169-1.068-9.264-.062-29.478-.016-58.956-.001-89.434m184.832-54.052V73.303h-55.316v5.191c0 60.496-.024 120.99.046 181.486.006 4.79.386 9.621 1.08 14.362 2.589 17.664 14.875 31.536 33.002 35.818 11.827 2.795 23.593 3.425 35.264 1.112 7.596-1.506 14.834-5.002 22.063-8.011 1.235-.514 2.564-3.287 2.25-4.648-2.97-12.906-6.286-25.733-9.617-39.037-1.724.872-2.971 1.577-4.275 2.152-11.075 4.885-21.677.92-23.79-9.072-.749-3.538-1.035-7.228-1.069-10.853-.122-13.234-.087-26.47-.041-39.704.114-33.224.266-66.448.403-100.65m-85.014 35.702h-47.961v170.553h54.215V137.15c-1.992 0-3.64 0-6.254.002m-47.358-28.716c9.294 15.623 30.777 20.22 46.558 8.217 15.21-11.57 15.124-37.543.287-49.34-12.594-10.013-29.732-9.075-40.468.12-11.976 10.259-14.481 26.174-6.377 41.003M952 225.26v5.034l.76-.015v-34.683l-.76-.008v29.672z"/><path fill="#FDFDFD" opacity="1" stroke="none" d="M210.531 1c1.224.696 1.927 1.932 2.74 2.01 42.918 4.08 83.378 16.31 121.487 36.41 6.099 3.217 12.292 6.267 18.273 9.689 3.987 2.28 4.802 6.276 4.793 10.635-.059 28.646-.036 57.293-.036 85.94 0 21.984.18 43.97-.044 65.953-.21 20.616-1.173 41.15-5.834 61.41-6.854 29.794-21.926 54.548-44.5 74.873-14.344 12.914-30.323 23.642-47.081 33.072-23.136 13.018-46.632 25.395-69.933 38.123-2.826 1.544-5.396 3.557-7.74 5.619-2.027.266-4.397.266-6.85.013-1.42-1.37-2.614-2.75-4.116-3.565-14.363-7.787-28.788-15.46-43.175-23.203-23.046-12.401-45.872-25.164-66.671-41.202-16.961-13.078-31.393-28.483-41.575-47.398-9.9-18.39-15.527-38.184-17.327-59.041-.071-.83-1.27-1.561-1.942-2.338 0-65.02 0-130.042.278-195.234 2.776-2.008 5.088-4.199 7.803-5.62 11.8-6.181 23.475-12.69 35.642-18.069C76.306 15.115 109.341 6.348 143.771 3.01c.8-.078 1.488-1.314 2.229-2.009h64.531M49.057 186.721c.382-.132.765-.265 2.058-.377 15.291-.028 30.583-.055 45.984.332.304-.153.607-.305 1.68-.696.418-1.057 1.04-2.08 1.224-3.176 1.925-11.455 6.568-21.71 13.318-31.111 7.502-10.45 16.77-19.172 28.051-25.048 7.576-3.946 16.27-5.746 24.722-8.594V67.023c-3.221.443-6.252.717-9.224 1.291-12.35 2.385-24 6.29-35.503 11.824-10.912 5.25-20.68 11.705-29.536 19.495-6.652 5.85-12.477 12.83-17.787 19.965-5.824 7.824-10.821 16.293-15.78 24.716-1.586 2.695-1.953 6.126-2.784 9.245-2.227 8.362-4.404 16.737-7.292 25.6.2 2.398.401 4.796.87 7.562m203.279 121.277c3.365-2.282 7.185-4.108 10.007-6.932 7.41-7.419 14.367-15.29 21.54-22.948 10.32-11.015 15.955-24.732 20.728-38.558 3.402-9.858 4.917-20.494 6.202-30.914.954-7.744.188-15.699.188-23.795h-6.155c-26.296 0-52.595-.2-78.886.165-5.43.076-7.796-1.625-10.202-6.352-3.88-7.623-9.511-14.076-18.107-16.805 0 0-.067.1.19-.676-4.406-1.45-8.717-3.568-13.237-4.21-9.765-1.384-19.184.615-27.485 5.962-6.261 4.035-11.082 9.258-14.888 16.202-5.616 10.247-6.725 20.349-3.715 31.075 6.773 24.128 35.624 38.91 60.118 25.06 9.709-5.49 16.093-12.826 19.933-22.647h40.524c-2.24 6.754-3.955 13.033-6.393 19.017-3.612 8.866-8.882 16.98-15.672 23.565-11.699 11.345-25.47 19.588-41.791 22.539-3.725.673-4.321 2.3-4.291 5.548.13 14.157.05 28.316.066 42.474.001 1.424.142 2.848.229 4.48 18.324-1.652 34.973-7.304 50.755-15.66 3.386-1.793 6.397-4.295 9.65-6.385 0 0-.035.105.692-.205M126.5 259.023c-13.418-11.847-22.212-26.438-25.749-44.026-.717-3.568-2.09-4.93-5.923-4.867-14.491.236-28.989.084-43.484.112-1.406.003-2.81.25-4.825.44 3.979 35.905 18.962 65.441 45.846 88.713 21.328 18.462 46.172 28.824 74.808 31.564 0-17.302.078-33.774-.158-50.24-.017-1.222-2.122-3.2-3.534-3.494-13.673-2.847-25.79-8.755-36.98-18.202M228.291 75.15c-11.958-4.494-24.117-8.042-37.12-8.573-.238 1.34-.45 1.975-.45 2.61-.027 15.486.051 30.972-.102 46.457-.034 3.414 1.751 4.017 4.482 4.617 22.591 4.966 40.152 17.184 52.295 36.93 1.61 2.618 3.445 3.527 6.453 3.502 15.652-.131 31.304-.049 46.957-.08 1.564-.004 3.128-.276 4.769-.431-6.04-26.503-31.156-66.398-77.284-85.032zM1501 241.531c-.67.917-1.805 1.254-1.941 1.828-8.752 36.829-32.263 58.646-68.61 67.13-12.805 2.99-26.084 3.196-38.893 1.232-18.466-2.83-35.539-10.036-49.24-23.29-13.892-13.439-22.637-29.933-25.808-49.006-3.356-20.182-1.217-39.815 8.174-58.284 12.148-23.893 31.804-38.35 57.442-44.973 19.163-4.952 38.545-4.267 57.258 1.265 19.203 5.677 35.06 16.948 46.627 33.824 6.326 9.229 10.41 19.267 12.98 30.047.202.85.896 1.583 1.687 2.033.324 12.35.324 25.038.324 38.194m-110.578-54.694c-3.549 3.117-7.807 5.72-10.515 9.448-8.252 11.363-9.408 24.421-6.787 37.781 1.771 9.028 5.94 17.28 13.5 22.73 7.51 5.411 16.045 7.887 25.766 6.538 10.61-1.472 18.972-5.929 24.92-14.766 6.828-10.145 8.256-21.341 6.858-33.321-3.309-28.36-31.583-40.486-53.742-28.41z"/><path fill="#000" opacity="1" stroke="none" d="M1 248.469c.673.308 1.87 1.04 1.942 1.869 1.8 20.857 7.428 40.651 17.327 59.04 10.182 18.916 24.614 34.32 41.575 47.399 20.799 16.038 43.625 28.8 66.67 41.202 14.388 7.743 28.813 15.416 43.176 23.203 1.502.815 2.696 2.195 3.672 3.565C117.072 425 59.145 425 1 425V248.469zM145.531 1c-.272.695-.96 1.931-1.76 2.009-34.43 3.34-67.465 12.106-99.048 26.068-12.167 5.379-23.841 11.888-35.642 18.069-2.715 1.421-5.027 3.612-7.803 5.151C1 35.038 1 18.077 1 1h144.531z"/><path fill="#FDFDFE" opacity="1" stroke="none" d="M480.175 300.86c-17.94-8.23-33.25-19.49-45.121-34.736-10.694-13.734-18.084-29.329-21.482-46.563-7.14-36.212-2.641-70.3 19.317-100.884 17.344-24.159 41.336-38.34 69.825-45.696 16.32-4.213 32.96-5.164 49.473-3.497 22.619 2.284 43.373 10.21 60.915 25.299 10.34 8.895 18.7 19.41 25.886 31.807l-49.978 26.07c-7.867-7.292-14.372-14.928-22.362-20.393-16.66-11.395-34.908-11.155-53.281-4.084-20.166 7.76-32.37 22.852-37.639 43.312-6.405 24.868-2.308 48.172 15.665 67.043 16.099 16.903 36.67 23.19 59.727 17.753 8.898-2.098 17.381-6.1 25.866-9.677 1.566-.66 2.99-3.377 3.168-5.269.45-4.744.149-9.559.149-14.74h-52.105v-53.38h113.803v4.456c0 28.329.075 56.658-.132 84.986-.018 2.457-1.316 5.433-3.002 7.264-12.368 13.434-26.98 24.127-43.764 31.07-10.803 4.468-22.484 6.977-33.942 9.628-6.485 1.5-13.313 2.094-19.987 2.092-20.925-.006-41.32-3.205-61-11.86z"/><path fill="#FDFDFD" opacity="1" stroke="none" d="M733.974 310.904c-22.48 4.365-42.485.233-59.246-15.252-9.7-8.96-14.616-20.536-15.624-33.732-.81-10.603-.027-21.054 4.558-30.756 7.637-16.162 21.004-25.01 38.21-28.348 20.701-4.015 40.47-1.63 58.87 9.236.562.331 1.1.712 1.611 1.115 2.335 1.841 4.657 3.698 7.778 6.182-.936-12.468 3.421-25.453-8.088-34.836-8.262-6.737-18.31-8.193-28.532-7.629-17.12.944-32.46 6.865-45.844 18.312-6.425-11.288-12.734-22.211-18.769-33.284-.464-.853.601-3.258 1.638-4.101 13.31-10.82 28.563-17.61 45.25-21.283 22.947-5.051 45.782-5.037 68.17 2.611 23.226 7.934 36.606 24.34 39.864 48.712.788 5.891 1.081 11.887 1.1 17.837.104 32.157.05 64.314.05 96.472v5.56h-54.848v-15.585c-10.49 10.582-22.406 16.037-36.148 18.769m35.981-61.494c-2.501-2.128-4.72-4.788-7.553-6.293-11.508-6.112-23.588-7.15-36.069-3.154-7.082 2.268-12.31 8.844-12.677 15.865-.426 8.147 3.39 13.801 11.311 17.121 12.793 5.363 25.493 3.631 37.596-2.701 4.919-2.573 8.634-6.06 7.553-12.513-.407-2.43-.07-4.983-.16-8.325zm424.333 12.41c13.389 8.588 27.63 9.183 42.21 5.96 9.961-2.203 19.567-5.576 27.556-12.801 7.204 10.56 14.272 20.972 21.408 31.337 1.67 2.425 1.764 3.78-1.022 5.922-16.563 12.737-35.767 17.632-56.015 19.726-17.323 1.791-34.333.268-50.57-6.108-32.815-12.885-50.67-37.292-54.817-72.175-2.484-20.9 1.5-40.445 12.396-58.237 15.646-25.55 39.186-38.895 68.735-41.866 16.052-1.614 31.584.72 46.317 7.466 28.835 13.203 43.5 36.817 48.374 67.154 1.641 10.22 1.795 20.678 2.67 31.558h-121.512c1.722 9.613 7.054 16.239 14.27 22.064m15.212-57.639h38.293c-3.414-20.213-19.01-28.831-36.824-28.172-16.314.604-29.296 12.384-31.47 28.179 9.688 0 19.344 0 30-.007z"/><path fill="#FCFCFC" opacity="1" stroke="none" d="M902.569 156c-.015 29.978-.06 59.456.001 88.934.007 3.095.24 6.303 1.068 9.264 2.74 9.797 14.18 10.97 23.516 7.358 1.195-.462 2.263-1.25 3.851-2.148 2.343 9.286 4.654 18.352 6.909 27.432.779 3.137.92 6.535 2.233 9.413 2.117 4.643-.343 6.68-3.766 8.576-8.687 4.808-18.076 6.385-27.904 7.343-12.21 1.191-23.977.027-35.153-4.471-14.736-5.931-22.613-17.795-25.151-33.165-.883-5.345-.926-10.87-.932-16.313-.06-59.8-.038-119.6-.038-179.4v-5.582h55.366v82.76z"/><path fill="#FDFEFE" opacity="1" stroke="none" d="M1087.401 101.937c-.137 33.714-.29 66.938-.403 100.162-.046 13.235-.081 26.47.041 39.704.034 3.625.32 7.315 1.069 10.853 2.113 9.992 12.715 13.957 23.79 9.072 1.304-.575 2.55-1.28 4.275-2.152 3.33 13.304 6.647 26.13 9.618 39.037.313 1.361-1.016 4.134-2.25 4.648-7.23 3.01-14.468 6.505-22.064 8.01-11.671 2.314-23.437 1.684-35.264-1.11-18.127-4.283-30.413-18.155-33.001-35.82-.695-4.74-1.075-9.57-1.08-14.361-.071-60.495-.047-120.99-.047-181.486v-5.191h55.316v28.634zm-84.531 35.213l5.771-.001v170.555h-54.215V137.151h48.444z"/><path fill="#FBFCFC" opacity="1" stroke="none" d="M954.849 108.108c-7.924-14.502-5.419-30.417 6.557-40.675 10.736-9.196 27.874-10.134 40.468-.12 14.837 11.796 14.923 37.77-.287 49.339-15.78 12.003-37.264 7.406-46.738-8.544z"/><path fill="gray" opacity="1" stroke="none" d="M952 224.787v-29.2l.76.008v34.683l-.76.015v-5.506z"/><path fill="#000101" opacity="1" stroke="none" d="M197.59 161.758c8.658 2.83 14.29 9.283 18.17 16.906 2.405 4.727 4.77 6.428 10.201 6.352 26.291-.366 52.59-.165 78.886-.165h6.155c0 8.096.766 16.051-.188 23.795-1.285 10.42-2.8 21.056-6.202 30.914-4.773 13.826-10.408 27.543-20.727 38.558-7.174 7.658-14.13 15.53-21.541 22.948-2.822 2.824-6.642 4.65-10.364 7.026-.358.095-.214.22-.214.22l-.19-.195c-3.184 2.176-6.195 4.678-9.581 6.471-15.782 8.356-32.431 14.008-50.755 15.66-.087-1.632-.228-3.056-.23-4.48-.016-14.158.066-28.317-.065-42.474-.03-3.248.566-4.875 4.29-5.548 16.321-2.95 30.093-11.194 41.792-22.54 6.79-6.584 12.06-14.698 15.672-23.564 2.438-5.984 4.153-12.263 6.393-19.017h-40.524c-3.84 9.82-10.224 17.158-19.933 22.647-24.494 13.85-53.345-.932-60.118-25.06-3.01-10.726-1.901-20.828 3.715-31.075 3.806-6.944 8.627-12.167 14.888-16.202 8.3-5.347 17.72-7.346 27.485-5.961 4.52.64 8.831 2.76 13.13 4.484-.107.275.079.375.079.375l-.225-.075z"/><path fill="#FC7604" opacity="1" stroke="none" d="M126.768 259.259c10.925 9.21 23.041 15.119 36.714 17.966 1.412.293 3.517 2.272 3.534 3.493.236 16.467.158 32.939.158 50.241-28.636-2.74-53.48-13.102-74.808-31.564-26.884-23.272-41.867-52.808-45.846-88.712 2.014-.192 3.42-.438 4.825-.441 14.495-.028 28.993.124 43.484-.112 3.832-.063 5.206 1.299 5.923 4.867 3.537 17.588 12.33 32.179 26.016 44.262z"/><path fill="#010101" opacity="1" stroke="none" d="M48.879 178.666c2.197-8.37 4.374-16.745 6.601-25.107.831-3.119 1.198-6.55 2.785-9.245 4.958-8.423 9.955-16.892 15.78-24.716 5.31-7.134 11.134-14.114 17.786-19.965 8.857-7.79 18.624-14.245 29.536-19.495 11.504-5.535 23.154-9.44 35.503-11.824 2.972-.574 6.003-.848 9.224-1.29v51.027c-8.452 2.848-17.146 4.648-24.722 8.594-11.282 5.876-20.549 14.599-28.051 25.048-6.75 9.402-11.393 19.656-13.318 31.111-.184 1.096-.806 2.119-1.695 2.875-2.056-.71-3.638-1.46-5.225-1.471-14.2-.092-28.4-.054-42.392-.054-.708-1.755-1.227-3.044-1.755-4.622-.025-.481-.04-.674-.057-.866z"/><path fill="#FC7604" opacity="1" stroke="none" d="M228.647 75.295c45.773 18.488 70.889 58.383 76.929 84.886-1.641.155-3.205.427-4.77.43-15.652.032-31.304-.05-46.956.08-3.008.026-4.843-.883-6.453-3.5-12.143-19.747-29.704-31.965-52.295-36.93-2.73-.601-4.516-1.204-4.482-4.618.153-15.485.075-30.971.102-46.457 0-.635.212-1.27.45-2.61 13.003.531 25.162 4.079 37.475 8.719z"/><path fill="#707779" opacity="1" stroke="none" d="M48.944 179.821l1.747 4.333c13.992 0 28.193-.038 42.392.054 1.587.01 3.17.762 4.84 1.59-.217.573-.52.725-.999.235-8.611-.823-17.047-1.066-25.485-1.166-7.42-.089-14.841-.019-22.257-.019l-.238-5.027z"/><path fill="#000" opacity="1" stroke="none" d="M48.936 179.532c.078 1.778.149 3.267.246 5.316 7.416 0 14.837-.07 22.257.019 8.438.1 16.874.343 25.43.959-15.171.463-30.463.49-46.566.371-1.045-.046-1.279.055-1.513.155-.2-2.397-.402-4.795-.257-7.44.362-.054.378.139.403.62z"/><path fill="#707779" opacity="1" stroke="none" d="M48.924 186.537c.1-.285.334-.386.924-.35-.026.27-.409.402-.924.35z"/><path fill="#000" opacity="1" stroke="none" d="M1390.705 186.583c21.876-11.822 50.15.304 53.46 28.664 1.397 11.98-.031 23.176-6.86 33.321-5.947 8.837-14.31 13.294-24.919 14.766-9.721 1.349-18.256-1.127-25.765-6.539-7.561-5.45-11.73-13.7-13.5-22.729-2.622-13.36-1.466-26.418 6.786-37.781 2.708-3.728 6.966-6.33 10.798-9.702z"/><path fill="#010101" opacity="1" stroke="none" d="M770 249.833c.045 2.92-.291 5.473.116 7.902 1.081 6.453-2.634 9.94-7.553 12.513-12.103 6.332-24.803 8.064-37.596 2.701-7.92-3.32-11.737-8.974-11.31-17.121.366-7.02 5.594-13.597 12.676-15.865 12.481-3.996 24.56-2.958 36.069 3.154 2.833 1.505 5.052 4.165 7.597 6.716z"/><path fill="#000" opacity="1" stroke="none" d="M1209 204.185c-10.157.003-19.813.003-29.5.003 2.173-15.795 15.155-27.575 31.47-28.179 17.814-.659 33.41 7.96 36.823 28.172-12.822 0-25.558 0-38.793.004z"/><path fill="#FDFDFD" opacity="1" stroke="none" d="M197.62 161.809c-.03-.051.194.024.194.024s-.186-.1-.208.013c-.02.112.046.013.015-.037zm53.991 146.351c-.034-.043.155.151.155.151s-.144-.124-.15-.064c-.006.06.03-.044-.005-.087z"/></svg>