<svg width="198" height="28" viewBox="0 0 198 28" fill="none" xmlns="http://www.w3.org/2000/svg">
<path d="M18.2489 4.1769L7.05606 23.9872H0L11.1921 4.1769H18.2489Z" fill="white"/>
<path d="M23.5948 0.610184H23.5954L23.5951 0.610803L30.6516 0.610184L22.7381 14.5761H15.7001L23.5948 0.610184ZM13.9672 17.642H13.9678L13.9675 17.6426L21.0009 17.642L15.4779 27.3898H8.45752L13.9672 17.642Z" fill="white"/>
<path d="M38.8061 4.1769L27.6132 23.9872H20.5571L31.7492 4.1769H38.8061Z" fill="white"/>
<path d="M66.5447 12.5548H57.1978V2.79501H54.1196V25.2048H57.1978V15.4829H66.5447V25.2048H69.6223V2.79501H66.5447V12.5548ZM95.8238 5.31001C95.4856 4.93465 94.6973 4.14633 94.2094 3.69587C93.4588 3.05776 92.7078 2.79501 91.6569 2.79501H80.9587V25.2048H91.6569C92.8958 25.2048 93.5712 24.9044 94.5098 24.0411C94.8853 23.7033 95.6736 22.8774 96.0864 22.3895C96.7245 21.6763 96.9871 20.9255 96.9871 19.8745V8.12532C96.9871 6.92409 96.7245 6.24843 95.8238 5.31001ZM93.9089 19.9496C93.9089 20.25 93.6085 20.6628 92.9709 21.3009C92.295 21.9766 91.9195 22.2769 91.6196 22.2769H84.0368V5.76047H91.6196C91.92 5.76047 92.3328 6.06088 92.9709 6.69889C93.6463 7.37455 93.9089 7.74991 93.9089 8.05022V19.9496ZM131.534 25.2048L126.88 15.7078C127.331 15.5952 127.743 15.4451 128.156 15.1448C128.644 14.807 129.695 13.7934 130.033 13.3054C130.483 12.6298 130.671 11.8415 130.671 11.0532V7.56226C130.671 6.77399 130.483 5.98572 130.033 5.31001C129.695 4.822 128.644 3.80853 128.156 3.47067C127.48 2.98271 126.73 2.79501 125.941 2.79501H115.318V25.2048H118.396V15.8204H123.614L128.081 25.2048H131.534ZM125.603 5.76047C126.054 5.76047 126.354 5.91067 126.88 6.43613C127.405 6.99919 127.593 7.2995 127.593 7.71241V10.903C127.593 11.3159 127.443 11.6162 126.88 12.1417C126.354 12.7048 126.054 12.8549 125.603 12.8549H118.397V5.76047H125.603ZM158.674 25.2048L151.054 2.79501H147.112L139.492 25.2048H142.758L144.409 20.2499H153.794L155.408 25.2048H158.674ZM149.102 6.02343L152.818 17.3219H145.348L149.102 6.02343ZM170.761 25.205V2.79501H167.683V25.2048L170.761 25.205ZM194.522 20.1374L185.776 2.79501H182.097V25.2048H185.175V8.01266L193.959 25.2048H197.6V2.79501H194.522V20.1374Z" fill="white"/>
</svg>
