<svg xmlns="http://www.w3.org/2000/svg" width="125" height="17.454" viewBox="0 0 125 17.454" fill="white">
<g id="Logo" transform="translate(0)"><path id="Logo-2" data-name="Logo" d="M10.876,0V7.029H3.23V0H0V17.1H3.23V10.045h7.646V17.1h3.23V0Z" transform="translate(0 0)"></path><path id="Path_2" data-name="Path 2" d="M125.8,17.1h3.23V4.274H125.8Zm0-14.6h3.23V0H125.8Z" transform="translate(-109.92)"></path><path id="Path_3" data-name="Path 3" d="M164.376,17.455a5.437,5.437,0,0,1-3.1-.89,5.988,5.988,0,0,1-2.072-2.422,7.822,7.822,0,0,1-.742-3.455,7.764,7.764,0,0,1,.754-3.485,5.9,5.9,0,0,1,2.119-2.4,5.794,5.794,0,0,1,3.206-.879,5.154,5.154,0,0,1,3.075.891,5.515,5.515,0,0,1,1.888,2.422,8.872,8.872,0,0,1,.641,3.455,8.8,8.8,0,0,1-.647,3.455,5.2,5.2,0,0,1-5.123,3.313m.522-2.873a2.805,2.805,0,0,0,1.728-.487,2.689,2.689,0,0,0,.932-1.365,6.626,6.626,0,0,0,.285-2.042,6.626,6.626,0,0,0-.285-2.042,2.754,2.754,0,0,0-.908-1.365,2.577,2.577,0,0,0-1.633-.487,2.851,2.851,0,0,0-1.775.528,3.1,3.1,0,0,0-1.027,1.413,5.511,5.511,0,0,0-.332,1.953,5.731,5.731,0,0,0,.321,1.965,3.07,3.07,0,0,0,.986,1.407,2.684,2.684,0,0,0,1.71.522m2.945,2.517V8.312h-.4V0h3.253V17.1Z" transform="translate(-138.457 -0.001)"></path><path id="Path_4" data-name="Path 4" d="M268.294,17.455a5.437,5.437,0,0,1-3.1-.89,5.988,5.988,0,0,1-2.072-2.422,7.822,7.822,0,0,1-.742-3.455,7.764,7.764,0,0,1,.754-3.485,5.9,5.9,0,0,1,2.119-2.4,5.794,5.794,0,0,1,3.206-.879,5.154,5.154,0,0,1,3.075.891,5.515,5.515,0,0,1,1.888,2.422,8.872,8.872,0,0,1,.641,3.455,8.8,8.8,0,0,1-.647,3.455,5.2,5.2,0,0,1-5.123,3.313m.522-2.873a2.805,2.805,0,0,0,1.728-.487,2.689,2.689,0,0,0,.932-1.365,6.627,6.627,0,0,0,.285-2.042,6.627,6.627,0,0,0-.285-2.042,2.754,2.754,0,0,0-.908-1.365,2.577,2.577,0,0,0-1.633-.487,2.851,2.851,0,0,0-1.775.528,3.1,3.1,0,0,0-1.027,1.413,5.511,5.511,0,0,0-.332,1.953,5.731,5.731,0,0,0,.321,1.965,3.07,3.07,0,0,0,.986,1.407,2.684,2.684,0,0,0,1.71.522m2.945,2.517V8.312h-.4V0h3.253V17.1Z" transform="translate(-229.255 -0.001)"></path><path id="Path_5" data-name="Path 5" d="M372.972,44.571a6.937,6.937,0,0,1-3.473-.849,6.121,6.121,0,0,1-2.351-2.339,6.773,6.773,0,0,1-.849-3.414,7.649,7.649,0,0,1,.831-3.657,6.049,6.049,0,0,1,2.292-2.416,6.493,6.493,0,0,1,3.36-.861,6.009,6.009,0,0,1,3.431.95,5.582,5.582,0,0,1,2.09,2.672,8.9,8.9,0,0,1,.475,4.049h-3.194V37.518a4.914,4.914,0,0,0-.623-2.82,2.343,2.343,0,0,0-2.036-.861,2.879,2.879,0,0,0-2.428,1,4.776,4.776,0,0,0-.778,2.962,4.361,4.361,0,0,0,.778,2.772,2.743,2.743,0,0,0,2.286.98,3.048,3.048,0,0,0,1.627-.416,2.652,2.652,0,0,0,1.033-1.2l3.23.926a5.682,5.682,0,0,1-2.286,2.731,6.329,6.329,0,0,1-3.414.974m-4.251-8.264h8.5v2.4h-8.5Z" transform="translate(-320.053 -27.117)"></path><path id="Path_6" data-name="Path 6" d="M472.559,44.05V31.227h2.873v4.251h.4V44.05Zm8.763,0V37.995q0-.439-.047-1.122a5.045,5.045,0,0,0-.3-1.371,2.617,2.617,0,0,0-.813-1.152,2.454,2.454,0,0,0-1.6-.463,3.369,3.369,0,0,0-.891.131,2.2,2.2,0,0,0-.891.5,2.707,2.707,0,0,0-.683,1.1,5.688,5.688,0,0,0-.267,1.923l-1.852-.879a6.684,6.684,0,0,1,.617-2.85,5.11,5.11,0,0,1,1.858-2.149,5.565,5.565,0,0,1,3.129-.819,5.176,5.176,0,0,1,2.458.511,4.051,4.051,0,0,1,1.478,1.294,5.389,5.389,0,0,1,.754,1.633,8.277,8.277,0,0,1,.273,1.549q.047.7.048,1.021v7.2Z" transform="translate(-412.897 -26.952)"></path><path id="Path_7" data-name="Path 7" d="M582.026,17.1V0h7.219q.249,0,.671.018A5.7,5.7,0,0,1,590.67.1a5.292,5.292,0,0,1,2.511,1.009,4.57,4.57,0,0,1,1.443,1.941,7.025,7.025,0,0,1,.463,2.606,6.242,6.242,0,0,1-1.069,3.675,4.758,4.758,0,0,1-3.348,1.882l-1.425.095h-3.989V17.1Zm3.23-8.81H589.1q.249,0,.546-.024a2.8,2.8,0,0,0,.546-.095,1.949,1.949,0,0,0,1.009-.6,2.382,2.382,0,0,0,.493-.938,3.842,3.842,0,0,0,.136-.98,3.842,3.842,0,0,0-.136-.979,2.382,2.382,0,0,0-.493-.938,1.951,1.951,0,0,0-1.009-.6,2.812,2.812,0,0,0-.546-.095q-.3-.024-.546-.024h-3.847Zm6.412,8.81L588.3,10.141,591.62,9.5l3.7,7.6Z" transform="translate(-508.544 -0.001)"></path><path id="Path_8" data-name="Path 8" d="M691.957,44.571a6.528,6.528,0,0,1-3.4-.867,6.015,6.015,0,0,1-2.274-2.392,7.344,7.344,0,0,1-.813-3.509,7.269,7.269,0,0,1,.831-3.532A6.058,6.058,0,0,1,688.6,31.89a7.07,7.07,0,0,1,6.762.012,6.047,6.047,0,0,1,2.286,2.392,7.922,7.922,0,0,1-.006,7.029,6.045,6.045,0,0,1-2.291,2.387,6.571,6.571,0,0,1-3.39.861m0-3.016a2.684,2.684,0,0,0,2.321-1.051,4.472,4.472,0,0,0,.766-2.7,4.4,4.4,0,0,0-.778-2.731,2.721,2.721,0,0,0-2.309-1.021,2.95,2.95,0,0,0-1.733.475,2.8,2.8,0,0,0-1,1.318,5.406,5.406,0,0,0-.326,1.959,4.39,4.39,0,0,0,.778,2.737,2.7,2.7,0,0,0,2.286,1.015" transform="translate(-598.931 -27.117)"></path><path id="Path_9" data-name="Path 9" d="M799.583,44.57a4.762,4.762,0,0,1-2.333-.528,3.609,3.609,0,0,1-1.448-1.413,3.944,3.944,0,0,1-.493-1.953,4.643,4.643,0,0,1,.273-1.627,3.327,3.327,0,0,1,.885-1.3,4.891,4.891,0,0,1,1.644-.944,11.973,11.973,0,0,1,1.7-.463q.986-.2,2.232-.386t2.743-.41l-1.164.641a2.254,2.254,0,0,0-.546-1.674,2.562,2.562,0,0,0-1.828-.534,3.64,3.64,0,0,0-1.484.344,1.987,1.987,0,0,0-1.08,1.223l-2.921-.926a4.954,4.954,0,0,1,1.828-2.588,6,6,0,0,1,3.657-1,8.135,8.135,0,0,1,3.016.522,3.765,3.765,0,0,1,1.995,1.8,3.83,3.83,0,0,1,.451,1.425q.071.712.071,1.591v7.836h-2.826V41.578l.4.546a6.1,6.1,0,0,1-2.025,1.87,5.835,5.835,0,0,1-2.748.576m.689-2.541a3.255,3.255,0,0,0,1.5-.315,3.344,3.344,0,0,0,.974-.718,3.129,3.129,0,0,0,.493-.677,3.26,3.26,0,0,0,.291-1.217q.041-.695.042-1.158l.95.237q-1.437.238-2.327.4t-1.437.291a8.454,8.454,0,0,0-.962.285,3.333,3.333,0,0,0-.766.41,1.462,1.462,0,0,0-.427.481,1.235,1.235,0,0,0-.137.582,1.282,1.282,0,0,0,.22.754,1.374,1.374,0,0,0,.623.481,2.518,2.518,0,0,0,.962.166" transform="translate(-694.898 -27.117)"></path><path id="Path_10" data-name="Path 10" d="M899.128,17.455a5.437,5.437,0,0,1-3.1-.89,5.988,5.988,0,0,1-2.072-2.422,7.821,7.821,0,0,1-.742-3.455,7.764,7.764,0,0,1,.754-3.485,5.9,5.9,0,0,1,2.119-2.4,5.794,5.794,0,0,1,3.206-.879,5.153,5.153,0,0,1,3.075.891,5.514,5.514,0,0,1,1.888,2.422,8.872,8.872,0,0,1,.641,3.455,8.8,8.8,0,0,1-.647,3.455,5.2,5.2,0,0,1-5.123,3.313m.522-2.873a2.8,2.8,0,0,0,1.727-.487,2.69,2.69,0,0,0,.932-1.365,6.625,6.625,0,0,0,.285-2.042,6.625,6.625,0,0,0-.285-2.042,2.755,2.755,0,0,0-.908-1.365,2.577,2.577,0,0,0-1.633-.487,2.851,2.851,0,0,0-1.775.528,3.1,3.1,0,0,0-1.027,1.413,5.511,5.511,0,0,0-.332,1.953,5.731,5.731,0,0,0,.321,1.965,3.069,3.069,0,0,0,.986,1.407,2.684,2.684,0,0,0,1.71.522m2.945,2.517V8.312h-.4V0h3.253V17.1Z" transform="translate(-780.445 -0.001)"></path></g></svg>
