<svg width="332" height="99" viewBox="0 0 332 99" fill="none" xmlns="http://www.w3.org/2000/svg"><path d="M49.49.102c-2.755 7.04-5.714 13.98-8.674 21.123l-4.081 9.387-4.184-9.387A465.058 465.058 0 0123.673.101H.715v1.837c2.551 0 4.592 2.143 4.592 4.694-.408 4.796-.816 9.694-1.224 14.49L2.55 35.917C1.837 42.96 1.021 50 0 57.041h7.347c.408-7.04 1.02-14.082 1.735-21.123l2.245-22.244c3.265 6.734 6.326 13.57 9.387 20.408l.817 1.836a654.853 654.853 0 018.877 21.123h2.245c2.755-7.04 5.714-14.082 8.776-21.123l1.326-3.06a732.32 732.32 0 019.184-20.409l2.347 23.47C55 42.958 55.612 50 56.02 57.04h16.837c-1.02-7.04-1.837-14.082-2.55-21.123l-1.531-14.796C68.06 14.082 67.449 7.041 67.04 0H49.49v.102zM125 51.327c1.837-3.572 3.878-7.143 5.919-10.51l20.408-34.082V5.306h-45v10.51h1.734c0-2.55 1.939-4.591 4.388-4.694 1.429 0 2.857-.102 4.184-.102h14.49a204.989 204.989 0 01-5.817 10.307l-20.51 34.285v1.429h48.572v-6.122c-3.47.306-6.837.408-10.307.408H125zm83.164 5.714h.408c-.306-3.47-.408-7.04-.408-10.51V33.673h20.102v12.858c0 3.571-.102 7.04-.408 10.51h15.51c-.306-3.47-.408-7.04-.408-10.51V15.918c0-3.571.102-7.04.408-10.612h-19.694V6.94h.408c2.245 0 3.98 1.734 4.082 3.98 0 1.632.102 3.367.102 5v12.14h-20.102V15.918c0-3.571.102-7.04.408-10.612h-19.694V6.94h.408c2.143 0 3.98 1.734 4.082 3.877.102 1.633.102 3.368.102 5v35.919c-2.041.306-4.184.408-6.225.408-2.245 0-4.49-.204-6.734-.51-6.225-1.225-7.143-7.041-7.143-10.613V15.714c0-3.47.204-6.836.408-10.306h-19.694v1.633h.408a4.055 4.055 0 014.082 3.877c.102 1.633.102 3.368.102 5V38.47c0 5.102 1.632 16.327 15.408 18.368a93.01 93.01 0 0013.163.918c7.041 0 13.98-.306 20.919-.714zm101.428-25.816c0 17.653-15.204 26.53-30.204 26.53s-30.204-8.98-30.204-26.53c0-17.654 15.204-26.531 30.204-26.531 15-.102 30.204 8.878 30.204 26.53zm-14.796 0c0-9.592-3.979-20.919-15.51-20.919-11.428 0-15.51 11.327-15.51 20.919 0 9.591 3.98 20.918 15.51 20.918 11.531-.102 15.51-11.327 15.51-20.919zM97.857 15.917c0-3.571.102-7.04.409-10.612H78.06v1.837h.408c2.654 0 4.694 2.143 4.694 4.796 0 1.326.102 2.653.102 3.98V46.53c0 3.571-.102 7.04-.408 10.51h15.51c-.306-3.47-.408-7.04-.408-10.51l-.102-30.613zM28.163 85.408c40.817-9.183 83.164-13.98 126.633-13.98 61.429 0 120.715 9.184 176.531 26.327a.561.561 0 01.306.51c0 .205-.306.409-.51.307a1217.493 1217.493 0 00-176.021-15.817c-42.245-.714-84.592.715-126.633 4.388-.408 0-.816-.204-.918-.612-.102-.51.204-1.02.612-1.123z" fill="#fff"/></svg>