<svg width="164" height="48" viewBox="0 0 164 48" fill="none" version="1.1" id="svg20" xmlns="http://www.w3.org/2000/svg"><path d="M22.1.049C15.303.595 9.058 4.012 4.886 9.464c-.428.563-1.451 2.079-1.451 2.153 0 .027 1.306.049 3.042.049 1.708 0 3.245.027 3.519.053 1.408.161 2.533.691 3.433 1.618.814.835 1.296 1.74 1.628 3.042.273 1.06.284 1.264.316 4.98l.032 3.509 1.093-4.633c.6-2.55 1.162-4.868 1.248-5.152.551-1.859 1.435-3.117 2.49-3.53.247-.096.418-.123.847-.123.482-.005.567.01.835.145.563.273.99.873 1.227 1.708.3 1.055.289.713.321 9.898.027 7.878.037 8.51.123 8.767.198.59.622.788.927.434.193-.23.503-.905.712-1.542.091-.279.975-3.851 1.96-7.932.986-4.087 1.864-7.665 1.95-7.954.712-2.389 1.96-3.647 3.513-3.545 1.093.075 1.725.932 2.046 2.774.08.45.097 1.35.124 7.953l.032 7.445.118.45c.316 1.2 1.028 1.928 2.046 2.094.23.038 1.88.054 4.954.043l4.606-.016.177-.509c.246-.712.573-1.928.76-2.812.541-2.613.632-5.441.268-8.13-.932-6.796-4.767-12.897-10.524-16.732C33.905 1.736 29.904.365 25.8.044c-.792-.06-2.908-.06-3.7.005z" fill="#FFF" id="path4"/><path d="M20.81 13.738c-.343.15-.707.766-1.06 1.8-.108.31-1.158 4.616-2.336 9.57-1.178 4.96-2.185 9.105-2.244 9.212-.06.113-.193.29-.3.391-.182.177-.22.188-.536.188-.326 0-.353-.01-.557-.209-.439-.428-.401.3-.434-8.816-.032-7.98-.032-8.125-.144-8.596-.327-1.414-1.007-2.383-2.014-2.86-.879-.412-1.087-.434-5.383-.434l-3.626-.005-.3.712A24.112 24.112 0 00.221 27.283c.932 6.796 4.767 12.897 10.525 16.731a24.915 24.915 0 005.945 2.85 24.2 24.2 0 0010.594.916c7.241-.997 13.658-5.27 17.407-11.606.198-.332.477-.847.627-1.141l.267-.536H41.42c-2.604 0-4.334-.021-4.617-.059-1.864-.23-3.134-1.392-3.69-3.38-.3-1.06-.29-.846-.327-9.04-.022-5.238-.054-7.643-.091-7.782-.156-.54-.236-.616-.515-.498-.401.166-.846.9-1.167 1.907-.086.278-.964 3.818-1.95 7.867-.985 4.044-1.89 7.648-2.008 8.002-.418 1.248-.921 2.148-1.51 2.694-.542.493-1.045.664-1.715.562-1.044-.16-1.719-.857-2.1-2.153-.272-.942-.262-.712-.3-9.769-.031-8.97-.026-8.73-.272-9.046-.123-.16-.129-.16-.348-.064z" fill="#FFF" id="path6"/><path d="M67.776 35.224c-.853 0-1.28-.448-1.28-1.344V20.536c0-.875.416-1.312 1.248-1.312.853 0 1.28.437 1.28 1.312v1.536c.47-.939 1.12-1.653 1.952-2.144.832-.512 1.803-.768 2.912-.768 2.432 0 3.99 1.056 4.672 3.168a5.31 5.31 0 012.08-2.304c.917-.576 1.973-.864 3.168-.864 3.456 0 5.184 2.048 5.184 6.144v8.576c0 .896-.437 1.344-1.312 1.344-.853 0-1.28-.448-1.28-1.344v-8.448c0-1.43-.256-2.475-.768-3.136-.49-.683-1.312-1.024-2.464-1.024-1.259 0-2.261.448-3.008 1.344-.747.896-1.12 2.09-1.12 3.584v7.68c0 .896-.437 1.344-1.312 1.344-.853 0-1.28-.448-1.28-1.344v-8.448c0-1.43-.256-2.475-.768-3.136-.49-.683-1.312-1.024-2.464-1.024-1.28 0-2.293.448-3.04 1.344-.725.896-1.088 2.09-1.088 3.584v7.68c0 .896-.437 1.344-1.312 1.344z" fill="#FFF" id="path8"/><path d="M99.982 35.288c-1.514 0-2.826-.33-3.936-.992-1.109-.661-1.973-1.59-2.592-2.784-.597-1.216-.896-2.645-.896-4.288 0-1.643.299-3.061.896-4.256.619-1.216 1.483-2.155 2.592-2.816 1.11-.661 2.422-.992 3.936-.992 1.494 0 2.795.33 3.904.992 1.131.661 1.995 1.6 2.592 2.816.619 1.195.928 2.613.928 4.256 0 1.643-.309 3.072-.928 4.288a6.535 6.535 0 01-2.592 2.784c-1.109.661-2.41.992-3.904.992zm0-2.08c1.451 0 2.614-.512 3.488-1.536.875-1.045 1.312-2.528 1.312-4.448 0-1.941-.437-3.424-1.312-4.448-.874-1.024-2.037-1.536-3.488-1.536-1.472 0-2.645.512-3.52 1.536-.853 1.024-1.28 2.507-1.28 4.448 0 1.92.427 3.403 1.28 4.448.875 1.024 2.048 1.536 3.52 1.536z" fill="#FFF" id="path10"/><path d="M117.063 35.288c-1.834 0-3.21-.48-4.128-1.44-.917-.981-1.376-2.39-1.376-4.224v-8.16h-2.144c-.746 0-1.12-.341-1.12-1.024 0-.661.374-.992 1.12-.992h2.144v-3.68c0-.875.438-1.312 1.312-1.312.854 0 1.28.437 1.28 1.312v3.68h4.032c.747 0 1.12.33 1.12.992 0 .683-.373 1.024-1.12 1.024h-4.032v7.904c0 1.216.256 2.144.768 2.784.512.619 1.344.928 2.496.928.406 0 .747-.043 1.024-.128a2.55 2.55 0 01.736-.128.523.523 0 01.48.192c.128.15.192.405.192.768 0 .256-.053.49-.16.704a.77.77 0 01-.48.448 6.31 6.31 0 01-1.024.224 5.461 5.461 0 01-1.12.128z" fill="#FFF" id="path12"/><path d="M123.158 15.704c-1.13 0-1.696-.533-1.696-1.6 0-1.045.566-1.568 1.696-1.568 1.131 0 1.696.523 1.696 1.568 0 1.067-.565 1.6-1.696 1.6zm0 19.456c-.853 0-1.28-.47-1.28-1.408V20.664c0-.917.427-1.376 1.28-1.376.875 0 1.312.459 1.312 1.376v13.088c0 .939-.437 1.408-1.312 1.408z" fill="#FFF" id="path14"/><path d="M135.46 35.288c-1.515 0-2.827-.33-3.936-.992-1.109-.661-1.973-1.59-2.592-2.784-.597-1.216-.896-2.645-.896-4.288 0-1.643.299-3.061.896-4.256.619-1.216 1.483-2.155 2.592-2.816s2.421-.992 3.936-.992c1.493 0 2.795.33 3.904.992 1.131.661 1.995 1.6 2.592 2.816.619 1.195.928 2.613.928 4.256 0 1.643-.309 3.072-.928 4.288a6.535 6.535 0 01-2.592 2.784c-1.109.661-2.411.992-3.904.992zm0-2.08c1.451 0 2.613-.512 3.488-1.536.875-1.045 1.312-2.528 1.312-4.448 0-1.941-.437-3.424-1.312-4.448-.875-1.024-2.037-1.536-3.488-1.536-1.472 0-2.645.512-3.52 1.536-.853 1.024-1.28 2.507-1.28 4.448 0 1.92.427 3.403 1.28 4.448.875 1.024 2.048 1.536 3.52 1.536z" fill="#FFF" id="path16"/><path d="M147.737 35.224c-.853 0-1.28-.448-1.28-1.344V20.536c0-.875.416-1.312 1.248-1.312.853 0 1.28.437 1.28 1.312v1.568c.512-.981 1.237-1.717 2.176-2.208.939-.49 1.995-.736 3.168-.736 3.691 0 5.536 2.048 5.536 6.144v8.576c0 .896-.427 1.344-1.28 1.344-.875 0-1.312-.448-1.312-1.344v-8.416c0-1.45-.288-2.507-.864-3.168-.555-.683-1.451-1.024-2.688-1.024-1.429 0-2.571.448-3.424 1.344-.832.875-1.248 2.048-1.248 3.52v7.744c0 .896-.437 1.344-1.312 1.344z" fill="#FFF" id="path18"/></svg>