<?xml version="1.0" encoding="UTF-8"?>
<svg xmlns="http://www.w3.org/2000/svg" id="Layer_2" viewBox="0 0 2105.89 842.17">
  <defs>
    <style>.cls-1,.cls-2{fill:#fff;}.cls-2{fill-rule:evenodd;}</style>
  </defs>
  <g id="Layer_1-2">
    <polygon class="cls-1" points="7.05 0 76.22 0 76.22 23.52 53.4 23.52 53.4 125.1 29.18 125.1 29.18 23.52 7.05 23.52 7.05 0"></polygon>
    <polygon class="cls-1" points="169.68 0 193.9 0 193.9 47.22 235.71 47.22 235.71 0 259.76 0 259.76 125.1 235.71 125.1 235.71 70.21 193.9 70.21 193.9 125.1 169.68 125.1 169.68 0"></polygon>
    <polygon class="cls-1" points="365.96 0 434.26 0 434.26 23.34 389.66 23.34 389.66 45.82 434.26 45.82 434.26 68.82 389.66 68.82 389.66 101.75 434.26 101.75 434.26 125.1 365.96 125.1 365.96 0"></polygon>
    <path class="cls-1" d="m592.71,735.88l-16.7,15.85c-11.35-11.96-24.1-17.94-38.3-17.94-11.96,0-22.08,4.09-30.26,12.25-8.21,8.16-12.31,18.21-12.31,30.17,0,8.33,1.83,15.74,5.46,22.19,3.63,6.47,8.78,11.55,15.39,15.24,6.65,3.69,14.03,5.52,22.16,5.52,6.92,0,13.24-1.27,18.97-3.87,5.74-2.58,12.05-7.29,18.9-14.08l16.18,16.9c-9.24,9.03-17.98,15.31-26.2,18.79-8.22,3.52-17.62,5.27-28.17,5.27-19.45,0-35.39-6.16-47.8-18.5-12.4-12.31-18.58-28.14-18.58-47.39,0-12.48,2.82-23.55,8.48-33.25,5.64-9.7,13.71-17.48,24.25-23.38,10.52-5.89,21.84-8.86,34.01-8.86,10.3,0,20.23,2.18,29.82,6.54,9.56,4.36,17.81,10.54,24.72,18.56"></path>
    <path class="cls-1" d="m749.65,734.14c-11.53,0-21.22,4.03-29.07,12.07-7.88,8.04-11.79,18.27-11.79,30.69,0,13.83,4.93,24.77,14.84,32.81,7.68,6.3,16.49,9.44,26.45,9.44,11.24,0,20.82-4.1,28.73-12.25,7.92-8.16,11.88-18.21,11.88-30.17s-3.98-21.98-11.97-30.23c-7.95-8.25-17.65-12.37-29.07-12.37m.35-23.36c17.68,0,32.9,6.42,45.62,19.23,12.75,12.81,19.1,28.43,19.1,46.84s-6.27,33.71-18.84,46.34c-12.55,12.64-27.79,18.97-45.71,18.97s-34.38-6.51-46.78-19.48c-12.43-12.98-18.65-28.4-18.65-46.27,0-11.92,2.9-22.94,8.68-32.99,5.77-10.01,13.73-17.97,23.84-23.83,10.14-5.87,21.06-8.81,32.73-8.81h.01Z"></path>
    <polygon class="cls-1" points="926.76 713.92 949.85 713.92 978.98 801.19 1008.25 713.92 1031.28 713.92 1052.24 839.03 1029.28 839.03 1015.92 760.01 989.43 839.03 968.41 839.03 942.04 760.01 928.42 839.03 905.19 839.03 926.76 713.92"></polygon>
    <path class="cls-1" d="m1172.51,762.88h7.64c6.01,0,10.16-.43,12.51-1.27,2.36-.87,4.19-2.27,5.55-4.24,1.33-1.98,2-4.37,2-7.18,0-4.86-1.89-8.39-5.66-10.6-2.73-1.66-7.84-2.5-15.28-2.5h-6.76v25.78h0Zm-23.71-48.96h25.3c13.68,0,23.52,1.25,29.56,3.77,6.04,2.53,10.83,6.63,14.32,12.26,3.49,5.64,5.23,12.4,5.23,20.3,0,8.74-2.29,16-6.88,21.78-4.56,5.78-10.78,9.82-18.65,12.08-4.62,1.3-13.01,1.94-25.17,1.94v52.97h-23.71v-125.1h0Z"></path>
    <path class="cls-1" d="m1374.25,747.17l-16.95,43.07h33.83l-16.87-43.07h-.01Zm-12.02-33.25h23.99l48.14,125.1h-24.77l-9.76-25.79h-51.29l-9.99,25.79h-24.76l48.44-125.1h0Z"></path>
    <polygon class="cls-1" points="1530.46 713.92 1553.05 713.92 1606.95 796.25 1606.95 713.92 1630.64 713.92 1630.64 839.03 1607.88 839.03 1554.16 756.96 1554.16 839.03 1530.46 839.03 1530.46 713.92"></polygon>
    <rect class="cls-1" x="1734.85" y="713.92" width="23.7" height="125.1"></rect>
    <polygon class="cls-1" points="1862.95 713.92 1931.25 713.92 1931.25 737.27 1886.65 737.27 1886.65 759.74 1931.25 759.74 1931.25 782.74 1886.65 782.74 1886.65 815.68 1931.25 815.68 1931.25 839.03 1862.95 839.03 1862.95 713.92"></polygon>
    <rect class="cls-1" x="548.18" y="43.55" width="1550.62" height="22.41"></rect>
    <rect class="cls-1" x="7.05" y="765.26" width="350.29" height="22.42"></rect>
    <path class="cls-2" d="m2088.78,219.35h-12.33l-.24,1.09c-1.59,7.13-4.4,14.19-9.61,19.59-3.23,3.07-7.08,4.68-11.54,4.68-4.21,0-11.63-3.79-15.39-5.79-24.61-12.45-50.87-19.58-78.53-19.58-33.67,0-65.22,8.26-94.26,25.38-29.37,17.31-51.71,41.55-67.69,71.58-16.77,31.5-24.61,65.58-24.61,101.19,0,43.45,11.47,83.66,37.4,118.83,34.88,47.3,83.34,67.93,141.36,67.93,30.87,0,60.99-6.38,87.48-22.72,27.77-17.13,48.59-43.61,64.44-71.72l.63-1.12-10.55-6.96-.78,1.07c-15.2,21.22-36.12,47.12-59.09,59.98-19.03,10.65-40.14,14.99-61.82,14.99-25.55,0-49.88-5.79-71.79-19.2-21.61-13.22-36.97-32.01-47.05-55.15-11.66-26.77-15.69-56.44-15.69-85.47,0-33.37,3.76-68.95,16.61-100.01,9.63-23.26,23.9-44.61,45.51-58.26,19.68-12.44,41.45-18.27,64.69-18.27,27.07,0,51.84,7.31,73.21,24.24,24.25,19.21,38.38,50.53,47.05,79.54l.29.99h10.78l-8.45-126.84h-.03Z"></path>
    <path class="cls-2" d="m1731.93,583.28h-14.53c-8.48,0-16.35-2.12-23.76-6.25-4.47-2.49-8.78-5.97-10.69-10.87-3.46-8.88-3.4-26.3-3.4-36.07v-236.55c0-9.99.32-32.77,6.41-40.59,7.62-9.78,19.6-12.6,31.44-12.6h14.53v-12.71h-159.37v12.71h14.34c8.58,0,16.63,2.16,24.19,6.28,4.41,2.53,8.53,6.02,10.45,10.85,3.47,8.72,3.4,26.41,3.4,36.06v236.55c0,9.93-.3,32.78-6.19,40.66-7.74,9.8-19.93,12.54-31.85,12.54h-14.34v12.7h159.37v-12.7h0Z"></path>
    <path class="cls-2" d="m1515.27,310.91h11.89l-3.99-83.28h-274v12.71h14.34c8.57,0,16.66,2.02,24.13,6.25,4.46,2.52,8.57,6.01,10.51,10.88,3.48,8.72,3.4,26.41,3.4,36.06v236.55c0,9.93-.3,32.78-6.2,40.66-7.73,9.8-19.93,12.54-31.84,12.54h-14.34v12.7h159.37v-12.7h-14.44c-8.53,0-16.5-2.09-23.95-6.25-4.47-2.49-8.7-5.98-10.59-10.87-3.46-8.87-3.4-26.3-3.4-36.07v-113.85h64.78c8.6,0,19.42.77,27.1,4.89,6.22,3.34,10.83,8.2,14.14,14.41,4.42,8.32,5.23,21.25,5.35,30.61l.02,1.37h12.68v-126.84h-12.55l-.14,1.23c-1.43,12.03-4.65,30.82-13.82,39.39-8.38,7.84-21.75,9.55-32.77,9.55h-64.78v-140.58h78.93c12.83,0,29.6.58,41.58,5.33,8.98,3.55,16.39,9.4,22.3,17.02,7.8,10.05,12.7,25.1,16.02,37.29l.28,1.02v-.02Z"></path>
    <path class="cls-2" d="m1207.58,583.28h-14.53c-8.49,0-16.35-2.12-23.77-6.25-4.48-2.49-8.78-5.97-10.69-10.87-3.46-8.88-3.4-26.3-3.4-36.07v-236.55c0-9.99.33-32.77,6.42-40.59,7.61-9.78,19.59-12.6,31.44-12.6h14.53v-12.71h-159.38v12.71h14.34c8.58,0,16.63,2.16,24.19,6.28,4.41,2.53,8.53,6.02,10.46,10.85,3.47,8.72,3.39,26.41,3.39,36.06v236.55c0,9.93-.3,32.78-6.2,40.66-7.73,9.8-19.93,12.54-31.84,12.54h-14.34v12.7h159.38v-12.7h0Z"></path>
    <path class="cls-2" d="m989.5,219.35h-12.33l-.25,1.09c-1.6,7.13-4.4,14.19-9.61,19.59-3.23,3.07-7.08,4.68-11.55,4.68-4.21,0-11.63-3.79-15.39-5.79-24.61-12.45-50.87-19.58-78.52-19.58-33.67,0-65.22,8.26-94.27,25.38-29.37,17.31-51.7,41.56-67.69,71.58-16.77,31.5-24.61,65.58-24.61,101.19,0,43.45,11.47,83.66,37.4,118.83,34.88,47.3,83.34,67.93,141.36,67.93,30.87,0,60.99-6.38,87.48-22.72,27.77-17.13,48.59-43.61,64.44-71.72l.63-1.12-10.56-6.96-.78,1.07c-15.21,21.22-36.13,47.12-59.1,59.98-19.02,10.65-40.14,14.99-61.82,14.99-25.56,0-49.88-5.79-71.78-19.2-21.62-13.22-36.99-32.01-47.06-55.15-11.66-26.77-15.69-56.44-15.69-85.47,0-33.37,3.76-68.95,16.62-100.01,9.63-23.26,23.89-44.61,45.5-58.26,19.69-12.44,41.46-18.27,64.69-18.27,27.07,0,51.84,7.31,73.21,24.24,24.25,19.21,38.37,50.53,47.05,79.54l.29.99h10.79l-8.45-126.84h0Z"></path>
    <path class="cls-2" d="m517.37,583.34v12.63h146.88v-12.61l-1.3-.09c-12.13-.74-24.72-3.68-34.09-11.88-11.43-9.98-21.6-33.03-27.48-47.09l-127.45-304.95h-10.94l-128.93,301.73c-6.77,15.85-17.63,40.31-30.09,52.11-5.99,5.68-20.76,8.7-28.88,10.11l-1.15.21v12.47h118.02v-12.6l-1.29-.1c-8.91-.65-26.54-2.35-33.53-7.87-4.34-3.44-7.46-7.89-7.46-13.62,0-9.36,5.39-22.61,9.08-31.25l24.08-56.42h139.78l21.25,51.17c4.21,10.12,10.64,26.08,10.64,36.96,0,5.88-2.58,10.44-7.12,14.08-6.58,5.29-20.42,6.53-28.69,6.95l-1.32.06h-.01Zm-4.19-131.85h-120.6l61.1-142.55,59.5,142.55Z"></path>
    <path class="cls-2" d="m0,227.62v12.71h15.18c11.31,0,22.5,2.63,30.3,11.39,6.6,7.42,6.91,31.85,6.91,41.8v236.55c0,9.31-.25,31.22-5.2,38.75-7.25,11.05-19.44,14.45-32.01,14.45H0v12.7h159.38v-12.7h-15.36c-11.12,0-22.28-2.61-29.78-11.32-6.89-7.51-7.24-31.74-7.24-41.88v-105.14l2.55.54c9.53,1.99,19.13,3.64,28.8,4.81,9.5,1.15,19.09,1.95,28.65,1.95,30.62,0,61.48-6.76,84.32-28.42,20.99-19.91,29.92-45.19,29.92-73.79,0-21.46-6.12-40.92-19.7-57.67-12.9-15.92-28.96-27.66-48.31-34.52-23.9-8.49-52.62-10.2-77.84-10.2H0Zm107,179v-149.31l1.64-.38c10.4-2.38,21.49-4.47,32.17-4.47,13.96,0,27.37,3,39.57,9.92,12.13,6.89,20.86,17.21,26.82,29.71,6.5,13.67,9.51,28.32,9.51,43.43,0,20.65-5.61,39.72-19.93,55.02-12.79,13.67-28.28,21.25-47.15,21.25-6.21,0-12.42-.63-18.58-1.36-7.48-.89-14.92-2.1-22.32-3.5l-1.72-.32h-.01Z"></path>
    <path class="cls-1" d="m2097.26,729.1l-17.66,15.58c-6.18-8.6-12.49-12.9-18.91-12.9-3.13,0-5.68.84-7.66,2.5-2.01,1.69-3,3.57-3,5.66s.7,4.1,2.13,5.96c1.94,2.5,7.78,7.83,17.51,16.05,9.09,7.61,14.61,12.4,16.55,14.38,4.82,4.89,8.25,9.52,10.29,13.96,2,4.48,3.02,9.33,3.02,14.58,0,10.28-3.54,18.74-10.66,25.44-7.08,6.68-16.35,10.01-27.79,10.01-8.91,0-16.67-2.17-23.29-6.53-6.63-4.38-12.32-11.23-17.02-20.59l20.07-12.08c6.04,11.04,12.98,16.56,20.82,16.56,4.1,0,7.55-1.19,10.34-3.57,2.78-2.37,4.18-5.14,4.18-8.24,0-2.83-1.04-5.66-3.17-8.51-2.09-2.83-6.74-7.18-13.91-13.01-13.65-11.1-22.45-19.66-26.42-25.7-3.98-6.04-5.99-12.05-5.99-18.06,0-8.7,3.31-16.13,9.91-22.31,6.62-6.21,14.78-9.31,24.48-9.31,6.25,0,12.19,1.45,17.83,4.32,5.66,2.91,11.76,8.16,18.35,15.83"></path>
  </g>
</svg>
