<?xml version="1.0" encoding="utf-8"?>
<!-- Generator: Adobe Illustrator 27.7.0, SVG Export Plug-In . SVG Version: 6.00 Build 0)  -->
<svg version="1.1" id="Ebene_1" xmlns="http://www.w3.org/2000/svg" xmlns:xlink="http://www.w3.org/1999/xlink" x="0px" y="0px"
	 viewBox="0 0 426.5 315.2" style="enable-background:new 0 0 426.5 315.2;" xml:space="preserve">
<style type="text/css">
	.st0{fill:#272727;}
	.st1{fill:#FFFFFF;}
	.st2{fill:url(#SVGID_1_);}
	.st3{fill:url(#SVGID_00000025428758097044011990000012232529980021271473_);}
</style>
<path class="st1" d="M358.6,220c-3.6,0-6.6,3-6.6,6.6l0,0c0.1,17.2-13.7,31.2-30.8,31.3C304,258,290,244.2,289.9,227
	c-0.1-17.2,13.7-31.2,30.8-31.3c11.5-0.1,22.1,6.2,27.5,16.2c0,0.2,0.2,0.3,0.2,0.5c3.6-3,8.3-4.4,12.9-3.8
	c-0.4-1.1-0.9-2.1-1.5-3.2c-11.6-21.5-38.4-29.5-59.9-18c-21.5,11.6-29.5,38.4-18,59.9c11.6,21.5,38.4,29.5,59.9,18
	c3.7-2,7-4.4,10-7.4V271c0,17-13.8,30.8-30.8,30.8c-13.4,0-25.2-8.6-29.3-21.4l-12.6,4.1c7.4,23.2,32.3,36,55.5,28.6
	c18.3-5.8,30.7-22.8,30.7-42v-44.5C365.2,222.9,362.3,220,358.6,220"/>
<path class="st1" d="M422.6,255.2c-2.5,2.3-5.7,3.6-9,3.6c-5.9,0-8.7-3.8-8.7-10.1v-52.8h17.3v-12.3h-17.3V167c0-3.7-3-6.6-6.6-6.6
	c-3.7,0-6.6,3-6.6,6.6v16.7h-14.1v12.2h14.1v54.6c0,12.8,6.3,20,19,20c7.8,0,12.6-2.3,15.9-5.4L422.6,255.2z"/>
<polygon class="st1" points="255,183.7 269.4,183.7 233.9,269.5 219.3,269.5 183.7,183.7 198.1,183.7 226.5,253.9 "/>
<linearGradient id="SVGID_1_" gradientUnits="userSpaceOnUse" x1="319.2346" y1="-124.8617" x2="45.6557" y2="-81.9331" gradientTransform="matrix(1 0 0 -1 -48.8502 31.0321)">
	<stop  offset="0.3507" style="stop-color:#EA526A"/>
	<stop  offset="0.6576" style="stop-color:#EF7855"/>
</linearGradient>
<path class="st2" d="M110.3,183.7c-20.3,0-36.8,16.4-36.9,36.7c0,20.3,16.4,36.8,36.7,36.9c20.3,0,36.8-16.4,36.9-36.7l0,0
	C147,200.2,130.6,183.7,110.3,183.7z M110.3,244.8c-13.5,0-24.4-10.9-24.4-24.4c0-13.5,10.9-24.4,24.4-24.4s24.4,10.9,24.4,24.4
	C134.6,233.8,123.7,244.7,110.3,244.8C110.3,244.8,110.3,244.8,110.3,244.8z M226.5,73.6c-27.1,0-49,22-49,49s22,49,49,49
	s49-22,49-49v0C275.6,95.5,253.6,73.6,226.5,73.6z M226.5,159.2c-20.3,0-36.7-16.4-36.7-36.7c0-20.3,16.4-36.7,36.7-36.7
	c20.3,0,36.7,16.4,36.7,36.7v0C263.3,142.7,246.9,159.1,226.5,159.2C226.6,159.2,226.6,159.2,226.5,159.2L226.5,159.2z M79.6,0
	C35.6,0,0,35.6,0,79.6s35.6,79.6,79.6,79.6s79.6-35.6,79.6-79.6C159.1,35.6,123.5,0,79.6,0z M79.6,147c-37.2,0-67.4-30.2-67.4-67.4
	c0-37.2,30.2-67.4,67.4-67.4c37.2,0,67.4,30.2,67.4,67.4l0,0C146.9,116.8,116.8,146.9,79.6,147L79.6,147z"/>
</svg>
