<svg width="140" height="35" viewBox="0 0 140 35" fill="none" xmlns="http://www.w3.org/2000/svg">
<path d="M9.71032 0.114858C7.43446 0.394858 5.33801 1.96 4.39754 4.07793C3.90931 5.18361 3.90931 5.19793 3.85907 8.97438C3.80878 12.7508 3.816 12.7005 3.33494 13.641C3.05494 14.2082 2.23647 15.0267 1.66215 15.3139C1.217 15.5364 0.606766 15.7375 0.240612 15.7733L0.0395508 15.7949V17.9487L0.240612 17.9702C1.41801 18.0923 2.7534 18.9969 3.30624 20.0523C3.82316 21.0431 3.80878 20.9067 3.85907 25.1641C3.90215 28.8687 3.90931 29.0267 4.06724 29.5436C4.77085 31.8985 6.47955 33.6862 8.72677 34.4185C9.21494 34.5764 9.7247 34.6769 10.4498 34.7487L10.8949 34.799V32.6379L10.5575 32.5949C9.24369 32.4298 8.3247 32.0062 7.4847 31.1662C6.86008 30.5487 6.50109 29.9887 6.21393 29.1846C6.056 28.7252 6.04878 28.6462 6.0057 24.8769C5.95547 20.641 5.9483 20.5692 5.45292 19.4852C5.03647 18.559 4.23955 17.5539 3.5647 17.0872L3.27032 16.879L3.47854 16.7354C4.23955 16.1898 5.19446 14.9692 5.51032 14.1292C5.95547 12.9375 5.96263 12.9159 6.0057 9.26154L6.04878 5.88717L6.24263 5.36308C6.52263 4.59486 6.83854 4.11385 7.456 3.51793C8.3534 2.66361 9.23647 2.29746 10.6293 2.2113L11.3975 2.16823V0.0359192L10.8088 0.0430807C10.4785 0.0502423 9.99032 0.0789961 9.71032 0.114858ZM34.6591 1.11284V2.18977H35.1832C35.8293 2.19693 36.6549 2.34053 37.1575 2.54154C38.3852 3.02977 39.4119 4.12823 39.8426 5.42053C39.9934 5.86563 40.0006 6.05231 40.0437 9.29746C40.0868 12.4995 40.1011 12.7436 40.2447 13.2821C40.5822 14.5169 41.3288 15.6872 42.3268 16.5272C42.5709 16.7354 42.7432 16.9077 42.7072 16.9077C42.578 16.9077 41.537 17.9415 41.2283 18.3795C40.8119 18.9539 40.4457 19.7436 40.2447 20.4615C40.0939 21.0072 40.0868 21.2154 40.0509 24.841L40.0078 28.6462L39.7924 29.2564C39.1462 31.1159 37.5811 32.3364 35.5062 32.5949L35.1616 32.6379V34.799L35.6139 34.7487C38.3206 34.4615 40.338 33.1046 41.4796 30.8C42.1472 29.4502 42.1472 29.479 42.1975 25.1282C42.2334 22.5149 42.2765 21.2226 42.3339 21C42.6068 19.9877 43.4396 18.9323 44.337 18.4656C44.8755 18.1856 45.4857 17.9846 45.816 17.9846H46.0385V15.759H45.816C45.4857 15.759 44.8755 15.5579 44.337 15.2779C43.7124 14.9477 42.9657 14.1795 42.6426 13.519C42.2406 12.6933 42.1975 12.2841 42.1975 9.01746C42.1975 7.25847 42.1688 5.92308 42.1185 5.66462C41.7165 3.43178 40.2878 1.58669 38.2345 0.653319C37.3514 0.251304 36.2672 0.0359192 35.1472 0.0359192H34.6591V1.11284ZM12.0437 8.75894C12.0437 8.85231 18.9934 15.2923 19.3739 15.5508C20.9247 16.599 22.8775 16.9221 24.7945 16.441C25.3329 16.3046 26.417 15.7733 26.898 15.4144C27.0991 15.2564 28.6785 13.8133 30.3945 12.1979C32.1175 10.5826 33.6611 9.13947 33.8262 8.99587L34.1206 8.73024L32.498 8.72308H30.8755L28.176 11.2287C26.6898 12.6143 25.3185 13.8277 25.1391 13.9354C23.9114 14.6533 22.5257 14.7179 21.2693 14.1077C20.6303 13.799 20.6447 13.8133 17.3422 10.7118L15.217 8.72308H13.6303C12.7545 8.72308 12.0437 8.7374 12.0437 8.75894ZM115.859 11.8462C114.337 12.1333 113.116 13.2246 112.599 14.7539C112.305 15.6441 112.255 16.1395 112.291 17.6831C112.312 18.8533 112.348 19.1836 112.47 19.6C112.959 21.2082 113.956 22.2852 115.392 22.7446C117.065 23.2902 119.858 22.8236 121.1 21.7969L121.352 21.5959L121.33 19.2841L121.308 16.9795H116.864V18.7744H118.738L118.716 19.6502L118.695 20.5262L118.264 20.7415C117.884 20.9354 117.762 20.9569 117.223 20.9569C115.995 20.9498 115.385 20.44 115.026 19.1262C114.926 18.7672 114.897 18.3723 114.897 17.3385C114.89 16.1323 114.904 15.9672 115.055 15.5149C115.292 14.8113 115.45 14.5241 115.759 14.2513C116.125 13.9354 116.462 13.8062 116.972 13.7918C117.848 13.7775 118.472 14.2298 118.716 15.0554L118.839 15.4718H121.366L121.308 15.1272C121.035 13.3898 120.03 12.2985 118.372 11.9252C117.625 11.7528 116.519 11.7169 115.859 11.8462ZM52.6652 12.1836C53.1319 12.9518 55.5515 17.2739 55.5515 17.3456C55.5515 17.4031 53.3472 21.3375 52.5862 22.6298L52.4498 22.8667H55.4794L56.3915 21.0359L57.3102 19.2052L58.2223 21.0359L59.1409 22.8667H62.1638L62.0777 22.7015C62.0271 22.6154 61.3308 21.3877 60.5269 19.9805C59.73 18.5662 59.0693 17.3815 59.0693 17.3456C59.0693 17.2954 61.6539 12.6933 62.0632 12.0041C62.0777 11.9754 61.41 11.9539 60.584 11.9539H59.0693L58.1932 13.7128C57.7054 14.682 57.2962 15.4718 57.2746 15.4718C57.2531 15.4718 56.8654 14.682 56.4131 13.7128L55.5871 11.9539H52.5216L52.6652 12.1836ZM62.8025 17.3672V22.7949H65.4592V18.9898H66.8662L67.7924 20.9282L68.7255 22.8595L70.1471 22.8667C71.0878 22.8667 71.5616 22.8379 71.5616 22.7877C71.5616 22.7518 71.0592 21.7395 70.4486 20.5549C69.8385 19.3631 69.3432 18.3866 69.3577 18.3795C69.3647 18.3723 69.5155 18.2862 69.6948 18.1856C70.09 17.9631 70.6355 17.3959 70.8293 17.0082C71.1239 16.4266 71.217 15.9313 71.1885 15.12C71.1669 14.4451 71.1379 14.3015 70.937 13.8708C70.664 13.2892 70.1832 12.801 69.5731 12.4779C68.7255 12.0256 68.5748 12.0041 65.5524 11.9682L62.8025 11.9395V17.3672ZM67.85 14.0789C68.3885 14.3518 68.6178 14.7539 68.6178 15.4143C68.6108 16.1826 68.2377 16.7354 67.6131 16.9077C67.4548 16.9508 66.9163 16.9723 66.4139 16.9651L65.4948 16.9436L65.4732 15.4502L65.4592 13.9641H66.5362C67.3902 13.9641 67.6702 13.9856 67.85 14.0789ZM72.7102 17.3672V22.7949H75.2948V19.2266L76.6447 19.1836C77.6425 19.1477 78.1308 19.1046 78.5471 18.9969C80.1339 18.5877 81.1247 17.5251 81.2469 16.1108C81.3185 15.2708 81.2324 14.6749 80.9379 14.0646C80.6363 13.4185 80.0908 12.8656 79.4232 12.5139C78.4394 12.0041 78.4254 12.0041 75.424 11.9682L72.7102 11.9466V17.3672ZM77.7286 14.1077C78.2671 14.3805 78.5255 14.8759 78.5255 15.6297C78.5255 16.1682 78.4394 16.4051 78.1163 16.7066C77.7502 17.0585 77.4777 17.1231 76.3362 17.1231H75.2948V13.9641H76.3717C77.3054 13.9641 77.4917 13.9856 77.7286 14.1077ZM86.1362 17.4102V22.8667H93.3155V20.8564L91.0394 20.8421L88.7563 20.8205L88.7348 16.3836L88.7208 11.9539H86.1362V17.4102ZM94.3208 17.4102V22.8667H101.859V20.8564H96.977V18.2H101.069V16.2615H96.97L96.9915 15.1272L97.0131 14L99.4394 13.9785L101.859 13.9641V11.9539H94.3208V17.4102ZM102.721 17.4031V22.8667H104.932C106.906 22.8667 107.208 22.8523 107.703 22.7231C108.55 22.5077 109.196 22.1344 109.872 21.4667C110.359 20.9856 110.51 20.7775 110.783 20.2102C111.221 19.3128 111.336 18.7313 111.336 17.4605C111.336 16.2831 111.192 15.5651 110.812 14.7323C110.195 13.4185 109.168 12.5569 107.71 12.1262C107.352 12.0256 106.885 11.9969 105.004 11.9754L102.721 11.9395V17.4031ZM107.064 14.1579C107.567 14.3231 108.112 14.8831 108.313 15.4287C108.543 16.0389 108.629 16.8287 108.586 17.8051C108.507 19.4349 108.069 20.2964 107.093 20.6913C106.863 20.7846 106.576 20.8205 106.059 20.8205H105.341L105.319 17.4246L105.305 14.0359H106.009C106.475 14.0359 106.835 14.0789 107.064 14.1579ZM122.823 17.4102V22.8667H130.29V20.8564L127.87 20.8421L125.444 20.8205V18.2359L127.512 18.2143L129.572 18.2V16.2615H125.479V13.9641H130.362V11.9539H122.823V17.4102ZM131.223 17.3672V22.7949H133.879V18.9897H135.279L136.192 20.9066L137.103 22.8308L138.539 22.8523C139.336 22.8595 139.982 22.8523 139.982 22.8308C139.982 22.8164 139.479 21.8256 138.869 20.641C138.259 19.4564 137.756 18.4656 137.756 18.4297C137.756 18.401 137.965 18.2359 138.216 18.0708C138.992 17.561 139.429 16.8215 139.566 15.7877C139.81 14 138.884 12.6359 137.075 12.1189C136.708 12.0185 136.213 11.9969 133.937 11.9682L131.223 11.9466V17.3672ZM136.127 14.0287C136.759 14.2728 137.125 15.0123 136.974 15.7446C136.873 16.24 136.658 16.5631 136.285 16.7785C136.026 16.9292 135.89 16.9436 134.942 16.9651L133.879 16.9939V13.9641H134.913C135.488 13.9641 136.033 13.9928 136.127 14.0287ZM21.8149 18.2C20.817 18.4082 19.7185 18.9251 19.0006 19.521C18.6703 19.801 13.178 24.9056 12.0437 25.9969C11.9575 26.0831 12.1657 26.0975 13.5585 26.0975H15.1739L17.8303 23.6133C19.2878 22.2492 20.6447 21.0215 20.8385 20.8995C21.4057 20.5333 21.9226 20.3466 22.5903 20.2677C23.3657 20.1672 24.1124 20.3036 24.8806 20.6841C25.4406 20.9569 25.577 21.0789 29.0949 24.3959L30.8898 26.0902L32.5052 26.0975H34.1206L33.8334 25.8175C32.5698 24.5682 27.0775 19.4923 26.7616 19.2769C26.1872 18.8892 25.4119 18.5159 24.8088 18.3364C24.4068 18.2215 24.0406 18.1785 23.2078 18.1569C22.6191 18.1497 21.9872 18.1641 21.8149 18.2Z" fill="white"/>
</svg>
