<svg xmlns="http://www.w3.org/2000/svg" viewBox="0 0 600 300" width="1400" height="700" font-family="-apple-system, BlinkMacSystemFont, 'Segoe UI', Helvetica, Arial, sans-serif" role="img">
<title>LTTB without gap detection</title>
<desc>LTTB connects across all gaps.</desc>
<style>
  .t { font-size: 12px; font-weight: 600; }
  .l { font-size: 11px; }
  .ref { stroke-width: 1.0; stroke-dasharray: 6 5; fill: none; }
  .bk { stroke-width: 0.8; stroke-dasharray: 2 3; }
  .t { fill: #0cc0df; }
  .l { fill: #64748b; }
  .ref { stroke: #bbb; }
  .bk { stroke: #5a9aa8; }
  .sep { stroke: #ccc; }
  @media (prefers-color-scheme: dark) {
    .t { fill: #0cc0df; }
    .l { fill: #b1b5d3; }
    .ref { stroke: #555; }
    .bk { stroke: #2a7a8a; }
    .sep { stroke: #3a3a3a; }
  }
</style>
<text class="t" x="10" y="35">LTTB without gap detection: connects across all gaps</text>
<polyline class="ref" points="10.0,150.0 18.5,141.0 27.1,132.0 35.6,123.0 44.1,114.0 52.6,69.0 61.2,87.0 69.7,114.0 78.2,132.0 86.8,141.0 95.3,150.0"/>
<polyline class="ref" points="129.4,164.4 137.9,171.6 146.5,177.0 155.0,189.6 163.5,204.0 172.1,195.0 180.6,186.0 189.1,177.0 197.6,168.0 206.2,159.0"/>
<polyline class="ref" points="419.4,159.0 427.9,150.0 436.5,141.0 445.0,135.6 453.5,132.0 462.1,123.0 470.6,114.0 479.1,105.0 487.6,114.0 496.2,141.0 504.7,168.0 513.2,195.0 521.8,213.0 530.3,195.0 538.8,168.0 547.4,141.0 555.9,132.0 564.4,128.4 572.9,132.0 581.5,135.6 590.0,141.0"/>
<polyline points="10.0,150.0 44.1,114.0 52.6,69.0 95.3,150.0 163.5,204.0 206.2,159.0 445.0,141.0 479.1,105.0 521.8,213.0 555.9,141.0 581.5,132.0 590.0,141.0" fill="none" stroke="#e289a4" stroke-width="2.0"/>
<circle cx="10.0" cy="150.0" r="4.5" fill="#888"/>
<circle cx="44.1" cy="114.0" r="4.5" fill="#888"/>
<circle cx="52.6" cy="69.0" r="4.5" fill="#888"/>
<circle cx="95.3" cy="150.0" r="4.5" fill="#888"/>
<circle cx="163.5" cy="204.0" r="4.5" fill="#888"/>
<circle cx="206.2" cy="159.0" r="4.5" fill="#888"/>
<circle cx="445.0" cy="141.0" r="4.5" fill="#888"/>
<circle cx="479.1" cy="105.0" r="4.5" fill="#888"/>
<circle cx="521.8" cy="213.0" r="4.5" fill="#888"/>
<circle cx="555.9" cy="141.0" r="4.5" fill="#888"/>
<circle cx="581.5" cy="132.0" r="4.5" fill="#888"/>
<circle cx="590.0" cy="141.0" r="4.5" fill="#888"/>
<line class="ref" x1="10" y1="275" x2="34" y2="275"/>
<text class="l" x="40" y="280">Raw data</text>
<circle cx="140" cy="275" r="3.5" fill="#888"/>
<text class="l" x="152" y="280">Selected points (12 of 42)</text>
</svg>