<svg xmlns="http://www.w3.org/2000/svg" viewBox="0 0 600 530" width="1400" height="1236" font-family="-apple-system, BlinkMacSystemFont, 'Segoe UI', Helvetica, Arial, sans-serif" role="img">
<title>LTTB gap handling</title>
<desc>Comparing LTTB with and without gap detection.</desc>
<style>
  .t { font-size: 12px; font-weight: 600; }
  .l { font-size: 11px; }
  .ref { stroke-width: 1.0; stroke-dasharray: 6 5; fill: none; }
  .bk { stroke-width: 0.8; stroke-dasharray: 6 5; }
  .t { fill: #0cc0df; }
  .l { fill: #64748b; }
  .ref { stroke: #bbb; }
  .bk { stroke: #aaa; }
  .sep { stroke: #ccc; }
  @media (prefers-color-scheme: dark) {
    .t { fill: #0cc0df; }
    .l { fill: #b1b5d3; }
    .ref { stroke: #555; }
    .bk { stroke: #4a4a4a; }
    .sep { stroke: #3a3a3a; }
  }
</style>
<text class="t" x="10" y="38">LTTB without gap detection: line connects across the gap</text>
<polyline class="ref" points="10.0,135.0 18.5,127.5 27.1,120.0 35.6,112.5 44.1,105.0 52.6,67.5 61.2,82.5 69.7,105.0 78.2,120.0 86.8,127.5 95.3,135.0 103.8,142.5 112.4,150.0 120.9,157.5 129.4,168.0 137.9,180.0 146.5,172.5 155.0,165.0 163.5,157.5 172.1,150.0 180.6,142.5 189.1,135.0 197.6,138.0 206.2,141.0"/>
<polyline class="ref" points="419.4,142.5 427.9,135.0 436.5,127.5 445.0,123.0 453.5,120.0 462.1,112.5 470.6,105.0 479.1,97.5 487.6,105.0 496.2,127.5 504.7,150.0 513.2,172.5 521.8,187.5 530.3,172.5 538.8,150.0 547.4,127.5 555.9,120.0 564.4,117.0 572.9,120.0 581.5,123.0 590.0,127.5"/>
<polyline points="10.0,135.0 44.1,105.0 52.6,67.5 112.4,150.0 137.9,180.0 206.2,141.0 445.0,172.5 479.1,127.5 513.2,120.0 521.8,117.0 564.4,123.0 590.0,127.5" fill="none" stroke="#e289a4" stroke-width="2.0"/>
<circle cx="10.0" cy="135.0" r="4.5" fill="#888"/>
<circle cx="44.1" cy="105.0" r="4.5" fill="#888"/>
<circle cx="52.6" cy="67.5" r="4.5" fill="#888"/>
<circle cx="112.4" cy="150.0" r="4.5" fill="#888"/>
<circle cx="137.9" cy="180.0" r="4.5" fill="#888"/>
<circle cx="206.2" cy="141.0" r="4.5" fill="#888"/>
<circle cx="445.0" cy="172.5" r="4.5" fill="#888"/>
<circle cx="479.1" cy="127.5" r="4.5" fill="#888"/>
<circle cx="513.2" cy="120.0" r="4.5" fill="#888"/>
<circle cx="521.8" cy="117.0" r="4.5" fill="#888"/>
<circle cx="564.4" cy="123.0" r="4.5" fill="#888"/>
<circle cx="590.0" cy="127.5" r="4.5" fill="#888"/>
<line class="sep" x1="10" y1="260" x2="590" y2="260"/>
<text class="t" x="10" y="288">LTTB with gap detection: each segment downsampled</text>
<polyline class="ref" points="10.0,375.0 18.5,367.5 27.1,360.0 35.6,352.5 44.1,345.0 52.6,307.5 61.2,322.5 69.7,345.0 78.2,360.0 86.8,367.5 95.3,375.0 103.8,382.5 112.4,390.0 120.9,397.5 129.4,408.0 137.9,420.0 146.5,412.5 155.0,405.0 163.5,397.5 172.1,390.0 180.6,382.5 189.1,375.0 197.6,378.0 206.2,381.0"/>
<polyline class="ref" points="419.4,382.5 427.9,375.0 436.5,367.5 445.0,363.0 453.5,360.0 462.1,352.5 470.6,345.0 479.1,337.5 487.6,345.0 496.2,367.5 504.7,390.0 513.2,412.5 521.8,427.5 530.3,412.5 538.8,390.0 547.4,367.5 555.9,360.0 564.4,357.0 572.9,360.0 581.5,363.0 590.0,367.5"/>
<polyline points="10.0,375.0 44.1,345.0 52.6,307.5 137.9,420.0 172.1,390.0 206.2,381.0" fill="none" stroke="#e289a4" stroke-width="2.0"/>
<polyline points="419.4,382.5 462.1,352.5 479.1,337.5 521.8,427.5 564.4,357.0 590.0,367.5" fill="none" stroke="#e289a4" stroke-width="2.0"/>
<circle cx="10.0" cy="375.0" r="4.5" fill="#888"/>
<circle cx="44.1" cy="345.0" r="4.5" fill="#888"/>
<circle cx="52.6" cy="307.5" r="4.5" fill="#888"/>
<circle cx="137.9" cy="420.0" r="4.5" fill="#888"/>
<circle cx="172.1" cy="390.0" r="4.5" fill="#888"/>
<circle cx="206.2" cy="381.0" r="4.5" fill="#888"/>
<circle cx="419.4" cy="382.5" r="4.5" fill="#888"/>
<circle cx="462.1" cy="352.5" r="4.5" fill="#888"/>
<circle cx="479.1" cy="337.5" r="4.5" fill="#888"/>
<circle cx="521.8" cy="427.5" r="4.5" fill="#888"/>
<circle cx="564.4" cy="357.0" r="4.5" fill="#888"/>
<circle cx="590.0" cy="367.5" r="4.5" fill="#888"/>
<line class="ref" x1="10" y1="510" x2="34" y2="510"/>
<text class="l" x="40" y="515">Raw data (45 points with gap)</text>
<circle cx="300" cy="510" r="3.5" fill="#888"/>
<text class="l" x="312" y="515">Selected points (12)</text>
</svg>