<svg xmlns="http://www.w3.org/2000/svg" viewBox="0 0 600 300" width="1400" height="700" font-family="-apple-system, BlinkMacSystemFont, 'Segoe UI', Helvetica, Arial, sans-serif" role="img">
<title>MinMax downsampling</title>
<desc>MinMax selects 8 points from 24.</desc>
<style>
  .t { font-size: 12px; font-weight: 600; }
  .l { font-size: 11px; }
  .ref { stroke-width: 1.0; stroke-dasharray: 6 5; fill: none; }
  .bk { stroke-width: 0.8; stroke-dasharray: 6 5; }
  .t { fill: #0cc0df; }
  .l { fill: #64748b; }
  .ref { stroke: #bbb; }
  .bk { stroke: #aaa; }
  .sep { stroke: #ccc; }
  @media (prefers-color-scheme: dark) {
    .t { fill: #0cc0df; }
    .l { fill: #b1b5d3; }
    .ref { stroke: #555; }
    .bk { stroke: #4a4a4a; }
    .sep { stroke: #3a3a3a; }
  }
</style>
<text class="t" x="10" y="35">MinMax: target 8, emitted 8 (4 time buckets)</text>
<line class="bk" x1="161.3" y1="60" x2="161.3" y2="240"/>
<line class="bk" x1="312.6" y1="60" x2="312.6" y2="240"/>
<line class="bk" x1="463.9" y1="60" x2="463.9" y2="240"/>
<polyline class="ref" points="10.0,150.0 35.2,141.0 60.4,132.0 85.7,123.0 110.9,114.0 136.1,69.0 161.3,87.0 186.5,114.0 211.7,132.0 237.0,141.0 262.2,150.0 287.4,159.0 312.6,168.0 337.8,177.0 363.0,189.6 388.3,204.0 413.5,195.0 438.7,186.0 463.9,177.0 489.1,168.0 514.3,159.0 539.6,150.0 564.8,153.6 590.0,157.2"/>
<polyline points="10.0,150.0 136.1,69.0 161.3,87.0 287.4,159.0 312.6,168.0 388.3,204.0 539.6,150.0 590.0,157.2" fill="none" stroke="#e289a4" stroke-width="2.0"/>
<circle cx="10.0" cy="150.0" r="4.5" fill="#888"/>
<circle cx="136.1" cy="69.0" r="4.5" fill="#888"/>
<circle cx="161.3" cy="87.0" r="4.5" fill="#888"/>
<circle cx="287.4" cy="159.0" r="4.5" fill="#888"/>
<circle cx="312.6" cy="168.0" r="4.5" fill="#888"/>
<circle cx="388.3" cy="204.0" r="4.5" fill="#888"/>
<circle cx="539.6" cy="150.0" r="4.5" fill="#888"/>
<circle cx="590.0" cy="157.2" r="4.5" fill="#888"/>
<line class="ref" x1="10" y1="275" x2="34" y2="275"/>
<text class="l" x="40" y="280">Raw data</text>
<circle cx="140" cy="275" r="3.5" fill="#888"/>
<text class="l" x="152" y="280">Selected points (8 of 24)</text>
<line class="bk" x1="360" y1="275" x2="384" y2="275"/>
<text class="l" x="390" y="280">Bucket boundary</text>
</svg>