<svg xmlns="http://www.w3.org/2000/svg" viewBox="0 0 600 260" width="1400" height="606" font-family="-apple-system, BlinkMacSystemFont, 'Segoe UI', Helvetica, Arial, sans-serif" role="img">
<title>Raw time series</title>
<desc>24 hourly data points with a spike and a trough.</desc>
<style>
  .t { font-size: 12px; font-weight: 600; }
  .l { font-size: 11px; }
  .ref { stroke-width: 1.0; stroke-dasharray: 6 5; fill: none; }
  .bk { stroke-width: 0.8; stroke-dasharray: 6 5; }
  .t { fill: #0cc0df; }
  .l { fill: #64748b; }
  .ref { stroke: #bbb; }
  .bk { stroke: #aaa; }
  .sep { stroke: #ccc; }
  @media (prefers-color-scheme: dark) {
    .t { fill: #0cc0df; }
    .l { fill: #b1b5d3; }
    .ref { stroke: #555; }
    .bk { stroke: #4a4a4a; }
    .sep { stroke: #3a3a3a; }
  }
</style>
<text class="t" x="10" y="35">Raw time series: 24 hourly bars</text>
<polyline points="10.0,127.5 35.2,120.2 60.4,113.0 85.7,105.8 110.9,98.5 136.1,62.3 161.3,76.8 186.5,98.5 211.7,113.0 237.0,120.2 262.2,127.5 287.4,134.8 312.6,142.0 337.8,149.2 363.0,159.4 388.3,171.0 413.5,163.8 438.7,156.5 463.9,149.2 489.1,142.0 514.3,134.8 539.6,127.5 564.8,130.4 590.0,133.3" fill="none" stroke="#888" stroke-width="1.5"/>
<circle cx="10.0" cy="127.5" r="3.5" fill="#888"/>
<circle cx="35.2" cy="120.2" r="3.5" fill="#888"/>
<circle cx="60.4" cy="113.0" r="3.5" fill="#888"/>
<circle cx="85.7" cy="105.8" r="3.5" fill="#888"/>
<circle cx="110.9" cy="98.5" r="3.5" fill="#888"/>
<circle cx="136.1" cy="62.3" r="3.5" fill="#888"/>
<circle cx="161.3" cy="76.8" r="3.5" fill="#888"/>
<circle cx="186.5" cy="98.5" r="3.5" fill="#888"/>
<circle cx="211.7" cy="113.0" r="3.5" fill="#888"/>
<circle cx="237.0" cy="120.2" r="3.5" fill="#888"/>
<circle cx="262.2" cy="127.5" r="3.5" fill="#888"/>
<circle cx="287.4" cy="134.8" r="3.5" fill="#888"/>
<circle cx="312.6" cy="142.0" r="3.5" fill="#888"/>
<circle cx="337.8" cy="149.2" r="3.5" fill="#888"/>
<circle cx="363.0" cy="159.4" r="3.5" fill="#888"/>
<circle cx="388.3" cy="171.0" r="3.5" fill="#888"/>
<circle cx="413.5" cy="163.8" r="3.5" fill="#888"/>
<circle cx="438.7" cy="156.5" r="3.5" fill="#888"/>
<circle cx="463.9" cy="149.2" r="3.5" fill="#888"/>
<circle cx="489.1" cy="142.0" r="3.5" fill="#888"/>
<circle cx="514.3" cy="134.8" r="3.5" fill="#888"/>
<circle cx="539.6" cy="127.5" r="3.5" fill="#888"/>
<circle cx="564.8" cy="130.4" r="3.5" fill="#888"/>
<circle cx="590.0" cy="133.3" r="3.5" fill="#888"/>
<circle cx="20" cy="240" r="3.5" fill="#888"/>
<text class="l" x="32" y="245">Hourly bars (24)</text>
</svg>