<svg version="1.1" viewBox="0.0 0.0 960.0 540.0" fill="none" stroke="none" stroke-linecap="square" stroke-miterlimit="10" xmlns:xlink="http://www.w3.org/1999/xlink" xmlns="http://www.w3.org/2000/svg"><clipPath id="g3577995f865_0_529.0"><path d="m0 0l960.0 0l0 540.0l-960.0 0l0 -540.0z" clip-rule="nonzero"/></clipPath><g clip-path="url(#g3577995f865_0_529.0)"><path fill="#20212a" d="m0 0l960.0 0l0 540.0l-960.0 0z" fill-rule="evenodd"/><path fill="#666666" d="m271.72702 82.89367l0 0c0 -35.404915 28.701355 -64.10627 64.10629 -64.10627l256.41736 0l0 0c17.002075 0 33.30774 6.754034 45.330017 18.776293c12.022217 12.022255 18.776245 28.327938 18.776245 45.329975l0 378.43314c0 35.404907 -28.701355 64.10623 -64.10626 64.10623l-256.41736 0c-35.404938 0 -64.10629 -28.701324 -64.10629 -64.10623z" fill-rule="evenodd"/><path stroke="#000000" stroke-width="3.0" stroke-linejoin="round" stroke-linecap="butt" d="m271.72702 82.89367l0 0c0 -35.404915 28.701355 -64.10627 64.10629 -64.10627l256.41736 0l0 0c17.002075 0 33.30774 6.754034 45.330017 18.776293c12.022217 12.022255 18.776245 28.327938 18.776245 45.329975l0 378.43314c0 35.404907 -28.701355 64.10623 -64.10626 64.10623l-256.41736 0c-35.404938 0 -64.10629 -28.701324 -64.10629 -64.10623z" fill-rule="evenodd"/><path fill="#ffffff" d="m368.61282 35.91586q2.734375 0 4.734375 1.03125q2.0 1.015625 3.0625 2.921875q1.078125 1.890625 1.078125 4.453125q0 2.5625 -1.078125 4.453125q-1.0625 1.890625 -3.0625 2.890625q-2.0 0.984375 -4.734375 0.984375l-5.21875 0l0 -16.734375l5.21875 0zm0 14.9375q3.234375 0 4.9375 -1.71875q1.703125 -1.71875 1.703125 -4.8125q0 -3.125 -1.71875 -4.875q-1.71875 -1.75 -4.921875 -1.75l-3.03125 0l0 13.15625l3.03125 0zm10.936707 -4.828125q0 -2.015625 0.8125 -3.53125q0.8125 -1.53125 2.234375 -2.375q1.4375 -0.84375 3.1875 -0.84375q1.734375 0 3.0 0.75q1.28125 0.75 1.90625 1.875l0 -2.40625l2.203125 0l0 13.15625l-2.203125 0l0 -2.453125q-0.65625 1.15625 -1.9375 1.921875q-1.28125 0.75 -2.984375 0.75q-1.75 0 -3.171875 -0.859375q-1.421875 -0.875 -2.234375 -2.421875q-0.8125 -1.5625 -0.8125 -3.5625zm11.140625 0.03125q0 -1.5 -0.609375 -2.59375q-0.59375 -1.109375 -1.625 -1.6875q-1.015625 -0.59375 -2.234375 -0.59375q-1.21875 0 -2.234375 0.578125q-1.0 0.578125 -1.609375 1.6875q-0.59375 1.09375 -0.59375 2.578125q0 1.515625 0.59375 2.640625q0.609375 1.109375 1.609375 1.703125q1.015625 0.578125 2.234375 0.578125q1.21875 0 2.234375 -0.578125q1.03125 -0.59375 1.625 -1.703125q0.609375 -1.125 0.609375 -2.609375zm8.567688 -4.765625l0 7.765625q0 0.953125 0.40625 1.359375q0.40625 0.390625 1.421875 0.390625l1.59375 0l0 1.84375l-1.96875 0q-1.8125 0 -2.734375 -0.84375q-0.90625 -0.84375 -0.90625 -2.75l0 -7.765625l-1.703125 0l0 -1.796875l1.703125 0l0 -3.3125l2.1875 0l0 3.3125l3.421875 0l0 1.796875l-3.421875 0zm5.2516174 4.734375q0 -2.015625 0.8125 -3.53125q0.8125 -1.53125 2.234375 -2.375q1.4375 -0.84375 3.1875 -0.84375q1.734375 0 3.0 0.75q1.28125 0.75 1.90625 1.875l0 -2.40625l2.203125 0l0 13.15625l-2.203125 0l0 -2.453125q-0.65625 1.15625 -1.9375 1.921875q-1.28125 0.75 -2.984375 0.75q-1.75 0 -3.171875 -0.859375q-1.421875 -0.875 -2.234375 -2.421875q-0.8125 -1.5625 -0.8125 -3.5625zm11.140625 0.03125q0 -1.5 -0.609375 -2.59375q-0.59375 -1.109375 -1.625 -1.6875q-1.015625 -0.59375 -2.234375 -0.59375q-1.21875 0 -2.234375 0.578125q-1.0 0.578125 -1.609375 1.6875q-0.59375 1.09375 -0.59375 2.578125q0 1.515625 0.59375 2.640625q0.609375 1.109375 1.609375 1.703125q1.015625 0.578125 2.234375 0.578125q1.21875 0 2.234375 -0.578125q1.03125 -0.59375 1.625 -1.703125q0.609375 -1.125 0.609375 -2.609375zm11.4913025 -1.78125q0 -2.453125 1.09375 -4.40625q1.109375 -1.953125 3.015625 -3.046875q1.921875 -1.109375 4.25 -1.109375q2.734375 0 4.765625 1.328125q2.046875 1.3125 2.984375 3.734375l-2.625 0q-0.6875 -1.515625 -2.0 -2.328125q-1.3125 -0.828125 -3.125 -0.828125q-1.765625 0 -3.15625 0.828125q-1.390625 0.8125 -2.1875 2.3125q-0.78125 1.5 -0.78125 3.515625q0 1.984375 0.78125 3.484375q0.796875 1.5 2.1875 2.328125q1.390625 0.8125 3.15625 0.8125q1.8125 0 3.125 -0.796875q1.3125 -0.8125 2.0 -2.328125l2.625 0q-0.9375 2.40625 -2.984375 3.71875q-2.03125 1.296875 -4.765625 1.296875q-2.328125 0 -4.25 -1.09375q-1.90625 -1.09375 -3.015625 -3.03125q-1.09375 -1.9375 -1.09375 -4.390625zm25.074799 8.59375q-1.84375 0 -3.34375 -0.84375q-1.5 -0.84375 -2.359375 -2.390625q-0.84375 -1.546875 -0.84375 -3.578125q0 -2.015625 0.875 -3.5625q0.875 -1.5625 2.390625 -2.390625q1.515625 -0.828125 3.390625 -0.828125q1.859375 0 3.375 0.828125q1.515625 0.828125 2.390625 2.375q0.875 1.53125 0.875 3.578125q0 2.03125 -0.90625 3.578125q-0.890625 1.546875 -2.4375 2.390625q-1.53125 0.84375 -3.40625 0.84375zm0 -1.921875q1.1875 0 2.21875 -0.546875q1.03125 -0.5625 1.65625 -1.65625q0.640625 -1.109375 0.640625 -2.6875q0 -1.59375 -0.625 -2.6875q-0.625 -1.109375 -1.640625 -1.640625q-1.0 -0.546875 -2.171875 -0.546875q-1.203125 0 -2.203125 0.546875q-0.984375 0.53125 -1.59375 1.640625q-0.59375 1.09375 -0.59375 2.6875q0 1.609375 0.578125 2.71875q0.59375 1.09375 1.578125 1.640625q0.984375 0.53125 2.15625 0.53125zm11.81308 -16.0625l0 17.765625l-2.1875 0l0 -17.765625l2.1875 0zm15.388367 4.609375l0 13.15625l-2.1875 0l0 -1.9375q-0.625 1.0 -1.75 1.5625q-1.109375 0.5625 -2.453125 0.5625q-1.53125 0 -2.765625 -0.625q-1.21875 -0.640625 -1.921875 -1.90625q-0.703125 -1.28125 -0.703125 -3.109375l0 -7.703125l2.15625 0l0 7.421875q0 1.9375 0.984375 2.984375q0.984375 1.046875 2.6875 1.046875q1.75 0 2.75 -1.078125q1.015625 -1.078125 1.015625 -3.140625l0 -7.234375l2.1875 0zm19.50058 -0.234375q1.546875 0 2.734375 0.640625q1.203125 0.625 1.890625 1.90625q0.703125 1.265625 0.703125 3.09375l0 7.75l-2.15625 0l0 -7.4375q0 -1.96875 -0.96875 -3.015625q-0.96875 -1.046875 -2.625 -1.046875q-1.703125 0 -2.71875 1.09375q-1.0 1.09375 -1.0 3.15625l0 7.25l-2.15625 0l0 -7.4375q0 -1.96875 -0.984375 -3.015625q-0.96875 -1.046875 -2.625 -1.046875q-1.703125 0 -2.71875 1.09375q-1.0 1.09375 -1.0 3.15625l0 7.25l-2.1875 0l0 -13.15625l2.1875 0l0 1.90625q0.65625 -1.03125 1.734375 -1.578125q1.09375 -0.5625 2.421875 -0.5625q1.65625 0 2.921875 0.75q1.28125 0.734375 1.90625 2.171875q0.546875 -1.390625 1.8125 -2.15625q1.28125 -0.765625 2.828125 -0.765625zm15.31366 0q2.40625 0 3.890625 1.453125q1.484375 1.453125 1.484375 4.1875l0 7.75l-2.15625 0l0 -7.4375q0 -1.96875 -0.984375 -3.015625q-0.984375 -1.046875 -2.6875 -1.046875q-1.71875 0 -2.75 1.078125q-1.015625 1.078125 -1.015625 3.15625l0 7.265625l-2.1875 0l0 -13.15625l2.1875 0l0 1.875q0.65625 -1.0 1.765625 -1.546875q1.109375 -0.5625 2.453125 -0.5625zm24.81482 -3.34375l0 1.78125l-7.265625 0l0 5.640625l5.90625 0l0 1.78125l-5.90625 0l0 7.53125l-2.1875 0l0 -16.734375l9.453125 0zm3.7678223 1.453125q-0.609375 0 -1.046875 -0.4375q-0.4375 -0.4375 -0.4375 -1.0625q0 -0.625 0.4375 -1.046875q0.4375 -0.4375 1.046875 -0.4375q0.609375 0 1.03125 0.4375q0.421875 0.421875 0.421875 1.046875q0 0.625 -0.421875 1.0625q-0.421875 0.4375 -1.03125 0.4375zm1.0625 2.125l0 13.15625l-2.1875 0l0 -13.15625l2.1875 0zm5.9039917 -4.609375l0 17.765625l-2.1875 0l0 -17.765625l2.1875 0zm15.716492 10.6875q0 0.625 -0.0625 1.3125l-10.515625 0q0.125 1.953125 1.328125 3.046875q1.21875 1.09375 2.9375 1.09375q1.421875 0 2.359375 -0.65625q0.953125 -0.671875 1.34375 -1.78125l2.34375 0q-0.515625 1.90625 -2.109375 3.09375q-1.578125 1.1875 -3.9375 1.1875q-1.875 0 -3.34375 -0.84375q-1.46875 -0.84375 -2.3125 -2.390625q-0.84375 -1.546875 -0.84375 -3.578125q0 -2.046875 0.8125 -3.578125q0.8125 -1.546875 2.28125 -2.375q1.484375 -0.828125 3.40625 -0.828125q1.875 0 3.3125 0.828125q1.4375 0.8125 2.21875 2.25q0.78125 1.421875 0.78125 3.21875zm-2.25 -0.453125q0 -1.25 -0.5625 -2.140625q-0.546875 -0.90625 -1.5 -1.375q-0.9375 -0.46875 -2.09375 -0.46875q-1.65625 0 -2.828125 1.0625q-1.15625 1.046875 -1.328125 2.921875l8.3125 0z" fill-rule="nonzero"/><path fill="#d14770" d="m312.53018 86.646095l0 0c0 -11.770714 9.542053 -21.31276 21.312775 -21.31276l260.39807 0c5.652527 0 11.073486 2.2454453 15.070435 6.242363c3.9968872 3.9969177 6.2423706 9.4179 6.2423706 15.070396l0 85.2485c0 11.770706 -9.542053 21.31276 -21.312805 21.31276l-260.39807 0c-11.770721 0 -21.312775 -9.542053 -21.312775 -21.31276z" fill-rule="evenodd"/><path stroke="#0d0d0d" stroke-width="3.0" stroke-linejoin="round" stroke-linecap="butt" d="m312.53018 86.646095l0 0c0 -11.770714 9.542053 -21.31276 21.312775 -21.31276l260.39807 0c5.652527 0 11.073486 2.2454453 15.070435 6.242363c3.9968872 3.9969177 6.2423706 9.4179 6.2423706 15.070396l0 85.2485c0 11.770706 -9.542053 21.31276 -21.312805 21.31276l-260.39807 0c-11.770721 0 -21.312775 -9.542053 -21.312775 -21.31276z" fill-rule="evenodd"/><path fill="#d14770" d="m312.53018 242.6461l0 0c0 -11.770721 9.542053 -21.312775 21.312775 -21.312775l260.39807 0c5.652527 0 11.073486 2.245453 15.070435 6.2423706c3.9968872 3.9969177 6.2423706 9.417908 6.2423706 15.070404l0 85.24849c0 11.770721 -9.542053 21.312744 -21.312805 21.312744l-260.39807 0c-11.770721 0 -21.312775 -9.542023 -21.312775 -21.312744z" fill-rule="evenodd"/><path stroke="#0d0d0d" stroke-width="3.0" stroke-linejoin="round" stroke-linecap="butt" d="m312.53018 242.6461l0 0c0 -11.770721 9.542053 -21.312775 21.312775 -21.312775l260.39807 0c5.652527 0 11.073486 2.245453 15.070435 6.2423706c3.9968872 3.9969177 6.2423706 9.417908 6.2423706 15.070404l0 85.24849c0 11.770721 -9.542053 21.312744 -21.312805 21.312744l-260.39807 0c-11.770721 0 -21.312775 -9.542023 -21.312775 -21.312744z" fill-rule="evenodd"/><path fill="#d14770" d="m312.53018 398.6461l0 0c0 -11.770691 9.542053 -21.312744 21.312775 -21.312744l260.39807 0c5.652527 0 11.073486 2.2454224 15.070435 6.24234c3.9968872 3.9969177 6.2423706 9.417908 6.2423706 15.070404l0 85.248505c0 11.770721 -9.542053 21.312744 -21.312805 21.312744l-260.39807 0c-11.770721 0 -21.312775 -9.542023 -21.312775 -21.312744z" fill-rule="evenodd"/><path stroke="#0d0d0d" stroke-width="3.0" stroke-linejoin="round" stroke-linecap="butt" d="m312.53018 398.6461l0 0c0 -11.770691 9.542053 -21.312744 21.312775 -21.312744l260.39807 0c5.652527 0 11.073486 2.2454224 15.070435 6.24234c3.9968872 3.9969177 6.2423706 9.417908 6.2423706 15.070404l0 85.248505c0 11.770721 -9.542053 21.312744 -21.312805 21.312744l-260.39807 0c-11.770721 0 -21.312775 -9.542023 -21.312775 -21.312744z" fill-rule="evenodd"/><path fill="#ffffff" d="m329.4908 420.65616l269.1024 0l0 41.228363l-269.1024 0z" fill-rule="evenodd"/><path fill="#000000" fill-opacity="0.0" d="m-23.274279 143.75853l314.96063 0l0 77.5748l-314.96063 0z" fill-rule="evenodd"/><path fill="#ffffff" d="m62.098534 175.79854l-3.984375 -6.84375l-2.640625 0l0 6.84375l-2.1875 0l0 -16.734375l5.40625 0q1.890625 0 3.203125 0.65625q1.3125 0.640625 1.953125 1.75q0.65625 1.109375 0.65625 2.515625q0 1.734375 -1.0 3.0625q-1.0 1.3125 -2.984375 1.734375l4.1875 7.015625l-2.609375 0zm-6.625 -8.59375l3.21875 0q1.78125 0 2.65625 -0.875q0.890625 -0.875 0.890625 -2.34375q0 -1.484375 -0.875 -2.296875q-0.875 -0.8125 -2.671875 -0.8125l-3.21875 0l0 6.328125zm24.404465 1.515625q0 0.625 -0.0625 1.3125l-10.515625 0q0.125 1.953125 1.328125 3.046875q1.21875 1.09375 2.9375 1.09375q1.421875 0 2.359375 -0.65625q0.953125 -0.671875 1.34375 -1.78125l2.34375 0q-0.515625 1.90625 -2.109375 3.09375q-1.578125 1.1875 -3.9375 1.1875q-1.875 0 -3.34375 -0.84375q-1.46875 -0.84375 -2.3125 -2.390625q-0.84375 -1.546875 -0.84375 -3.578125q0 -2.046875 0.8125 -3.578125q0.8125 -1.546875 2.28125 -2.375q1.484375 -0.828125 3.40625 -0.828125q1.875 0 3.3125 0.828125q1.4375 0.8125 2.21875 2.25q0.78125 1.421875 0.78125 3.21875zm-2.25 -0.453125q0 -1.25 -0.5625 -2.140625q-0.546875 -0.90625 -1.5 -1.375q-0.9375 -0.46875 -2.09375 -0.46875q-1.65625 0 -2.828125 1.0625q-1.15625 1.046875 -1.328125 2.921875l8.3125 0zm4.317459 0.90625q0 -2.015625 0.8125 -3.53125q0.8125 -1.53125 2.234375 -2.375q1.4375 -0.84375 3.1875 -0.84375q1.734375 0 3.0 0.75q1.28125 0.75 1.90625 1.875l0 -2.40625l2.203125 0l0 13.15625l-2.203125 0l0 -2.453125q-0.65625 1.15625 -1.9375 1.921875q-1.28125 0.75 -2.984375 0.75q-1.75 0 -3.171875 -0.859375q-1.421875 -0.875 -2.234375 -2.421875q-0.8125 -1.5625 -0.8125 -3.5625zm11.140625 0.03125q0 -1.5 -0.609375 -2.59375q-0.59375 -1.109375 -1.625 -1.6875q-1.015625 -0.59375 -2.234375 -0.59375q-1.21875 0 -2.234375 0.578125q-1.0 0.578125 -1.609375 1.6875q-0.59375 1.09375 -0.59375 2.578125q0 1.515625 0.59375 2.640625q0.609375 1.109375 1.609375 1.703125q1.015625 0.578125 2.234375 0.578125q1.21875 0 2.234375 -0.578125q1.03125 -0.59375 1.625 -1.703125q0.609375 -1.125 0.609375 -2.609375zm5.0833282 -0.03125q0 -2.015625 0.8125 -3.53125q0.8125 -1.53125 2.234375 -2.375q1.4375 -0.84375 3.21875 -0.84375q1.5312576 0 2.8437576 0.71875q1.328125 0.703125 2.03125 1.859375l0 -6.96875l2.203125 0l0 17.765625l-2.203125 0l0 -2.46875q-0.65625 1.171875 -1.9375 1.9375q-1.265625 0.75 -2.9687576 0.75q-1.75 0 -3.1875 -0.859375q-1.421875 -0.875 -2.234375 -2.421875q-0.8125 -1.5625 -0.8125 -3.5625zm11.140633 0.03125q0 -1.5 -0.609375 -2.59375q-0.59375 -1.109375 -1.625 -1.6875q-1.015625 -0.59375 -2.234375 -0.59375q-1.2187576 0 -2.2343826 0.578125q-1.0 0.578125 -1.609375 1.6875q-0.59375 1.09375 -0.59375 2.578125q0 1.515625 0.59375 2.640625q0.609375 1.109375 1.609375 1.703125q1.015625 0.578125 2.2343826 0.578125q1.21875 0 2.234375 -0.578125q1.03125 -0.59375 1.625 -1.703125q0.609375 -1.125 0.609375 -2.609375zm17.210052 4.578125l4.078125 -11.140625l2.328125 0l-5.171875 13.15625l-2.53125 0l-5.171875 -13.15625l2.359375 0l4.109375 11.140625zm7.7452087 -4.609375q0 -2.015625 0.8125 -3.53125q0.8125 -1.53125 2.234375 -2.375q1.4375 -0.84375 3.1875 -0.84375q1.734375 0 3.0 0.75q1.28125 0.75 1.90625 1.875l0 -2.40625l2.203125 0l0 13.15625l-2.203125 0l0 -2.453125q-0.65625 1.15625 -1.9375 1.921875q-1.28125 0.75 -2.984375 0.75q-1.75 0 -3.171875 -0.859375q-1.421875 -0.875 -2.234375 -2.421875q-0.8125 -1.5625 -0.8125 -3.5625zm11.140625 0.03125q0 -1.5 -0.609375 -2.59375q-0.59375 -1.109375 -1.625 -1.6875q-1.015625 -0.59375 -2.234375 -0.59375q-1.21875 0 -2.234375 0.578125q-1.0 0.578125 -1.609375 1.6875q-0.59375 1.09375 -0.59375 2.578125q0 1.515625 0.59375 2.640625q0.609375 1.109375 1.609375 1.703125q1.015625 0.578125 2.234375 0.578125q1.21875 0 2.234375 -0.578125q1.03125 -0.59375 1.625 -1.703125q0.609375 -1.125 0.609375 -2.609375zm8.083313 -11.171875l0 17.765625l-2.1875 0l0 -17.765625l2.1875 0zm15.388367 4.609375l0 13.15625l-2.1875 0l0 -1.9375q-0.625 1.0 -1.75 1.5625q-1.109375 0.5625 -2.453125 0.5625q-1.53125 0 -2.765625 -0.625q-1.21875 -0.640625 -1.921875 -1.90625q-0.703125 -1.28125 -0.703125 -3.109375l0 -7.703125l2.15625 0l0 7.421875q0 1.9375 0.984375 2.984375q0.984375 1.046875 2.6875 1.046875q1.75 0 2.75 -1.078125q1.015625 -1.078125 1.015625 -3.140625l0 -7.234375l2.1875 0zm15.68808 6.078125q0 0.625 -0.0625 1.3125l-10.515625 0q0.125 1.953125 1.328125 3.046875q1.21875 1.09375 2.9375 1.09375q1.421875 0 2.359375 -0.65625q0.953125 -0.671875 1.34375 -1.78125l2.34375 0q-0.515625 1.90625 -2.109375 3.09375q-1.578125 1.1875 -3.9375 1.1875q-1.875 0 -3.34375 -0.84375q-1.46875 -0.84375 -2.3125 -2.390625q-0.84375 -1.546875 -0.84375 -3.578125q0 -2.046875 0.8125 -3.578125q0.8125 -1.546875 2.28125 -2.375q1.484375 -0.828125 3.40625 -0.828125q1.875 0 3.3125 0.828125q1.4375 0.8125 2.21875 2.25q0.78125 1.421875 0.78125 3.21875zm-2.25 -0.453125q0 -1.25 -0.5625 -2.140625q-0.546875 -0.90625 -1.5 -1.375q-0.9375 -0.46875 -2.09375 -0.46875q-1.65625 0 -2.828125 1.0625q-1.15625 1.046875 -1.328125 2.921875l8.3125 0zm10.725433 0.90625q0 -2.015625 0.8125 -3.53125q0.8125 -1.53125 2.234375 -2.375q1.4375 -0.84375 3.1875 -0.84375q1.734375 0 3.0 0.75q1.28125 0.75 1.90625 1.875l0 -2.40625l2.203125 0l0 13.15625l-2.203125 0l0 -2.453125q-0.65625 1.15625 -1.9375 1.921875q-1.28125 0.75 -2.984375 0.75q-1.75 0 -3.171875 -0.859375q-1.421875 -0.875 -2.234375 -2.421875q-0.8125 -1.5625 -0.8125 -3.5625zm11.140625 0.03125q0 -1.5 -0.609375 -2.59375q-0.59375 -1.109375 -1.625 -1.6875q-1.015625 -0.59375 -2.234375 -0.59375q-1.21875 0 -2.234375 0.578125q-1.0 0.578125 -1.609375 1.6875q-0.59375 1.09375 -0.59375 2.578125q0 1.515625 0.59375 2.640625q0.609375 1.109375 1.609375 1.703125q1.015625 0.578125 2.234375 0.578125q1.21875 0 2.234375 -0.578125q1.03125 -0.59375 1.625 -1.703125q0.609375 -1.125 0.609375 -2.609375zm8.567688 -4.765625l0 7.765625q0 0.953125 0.40625 1.359375q0.40625 0.390625 1.421875 0.390625l1.59375 0l0 1.84375l-1.96875 0q-1.8125 0 -2.734375 -0.84375q-0.90625 -0.84375 -0.90625 -2.75l0 -7.765625l-1.703125 0l0 -1.796875l1.703125 0l0 -3.3125l2.1875 0l0 3.3125l3.421875 0l0 1.796875l-3.421875 0z" fill-rule="nonzero"/><path fill="#ffffff" d="m104.60139 193.58292q0.5781326 -1.125 1.6406326 -1.75q1.078125 -0.625 2.609375 -0.625l0 2.25l-0.578125 0q-3.6718826 0 -3.6718826 3.984375l0 7.15625l-2.1875 0l0 -13.15625l2.1875 0l0 2.140625zm12.498848 11.234375q-1.84375 0 -3.34375 -0.84375q-1.5 -0.84375 -2.359375 -2.390625q-0.84375 -1.546875 -0.84375 -3.578125q0 -2.015625 0.875 -3.5625q0.875 -1.5625 2.390625 -2.390625q1.515625 -0.828125 3.390625 -0.828125q1.859375 0 3.375 0.828125q1.515625 0.828125 2.390625 2.375q0.875 1.53125 0.875 3.578125q0 2.03125 -0.90625 3.578125q-0.890625 1.546875 -2.4375 2.390625q-1.53125 0.84375 -3.40625 0.84375zm0 -1.921875q1.1875 0 2.21875 -0.546875q1.03125 -0.5625 1.65625 -1.65625q0.640625 -1.109375 0.640625 -2.6875q0 -1.59375 -0.625 -2.6875q-0.625 -1.109375 -1.640625 -1.640625q-1.0 -0.546875 -2.171875 -0.546875q-1.203125 0 -2.203125 0.546875q-0.984375 0.53125 -1.59375 1.640625q-0.59375 1.09375 -0.59375 2.6875q0 1.609375 0.578125 2.71875q0.59375 1.09375 1.578125 1.640625q0.984375 0.53125 2.15625 0.53125zm27.15683 -11.453125l-4.109375 13.15625l-2.25 0l-3.171875 -10.4375l-3.171875 10.4375l-2.25 0l-4.140625 -13.15625l2.234375 0l3.03125 11.046875l3.265625 -11.046875l2.234375 0l3.1875 11.0625l2.96875 -11.0625l2.171875 0zm21.712921 13.15625l-2.1875 0l-8.78125 -13.3125l0 13.3125l-2.1875 0l0 -16.75l2.1875 0l8.78125 13.296875l0 -13.296875l2.1875 0l0 16.75z" fill-rule="nonzero"/><path fill="#000000" fill-opacity="0.0" d="m-23.274279 387.9475l314.96063 0l0 106.64566l-314.96063 0z" fill-rule="evenodd"/><path fill="#ffffff" d="m116.62538 408.1594q0 2.078125 -1.4375 3.46875q-1.421875 1.375 -4.34375 1.375l-3.21875 0l0 6.984375l-2.1875 0l0 -16.734375l5.40625 0q2.828125 0 4.296875 1.375q1.484375 1.375 1.484375 3.53125zm-5.78125 3.046875q1.828125 0 2.6875 -0.796875q0.859375 -0.796875 0.859375 -2.25q0 -3.09375 -3.546875 -3.09375l-3.21875 0l0 6.140625l3.21875 0zm7.6772156 2.15625q0 -2.015625 0.8125 -3.53125q0.8125 -1.53125 2.234375 -2.375q1.4375 -0.84375 3.1875 -0.84375q1.734375 0 3.0 0.75q1.28125 0.75 1.90625 1.875l0 -2.40625l2.203125 0l0 13.15625l-2.203125 0l0 -2.453125q-0.65625 1.15625 -1.9375 1.921875q-1.28125 0.75 -2.984375 0.75q-1.75 0 -3.171875 -0.859375q-1.421875 -0.875 -2.234375 -2.421875q-0.8125 -1.5625 -0.8125 -3.5625zm11.140625 0.03125q0 -1.5 -0.609375 -2.59375q-0.59375 -1.109375 -1.625 -1.6875q-1.015625 -0.59375 -2.234375 -0.59375q-1.21875 0 -2.234375 0.578125q-1.0 0.578125 -1.609375 1.6875q-0.59375 1.09375 -0.59375 2.578125q0 1.515625 0.59375 2.640625q0.609375 1.109375 1.609375 1.703125q1.015625 0.578125 2.234375 0.578125q1.21875 0 2.234375 -0.578125q1.03125 -0.59375 1.625 -1.703125q0.609375 -1.125 0.609375 -2.609375zm11.317688 -6.78125q1.703125 0 2.984375 0.75q1.296875 0.75 1.921875 1.875l0 -2.40625l2.203125 0l0 13.4375q0 1.8125 -0.765625 3.203125q-0.765625 1.40625 -2.203125 2.203125q-1.421875 0.796875 -3.3125 0.796875q-2.59375 0 -4.328125 -1.234375q-1.71875 -1.21875 -2.03125 -3.328125l2.15625 0q0.359375 1.203125 1.484375 1.921875q1.125 0.734375 2.71875 0.734375q1.796875 0 2.9375 -1.125q1.140625 -1.125 1.140625 -3.171875l0 -2.75q-0.65625 1.15625 -1.9375 1.921875q-1.265625 0.765625 -2.96875 0.765625q-1.75 0 -3.1875 -0.859375q-1.421875 -0.875 -2.234375 -2.421875q-0.8125 -1.5625 -0.8125 -3.5625q0 -2.015625 0.8125 -3.53125q0.8125 -1.53125 2.234375 -2.375q1.4375 -0.84375 3.1875 -0.84375zm4.90625 6.78125q0 -1.5 -0.609375 -2.59375q-0.59375 -1.109375 -1.625 -1.6875q-1.015625 -0.59375 -2.234375 -0.59375q-1.21875 0 -2.234375 0.578125q-1.0 0.578125 -1.609375 1.6875q-0.59375 1.09375 -0.59375 2.578125q0 1.515625 0.59375 2.640625q0.609375 1.109375 1.609375 1.703125q1.015625 0.578125 2.234375 0.578125q1.21875 0 2.234375 -0.578125q1.03125 -0.59375 1.625 -1.703125q0.609375 -1.125 0.609375 -2.609375zm17.895844 -0.484375q0 0.625 -0.0625 1.3125l-10.515625 0q0.125 1.953125 1.328125 3.046875q1.21875 1.09375 2.9375 1.09375q1.421875 0 2.359375 -0.65625q0.953125 -0.671875 1.34375 -1.78125l2.34375 0q-0.515625 1.90625 -2.109375 3.09375q-1.578125 1.1875 -3.9375 1.1875q-1.875 0 -3.34375 -0.84375q-1.46875 -0.84375 -2.3125 -2.390625q-0.84375 -1.546875 -0.84375 -3.578125q0 -2.046875 0.8125 -3.578125q0.8125 -1.546875 2.28125 -2.375q1.484375 -0.828125 3.40625 -0.828125q1.875 0 3.3125 0.828125q1.4375 0.8125 2.21875 2.25q0.78125 1.421875 0.78125 3.21875zm-2.25 -0.453125q0 -1.25 -0.5625 -2.140625q-0.546875 -0.90625 -1.5 -1.375q-0.9375 -0.46875 -2.09375 -0.46875q-1.65625 0 -2.828125 1.0625q-1.15625 1.046875 -1.328125 2.921875l8.3125 0z" fill-rule="nonzero"/><path fill="#ffffff" d="m140.33818 440.94376l-5.109375 0l0 5.1875l-2.046875 0l0 -5.1875l-5.078125 0l0 -1.859375l5.078125 0l0 -5.203125l2.046875 0l0 5.203125l5.109375 0l0 1.859375z" fill-rule="nonzero"/><path fill="#ffffff" d="m108.24364 477.7594q-2.328125 0 -4.25 -1.09375q-1.921875 -1.09375 -3.046875 -3.046875q-1.109375 -1.953125 -1.109375 -4.40625q0 -2.453125 1.109375 -4.40625q1.125 -1.953125 3.046875 -3.046875q1.921875 -1.09375 4.25 -1.09375q2.34375 0 4.265625 1.09375q1.921875 1.09375 3.015625 3.046875q1.109375 1.9375 1.109375 4.40625q0 2.46875 -1.109375 4.421875q-1.09375 1.9375 -3.015625 3.03125q-1.921875 1.09375 -4.265625 1.09375zm0 -1.90625q1.75 0 3.140625 -0.8125q1.40625 -0.8125 2.203125 -2.328125q0.8125 -1.515625 0.8125 -3.5q0 -2.015625 -0.8125 -3.515625q-0.796875 -1.5 -2.1875 -2.3125q-1.390625 -0.828125 -3.15625 -0.828125q-1.78125 0 -3.171875 0.828125q-1.390625 0.8125 -2.203125 2.3125q-0.796875 1.5 -0.796875 3.515625q0 1.984375 0.796875 3.5q0.8125 1.515625 2.21875 2.328125q1.40625 0.8125 3.15625 0.8125zm16.629562 -9.625l-2.765625 0l0 11.359375l-2.1875 0l0 -11.359375l-1.703125 0l0 -1.796875l1.703125 0l0 -0.9375q0 -2.203125 1.140625 -3.21875q1.140625 -1.03125 3.671875 -1.03125l0 1.828125q-1.453125 0 -2.046875 0.5625q-0.578125 0.5625 -0.578125 1.859375l0 0.9375l2.765625 0l0 1.796875zm7.895981 0l-2.765625 0l0 11.359375l-2.1875 0l0 -11.359375l-1.703125 0l0 -1.796875l1.703125 0l0 -0.9375q0 -2.203125 1.140625 -3.21875q1.140625 -1.03125 3.671875 -1.03125l0 1.828125q-1.453125 0 -2.046875 0.5625q-0.578125 0.5625 -0.578125 1.859375l0 0.9375l2.765625 0l0 1.796875zm7.192856 11.578125q-1.515625 0 -2.71875 -0.515625q-1.1875 -0.515625 -1.890625 -1.4375q-0.6875 -0.921875 -0.765625 -2.125l2.265625 0q0.09375 0.984375 0.921875 1.609375q0.828125 0.625 2.171875 0.625q1.25 0 1.96875 -0.546875q0.71875 -0.5625 0.71875 -1.40625q0 -0.859375 -0.78125 -1.28125q-0.765625 -0.421875 -2.359375 -0.828125q-1.46875 -0.390625 -2.390625 -0.78125q-0.921875 -0.390625 -1.59375 -1.171875q-0.65625 -0.78125 -0.65625 -2.0625q0 -1.0 0.59375 -1.84375q0.609375 -0.84375 1.703125 -1.328125q1.109375 -0.5 2.53125 -0.5q2.1875 0 3.53125 1.109375q1.34375 1.109375 1.4375 3.03125l-2.1875 0q-0.078125 -1.03125 -0.828125 -1.65625q-0.75 -0.625 -2.03125 -0.625q-1.171875 0 -1.875 0.5q-0.6875 0.5 -0.6875 1.3125q0 0.65625 0.421875 1.078125q0.421875 0.421875 1.046875 0.671875q0.640625 0.25 1.765625 0.5625q1.421875 0.375 2.3125 0.75q0.890625 0.375 1.515625 1.125q0.640625 0.734375 0.65625 1.9375q0 1.078125 -0.59375 1.953125q-0.59375 0.859375 -1.6875 1.359375q-1.09375 0.484375 -2.515625 0.484375zm19.87172 -7.296875q0 0.625 -0.0625 1.3125l-10.515625 0q0.125 1.953125 1.328125 3.046875q1.21875 1.09375 2.9375 1.09375q1.421875 0 2.359375 -0.65625q0.953125 -0.671875 1.34375 -1.78125l2.34375 0q-0.515625 1.90625 -2.109375 3.09375q-1.578125 1.1875 -3.9375 1.1875q-1.875 0 -3.34375 -0.84375q-1.46875 -0.84375 -2.3125 -2.390625q-0.84375 -1.546875 -0.84375 -3.578125q0 -2.046875 0.8125 -3.578125q0.8125 -1.546875 2.28125 -2.375q1.484375 -0.828125 3.40625 -0.828125q1.875 0 3.3125 0.828125q1.4375 0.8125 2.21875 2.25q0.78125 1.421875 0.78125 3.21875zm-2.25 -0.453125q0 -1.25 -0.5625 -2.140625q-0.546875 -0.90625 -1.5 -1.375q-0.9375 -0.46875 -2.09375 -0.46875q-1.65625 0 -2.828125 1.0625q-1.15625 1.046875 -1.328125 2.921875l8.3125 0zm7.801834 -3.828125l0 7.765625q0 0.953125 0.40625 1.359375q0.40625 0.390625 1.421875 0.390625l1.59375 0l0 1.84375l-1.96875 0q-1.8125 0 -2.734375 -0.84375q-0.90625 -0.84375 -0.90625 -2.75l0 -7.765625l-1.703125 0l0 -1.796875l1.703125 0l0 -3.3125l2.1875 0l0 3.3125l3.421875 0l0 1.796875l-3.421875 0z" fill-rule="nonzero"/><path fill="#000000" fill-opacity="0.0" d="m645.0381 417.03412l314.96057 0l0 48.472443l-314.96057 0z" fill-rule="evenodd"/><path fill="#ffffff" d="m738.4711 432.46475l0 16.609375l-2.1875 0l0 -12.390625l-5.515625 12.390625l-1.53125 0l-5.546875 -12.40625l0 12.40625l-2.1875 0l0 -16.609375l2.359375 0l6.140625 13.734375l6.140625 -13.734375l2.328125 0zm15.69519 9.53125q0 0.625 -0.0625 1.3125l-10.515625 0q0.125 1.953125 1.328125 3.046875q1.21875 1.09375 2.9375 1.09375q1.421875 0 2.359375 -0.65625q0.953125 -0.671875 1.34375 -1.78125l2.34375 0q-0.515625 1.90625 -2.109375 3.09375q-1.578125 1.1875 -3.9375 1.1875q-1.875 0 -3.34375 -0.84375q-1.46875 -0.84375 -2.3125 -2.390625q-0.84375 -1.546875 -0.84375 -3.578125q0 -2.046875 0.8125 -3.578125q0.8125 -1.546875 2.28125 -2.375q1.484375 -0.828125 3.40625 -0.828125q1.875 0 3.3125 0.828125q1.4375 0.8125 2.21875 2.25q0.78125 1.421875 0.78125 3.21875zm-2.25 -0.453125q0 -1.25 -0.5625 -2.140625q-0.546875 -0.90625 -1.5 -1.375q-0.9375 -0.46875 -2.09375 -0.46875q-1.65625 0 -2.828125 1.0625q-1.15625 1.046875 -1.328125 2.921875l8.3125 0zm20.942444 -5.859375q1.546875 0 2.734375 0.640625q1.203125 0.625 1.890625 1.90625q0.703125 1.265625 0.703125 3.09375l0 7.75l-2.15625 0l0 -7.4375q0 -1.96875 -0.96875 -3.015625q-0.96875 -1.046875 -2.625 -1.046875q-1.703125 0 -2.71875 1.09375q-1.0 1.09375 -1.0 3.15625l0 7.25l-2.15625 0l0 -7.4375q0 -1.96875 -0.984375 -3.015625q-0.96875 -1.046875 -2.625 -1.046875q-1.703125 0 -2.71875 1.09375q-1.0 1.09375 -1.0 3.15625l0 7.25l-2.1875 0l0 -13.15625l2.1875 0l0 1.90625q0.65625 -1.03125 1.734375 -1.578125q1.09375 -0.5625 2.421875 -0.5625q1.65625 0 2.921875 0.75q1.28125 0.734375 1.90625 2.171875q0.546875 -1.390625 1.8125 -2.15625q1.28125 -0.765625 2.828125 -0.765625zm14.641785 13.609375q-1.84375 0 -3.34375 -0.84375q-1.5 -0.84375 -2.359375 -2.390625q-0.84375 -1.546875 -0.84375 -3.578125q0 -2.015625 0.875 -3.5625q0.875 -1.5625 2.390625 -2.390625q1.515625 -0.828125 3.390625 -0.828125q1.859375 0 3.375 0.828125q1.515625 0.828125 2.390625 2.375q0.875 1.53125 0.875 3.578125q0 2.03125 -0.90625 3.578125q-0.890625 1.546875 -2.4375 2.390625q-1.53125 0.84375 -3.40625 0.84375zm0 -1.921875q1.1875 0 2.21875 -0.546875q1.03125 -0.5625 1.65625 -1.65625q0.640625 -1.109375 0.640625 -2.6875q0 -1.59375 -0.625 -2.6875q-0.625 -1.109375 -1.640625 -1.640625q-1.0 -0.546875 -2.171875 -0.546875q-1.203125 0 -2.203125 0.546875q-0.984375 0.53125 -1.59375 1.640625q-0.59375 1.09375 -0.59375 2.6875q0 1.609375 0.578125 2.71875q0.59375 1.09375 1.578125 1.640625q0.984375 0.53125 2.15625 0.53125zm11.81311 -9.3125q0.578125 -1.125 1.640625 -1.75q1.078125 -0.625 2.609375 -0.625l0 2.25l-0.578125 0q-3.671875 0 -3.671875 3.984375l0 7.15625l-2.1875 0l0 -13.15625l2.1875 0l0 2.140625zm18.09259 -2.140625l-7.921875 19.34375l-2.25 0l2.59375 -6.328125l-5.3125 -13.015625l2.4375 0l4.125 10.65625l4.078125 -10.65625l2.25 0zm19.779297 1.328125q0 2.078125 -1.4375 3.46875q-1.421875 1.375 -4.34375 1.375l-3.21875 0l0 6.984375l-2.1875 0l0 -16.734375l5.40625 0q2.828125 0 4.296875 1.375q1.484375 1.375 1.484375 3.53125zm-5.78125 3.046875q1.828125 0 2.6875 -0.796875q0.859375 -0.796875 0.859375 -2.25q0 -3.09375 -3.546875 -3.09375l-3.21875 0l0 6.140625l3.21875 0zm7.677246 2.15625q0 -2.015625 0.8125 -3.53125q0.8125 -1.53125 2.234375 -2.375q1.4375 -0.84375 3.1875 -0.84375q1.734375 0 3.0 0.75q1.28125 0.75 1.90625 1.875l0 -2.40625l2.203125 0l0 13.15625l-2.203125 0l0 -2.453125q-0.65625 1.15625 -1.9375 1.921875q-1.28125 0.75 -2.984375 0.75q-1.75 0 -3.171875 -0.859375q-1.421875 -0.875 -2.234375 -2.421875q-0.8125 -1.5625 -0.8125 -3.5625zm11.140625 0.03125q0 -1.5 -0.609375 -2.59375q-0.59375 -1.109375 -1.625 -1.6875q-1.015625 -0.59375 -2.234375 -0.59375q-1.21875 0 -2.234375 0.578125q-1.0 0.578125 -1.609375 1.6875q-0.59375 1.09375 -0.59375 2.578125q0 1.515625 0.59375 2.640625q0.609375 1.109375 1.609375 1.703125q1.015625 0.578125 2.234375 0.578125q1.21875 0 2.234375 -0.578125q1.03125 -0.59375 1.625 -1.703125q0.609375 -1.125 0.609375 -2.609375zm11.317688 -6.78125q1.703125 0 2.984375 0.75q1.296875 0.75 1.921875 1.875l0 -2.40625l2.203125 0l0 13.4375q0 1.8125 -0.765625 3.203125q-0.765625 1.40625 -2.203125 2.203125q-1.421875 0.796875 -3.3125 0.796875q-2.59375 0 -4.328125 -1.234375q-1.71875 -1.21875 -2.03125 -3.328125l2.15625 0q0.359375 1.203125 1.484375 1.921875q1.125 0.734375 2.71875 0.734375q1.796875 0 2.9375 -1.125q1.140625 -1.125 1.140625 -3.171875l0 -2.75q-0.65625 1.15625 -1.9375 1.921875q-1.265625 0.765625 -2.96875 0.765625q-1.75 0 -3.1875 -0.859375q-1.421875 -0.875 -2.234375 -2.421875q-0.8125 -1.5625 -0.8125 -3.5625q0 -2.015625 0.8125 -3.53125q0.8125 -1.53125 2.234375 -2.375q1.4375 -0.84375 3.1875 -0.84375zm4.90625 6.78125q0 -1.5 -0.609375 -2.59375q-0.59375 -1.109375 -1.625 -1.6875q-1.015625 -0.59375 -2.234375 -0.59375q-1.21875 0 -2.234375 0.578125q-1.0 0.578125 -1.609375 1.6875q-0.59375 1.09375 -0.59375 2.578125q0 1.515625 0.59375 2.640625q0.609375 1.109375 1.609375 1.703125q1.015625 0.578125 2.234375 0.578125q1.21875 0 2.234375 -0.578125q1.03125 -0.59375 1.625 -1.703125q0.609375 -1.125 0.609375 -2.609375zm17.895813 -0.484375q0 0.625 -0.0625 1.3125l-10.515625 0q0.125 1.953125 1.328125 3.046875q1.21875 1.09375 2.9375 1.09375q1.421875 0 2.359375 -0.65625q0.953125 -0.671875 1.34375 -1.78125l2.34375 0q-0.515625 1.90625 -2.109375 3.09375q-1.578125 1.1875 -3.9375 1.1875q-1.875 0 -3.34375 -0.84375q-1.46875 -0.84375 -2.3125 -2.390625q-0.84375 -1.546875 -0.84375 -3.578125q0 -2.046875 0.8125 -3.578125q0.8125 -1.546875 2.28125 -2.375q1.484375 -0.828125 3.40625 -0.828125q1.875 0 3.3125 0.828125q1.4375 0.8125 2.21875 2.25q0.78125 1.421875 0.78125 3.21875zm-2.25 -0.453125q0 -1.25 -0.5625 -2.140625q-0.546875 -0.90625 -1.5 -1.375q-0.9375 -0.46875 -2.09375 -0.46875q-1.65625 0 -2.828125 1.0625q-1.15625 1.046875 -1.328125 2.921875l8.3125 0z" fill-rule="nonzero"/><path fill="#000000" fill-opacity="0.0" d="m713.3333 441.20734l-114.74011 0.0630188" fill-rule="evenodd"/><path stroke="#ffffff" stroke-width="8.0" stroke-linejoin="round" stroke-linecap="butt" d="m713.3333 441.20734l-66.74011 0.036621094" fill-rule="evenodd"/><path fill="#ffffff" stroke="#ffffff" stroke-width="8.0" stroke-linecap="butt" d="m646.58594 428.03012l-36.297546 13.233795l36.31201 13.193939z" fill-rule="evenodd"/><path fill="#000000" fill-opacity="0.0" d="m134.20604 221.33333l0 166.61418" fill-rule="evenodd"/><path stroke="#ffffff" stroke-width="8.0" stroke-linejoin="round" stroke-linecap="butt" d="m134.20604 221.33333l0 118.61418" fill-rule="evenodd"/><path fill="#ffffff" stroke="#ffffff" stroke-width="8.0" stroke-linecap="butt" d="m120.99218 339.9475l13.21386 36.30478l13.213852 -36.30478z" fill-rule="evenodd"/><path fill="#000000" fill-opacity="0.0" d="m178.7874 441.8189l150.70866 -0.50393677" fill-rule="evenodd"/><path stroke="#ffffff" stroke-width="8.0" stroke-linejoin="round" stroke-linecap="butt" d="m178.7874 441.8189l102.70894 -0.34344482" fill-rule="evenodd"/><path fill="#ffffff" stroke="#ffffff" stroke-width="8.0" stroke-linecap="butt" d="m281.54053 454.68924l36.260376 -13.335175l-36.348755 -13.092377z" fill-rule="evenodd"/></g></svg>