<svg version="1.1" viewBox="0.0 0.0 960.0 540.0" fill="none" stroke="none" stroke-linecap="square" stroke-miterlimit="10" xmlns:xlink="http://www.w3.org/1999/xlink" xmlns="http://www.w3.org/2000/svg"><clipPath id="g3577995f865_0_466.0"><path d="m0 0l960.0 0l0 540.0l-960.0 0l0 -540.0z" clip-rule="nonzero"/></clipPath><g clip-path="url(#g3577995f865_0_466.0)"><path fill="#20212c" d="m0 0l960.0 0l0 540.0l-960.0 0z" fill-rule="evenodd"/><path fill="#666666" d="m157.54573 27.184235l0 0c0 -6.65987 5.3988953 -12.058761 12.058762 -12.058761l594.07465 0c3.1981812 0 6.265381 1.2704725 8.526855 3.53193c2.2614746 2.2614555 3.5319214 5.3286476 3.5319214 8.526831l0 48.233597c0 6.6598663 -5.3988647 12.058762 -12.058777 12.058762l-594.07465 0c-6.6598663 0 -12.058762 -5.3988953 -12.058762 -12.058762z" fill-rule="evenodd"/><path stroke="#000000" stroke-width="3.0" stroke-linejoin="round" stroke-linecap="butt" d="m157.54573 27.184235l0 0c0 -6.65987 5.3988953 -12.058761 12.058762 -12.058761l594.07465 0c3.1981812 0 6.265381 1.2704725 8.526855 3.53193c2.2614746 2.2614555 3.5319214 5.3286476 3.5319214 8.526831l0 48.233597c0 6.6598663 -5.3988647 12.058762 -12.058777 12.058762l-594.07465 0c-6.6598663 0 -12.058762 -5.3988953 -12.058762 -12.058762z" fill-rule="evenodd"/><path fill="#666666" d="m157.54573 141.69232l0 0c0 -18.084991 14.660782 -32.745773 32.745773 -32.745773l130.97916 0l0 0c8.684723 0 17.013733 3.4499893 23.154785 9.591019c6.1410217 6.1410217 9.591003 14.470032 9.591003 23.154755l0 313.1044c0 18.084991 -14.660797 32.745758 -32.74579 32.745758l-130.97916 0c-18.084991 0 -32.745773 -14.660767 -32.745773 -32.745758z" fill-rule="evenodd"/><path stroke="#000000" stroke-width="3.0" stroke-linejoin="round" stroke-linecap="butt" d="m157.54573 141.69232l0 0c0 -18.084991 14.660782 -32.745773 32.745773 -32.745773l130.97916 0l0 0c8.684723 0 17.013733 3.4499893 23.154785 9.591019c6.1410217 6.1410217 9.591003 14.470032 9.591003 23.154755l0 313.1044c0 18.084991 -14.660797 32.745758 -32.74579 32.745758l-130.97916 0c-18.084991 0 -32.745773 -14.660767 -32.745773 -32.745758z" fill-rule="evenodd"/><path fill="#d14770" d="m161.26576 267.40088l0 0c0 -17.400146 14.105606 -31.505737 31.505737 -31.505737l126.01918 0l0 0c8.355835 0 16.369446 3.319336 22.277924 9.227814c5.908478 5.908478 9.227814 13.922089 9.227814 22.277924l0 184.38123c0 17.400146 -14.105591 31.505737 -31.505737 31.505737l-126.01918 0c-17.400131 0 -31.505737 -14.105591 -31.505737 -31.505737z" fill-rule="evenodd"/><path stroke="#0d0d0d" stroke-width="3.0" stroke-linejoin="round" stroke-linecap="butt" d="m161.26576 267.40088l0 0c0 -17.400146 14.105606 -31.505737 31.505737 -31.505737l126.01918 0l0 0c8.355835 0 16.369446 3.319336 22.277924 9.227814c5.908478 5.908478 9.227814 13.922089 9.227814 22.277924l0 184.38123c0 17.400146 -14.105591 31.505737 -31.505737 31.505737l-126.01918 0c-17.400131 0 -31.505737 -14.105591 -31.505737 -31.505737z" fill-rule="evenodd"/><path fill="#666666" d="m368.40277 141.69232l0 0c0 -18.084991 14.660767 -32.745773 32.745758 -32.745773l130.97916 0l0 0c8.684753 0 17.013733 3.4499893 23.154785 9.591019c6.140991 6.1410217 9.591003 14.470032 9.591003 23.154755l0 313.1044c0 18.084991 -14.660767 32.745758 -32.74579 32.745758l-130.97916 0c-18.084991 0 -32.745758 -14.660767 -32.745758 -32.745758z" fill-rule="evenodd"/><path stroke="#000000" stroke-width="3.0" stroke-linejoin="round" stroke-linecap="butt" d="m368.40277 141.69232l0 0c0 -18.084991 14.660767 -32.745773 32.745758 -32.745773l130.97916 0l0 0c8.684753 0 17.013733 3.4499893 23.154785 9.591019c6.140991 6.1410217 9.591003 14.470032 9.591003 23.154755l0 313.1044c0 18.084991 -14.660767 32.745758 -32.74579 32.745758l-130.97916 0c-18.084991 0 -32.745758 -14.660767 -32.745758 -32.745758z" fill-rule="evenodd"/><path fill="#d14770" d="m372.1228 267.40088l0 0c0 -17.400146 14.105591 -31.505737 31.505737 -31.505737l126.019165 0l0 0c8.355835 0 16.369446 3.319336 22.277954 9.227814c5.9084473 5.908478 9.227783 13.922089 9.227783 22.277924l0 184.38123c0 17.400146 -14.105591 31.505737 -31.505737 31.505737l-126.019165 0c-17.400146 0 -31.505737 -14.105591 -31.505737 -31.505737z" fill-rule="evenodd"/><path stroke="#0d0d0d" stroke-width="3.0" stroke-linejoin="round" stroke-linecap="butt" d="m372.1228 267.40088l0 0c0 -17.400146 14.105591 -31.505737 31.505737 -31.505737l126.019165 0l0 0c8.355835 0 16.369446 3.319336 22.277954 9.227814c5.9084473 5.908478 9.227783 13.922089 9.227783 22.277924l0 184.38123c0 17.400146 -14.105591 31.505737 -31.505737 31.505737l-126.019165 0c-17.400146 0 -31.505737 -14.105591 -31.505737 -31.505737z" fill-rule="evenodd"/><path fill="#666666" d="m579.25977 141.69232l0 0c0 -18.084991 14.660828 -32.745773 32.74579 -32.745773l130.97919 0l0 0c8.684692 0 17.013733 3.4499893 23.154724 9.591019c6.1410522 6.1410217 9.591064 14.470032 9.591064 23.154755l0 313.1044c0 18.084991 -14.660828 32.745758 -32.74579 32.745758l-130.97919 0c-18.08496 0 -32.74579 -14.660767 -32.74579 -32.745758z" fill-rule="evenodd"/><path stroke="#000000" stroke-width="3.0" stroke-linejoin="round" stroke-linecap="butt" d="m579.25977 141.69232l0 0c0 -18.084991 14.660828 -32.745773 32.74579 -32.745773l130.97919 0l0 0c8.684692 0 17.013733 3.4499893 23.154724 9.591019c6.1410522 6.1410217 9.591064 14.470032 9.591064 23.154755l0 313.1044c0 18.084991 -14.660828 32.745758 -32.74579 32.745758l-130.97919 0c-18.08496 0 -32.74579 -14.660767 -32.74579 -32.745758z" fill-rule="evenodd"/><path fill="#d14770" d="m582.9798 253.17392l0 0c0 -9.542801 7.735962 -17.278778 17.278809 -17.278778l154.47308 0c4.5826416 0 8.977539 1.8204346 12.217957 5.060837c3.2404175 3.2404022 5.060852 7.635315 5.060852 12.217941l0 69.11304c0 9.542816 -7.736023 17.278778 -17.278809 17.278778l-154.47308 0c-9.542847 0 -17.278809 -7.735962 -17.278809 -17.278778z" fill-rule="evenodd"/><path stroke="#0d0d0d" stroke-width="3.0" stroke-linejoin="round" stroke-linecap="butt" d="m582.9798 253.17392l0 0c0 -9.542801 7.735962 -17.278778 17.278809 -17.278778l154.47308 0c4.5826416 0 8.977539 1.8204346 12.217957 5.060837c3.2404175 3.2404022 5.060852 7.635315 5.060852 12.217941l0 69.11304c0 9.542816 -7.736023 17.278778 -17.278809 17.278778l-154.47308 0c-9.542847 0 -17.278809 -7.735962 -17.278809 -17.278778z" fill-rule="evenodd"/><path fill="#d14770" d="m582.9798 371.6653l0 0c0 -12.200195 9.890259 -22.090424 22.090393 -22.090424l144.84991 0c5.8587036 0 11.477478 2.3273926 15.620239 6.470154c4.142761 4.1427307 6.470154 9.761536 6.470154 15.62027l0 88.35895c0 12.200195 -9.890259 22.090393 -22.090393 22.090393l-144.84991 0c-12.200134 0 -22.090393 -9.890198 -22.090393 -22.090393z" fill-rule="evenodd"/><path stroke="#0d0d0d" stroke-width="3.0" stroke-linejoin="round" stroke-linecap="butt" d="m582.9798 371.6653l0 0c0 -12.200195 9.890259 -22.090424 22.090393 -22.090424l144.84991 0c5.8587036 0 11.477478 2.3273926 15.620239 6.470154c4.142761 4.1427307 6.470154 9.761536 6.470154 15.62027l0 88.35895c0 12.200195 -9.890259 22.090393 -22.090393 22.090393l-144.84991 0c-12.200134 0 -22.090393 -9.890198 -22.090393 -22.090393z" fill-rule="evenodd"/><path fill="#666666" d="m165.54573 35.184235l0 0c0 -6.65987 5.3988953 -12.058762 12.058762 -12.058762l594.07465 0c3.1981812 0 6.265381 1.2704735 8.526855 3.531931c2.2614746 2.2614555 3.5319214 5.3286476 3.5319214 8.526831l0 48.233597c0 6.6598663 -5.3988647 12.058762 -12.058777 12.058762l-594.07465 0c-6.6598663 0 -12.058762 -5.3988953 -12.058762 -12.058762z" fill-rule="evenodd"/><path stroke="#000000" stroke-width="3.0" stroke-linejoin="round" stroke-linecap="butt" d="m165.54573 35.184235l0 0c0 -6.65987 5.3988953 -12.058762 12.058762 -12.058762l594.07465 0c3.1981812 0 6.265381 1.2704735 8.526855 3.531931c2.2614746 2.2614555 3.5319214 5.3286476 3.5319214 8.526831l0 48.233597c0 6.6598663 -5.3988647 12.058762 -12.058777 12.058762l-594.07465 0c-6.6598663 0 -12.058762 -5.3988953 -12.058762 -12.058762z" fill-rule="evenodd"/><path fill="#666666" d="m165.54573 149.69232l0 0c0 -18.084991 14.660782 -32.745773 32.745773 -32.745773l130.97916 0l0 0c8.684723 0 17.013733 3.4499893 23.154785 9.591019c6.1410217 6.1410217 9.591003 14.470032 9.591003 23.154755l0 313.1044c0 18.084991 -14.660797 32.745758 -32.74579 32.745758l-130.97916 0c-18.084991 0 -32.745773 -14.660767 -32.745773 -32.745758z" fill-rule="evenodd"/><path stroke="#000000" stroke-width="3.0" stroke-linejoin="round" stroke-linecap="butt" d="m165.54573 149.69232l0 0c0 -18.084991 14.660782 -32.745773 32.745773 -32.745773l130.97916 0l0 0c8.684723 0 17.013733 3.4499893 23.154785 9.591019c6.1410217 6.1410217 9.591003 14.470032 9.591003 23.154755l0 313.1044c0 18.084991 -14.660797 32.745758 -32.74579 32.745758l-130.97916 0c-18.084991 0 -32.745773 -14.660767 -32.745773 -32.745758z" fill-rule="evenodd"/><path fill="#d14770" d="m169.26576 275.40088l0 0c0 -17.400146 14.105606 -31.505737 31.505737 -31.505737l126.01918 0l0 0c8.355835 0 16.369446 3.319336 22.277924 9.227814c5.908478 5.908478 9.227814 13.922089 9.227814 22.277924l0 184.38123c0 17.400146 -14.105591 31.505737 -31.505737 31.505737l-126.01918 0c-17.400131 0 -31.505737 -14.105591 -31.505737 -31.505737z" fill-rule="evenodd"/><path stroke="#0d0d0d" stroke-width="3.0" stroke-linejoin="round" stroke-linecap="butt" d="m169.26576 275.40088l0 0c0 -17.400146 14.105606 -31.505737 31.505737 -31.505737l126.01918 0l0 0c8.355835 0 16.369446 3.319336 22.277924 9.227814c5.908478 5.908478 9.227814 13.922089 9.227814 22.277924l0 184.38123c0 17.400146 -14.105591 31.505737 -31.505737 31.505737l-126.01918 0c-17.400131 0 -31.505737 -14.105591 -31.505737 -31.505737z" fill-rule="evenodd"/><path fill="#666666" d="m376.40277 149.69232l0 0c0 -18.084991 14.660767 -32.745773 32.745758 -32.745773l130.97916 0l0 0c8.684753 0 17.013733 3.4499893 23.154785 9.591019c6.140991 6.1410217 9.591003 14.470032 9.591003 23.154755l0 313.1044c0 18.084991 -14.660767 32.745758 -32.74579 32.745758l-130.97916 0c-18.084991 0 -32.745758 -14.660767 -32.745758 -32.745758z" fill-rule="evenodd"/><path stroke="#000000" stroke-width="3.0" stroke-linejoin="round" stroke-linecap="butt" d="m376.40277 149.69232l0 0c0 -18.084991 14.660767 -32.745773 32.745758 -32.745773l130.97916 0l0 0c8.684753 0 17.013733 3.4499893 23.154785 9.591019c6.140991 6.1410217 9.591003 14.470032 9.591003 23.154755l0 313.1044c0 18.084991 -14.660767 32.745758 -32.74579 32.745758l-130.97916 0c-18.084991 0 -32.745758 -14.660767 -32.745758 -32.745758z" fill-rule="evenodd"/><path fill="#d14770" d="m380.1228 275.40088l0 0c0 -17.400146 14.105591 -31.505737 31.505737 -31.505737l126.019165 0l0 0c8.355835 0 16.369446 3.319336 22.277954 9.227814c5.9084473 5.908478 9.227783 13.922089 9.227783 22.277924l0 184.38123c0 17.400146 -14.105591 31.505737 -31.505737 31.505737l-126.019165 0c-17.400146 0 -31.505737 -14.105591 -31.505737 -31.505737z" fill-rule="evenodd"/><path stroke="#0d0d0d" stroke-width="3.0" stroke-linejoin="round" stroke-linecap="butt" d="m380.1228 275.40088l0 0c0 -17.400146 14.105591 -31.505737 31.505737 -31.505737l126.019165 0l0 0c8.355835 0 16.369446 3.319336 22.277954 9.227814c5.9084473 5.908478 9.227783 13.922089 9.227783 22.277924l0 184.38123c0 17.400146 -14.105591 31.505737 -31.505737 31.505737l-126.019165 0c-17.400146 0 -31.505737 -14.105591 -31.505737 -31.505737z" fill-rule="evenodd"/><path fill="#666666" d="m587.25977 149.69232l0 0c0 -18.084991 14.660828 -32.745773 32.74579 -32.745773l130.97919 0l0 0c8.684692 0 17.013733 3.4499893 23.154724 9.591019c6.1410522 6.1410217 9.591064 14.470032 9.591064 23.154755l0 313.1044c0 18.084991 -14.660828 32.745758 -32.74579 32.745758l-130.97919 0c-18.08496 0 -32.74579 -14.660767 -32.74579 -32.745758z" fill-rule="evenodd"/><path stroke="#000000" stroke-width="3.0" stroke-linejoin="round" stroke-linecap="butt" d="m587.25977 149.69232l0 0c0 -18.084991 14.660828 -32.745773 32.74579 -32.745773l130.97919 0l0 0c8.684692 0 17.013733 3.4499893 23.154724 9.591019c6.1410522 6.1410217 9.591064 14.470032 9.591064 23.154755l0 313.1044c0 18.084991 -14.660828 32.745758 -32.74579 32.745758l-130.97919 0c-18.08496 0 -32.74579 -14.660767 -32.74579 -32.745758z" fill-rule="evenodd"/><path fill="#d14770" d="m590.9798 261.17392l0 0c0 -9.542801 7.735962 -17.278778 17.278809 -17.278778l154.47308 0c4.5826416 0 8.977539 1.8204346 12.217957 5.060837c3.2404175 3.2404022 5.060852 7.63533 5.060852 12.217941l0 69.11304c0 9.542816 -7.736023 17.278778 -17.278809 17.278778l-154.47308 0c-9.542847 0 -17.278809 -7.735962 -17.278809 -17.278778z" fill-rule="evenodd"/><path stroke="#0d0d0d" stroke-width="3.0" stroke-linejoin="round" stroke-linecap="butt" d="m590.9798 261.17392l0 0c0 -9.542801 7.735962 -17.278778 17.278809 -17.278778l154.47308 0c4.5826416 0 8.977539 1.8204346 12.217957 5.060837c3.2404175 3.2404022 5.060852 7.63533 5.060852 12.217941l0 69.11304c0 9.542816 -7.736023 17.278778 -17.278809 17.278778l-154.47308 0c-9.542847 0 -17.278809 -7.735962 -17.278809 -17.278778z" fill-rule="evenodd"/><path fill="#d14770" d="m590.9798 379.6653l0 0c0 -12.200195 9.890259 -22.090424 22.090393 -22.090424l144.84991 0c5.8587036 0 11.477478 2.3273926 15.620239 6.470154c4.142761 4.1427307 6.470154 9.761536 6.470154 15.62027l0 88.35895c0 12.200195 -9.890259 22.090393 -22.090393 22.090393l-144.84991 0c-12.200134 0 -22.090393 -9.890198 -22.090393 -22.090393z" fill-rule="evenodd"/><path stroke="#0d0d0d" stroke-width="3.0" stroke-linejoin="round" stroke-linecap="butt" d="m590.9798 379.6653l0 0c0 -12.200195 9.890259 -22.090424 22.090393 -22.090424l144.84991 0c5.8587036 0 11.477478 2.3273926 15.620239 6.470154c4.142761 4.1427307 6.470154 9.761536 6.470154 15.62027l0 88.35895c0 12.200195 -9.890259 22.090393 -22.090393 22.090393l-144.84991 0c-12.200134 0 -22.090393 -9.890198 -22.090393 -22.090393z" fill-rule="evenodd"/><path fill="#666666" d="m173.54573 43.184235l0 0c0 -6.65987 5.3988953 -12.058762 12.058762 -12.058762l594.07465 0c3.1981812 0 6.265381 1.2704735 8.526855 3.531929c2.2614746 2.2614555 3.5319214 5.3286514 3.5319214 8.526833l0 48.233597c0 6.6598663 -5.3988647 12.058762 -12.058777 12.058762l-594.07465 0c-6.6598663 0 -12.058762 -5.3988953 -12.058762 -12.058762z" fill-rule="evenodd"/><path stroke="#000000" stroke-width="3.0" stroke-linejoin="round" stroke-linecap="butt" d="m173.54573 43.184235l0 0c0 -6.65987 5.3988953 -12.058762 12.058762 -12.058762l594.07465 0c3.1981812 0 6.265381 1.2704735 8.526855 3.531929c2.2614746 2.2614555 3.5319214 5.3286514 3.5319214 8.526833l0 48.233597c0 6.6598663 -5.3988647 12.058762 -12.058777 12.058762l-594.07465 0c-6.6598663 0 -12.058762 -5.3988953 -12.058762 -12.058762z" fill-rule="evenodd"/><path fill="#666666" d="m173.54573 157.69232l0 0c0 -18.084991 14.660782 -32.745773 32.745773 -32.745773l130.97916 0l0 0c8.684723 0 17.013733 3.449997 23.154785 9.591019c6.1410217 6.1410217 9.591003 14.470032 9.591003 23.154755l0 313.1044c0 18.084991 -14.660797 32.745758 -32.74579 32.745758l-130.97916 0c-18.084991 0 -32.745773 -14.660767 -32.745773 -32.745758z" fill-rule="evenodd"/><path stroke="#000000" stroke-width="3.0" stroke-linejoin="round" stroke-linecap="butt" d="m173.54573 157.69232l0 0c0 -18.084991 14.660782 -32.745773 32.745773 -32.745773l130.97916 0l0 0c8.684723 0 17.013733 3.449997 23.154785 9.591019c6.1410217 6.1410217 9.591003 14.470032 9.591003 23.154755l0 313.1044c0 18.084991 -14.660797 32.745758 -32.74579 32.745758l-130.97916 0c-18.084991 0 -32.745773 -14.660767 -32.745773 -32.745758z" fill-rule="evenodd"/><path fill="#d14770" d="m177.26576 283.40088l0 0c0 -17.400146 14.105606 -31.505737 31.505737 -31.505737l126.01918 0l0 0c8.355835 0 16.369446 3.319336 22.277924 9.227814c5.908478 5.908478 9.227814 13.922089 9.227814 22.277924l0 184.38123c0 17.400146 -14.105591 31.505737 -31.505737 31.505737l-126.01918 0c-17.400131 0 -31.505737 -14.105591 -31.505737 -31.505737z" fill-rule="evenodd"/><path stroke="#0d0d0d" stroke-width="3.0" stroke-linejoin="round" stroke-linecap="butt" d="m177.26576 283.40088l0 0c0 -17.400146 14.105606 -31.505737 31.505737 -31.505737l126.01918 0l0 0c8.355835 0 16.369446 3.319336 22.277924 9.227814c5.908478 5.908478 9.227814 13.922089 9.227814 22.277924l0 184.38123c0 17.400146 -14.105591 31.505737 -31.505737 31.505737l-126.01918 0c-17.400131 0 -31.505737 -14.105591 -31.505737 -31.505737z" fill-rule="evenodd"/><path fill="#666666" d="m384.40277 157.69232l0 0c0 -18.084991 14.660767 -32.745773 32.745758 -32.745773l130.97916 0l0 0c8.684753 0 17.013733 3.449997 23.154785 9.591019c6.140991 6.1410217 9.591003 14.470032 9.591003 23.154755l0 313.1044c0 18.084991 -14.660767 32.745758 -32.74579 32.745758l-130.97916 0c-18.084991 0 -32.745758 -14.660767 -32.745758 -32.745758z" fill-rule="evenodd"/><path stroke="#000000" stroke-width="3.0" stroke-linejoin="round" stroke-linecap="butt" d="m384.40277 157.69232l0 0c0 -18.084991 14.660767 -32.745773 32.745758 -32.745773l130.97916 0l0 0c8.684753 0 17.013733 3.449997 23.154785 9.591019c6.140991 6.1410217 9.591003 14.470032 9.591003 23.154755l0 313.1044c0 18.084991 -14.660767 32.745758 -32.74579 32.745758l-130.97916 0c-18.084991 0 -32.745758 -14.660767 -32.745758 -32.745758z" fill-rule="evenodd"/><path fill="#d14770" d="m388.1228 283.40088l0 0c0 -17.400146 14.105591 -31.505737 31.505737 -31.505737l126.019165 0l0 0c8.355835 0 16.369446 3.319336 22.277954 9.227814c5.9084473 5.908478 9.227783 13.922089 9.227783 22.277924l0 184.38123c0 17.400146 -14.105591 31.505737 -31.505737 31.505737l-126.019165 0c-17.400146 0 -31.505737 -14.105591 -31.505737 -31.505737z" fill-rule="evenodd"/><path stroke="#0d0d0d" stroke-width="3.0" stroke-linejoin="round" stroke-linecap="butt" d="m388.1228 283.40088l0 0c0 -17.400146 14.105591 -31.505737 31.505737 -31.505737l126.019165 0l0 0c8.355835 0 16.369446 3.319336 22.277954 9.227814c5.9084473 5.908478 9.227783 13.922089 9.227783 22.277924l0 184.38123c0 17.400146 -14.105591 31.505737 -31.505737 31.505737l-126.019165 0c-17.400146 0 -31.505737 -14.105591 -31.505737 -31.505737z" fill-rule="evenodd"/><path fill="#666666" d="m595.25977 157.69232l0 0c0 -18.084991 14.660828 -32.745773 32.74579 -32.745773l130.97919 0l0 0c8.684692 0 17.013733 3.449997 23.154724 9.591019c6.1410522 6.1410217 9.591064 14.470032 9.591064 23.154755l0 313.1044c0 18.084991 -14.660828 32.745758 -32.74579 32.745758l-130.97919 0c-18.08496 0 -32.74579 -14.660767 -32.74579 -32.745758z" fill-rule="evenodd"/><path stroke="#000000" stroke-width="3.0" stroke-linejoin="round" stroke-linecap="butt" d="m595.25977 157.69232l0 0c0 -18.084991 14.660828 -32.745773 32.74579 -32.745773l130.97919 0l0 0c8.684692 0 17.013733 3.449997 23.154724 9.591019c6.1410522 6.1410217 9.591064 14.470032 9.591064 23.154755l0 313.1044c0 18.084991 -14.660828 32.745758 -32.74579 32.745758l-130.97919 0c-18.08496 0 -32.74579 -14.660767 -32.74579 -32.745758z" fill-rule="evenodd"/><path fill="#d14770" d="m598.9798 269.17392l0 0c0 -9.542816 7.735962 -17.278778 17.278809 -17.278778l154.47308 0c4.5826416 0 8.977539 1.8204346 12.217957 5.0608215c3.2404175 3.2404175 5.060852 7.6353455 5.060852 12.217957l0 69.11304c0 9.542816 -7.736023 17.278778 -17.278809 17.278778l-154.47308 0c-9.542847 0 -17.278809 -7.735962 -17.278809 -17.278778z" fill-rule="evenodd"/><path stroke="#0d0d0d" stroke-width="3.0" stroke-linejoin="round" stroke-linecap="butt" d="m598.9798 269.17392l0 0c0 -9.542816 7.735962 -17.278778 17.278809 -17.278778l154.47308 0c4.5826416 0 8.977539 1.8204346 12.217957 5.0608215c3.2404175 3.2404175 5.060852 7.6353455 5.060852 12.217957l0 69.11304c0 9.542816 -7.736023 17.278778 -17.278809 17.278778l-154.47308 0c-9.542847 0 -17.278809 -7.735962 -17.278809 -17.278778z" fill-rule="evenodd"/><path fill="#d14770" d="m598.9798 387.6653l0 0c0 -12.200195 9.890259 -22.090424 22.090393 -22.090424l144.84991 0c5.8587036 0 11.477478 2.3273926 15.620239 6.470154c4.142761 4.1427307 6.470154 9.761536 6.470154 15.62027l0 88.35895c0 12.200195 -9.890259 22.090393 -22.090393 22.090393l-144.84991 0c-12.200134 0 -22.090393 -9.890198 -22.090393 -22.090393z" fill-rule="evenodd"/><path stroke="#0d0d0d" stroke-width="3.0" stroke-linejoin="round" stroke-linecap="butt" d="m598.9798 387.6653l0 0c0 -12.200195 9.890259 -22.090424 22.090393 -22.090424l144.84991 0c5.8587036 0 11.477478 2.3273926 15.620239 6.470154c4.142761 4.1427307 6.470154 9.761536 6.470154 15.62027l0 88.35895c0 12.200195 -9.890259 22.090393 -22.090393 22.090393l-144.84991 0c-12.200134 0 -22.090393 -9.890198 -22.090393 -22.090393z" fill-rule="evenodd"/><path fill="#666666" d="m181.54573 51.184235l0 0c0 -6.65987 5.3988953 -12.058762 12.058762 -12.058762l594.07465 0c3.1981812 0 6.265381 1.2704735 8.526855 3.531929c2.2614746 2.2614555 3.5319214 5.3286514 3.5319214 8.526833l0 48.233597c0 6.6598663 -5.3988647 12.058762 -12.058777 12.058762l-594.07465 0c-6.6598663 0 -12.058762 -5.3988953 -12.058762 -12.058762z" fill-rule="evenodd"/><path stroke="#000000" stroke-width="3.0" stroke-linejoin="round" stroke-linecap="butt" d="m181.54573 51.184235l0 0c0 -6.65987 5.3988953 -12.058762 12.058762 -12.058762l594.07465 0c3.1981812 0 6.265381 1.2704735 8.526855 3.531929c2.2614746 2.2614555 3.5319214 5.3286514 3.5319214 8.526833l0 48.233597c0 6.6598663 -5.3988647 12.058762 -12.058777 12.058762l-594.07465 0c-6.6598663 0 -12.058762 -5.3988953 -12.058762 -12.058762z" fill-rule="evenodd"/><path fill="#666666" d="m181.54573 165.69232l0 0c0 -18.084991 14.660782 -32.745773 32.745773 -32.745773l130.97916 0l0 0c8.684723 0 17.013733 3.449997 23.154785 9.591019c6.1410217 6.1410217 9.591003 14.470032 9.591003 23.154755l0 313.1044c0 18.084991 -14.660797 32.745758 -32.74579 32.745758l-130.97916 0c-18.084991 0 -32.745773 -14.660767 -32.745773 -32.745758z" fill-rule="evenodd"/><path stroke="#000000" stroke-width="3.0" stroke-linejoin="round" stroke-linecap="butt" d="m181.54573 165.69232l0 0c0 -18.084991 14.660782 -32.745773 32.745773 -32.745773l130.97916 0l0 0c8.684723 0 17.013733 3.449997 23.154785 9.591019c6.1410217 6.1410217 9.591003 14.470032 9.591003 23.154755l0 313.1044c0 18.084991 -14.660797 32.745758 -32.74579 32.745758l-130.97916 0c-18.084991 0 -32.745773 -14.660767 -32.745773 -32.745758z" fill-rule="evenodd"/><path fill="#d14770" d="m185.26576 291.40088l0 0c0 -17.400146 14.105606 -31.505737 31.505737 -31.505737l126.01918 0l0 0c8.355835 0 16.369446 3.319336 22.277924 9.227814c5.908478 5.908478 9.227814 13.922089 9.227814 22.277924l0 184.38123c0 17.400146 -14.105591 31.505737 -31.505737 31.505737l-126.01918 0c-17.400131 0 -31.505737 -14.105591 -31.505737 -31.505737z" fill-rule="evenodd"/><path stroke="#0d0d0d" stroke-width="3.0" stroke-linejoin="round" stroke-linecap="butt" d="m185.26576 291.40088l0 0c0 -17.400146 14.105606 -31.505737 31.505737 -31.505737l126.01918 0l0 0c8.355835 0 16.369446 3.319336 22.277924 9.227814c5.908478 5.908478 9.227814 13.922089 9.227814 22.277924l0 184.38123c0 17.400146 -14.105591 31.505737 -31.505737 31.505737l-126.01918 0c-17.400131 0 -31.505737 -14.105591 -31.505737 -31.505737z" fill-rule="evenodd"/><path fill="#666666" d="m392.40277 165.69232l0 0c0 -18.084991 14.660767 -32.745773 32.745758 -32.745773l130.97916 0l0 0c8.684753 0 17.013733 3.449997 23.154785 9.591019c6.140991 6.1410217 9.591003 14.470032 9.591003 23.154755l0 313.1044c0 18.084991 -14.660767 32.745758 -32.74579 32.745758l-130.97916 0c-18.084991 0 -32.745758 -14.660767 -32.745758 -32.745758z" fill-rule="evenodd"/><path stroke="#000000" stroke-width="3.0" stroke-linejoin="round" stroke-linecap="butt" d="m392.40277 165.69232l0 0c0 -18.084991 14.660767 -32.745773 32.745758 -32.745773l130.97916 0l0 0c8.684753 0 17.013733 3.449997 23.154785 9.591019c6.140991 6.1410217 9.591003 14.470032 9.591003 23.154755l0 313.1044c0 18.084991 -14.660767 32.745758 -32.74579 32.745758l-130.97916 0c-18.084991 0 -32.745758 -14.660767 -32.745758 -32.745758z" fill-rule="evenodd"/><path fill="#d14770" d="m396.1228 291.40088l0 0c0 -17.400146 14.105591 -31.505737 31.505737 -31.505737l126.019165 0l0 0c8.355835 0 16.369446 3.319336 22.277954 9.227814c5.9084473 5.908478 9.227783 13.922089 9.227783 22.277924l0 184.38123c0 17.400146 -14.105591 31.505737 -31.505737 31.505737l-126.019165 0c-17.400146 0 -31.505737 -14.105591 -31.505737 -31.505737z" fill-rule="evenodd"/><path stroke="#0d0d0d" stroke-width="3.0" stroke-linejoin="round" stroke-linecap="butt" d="m396.1228 291.40088l0 0c0 -17.400146 14.105591 -31.505737 31.505737 -31.505737l126.019165 0l0 0c8.355835 0 16.369446 3.319336 22.277954 9.227814c5.9084473 5.908478 9.227783 13.922089 9.227783 22.277924l0 184.38123c0 17.400146 -14.105591 31.505737 -31.505737 31.505737l-126.019165 0c-17.400146 0 -31.505737 -14.105591 -31.505737 -31.505737z" fill-rule="evenodd"/><path fill="#666666" d="m603.25977 165.69232l0 0c0 -18.084991 14.660828 -32.745773 32.74579 -32.745773l130.97919 0l0 0c8.684692 0 17.013733 3.449997 23.154724 9.591019c6.1410522 6.1410217 9.591064 14.470032 9.591064 23.154755l0 313.1044c0 18.084991 -14.660828 32.745758 -32.74579 32.745758l-130.97919 0c-18.08496 0 -32.74579 -14.660767 -32.74579 -32.745758z" fill-rule="evenodd"/><path stroke="#000000" stroke-width="3.0" stroke-linejoin="round" stroke-linecap="butt" d="m603.25977 165.69232l0 0c0 -18.084991 14.660828 -32.745773 32.74579 -32.745773l130.97919 0l0 0c8.684692 0 17.013733 3.449997 23.154724 9.591019c6.1410522 6.1410217 9.591064 14.470032 9.591064 23.154755l0 313.1044c0 18.084991 -14.660828 32.745758 -32.74579 32.745758l-130.97919 0c-18.08496 0 -32.74579 -14.660767 -32.74579 -32.745758z" fill-rule="evenodd"/><path fill="#d14770" d="m606.9798 277.17392l0 0c0 -9.542816 7.735962 -17.278778 17.278809 -17.278778l154.47308 0c4.5826416 0 8.977539 1.8204346 12.217957 5.0608215c3.2404175 3.2404175 5.060852 7.6353455 5.060852 12.217957l0 69.11304c0 9.542816 -7.736023 17.278778 -17.278809 17.278778l-154.47308 0c-9.542847 0 -17.278809 -7.735962 -17.278809 -17.278778z" fill-rule="evenodd"/><path stroke="#0d0d0d" stroke-width="3.0" stroke-linejoin="round" stroke-linecap="butt" d="m606.9798 277.17392l0 0c0 -9.542816 7.735962 -17.278778 17.278809 -17.278778l154.47308 0c4.5826416 0 8.977539 1.8204346 12.217957 5.0608215c3.2404175 3.2404175 5.060852 7.6353455 5.060852 12.217957l0 69.11304c0 9.542816 -7.736023 17.278778 -17.278809 17.278778l-154.47308 0c-9.542847 0 -17.278809 -7.735962 -17.278809 -17.278778z" fill-rule="evenodd"/><path fill="#d14770" d="m606.9798 395.6653l0 0c0 -12.200195 9.890259 -22.090424 22.090393 -22.090424l144.84991 0c5.8587036 0 11.477478 2.3273926 15.620239 6.470154c4.142761 4.1427307 6.470154 9.761536 6.470154 15.62027l0 88.35895c0 12.200195 -9.890259 22.090393 -22.090393 22.090393l-144.84991 0c-12.200134 0 -22.090393 -9.890198 -22.090393 -22.090393z" fill-rule="evenodd"/><path stroke="#0d0d0d" stroke-width="3.0" stroke-linejoin="round" stroke-linecap="butt" d="m606.9798 395.6653l0 0c0 -12.200195 9.890259 -22.090424 22.090393 -22.090424l144.84991 0c5.8587036 0 11.477478 2.3273926 15.620239 6.470154c4.142761 4.1427307 6.470154 9.761536 6.470154 15.62027l0 88.35895c0 12.200195 -9.890259 22.090393 -22.090393 22.090393l-144.84991 0c-12.200134 0 -22.090393 -9.890198 -22.090393 -22.090393z" fill-rule="evenodd"/><path fill="#666666" d="m189.54573 59.184235l0 0c0 -6.65987 5.3988953 -12.058762 12.058762 -12.058762l594.07465 0c3.1981812 0 6.265381 1.2704735 8.526855 3.531929c2.2614746 2.2614555 3.5319214 5.3286514 3.5319214 8.526833l0 48.233597c0 6.6598663 -5.3988647 12.058762 -12.058777 12.058762l-594.07465 0c-6.6598663 0 -12.058762 -5.3988953 -12.058762 -12.058762z" fill-rule="evenodd"/><path stroke="#000000" stroke-width="3.0" stroke-linejoin="round" stroke-linecap="butt" d="m189.54573 59.184235l0 0c0 -6.65987 5.3988953 -12.058762 12.058762 -12.058762l594.07465 0c3.1981812 0 6.265381 1.2704735 8.526855 3.531929c2.2614746 2.2614555 3.5319214 5.3286514 3.5319214 8.526833l0 48.233597c0 6.6598663 -5.3988647 12.058762 -12.058777 12.058762l-594.07465 0c-6.6598663 0 -12.058762 -5.3988953 -12.058762 -12.058762z" fill-rule="evenodd"/><path fill="#666666" d="m189.54573 173.69232l0 0c0 -18.084991 14.660782 -32.745773 32.745773 -32.745773l130.97916 0l0 0c8.684723 0 17.013733 3.449997 23.154785 9.591019c6.1410217 6.1410217 9.591003 14.470032 9.591003 23.154755l0 313.1044c0 18.084991 -14.660797 32.745758 -32.74579 32.745758l-130.97916 0c-18.084991 0 -32.745773 -14.660767 -32.745773 -32.745758z" fill-rule="evenodd"/><path stroke="#000000" stroke-width="3.0" stroke-linejoin="round" stroke-linecap="butt" d="m189.54573 173.69232l0 0c0 -18.084991 14.660782 -32.745773 32.745773 -32.745773l130.97916 0l0 0c8.684723 0 17.013733 3.449997 23.154785 9.591019c6.1410217 6.1410217 9.591003 14.470032 9.591003 23.154755l0 313.1044c0 18.084991 -14.660797 32.745758 -32.74579 32.745758l-130.97916 0c-18.084991 0 -32.745773 -14.660767 -32.745773 -32.745758z" fill-rule="evenodd"/><path fill="#d14770" d="m193.26576 299.40088l0 0c0 -17.400146 14.105606 -31.505737 31.505737 -31.505737l126.01918 0l0 0c8.355835 0 16.369446 3.319336 22.277924 9.227814c5.908478 5.908478 9.227814 13.922089 9.227814 22.277924l0 184.38123c0 17.400146 -14.105591 31.505737 -31.505737 31.505737l-126.01918 0c-17.400131 0 -31.505737 -14.105591 -31.505737 -31.505737z" fill-rule="evenodd"/><path stroke="#0d0d0d" stroke-width="3.0" stroke-linejoin="round" stroke-linecap="butt" d="m193.26576 299.40088l0 0c0 -17.400146 14.105606 -31.505737 31.505737 -31.505737l126.01918 0l0 0c8.355835 0 16.369446 3.319336 22.277924 9.227814c5.908478 5.908478 9.227814 13.922089 9.227814 22.277924l0 184.38123c0 17.400146 -14.105591 31.505737 -31.505737 31.505737l-126.01918 0c-17.400131 0 -31.505737 -14.105591 -31.505737 -31.505737z" fill-rule="evenodd"/><path fill="#666666" d="m400.40277 173.69232l0 0c0 -18.084991 14.660767 -32.745773 32.745758 -32.745773l130.97916 0l0 0c8.684753 0 17.013733 3.449997 23.154785 9.591019c6.140991 6.1410217 9.591003 14.470032 9.591003 23.154755l0 313.1044c0 18.084991 -14.660767 32.745758 -32.74579 32.745758l-130.97916 0c-18.084991 0 -32.745758 -14.660767 -32.745758 -32.745758z" fill-rule="evenodd"/><path stroke="#000000" stroke-width="3.0" stroke-linejoin="round" stroke-linecap="butt" d="m400.40277 173.69232l0 0c0 -18.084991 14.660767 -32.745773 32.745758 -32.745773l130.97916 0l0 0c8.684753 0 17.013733 3.449997 23.154785 9.591019c6.140991 6.1410217 9.591003 14.470032 9.591003 23.154755l0 313.1044c0 18.084991 -14.660767 32.745758 -32.74579 32.745758l-130.97916 0c-18.084991 0 -32.745758 -14.660767 -32.745758 -32.745758z" fill-rule="evenodd"/><path fill="#d14770" d="m404.1228 299.40088l0 0c0 -17.400146 14.105591 -31.505737 31.505737 -31.505737l126.019165 0l0 0c8.355835 0 16.369446 3.319336 22.277954 9.227814c5.9084473 5.908478 9.227783 13.922089 9.227783 22.277924l0 184.38123c0 17.400146 -14.105591 31.505737 -31.505737 31.505737l-126.019165 0c-17.400146 0 -31.505737 -14.105591 -31.505737 -31.505737z" fill-rule="evenodd"/><path stroke="#0d0d0d" stroke-width="3.0" stroke-linejoin="round" stroke-linecap="butt" d="m404.1228 299.40088l0 0c0 -17.400146 14.105591 -31.505737 31.505737 -31.505737l126.019165 0l0 0c8.355835 0 16.369446 3.319336 22.277954 9.227814c5.9084473 5.908478 9.227783 13.922089 9.227783 22.277924l0 184.38123c0 17.400146 -14.105591 31.505737 -31.505737 31.505737l-126.019165 0c-17.400146 0 -31.505737 -14.105591 -31.505737 -31.505737z" fill-rule="evenodd"/><path fill="#666666" d="m611.25977 173.69232l0 0c0 -18.084991 14.660828 -32.745773 32.74579 -32.745773l130.97919 0l0 0c8.684692 0 17.013733 3.449997 23.154724 9.591019c6.1410522 6.1410217 9.591064 14.470032 9.591064 23.154755l0 313.1044c0 18.084991 -14.660828 32.745758 -32.74579 32.745758l-130.97919 0c-18.08496 0 -32.74579 -14.660767 -32.74579 -32.745758z" fill-rule="evenodd"/><path stroke="#000000" stroke-width="3.0" stroke-linejoin="round" stroke-linecap="butt" d="m611.25977 173.69232l0 0c0 -18.084991 14.660828 -32.745773 32.74579 -32.745773l130.97919 0l0 0c8.684692 0 17.013733 3.449997 23.154724 9.591019c6.1410522 6.1410217 9.591064 14.470032 9.591064 23.154755l0 313.1044c0 18.084991 -14.660828 32.745758 -32.74579 32.745758l-130.97919 0c-18.08496 0 -32.74579 -14.660767 -32.74579 -32.745758z" fill-rule="evenodd"/><path fill="#d14770" d="m614.9798 285.17392l0 0c0 -9.542816 7.735962 -17.278778 17.278809 -17.278778l154.47308 0c4.5826416 0 8.977539 1.8204346 12.217957 5.0608215c3.2404175 3.2404175 5.060852 7.6353455 5.060852 12.217957l0 69.11304c0 9.542816 -7.736023 17.278778 -17.278809 17.278778l-154.47308 0c-9.542847 0 -17.278809 -7.735962 -17.278809 -17.278778z" fill-rule="evenodd"/><path stroke="#0d0d0d" stroke-width="3.0" stroke-linejoin="round" stroke-linecap="butt" d="m614.9798 285.17392l0 0c0 -9.542816 7.735962 -17.278778 17.278809 -17.278778l154.47308 0c4.5826416 0 8.977539 1.8204346 12.217957 5.0608215c3.2404175 3.2404175 5.060852 7.6353455 5.060852 12.217957l0 69.11304c0 9.542816 -7.736023 17.278778 -17.278809 17.278778l-154.47308 0c-9.542847 0 -17.278809 -7.735962 -17.278809 -17.278778z" fill-rule="evenodd"/><path fill="#d14770" d="m614.9798 403.6653l0 0c0 -12.200195 9.890259 -22.090424 22.090393 -22.090424l144.84991 0c5.8587036 0 11.477478 2.3273926 15.620239 6.470154c4.142761 4.1427307 6.470154 9.761536 6.470154 15.62027l0 88.35895c0 12.200195 -9.890259 22.090424 -22.090393 22.090424l-144.84991 0c-12.200134 0 -22.090393 -9.890228 -22.090393 -22.090424z" fill-rule="evenodd"/><path stroke="#0d0d0d" stroke-width="3.0" stroke-linejoin="round" stroke-linecap="butt" d="m614.9798 403.6653l0 0c0 -12.200195 9.890259 -22.090424 22.090393 -22.090424l144.84991 0c5.8587036 0 11.477478 2.3273926 15.620239 6.470154c4.142761 4.1427307 6.470154 9.761536 6.470154 15.62027l0 88.35895c0 12.200195 -9.890259 22.090424 -22.090393 22.090424l-144.84991 0c-12.200134 0 -22.090393 -9.890228 -22.090393 -22.090424z" fill-rule="evenodd"/><path fill="#666666" d="m197.18353 71.773476l0 0c0 -6.659874 5.3988953 -12.058762 12.058762 -12.058762l594.07465 0c3.1981812 0 6.265381 1.2704697 8.526855 3.531929c2.2614136 2.2614517 3.5319214 5.3286514 3.5319214 8.526833l0 48.233597c0 6.6598663 -5.398926 12.058754 -12.058777 12.058754l-594.07465 0c-6.6598663 0 -12.058762 -5.3988876 -12.058762 -12.058754z" fill-rule="evenodd"/><path stroke="#000000" stroke-width="3.0" stroke-linejoin="round" stroke-linecap="butt" d="m197.18353 71.773476l0 0c0 -6.659874 5.3988953 -12.058762 12.058762 -12.058762l594.07465 0c3.1981812 0 6.265381 1.2704697 8.526855 3.531929c2.2614136 2.2614517 3.5319214 5.3286514 3.5319214 8.526833l0 48.233597c0 6.6598663 -5.398926 12.058754 -12.058777 12.058754l-594.07465 0c-6.6598663 0 -12.058762 -5.3988876 -12.058762 -12.058754z" fill-rule="evenodd"/><path fill="#ffffff" d="m412.65518 92.60215q0 2.078125 -1.4375 3.46875q-1.421875 1.375 -4.34375 1.375l-3.21875 0l0 6.984375l-2.1875 0l0 -16.734375l5.40625 0q2.828125 0 4.296875 1.375q1.484375 1.375 1.484375 3.53125zm-5.78125 3.046875q1.828125 0 2.6875 -0.796875q0.859375 -0.796875 0.859375 -2.25q0 -3.09375 -3.546875 -3.09375l-3.21875 0l0 6.140625l3.21875 0zm7.6772156 2.15625q0 -2.015625 0.8125 -3.53125q0.8125 -1.53125 2.234375 -2.375q1.4375 -0.84375 3.1875 -0.84375q1.734375 0 3.0 0.75q1.28125 0.75 1.90625 1.875l0 -2.40625l2.203125 0l0 13.15625l-2.203125 0l0 -2.453125q-0.65625 1.15625 -1.9375 1.921875q-1.28125 0.75 -2.984375 0.75q-1.75 0 -3.171875 -0.859375q-1.421875 -0.875 -2.234375 -2.421875q-0.8125 -1.5625 -0.8125 -3.5625zm11.140625 0.03125q0 -1.5 -0.609375 -2.59375q-0.59375 -1.109375 -1.625 -1.6875q-1.015625 -0.59375 -2.234375 -0.59375q-1.21875 0 -2.234375 0.578125q-1.0 0.578125 -1.609375 1.6875q-0.59375 1.09375 -0.59375 2.578125q0 1.515625 0.59375 2.640625q0.609375 1.109375 1.609375 1.703125q1.015625 0.578125 2.234375 0.578125q1.21875 0 2.234375 -0.578125q1.03125 -0.59375 1.625 -1.703125q0.609375 -1.125 0.609375 -2.609375zm8.0833435 -4.421875q0.578125 -1.125 1.640625 -1.75q1.078125 -0.625 2.609375 -0.625l0 2.25l-0.578125 0q-3.671875 0 -3.671875 3.984375l0 7.15625l-2.1875 0l0 -13.15625l2.1875 0l0 2.140625zm9.43634 -0.34375l0 7.765625q0 0.953125 0.40625 1.359375q0.40625 0.390625 1.421875 0.390625l1.59375 0l0 1.84375l-1.96875 0q-1.8125 0 -2.734375 -0.84375q-0.90625 -0.84375 -0.90625 -2.75l0 -7.765625l-1.703125 0l0 -1.796875l1.703125 0l0 -3.3125l2.1875 0l0 3.3125l3.421875 0l0 1.796875l-3.421875 0zm7.1891174 -3.921875q-0.609375 0 -1.046875 -0.4375q-0.4375 -0.4375 -0.4375 -1.0625q0 -0.625 0.4375 -1.046875q0.4375 -0.4375 1.046875 -0.4375q0.609375 0 1.03125 0.4375q0.421875 0.421875 0.421875 1.046875q0 0.625 -0.421875 1.0625q-0.421875 0.4375 -1.03125 0.4375zm1.0625 2.125l0 13.15625l-2.1875 0l0 -13.15625l2.1875 0zm6.388336 1.796875l0 7.765625q0 0.953125 0.40625 1.359375q0.40625 0.390625 1.421875 0.390625l1.59375 0l0 1.84375l-1.96875 0q-1.8125 0 -2.734375 -0.84375q-0.90625 -0.84375 -0.90625 -2.75l0 -7.765625l-1.703125 0l0 -1.796875l1.703125 0l0 -3.3125l2.1875 0l0 3.3125l3.421875 0l0 1.796875l-3.421875 0zm7.189087 -3.921875q-0.609375 0 -1.046875 -0.4375q-0.4375 -0.4375 -0.4375 -1.0625q0 -0.625 0.4375 -1.046875q0.4375 -0.4375 1.046875 -0.4375q0.609375 0 1.03125 0.4375q0.421875 0.421875 0.421875 1.046875q0 0.625 -0.421875 1.0625q-0.421875 0.4375 -1.03125 0.4375zm1.0625 2.125l0 13.15625l-2.1875 0l0 -13.15625l2.1875 0zm9.450867 13.375q-1.84375 0 -3.34375 -0.84375q-1.5 -0.84375 -2.359375 -2.390625q-0.84375 -1.546875 -0.84375 -3.578125q0 -2.015625 0.875 -3.5625q0.875 -1.5625 2.390625 -2.390625q1.515625 -0.828125 3.390625 -0.828125q1.859375 0 3.375 0.828125q1.515625 0.828125 2.390625 2.375q0.875 1.53125 0.875 3.578125q0 2.03125 -0.90625 3.578125q-0.890625 1.546875 -2.4375 2.390625q-1.53125 0.84375 -3.40625 0.84375zm0 -1.921875q1.1875 0 2.21875 -0.546875q1.03125 -0.5625 1.65625 -1.65625q0.640625 -1.109375 0.640625 -2.6875q0 -1.59375 -0.625 -2.6875q-0.625 -1.109375 -1.640625 -1.640625q-1.0 -0.546875 -2.171875 -0.546875q-1.203125 0 -2.203125 0.546875q-0.984375 0.53125 -1.59375 1.640625q-0.59375 1.09375 -0.59375 2.6875q0 1.609375 0.578125 2.71875q0.59375 1.09375 1.578125 1.640625q0.984375 0.53125 2.15625 0.53125zm16.03183 -11.6875q2.40625 0 3.890625 1.453125q1.484375 1.453125 1.484375 4.1875l0 7.75l-2.15625 0l0 -7.4375q0 -1.96875 -0.984375 -3.015625q-0.984375 -1.046875 -2.6875 -1.046875q-1.71875 0 -2.75 1.078125q-1.015625 1.078125 -1.015625 3.15625l0 7.265625l-2.1875 0l0 -13.15625l2.1875 0l0 1.875q0.65625 -1.0 1.765625 -1.546875q1.109375 -0.5625 2.453125 -0.5625zm20.580444 -3.34375q2.734375 0 4.734375 1.03125q2.0 1.015625 3.0625 2.921875q1.078125 1.890625 1.078125 4.453125q0 2.5625 -1.078125 4.453125q-1.0625 1.890625 -3.0625 2.890625q-2.0 0.984375 -4.734375 0.984375l-5.2187805 0l0 -16.734375l5.2187805 0zm0 14.9375q3.234375 0 4.9375 -1.71875q1.703125 -1.71875 1.703125 -4.8125q0 -3.125 -1.71875 -4.875q-1.71875 -1.75 -4.921875 -1.75l-3.0312805 0l0 13.15625l3.0312805 0zm12.874207 -13.484375q-0.609375 0 -1.046875 -0.4375q-0.4375 -0.4375 -0.4375 -1.0625q0 -0.625 0.4375 -1.046875q0.4375 -0.4375 1.046875 -0.4375q0.609375 0 1.03125 0.4375q0.421875 0.421875 0.421875 1.046875q0 0.625 -0.421875 1.0625q-0.421875 0.4375 -1.03125 0.4375zm1.0625 2.125l0 13.15625l-2.1875 0l0 -13.15625l2.1875 0zm5.9039917 2.140625q0.578125 -1.125 1.640625 -1.75q1.078125 -0.625 2.609375 -0.625l0 2.25l-0.578125 0q-3.671875 0 -3.671875 3.984375l0 7.15625l-2.1875 0l0 -13.15625l2.1875 0l0 2.140625zm18.764465 3.9375q0 0.625 -0.0625 1.3125l-10.515625 0q0.125 1.953125 1.328125 3.046875q1.21875 1.09375 2.9375 1.09375q1.421875 0 2.359375 -0.65625q0.953125 -0.671875 1.34375 -1.78125l2.34375 0q-0.515625 1.90625 -2.109375 3.09375q-1.578125 1.1875 -3.9375 1.1875q-1.875 0 -3.34375 -0.84375q-1.46875 -0.84375 -2.3125 -2.390625q-0.84375 -1.546875 -0.84375 -3.578125q0 -2.046875 0.8125 -3.578125q0.8125 -1.546875 2.28125 -2.375q1.484375 -0.828125 3.40625 -0.828125q1.875 0 3.3125 0.828125q1.4375 0.8125 2.21875 2.25q0.78125 1.421875 0.78125 3.21875zm-2.25 -0.453125q0 -1.25 -0.5625 -2.140625q-0.546875 -0.90625 -1.5 -1.375q-0.9375 -0.46875 -2.09375 -0.46875q-1.65625 0 -2.828125 1.0625q-1.15625 1.046875 -1.328125 2.921875l8.3125 0zm4.317444 0.9375q0 -2.046875 0.8125 -3.5625q0.8125 -1.53125 2.265625 -2.375q1.453125 -0.84375 3.328125 -0.84375q2.421875 0 4.0 1.1875q1.578125 1.171875 2.078125 3.265625l-2.359375 0q-0.328125 -1.203125 -1.3125 -1.890625q-0.96875 -0.703125 -2.40625 -0.703125q-1.875 0 -3.03125 1.28125q-1.140625 1.28125 -1.140625 3.640625q0 2.375 1.140625 3.671875q1.15625 1.296875 3.03125 1.296875q1.4375 0 2.390625 -0.671875q0.96875 -0.671875 1.328125 -1.921875l2.359375 0q-0.53125 2.015625 -2.125 3.234375q-1.578125 1.203125 -3.953125 1.203125q-1.875 0 -3.328125 -0.84375q-1.453125 -0.84375 -2.265625 -2.375q-0.8125 -1.53125 -0.8125 -3.59375zm18.052368 -4.765625l0 7.765625q0 0.953125 0.40625 1.359375q0.40625 0.390625 1.421875 0.390625l1.59375 0l0 1.84375l-1.96875 0q-1.8125 0 -2.734375 -0.84375q-0.90625 -0.84375 -0.90625 -2.75l0 -7.765625l-1.703125 0l0 -1.796875l1.703125 0l0 -3.3125l2.1875 0l0 3.3125l3.421875 0l0 1.796875l-3.421875 0zm11.798462 11.578125q-1.84375 0 -3.34375 -0.84375q-1.5 -0.84375 -2.359375 -2.390625q-0.84375 -1.546875 -0.84375 -3.578125q0 -2.015625 0.875 -3.5625q0.875 -1.5625 2.390625 -2.390625q1.515625 -0.828125 3.390625 -0.828125q1.859375 0 3.375 0.828125q1.515625 0.828125 2.390625 2.375q0.875 1.53125 0.875 3.578125q0 2.03125 -0.90625 3.578125q-0.890625 1.546875 -2.4375 2.390625q-1.53125 0.84375 -3.40625 0.84375zm0 -1.921875q1.1875 0 2.21875 -0.546875q1.03125 -0.5625 1.65625 -1.65625q0.640625 -1.109375 0.640625 -2.6875q0 -1.59375 -0.625 -2.6875q-0.625 -1.109375 -1.640625 -1.640625q-1.0 -0.546875 -2.171875 -0.546875q-1.203125 0 -2.203125 0.546875q-0.984375 0.53125 -1.59375 1.640625q-0.59375 1.09375 -0.59375 2.6875q0 1.609375 0.578125 2.71875q0.59375 1.09375 1.578125 1.640625q0.984375 0.53125 2.15625 0.53125zm11.81311 -9.3125q0.578125 -1.125 1.640625 -1.75q1.078125 -0.625 2.609375 -0.625l0 2.25l-0.578125 0q-3.671875 0 -3.671875 3.984375l0 7.15625l-2.1875 0l0 -13.15625l2.1875 0l0 2.140625zm18.09259 -2.140625l-7.921875 19.34375l-2.25 0l2.59375 -6.328125l-5.3125 -13.015625l2.4375 0l4.125 10.65625l4.078125 -10.65625l2.25 0z" fill-rule="nonzero"/><path fill="#666666" d="m197.18353 186.28156l0 0c0 -18.084991 14.660782 -32.745773 32.745773 -32.745773l130.97917 0l0 0c8.684723 0 17.013733 3.449997 23.154755 9.591019c6.1410217 6.1410217 9.591003 14.470047 9.591003 23.154755l0 313.1044c0 18.084991 -14.660767 32.745758 -32.745758 32.745758l-130.97917 0c-18.084991 0 -32.745773 -14.660767 -32.745773 -32.745758z" fill-rule="evenodd"/><path stroke="#000000" stroke-width="3.0" stroke-linejoin="round" stroke-linecap="butt" d="m197.18353 186.28156l0 0c0 -18.084991 14.660782 -32.745773 32.745773 -32.745773l130.97917 0l0 0c8.684723 0 17.013733 3.449997 23.154755 9.591019c6.1410217 6.1410217 9.591003 14.470047 9.591003 23.154755l0 313.1044c0 18.084991 -14.660767 32.745758 -32.745758 32.745758l-130.97917 0c-18.084991 0 -32.745773 -14.660767 -32.745773 -32.745758z" fill-rule="evenodd"/><path fill="#ffffff" d="m246.90794 189.63937l0 1.78125l-7.265625 0l0 5.640625l5.90625 0l0 1.78125l-5.90625 0l0 7.53125l-2.1875 0l0 -16.734375l9.453125 0zm3.7678375 1.453125q-0.609375 0 -1.046875 -0.4375q-0.4375 -0.4375 -0.4375 -1.0625q0 -0.625 0.4375 -1.046875q0.4375 -0.4375 1.046875 -0.4375q0.609375 0 1.03125 0.4375q0.421875 0.421875 0.421875 1.046875q0 0.625 -0.421875 1.0625q-0.421875 0.4375 -1.03125 0.4375zm1.0625 2.125l0 13.15625l-2.1875 0l0 -13.15625l2.1875 0zm10.591461 13.15625l-3.125 -4.890625l-3.0 4.890625l-2.2812347 0l4.2499847 -6.53125l-4.2499847 -6.625l2.4687347 0l3.125 4.875l2.96875 -4.875l2.28125 0l-4.21875 6.515625l4.25 6.640625l-2.46875 0zm16.620972 -7.078125q0 0.625 -0.0625 1.3125l-10.515625 0q0.125 1.953125 1.328125 3.046875q1.21875 1.09375 2.9375 1.09375q1.421875 0 2.359375 -0.65625q0.953125 -0.671875 1.34375 -1.78125l2.34375 0q-0.515625 1.90625 -2.109375 3.09375q-1.578125 1.1875 -3.9375 1.1875q-1.875 0 -3.34375 -0.84375q-1.46875 -0.84375 -2.3125 -2.390625q-0.84375 -1.546875 -0.84375 -3.578125q0 -2.046875 0.8125 -3.578125q0.8125 -1.546875 2.28125 -2.375q1.484375 -0.828125 3.40625 -0.828125q1.875 0 3.3125 0.828125q1.4375 0.8125 2.21875 2.25q0.78125 1.421875 0.78125 3.21875zm-2.25 -0.453125q0 -1.25 -0.5625 -2.140625q-0.546875 -0.90625 -1.5 -1.375q-0.9375 -0.46875 -2.09375 -0.46875q-1.65625 0 -2.828125 1.0625q-1.15625 1.046875 -1.328125 2.921875l8.3125 0zm4.3174744 0.90625q0 -2.015625 0.8125 -3.53125q0.8125 -1.53125 2.234375 -2.375q1.4375 -0.84375 3.21875 -0.84375q1.53125 0 2.84375 0.71875q1.328125 0.703125 2.03125 1.859375l0 -6.96875l2.203125 0l0 17.765625l-2.203125 0l0 -2.46875q-0.65625 1.171875 -1.9375 1.9375q-1.265625 0.75 -2.96875 0.75q-1.75 0 -3.1875 -0.859375q-1.421875 -0.875 -2.234375 -2.421875q-0.8125 -1.5625 -0.8125 -3.5625zm11.140625 0.03125q0 -1.5 -0.609375 -2.59375q-0.59375 -1.109375 -1.625 -1.6875q-1.015625 -0.59375 -2.234375 -0.59375q-1.21875 0 -2.234375 0.578125q-1.0 0.578125 -1.609375 1.6875q-0.59375 1.09375 -0.59375 2.578125q0 1.515625 0.59375 2.640625q0.609375 1.109375 1.609375 1.703125q1.015625 0.578125 2.234375 0.578125q1.21875 0 2.234375 -0.578125q1.03125 -0.59375 1.625 -1.703125q0.609375 -1.125 0.609375 -2.609375zm15.020813 -3.125l0 1.84375l-9.578125 0l0 -1.84375l9.578125 0zm9.4114685 9.890625q-1.65625 0 -2.96875 -0.59375q-1.3125 -0.59375 -2.0625 -1.625q-0.734375 -1.046875 -0.75 -2.421875l2.328125 0q0.109375 1.1875 0.953125 1.984375q0.859375 0.796875 2.5 0.796875q1.5625 0 2.453125 -0.765625q0.90625 -0.78125 0.90625 -2.015625q0 -0.953125 -0.53125 -1.546875q-0.53125 -0.609375 -1.328125 -0.921875q-0.78125 -0.3125 -2.125 -0.671875q-1.65625 -0.4375 -2.65625 -0.859375q-1.0 -0.4375 -1.703125 -1.359375q-0.703125 -0.921875 -0.703125 -2.484375q0 -1.375 0.6875 -2.421875q0.703125 -1.0625 1.953125 -1.625q1.265625 -0.578125 2.90625 -0.578125q2.34375 0 3.84375 1.171875q1.5 1.171875 1.6875 3.125l-2.390625 0q-0.125 -0.96875 -1.015625 -1.703125q-0.890625 -0.734375 -2.34375 -0.734375q-1.375 0 -2.234375 0.71875q-0.859375 0.703125 -0.859375 1.96875q0 0.921875 0.515625 1.5q0.515625 0.578125 1.265625 0.875q0.75 0.296875 2.125 0.671875q1.65625 0.46875 2.65625 0.921875q1.015625 0.4375 1.734375 1.359375q0.71875 0.921875 0.71875 2.5q0 1.21875 -0.65625 2.3125q-0.640625 1.078125 -1.921875 1.75q-1.265625 0.671875 -2.984375 0.671875zm9.900452 -15.453125q-0.609375 0 -1.046875 -0.4375q-0.4375 -0.4375 -0.4375 -1.0625q0 -0.625 0.4375 -1.046875q0.4375 -0.4375 1.046875 -0.4375q0.609375 0 1.03125 0.4375q0.421875 0.421875 0.421875 1.046875q0 0.625 -0.421875 1.0625q-0.421875 0.4375 -1.03125 0.4375zm1.0625 2.125l0 13.15625l-2.1875 0l0 -13.15625l2.1875 0zm5.3571167 11.359375l6.453125 0l0 1.796875l-8.953125 0l0 -1.796875l6.390625 -9.578125l-6.34375 0l0 -1.78125l8.859375 0l0 1.78125l-6.40625 9.578125zm21.279327 -5.28125q0 0.625 -0.0625 1.3125l-10.515625 0q0.125 1.953125 1.328125 3.046875q1.21875 1.09375 2.9375 1.09375q1.421875 0 2.359375 -0.65625q0.953125 -0.671875 1.34375 -1.78125l2.34375 0q-0.515625 1.90625 -2.109375 3.09375q-1.578125 1.1875 -3.9375 1.1875q-1.875 0 -3.34375 -0.84375q-1.46875 -0.84375 -2.3125 -2.390625q-0.84375 -1.546875 -0.84375 -3.578125q0 -2.046875 0.8125 -3.578125q0.8125 -1.546875 2.28125 -2.375q1.484375 -0.828125 3.40625 -0.828125q1.875 0 3.3125 0.828125q1.4375 0.8125 2.21875 2.25q0.78125 1.421875 0.78125 3.21875zm-2.25 -0.453125q0 -1.25 -0.5625 -2.140625q-0.546875 -0.90625 -1.5 -1.375q-0.9375 -0.46875 -2.09375 -0.46875q-1.65625 0 -2.828125 1.0625q-1.15625 1.046875 -1.328125 2.921875l8.3125 0z" fill-rule="nonzero"/><path fill="#ffffff" d="m278.75958 218.63939l0 1.78125l-4.5625 0l0 14.953125l-2.171875 0l0 -14.953125l-4.59375 0l0 -1.78125l11.328125 0zm14.015228 3.578125l-7.921875 19.34375l-2.25 0l2.59375 -6.328125l-5.3125 -13.015625l2.4375 0l4.125 10.65625l4.078125 -10.65625l2.25 0zm4.371338 2.421875q0.65625 -1.125 1.9375 -1.875q1.28125 -0.765625 2.984375 -0.765625q1.75 0 3.171875 0.84375q1.4375 0.84375 2.25 2.375q0.8125 1.515625 0.8125 3.53125q0 2.0 -0.8125 3.5625q-0.8125 1.546875 -2.25 2.421875q-1.421875 0.859375 -3.171875 0.859375q-1.6875 0 -2.96875 -0.75q-1.28125 -0.765625 -1.953125 -1.890625l0 8.65625l-2.1875 0l0 -19.390625l2.1875 0l0 2.421875zm8.921875 4.109375q0 -1.484375 -0.59375 -2.578125q-0.59375 -1.109375 -1.625 -1.6875q-1.015625 -0.578125 -2.234375 -0.578125q-1.203125 0 -2.234375 0.59375q-1.015625 0.578125 -1.625 1.703125q-0.609375 1.109375 -0.609375 2.578125q0 1.484375 0.609375 2.609375q0.609375 1.109375 1.625 1.703125q1.03125 0.578125 2.234375 0.578125q1.21875 0 2.234375 -0.578125q1.03125 -0.59375 1.625 -1.703125q0.59375 -1.125 0.59375 -2.640625zm17.114563 -0.453125q0 0.625 -0.0625 1.3125l-10.515625 0q0.125 1.953125 1.328125 3.046875q1.21875 1.09375 2.9375 1.09375q1.421875 0 2.359375 -0.65625q0.953125 -0.671875 1.34375 -1.78125l2.34375 0q-0.515625 1.90625 -2.109375 3.09375q-1.578125 1.1875 -3.9375 1.1875q-1.875 0 -3.34375 -0.84375q-1.46875 -0.84375 -2.3125 -2.390625q-0.84375 -1.546875 -0.84375 -3.578125q0 -2.046875 0.8125 -3.578125q0.8125 -1.546875 2.28125 -2.375q1.484375 -0.828125 3.40625 -0.828125q1.875 0 3.3125 0.828125q1.4375 0.8125 2.21875 2.25q0.78125 1.421875 0.78125 3.21875zm-2.25 -0.453125q0 -1.25 -0.5625 -2.140625q-0.546875 -0.90625 -1.5 -1.375q-0.9375 -0.46875 -2.09375 -0.46875q-1.65625 0 -2.828125 1.0625q-1.15625 1.046875 -1.328125 2.921875l8.3125 0z" fill-rule="nonzero"/><path fill="#d14770" d="m200.90356 311.9901l0 0c0 -17.400146 14.105591 -31.505737 31.505737 -31.505737l126.019165 0l0 0c8.3558655 0 16.369476 3.319336 22.277924 9.227814c5.908478 5.908478 9.227814 13.922089 9.227814 22.277924l0 184.38123c0 17.400146 -14.105591 31.505737 -31.505737 31.505737l-126.019165 0c-17.400146 0 -31.505737 -14.105591 -31.505737 -31.505737z" fill-rule="evenodd"/><path stroke="#0d0d0d" stroke-width="3.0" stroke-linejoin="round" stroke-linecap="butt" d="m200.90356 311.9901l0 0c0 -17.400146 14.105591 -31.505737 31.505737 -31.505737l126.019165 0l0 0c8.3558655 0 16.369476 3.319336 22.277924 9.227814c5.908478 5.908478 9.227814 13.922089 9.227814 22.277924l0 184.38123c0 17.400146 -14.105591 31.505737 -31.505737 31.505737l-126.019165 0c-17.400146 0 -31.505737 -14.105591 -31.505737 -31.505737z" fill-rule="evenodd"/><path fill="#ffffff" d="m216.55438 365.84573q0 -2.453125 1.09375 -4.40625q1.109375 -1.953125 3.015625 -3.046875q1.921875 -1.109375 4.25 -1.109375q2.734375 0 4.765625 1.328125q2.046875 1.3125 2.984375 3.734375l-2.625 0q-0.6875 -1.515625 -2.0 -2.328125q-1.3125 -0.828125 -3.125 -0.828125q-1.765625 0 -3.15625 0.828125q-1.390625 0.8125 -2.1875 2.3125q-0.78125 1.5 -0.78125 3.515625q0 1.984375 0.78125 3.484375q0.796875 1.5 2.1875 2.328125q1.390625 0.8125 3.15625 0.8125q1.8125 0 3.125 -0.796875q1.3125 -0.8125 2.0 -2.328125l2.625 0q-0.9375 2.40625 -2.984375 3.71875q-2.03125 1.296875 -4.765625 1.296875q-2.328125 0 -4.25 -1.09375q-1.90625 -1.09375 -3.015625 -3.03125q-1.09375 -1.9375 -1.09375 -4.390625zm25.074814 8.59375q-1.84375 0 -3.34375 -0.84375q-1.5 -0.84375 -2.359375 -2.390625q-0.84375 -1.546875 -0.84375 -3.578125q0 -2.015625 0.875 -3.5625q0.875 -1.5625 2.390625 -2.390625q1.515625 -0.828125 3.390625 -0.828125q1.859375 0 3.375 0.828125q1.515625 0.828125 2.390625 2.375q0.875 1.53125 0.875 3.578125q0 2.03125 -0.90625 3.578125q-0.890625 1.546875 -2.4375 2.390625q-1.53125 0.84375 -3.40625 0.84375zm0 -1.921875q1.1875 0 2.21875 -0.546875q1.03125 -0.5625 1.65625 -1.65625q0.640625 -1.109375 0.640625 -2.6875q0 -1.59375 -0.625 -2.6875q-0.625 -1.109375 -1.640625 -1.640625q-1.0 -0.546875 -2.171875 -0.546875q-1.203125 0 -2.203125 0.546875q-0.984375 0.53125 -1.59375 1.640625q-0.59375 1.09375 -0.59375 2.6875q0 1.609375 0.578125 2.71875q0.59375 1.09375 1.578125 1.640625q0.984375 0.53125 2.15625 0.53125zm11.81308 -16.0625l0 17.765625l-2.1875 0l0 -17.765625l2.1875 0zm15.388351 4.609375l0 13.15625l-2.1875 0l0 -1.9375q-0.625 1.0 -1.75 1.5625q-1.109375 0.5625 -2.453125 0.5625q-1.53125 0 -2.765625 -0.625q-1.21875 -0.640625 -1.921875 -1.90625q-0.703125 -1.28125 -0.703125 -3.109375l0 -7.703125l2.15625 0l0 7.421875q0 1.9375 0.984375 2.984375q0.984375 1.046875 2.6875 1.046875q1.75 0 2.75 -1.078125q1.015625 -1.078125 1.015625 -3.140625l0 -7.234375l2.1875 0zm19.50058 -0.234375q1.546875 0 2.734375 0.640625q1.203125 0.625 1.890625 1.90625q0.703125 1.265625 0.703125 3.09375l0 7.75l-2.15625 0l0 -7.4375q0 -1.96875 -0.96875 -3.015625q-0.96875 -1.046875 -2.625 -1.046875q-1.703125 0 -2.71875 1.09375q-1.0 1.09375 -1.0 3.15625l0 7.25l-2.15625 0l0 -7.4375q0 -1.96875 -0.984375 -3.015625q-0.96875 -1.046875 -2.625 -1.046875q-1.703125 0 -2.71875 1.09375q-1.0 1.09375 -1.0 3.15625l0 7.25l-2.1875 0l0 -13.15625l2.1875 0l0 1.90625q0.65625 -1.03125 1.734375 -1.578125q1.09375 -0.5625 2.421875 -0.5625q1.65625 0 2.921875 0.75q1.28125 0.734375 1.90625 2.171875q0.546875 -1.390625 1.8125 -2.15625q1.28125 -0.765625 2.828125 -0.765625zm15.31366 0q2.40625 0 3.890625 1.453125q1.484375 1.453125 1.484375 4.1875l0 7.75l-2.15625 0l0 -7.4375q0 -1.96875 -0.984375 -3.015625q-0.984375 -1.046875 -2.6875 -1.046875q-1.71875 0 -2.75 1.078125q-1.015625 1.078125 -1.015625 3.15625l0 7.265625l-2.1875 0l0 -13.15625l2.1875 0l0 1.875q0.65625 -1.0 1.765625 -1.546875q1.109375 -0.5625 2.453125 -0.5625zm20.580444 -3.34375q2.734375 0 4.734375 1.03125q2.0 1.015625 3.0625 2.921875q1.078125 1.890625 1.078125 4.453125q0 2.5625 -1.078125 4.453125q-1.0625 1.890625 -3.0625 2.890625q-2.0 0.984375 -4.734375 0.984375l-5.21875 0l0 -16.734375l5.21875 0zm0 14.9375q3.234375 0 4.9375 -1.71875q1.703125 -1.71875 1.703125 -4.8125q0 -3.125 -1.71875 -4.875q-1.71875 -1.75 -4.921875 -1.75l-3.03125 0l0 13.15625l3.03125 0zm10.936707 -4.828125q0 -2.015625 0.8125 -3.53125q0.8125 -1.53125 2.234375 -2.375q1.4375 -0.84375 3.1875 -0.84375q1.734375 0 3.0 0.75q1.28125 0.75 1.90625 1.875l0 -2.40625l2.203125 0l0 13.15625l-2.203125 0l0 -2.453125q-0.65625 1.15625 -1.9375 1.921875q-1.28125 0.75 -2.984375 0.75q-1.75 0 -3.171875 -0.859375q-1.421875 -0.875 -2.234375 -2.421875q-0.8125 -1.5625 -0.8125 -3.5625zm11.140625 0.03125q0 -1.5 -0.609375 -2.59375q-0.59375 -1.109375 -1.625 -1.6875q-1.015625 -0.59375 -2.234375 -0.59375q-1.21875 0 -2.234375 0.578125q-1.0 0.578125 -1.609375 1.6875q-0.59375 1.09375 -0.59375 2.578125q0 1.515625 0.59375 2.640625q0.609375 1.109375 1.609375 1.703125q1.015625 0.578125 2.234375 0.578125q1.21875 0 2.234375 -0.578125q1.03125 -0.59375 1.625 -1.703125q0.609375 -1.125 0.609375 -2.609375zm8.5677185 -4.765625l0 7.765625q0 0.953125 0.40625 1.359375q0.40625 0.390625 1.421875 0.390625l1.59375 0l0 1.84375l-1.96875 0q-1.8125 0 -2.734375 -0.84375q-0.90625 -0.84375 -0.90625 -2.75l0 -7.765625l-1.703125 0l0 -1.796875l1.703125 0l0 -3.3125l2.1875 0l0 3.3125l3.421875 0l0 1.796875l-3.421875 0zm5.251587 4.734375q0 -2.015625 0.8125 -3.53125q0.8125 -1.53125 2.234375 -2.375q1.4375 -0.84375 3.1875 -0.84375q1.734375 0 3.0 0.75q1.28125 0.75 1.90625 1.875l0 -2.40625l2.203125 0l0 13.15625l-2.203125 0l0 -2.453125q-0.65625 1.15625 -1.9375 1.921875q-1.28125 0.75 -2.984375 0.75q-1.75 0 -3.171875 -0.859375q-1.421875 -0.875 -2.234375 -2.421875q-0.8125 -1.5625 -0.8125 -3.5625zm11.140625 0.03125q0 -1.5 -0.609375 -2.59375q-0.59375 -1.109375 -1.625 -1.6875q-1.015625 -0.59375 -2.234375 -0.59375q-1.21875 0 -2.234375 0.578125q-1.0 0.578125 -1.609375 1.6875q-0.59375 1.09375 -0.59375 2.578125q0 1.515625 0.59375 2.640625q0.609375 1.109375 1.609375 1.703125q1.015625 0.578125 2.234375 0.578125q1.21875 0 2.234375 -0.578125q1.03125 -0.59375 1.625 -1.703125q0.609375 -1.125 0.609375 -2.609375z" fill-rule="nonzero"/><path fill="#ffffff" d="m287.32382 386.48636l0 1.78125l-7.265625 0l0 5.640625l5.90625 0l0 1.78125l-5.90625 0l0 7.53125l-2.1875 0l0 -16.734375l9.453125 0zm3.7678528 1.453125q-0.609375 0 -1.046875 -0.4375q-0.4375 -0.4375 -0.4375 -1.0625q0 -0.625 0.4375 -1.046875q0.4375 -0.4375 1.046875 -0.4375q0.609375 0 1.03125 0.4375q0.421875 0.421875 0.421875 1.046875q0 0.625 -0.421875 1.0625q-0.421875 0.4375 -1.03125 0.4375zm1.0625 2.125l0 13.15625l-2.1875 0l0 -13.15625l2.1875 0zm5.903961 -4.609375l0 17.765625l-2.1875 0l0 -17.765625l2.1875 0zm15.716492 10.6875q0 0.625 -0.0625 1.3125l-10.515625 0q0.125 1.953125 1.328125 3.046875q1.21875 1.09375 2.9375 1.09375q1.421875 0 2.359375 -0.65625q0.953125 -0.671875 1.34375 -1.78125l2.34375 0q-0.515625 1.90625 -2.109375 3.09375q-1.578125 1.1875 -3.9375 1.1875q-1.875 0 -3.34375 -0.84375q-1.46875 -0.84375 -2.3125 -2.390625q-0.84375 -1.546875 -0.84375 -3.578125q0 -2.046875 0.8125 -3.578125q0.8125 -1.546875 2.28125 -2.375q1.484375 -0.828125 3.40625 -0.828125q1.875 0 3.3125 0.828125q1.4375 0.8125 2.21875 2.25q0.78125 1.421875 0.78125 3.21875zm-2.25 -0.453125q0 -1.25 -0.5625 -2.140625q-0.546875 -0.90625 -1.5 -1.375q-0.9375 -0.46875 -2.09375 -0.46875q-1.65625 0 -2.828125 1.0625q-1.15625 1.046875 -1.328125 2.921875l8.3125 0z" fill-rule="nonzero"/><path fill="#666666" d="m408.04056 186.28156l0 0c0 -18.084991 14.660797 -32.745773 32.74579 -32.745773l130.97916 0l0 0c8.684692 0 17.013733 3.449997 23.154724 9.591019c6.1410522 6.1410217 9.591064 14.470047 9.591064 23.154755l0 313.1044c0 18.084991 -14.660828 32.745758 -32.74579 32.745758l-130.97916 0c-18.084991 0 -32.74579 -14.660767 -32.74579 -32.745758z" fill-rule="evenodd"/><path stroke="#000000" stroke-width="3.0" stroke-linejoin="round" stroke-linecap="butt" d="m408.04056 186.28156l0 0c0 -18.084991 14.660797 -32.745773 32.74579 -32.745773l130.97916 0l0 0c8.684692 0 17.013733 3.449997 23.154724 9.591019c6.1410522 6.1410217 9.591064 14.470047 9.591064 23.154755l0 313.1044c0 18.084991 -14.660828 32.745758 -32.74579 32.745758l-130.97916 0c-18.084991 0 -32.74579 -14.660767 -32.74579 -32.745758z" fill-rule="evenodd"/><path fill="#ffffff" d="m457.76498 189.63937l0 1.78125l-7.265625 0l0 5.640625l5.90625 0l0 1.78125l-5.90625 0l0 7.53125l-2.1875 0l0 -16.734375l9.453125 0zm3.7678223 1.453125q-0.609375 0 -1.046875 -0.4375q-0.4375 -0.4375 -0.4375 -1.0625q0 -0.625 0.4375 -1.046875q0.4375 -0.4375 1.046875 -0.4375q0.609375 0 1.03125 0.4375q0.421875 0.421875 0.421875 1.046875q0 0.625 -0.421875 1.0625q-0.421875 0.4375 -1.03125 0.4375zm1.0625 2.125l0 13.15625l-2.1875 0l0 -13.15625l2.1875 0zm10.591492 13.15625l-3.125 -4.890625l-3.0 4.890625l-2.28125 0l4.25 -6.53125l-4.25 -6.625l2.46875 0l3.125 4.875l2.96875 -4.875l2.28125 0l-4.21875 6.515625l4.25 6.640625l-2.46875 0zm16.620972 -7.078125q0 0.625 -0.0625 1.3125l-10.515625 0q0.125 1.953125 1.328125 3.046875q1.21875 1.09375 2.9375 1.09375q1.421875 0 2.359375 -0.65625q0.953125 -0.671875 1.34375 -1.78125l2.34375 0q-0.515625 1.90625 -2.109375 3.09375q-1.578125 1.1875 -3.9375 1.1875q-1.875 0 -3.34375 -0.84375q-1.46875 -0.84375 -2.3125 -2.390625q-0.84375 -1.546875 -0.84375 -3.578125q0 -2.046875 0.8125 -3.578125q0.8125 -1.546875 2.28125 -2.375q1.484375 -0.828125 3.40625 -0.828125q1.875 0 3.3125 0.828125q1.4375 0.8125 2.21875 2.25q0.78125 1.421875 0.78125 3.21875zm-2.25 -0.453125q0 -1.25 -0.5625 -2.140625q-0.546875 -0.90625 -1.5 -1.375q-0.9375 -0.46875 -2.09375 -0.46875q-1.65625 0 -2.828125 1.0625q-1.15625 1.046875 -1.328125 2.921875l8.3125 0zm4.317444 0.90625q0 -2.015625 0.8125 -3.53125q0.8125 -1.53125 2.234375 -2.375q1.4375 -0.84375 3.21875 -0.84375q1.53125 0 2.84375 0.71875q1.328125 0.703125 2.03125 1.859375l0 -6.96875l2.203125 0l0 17.765625l-2.203125 0l0 -2.46875q-0.65625 1.171875 -1.9375 1.9375q-1.265625 0.75 -2.96875 0.75q-1.75 0 -3.1875 -0.859375q-1.421875 -0.875 -2.234375 -2.421875q-0.8125 -1.5625 -0.8125 -3.5625zm11.140625 0.03125q0 -1.5 -0.609375 -2.59375q-0.59375 -1.109375 -1.625 -1.6875q-1.015625 -0.59375 -2.234375 -0.59375q-1.21875 0 -2.234375 0.578125q-1.0 0.578125 -1.609375 1.6875q-0.59375 1.09375 -0.59375 2.578125q0 1.515625 0.59375 2.640625q0.609375 1.109375 1.609375 1.703125q1.015625 0.578125 2.234375 0.578125q1.21875 0 2.234375 -0.578125q1.03125 -0.59375 1.625 -1.703125q0.609375 -1.125 0.609375 -2.609375zm15.0208435 -3.125l0 1.84375l-9.578125 0l0 -1.84375l9.578125 0zm9.411438 9.890625q-1.65625 0 -2.96875 -0.59375q-1.3125 -0.59375 -2.0625 -1.625q-0.734375 -1.046875 -0.75 -2.421875l2.328125 0q0.109375 1.1875 0.953125 1.984375q0.859375 0.796875 2.5 0.796875q1.5625 0 2.453125 -0.765625q0.90625 -0.78125 0.90625 -2.015625q0 -0.953125 -0.53125 -1.546875q-0.53125 -0.609375 -1.328125 -0.921875q-0.78125 -0.3125 -2.125 -0.671875q-1.65625 -0.4375 -2.65625 -0.859375q-1.0 -0.4375 -1.703125 -1.359375q-0.703125 -0.921875 -0.703125 -2.484375q0 -1.375 0.6875 -2.421875q0.703125 -1.0625 1.953125 -1.625q1.265625 -0.578125 2.90625 -0.578125q2.34375 0 3.84375 1.171875q1.5 1.171875 1.6875 3.125l-2.390625 0q-0.125 -0.96875 -1.015625 -1.703125q-0.890625 -0.734375 -2.34375 -0.734375q-1.375 0 -2.234375 0.71875q-0.859375 0.703125 -0.859375 1.96875q0 0.921875 0.515625 1.5q0.515625 0.578125 1.265625 0.875q0.75 0.296875 2.125 0.671875q1.65625 0.46875 2.65625 0.921875q1.015625 0.4375 1.734375 1.359375q0.71875 0.921875 0.71875 2.5q0 1.21875 -0.65625 2.3125q-0.640625 1.078125 -1.921875 1.75q-1.265625 0.671875 -2.984375 0.671875zm9.900452 -15.453125q-0.609375 0 -1.046875 -0.4375q-0.4375 -0.4375 -0.4375 -1.0625q0 -0.625 0.4375 -1.046875q0.4375 -0.4375 1.046875 -0.4375q0.609375 0 1.03125 0.4375q0.421875 0.421875 0.421875 1.046875q0 0.625 -0.421875 1.0625q-0.421875 0.4375 -1.03125 0.4375zm1.0625 2.125l0 13.15625l-2.1875 0l0 -13.15625l2.1875 0zm5.3571167 11.359375l6.453125 0l0 1.796875l-8.953125 0l0 -1.796875l6.390625 -9.578125l-6.34375 0l0 -1.78125l8.859375 0l0 1.78125l-6.40625 9.578125zm21.279358 -5.28125q0 0.625 -0.0625 1.3125l-10.515625 0q0.125 1.953125 1.328125 3.046875q1.21875 1.09375 2.9375 1.09375q1.421875 0 2.359375 -0.65625q0.953125 -0.671875 1.34375 -1.78125l2.34375 0q-0.515625 1.90625 -2.109375 3.09375q-1.578125 1.1875 -3.9375 1.1875q-1.875 0 -3.34375 -0.84375q-1.46875 -0.84375 -2.3125 -2.390625q-0.84375 -1.546875 -0.84375 -3.578125q0 -2.046875 0.8125 -3.578125q0.8125 -1.546875 2.28125 -2.375q1.484375 -0.828125 3.40625 -0.828125q1.875 0 3.3125 0.828125q1.4375 0.8125 2.21875 2.25q0.78125 1.421875 0.78125 3.21875zm-2.25 -0.453125q0 -1.25 -0.5625 -2.140625q-0.546875 -0.90625 -1.5 -1.375q-0.9375 -0.46875 -2.09375 -0.46875q-1.65625 0 -2.828125 1.0625q-1.15625 1.046875 -1.328125 2.921875l8.3125 0z" fill-rule="nonzero"/><path fill="#ffffff" d="m489.61664 218.63939l0 1.78125l-4.5625 0l0 14.953125l-2.171875 0l0 -14.953125l-4.59375 0l0 -1.78125l11.328125 0zm14.015198 3.578125l-7.921875 19.34375l-2.25 0l2.59375 -6.328125l-5.3125 -13.015625l2.4375 0l4.125 10.65625l4.078125 -10.65625l2.25 0zm4.371338 2.421875q0.65625 -1.125 1.9375 -1.875q1.28125 -0.765625 2.984375 -0.765625q1.75 0 3.171875 0.84375q1.4375 0.84375 2.25 2.375q0.8125 1.515625 0.8125 3.53125q0 2.0 -0.8125 3.5625q-0.8125 1.546875 -2.25 2.421875q-1.421875 0.859375 -3.171875 0.859375q-1.6875 0 -2.96875 -0.75q-1.28125 -0.765625 -1.953125 -1.890625l0 8.65625l-2.1875 0l0 -19.390625l2.1875 0l0 2.421875zm8.921875 4.109375q0 -1.484375 -0.59375 -2.578125q-0.59375 -1.109375 -1.625 -1.6875q-1.015625 -0.578125 -2.234375 -0.578125q-1.203125 0 -2.234375 0.59375q-1.015625 0.578125 -1.625 1.703125q-0.609375 1.109375 -0.609375 2.578125q0 1.484375 0.609375 2.609375q0.609375 1.109375 1.625 1.703125q1.03125 0.578125 2.234375 0.578125q1.21875 0 2.234375 -0.578125q1.03125 -0.59375 1.625 -1.703125q0.59375 -1.125 0.59375 -2.640625zm17.114563 -0.453125q0 0.625 -0.0625 1.3125l-10.515625 0q0.125 1.953125 1.328125 3.046875q1.21875 1.09375 2.9375 1.09375q1.421875 0 2.359375 -0.65625q0.953125 -0.671875 1.34375 -1.78125l2.34375 0q-0.515625 1.90625 -2.109375 3.09375q-1.578125 1.1875 -3.9375 1.1875q-1.875 0 -3.34375 -0.84375q-1.46875 -0.84375 -2.3125 -2.390625q-0.84375 -1.546875 -0.84375 -3.578125q0 -2.046875 0.8125 -3.578125q0.8125 -1.546875 2.28125 -2.375q1.484375 -0.828125 3.40625 -0.828125q1.875 0 3.3125 0.828125q1.4375 0.8125 2.21875 2.25q0.78125 1.421875 0.78125 3.21875zm-2.25 -0.453125q0 -1.25 -0.5625 -2.140625q-0.546875 -0.90625 -1.5 -1.375q-0.9375 -0.46875 -2.09375 -0.46875q-1.65625 0 -2.828125 1.0625q-1.15625 1.046875 -1.328125 2.921875l8.3125 0z" fill-rule="nonzero"/><path fill="#d14770" d="m411.7606 311.9901l0 0c0 -17.400146 14.105591 -31.505737 31.505737 -31.505737l126.019196 0l0 0c8.355835 0 16.369446 3.319336 22.277893 9.227814c5.9085083 5.908478 9.227844 13.922089 9.227844 22.277924l0 184.38123c0 17.400146 -14.105591 31.505737 -31.505737 31.505737l-126.019196 0c-17.400146 0 -31.505737 -14.105591 -31.505737 -31.505737z" fill-rule="evenodd"/><path stroke="#0d0d0d" stroke-width="3.0" stroke-linejoin="round" stroke-linecap="butt" d="m411.7606 311.9901l0 0c0 -17.400146 14.105591 -31.505737 31.505737 -31.505737l126.019196 0l0 0c8.355835 0 16.369446 3.319336 22.277893 9.227814c5.9085083 5.908478 9.227844 13.922089 9.227844 22.277924l0 184.38123c0 17.400146 -14.105591 31.505737 -31.505737 31.505737l-126.019196 0c-17.400146 0 -31.505737 -14.105591 -31.505737 -31.505737z" fill-rule="evenodd"/><path fill="#ffffff" d="m427.4114 365.84573q0 -2.453125 1.09375 -4.40625q1.109375 -1.953125 3.015625 -3.046875q1.921875 -1.109375 4.25 -1.109375q2.734375 0 4.765625 1.328125q2.046875 1.3125 2.984375 3.734375l-2.625 0q-0.6875 -1.515625 -2.0 -2.328125q-1.3125 -0.828125 -3.125 -0.828125q-1.765625 0 -3.15625 0.828125q-1.390625 0.8125 -2.1875 2.3125q-0.78125 1.5 -0.78125 3.515625q0 1.984375 0.78125 3.484375q0.796875 1.5 2.1875 2.328125q1.390625 0.8125 3.15625 0.8125q1.8125 0 3.125 -0.796875q1.3125 -0.8125 2.0 -2.328125l2.625 0q-0.9375 2.40625 -2.984375 3.71875q-2.03125 1.296875 -4.765625 1.296875q-2.328125 0 -4.25 -1.09375q-1.90625 -1.09375 -3.015625 -3.03125q-1.09375 -1.9375 -1.09375 -4.390625zm25.074799 8.59375q-1.84375 0 -3.34375 -0.84375q-1.5 -0.84375 -2.359375 -2.390625q-0.84375 -1.546875 -0.84375 -3.578125q0 -2.015625 0.875 -3.5625q0.875 -1.5625 2.390625 -2.390625q1.515625 -0.828125 3.390625 -0.828125q1.859375 0 3.375 0.828125q1.515625 0.828125 2.390625 2.375q0.875 1.53125 0.875 3.578125q0 2.03125 -0.90625 3.578125q-0.890625 1.546875 -2.4375 2.390625q-1.53125 0.84375 -3.40625 0.84375zm0 -1.921875q1.1875 0 2.21875 -0.546875q1.03125 -0.5625 1.65625 -1.65625q0.640625 -1.109375 0.640625 -2.6875q0 -1.59375 -0.625 -2.6875q-0.625 -1.109375 -1.640625 -1.640625q-1.0 -0.546875 -2.171875 -0.546875q-1.203125 0 -2.203125 0.546875q-0.984375 0.53125 -1.59375 1.640625q-0.59375 1.09375 -0.59375 2.6875q0 1.609375 0.578125 2.71875q0.59375 1.09375 1.578125 1.640625q0.984375 0.53125 2.15625 0.53125zm11.81308 -16.0625l0 17.765625l-2.1875 0l0 -17.765625l2.1875 0zm15.388367 4.609375l0 13.15625l-2.1875 0l0 -1.9375q-0.625 1.0 -1.75 1.5625q-1.109375 0.5625 -2.453125 0.5625q-1.53125 0 -2.765625 -0.625q-1.21875 -0.640625 -1.921875 -1.90625q-0.703125 -1.28125 -0.703125 -3.109375l0 -7.703125l2.15625 0l0 7.421875q0 1.9375 0.984375 2.984375q0.984375 1.046875 2.6875 1.046875q1.75 0 2.75 -1.078125q1.015625 -1.078125 1.015625 -3.140625l0 -7.234375l2.1875 0zm19.50058 -0.234375q1.546875 0 2.734375 0.640625q1.203125 0.625 1.890625 1.90625q0.703125 1.265625 0.703125 3.09375l0 7.75l-2.15625 0l0 -7.4375q0 -1.96875 -0.96875 -3.015625q-0.96875 -1.046875 -2.625 -1.046875q-1.703125 0 -2.71875 1.09375q-1.0 1.09375 -1.0 3.15625l0 7.25l-2.15625 0l0 -7.4375q0 -1.96875 -0.984375 -3.015625q-0.96875 -1.046875 -2.625 -1.046875q-1.703125 0 -2.71875 1.09375q-1.0 1.09375 -1.0 3.15625l0 7.25l-2.1875 0l0 -13.15625l2.1875 0l0 1.90625q0.65625 -1.03125 1.734375 -1.578125q1.09375 -0.5625 2.421875 -0.5625q1.65625 0 2.921875 0.75q1.28125 0.734375 1.90625 2.171875q0.546875 -1.390625 1.8125 -2.15625q1.28125 -0.765625 2.828125 -0.765625zm15.31366 0q2.40625 0 3.890625 1.453125q1.484375 1.453125 1.484375 4.1875l0 7.75l-2.15625 0l0 -7.4375q0 -1.96875 -0.984375 -3.015625q-0.984375 -1.046875 -2.6875 -1.046875q-1.71875 0 -2.75 1.078125q-1.015625 1.078125 -1.015625 3.15625l0 7.265625l-2.1875 0l0 -13.15625l2.1875 0l0 1.875q0.65625 -1.0 1.765625 -1.546875q1.109375 -0.5625 2.453125 -0.5625zm20.580444 -3.34375q2.734375 0 4.734375 1.03125q2.0 1.015625 3.0625 2.921875q1.078125 1.890625 1.078125 4.453125q0 2.5625 -1.078125 4.453125q-1.0625 1.890625 -3.0625 2.890625q-2.0 0.984375 -4.734375 0.984375l-5.21875 0l0 -16.734375l5.21875 0zm0 14.9375q3.234375 0 4.9375 -1.71875q1.703125 -1.71875 1.703125 -4.8125q0 -3.125 -1.71875 -4.875q-1.71875 -1.75 -4.921875 -1.75l-3.03125 0l0 13.15625l3.03125 0zm10.936707 -4.828125q0 -2.015625 0.8125 -3.53125q0.8125 -1.53125 2.234375 -2.375q1.4375 -0.84375 3.1875 -0.84375q1.734375 0 3.0 0.75q1.28125 0.75 1.90625 1.875l0 -2.40625l2.203125 0l0 13.15625l-2.203125 0l0 -2.453125q-0.65625 1.15625 -1.9375 1.921875q-1.28125 0.75 -2.984375 0.75q-1.75 0 -3.171875 -0.859375q-1.421875 -0.875 -2.234375 -2.421875q-0.8125 -1.5625 -0.8125 -3.5625zm11.140625 0.03125q0 -1.5 -0.609375 -2.59375q-0.59375 -1.109375 -1.625 -1.6875q-1.015625 -0.59375 -2.234375 -0.59375q-1.21875 0 -2.234375 0.578125q-1.0 0.578125 -1.609375 1.6875q-0.59375 1.09375 -0.59375 2.578125q0 1.515625 0.59375 2.640625q0.609375 1.109375 1.609375 1.703125q1.015625 0.578125 2.234375 0.578125q1.21875 0 2.234375 -0.578125q1.03125 -0.59375 1.625 -1.703125q0.609375 -1.125 0.609375 -2.609375zm8.567688 -4.765625l0 7.765625q0 0.953125 0.40625 1.359375q0.40625 0.390625 1.421875 0.390625l1.59375 0l0 1.84375l-1.96875 0q-1.8125 0 -2.734375 -0.84375q-0.90625 -0.84375 -0.90625 -2.75l0 -7.765625l-1.703125 0l0 -1.796875l1.703125 0l0 -3.3125l2.1875 0l0 3.3125l3.421875 0l0 1.796875l-3.421875 0zm5.251587 4.734375q0 -2.015625 0.8125 -3.53125q0.8125 -1.53125 2.234375 -2.375q1.4375 -0.84375 3.1875 -0.84375q1.734375 0 3.0 0.75q1.28125 0.75 1.90625 1.875l0 -2.40625l2.203125 0l0 13.15625l-2.203125 0l0 -2.453125q-0.65625 1.15625 -1.9375 1.921875q-1.28125 0.75 -2.984375 0.75q-1.75 0 -3.171875 -0.859375q-1.421875 -0.875 -2.234375 -2.421875q-0.8125 -1.5625 -0.8125 -3.5625zm11.140625 0.03125q0 -1.5 -0.609375 -2.59375q-0.59375 -1.109375 -1.625 -1.6875q-1.015625 -0.59375 -2.234375 -0.59375q-1.21875 0 -2.234375 0.578125q-1.0 0.578125 -1.609375 1.6875q-0.59375 1.09375 -0.59375 2.578125q0 1.515625 0.59375 2.640625q0.609375 1.109375 1.609375 1.703125q1.015625 0.578125 2.234375 0.578125q1.21875 0 2.234375 -0.578125q1.03125 -0.59375 1.625 -1.703125q0.609375 -1.125 0.609375 -2.609375z" fill-rule="nonzero"/><path fill="#ffffff" d="m498.18085 386.48636l0 1.78125l-7.265625 0l0 5.640625l5.90625 0l0 1.78125l-5.90625 0l0 7.53125l-2.1875 0l0 -16.734375l9.453125 0zm3.7678528 1.453125q-0.609375 0 -1.046875 -0.4375q-0.4375 -0.4375 -0.4375 -1.0625q0 -0.625 0.4375 -1.046875q0.4375 -0.4375 1.046875 -0.4375q0.609375 0 1.03125 0.4375q0.421875 0.421875 0.421875 1.046875q0 0.625 -0.421875 1.0625q-0.421875 0.4375 -1.03125 0.4375zm1.0625 2.125l0 13.15625l-2.1875 0l0 -13.15625l2.1875 0zm5.903961 -4.609375l0 17.765625l-2.1875 0l0 -17.765625l2.1875 0zm15.716492 10.6875q0 0.625 -0.0625 1.3125l-10.515625 0q0.125 1.953125 1.328125 3.046875q1.21875 1.09375 2.9375 1.09375q1.421875 0 2.359375 -0.65625q0.953125 -0.671875 1.34375 -1.78125l2.34375 0q-0.515625 1.90625 -2.109375 3.09375q-1.578125 1.1875 -3.9375 1.1875q-1.875 0 -3.34375 -0.84375q-1.46875 -0.84375 -2.3125 -2.390625q-0.84375 -1.546875 -0.84375 -3.578125q0 -2.046875 0.8125 -3.578125q0.8125 -1.546875 2.28125 -2.375q1.484375 -0.828125 3.40625 -0.828125q1.875 0 3.3125 0.828125q1.4375 0.8125 2.21875 2.25q0.78125 1.421875 0.78125 3.21875zm-2.25 -0.453125q0 -1.25 -0.5625 -2.140625q-0.546875 -0.90625 -1.5 -1.375q-0.9375 -0.46875 -2.09375 -0.46875q-1.65625 0 -2.828125 1.0625q-1.15625 1.046875 -1.328125 2.921875l8.3125 0z" fill-rule="nonzero"/><path fill="#666666" d="m618.8976 186.28156l0 0c0 -18.084991 14.660767 -32.745773 32.74579 -32.745773l130.97913 0l0 0c8.684753 0 17.013733 3.449997 23.154785 9.591019c6.1410522 6.1410217 9.591003 14.470047 9.591003 23.154755l0 313.1044c0 18.084991 -14.660767 32.745758 -32.74579 32.745758l-130.97913 0c-18.085022 0 -32.74579 -14.660767 -32.74579 -32.745758z" fill-rule="evenodd"/><path stroke="#000000" stroke-width="3.0" stroke-linejoin="round" stroke-linecap="butt" d="m618.8976 186.28156l0 0c0 -18.084991 14.660767 -32.745773 32.74579 -32.745773l130.97913 0l0 0c8.684753 0 17.013733 3.449997 23.154785 9.591019c6.1410522 6.1410217 9.591003 14.470047 9.591003 23.154755l0 313.1044c0 18.084991 -14.660767 32.745758 -32.74579 32.745758l-130.97913 0c-18.085022 0 -32.74579 -14.660767 -32.74579 -32.745758z" fill-rule="evenodd"/><path fill="#ffffff" d="m682.597 189.63937l-6.3125 16.734375l-2.515625 0l-6.3125 -16.734375l2.328125 0l5.25 14.4375l5.265625 -14.4375l2.296875 0zm1.583313 10.109375q0 -2.015625 0.8125 -3.53125q0.8125 -1.53125 2.234375 -2.375q1.4375 -0.84375 3.1875 -0.84375q1.734375 0 3.0 0.75q1.28125 0.75 1.90625 1.875l0 -2.40625l2.203125 0l0 13.15625l-2.203125 0l0 -2.453125q-0.65625 1.15625 -1.9375 1.921875q-1.28125 0.75 -2.984375 0.75q-1.75 0 -3.171875 -0.859375q-1.421875 -0.875 -2.234375 -2.421875q-0.8125 -1.5625 -0.8125 -3.5625zm11.140625 0.03125q0 -1.5 -0.609375 -2.59375q-0.59375 -1.109375 -1.625 -1.6875q-1.015625 -0.59375 -2.234375 -0.59375q-1.21875 0 -2.234375 0.578125q-1.0 0.578125 -1.609375 1.6875q-0.59375 1.09375 -0.59375 2.578125q0 1.515625 0.59375 2.640625q0.609375 1.109375 1.609375 1.703125q1.015625 0.578125 2.234375 0.578125q1.21875 0 2.234375 -0.578125q1.03125 -0.59375 1.625 -1.703125q0.609375 -1.125 0.609375 -2.609375zm8.083313 -4.421875q0.578125 -1.125 1.640625 -1.75q1.078125 -0.625 2.609375 -0.625l0 2.25l-0.578125 0q-3.671875 0 -3.671875 3.984375l0 7.15625l-2.1875 0l0 -13.15625l2.1875 0l0 2.140625zm15.889465 1.296875l0 1.84375l-9.578125 0l0 -1.84375l9.578125 0zm9.411499 9.890625q-1.65625 0 -2.96875 -0.59375q-1.3125 -0.59375 -2.0625 -1.625q-0.734375 -1.046875 -0.75 -2.421875l2.328125 0q0.109375 1.1875 0.953125 1.984375q0.859375 0.796875 2.5 0.796875q1.5625 0 2.453125 -0.765625q0.90625 -0.78125 0.90625 -2.015625q0 -0.953125 -0.53125 -1.546875q-0.53125 -0.609375 -1.328125 -0.921875q-0.78125 -0.3125 -2.125 -0.671875q-1.65625 -0.4375 -2.65625 -0.859375q-1.0 -0.4375 -1.703125 -1.359375q-0.703125 -0.921875 -0.703125 -2.484375q0 -1.375 0.6875 -2.421875q0.703125 -1.0625 1.953125 -1.625q1.265625 -0.578125 2.90625 -0.578125q2.34375 0 3.84375 1.171875q1.5 1.171875 1.6875 3.125l-2.390625 0q-0.125 -0.96875 -1.015625 -1.703125q-0.890625 -0.734375 -2.34375 -0.734375q-1.375 0 -2.234375 0.71875q-0.859375 0.703125 -0.859375 1.96875q0 0.921875 0.515625 1.5q0.515625 0.578125 1.265625 0.875q0.75 0.296875 2.125 0.671875q1.65625 0.46875 2.65625 0.921875q1.015625 0.4375 1.734375 1.359375q0.71875 0.921875 0.71875 2.5q0 1.21875 -0.65625 2.3125q-0.640625 1.078125 -1.921875 1.75q-1.265625 0.671875 -2.984375 0.671875zm9.900452 -15.453125q-0.609375 0 -1.046875 -0.4375q-0.4375 -0.4375 -0.4375 -1.0625q0 -0.625 0.4375 -1.046875q0.4375 -0.4375 1.046875 -0.4375q0.609375 0 1.03125 0.4375q0.421875 0.421875 0.421875 1.046875q0 0.625 -0.421875 1.0625q-0.421875 0.4375 -1.03125 0.4375zm1.0625 2.125l0 13.15625l-2.1875 0l0 -13.15625l2.1875 0zm5.3571167 11.359375l6.453125 0l0 1.796875l-8.953125 0l0 -1.796875l6.390625 -9.578125l-6.34375 0l0 -1.78125l8.859375 0l0 1.78125l-6.40625 9.578125zm21.279358 -5.28125q0 0.625 -0.0625 1.3125l-10.515686 0q0.125 1.953125 1.328186 3.046875q1.21875 1.09375 2.9375 1.09375q1.421875 0 2.359375 -0.65625q0.953125 -0.671875 1.34375 -1.78125l2.34375 0q-0.515625 1.90625 -2.109375 3.09375q-1.578125 1.1875 -3.9375 1.1875q-1.875 0 -3.34375 -0.84375q-1.468811 -0.84375 -2.312561 -2.390625q-0.84375 -1.546875 -0.84375 -3.578125q0 -2.046875 0.8125 -3.578125q0.8125 -1.546875 2.281311 -2.375q1.484375 -0.828125 3.40625 -0.828125q1.875 0 3.3125 0.828125q1.4375 0.8125 2.21875 2.25q0.78125 1.421875 0.78125 3.21875zm-2.25 -0.453125q0 -1.25 -0.5625 -2.140625q-0.546875 -0.90625 -1.5 -1.375q-0.9375 -0.46875 -2.09375 -0.46875q-1.65625 0 -2.828125 1.0625q-1.156311 1.046875 -1.328186 2.921875l8.312561 0z" fill-rule="nonzero"/><path fill="#ffffff" d="m700.47363 218.63939l0 1.78125l-4.5625 0l0 14.953125l-2.171875 0l0 -14.953125l-4.59375 0l0 -1.78125l11.328125 0zm14.015259 3.578125l-7.921875 19.34375l-2.25 0l2.59375 -6.328125l-5.3125 -13.015625l2.4375 0l4.125 10.65625l4.078125 -10.65625l2.25 0zm4.371338 2.421875q0.65625 -1.125 1.9375 -1.875q1.28125 -0.765625 2.984375 -0.765625q1.75 0 3.171875 0.84375q1.4375 0.84375 2.25 2.375q0.8125 1.515625 0.8125 3.53125q0 2.0 -0.8125 3.5625q-0.8125 1.546875 -2.25 2.421875q-1.421875 0.859375 -3.171875 0.859375q-1.6875 0 -2.96875 -0.75q-1.28125 -0.765625 -1.953125 -1.890625l0 8.65625l-2.1875 0l0 -19.390625l2.1875 0l0 2.421875zm8.921875 4.109375q0 -1.484375 -0.59375 -2.578125q-0.59375 -1.109375 -1.625 -1.6875q-1.015625 -0.578125 -2.234375 -0.578125q-1.203125 0 -2.234375 0.59375q-1.015625 0.578125 -1.625 1.703125q-0.609375 1.109375 -0.609375 2.578125q0 1.484375 0.609375 2.609375q0.609375 1.109375 1.625 1.703125q1.03125 0.578125 2.234375 0.578125q1.21875 0 2.234375 -0.578125q1.03125 -0.59375 1.625 -1.703125q0.59375 -1.125 0.59375 -2.640625zm17.114563 -0.453125q0 0.625 -0.0625 1.3125l-10.515625 0q0.125 1.953125 1.328125 3.046875q1.21875 1.09375 2.9375 1.09375q1.421875 0 2.359375 -0.65625q0.953125 -0.671875 1.34375 -1.78125l2.34375 0q-0.515625 1.90625 -2.109375 3.09375q-1.578125 1.1875 -3.9375 1.1875q-1.875 0 -3.34375 -0.84375q-1.46875 -0.84375 -2.3125 -2.390625q-0.84375 -1.546875 -0.84375 -3.578125q0 -2.046875 0.8125 -3.578125q0.8125 -1.546875 2.28125 -2.375q1.484375 -0.828125 3.40625 -0.828125q1.875 0 3.3125 0.828125q1.4375 0.8125 2.21875 2.25q0.78125 1.421875 0.78125 3.21875zm-2.25 -0.453125q0 -1.25 -0.5625 -2.140625q-0.546875 -0.90625 -1.5 -1.375q-0.9375 -0.46875 -2.09375 -0.46875q-1.65625 0 -2.828125 1.0625q-1.15625 1.046875 -1.328125 2.921875l8.3125 0z" fill-rule="nonzero"/><path fill="#d14770" d="m622.6176 297.76315l0 0c0 -9.542816 7.735962 -17.278778 17.278748 -17.278778l154.47314 0c4.5825806 0 8.977539 1.8204346 12.217957 5.060852c3.2403564 3.240387 5.060791 7.635315 5.060791 12.217926l0 69.11304c0 9.542816 -7.735962 17.278778 -17.278748 17.278778l-154.47314 0c-9.542786 0 -17.278748 -7.735962 -17.278748 -17.278778z" fill-rule="evenodd"/><path stroke="#0d0d0d" stroke-width="3.0" stroke-linejoin="round" stroke-linecap="butt" d="m622.6176 297.76315l0 0c0 -9.542816 7.735962 -17.278778 17.278748 -17.278778l154.47314 0c4.5825806 0 8.977539 1.8204346 12.217957 5.060852c3.2403564 3.240387 5.060791 7.635315 5.060791 12.217926l0 69.11304c0 9.542816 -7.735962 17.278778 -17.278748 17.278778l-154.47314 0c-9.542786 0 -17.278748 -7.735962 -17.278748 -17.278778z" fill-rule="evenodd"/><path fill="#ffffff" d="m638.26843 317.98468q0 -2.453125 1.09375 -4.40625q1.109375 -1.953125 3.015625 -3.046875q1.921875 -1.109375 4.25 -1.109375q2.734375 0 4.765625 1.328125q2.046875 1.3125 2.984375 3.734375l-2.625 0q-0.6875 -1.515625 -2.0 -2.328125q-1.3125 -0.828125 -3.125 -0.828125q-1.765625 0 -3.15625 0.828125q-1.390625 0.8125 -2.1875 2.3125q-0.78125 1.5 -0.78125 3.515625q0 1.984375 0.78125 3.484375q0.796875 1.5 2.1875 2.328125q1.390625 0.8125 3.15625 0.8125q1.8125 0 3.125 -0.796875q1.3125 -0.8125 2.0 -2.328125l2.625 0q-0.9375 2.40625 -2.984375 3.71875q-2.03125 1.296875 -4.765625 1.296875q-2.328125 0 -4.25 -1.09375q-1.90625 -1.09375 -3.015625 -3.03125q-1.09375 -1.9375 -1.09375 -4.390625zm25.07483 8.59375q-1.84375 0 -3.34375 -0.84375q-1.5 -0.84375 -2.359375 -2.390625q-0.84375 -1.546875 -0.84375 -3.578125q0 -2.015625 0.875 -3.5625q0.875 -1.5625 2.390625 -2.390625q1.515625 -0.828125 3.390625 -0.828125q1.859375 0 3.375 0.828125q1.515625 0.828125 2.390625 2.375q0.875 1.53125 0.875 3.578125q0 2.03125 -0.90625 3.578125q-0.890625 1.546875 -2.4375 2.390625q-1.53125 0.84375 -3.40625 0.84375zm0 -1.921875q1.1875 0 2.21875 -0.546875q1.03125 -0.5625 1.65625 -1.65625q0.640625 -1.109375 0.640625 -2.6875q0 -1.59375 -0.625 -2.6875q-0.625 -1.109375 -1.640625 -1.640625q-1.0 -0.546875 -2.171875 -0.546875q-1.203125 0 -2.203125 0.546875q-0.984375 0.53125 -1.59375 1.640625q-0.59375 1.09375 -0.59375 2.6875q0 1.609375 0.578125 2.71875q0.59375 1.09375 1.578125 1.640625q0.984375 0.53125 2.15625 0.53125zm11.813049 -16.0625l0 17.765625l-2.1875 0l0 -17.765625l2.1875 0zm15.388367 4.609375l0 13.15625l-2.1875 0l0 -1.9375q-0.625 1.0 -1.75 1.5625q-1.109375 0.5625 -2.453125 0.5625q-1.53125 0 -2.765625 -0.625q-1.21875 -0.640625 -1.921875 -1.90625q-0.703125 -1.28125 -0.703125 -3.109375l0 -7.703125l2.15625 0l0 7.421875q0 1.9375 0.984375 2.984375q0.984375 1.046875 2.6875 1.046875q1.75 0 2.75 -1.078125q1.015625 -1.078125 1.015625 -3.140625l0 -7.234375l2.1875 0zm19.50061 -0.234375q1.546875 0 2.734375 0.640625q1.203125 0.625 1.890625 1.90625q0.703125 1.265625 0.703125 3.09375l0 7.75l-2.15625 0l0 -7.4375q0 -1.96875 -0.96875 -3.015625q-0.96875 -1.046875 -2.625 -1.046875q-1.703125 0 -2.71875 1.09375q-1.0 1.09375 -1.0 3.15625l0 7.25l-2.15625 0l0 -7.4375q0 -1.96875 -0.984375 -3.015625q-0.96875 -1.046875 -2.625 -1.046875q-1.703125 0 -2.71875 1.09375q-1.0 1.09375 -1.0 3.15625l0 7.25l-2.1875 0l0 -13.15625l2.1875 0l0 1.90625q0.65625 -1.03125 1.734375 -1.578125q1.09375 -0.5625 2.421875 -0.5625q1.65625 0 2.921875 0.75q1.28125 0.734375 1.90625 2.171875q0.546875 -1.390625 1.8125 -2.15625q1.28125 -0.765625 2.828125 -0.765625zm15.31366 0q2.40625 0 3.890625 1.453125q1.484375 1.453125 1.484375 4.1875l0 7.75l-2.15625 0l0 -7.4375q0 -1.96875 -0.984375 -3.015625q-0.984375 -1.046875 -2.6875 -1.046875q-1.71875 0 -2.75 1.078125q-1.015625 1.078125 -1.015625 3.15625l0 7.265625l-2.1875 0l0 -13.15625l2.1875 0l0 1.875q0.65625 -1.0 1.765625 -1.546875q1.109375 -0.5625 2.453125 -0.5625zm20.580444 -3.34375q2.734375 0 4.734375 1.03125q2.0 1.015625 3.0625 2.921875q1.078125 1.890625 1.078125 4.453125q0 2.5625 -1.078125 4.453125q-1.0625 1.890625 -3.0625 2.890625q-2.0 0.984375 -4.734375 0.984375l-5.21875 0l0 -16.734375l5.21875 0zm0 14.9375q3.234375 0 4.9375 -1.71875q1.703125 -1.71875 1.703125 -4.8125q0 -3.125 -1.71875 -4.875q-1.71875 -1.75 -4.921875 -1.75l-3.03125 0l0 13.15625l3.03125 0zm10.936707 -4.828125q0 -2.015625 0.8125 -3.53125q0.8125 -1.53125 2.234375 -2.375q1.4375 -0.84375 3.1875 -0.84375q1.734375 0 3.0 0.75q1.28125 0.75 1.90625 1.875l0 -2.40625l2.203125 0l0 13.15625l-2.203125 0l0 -2.453125q-0.65625 1.15625 -1.9375 1.921875q-1.28125 0.75 -2.984375 0.75q-1.75 0 -3.171875 -0.859375q-1.421875 -0.875 -2.234375 -2.421875q-0.8125 -1.5625 -0.8125 -3.5625zm11.140625 0.03125q0 -1.5 -0.609375 -2.59375q-0.59375 -1.109375 -1.625 -1.6875q-1.015625 -0.59375 -2.234375 -0.59375q-1.21875 0 -2.234375 0.578125q-1.0 0.578125 -1.609375 1.6875q-0.59375 1.09375 -0.59375 2.578125q0 1.515625 0.59375 2.640625q0.609375 1.109375 1.609375 1.703125q1.015625 0.578125 2.234375 0.578125q1.21875 0 2.234375 -0.578125q1.03125 -0.59375 1.625 -1.703125q0.609375 -1.125 0.609375 -2.609375zm8.567688 -4.765625l0 7.765625q0 0.953125 0.40625 1.359375q0.40625 0.390625 1.421875 0.390625l1.59375 0l0 1.84375l-1.96875 0q-1.8125 0 -2.734375 -0.84375q-0.90625 -0.84375 -0.90625 -2.75l0 -7.765625l-1.703125 0l0 -1.796875l1.703125 0l0 -3.3125l2.1875 0l0 3.3125l3.421875 0l0 1.796875l-3.421875 0zm5.251587 4.734375q0 -2.015625 0.8125 -3.53125q0.8125 -1.53125 2.234375 -2.375q1.4375 -0.84375 3.1875 -0.84375q1.734375 0 3.0 0.75q1.28125 0.75 1.90625 1.875l0 -2.40625l2.203125 0l0 13.15625l-2.203125 0l0 -2.453125q-0.65625 1.15625 -1.9375 1.921875q-1.28125 0.75 -2.984375 0.75q-1.75 0 -3.171875 -0.859375q-1.421875 -0.875 -2.234375 -2.421875q-0.8125 -1.5625 -0.8125 -3.5625zm11.140625 0.03125q0 -1.5 -0.609375 -2.59375q-0.59375 -1.109375 -1.625 -1.6875q-1.015625 -0.59375 -2.234375 -0.59375q-1.21875 0 -2.234375 0.578125q-1.0 0.578125 -1.609375 1.6875q-0.59375 1.09375 -0.59375 2.578125q0 1.515625 0.59375 2.640625q0.609375 1.109375 1.609375 1.703125q1.015625 0.578125 2.234375 0.578125q1.21875 0 2.234375 -0.578125q1.03125 -0.59375 1.625 -1.703125q0.609375 -1.125 0.609375 -2.609375z" fill-rule="nonzero"/><path fill="#ffffff" d="m709.0379 338.6253l0 1.78125l-7.265625 0l0 5.640625l5.90625 0l0 1.78125l-5.90625 0l0 7.53125l-2.1875 0l0 -16.734375l9.453125 0zm3.7678223 1.453125q-0.609375 0 -1.046875 -0.4375q-0.4375 -0.4375 -0.4375 -1.0625q0 -0.625 0.4375 -1.046875q0.4375 -0.4375 1.046875 -0.4375q0.609375 0 1.03125 0.4375q0.421875 0.421875 0.421875 1.046875q0 0.625 -0.421875 1.0625q-0.421875 0.4375 -1.03125 0.4375zm1.0625 2.125l0 13.15625l-2.1875 0l0 -13.15625l2.1875 0zm5.9039917 -4.609375l0 17.765625l-2.1875 0l0 -17.765625l2.1875 0zm15.716431 10.6875q0 0.625 -0.0625 1.3125l-10.515625 0q0.125 1.953125 1.328125 3.046875q1.21875 1.09375 2.9375 1.09375q1.421875 0 2.359375 -0.65625q0.953125 -0.671875 1.34375 -1.78125l2.34375 0q-0.515625 1.90625 -2.109375 3.09375q-1.578125 1.1875 -3.9375 1.1875q-1.875 0 -3.34375 -0.84375q-1.46875 -0.84375 -2.3125 -2.390625q-0.84375 -1.546875 -0.84375 -3.578125q0 -2.046875 0.8125 -3.578125q0.8125 -1.546875 2.28125 -2.375q1.484375 -0.828125 3.40625 -0.828125q1.875 0 3.3125 0.828125q1.4375 0.8125 2.21875 2.25q0.78125 1.421875 0.78125 3.21875zm-2.25 -0.453125q0 -1.25 -0.5625 -2.140625q-0.546875 -0.90625 -1.5 -1.375q-0.9375 -0.46875 -2.09375 -0.46875q-1.65625 0 -2.828125 1.0625q-1.15625 1.046875 -1.328125 2.921875l8.3125 0z" fill-rule="nonzero"/><path fill="#d14770" d="m622.6176 416.25455l0 0c0 -12.200195 9.890198 -22.090393 22.090393 -22.090393l144.84985 0c5.8587646 0 11.477539 2.327362 15.6203 6.4701233c4.142761 4.142761 6.470093 9.761536 6.470093 15.62027l0 88.35895c0 12.200226 -9.890198 22.090424 -22.090393 22.090424l-144.84985 0c-12.200195 0 -22.090393 -9.890198 -22.090393 -22.090424z" fill-rule="evenodd"/><path stroke="#0d0d0d" stroke-width="3.0" stroke-linejoin="round" stroke-linecap="butt" d="m622.6176 416.25455l0 0c0 -12.200195 9.890198 -22.090393 22.090393 -22.090393l144.84985 0c5.8587646 0 11.477539 2.327362 15.6203 6.4701233c4.142761 4.142761 6.470093 9.761536 6.470093 15.62027l0 88.35895c0 12.200226 -9.890198 22.090424 -22.090393 22.090424l-144.84985 0c-12.200195 0 -22.090393 -9.890198 -22.090393 -22.090424z" fill-rule="evenodd"/><path fill="#ffffff" d="m670.54834 446.09903q0 -2.453125 1.09375 -4.40625q1.109375 -1.953125 3.015625 -3.046875q1.921875 -1.109375 4.25 -1.109375q2.734375 0 4.765625 1.328125q2.046875 1.3125 2.984375 3.734375l-2.625 0q-0.6875 -1.515625 -2.0 -2.328125q-1.3125 -0.828125 -3.125 -0.828125q-1.765625 0 -3.15625 0.828125q-1.390625 0.8125 -2.1875 2.3125q-0.78125 1.5 -0.78125 3.515625q0 1.984375 0.78125 3.484375q0.796875 1.5 2.1875 2.328125q1.390625 0.8125 3.15625 0.8125q1.8125 0 3.125 -0.796875q1.3125 -0.8125 2.0 -2.328125l2.625 0q-0.9375 2.40625 -2.984375 3.71875q-2.03125 1.296875 -4.765625 1.296875q-2.328125 0 -4.25 -1.09375q-1.90625 -1.09375 -3.015625 -3.03125q-1.09375 -1.9375 -1.09375 -4.390625zm25.07483 8.59375q-1.84375 0 -3.34375 -0.84375q-1.5 -0.84375 -2.359375 -2.390625q-0.84375 -1.546875 -0.84375 -3.578125q0 -2.015625 0.875 -3.5625q0.875 -1.5625 2.390625 -2.390625q1.515625 -0.828125 3.390625 -0.828125q1.859375 0 3.375 0.828125q1.515625 0.828125 2.390625 2.375q0.875 1.53125 0.875 3.578125q0 2.03125 -0.90625 3.578125q-0.890625 1.546875 -2.4375 2.390625q-1.53125 0.84375 -3.40625 0.84375zm0 -1.921875q1.1875 0 2.21875 -0.546875q1.03125 -0.5625 1.65625 -1.65625q0.640625 -1.109375 0.640625 -2.6875q0 -1.59375 -0.625 -2.6875q-0.625 -1.109375 -1.640625 -1.640625q-1.0 -0.546875 -2.171875 -0.546875q-1.203125 0 -2.203125 0.546875q-0.984375 0.53125 -1.59375 1.640625q-0.59375 1.09375 -0.59375 2.6875q0 1.609375 0.578125 2.71875q0.59375 1.09375 1.578125 1.640625q0.984375 0.53125 2.15625 0.53125zm11.813049 -16.0625l0 17.765625l-2.1875 0l0 -17.765625l2.1875 0zm15.388367 4.609375l0 13.15625l-2.1875 0l0 -1.9375q-0.625 1.0 -1.75 1.5625q-1.109375 0.5625 -2.453125 0.5625q-1.53125 0 -2.765625 -0.625q-1.21875 -0.640625 -1.921875 -1.90625q-0.703125 -1.28125 -0.703125 -3.109375l0 -7.703125l2.15625 0l0 7.421875q0 1.9375 0.984375 2.984375q0.984375 1.046875 2.6875 1.046875q1.75 0 2.75 -1.078125q1.015625 -1.078125 1.015625 -3.140625l0 -7.234375l2.1875 0zm19.50061 -0.234375q1.546875 0 2.734375 0.640625q1.203125 0.625 1.890625 1.90625q0.703125 1.265625 0.703125 3.09375l0 7.75l-2.15625 0l0 -7.4375q0 -1.96875 -0.96875 -3.015625q-0.96875 -1.046875 -2.625 -1.046875q-1.703125 0 -2.71875 1.09375q-1.0 1.09375 -1.0 3.15625l0 7.25l-2.15625 0l0 -7.4375q0 -1.96875 -0.984375 -3.015625q-0.96875 -1.046875 -2.625 -1.046875q-1.703125 0 -2.71875 1.09375q-1.0 1.09375 -1.0 3.15625l0 7.25l-2.1875 0l0 -13.15625l2.1875 0l0 1.90625q0.65625 -1.03125 1.734375 -1.578125q1.09375 -0.5625 2.421875 -0.5625q1.65625 0 2.921875 0.75q1.28125 0.734375 1.90625 2.171875q0.546875 -1.390625 1.8125 -2.15625q1.28125 -0.765625 2.828125 -0.765625zm15.31366 0q2.40625 0 3.890625 1.453125q1.484375 1.453125 1.484375 4.1875l0 7.75l-2.15625 0l0 -7.4375q0 -1.96875 -0.984375 -3.015625q-0.984375 -1.046875 -2.6875 -1.046875q-1.71875 0 -2.75 1.078125q-1.015625 1.078125 -1.015625 3.15625l0 7.265625l-2.1875 0l0 -13.15625l2.1875 0l0 1.875q0.65625 -1.0 1.765625 -1.546875q1.109375 -0.5625 2.453125 -0.5625z" fill-rule="nonzero"/><path fill="#ffffff" d="m662.3106 483.6459q-2.328125 0 -4.25 -1.09375q-1.921875 -1.09375 -3.046875 -3.046875q-1.109375 -1.953125 -1.109375 -4.40625q0 -2.453125 1.109375 -4.40625q1.125 -1.953125 3.046875 -3.046875q1.921875 -1.09375 4.25 -1.09375q2.34375 0 4.265625 1.09375q1.921875 1.09375 3.015625 3.046875q1.109375 1.9375 1.109375 4.40625q0 2.46875 -1.109375 4.421875q-1.09375 1.9375 -3.015625 3.03125q-1.921875 1.09375 -4.265625 1.09375zm0 -1.90625q1.75 0 3.140625 -0.8125q1.40625 -0.8125 2.203125 -2.328125q0.8125 -1.515625 0.8125 -3.5q0 -2.015625 -0.8125 -3.515625q-0.796875 -1.5 -2.1875 -2.3125q-1.390625 -0.828125 -3.15625 -0.828125q-1.78125 0 -3.171875 0.828125q-1.390625 0.8125 -2.203125 2.3125q-0.796875 1.5 -0.796875 3.515625q0 1.984375 0.796875 3.5q0.8125 1.515625 2.21875 2.328125q1.40625 0.8125 3.15625 0.8125zm16.629578 -9.625l-2.765625 0l0 11.359375l-2.1875 0l0 -11.359375l-1.703125 0l0 -1.796875l1.703125 0l0 -0.9375q0 -2.203125 1.140625 -3.21875q1.140625 -1.03125 3.671875 -1.03125l0 1.828125q-1.453125 0 -2.046875 0.5625q-0.578125 0.5625 -0.578125 1.859375l0 0.9375l2.765625 0l0 1.796875zm7.895996 0l-2.765625 0l0 11.359375l-2.1875 0l0 -11.359375l-1.703125 0l0 -1.796875l1.703125 0l0 -0.9375q0 -2.203125 1.140625 -3.21875q1.140625 -1.03125 3.671875 -1.03125l0 1.828125q-1.453125 0 -2.046875 0.5625q-0.578125 0.5625 -0.578125 1.859375l0 0.9375l2.765625 0l0 1.796875zm7.192871 11.578125q-1.515625 0 -2.71875 -0.515625q-1.1875 -0.515625 -1.890625 -1.4375q-0.6875 -0.921875 -0.765625 -2.125l2.265625 0q0.09375 0.984375 0.921875 1.609375q0.828125 0.625 2.171875 0.625q1.25 0 1.96875 -0.546875q0.71875 -0.5625 0.71875 -1.40625q0 -0.859375 -0.78125 -1.28125q-0.765625 -0.421875 -2.359375 -0.828125q-1.46875 -0.390625 -2.390625 -0.78125q-0.921875 -0.390625 -1.59375 -1.171875q-0.65625 -0.78125 -0.65625 -2.0625q0 -1.0 0.59375 -1.84375q0.609375 -0.84375 1.703125 -1.328125q1.109375 -0.5 2.53125 -0.5q2.1875 0 3.53125 1.109375q1.34375 1.109375 1.4375 3.03125l-2.1875 0q-0.078125 -1.03125 -0.828125 -1.65625q-0.75 -0.625 -2.03125 -0.625q-1.171875 0 -1.875 0.5q-0.6875 0.5 -0.6875 1.3125q0 0.65625 0.421875 1.078125q0.421875 0.421875 1.046875 0.671875q0.640625 0.25 1.765625 0.5625q1.421875 0.375 2.3125 0.75q0.890625 0.375 1.515625 1.125q0.640625 0.734375 0.65625 1.9375q0 1.078125 -0.59375 1.953125q-0.59375 0.859375 -1.6875 1.359375q-1.09375 0.484375 -2.515625 0.484375zm19.871704 -7.296875q0 0.625 -0.0625 1.3125l-10.515625 0q0.125 1.953125 1.328125 3.046875q1.21875 1.09375 2.9375 1.09375q1.421875 0 2.359375 -0.65625q0.953125 -0.671875 1.34375 -1.78125l2.34375 0q-0.515625 1.90625 -2.109375 3.09375q-1.578125 1.1875 -3.9375 1.1875q-1.875 0 -3.34375 -0.84375q-1.46875 -0.84375 -2.3125 -2.390625q-0.84375 -1.546875 -0.84375 -3.578125q0 -2.046875 0.8125 -3.578125q0.8125 -1.546875 2.28125 -2.375q1.484375 -0.828125 3.40625 -0.828125q1.875 0 3.3125 0.828125q1.4375 0.8125 2.21875 2.25q0.78125 1.421875 0.78125 3.21875zm-2.25 -0.453125q0 -1.25 -0.5625 -2.140625q-0.546875 -0.90625 -1.5 -1.375q-0.9375 -0.46875 -2.09375 -0.46875q-1.65625 0 -2.828125 1.0625q-1.15625 1.046875 -1.328125 2.921875l8.3125 0zm7.801819 -3.828125l0 7.765625q0 0.953125 0.40625 1.359375q0.40625 0.390625 1.421875 0.390625l1.59375 0l0 1.84375l-1.96875 0q-1.8125 0 -2.734375 -0.84375q-0.90625 -0.84375 -0.90625 -2.75l0 -7.765625l-1.703125 0l0 -1.796875l1.703125 0l0 -3.3125l2.1875 0l0 3.3125l3.421875 0l0 1.796875l-3.421875 0zm10.720337 11.578125q-1.515625 0 -2.71875 -0.515625q-1.1875 -0.515625 -1.890625 -1.4375q-0.6875 -0.921875 -0.765625 -2.125l2.265625 0q0.09375 0.984375 0.921875 1.609375q0.828125 0.625 2.171875 0.625q1.25 0 1.96875 -0.546875q0.71875 -0.5625 0.71875 -1.40625q0 -0.859375 -0.78125 -1.28125q-0.765625 -0.421875 -2.359375 -0.828125q-1.46875 -0.390625 -2.390625 -0.78125q-0.921875 -0.390625 -1.59375 -1.171875q-0.65625 -0.78125 -0.65625 -2.0625q0 -1.0 0.59375 -1.84375q0.609375 -0.84375 1.703125 -1.328125q1.109375 -0.5 2.53125 -0.5q2.1875 0 3.53125 1.109375q1.34375 1.109375 1.4375 3.03125l-2.1875 0q-0.078125 -1.03125 -0.828125 -1.65625q-0.75 -0.625 -2.03125 -0.625q-1.171875 0 -1.875 0.5q-0.6875 0.5 -0.6875 1.3125q0 0.65625 0.421875 1.078125q0.421875 0.421875 1.046875 0.671875q0.640625 0.25 1.765625 0.5625q1.421875 0.375 2.3125 0.75q0.890625 0.375 1.515625 1.125q0.640625 0.734375 0.65625 1.9375q0 1.078125 -0.59375 1.953125q-0.59375 0.859375 -1.6875 1.359375q-1.09375 0.484375 -2.515625 0.484375zm23.73285 -16.953125l0 1.78125l-7.265625 0l0 5.640625l5.90625 0l0 1.78125l-5.90625 0l0 7.53125l-2.1875 0l0 -16.734375l9.453125 0zm3.7678223 1.453125q-0.609375 0 -1.046875 -0.4375q-0.4375 -0.4375 -0.4375 -1.0625q0 -0.625 0.4375 -1.046875q0.4375 -0.4375 1.046875 -0.4375q0.609375 0 1.03125 0.4375q0.421875 0.421875 0.421875 1.046875q0 0.625 -0.421875 1.0625q-0.421875 0.4375 -1.03125 0.4375zm1.0625 2.125l0 13.15625l-2.1875 0l0 -13.15625l2.1875 0zm5.9039917 -4.609375l0 17.765625l-2.1875 0l0 -17.765625l2.1875 0zm15.716492 10.6875q0 0.625 -0.0625 1.3125l-10.515625 0q0.125 1.953125 1.328125 3.046875q1.21875 1.09375 2.9375 1.09375q1.421875 0 2.359375 -0.65625q0.953125 -0.671875 1.34375 -1.78125l2.34375 0q-0.515625 1.90625 -2.109375 3.09375q-1.578125 1.1875 -3.9375 1.1875q-1.875 0 -3.34375 -0.84375q-1.46875 -0.84375 -2.3125 -2.390625q-0.84375 -1.546875 -0.84375 -3.578125q0 -2.046875 0.8125 -3.578125q0.8125 -1.546875 2.28125 -2.375q1.484375 -0.828125 3.40625 -0.828125q1.875 0 3.3125 0.828125q1.4375 0.8125 2.21875 2.25q0.78125 1.421875 0.78125 3.21875zm-2.25 -0.453125q0 -1.25 -0.5625 -2.140625q-0.546875 -0.90625 -1.5 -1.375q-0.9375 -0.46875 -2.09375 -0.46875q-1.65625 0 -2.828125 1.0625q-1.15625 1.046875 -1.328125 2.921875l8.3125 0z" fill-rule="nonzero"/></g></svg>