<svg version="1.1" viewBox="0.0 0.0 960.0 540.0" fill="none" stroke="none" stroke-linecap="square" stroke-miterlimit="10" xmlns:xlink="http://www.w3.org/1999/xlink" xmlns="http://www.w3.org/2000/svg"><clipPath id="g3577995f865_0_604.0"><path d="m0 0l960.0 0l0 540.0l-960.0 0l0 -540.0z" clip-rule="nonzero"/></clipPath><g clip-path="url(#g3577995f865_0_604.0)"><path fill="#20212a" d="m0 0l960.0 0l0 540.0l-960.0 0z" fill-rule="evenodd"/><path fill="#eeeeee" d="m342.5015 11.636378l274.99704 0l0 0c36.02533 0 65.229675 16.959171 65.229675 37.879368c0 20.920197 -29.204346 37.87937 -65.229675 37.87937l-274.99704 0l0 0c-36.02536 0 -65.229675 -16.959175 -65.229675 -37.87937c0 -20.920197 29.204315 -37.879368 65.229675 -37.879368z" fill-rule="evenodd"/><path stroke="#20222d" stroke-width="8.0" stroke-linejoin="round" stroke-linecap="butt" d="m342.5015 11.636378l274.99704 0l0 0c36.02533 0 65.229675 16.959171 65.229675 37.879368c0 20.920197 -29.204346 37.87937 -65.229675 37.87937l-274.99704 0l0 0c-36.02536 0 -65.229675 -16.959175 -65.229675 -37.87937c0 -20.920197 29.204315 -37.879368 65.229675 -37.879368z" fill-rule="evenodd"/><path fill="#000000" d="m346.46368 46.22762q0 2.078125 -1.4375 3.46875q-1.421875 1.375 -4.34375 1.375l-3.21875 0l0 6.984375l-2.1875 0l0 -16.734375l5.40625 0q2.828125 0 4.296875 1.375q1.484375 1.375 1.484375 3.53125zm-5.78125 3.046875q1.828125 0 2.6875 -0.796875q0.859375 -0.796875 0.859375 -2.25q0 -3.09375 -3.546875 -3.09375l-3.21875 0l0 6.140625l3.21875 0zm20.16159 -4.375l0 13.15625l-2.1875 0l0 -1.9375q-0.625 1.0 -1.75 1.5625q-1.109375 0.5625 -2.453125 0.5625q-1.53125 0 -2.765625 -0.625q-1.21875 -0.640625 -1.921875 -1.90625q-0.703125 -1.28125 -0.703125 -3.109375l0 -7.703125l2.15625 0l0 7.421875q0 1.9375 0.984375 2.984375q0.984375 1.046875 2.6875 1.046875q1.75 0 2.75 -1.078125q1.015625 -1.078125 1.015625 -3.140625l0 -7.234375l2.1875 0zm5.87558 2.453125q0.671875 -1.171875 1.96875 -1.921875q1.296875 -0.75 2.953125 -0.75q1.78125 0 3.1875 0.84375q1.421875 0.84375 2.234375 2.375q0.8125 1.515625 0.8125 3.53125q0 2.0 -0.8125 3.5625q-0.8125 1.546875 -2.25 2.421875q-1.421875 0.859375 -3.171875 0.859375q-1.703125 0 -2.984375 -0.734375q-1.28125 -0.75 -1.9375 -1.90625l0 2.421875l-2.1875 0l0 -17.765625l2.1875 0l0 7.0625zm8.921875 4.078125q0 -1.484375 -0.59375 -2.578125q-0.59375 -1.109375 -1.625 -1.6875q-1.015625 -0.578125 -2.234375 -0.578125q-1.203125 0 -2.234375 0.59375q-1.015625 0.578125 -1.625 1.703125q-0.609375 1.109375 -0.609375 2.578125q0 1.484375 0.609375 2.609375q0.609375 1.109375 1.625 1.703125q1.03125 0.578125 2.234375 0.578125q1.21875 0 2.234375 -0.578125q1.03125 -0.59375 1.625 -1.703125q0.59375 -1.125 0.59375 -2.640625zm7.3020935 -11.140625l0 17.765625l-2.1875 0l0 -17.765625l2.1875 0zm4.841461 2.484375q-0.609375 0 -1.046875 -0.4375q-0.4375 -0.4375 -0.4375 -1.0625q0 -0.625 0.4375 -1.046875q0.4375 -0.4375 1.046875 -0.4375q0.609375 0 1.03125 0.4375q0.421875 0.421875 0.421875 1.046875q0 0.625 -0.421875 1.0625q-0.421875 0.4375 -1.03125 0.4375zm1.0625 2.125l0 13.15625l-2.1875 0l0 -13.15625l2.1875 0zm8.372742 13.375q-1.515625 0 -2.71875 -0.515625q-1.1875 -0.515625 -1.890625 -1.4375q-0.6875 -0.921875 -0.765625 -2.125l2.265625 0q0.09375 0.984375 0.921875 1.609375q0.828125 0.625 2.171875 0.625q1.25 0 1.96875 -0.546875q0.71875 -0.5625 0.71875 -1.40625q0 -0.859375 -0.78125 -1.28125q-0.765625 -0.421875 -2.359375 -0.828125q-1.46875 -0.390625 -2.390625 -0.78125q-0.921875 -0.390625 -1.59375 -1.171875q-0.65625 -0.78125 -0.65625 -2.0625q0 -1.0 0.59375 -1.84375q0.609375 -0.84375 1.703125 -1.328125q1.109375 -0.5 2.53125 -0.5q2.1875 0 3.53125 1.109375q1.34375 1.109375 1.4375 3.03125l-2.1875 0q-0.078125 -1.03125 -0.828125 -1.65625q-0.75 -0.625 -2.03125 -0.625q-1.171875 0 -1.875 0.5q-0.6875 0.5 -0.6875 1.3125q0 0.65625 0.421875 1.078125q0.421875 0.421875 1.046875 0.671875q0.640625 0.25 1.765625 0.5625q1.421875 0.375 2.3125 0.75q0.890625 0.375 1.515625 1.125q0.640625 0.734375 0.65625 1.9375q0 1.078125 -0.59375 1.953125q-0.59375 0.859375 -1.6875 1.359375q-1.09375 0.484375 -2.515625 0.484375zm14.402954 -13.609375q1.484375 0 2.6875 0.640625q1.203125 0.625 1.875 1.90625q0.6875 1.265625 0.6875 3.09375l0 7.75l-2.15625 0l0 -7.4375q0 -1.96875 -0.984375 -3.015625q-0.984375 -1.046875 -2.6875 -1.046875q-1.71875 0 -2.75 1.078125q-1.015625 1.078125 -1.015625 3.15625l0 7.265625l-2.1875 0l0 -17.765625l2.1875 0l0 6.484375q0.65625 -1.0 1.78125 -1.546875q1.140625 -0.5625 2.5625 -0.5625zm25.12732 9.671875l-7.296875 0l-1.34375 3.71875l-2.296875 0l6.046875 -16.625l2.515625 0l6.03125 16.625l-2.3125 0l-1.34375 -3.71875zm-0.625 -1.78125l-3.015625 -8.4375l-3.03125 8.4375l6.046875 0zm12.332184 -7.875q1.703125 0 2.984375 0.75q1.296875 0.75 1.921875 1.875l0 -2.40625l2.203125 0l0 13.4375q0 1.8125 -0.765625 3.203125q-0.765625 1.40625 -2.203125 2.203125q-1.421875 0.7968788 -3.3125 0.7968788q-2.59375 0 -4.328125 -1.2343788q-1.71875 -1.21875 -2.03125 -3.328125l2.15625 0q0.359375 1.203125 1.484375 1.921875q1.125 0.734375 2.71875 0.734375q1.796875 0 2.9375 -1.125q1.140625 -1.125 1.140625 -3.171875l0 -2.75q-0.65625 1.15625 -1.9375 1.921875q-1.265625 0.765625 -2.96875 0.765625q-1.75 0 -3.1875 -0.859375q-1.421875 -0.875 -2.234375 -2.421875q-0.8125 -1.5625 -0.8125 -3.5625q0 -2.015625 0.8125 -3.53125q0.8125 -1.53125 2.234375 -2.375q1.4375 -0.84375 3.1875 -0.84375zm4.90625 6.78125q0 -1.5 -0.609375 -2.59375q-0.59375 -1.109375 -1.625 -1.6875q-1.015625 -0.59375 -2.234375 -0.59375q-1.21875 0 -2.234375 0.578125q-1.0 0.578125 -1.609375 1.6875q-0.59375 1.09375 -0.59375 2.578125q0 1.515625 0.59375 2.640625q0.609375 1.109375 1.609375 1.703125q1.015625 0.578125 2.234375 0.578125q1.21875 0 2.234375 -0.578125q1.03125 -0.59375 1.625 -1.703125q0.609375 -1.125 0.609375 -2.609375zm11.3177185 -6.78125q1.703125 0 2.984375 0.75q1.296875 0.75 1.921875 1.875l0 -2.40625l2.203125 0l0 13.4375q0 1.8125 -0.765625 3.203125q-0.765625 1.40625 -2.203125 2.203125q-1.421875 0.7968788 -3.3125 0.7968788q-2.59375 0 -4.328125 -1.2343788q-1.71875 -1.21875 -2.03125 -3.328125l2.15625 0q0.359375 1.203125 1.484375 1.921875q1.125 0.734375 2.71875 0.734375q1.796875 0 2.9375 -1.125q1.140625 -1.125 1.140625 -3.171875l0 -2.75q-0.65625 1.15625 -1.9375 1.921875q-1.265625 0.765625 -2.96875 0.765625q-1.75 0 -3.1875 -0.859375q-1.421875 -0.875 -2.234375 -2.421875q-0.8125 -1.5625 -0.8125 -3.5625q0 -2.015625 0.8125 -3.53125q0.8125 -1.53125 2.234375 -2.375q1.4375 -0.84375 3.1875 -0.84375zm4.90625 6.78125q0 -1.5 -0.609375 -2.59375q-0.59375 -1.109375 -1.625 -1.6875q-1.015625 -0.59375 -2.234375 -0.59375q-1.21875 0 -2.234375 0.578125q-1.0 0.578125 -1.609375 1.6875q-0.59375 1.09375 -0.59375 2.578125q0 1.515625 0.59375 2.640625q0.609375 1.109375 1.609375 1.703125q1.015625 0.578125 2.234375 0.578125q1.21875 0 2.234375 -0.578125q1.03125 -0.59375 1.625 -1.703125q0.609375 -1.125 0.609375 -2.609375zm8.083313 -4.421875q0.578125 -1.125 1.640625 -1.75q1.078125 -0.625 2.609375 -0.625l0 2.25l-0.578125 0q-3.671875 0 -3.671875 3.984375l0 7.15625l-2.1875 0l0 -13.15625l2.1875 0l0 2.140625zm18.764496 3.9375q0 0.625 -0.0625 1.3125l-10.515625 0q0.125 1.953125 1.328125 3.046875q1.21875 1.09375 2.9375 1.09375q1.421875 0 2.359375 -0.65625q0.953125 -0.671875 1.34375 -1.78125l2.34375 0q-0.515625 1.90625 -2.109375 3.09375q-1.578125 1.1875 -3.9375 1.1875q-1.875 0 -3.34375 -0.84375q-1.46875 -0.84375 -2.3125 -2.390625q-0.84375 -1.546875 -0.84375 -3.578125q0 -2.046875 0.8125 -3.578125q0.8125 -1.546875 2.28125 -2.375q1.484375 -0.828125 3.40625 -0.828125q1.875 0 3.3125 0.828125q1.4375 0.8125 2.21875 2.25q0.78125 1.421875 0.78125 3.21875zm-2.25 -0.453125q0 -1.25 -0.5625 -2.140625q-0.546875 -0.90625 -1.5 -1.375q-0.9375 -0.46875 -2.09375 -0.46875q-1.65625 0 -2.828125 1.0625q-1.15625 1.046875 -1.328125 2.921875l8.3125 0zm10.551819 -5.84375q1.703125 0 2.984375 0.75q1.296875 0.75 1.921875 1.875l0 -2.40625l2.203125 0l0 13.4375q0 1.8125 -0.765625 3.203125q-0.765625 1.40625 -2.203125 2.203125q-1.421875 0.7968788 -3.3125 0.7968788q-2.59375 0 -4.328125 -1.2343788q-1.71875 -1.21875 -2.03125 -3.328125l2.15625 0q0.359375 1.203125 1.484375 1.921875q1.125 0.734375 2.71875 0.734375q1.796875 0 2.9375 -1.125q1.140625 -1.125 1.140625 -3.171875l0 -2.75q-0.65625 1.15625 -1.9375 1.921875q-1.265625 0.765625 -2.96875 0.765625q-1.75 0 -3.1875 -0.859375q-1.421875 -0.875 -2.234375 -2.421875q-0.8125 -1.5625 -0.8125 -3.5625q0 -2.015625 0.8125 -3.53125q0.8125 -1.53125 2.234375 -2.375q1.4375 -0.84375 3.1875 -0.84375zm4.90625 6.78125q0 -1.5 -0.609375 -2.59375q-0.59375 -1.109375 -1.625 -1.6875q-1.015625 -0.59375 -2.234375 -0.59375q-1.21875 0 -2.234375 0.578125q-1.0 0.578125 -1.609375 1.6875q-0.59375 1.09375 -0.59375 2.578125q0 1.515625 0.59375 2.640625q0.609375 1.109375 1.609375 1.703125q1.015625 0.578125 2.234375 0.578125q1.21875 0 2.234375 -0.578125q1.03125 -0.59375 1.625 -1.703125q0.609375 -1.125 0.609375 -2.609375zm5.0833435 -0.03125q0 -2.015625 0.8125 -3.53125q0.8125 -1.53125 2.234375 -2.375q1.4375 -0.84375 3.1875 -0.84375q1.734375 0 3.0 0.75q1.28125 0.75 1.90625 1.875l0 -2.40625l2.203125 0l0 13.15625l-2.203125 0l0 -2.453125q-0.65625 1.15625 -1.9375 1.921875q-1.28125 0.75 -2.984375 0.75q-1.75 0 -3.171875 -0.859375q-1.421875 -0.875 -2.234375 -2.421875q-0.8125 -1.5625 -0.8125 -3.5625zm11.140625 0.03125q0 -1.5 -0.609375 -2.59375q-0.59375 -1.109375 -1.625 -1.6875q-1.015625 -0.59375 -2.234375 -0.59375q-1.21875 0 -2.234375 0.578125q-1.0 0.578125 -1.609375 1.6875q-0.59375 1.09375 -0.59375 2.578125q0 1.515625 0.59375 2.640625q0.609375 1.109375 1.609375 1.703125q1.015625 0.578125 2.234375 0.578125q1.21875 0 2.234375 -0.578125q1.03125 -0.59375 1.625 -1.703125q0.609375 -1.125 0.609375 -2.609375zm8.567688 -4.765625l0 7.765625q0 0.953125 0.40625 1.359375q0.40625 0.390625 1.421875 0.390625l1.59375 0l0 1.84375l-1.96875 0q-1.8125 0 -2.734375 -0.84375q-0.90625 -0.84375 -0.90625 -2.75l0 -7.765625l-1.703125 0l0 -1.796875l1.703125 0l0 -3.3125l2.1875 0l0 3.3125l3.421875 0l0 1.796875l-3.421875 0zm18.064087 4.28125q0 0.625 -0.0625 1.3125l-10.515625 0q0.125 1.953125 1.328125 3.046875q1.21875 1.09375 2.9375 1.09375q1.421875 0 2.359375 -0.65625q0.953125 -0.671875 1.34375 -1.78125l2.34375 0q-0.515625 1.90625 -2.109375 3.09375q-1.578125 1.1875 -3.9375 1.1875q-1.875 0 -3.34375 -0.84375q-1.46875 -0.84375 -2.3125 -2.390625q-0.84375 -1.546875 -0.84375 -3.578125q0 -2.046875 0.8125 -3.578125q0.8125 -1.546875 2.28125 -2.375q1.484375 -0.828125 3.40625 -0.828125q1.875 0 3.3125 0.828125q1.4375 0.8125 2.21875 2.25q0.78125 1.421875 0.78125 3.21875zm-2.25 -0.453125q0 -1.25 -0.5625 -2.140625q-0.546875 -0.90625 -1.5 -1.375q-0.9375 -0.46875 -2.09375 -0.46875q-1.65625 0 -2.828125 1.0625q-1.15625 1.046875 -1.328125 2.921875l8.3125 0zm21.834839 -9.203125l0 1.78125l-4.5625 0l0 14.953125l-2.171875 0l0 -14.953125l-4.59375 0l0 -1.78125l11.328125 0zm1.8745728 10.109375q0 -2.015625 0.8125 -3.53125q0.8125 -1.53125 2.234375 -2.375q1.4375 -0.84375 3.1875 -0.84375q1.734375 0 3.0 0.75q1.28125 0.75 1.90625 1.875l0 -2.40625l2.203125 0l0 13.15625l-2.203125 0l0 -2.453125q-0.65625 1.15625 -1.9375 1.921875q-1.28125 0.75 -2.984375 0.75q-1.75 0 -3.171875 -0.859375q-1.421875 -0.875 -2.234375 -2.421875q-0.8125 -1.5625 -0.8125 -3.5625zm11.140625 0.03125q0 -1.5 -0.609375 -2.59375q-0.59375 -1.109375 -1.625 -1.6875q-1.015625 -0.59375 -2.234375 -0.59375q-1.21875 0 -2.234375 0.578125q-1.0 0.578125 -1.609375 1.6875q-0.59375 1.09375 -0.59375 2.578125q0 1.515625 0.59375 2.640625q0.609375 1.109375 1.609375 1.703125q1.015625 0.578125 2.234375 0.578125q1.21875 0 2.234375 -0.578125q1.03125 -0.59375 1.625 -1.703125q0.609375 -1.125 0.609375 -2.609375zm10.552063 6.8125q-1.515625 0 -2.71875 -0.515625q-1.1875 -0.515625 -1.890625 -1.4375q-0.6875 -0.921875 -0.765625 -2.125l2.265625 0q0.09375 0.984375 0.921875 1.609375q0.828125 0.625 2.171875 0.625q1.25 0 1.96875 -0.546875q0.71875 -0.5625 0.71875 -1.40625q0 -0.859375 -0.78125 -1.28125q-0.765625 -0.421875 -2.359375 -0.828125q-1.46875 -0.390625 -2.390625 -0.78125q-0.921875 -0.390625 -1.59375 -1.171875q-0.65625 -0.78125 -0.65625 -2.0625q0 -1.0 0.59375 -1.84375q0.609375 -0.84375 1.703125 -1.328125q1.109375 -0.5 2.53125 -0.5q2.1875 0 3.53125 1.109375q1.34375 1.109375 1.4375 3.03125l-2.1875 0q-0.078125 -1.03125 -0.828125 -1.65625q-0.75 -0.625 -2.03125 -0.625q-1.171875 0 -1.875 0.5q-0.6875 0.5 -0.6875 1.3125q0 0.65625 0.421875 1.078125q0.421875 0.421875 1.046875 0.671875q0.640625 0.25 1.765625 0.5625q1.421875 0.375 2.3125 0.75q0.890625 0.375 1.515625 1.125q0.640625 0.734375 0.65625 1.9375q0 1.078125 -0.59375 1.953125q-0.59375 0.859375 -1.6875 1.359375q-1.09375 0.484375 -2.515625 0.484375zm15.215454 -0.21875l-5.15625 -5.8125l0 5.8125l-2.1875 0l0 -17.765625l2.1875 0l0 10.453125l5.0625 -5.84375l3.046875 0l-6.1875 6.5625l6.21875 6.59375l-2.984375 0zm9.672485 0.21875q-1.515625 0 -2.71875 -0.515625q-1.1875 -0.515625 -1.890625 -1.4375q-0.6875 -0.921875 -0.765625 -2.125l2.265625 0q0.09375 0.984375 0.921875 1.609375q0.828125 0.625 2.171875 0.625q1.25 0 1.96875 -0.546875q0.71875 -0.5625 0.71875 -1.40625q0 -0.859375 -0.78125 -1.28125q-0.765625 -0.421875 -2.359375 -0.828125q-1.46875 -0.390625 -2.390625 -0.78125q-0.921875 -0.390625 -1.59375 -1.171875q-0.65625 -0.78125 -0.65625 -2.0625q0 -1.0 0.59375 -1.84375q0.609375 -0.84375 1.703125 -1.328125q1.109375 -0.5 2.53125 -0.5q2.1875 0 3.53125 1.109375q1.34375 1.109375 1.4375 3.03125l-2.1875 0q-0.078125 -1.03125 -0.828125 -1.65625q-0.75 -0.625 -2.03125 -0.625q-1.171875 0 -1.875 0.5q-0.6875 0.5 -0.6875 1.3125q0 0.65625 0.421875 1.078125q0.421875 0.421875 1.046875 0.671875q0.640625 0.25 1.765625 0.5625q1.421875 0.375 2.3125 0.75q0.890625 0.375 1.515625 1.125q0.640625 0.734375 0.65625 1.9375q0 1.078125 -0.59375 1.953125q-0.59375 0.859375 -1.6875 1.359375q-1.09375 0.484375 -2.515625 0.484375z" fill-rule="nonzero"/><path fill="#d14770" d="m342.5015 121.8785l274.99704 0l0 0c36.02533 0 65.229675 16.959175 65.229675 37.87937c0 20.920197 -29.204346 37.879364 -65.229675 37.879364l-274.99704 0l0 0c-36.02536 0 -65.229675 -16.959167 -65.229675 -37.879364c0 -20.920197 29.204315 -37.87937 65.229675 -37.87937z" fill-rule="evenodd"/><path stroke="#20222d" stroke-width="8.0" stroke-linejoin="round" stroke-linecap="butt" d="m342.5015 121.8785l274.99704 0l0 0c36.02533 0 65.229675 16.959175 65.229675 37.87937c0 20.920197 -29.204346 37.879364 -65.229675 37.879364l-274.99704 0l0 0c-36.02536 0 -65.229675 -16.959167 -65.229675 -37.879364c0 -20.920197 29.204315 -37.87937 65.229675 -37.87937z" fill-rule="evenodd"/><path fill="#ffffff" d="m383.5252 151.56349l0 1.78125l-7.265625 0l0 5.640625l5.90625 0l0 1.78125l-5.90625 0l0 7.53125l-2.1875 0l0 -16.734375l9.453125 0zm3.7678223 1.453125q-0.609375 0 -1.046875 -0.4375q-0.4375 -0.4375 -0.4375 -1.0625q0 -0.625 0.4375 -1.046875q0.4375 -0.4375 1.046875 -0.4375q0.609375 0 1.03125 0.4375q0.421875 0.421875 0.421875 1.046875q0 0.625 -0.421875 1.0625q-0.421875 0.4375 -1.03125 0.4375zm1.0625 2.125l0 13.15625l-2.1875 0l0 -13.15625l2.1875 0zm5.9039917 -4.609375l0 17.765625l-2.1875 0l0 -17.765625l2.1875 0zm6.388336 6.40625l0 7.765625q0 0.953125 0.40625 1.359375q0.40625 0.390625 1.421875 0.390625l1.59375 0l0 1.84375l-1.96875 0q-1.8125 0 -2.734375 -0.84375q-0.90625 -0.84375 -0.90625 -2.75l0 -7.765625l-1.703125 0l0 -1.796875l1.703125 0l0 -3.3125l2.1875 0l0 3.3125l3.421875 0l0 1.796875l-3.421875 0zm18.064117 4.28125q0 0.625 -0.0625 1.3125l-10.515625 0q0.125 1.953125 1.328125 3.046875q1.21875 1.09375 2.9375 1.09375q1.421875 0 2.359375 -0.65625q0.953125 -0.671875 1.34375 -1.78125l2.34375 0q-0.515625 1.90625 -2.109375 3.09375q-1.578125 1.1875 -3.9375 1.1875q-1.875 0 -3.34375 -0.84375q-1.46875 -0.84375 -2.3125 -2.390625q-0.84375 -1.546875 -0.84375 -3.578125q0 -2.046875 0.8125 -3.578125q0.8125 -1.546875 2.28125 -2.375q1.484375 -0.828125 3.40625 -0.828125q1.875 0 3.3125 0.828125q1.4375 0.8125 2.21875 2.25q0.78125 1.421875 0.78125 3.21875zm-2.25 -0.453125q0 -1.25 -0.5625 -2.140625q-0.546875 -0.90625 -1.5 -1.375q-0.9375 -0.46875 -2.09375 -0.46875q-1.65625 0 -2.828125 1.0625q-1.15625 1.046875 -1.328125 2.921875l8.3125 0zm7.317444 -3.484375q0.578125 -1.125 1.640625 -1.75q1.078125 -0.625 2.609375 -0.625l0 2.25l-0.578125 0q-3.671875 0 -3.671875 3.984375l0 7.15625l-2.1875 0l0 -13.15625l2.1875 0l0 2.140625zm26.016205 11.015625l-2.1875 -2.203125q-1.21875 1.265625 -2.609375 1.875q-1.390625 0.609375 -3.140625 0.609375q-1.734375 0 -3.0625 -0.609375q-1.328125 -0.625 -2.0625 -1.78125q-0.734375 -1.15625 -0.734375 -2.6875q0 -1.75 0.984375 -3.078125q1.0 -1.34375 2.953125 -2.109375q-0.765625 -0.90625 -1.109375 -1.671875q-0.328125 -0.78125 -0.328125 -1.6875q0 -1.0625 0.53125 -1.90625q0.546875 -0.859375 1.546875 -1.328125q1.015625 -0.484375 2.328125 -0.484375q1.296875 0 2.25 0.5q0.96875 0.5 1.4375 1.40625q0.484375 0.90625 0.4375 2.0l-2.171875 0q0.015625 -0.984375 -0.5625 -1.546875q-0.578125 -0.5625 -1.484375 -0.5625q-0.953125 0 -1.546875 0.546875q-0.59375 0.53125 -0.59375 1.375q0 0.71875 0.390625 1.390625q0.40625 0.671875 1.34375 1.65625l4.984375 5.015625l0.4375 -0.671875l1.640625 -2.734375l2.34375 0l-1.96875 3.40625q-0.40625 0.71875 -0.953125 1.515625l3.765625 3.765625l-2.859375 0zm-7.9375 -1.578125q1.296875 0 2.328125 -0.5q1.046875 -0.515625 1.984375 -1.5625l-4.921875 -4.953125q-3.0625 1.171875 -3.0625 3.71875q0 1.421875 1.015625 2.359375q1.015625 0.9375 2.65625 0.9375zm29.128296 -2.140625l-7.296875 0l-1.34375 3.71875l-2.296875 0l6.046875 -16.625l2.515625 0l6.03125 16.625l-2.3125 0l-1.34375 -3.71875zm-0.625 -1.78125l-3.015625 -8.4375l-3.03125 8.4375l6.046875 0zm12.332214 -7.875q1.703125 0 2.984375 0.75q1.296875 0.75 1.921875 1.875l0 -2.40625l2.203125 0l0 13.4375q0 1.8125 -0.765625 3.203125q-0.765625 1.40625 -2.203125 2.203125q-1.421875 0.796875 -3.3125 0.796875q-2.59375 0 -4.328125 -1.234375q-1.71875 -1.21875 -2.03125 -3.328125l2.15625 0q0.359375 1.203125 1.484375 1.921875q1.125 0.734375 2.71875 0.734375q1.796875 0 2.9375 -1.125q1.140625 -1.125 1.140625 -3.171875l0 -2.75q-0.65625 1.15625 -1.9375 1.921875q-1.265625 0.765625 -2.96875 0.765625q-1.75 0 -3.1875 -0.859375q-1.421875 -0.875 -2.234375 -2.421875q-0.8125 -1.5625 -0.8125 -3.5625q0 -2.015625 0.8125 -3.53125q0.8125 -1.53125 2.234375 -2.375q1.4375 -0.84375 3.1875 -0.84375zm4.90625 6.78125q0 -1.5 -0.609375 -2.59375q-0.59375 -1.109375 -1.625 -1.6875q-1.015625 -0.59375 -2.234375 -0.59375q-1.21875 0 -2.234375 0.578125q-1.0 0.578125 -1.609375 1.6875q-0.59375 1.09375 -0.59375 2.578125q0 1.515625 0.59375 2.640625q0.609375 1.109375 1.609375 1.703125q1.015625 0.578125 2.234375 0.578125q1.21875 0 2.234375 -0.578125q1.03125 -0.59375 1.625 -1.703125q0.609375 -1.125 0.609375 -2.609375zm11.317688 -6.78125q1.703125 0 2.984375 0.75q1.296875 0.75 1.921875 1.875l0 -2.40625l2.203125 0l0 13.4375q0 1.8125 -0.765625 3.203125q-0.765625 1.40625 -2.203125 2.203125q-1.421875 0.796875 -3.3125 0.796875q-2.59375 0 -4.328125 -1.234375q-1.71875 -1.21875 -2.03125 -3.328125l2.15625 0q0.359375 1.203125 1.484375 1.921875q1.125 0.734375 2.71875 0.734375q1.796875 0 2.9375 -1.125q1.140625 -1.125 1.140625 -3.171875l0 -2.75q-0.65625 1.15625 -1.9375 1.921875q-1.265625 0.765625 -2.96875 0.765625q-1.75 0 -3.1875 -0.859375q-1.421875 -0.875 -2.234375 -2.421875q-0.8125 -1.5625 -0.8125 -3.5625q0 -2.015625 0.8125 -3.53125q0.8125 -1.53125 2.234375 -2.375q1.4375 -0.84375 3.1875 -0.84375zm4.90625 6.78125q0 -1.5 -0.609375 -2.59375q-0.59375 -1.109375 -1.625 -1.6875q-1.015625 -0.59375 -2.234375 -0.59375q-1.21875 0 -2.234375 0.578125q-1.0 0.578125 -1.609375 1.6875q-0.59375 1.09375 -0.59375 2.578125q0 1.515625 0.59375 2.640625q0.609375 1.109375 1.609375 1.703125q1.015625 0.578125 2.234375 0.578125q1.21875 0 2.234375 -0.578125q1.03125 -0.59375 1.625 -1.703125q0.609375 -1.125 0.609375 -2.609375zm8.0833435 -4.421875q0.578125 -1.125 1.640625 -1.75q1.078125 -0.625 2.609375 -0.625l0 2.25l-0.578125 0q-3.671875 0 -3.671875 3.984375l0 7.15625l-2.1875 0l0 -13.15625l2.1875 0l0 2.140625zm18.764465 3.9375q0 0.625 -0.0625 1.3125l-10.515625 0q0.125 1.953125 1.328125 3.046875q1.21875 1.09375 2.9375 1.09375q1.421875 0 2.359375 -0.65625q0.953125 -0.671875 1.34375 -1.78125l2.34375 0q-0.515625 1.90625 -2.109375 3.09375q-1.578125 1.1875 -3.9375 1.1875q-1.875 0 -3.34375 -0.84375q-1.46875 -0.84375 -2.3125 -2.390625q-0.84375 -1.546875 -0.84375 -3.578125q0 -2.046875 0.8125 -3.578125q0.8125 -1.546875 2.28125 -2.375q1.484375 -0.828125 3.40625 -0.828125q1.875 0 3.3125 0.828125q1.4375 0.8125 2.21875 2.25q0.78125 1.421875 0.78125 3.21875zm-2.25 -0.453125q0 -1.25 -0.5625 -2.140625q-0.546875 -0.90625 -1.5 -1.375q-0.9375 -0.46875 -2.09375 -0.46875q-1.65625 0 -2.828125 1.0625q-1.15625 1.046875 -1.328125 2.921875l8.3125 0zm10.551819 -5.84375q1.703125 0 2.984375 0.75q1.296875 0.75 1.921875 1.875l0 -2.40625l2.203125 0l0 13.4375q0 1.8125 -0.765625 3.203125q-0.765625 1.40625 -2.203125 2.203125q-1.421875 0.796875 -3.3125 0.796875q-2.59375 0 -4.328125 -1.234375q-1.71875 -1.21875 -2.03125 -3.328125l2.15625 0q0.359375 1.203125 1.484375 1.921875q1.125 0.734375 2.71875 0.734375q1.796875 0 2.9375 -1.125q1.140625 -1.125 1.140625 -3.171875l0 -2.75q-0.65625 1.15625 -1.9375 1.921875q-1.265625 0.765625 -2.96875 0.765625q-1.75 0 -3.1875 -0.859375q-1.421875 -0.875 -2.234375 -2.421875q-0.8125 -1.5625 -0.8125 -3.5625q0 -2.015625 0.8125 -3.53125q0.8125 -1.53125 2.234375 -2.375q1.4375 -0.84375 3.1875 -0.84375zm4.90625 6.78125q0 -1.5 -0.609375 -2.59375q-0.59375 -1.109375 -1.625 -1.6875q-1.015625 -0.59375 -2.234375 -0.59375q-1.21875 0 -2.234375 0.578125q-1.0 0.578125 -1.609375 1.6875q-0.59375 1.09375 -0.59375 2.578125q0 1.515625 0.59375 2.640625q0.609375 1.109375 1.609375 1.703125q1.015625 0.578125 2.234375 0.578125q1.21875 0 2.234375 -0.578125q1.03125 -0.59375 1.625 -1.703125q0.609375 -1.125 0.609375 -2.609375zm5.083374 -0.03125q0 -2.015625 0.8125 -3.53125q0.8125 -1.53125 2.234375 -2.375q1.437439 -0.84375 3.187439 -0.84375q1.734375 0 3.0 0.75q1.28125 0.75 1.90625 1.875l0 -2.40625l2.203125 0l0 13.15625l-2.203125 0l0 -2.453125q-0.65625 1.15625 -1.9375 1.921875q-1.28125 0.75 -2.984375 0.75q-1.75 0 -3.171814 -0.859375q-1.421875 -0.875 -2.234375 -2.421875q-0.8125 -1.5625 -0.8125 -3.5625zm11.140564 0.03125q0 -1.5 -0.609375 -2.59375q-0.59375 -1.109375 -1.625 -1.6875q-1.015625 -0.59375 -2.234375 -0.59375q-1.21875 0 -2.234375 0.578125q-1.0 0.578125 -1.609314 1.6875q-0.59375 1.09375 -0.59375 2.578125q0 1.515625 0.59375 2.640625q0.60931396 1.109375 1.609314 1.703125q1.015625 0.578125 2.234375 0.578125q1.21875 0 2.234375 -0.578125q1.03125 -0.59375 1.625 -1.703125q0.609375 -1.125 0.609375 -2.609375zm8.567749 -4.765625l0 7.765625q0 0.953125 0.40625 1.359375q0.40625 0.390625 1.421875 0.390625l1.59375 0l0 1.84375l-1.96875 0q-1.8125 0 -2.734375 -0.84375q-0.90625 -0.84375 -0.90625 -2.75l0 -7.765625l-1.703125 0l0 -1.796875l1.703125 0l0 -3.3125l2.1875 0l0 3.3125l3.421875 0l0 1.796875l-3.421875 0zm18.064087 4.28125q0 0.625 -0.0625 1.3125l-10.515625 0q0.125 1.953125 1.328125 3.046875q1.21875 1.09375 2.9375 1.09375q1.421875 0 2.359375 -0.65625q0.953125 -0.671875 1.34375 -1.78125l2.34375 0q-0.515625 1.90625 -2.109375 3.09375q-1.578125 1.1875 -3.9375 1.1875q-1.875 0 -3.34375 -0.84375q-1.46875 -0.84375 -2.3125 -2.390625q-0.84375 -1.546875 -0.84375 -3.578125q0 -2.046875 0.8125 -3.578125q0.8125 -1.546875 2.28125 -2.375q1.484375 -0.828125 3.40625 -0.828125q1.875 0 3.3125 0.828125q1.4375 0.8125 2.21875 2.25q0.78125 1.421875 0.78125 3.21875zm-2.25 -0.453125q0 -1.25 -0.5625 -2.140625q-0.546875 -0.90625 -1.5 -1.375q-0.9375 -0.46875 -2.09375 -0.46875q-1.65625 0 -2.828125 1.0625q-1.15625 1.046875 -1.328125 2.921875l8.3125 0z" fill-rule="nonzero"/><path fill="#eeeeee" d="m342.5015 232.12064l274.99704 0l0 0c36.02533 0 65.229675 16.959167 65.229675 37.879364c0 20.920197 -29.204346 37.879364 -65.229675 37.879364l-274.99704 0l0 0c-36.02536 0 -65.229675 -16.959167 -65.229675 -37.879364c0 -20.920197 29.204315 -37.879364 65.229675 -37.879364z" fill-rule="evenodd"/><path stroke="#20222d" stroke-width="8.0" stroke-linejoin="round" stroke-linecap="butt" d="m342.5015 232.12064l274.99704 0l0 0c36.02533 0 65.229675 16.959167 65.229675 37.879364c0 20.920197 -29.204346 37.879364 -65.229675 37.879364l-274.99704 0l0 0c-36.02536 0 -65.229675 -16.959167 -65.229675 -37.879364c0 -20.920197 29.204315 -37.879364 65.229675 -37.879364z" fill-rule="evenodd"/><path fill="#000000" d="m372.92358 266.71188q0 2.078125 -1.4375 3.46875q-1.421875 1.375 -4.34375 1.375l-3.21875 0l0 6.984375l-2.1875 0l0 -16.734375l5.40625 0q2.828125 0 4.296875 1.375q1.484375 1.375 1.484375 3.53125zm-5.78125 3.046875q1.828125 0 2.6875 -0.796875q0.859375 -0.796875 0.859375 -2.25q0 -3.09375 -3.546875 -3.09375l-3.21875 0l0 6.140625l3.21875 0zm20.16159 -4.375l0 13.15625l-2.1875 0l0 -1.9375q-0.625 1.0 -1.75 1.5625q-1.109375 0.5625 -2.453125 0.5625q-1.53125 0 -2.765625 -0.625q-1.21875 -0.640625 -1.921875 -1.90625q-0.703125 -1.28125 -0.703125 -3.109375l0 -7.703125l2.15625 0l0 7.421875q0 1.9375 0.984375 2.984375q0.984375 1.046875 2.6875 1.046875q1.75 0 2.75 -1.078125q1.015625 -1.078125 1.015625 -3.140625l0 -7.234375l2.1875 0zm5.87558 2.453125q0.671875 -1.171875 1.96875 -1.921875q1.296875 -0.75 2.953125 -0.75q1.78125 0 3.1875 0.84375q1.421875 0.84375 2.234375 2.375q0.8125 1.515625 0.8125 3.53125q0 2.0 -0.8125 3.5625q-0.8125 1.546875 -2.25 2.421875q-1.421875 0.859375 -3.171875 0.859375q-1.703125 0 -2.984375 -0.734375q-1.28125 -0.75 -1.9375 -1.90625l0 2.421875l-2.1875 0l0 -17.765625l2.1875 0l0 7.0625zm8.921875 4.078125q0 -1.484375 -0.59375 -2.578125q-0.59375 -1.109375 -1.625 -1.6875q-1.015625 -0.578125 -2.234375 -0.578125q-1.203125 0 -2.234375 0.59375q-1.015625 0.578125 -1.625 1.703125q-0.609375 1.109375 -0.609375 2.578125q0 1.484375 0.609375 2.609375q0.609375 1.109375 1.625 1.703125q1.03125 0.578125 2.234375 0.578125q1.21875 0 2.234375 -0.578125q1.03125 -0.59375 1.625 -1.703125q0.59375 -1.125 0.59375 -2.640625zm7.3020935 -11.140625l0 17.765625l-2.1875 0l0 -17.765625l2.1875 0zm4.841461 2.484375q-0.609375 0 -1.046875 -0.4375q-0.4375 -0.4375 -0.4375 -1.0625q0 -0.625 0.4375 -1.046875q0.4375 -0.4375 1.046875 -0.4375q0.609375 0 1.03125 0.4375q0.421875 0.421875 0.421875 1.046875q0 0.625 -0.421875 1.0625q-0.421875 0.4375 -1.03125 0.4375zm1.0625 2.125l0 13.15625l-2.1875 0l0 -13.15625l2.1875 0zm8.372742 13.375q-1.515625 0 -2.71875 -0.515625q-1.1875 -0.515625 -1.890625 -1.4375q-0.6875 -0.921875 -0.765625 -2.125l2.265625 0q0.09375 0.984375 0.921875 1.609375q0.828125 0.625 2.171875 0.625q1.25 0 1.96875 -0.546875q0.71875 -0.5625 0.71875 -1.40625q0 -0.859375 -0.78125 -1.28125q-0.765625 -0.421875 -2.359375 -0.828125q-1.46875 -0.390625 -2.390625 -0.78125q-0.921875 -0.390625 -1.59375 -1.171875q-0.65625 -0.78125 -0.65625 -2.0625q0 -1.0 0.59375 -1.84375q0.609375 -0.84375 1.703125 -1.328125q1.109375 -0.5 2.53125 -0.5q2.1875 0 3.53125 1.109375q1.34375 1.109375 1.4375 3.03125l-2.1875 0q-0.078125 -1.03125 -0.828125 -1.65625q-0.75 -0.625 -2.03125 -0.625q-1.171875 0 -1.875 0.5q-0.6875 0.5 -0.6875 1.3125q0 0.65625 0.421875 1.078125q0.421875 0.421875 1.046875 0.671875q0.640625 0.25 1.765625 0.5625q1.421875 0.375 2.3125 0.75q0.890625 0.375 1.515625 1.125q0.640625 0.734375 0.65625 1.9375q0 1.078125 -0.59375 1.953125q-0.59375 0.859375 -1.6875 1.359375q-1.09375 0.484375 -2.515625 0.484375zm14.402985 -13.609375q1.484375 0 2.6875 0.640625q1.203125 0.625 1.875 1.90625q0.6875 1.265625 0.6875 3.09375l0 7.75l-2.15625 0l0 -7.4375q0 -1.96875 -0.984375 -3.015625q-0.984375 -1.046875 -2.6875 -1.046875q-1.71875 0 -2.75 1.078125q-1.015625 1.078125 -1.015625 3.15625l0 7.265625l-2.1875 0l0 -17.765625l2.1875 0l0 6.484375q0.65625 -1.0 1.78125 -1.546875q1.140625 -0.5625 2.5625 -0.5625zm32.205414 -3.21875l0 16.609375l-2.1875 0l0 -12.390625l-5.515625 12.390625l-1.53125 0l-5.546875 -12.40625l0 12.40625l-2.1875 0l0 -16.609375l2.359375 0l6.140625 13.734375l6.140625 -13.734375l2.328125 0zm15.69519 9.53125q0 0.625 -0.0625 1.3125l-10.515625 0q0.125 1.953125 1.328125 3.046875q1.21875 1.09375 2.9375 1.09375q1.421875 0 2.359375 -0.65625q0.953125 -0.671875 1.34375 -1.78125l2.34375 0q-0.515625 1.90625 -2.109375 3.09375q-1.578125 1.1875 -3.9375 1.1875q-1.875 0 -3.34375 -0.84375q-1.46875 -0.84375 -2.3125 -2.390625q-0.84375 -1.546875 -0.84375 -3.578125q0 -2.046875 0.8125 -3.578125q0.8125 -1.546875 2.28125 -2.375q1.484375 -0.828125 3.40625 -0.828125q1.875 0 3.3125 0.828125q1.4375 0.8125 2.21875 2.25q0.78125 1.421875 0.78125 3.21875zm-2.25 -0.453125q0 -1.25 -0.5625 -2.140625q-0.546875 -0.90625 -1.5 -1.375q-0.9375 -0.46875 -2.09375 -0.46875q-1.65625 0 -2.828125 1.0625q-1.15625 1.046875 -1.328125 2.921875l8.3125 0zm7.3174744 -3.484375q0.578125 -1.125 1.640625 -1.75q1.078125 -0.625 2.609375 -0.625l0 2.25l-0.578125 0q-3.671875 0 -3.671875 3.984375l0 7.15625l-2.1875 0l0 -13.15625l2.1875 0l0 2.140625zm12.18634 -2.359375q1.703125 0 2.984375 0.75q1.296875 0.75 1.921875 1.875l0 -2.40625l2.203125 0l0 13.4375q0 1.8125 -0.765625 3.203125q-0.765625 1.40625 -2.203125 2.203125q-1.421875 0.796875 -3.3125 0.796875q-2.59375 0 -4.328125 -1.234375q-1.71875 -1.21875 -2.03125 -3.328125l2.15625 0q0.359375 1.203125 1.484375 1.921875q1.125 0.734375 2.71875 0.734375q1.796875 0 2.9375 -1.125q1.140625 -1.125 1.140625 -3.171875l0 -2.75q-0.65625 1.15625 -1.9375 1.921875q-1.265625 0.765625 -2.96875 0.765625q-1.75 0 -3.1875 -0.859375q-1.421875 -0.875 -2.234375 -2.421875q-0.8125 -1.5625 -0.8125 -3.5625q0 -2.015625 0.8125 -3.53125q0.8125 -1.53125 2.234375 -2.375q1.4375 -0.84375 3.1875 -0.84375zm4.90625 6.78125q0 -1.5 -0.609375 -2.59375q-0.59375 -1.109375 -1.625 -1.6875q-1.015625 -0.59375 -2.234375 -0.59375q-1.21875 0 -2.234375 0.578125q-1.0 0.578125 -1.609375 1.6875q-0.59375 1.09375 -0.59375 2.578125q0 1.515625 0.59375 2.640625q0.609375 1.109375 1.609375 1.703125q1.015625 0.578125 2.234375 0.578125q1.21875 0 2.234375 -0.578125q1.03125 -0.59375 1.625 -1.703125q0.609375 -1.125 0.609375 -2.609375zm17.895844 -0.484375q0 0.625 -0.0625 1.3125l-10.515625 0q0.125 1.953125 1.328125 3.046875q1.21875 1.09375 2.9375 1.09375q1.421875 0 2.359375 -0.65625q0.953125 -0.671875 1.34375 -1.78125l2.34375 0q-0.515625 1.90625 -2.109375 3.09375q-1.578125 1.1875 -3.9375 1.1875q-1.875 0 -3.34375 -0.84375q-1.46875 -0.84375 -2.3125 -2.390625q-0.84375 -1.546875 -0.84375 -3.578125q0 -2.046875 0.8125 -3.578125q0.8125 -1.546875 2.28125 -2.375q1.484375 -0.828125 3.40625 -0.828125q1.875 0 3.3125 0.828125q1.4375 0.8125 2.21875 2.25q0.78125 1.421875 0.78125 3.21875zm-2.25 -0.453125q0 -1.25 -0.5625 -2.140625q-0.546875 -0.90625 -1.5 -1.375q-0.9375 -0.46875 -2.09375 -0.46875q-1.65625 0 -2.828125 1.0625q-1.15625 1.046875 -1.328125 2.921875l8.3125 0zm21.834778 -9.203125l0 1.78125l-4.5625 0l0 14.953125l-2.171875 0l0 -14.953125l-4.59375 0l0 -1.78125l11.328125 0zm1.8745728 10.109375q0 -2.015625 0.8125 -3.53125q0.8125 -1.53125 2.234375 -2.375q1.4375 -0.84375 3.1875 -0.84375q1.734375 0 3.0 0.75q1.28125 0.75 1.90625 1.875l0 -2.40625l2.203125 0l0 13.15625l-2.203125 0l0 -2.453125q-0.65625 1.15625 -1.9375 1.921875q-1.28125 0.75 -2.984375 0.75q-1.75 0 -3.171875 -0.859375q-1.421875 -0.875 -2.234375 -2.421875q-0.8125 -1.5625 -0.8125 -3.5625zm11.140625 0.03125q0 -1.5 -0.609375 -2.59375q-0.59375 -1.109375 -1.625 -1.6875q-1.015625 -0.59375 -2.234375 -0.59375q-1.21875 0 -2.234375 0.578125q-1.0 0.578125 -1.609375 1.6875q-0.59375 1.09375 -0.59375 2.578125q0 1.515625 0.59375 2.640625q0.609375 1.109375 1.609375 1.703125q1.015625 0.578125 2.234375 0.578125q1.21875 0 2.234375 -0.578125q1.03125 -0.59375 1.625 -1.703125q0.609375 -1.125 0.609375 -2.609375zm10.552124 6.8125q-1.515625 0 -2.71875 -0.515625q-1.1875 -0.515625 -1.890625 -1.4375q-0.6875 -0.921875 -0.765625 -2.125l2.265625 0q0.09375 0.984375 0.921875 1.609375q0.828125 0.625 2.171875 0.625q1.25 0 1.96875 -0.546875q0.71875 -0.5625 0.71875 -1.40625q0 -0.859375 -0.78125 -1.28125q-0.765625 -0.421875 -2.359375 -0.828125q-1.46875 -0.390625 -2.390625 -0.78125q-0.921875 -0.390625 -1.59375 -1.171875q-0.65625 -0.78125 -0.65625 -2.0625q0 -1.0 0.59375 -1.84375q0.609375 -0.84375 1.703125 -1.328125q1.109375 -0.5 2.53125 -0.5q2.1875 0 3.53125 1.109375q1.34375 1.109375 1.4375 3.03125l-2.1875 0q-0.078125 -1.03125 -0.828125 -1.65625q-0.75 -0.625 -2.03125 -0.625q-1.171875 0 -1.875 0.5q-0.6875 0.5 -0.6875 1.3125q0 0.65625 0.421875 1.078125q0.421875 0.421875 1.046875 0.671875q0.640625 0.25 1.765625 0.5625q1.421875 0.375 2.3125 0.75q0.890625 0.375 1.515625 1.125q0.640625 0.734375 0.65625 1.9375q0 1.078125 -0.59375 1.953125q-0.59375 0.859375 -1.6875 1.359375q-1.09375 0.484375 -2.515625 0.484375zm15.215454 -0.21875l-5.15625 -5.8125l0 5.8125l-2.1875 0l0 -17.765625l2.1875 0l0 10.453125l5.0625 -5.84375l3.046875 0l-6.1875 6.5625l6.21875 6.59375l-2.984375 0zm9.672485 0.21875q-1.515625 0 -2.71875 -0.515625q-1.1875 -0.515625 -1.890625 -1.4375q-0.6875 -0.921875 -0.765625 -2.125l2.265625 0q0.09375 0.984375 0.921875 1.609375q0.828125 0.625 2.171875 0.625q1.25 0 1.96875 -0.546875q0.71875 -0.5625 0.71875 -1.40625q0 -0.859375 -0.78125 -1.28125q-0.765625 -0.421875 -2.359375 -0.828125q-1.46875 -0.390625 -2.390625 -0.78125q-0.921875 -0.390625 -1.59375 -1.171875q-0.65625 -0.78125 -0.65625 -2.0625q0 -1.0 0.59375 -1.84375q0.609375 -0.84375 1.703125 -1.328125q1.109375 -0.5 2.53125 -0.5q2.1875 0 3.53125 1.109375q1.34375 1.109375 1.4375 3.03125l-2.1875 0q-0.078125 -1.03125 -0.828125 -1.65625q-0.75 -0.625 -2.03125 -0.625q-1.171875 0 -1.875 0.5q-0.6875 0.5 -0.6875 1.3125q0 0.65625 0.421875 1.078125q0.421875 0.421875 1.046875 0.671875q0.640625 0.25 1.765625 0.5625q1.421875 0.375 2.3125 0.75q0.890625 0.375 1.515625 1.125q0.640625 0.734375 0.65625 1.9375q0 1.078125 -0.59375 1.953125q-0.59375 0.859375 -1.6875 1.359375q-1.09375 0.484375 -2.515625 0.484375z" fill-rule="nonzero"/><path fill="#d14770" d="m342.5015 342.36276l274.99704 0l0 0c36.02533 0 65.229675 16.959167 65.229675 37.879364c0 20.920197 -29.204346 37.879364 -65.229675 37.879364l-274.99704 0l0 0c-36.02536 0 -65.229675 -16.959167 -65.229675 -37.879364c0 -20.920197 29.204315 -37.879364 65.229675 -37.879364z" fill-rule="evenodd"/><path stroke="#20222d" stroke-width="8.0" stroke-linejoin="round" stroke-linecap="butt" d="m342.5015 342.36276l274.99704 0l0 0c36.02533 0 65.229675 16.959167 65.229675 37.879364c0 20.920197 -29.204346 37.879364 -65.229675 37.879364l-274.99704 0l0 0c-36.02536 0 -65.229675 -16.959167 -65.229675 -37.879364c0 -20.920197 29.204315 -37.879364 65.229675 -37.879364z" fill-rule="evenodd"/><path fill="#ffffff" d="m374.90085 372.17276l0 16.609375l-2.1875 0l0 -12.390625l-5.515625 12.390625l-1.53125 0l-5.546875 -12.40625l0 12.40625l-2.1875 0l0 -16.609375l2.359375 0l6.140625 13.734375l6.140625 -13.734375l2.328125 0zm15.69519 9.53125q0 0.625 -0.0625 1.3125l-10.515625 0q0.125 1.953125 1.328125 3.046875q1.21875 1.09375 2.9375 1.09375q1.421875 0 2.359375 -0.65625q0.953125 -0.671875 1.34375 -1.78125l2.34375 0q-0.515625 1.90625 -2.109375 3.09375q-1.578125 1.1875 -3.9375 1.1875q-1.875 0 -3.34375 -0.84375q-1.46875 -0.84375 -2.3125 -2.390625q-0.84375 -1.546875 -0.84375 -3.578125q0 -2.046875 0.8125 -3.578125q0.8125 -1.546875 2.28125 -2.375q1.484375 -0.828125 3.40625 -0.828125q1.875 0 3.3125 0.828125q1.4375 0.8125 2.21875 2.25q0.78125 1.421875 0.78125 3.21875zm-2.25 -0.453125q0 -1.25 -0.5625 -2.140625q-0.546875 -0.90625 -1.5 -1.375q-0.9375 -0.46875 -2.09375 -0.46875q-1.65625 0 -2.828125 1.0625q-1.15625 1.046875 -1.328125 2.921875l8.3125 0zm7.3174744 -3.484375q0.578125 -1.125 1.640625 -1.75q1.078125 -0.625 2.609375 -0.625l0 2.25l-0.578125 0q-3.671875 0 -3.671875 3.984375l0 7.15625l-2.1875 0l0 -13.15625l2.1875 0l0 2.140625zm12.18634 -2.359375q1.703125 0 2.984375 0.75q1.296875 0.75 1.921875 1.875l0 -2.40625l2.203125 0l0 13.4375q0 1.8125 -0.765625 3.203125q-0.765625 1.40625 -2.203125 2.203125q-1.421875 0.796875 -3.3125 0.796875q-2.59375 0 -4.328125 -1.234375q-1.71875 -1.21875 -2.03125 -3.328125l2.15625 0q0.359375 1.203125 1.484375 1.921875q1.125 0.734375 2.71875 0.734375q1.796875 0 2.9375 -1.125q1.140625 -1.125 1.140625 -3.171875l0 -2.75q-0.65625 1.15625 -1.9375 1.921875q-1.265625 0.765625 -2.96875 0.765625q-1.75 0 -3.1875 -0.859375q-1.421875 -0.875 -2.234375 -2.421875q-0.8125 -1.5625 -0.8125 -3.5625q0 -2.015625 0.8125 -3.53125q0.8125 -1.53125 2.234375 -2.375q1.4375 -0.84375 3.1875 -0.84375zm4.90625 6.78125q0 -1.5 -0.609375 -2.59375q-0.59375 -1.109375 -1.625 -1.6875q-1.015625 -0.59375 -2.234375 -0.59375q-1.21875 0 -2.234375 0.578125q-1.0 0.578125 -1.609375 1.6875q-0.59375 1.09375 -0.59375 2.578125q0 1.515625 0.59375 2.640625q0.609375 1.109375 1.609375 1.703125q1.015625 0.578125 2.234375 0.578125q1.21875 0 2.234375 -0.578125q1.03125 -0.59375 1.625 -1.703125q0.609375 -1.125 0.609375 -2.609375zm17.895844 -0.484375q0 0.625 -0.0625 1.3125l-10.515625 0q0.125 1.953125 1.328125 3.046875q1.21875 1.09375 2.9375 1.09375q1.421875 0 2.359375 -0.65625q0.953125 -0.671875 1.34375 -1.78125l2.34375 0q-0.515625 1.90625 -2.109375 3.09375q-1.578125 1.1875 -3.9375 1.1875q-1.875 0 -3.34375 -0.84375q-1.46875 -0.84375 -2.3125 -2.390625q-0.84375 -1.546875 -0.84375 -3.578125q0 -2.046875 0.8125 -3.578125q0.8125 -1.546875 2.28125 -2.375q1.484375 -0.828125 3.40625 -0.828125q1.875 0 3.3125 0.828125q1.4375 0.8125 2.21875 2.25q0.78125 1.421875 0.78125 3.21875zm-2.25 -0.453125q0 -1.25 -0.5625 -2.140625q-0.546875 -0.90625 -1.5 -1.375q-0.9375 -0.46875 -2.09375 -0.46875q-1.65625 0 -2.828125 1.0625q-1.15625 1.046875 -1.328125 2.921875l8.3125 0zm22.725433 -4.296875q0 2.078125 -1.4375 3.46875q-1.421875 1.375 -4.34375 1.375l-3.21875 0l0 6.984375l-2.1875 0l0 -16.734375l5.40625 0q2.828125 0 4.296875 1.375q1.484375 1.375 1.484375 3.53125zm-5.78125 3.046875q1.828125 0 2.6875 -0.796875q0.859375 -0.796875 0.859375 -2.25q0 -3.09375 -3.546875 -3.09375l-3.21875 0l0 6.140625l3.21875 0zm7.6772156 2.15625q0 -2.015625 0.8125 -3.53125q0.8125 -1.53125 2.234375 -2.375q1.4375 -0.84375 3.1875 -0.84375q1.734375 0 3.0 0.75q1.28125 0.75 1.90625 1.875l0 -2.40625l2.203125 0l0 13.15625l-2.203125 0l0 -2.453125q-0.65625 1.15625 -1.9375 1.921875q-1.28125 0.75 -2.984375 0.75q-1.75 0 -3.171875 -0.859375q-1.421875 -0.875 -2.234375 -2.421875q-0.8125 -1.5625 -0.8125 -3.5625zm11.140625 0.03125q0 -1.5 -0.609375 -2.59375q-0.59375 -1.109375 -1.625 -1.6875q-1.015625 -0.59375 -2.234375 -0.59375q-1.21875 0 -2.234375 0.578125q-1.0 0.578125 -1.609375 1.6875q-0.59375 1.09375 -0.59375 2.578125q0 1.515625 0.59375 2.640625q0.609375 1.109375 1.609375 1.703125q1.015625 0.578125 2.234375 0.578125q1.21875 0 2.234375 -0.578125q1.03125 -0.59375 1.625 -1.703125q0.609375 -1.125 0.609375 -2.609375zm8.083313 -4.421875q0.578125 -1.125 1.640625 -1.75q1.078125 -0.625 2.609375 -0.625l0 2.25l-0.578125 0q-3.671875 0 -3.671875 3.984375l0 7.15625l-2.1875 0l0 -13.15625l2.1875 0l0 2.140625zm9.436371 -0.34375l0 7.765625q0 0.953125 0.40625 1.359375q0.40625 0.390625 1.421875 0.390625l1.59375 0l0 1.84375l-1.96875 0q-1.8125 0 -2.734375 -0.84375q-0.90625 -0.84375 -0.90625 -2.75l0 -7.765625l-1.703125 0l0 -1.796875l1.703125 0l0 -3.3125l2.1875 0l0 3.3125l3.421875 0l0 1.796875l-3.421875 0zm7.189087 -3.921875q-0.609375 0 -1.046875 -0.4375q-0.4375 -0.4375 -0.4375 -1.0625q0 -0.625 0.4375 -1.046875q0.4375 -0.4375 1.046875 -0.4375q0.609375 0 1.03125 0.4375q0.421875 0.421875 0.421875 1.046875q0 0.625 -0.421875 1.0625q-0.421875 0.4375 -1.03125 0.4375zm1.0625 2.125l0 13.15625l-2.1875 0l0 -13.15625l2.1875 0zm6.3883667 1.796875l0 7.765625q0 0.953125 0.40625 1.359375q0.40625 0.390625 1.421875 0.390625l1.59375 0l0 1.84375l-1.96875 0q-1.8125 0 -2.734375 -0.84375q-0.90625 -0.84375 -0.90625 -2.75l0 -7.765625l-1.703125 0l0 -1.796875l1.703125 0l0 -3.3125l2.1875 0l0 3.3125l3.421875 0l0 1.796875l-3.421875 0zm7.189087 -3.921875q-0.609375 0 -1.046875 -0.4375q-0.4375 -0.4375 -0.4375 -1.0625q0 -0.625 0.4375 -1.046875q0.4375 -0.4375 1.046875 -0.4375q0.609375 0 1.03125 0.4375q0.421875 0.421875 0.421875 1.046875q0 0.625 -0.421875 1.0625q-0.421875 0.4375 -1.03125 0.4375zm1.0625 2.125l0 13.15625l-2.1875 0l0 -13.15625l2.1875 0zm9.450867 13.375q-1.84375 0 -3.34375 -0.84375q-1.5 -0.84375 -2.359375 -2.390625q-0.84375 -1.546875 -0.84375 -3.578125q0 -2.015625 0.875 -3.5625q0.875 -1.5625 2.390625 -2.390625q1.515625 -0.828125 3.390625 -0.828125q1.859375 0 3.375 0.828125q1.515625 0.828125 2.390625 2.375q0.875 1.53125 0.875 3.578125q0 2.03125 -0.90625 3.578125q-0.890625 1.546875 -2.4375 2.390625q-1.53125 0.84375 -3.40625 0.84375zm0 -1.921875q1.1875 0 2.21875 -0.546875q1.03125 -0.5625 1.65625 -1.65625q0.640625 -1.109375 0.640625 -2.6875q0 -1.59375 -0.625 -2.6875q-0.625 -1.109375 -1.640625 -1.640625q-1.0 -0.546875 -2.171875 -0.546875q-1.203125 0 -2.203125 0.546875q-0.984375 0.53125 -1.59375 1.640625q-0.59375 1.09375 -0.59375 2.6875q0 1.609375 0.578125 2.71875q0.59375 1.09375 1.578125 1.640625q0.984375 0.53125 2.15625 0.53125zm16.0318 -11.6875q2.40625 0 3.890625 1.453125q1.484375 1.453125 1.484375 4.1875l0 7.75l-2.15625 0l0 -7.4375q0 -1.96875 -0.984375 -3.015625q-0.984375 -1.046875 -2.6875 -1.046875q-1.71875 0 -2.75 1.078125q-1.015625 1.078125 -1.015625 3.15625l0 7.265625l-2.1875 0l0 -13.15625l2.1875 0l0 1.875q0.65625 -1.0 1.765625 -1.546875q1.109375 -0.5625 2.453125 -0.5625zm26.549194 1.5625q0 2.078125 -1.4375 3.46875q-1.421875 1.375 -4.34375 1.375l-3.21875 0l0 6.984375l-2.1875 0l0 -16.734375l5.40625 0q2.828125 0 4.296875 1.375q1.484375 1.375 1.484375 3.53125zm-5.78125 3.046875q1.828125 0 2.6875 -0.796875q0.859375 -0.796875 0.859375 -2.25q0 -3.09375 -3.546875 -3.09375l-3.21875 0l0 6.140625l3.21875 0zm7.677185 2.15625q0 -2.015625 0.8125 -3.53125q0.8125 -1.53125 2.234375 -2.375q1.4375 -0.84375 3.1875 -0.84375q1.734375 0 3.0 0.75q1.28125 0.75 1.90625 1.875l0 -2.40625l2.203125 0l0 13.15625l-2.203125 0l0 -2.453125q-0.65625 1.15625 -1.9375 1.921875q-1.28125 0.75 -2.984375 0.75q-1.75 0 -3.171875 -0.859375q-1.421875 -0.875 -2.234375 -2.421875q-0.8125 -1.5625 -0.8125 -3.5625zm11.140625 0.03125q0 -1.5 -0.609375 -2.59375q-0.59375 -1.109375 -1.625 -1.6875q-1.015625 -0.59375 -2.234375 -0.59375q-1.21875 0 -2.234375 0.578125q-1.0 0.578125 -1.609375 1.6875q-0.59375 1.09375 -0.59375 2.578125q0 1.515625 0.59375 2.640625q0.609375 1.109375 1.609375 1.703125q1.015625 0.578125 2.234375 0.578125q1.21875 0 2.234375 -0.578125q1.03125 -0.59375 1.625 -1.703125q0.609375 -1.125 0.609375 -2.609375zm8.083374 -4.421875q0.578125 -1.125 1.640625 -1.75q1.078125 -0.625 2.609375 -0.625l0 2.25l-0.578125 0q-3.671875 0 -3.671875 3.984375l0 7.15625l-2.1875 0l0 -13.15625l2.1875 0l0 2.140625zm9.43634 -0.34375l0 7.765625q0 0.953125 0.40625 1.359375q0.40625 0.390625 1.421875 0.390625l1.59375 0l0 1.84375l-1.96875 0q-1.8125 0 -2.734375 -0.84375q-0.90625 -0.84375 -0.90625 -2.75l0 -7.765625l-1.703125 0l0 -1.796875l1.703125 0l0 -3.3125l2.1875 0l0 3.3125l3.421875 0l0 1.796875l-3.421875 0zm10.720337 11.578125q-1.515625 0 -2.71875 -0.515625q-1.1875 -0.515625 -1.890625 -1.4375q-0.6875 -0.921875 -0.765625 -2.125l2.265625 0q0.09375 0.984375 0.921875 1.609375q0.828125 0.625 2.171875 0.625q1.25 0 1.96875 -0.546875q0.71875 -0.5625 0.71875 -1.40625q0 -0.859375 -0.78125 -1.28125q-0.765625 -0.421875 -2.359375 -0.828125q-1.46875 -0.390625 -2.390625 -0.78125q-0.921875 -0.390625 -1.59375 -1.171875q-0.65625 -0.78125 -0.65625 -2.0625q0 -1.0 0.59375 -1.84375q0.609375 -0.84375 1.703125 -1.328125q1.109375 -0.5 2.53125 -0.5q2.1875 0 3.53125 1.109375q1.34375 1.109375 1.4375 3.03125l-2.1875 0q-0.078125 -1.03125 -0.828125 -1.65625q-0.75 -0.625 -2.03125 -0.625q-1.171875 0 -1.875 0.5q-0.6875 0.5 -0.6875 1.3125q0 0.65625 0.421875 1.078125q0.421875 0.421875 1.046875 0.671875q0.640625 0.25 1.765625 0.5625q1.421875 0.375 2.3125 0.75q0.890625 0.375 1.515625 1.125q0.640625 0.734375 0.65625 1.9375q0 1.078125 -0.59375 1.953125q-0.59375 0.859375 -1.6875 1.359375q-1.09375 0.484375 -2.515625 0.484375z" fill-rule="nonzero"/><path fill="#eeeeee" d="m342.5015 452.6049l274.99704 0l0 0c36.02533 0 65.229675 16.959167 65.229675 37.879364c0 20.920197 -29.204346 37.879395 -65.229675 37.879395l-274.99704 0l0 0c-36.02536 0 -65.229675 -16.959198 -65.229675 -37.879395c0 -20.920197 29.204315 -37.879364 65.229675 -37.879364z" fill-rule="evenodd"/><path stroke="#20222d" stroke-width="8.0" stroke-linejoin="round" stroke-linecap="butt" d="m342.5015 452.6049l274.99704 0l0 0c36.02533 0 65.229675 16.959167 65.229675 37.879364c0 20.920197 -29.204346 37.879395 -65.229675 37.879395l-274.99704 0l0 0c-36.02536 0 -65.229675 -16.959198 -65.229675 -37.879395c0 -20.920197 29.204315 -37.879364 65.229675 -37.879364z" fill-rule="evenodd"/><path fill="#000000" d="m393.6235 490.64926q0 -2.453125 1.09375 -4.40625q1.109375 -1.953125 3.015625 -3.046875q1.921875 -1.109375 4.25 -1.109375q2.734375 0 4.765625 1.328125q2.046875 1.3125 2.984375 3.734375l-2.625 0q-0.6875 -1.515625 -2.0 -2.328125q-1.3125 -0.828125 -3.125 -0.828125q-1.765625 0 -3.15625 0.828125q-1.390625 0.8125 -2.1875 2.3125q-0.78125 1.5 -0.78125 3.515625q0 1.984375 0.78125 3.484375q0.796875 1.5 2.1875 2.328125q1.390625 0.8125 3.15625 0.8125q1.8125 0 3.125 -0.796875q1.3125 -0.8125 2.0 -2.328125l2.625 0q-0.9375 2.40625 -2.984375 3.71875q-2.03125 1.296875 -4.765625 1.296875q-2.328125 0 -4.25 -1.09375q-1.90625 -1.09375 -3.015625 -3.03125q-1.09375 -1.9375 -1.09375 -4.390625zm25.07483 8.59375q-1.84375 0 -3.34375 -0.84375q-1.5 -0.84375 -2.359375 -2.390625q-0.84375 -1.546875 -0.84375 -3.578125q0 -2.015625 0.875 -3.5625q0.875 -1.5625 2.390625 -2.390625q1.515625 -0.828125 3.390625 -0.828125q1.859375 0 3.375 0.828125q1.515625 0.828125 2.390625 2.375q0.875 1.53125 0.875 3.578125q0 2.03125 -0.90625 3.578125q-0.890625 1.546875 -2.4375 2.390625q-1.53125 0.84375 -3.40625 0.84375zm0 -1.921875q1.1875 0 2.21875 -0.546875q1.03125 -0.5625 1.65625 -1.65625q0.640625 -1.109375 0.640625 -2.6875q0 -1.59375 -0.625 -2.6875q-0.625 -1.109375 -1.640625 -1.640625q-1.0 -0.546875 -2.171875 -0.546875q-1.203125 0 -2.203125 0.546875q-0.984375 0.53125 -1.59375 1.640625q-0.59375 1.09375 -0.59375 2.6875q0 1.609375 0.578125 2.71875q0.59375 1.09375 1.578125 1.640625q0.984375 0.53125 2.15625 0.53125zm11.81308 -16.0625l0 17.765625l-2.1875 0l0 -17.765625l2.1875 0zm5.903961 0l0 17.765625l-2.1875 0l0 -17.765625l2.1875 0zm15.716492 10.6875q0 0.625 -0.0625 1.3125l-10.515625 0q0.125 1.953125 1.328125 3.046875q1.21875 1.09375 2.9375 1.09375q1.421875 0 2.359375 -0.65625q0.953125 -0.671875 1.34375 -1.78125l2.34375 0q-0.515625 1.90625 -2.109375 3.09375q-1.578125 1.1875 -3.9375 1.1875q-1.875 0 -3.34375 -0.84375q-1.46875 -0.84375 -2.3125 -2.390625q-0.84375 -1.546875 -0.84375 -3.578125q0 -2.046875 0.8125 -3.578125q0.8125 -1.546875 2.28125 -2.375q1.484375 -0.828125 3.40625 -0.828125q1.875 0 3.3125 0.828125q1.4375 0.8125 2.21875 2.25q0.78125 1.421875 0.78125 3.21875zm-2.25 -0.453125q0 -1.25 -0.5625 -2.140625q-0.546875 -0.90625 -1.5 -1.375q-0.9375 -0.46875 -2.09375 -0.46875q-1.65625 0 -2.828125 1.0625q-1.15625 1.046875 -1.328125 2.921875l8.3125 0zm4.317444 0.9375q0 -2.046875 0.8125 -3.5625q0.8125 -1.53125 2.265625 -2.375q1.453125 -0.84375 3.328125 -0.84375q2.421875 0 4.0 1.1875q1.578125 1.171875 2.078125 3.265625l-2.359375 0q-0.328125 -1.203125 -1.3125 -1.890625q-0.96875 -0.703125 -2.40625 -0.703125q-1.875 0 -3.03125 1.28125q-1.140625 1.28125 -1.140625 3.640625q0 2.375 1.140625 3.671875q1.15625 1.296875 3.03125 1.296875q1.4375 0 2.390625 -0.671875q0.96875 -0.671875 1.328125 -1.921875l2.359375 0q-0.53125 2.015625 -2.125 3.234375q-1.578125 1.203125 -3.953125 1.203125q-1.875 0 -3.328125 -0.84375q-1.453125 -0.84375 -2.265625 -2.375q-0.8125 -1.53125 -0.8125 -3.59375zm18.052338 -4.765625l0 7.765625q0 0.953125 0.40625 1.359375q0.40625 0.390625 1.421875 0.390625l1.59375 0l0 1.84375l-1.96875 0q-1.8125 0 -2.734375 -0.84375q-0.90625 -0.84375 -0.90625 -2.75l0 -7.765625l-1.703125 0l0 -1.796875l1.703125 0l0 -3.3125l2.1875 0l0 3.3125l3.421875 0l0 1.796875l-3.421875 0zm21.284576 11.359375l-3.984375 -6.84375l-2.640625 0l0 6.84375l-2.1875 0l0 -16.734375l5.40625 0q1.890625 0 3.203125 0.65625q1.3125 0.640625 1.953125 1.75q0.65625 1.109375 0.65625 2.515625q0 1.734375 -1.0 3.0625q-1.0 1.3125 -2.984375 1.734375l4.1875 7.015625l-2.609375 0zm-6.625 -8.59375l3.21875 0q1.78125 0 2.65625 -0.875q0.890625 -0.875 0.890625 -2.34375q0 -1.484375 -0.875 -2.296875q-0.875 -0.8125 -2.671875 -0.8125l-3.21875 0l0 6.328125zm24.40448 1.515625q0 0.625 -0.0625 1.3125l-10.515625 0q0.125 1.953125 1.328125 3.046875q1.21875 1.09375 2.9375 1.09375q1.421875 0 2.359375 -0.65625q0.953125 -0.671875 1.34375 -1.78125l2.34375 0q-0.515625 1.90625 -2.109375 3.09375q-1.578125 1.1875 -3.9375 1.1875q-1.875 0 -3.34375 -0.84375q-1.46875 -0.84375 -2.3125 -2.390625q-0.84375 -1.546875 -0.84375 -3.578125q0 -2.046875 0.8125 -3.578125q0.8125 -1.546875 2.28125 -2.375q1.484375 -0.828125 3.40625 -0.828125q1.875 0 3.3125 0.828125q1.4375 0.8125 2.21875 2.25q0.78125 1.421875 0.78125 3.21875zm-2.25 -0.453125q0 -1.25 -0.5625 -2.140625q-0.546875 -0.90625 -1.5 -1.375q-0.9375 -0.46875 -2.09375 -0.46875q-1.65625 0 -2.828125 1.0625q-1.15625 1.046875 -1.328125 2.921875l8.3125 0zm9.786224 7.75q-1.515625 0 -2.71875 -0.515625q-1.1875 -0.515625 -1.890625 -1.4375q-0.6875 -0.921875 -0.765625 -2.125l2.265625 0q0.09375 0.984375 0.921875 1.609375q0.828125 0.625 2.171875 0.625q1.25 0 1.96875 -0.546875q0.71875 -0.5625 0.71875 -1.40625q0 -0.859375 -0.78125 -1.28125q-0.765625 -0.421875 -2.359375 -0.828125q-1.46875 -0.390625 -2.390625 -0.78125q-0.921875 -0.390625 -1.59375 -1.171875q-0.65625 -0.78125 -0.65625 -2.0625q0 -1.0 0.59375 -1.84375q0.609375 -0.84375 1.703125 -1.328125q1.109375 -0.5 2.53125 -0.5q2.1875 0 3.53125 1.109375q1.34375 1.109375 1.4375 3.03125l-2.1875 0q-0.078125 -1.03125 -0.828125 -1.65625q-0.75 -0.625 -2.03125 -0.625q-1.171875 0 -1.875 0.5q-0.6875 0.5 -0.6875 1.3125q0 0.65625 0.421875 1.078125q0.421875 0.421875 1.046875 0.671875q0.640625 0.25 1.765625 0.5625q1.421875 0.375 2.3125 0.75q0.890625 0.375 1.515625 1.125q0.640625 0.734375 0.65625 1.9375q0 1.078125 -0.59375 1.953125q-0.59375 0.859375 -1.6875 1.359375q-1.09375 0.484375 -2.515625 0.484375zm19.54358 -13.375l0 13.15625l-2.1875 0l0 -1.9375q-0.625 1.0 -1.75 1.5625q-1.109375 0.5625 -2.453125 0.5625q-1.53125 0 -2.765625 -0.625q-1.21875 -0.640625 -1.921875 -1.90625q-0.703125 -1.28125 -0.703125 -3.109375l0 -7.703125l2.15625 0l0 7.421875q0 1.9375 0.984375 2.984375q0.984375 1.046875 2.6875 1.046875q1.75 0 2.75 -1.078125q1.015625 -1.078125 1.015625 -3.140625l0 -7.234375l2.1875 0zm5.8755493 -4.609375l0 17.765625l-2.1875 0l0 -17.765625l2.1875 0zm6.3883667 6.40625l0 7.765625q0 0.953125 0.40625 1.359375q0.40625 0.390625 1.421875 0.390625l1.59375 0l0 1.84375l-1.96875 0q-1.8125 0 -2.734375 -0.84375q-0.90625 -0.84375 -0.90625 -2.75l0 -7.765625l-1.703125 0l0 -1.796875l1.703125 0l0 -3.3125l2.1875 0l0 3.3125l3.421875 0l0 1.796875l-3.421875 0zm10.720337 11.578125q-1.515625 0 -2.71875 -0.515625q-1.1875 -0.515625 -1.890625 -1.4375q-0.6875 -0.921875 -0.765625 -2.125l2.265625 0q0.09375 0.984375 0.921875 1.609375q0.828125 0.625 2.171875 0.625q1.25 0 1.96875 -0.546875q0.71875 -0.5625 0.71875 -1.40625q0 -0.859375 -0.78125 -1.28125q-0.765625 -0.421875 -2.359375 -0.828125q-1.46875 -0.390625 -2.390625 -0.78125q-0.921875 -0.390625 -1.59375 -1.171875q-0.65625 -0.78125 -0.65625 -2.0625q0 -1.0 0.59375 -1.84375q0.609375 -0.84375 1.703125 -1.328125q1.109375 -0.5 2.53125 -0.5q2.1875 0 3.53125 1.109375q1.34375 1.109375 1.4375 3.03125l-2.1875 0q-0.078125 -1.03125 -0.828125 -1.65625q-0.75 -0.625 -2.03125 -0.625q-1.171875 0 -1.875 0.5q-0.6875 0.5 -0.6875 1.3125q0 0.65625 0.421875 1.078125q0.421875 0.421875 1.046875 0.671875q0.640625 0.25 1.765625 0.5625q1.421875 0.375 2.3125 0.75q0.890625 0.375 1.515625 1.125q0.640625 0.734375 0.65625 1.9375q0 1.078125 -0.59375 1.953125q-0.59375 0.859375 -1.6875 1.359375q-1.09375 0.484375 -2.515625 0.484375z" fill-rule="nonzero"/><path fill="#000000" fill-opacity="0.0" d="m759.40155 245.76378l200.59845 0l0 48.472427l-200.59845 0z" fill-rule="evenodd"/><path fill="#ffffff" d="m783.40155 277.80377l-2.1875 0l-8.78125 -13.3125l0 13.3125l-2.1875 0l0 -16.75l2.1875 0l8.78125 13.296875l0 -13.296875l2.1875 0l0 16.75zm20.420593 -16.734375l0 1.78125l-4.5625 0l0 14.953125l-2.171875 0l0 -14.953125l-4.59375 0l0 -1.78125l11.328125 0zm9.218323 3.34375q1.484375 0 2.6875 0.640625q1.203125 0.625 1.875 1.90625q0.6875 1.265625 0.6875 3.09375l0 7.75l-2.15625 0l0 -7.4375q0 -1.96875 -0.984375 -3.015625q-0.984375 -1.046875 -2.6875 -1.046875q-1.71875 0 -2.75 1.078125q-1.015625 1.078125 -1.015625 3.15625l0 7.265625l-2.1875 0l0 -17.765625l2.1875 0l0 6.484375q0.65625 -1.0 1.78125 -1.546875q1.140625 -0.5625 2.5625 -0.5625zm11.016174 2.375q0.578125 -1.125 1.640625 -1.75q1.078125 -0.625 2.609375 -0.625l0 2.25l-0.578125 0q-3.671875 0 -3.671875 3.984375l0 7.15625l-2.1875 0l0 -13.15625l2.1875 0l0 2.140625zm18.764526 3.9375q0 0.625 -0.0625 1.3125l-10.515625 0q0.125 1.953125 1.328125 3.046875q1.21875 1.09375 2.9375 1.09375q1.421875 0 2.359375 -0.65625q0.953125 -0.671875 1.34375 -1.78125l2.34375 0q-0.515625 1.90625 -2.109375 3.09375q-1.578125 1.1875 -3.9375 1.1875q-1.875 0 -3.34375 -0.84375q-1.46875 -0.84375 -2.3125 -2.390625q-0.84375 -1.546875 -0.84375 -3.578125q0 -2.046875 0.8125 -3.578125q0.8125 -1.546875 2.28125 -2.375q1.484375 -0.828125 3.40625 -0.828125q1.875 0 3.3125 0.828125q1.4375 0.8125 2.21875 2.25q0.78125 1.421875 0.78125 3.21875zm-2.25 -0.453125q0 -1.25 -0.5625 -2.140625q-0.546875 -0.90625 -1.5 -1.375q-0.9375 -0.46875 -2.09375 -0.46875q-1.65625 0 -2.828125 1.0625q-1.15625 1.046875 -1.328125 2.921875l8.3125 0zm4.317444 0.90625q0 -2.015625 0.8125 -3.53125q0.8125 -1.53125 2.234375 -2.375q1.4375 -0.84375 3.1875 -0.84375q1.734375 0 3.0 0.75q1.28125 0.75 1.90625 1.875l0 -2.40625l2.203125 0l0 13.15625l-2.203125 0l0 -2.453125q-0.65625 1.15625 -1.9375 1.921875q-1.28125 0.75 -2.984375 0.75q-1.75 0 -3.171875 -0.859375q-1.421875 -0.875 -2.234375 -2.421875q-0.8125 -1.5625 -0.8125 -3.5625zm11.140625 0.03125q0 -1.5 -0.609375 -2.59375q-0.59375 -1.109375 -1.625 -1.6875q-1.015625 -0.59375 -2.234375 -0.59375q-1.21875 0 -2.234375 0.578125q-1.0 0.578125 -1.609375 1.6875q-0.59375 1.09375 -0.59375 2.578125q0 1.515625 0.59375 2.640625q0.609375 1.109375 1.609375 1.703125q1.015625 0.578125 2.234375 0.578125q1.21875 0 2.234375 -0.578125q1.03125 -0.59375 1.625 -1.703125q0.609375 -1.125 0.609375 -2.609375zm5.083313 -0.03125q0 -2.015625 0.8125 -3.53125q0.8125 -1.53125 2.234375 -2.375q1.4375 -0.84375 3.21875 -0.84375q1.53125 0 2.84375 0.71875q1.328125 0.703125 2.03125 1.859375l0 -6.96875l2.203125 0l0 17.765625l-2.203125 0l0 -2.46875q-0.65625 1.171875 -1.9375 1.9375q-1.265625 0.75 -2.96875 0.75q-1.75 0 -3.1875 -0.859375q-1.421875 -0.875 -2.234375 -2.421875q-0.8125 -1.5625 -0.8125 -3.5625zm11.140625 0.03125q0 -1.5 -0.609375 -2.59375q-0.59375 -1.109375 -1.625 -1.6875q-1.015625 -0.59375 -2.234375 -0.59375q-1.21875 0 -2.234375 0.578125q-1.0 0.578125 -1.609375 1.6875q-0.59375 1.09375 -0.59375 2.578125q0 1.515625 0.59375 2.640625q0.609375 1.109375 1.609375 1.703125q1.015625 0.578125 2.234375 0.578125q1.21875 0 2.234375 -0.578125q1.03125 -0.59375 1.625 -1.703125q0.609375 -1.125 0.609375 -2.609375zm10.552063 6.8125q-1.515625 0 -2.71875 -0.515625q-1.1875 -0.515625 -1.890625 -1.4375q-0.6875 -0.921875 -0.765625 -2.125l2.265625 0q0.09375 0.984375 0.921875 1.609375q0.828125 0.625 2.171875 0.625q1.25 0 1.96875 -0.546875q0.71875 -0.5625 0.71875 -1.40625q0 -0.859375 -0.78125 -1.28125q-0.765625 -0.421875 -2.359375 -0.828125q-1.46875 -0.390625 -2.390625 -0.78125q-0.921875 -0.390625 -1.59375 -1.171875q-0.65625 -0.78125 -0.65625 -2.0625q0 -1.0 0.59375 -1.84375q0.609375 -0.84375 1.703125 -1.328125q1.109375 -0.5 2.53125 -0.5q2.1875 0 3.53125 1.109375q1.34375 1.109375 1.4375 3.03125l-2.1875 0q-0.078125 -1.03125 -0.828125 -1.65625q-0.75 -0.625 -2.03125 -0.625q-1.171875 0 -1.875 0.5q-0.6875 0.5 -0.6875 1.3125q0 0.65625 0.421875 1.078125q0.421875 0.421875 1.046875 0.671875q0.640625 0.25 1.765625 0.5625q1.421875 0.375 2.3125 0.75q0.890625 0.375 1.515625 1.125q0.640625 0.734375 0.65625 1.9375q0 1.078125 -0.59375 1.953125q-0.59375 0.859375 -1.6875 1.359375q-1.09375 0.484375 -2.515625 0.484375z" fill-rule="nonzero"/><path fill="#000000" fill-opacity="0.0" d="m26.304462 245.76378l200.59843 0l0 48.472427l-200.59843 0z" fill-rule="evenodd"/><path fill="#ffffff" d="m42.460712 277.97565q-1.65625 0 -2.96875 -0.59375q-1.3125 -0.59375 -2.0625 -1.625q-0.734375 -1.046875 -0.75 -2.421875l2.328125 0q0.109375 1.1875 0.953125 1.984375q0.859375 0.796875 2.5 0.796875q1.5625 0 2.453125 -0.765625q0.90625 -0.78125 0.90625 -2.015625q0 -0.953125 -0.53125 -1.546875q-0.53125 -0.609375 -1.328125 -0.921875q-0.78125 -0.3125 -2.125 -0.671875q-1.65625 -0.4375 -2.65625 -0.859375q-1.0 -0.4375 -1.703125 -1.359375q-0.703125 -0.921875 -0.703125 -2.484375q0 -1.375 0.6875 -2.421875q0.703125 -1.0625 1.953125 -1.625q1.265625 -0.578125 2.90625 -0.578125q2.34375 0 3.84375 1.171875q1.5 1.171875 1.6875 3.125l-2.390625 0q-0.125 -0.96875 -1.015625 -1.703125q-0.890625 -0.734375 -2.34375 -0.734375q-1.375 0 -2.234375 0.71875q-0.859375 0.703125 -0.859375 1.96875q0 0.921875 0.515625 1.5q0.515625 0.578125 1.265625 0.875q0.75 0.296875 2.125 0.671875q1.65625 0.46875 2.65625 0.921875q1.015625 0.4375 1.734375 1.359375q0.71875 0.921875 0.71875 2.5q0 1.21875 -0.65625 2.3125q-0.640625 1.078125 -1.921875 1.75q-1.265625 0.671875 -2.984375 0.671875zm9.900452 -15.453125q-0.609375 0 -1.046875 -0.4375q-0.4375 -0.4375 -0.4375 -1.0625q0 -0.625 0.4375 -1.046875q0.4375 -0.4375 1.046875 -0.4375q0.609375 0 1.03125 0.4375q0.421875 0.421875 0.421875 1.046875q0 0.625 -0.421875 1.0625q-0.421875 0.4375 -1.03125 0.4375zm1.0625 2.125l0 13.15625l-2.1875 0l0 -13.15625l2.1875 0zm10.122726 -0.234375q2.4062462 0 3.8906212 1.453125q1.484375 1.453125 1.484375 4.1875l0 7.75l-2.15625 0l0 -7.4375q0 -1.96875 -0.984375 -3.015625q-0.984375 -1.046875 -2.6874962 -1.046875q-1.71875 0 -2.75 1.078125q-1.015625 1.078125 -1.015625 3.15625l0 7.265625l-2.1875 0l0 -13.15625l2.1875 0l0 1.875q0.65625 -1.0 1.765625 -1.546875q1.109375 -0.5625 2.453125 -0.5625zm14.375576 0.015625q1.703125 0 2.984375 0.75q1.296875 0.75 1.921875 1.875l0 -2.40625l2.203125 0l0 13.4375q0 1.8125 -0.765625 3.203125q-0.765625 1.40625 -2.203125 2.203125q-1.421875 0.796875 -3.3125 0.796875q-2.59375 0 -4.328125 -1.234375q-1.71875 -1.21875 -2.03125 -3.328125l2.15625 0q0.359375 1.203125 1.484375 1.921875q1.125 0.734375 2.71875 0.734375q1.796875 0 2.9375 -1.125q1.140625 -1.125 1.140625 -3.171875l0 -2.75q-0.65625 1.15625 -1.9375 1.921875q-1.265625 0.765625 -2.96875 0.765625q-1.75 0 -3.1875 -0.859375q-1.421875 -0.875 -2.234375 -2.421875q-0.8125 -1.5625 -0.8125 -3.5625q0 -2.015625 0.8125 -3.53125q0.8125 -1.53125 2.234375 -2.375q1.4375 -0.84375 3.1875 -0.84375zm4.90625 6.78125q0 -1.5 -0.609375 -2.59375q-0.59375 -1.109375 -1.625 -1.6875q-1.015625 -0.59375 -2.234375 -0.59375q-1.21875 0 -2.234375 0.578125q-1.0 0.578125 -1.609375 1.6875q-0.59375 1.09375 -0.59375 2.578125q0 1.515625 0.59375 2.640625q0.609375 1.109375 1.609375 1.703125q1.015625 0.578125 2.234375 0.578125q1.21875 0 2.234375 -0.578125q1.03125 -0.59375 1.625 -1.703125q0.609375 -1.125 0.609375 -2.609375zm8.083328 -11.171875l0 17.765625l-2.1875 0l0 -17.765625l2.1875 0zm15.716476 10.6875q0 0.625 -0.0625 1.3125l-10.515625 0q0.125 1.953125 1.328125 3.046875q1.21875 1.09375 2.9375 1.09375q1.421875 0 2.359375 -0.65625q0.953125 -0.671875 1.34375 -1.78125l2.34375 0q-0.515625 1.90625 -2.109375 3.09375q-1.578125 1.1875 -3.9375 1.1875q-1.875 0 -3.34375 -0.84375q-1.46875 -0.84375 -2.3125 -2.390625q-0.84375 -1.546875 -0.84375 -3.578125q0 -2.046875 0.8125 -3.578125q0.8125 -1.546875 2.28125 -2.375q1.484375 -0.828125 3.40625 -0.828125q1.875 0 3.3125 0.828125q1.4375 0.8125 2.21875 2.25q0.78125 1.421875 0.78125 3.21875zm-2.25 -0.453125q0 -1.25 -0.5625 -2.140625q-0.546875 -0.90625 -1.5 -1.375q-0.9375 -0.46875 -2.09375 -0.46875q-1.65625 0 -2.828125 1.0625q-1.15625 1.046875 -1.328125 2.921875l8.3125 0zm21.834808 -9.203125l0 1.78125l-4.5625 0l0 14.953125l-2.171875 0l0 -14.953125l-4.59375 0l0 -1.78125l11.328125 0zm9.218338 3.34375q1.484375 0 2.6875 0.640625q1.203125 0.625 1.875 1.90625q0.6875 1.265625 0.6875 3.09375l0 7.75l-2.15625 0l0 -7.4375q0 -1.96875 -0.984375 -3.015625q-0.984375 -1.046875 -2.6875 -1.046875q-1.71875 0 -2.75 1.078125q-1.015625 1.078125 -1.015625 3.15625l0 7.265625l-2.1875 0l0 -17.765625l2.1875 0l0 6.484375q0.65625 -1.0 1.78125 -1.546875q1.140625 -0.5625 2.5625 -0.5625zm11.016205 2.375q0.578125 -1.125 1.640625 -1.75q1.078125 -0.625 2.609375 -0.625l0 2.25l-0.578125 0q-3.671875 0 -3.671875 3.984375l0 7.15625l-2.1875 0l0 -13.15625l2.1875 0l0 2.140625zm18.76448 3.9375q0 0.625 -0.0625 1.3125l-10.515625 0q0.125 1.953125 1.328125 3.046875q1.21875 1.09375 2.9375 1.09375q1.421875 0 2.359375 -0.65625q0.953125 -0.671875 1.34375 -1.78125l2.34375 0q-0.515625 1.90625 -2.109375 3.09375q-1.578125 1.1875 -3.9375 1.1875q-1.875 0 -3.34375 -0.84375q-1.46875 -0.84375 -2.3125 -2.390625q-0.84375 -1.546875 -0.84375 -3.578125q0 -2.046875 0.8125 -3.578125q0.8125 -1.546875 2.28125 -2.375q1.484375 -0.828125 3.40625 -0.828125q1.875 0 3.3125 0.828125q1.4375 0.8125 2.21875 2.25q0.78125 1.421875 0.78125 3.21875zm-2.25 -0.453125q0 -1.25 -0.5625 -2.140625q-0.546875 -0.90625 -1.5 -1.375q-0.9375 -0.46875 -2.09375 -0.46875q-1.65625 0 -2.828125 1.0625q-1.15625 1.046875 -1.328125 2.921875l8.3125 0zm4.317459 0.90625q0 -2.015625 0.8125 -3.53125q0.8125 -1.53125 2.234375 -2.375q1.4375 -0.84375 3.1875 -0.84375q1.734375 0 3.0 0.75q1.28125 0.75 1.90625 1.875l0 -2.40625l2.203125 0l0 13.15625l-2.203125 0l0 -2.453125q-0.65625 1.15625 -1.9375 1.921875q-1.28125 0.75 -2.984375 0.75q-1.75 0 -3.171875 -0.859375q-1.421875 -0.875 -2.234375 -2.421875q-0.8125 -1.5625 -0.8125 -3.5625zm11.140625 0.03125q0 -1.5 -0.609375 -2.59375q-0.59375 -1.109375 -1.625 -1.6875q-1.015625 -0.59375 -2.234375 -0.59375q-1.21875 0 -2.234375 0.578125q-1.0 0.578125 -1.609375 1.6875q-0.59375 1.09375 -0.59375 2.578125q0 1.515625 0.59375 2.640625q0.609375 1.109375 1.609375 1.703125q1.015625 0.578125 2.234375 0.578125q1.21875 0 2.234375 -0.578125q1.03125 -0.59375 1.625 -1.703125q0.609375 -1.125 0.609375 -2.609375zm5.0833282 -0.03125q0 -2.015625 0.8125 -3.53125q0.8125 -1.53125 2.234375 -2.375q1.4375 -0.84375 3.21875 -0.84375q1.53125 0 2.84375 0.71875q1.328125 0.703125 2.03125 1.859375l0 -6.96875l2.203125 0l0 17.765625l-2.203125 0l0 -2.46875q-0.65625 1.171875 -1.9375 1.9375q-1.265625 0.75 -2.96875 0.75q-1.75 0 -3.1875 -0.859375q-1.421875 -0.875 -2.234375 -2.421875q-0.8125 -1.5625 -0.8125 -3.5625zm11.140625 0.03125q0 -1.5 -0.609375 -2.59375q-0.59375 -1.109375 -1.625 -1.6875q-1.015625 -0.59375 -2.234375 -0.59375q-1.21875 0 -2.234375 0.578125q-1.0 0.578125 -1.609375 1.6875q-0.59375 1.09375 -0.59375 2.578125q0 1.515625 0.59375 2.640625q0.609375 1.109375 1.609375 1.703125q1.015625 0.578125 2.234375 0.578125q1.21875 0 2.234375 -0.578125q1.03125 -0.59375 1.625 -1.703125q0.609375 -1.125 0.609375 -2.609375z" fill-rule="nonzero"/><path fill="#000000" fill-opacity="0.0" d="m132.73637 223.62599l144.53545 -174.11024" fill-rule="evenodd"/><path stroke="#ffffff" stroke-width="4.0" stroke-linejoin="round" stroke-linecap="butt" d="m132.73637 223.62599l129.20589 -155.64395" fill-rule="evenodd"/><path fill="#ffffff" stroke="#ffffff" stroke-width="4.0" stroke-linecap="butt" d="m267.02582 72.20211l6.510956 -18.187042l-16.6781 9.746922z" fill-rule="evenodd"/><path fill="#000000" fill-opacity="0.0" d="m208.4844 272.11023l68.787415 -2.1102295" fill-rule="evenodd"/><path stroke="#ffffff" stroke-width="4.0" stroke-linejoin="round" stroke-linecap="butt" d="m208.48442 272.11023l44.798676 -1.3743286" fill-rule="evenodd"/><path fill="#ffffff" stroke="#ffffff" stroke-width="4.0" stroke-linecap="butt" d="m253.48569 277.33975l17.941284 -7.160431l-18.34645 -6.047241z" fill-rule="evenodd"/><path fill="#000000" fill-opacity="0.0" d="m126.603676 294.2362l151.59055 183.3386" fill-rule="evenodd"/><path stroke="#ffffff" stroke-width="4.0" stroke-linejoin="round" stroke-linecap="butt" d="m126.603676 294.2362l136.29718 164.84229" fill-rule="evenodd"/><path fill="#ffffff" stroke="#ffffff" stroke-width="4.0" stroke-linecap="butt" d="m257.80905 463.2886l16.658936 9.779572l-6.4753113 -18.199768z" fill-rule="evenodd"/><path fill="#000000" fill-opacity="0.0" d="m796.3648 249.69817l-104.85034 -77.574814" fill-rule="evenodd"/><path stroke="#d14770" stroke-width="4.0" stroke-linejoin="round" stroke-linecap="butt" d="m796.3648 249.69817l-85.556885 -63.30031" fill-rule="evenodd"/><path fill="#d14770" stroke="#d14770" stroke-width="4.0" stroke-linecap="butt" d="m714.73755 181.0866l-18.522278 -5.4852448l10.663025 16.107803z" fill-rule="evenodd"/><path fill="#000000" fill-opacity="0.0" d="m796.3648 292.72702l-110.14172 82.677185" fill-rule="evenodd"/><path stroke="#d14770" stroke-width="4.0" stroke-linejoin="round" stroke-linecap="butt" d="m796.3648 292.72702l-90.94763 68.26929" fill-rule="evenodd"/><path fill="#d14770" stroke="#d14770" stroke-width="4.0" stroke-linecap="butt" d="m701.4508 355.71237l-10.551086 16.181335l18.483765 -5.613495z" fill-rule="evenodd"/><path fill="#60cfef" d="m442.4252 105.154854l18.787384 0l0 -20.913383l37.57483 0l0 20.913383l18.787415 0l-37.57483 20.913391z" fill-rule="evenodd"/><path stroke="#474352" stroke-width="3.0" stroke-linejoin="round" stroke-linecap="butt" d="m442.4252 105.154854l18.787384 0l0 -20.913383l37.57483 0l0 20.913383l18.787415 0l-37.57483 20.913391z" fill-rule="evenodd"/><path fill="#60cfef" d="m442.4252 214.87927l18.787384 0l0 -20.913391l37.57483 0l0 20.913391l18.787415 0l-37.57483 20.913376z" fill-rule="evenodd"/><path stroke="#474352" stroke-width="3.0" stroke-linejoin="round" stroke-linecap="butt" d="m442.4252 214.87927l18.787384 0l0 -20.913391l37.57483 0l0 20.913391l18.787415 0l-37.57483 20.913376z" fill-rule="evenodd"/><path fill="#60cfef" d="m442.4252 325.12073l18.787384 0l0 -20.913391l37.57483 0l0 20.913391l18.787415 0l-37.57483 20.913391z" fill-rule="evenodd"/><path stroke="#474352" stroke-width="3.0" stroke-linejoin="round" stroke-linecap="butt" d="m442.4252 325.12073l18.787384 0l0 -20.913391l37.57483 0l0 20.913391l18.787415 0l-37.57483 20.913391z" fill-rule="evenodd"/><path fill="#60cfef" d="m442.4252 435.3622l18.787384 0l0 -20.913391l37.57483 0l0 20.913391l18.787415 0l-37.57483 20.913391z" fill-rule="evenodd"/><path stroke="#474352" stroke-width="3.0" stroke-linejoin="round" stroke-linecap="butt" d="m442.4252 435.3622l18.787384 0l0 -20.913391l37.57483 0l0 20.913391l18.787415 0l-37.57483 20.913391z" fill-rule="evenodd"/></g></svg>