<?xml version="1.0" encoding="UTF-8" standalone="no"?>
<svg
   xml:space="preserve"
   fill-rule="evenodd"
   stroke-linecap="round"
   stroke-linejoin="round"
   clip-rule="evenodd"
   viewBox="0 0 221.34798 120.728"
   version="1.1"
   id="svg17"
   sodipodi:docname="partitionModel.svg"
   width="885.39191"
   height="482.91199"
   inkscape:version="1.3 (0e150ed, 2023-07-21)"
   xmlns:inkscape="http://www.inkscape.org/namespaces/inkscape"
   xmlns:sodipodi="http://sodipodi.sourceforge.net/DTD/sodipodi-0.dtd"
   xmlns="http://www.w3.org/2000/svg"
   xmlns:svg="http://www.w3.org/2000/svg"
   xmlns:vectornator="http://vectornator.io"><defs
     id="defs17" /><sodipodi:namedview
     id="namedview17"
     pagecolor="#ffffff"
     bordercolor="#000000"
     borderopacity="0.25"
     inkscape:showpageshadow="2"
     inkscape:pageopacity="0.0"
     inkscape:pagecheckerboard="0"
     inkscape:deskcolor="#d1d1d1"
     inkscape:zoom="2.1022928"
     inkscape:cx="1038.3901"
     inkscape:cy="354.13716"
     inkscape:window-width="1392"
     inkscape:window-height="1212"
     inkscape:window-x="2240"
     inkscape:window-y="237"
     inkscape:window-maximized="0"
     inkscape:current-layer="svg17" /><g
     vectornator:layerName="layer1 copy"
     id="g17"
     transform="translate(-12.018,-14.888)"><path
       fill="#464353"
       d="M 99.286,14.888 H 210.81 c 1.513,0 2.74,0.574 2.74,1.282 v 108.794 c 0,0.708 -1.227,1.282 -2.74,1.282 H 99.286 c -1.513,0 -2.74,-0.574 -2.74,-1.282 V 16.17 c 0,-0.708 1.227,-1.282 2.74,-1.282 z"
       id="path1" /><text
       vectornator:text="table directory"
       vectornator:width="92.478"
       fill="#ffffff"
       font-family="sans-serif"
       font-size="9px"
       text-anchor="middle"
       transform="translate(109.469,19.164)"
       id="text1"><tspan
         x="46.238998"
         y="9"
         id="tspan1">table directory</tspan></text><path
       fill="#ffffff"
       d="m 223.893,114.269 0.072,-70.57 c 0.001,-0.784 0.207,-1.426 0.462,-1.439 l 3.782,-0.104 c 0.256,-0.007 0.463,0.625 0.462,1.412 l -0.072,70.571 z"
       id="path2" /><path
       fill="#ffffff"
       d="m 225.8,124.728 -0.556,-1.269 -4.505,-10.252 -0.394,-0.904 a 0.547,0.547 0 0 1 -0.012,-0.4 0.494,0.494 0 0 1 0.257,-0.289 0.406,0.406 0 0 1 0.171,-0.038 l 2.678,-0.026 c 0.255,-0.003 0.463,-0.23 0.465,-0.509 l 0.072,-25.13 c 0.001,-0.28 0.207,-0.508 0.462,-0.512 l 3.782,-0.037 c 0.256,-0.003 0.463,0.222 0.462,0.503 l -0.072,25.13 c 10e-4,0.277 0.205,0.5 0.459,0.499 l 2.737,-0.027 a 0.41,0.41 0 0 1 0.172,0.035 c 0.117,0.052 0.21,0.155 0.255,0.284 0.045,0.13 0.04,0.275 -0.015,0.401 l -0.406,0.911 -4.611,10.341 -0.57,1.283 a 0.47,0.47 0 0 1 -0.417,0.285 0.456,0.456 0 0 1 -0.414,-0.279 z"
       id="path3" /><path
       fill="#585567"
       d="m 104.297,99.253 h 103.644 c 1.406,0 2.546,0.112 2.546,0.25 v 21.269 c 0,0.139 -1.14,0.251 -2.546,0.251 H 104.297 c -1.407,0 -2.547,-0.112 -2.547,-0.251 V 99.504 c 0,-0.139 1.14,-0.25 2.547,-0.25 z"
       id="path4" /><path
       fill="#d14671"
       d="m 106.207,101.253 h 25.744 v 17.575 h -25.744 z"
       id="path5" /><text
       vectornator:text="column files"
       vectornator:width="26.601"
       fill="#ffffff"
       font-family="sans-serif"
       font-size="6px"
       text-anchor="middle"
       transform="translate(106.207,33.464)"
       id="text6"><tspan
   x="14.134"
   y="6"
   id="tspan5">column </tspan> <tspan
   x="13.3"
   y="13"
   id="tspan6"> files</tspan></text><path
       fill="#d14671"
       d="m 143.474,101.253 h 25.744 v 17.575 h -25.744 z m 37.512,0 h 25.744 v 17.575 h -25.744 z"
       id="path6" /><text
       vectornator:text="Time"
       vectornator:width="32.681"
       fill="#ffffff"
       font-family="sans-serif"
       font-size="6px"
       text-anchor="middle"
       transform="translate(209.941,31.856)"
       id="text7"><tspan
         x="16.341"
         y="6"
         id="tspan7">Time</tspan></text><text
       vectornator:text="column files"
       vectornator:width="26.601"
       fill="#ffffff"
       font-family="sans-serif"
       font-size="6px"
       text-anchor="middle"
       transform="translate(143.046,33.464)"
       id="text9"><tspan
   x="14.134"
   y="6"
   id="tspan8">column </tspan> <tspan
   x="13.3"
   y="13"
   id="tspan9"> files</tspan></text><text
       vectornator:text="column files"
       vectornator:width="26.601"
       fill="#ffffff"
       font-family="sans-serif"
       font-size="6px"
       text-anchor="middle"
       transform="translate(180.558,33.464)"
       id="text11"><tspan
   x="14.134"
   y="6"
   id="tspan10">column </tspan> <tspan
   x="13.3"
   y="13"
   id="tspan11"> files</tspan></text><path
       fill="#585567"
       d="m 104.297,51.891 h 103.644 c 1.406,0 2.546,0.113 2.546,0.25 v 21.27 c 0,0.138 -1.14,0.25 -2.546,0.25 H 104.297 c -1.407,0 -2.547,-0.112 -2.547,-0.25 V 52.14 c 0,-0.137 1.14,-0.25 2.547,-0.25 z"
       id="path11" /><path
       fill="#d14671"
       d="M 12.018,126.828 H 24.89 v 8.788 H 12.018 Z"
       id="path12" /><text
       vectornator:text="Data file"
       vectornator:width="35.791"
       fill="#ffffff"
       font-family="sans-serif"
       font-size="6px"
       text-anchor="middle"
       transform="translate(21.838,127.316)"
       id="text12"><tspan
         x="17.895"
         y="6"
         id="tspan12">Data file</tspan></text><path
       fill="#585567"
       d="m 104.524,75.328 h 103.644 c 1.407,0 2.547,0.112 2.547,0.251 v 21.268 c 0,0.139 -1.14,0.251 -2.547,0.251 H 104.524 c -1.406,0 -2.546,-0.112 -2.546,-0.25 v -21.27 c 0,-0.138 1.14,-0.25 2.546,-0.25 z"
       id="path13" /><path
       fill="#d14671"
       d="m 106.207,54.17 h 25.744 v 17.575 h -25.744 z m 37.267,0 h 25.744 v 17.575 h -25.744 z m 37.512,0 h 25.744 v 17.575 h -25.744 z m -37.512,23.256 h 25.744 V 95 h -25.744 z m 37.512,0 H 206.73 V 95 h -25.744 z m -74.779,0 h 25.744 V 95 h -25.744 z"
       id="path14" /><path
       fill="#ffffff"
       d="m 102.338,63.12 -0.635,0.186 -5.125,1.511 -0.453,0.133 a 0.404,0.404 0 0 1 -0.2,0.004 0.24,0.24 0 0 1 -0.144,-0.087 0.105,0.105 0 0 1 -0.02,-0.057 L 95.749,63.911 C 95.748,63.826 95.634,63.756 95.495,63.755 L 82.929,63.731 c -0.14,0 -0.253,-0.07 -0.256,-0.155 l -0.018,-1.269 c -0.002,-0.085 0.111,-0.155 0.251,-0.154 l 12.565,0.024 c 0.14,0 0.25,-0.07 0.25,-0.154 l -0.013,-0.919 c 0,-0.02 0.005,-0.04 0.017,-0.057 a 0.231,0.231 0 0 1 0.142,-0.086 0.403,0.403 0 0 1 0.2,0.005 l 0.456,0.136 5.171,1.547 0.641,0.192 c 0.086,0.026 0.142,0.08 0.142,0.14 10e-4,0.058 -0.053,0.112 -0.139,0.138 z m 0.089,23.92 -0.635,0.188 -5.126,1.51 -0.452,0.133 a 0.402,0.402 0 0 1 -0.2,0.004 0.24,0.24 0 0 1 -0.144,-0.086 0.104,0.104 0 0 1 -0.02,-0.058 L 95.838,87.833 C 95.836,87.747 95.723,87.678 95.583,87.677 L 83.018,87.653 c -0.14,0 -0.254,-0.07 -0.256,-0.155 l -0.019,-1.269 c 0,-0.086 0.112,-0.155 0.252,-0.155 l 12.565,0.024 c 0.139,0 0.25,-0.069 0.25,-0.154 l -0.014,-0.918 c 0,-0.02 0.006,-0.04 0.018,-0.058 a 0.231,0.231 0 0 1 0.142,-0.086 0.403,0.403 0 0 1 0.2,0.006 l 0.456,0.136 5.17,1.547 0.642,0.191 c 0.086,0.027 0.141,0.08 0.142,0.14 10e-4,0.059 -0.053,0.113 -0.139,0.139 z m 0,23.162 -0.635,0.187 -5.126,1.511 -0.452,0.133 a 0.41,0.41 0 0 1 -0.2,0.004 0.241,0.241 0 0 1 -0.144,-0.087 0.101,0.101 0 0 1 -0.02,-0.057 l -0.012,-0.899 c -0.002,-0.085 -0.115,-0.155 -0.255,-0.156 l -12.565,-0.024 c -0.14,0 -0.254,-0.069 -0.256,-0.155 l -0.019,-1.268 c 0,-0.086 0.112,-0.156 0.252,-0.155 l 12.565,0.024 c 0.139,-0.001 0.25,-0.069 0.25,-0.154 l -0.014,-0.919 c 0,-0.02 0.006,-0.039 0.018,-0.057 a 0.228,0.228 0 0 1 0.142,-0.086 0.412,0.412 0 0 1 0.2,0.005 l 0.456,0.136 5.17,1.547 0.642,0.192 c 0.086,0.026 0.141,0.08 0.142,0.139 10e-4,0.059 -0.053,0.113 -0.139,0.139 z"
       id="path15" /><text
       vectornator:text="Time partition"
       vectornator:width="78.971"
       fill="#ffffff"
       font-family="sans-serif"
       font-size="6px"
       text-anchor="middle"
       transform="translate(13.595,59.361)"
       id="text15"><tspan
         x="39.486"
         y="6"
         id="tspan15">Time partition</tspan></text><text
       vectornator:text="Time partition"
       vectornator:width="78.971"
       fill="#ffffff"
       font-family="sans-serif"
       font-size="6px"
       text-anchor="middle"
       transform="translate(13.595,82.362)"
       id="text16"><tspan
         x="39.486"
         y="6"
         id="tspan16">Time partition</tspan></text><text
       vectornator:text="Time partition"
       vectornator:width="78.971"
       fill="#ffffff"
       font-family="sans-serif"
       font-size="6px"
       text-anchor="middle"
       transform="translate(13.595,106.424)"
       id="text17"><tspan
         x="39.486"
         y="6"
         id="tspan17">Time partition</tspan></text></g></svg>
