<?xml version="1.0" encoding="UTF-8" standalone="no"?>
<!-- Created with Inkscape (http://www.inkscape.org/) -->

<svg
   width="793.75"
   height="450"
   viewBox="0 0 210.01302 119.0625"
   version="1.1"
   id="svg1"
   inkscape:version="1.3 (0e150ed, 2023-07-21)"
   sodipodi:docname="questdbBasic.svg"
   inkscape:export-filename="questdbBasic.webp"
   inkscape:export-xdpi="96"
   inkscape:export-ydpi="96"
   xml:space="preserve"
   xmlns:inkscape="http://www.inkscape.org/namespaces/inkscape"
   xmlns:sodipodi="http://sodipodi.sourceforge.net/DTD/sodipodi-0.dtd"
   xmlns="http://www.w3.org/2000/svg"
   xmlns:svg="http://www.w3.org/2000/svg"><sodipodi:namedview
     id="namedview1"
     pagecolor="#ffffff"
     bordercolor="#000000"
     borderopacity="0.25"
     inkscape:showpageshadow="2"
     inkscape:pageopacity="0.0"
     inkscape:pagecheckerboard="0"
     inkscape:deskcolor="#d1d1d1"
     inkscape:document-units="mm"
     inkscape:zoom="2.1737922"
     inkscape:cx="388.26158"
     inkscape:cy="287.05596"
     inkscape:window-width="2560"
     inkscape:window-height="1387"
     inkscape:window-x="1512"
     inkscape:window-y="237"
     inkscape:window-maximized="1"
     inkscape:current-layer="layer2"
     showgrid="false" /><defs
     id="defs1"><inkscape:perspective
       sodipodi:type="inkscape:persp3d"
       inkscape:vp_x="-13.831958 : 45.835274 : 1"
       inkscape:vp_y="0 : 375.2462 : 0"
       inkscape:vp_z="160.07927 : 45.835274 : 1"
       inkscape:persp3d-origin="73.123656 : 38.388982 : 1"
       id="perspective77" /><inkscape:perspective
       sodipodi:type="inkscape:persp3d"
       inkscape:vp_x="0.35004066 : 47.111203 : 1"
       inkscape:vp_y="0 : 375.2462 : 0"
       inkscape:vp_z="174.26127 : 47.111203 : 1"
       inkscape:persp3d-origin="87.305655 : 39.664911 : 1"
       id="perspective76" /><inkscape:perspective
       sodipodi:type="inkscape:persp3d"
       inkscape:vp_x="12.31265 : 48.689494 : 1"
       inkscape:vp_y="0 : 375.2462 : 0"
       inkscape:vp_z="186.22389 : 48.689494 : 1"
       inkscape:persp3d-origin="99.268264 : 41.243202 : 1"
       id="perspective75" /><inkscape:perspective
       sodipodi:type="inkscape:persp3d"
       inkscape:vp_x="28.162574 : 49.262195 : 1"
       inkscape:vp_y="0 : 375.2462 : 0"
       inkscape:vp_z="202.07381 : 49.262195 : 1"
       inkscape:persp3d-origin="115.11819 : 41.815903 : 1"
       id="perspective74" /><inkscape:perspective
       sodipodi:type="inkscape:persp3d"
       inkscape:vp_x="-2.3565019 : 42.419304 : 1"
       inkscape:vp_y="0 : 375.2462 : 0"
       inkscape:vp_z="171.55472 : 42.419304 : 1"
       inkscape:persp3d-origin="84.599112 : 34.973013 : 1"
       id="perspective45" /><inkscape:perspective
       sodipodi:type="inkscape:persp3d"
       inkscape:vp_x="1.3408417 : 24.361523 : 1"
       inkscape:vp_y="0 : 312.56948 : 0"
       inkscape:vp_z="146.30714 : 24.361523 : 1"
       inkscape:persp3d-origin="73.823991 : 18.158988 : 1"
       id="perspective77-5" /><inkscape:perspective
       sodipodi:type="inkscape:persp3d"
       inkscape:vp_x="13.162458 : 25.424335 : 1"
       inkscape:vp_y="0 : 312.56948 : 0"
       inkscape:vp_z="158.12876 : 25.424335 : 1"
       inkscape:persp3d-origin="85.645608 : 19.2218 : 1"
       id="perspective76-8" /><inkscape:perspective
       sodipodi:type="inkscape:persp3d"
       inkscape:vp_x="23.736626 : 27.426371 : 1"
       inkscape:vp_y="0 : 312.56948 : 0"
       inkscape:vp_z="168.70294 : 27.426371 : 1"
       inkscape:persp3d-origin="96.219776 : 21.223835 : 1"
       id="perspective75-2" /><inkscape:perspective
       sodipodi:type="inkscape:persp3d"
       inkscape:vp_x="38.706554 : 30.127427 : 1"
       inkscape:vp_y="0 : 312.56948 : 0"
       inkscape:vp_z="183.67286 : 30.127427 : 1"
       inkscape:persp3d-origin="111.18971 : 23.92486 : 1"
       id="perspective74-9" /><inkscape:perspective
       sodipodi:type="inkscape:persp3d"
       inkscape:vp_x="5.887214 : 19.932894 : 1"
       inkscape:vp_y="0 : 312.56948 : 0"
       inkscape:vp_z="150.85351 : 19.932894 : 1"
       inkscape:persp3d-origin="78.370363 : 13.730358 : 1"
       id="perspective45-8" /><linearGradient
       id="paint0_linear"
       x1="323.795"
       y1="283.316"
       x2="72.1141"
       y2="22.6459"
       gradientUnits="userSpaceOnUse"><stop
         stop-color="#892C6C"
         id="stop11" /><stop
         offset="1"
         stop-color="#D14671"
         id="stop12" /></linearGradient><linearGradient
       id="paint1_linear"
       x1="57.9878"
       y1="17.5099"
       x2="318.658"
       y2="279.464"
       gradientUnits="userSpaceOnUse"><stop
         stop-color="#C34170"
         id="stop13" /><stop
         offset="1"
         stop-color="#8B2C6C"
         id="stop14" /></linearGradient><linearGradient
       id="paint2_linear"
       x1="312.238"
       y1="276.898"
       x2="46.4317"
       y2="17.5118"
       gradientUnits="userSpaceOnUse"><stop
         stop-color="#882B6B"
         id="stop15" /><stop
         offset="1"
         stop-color="#CF4671"
         id="stop16" /></linearGradient><linearGradient
       id="paint3_linear"
       x1="34.7127"
       y1="192.381"
       x2="70.973"
       y2="89.5761"
       gradientUnits="userSpaceOnUse"><stop
         stop-color="white"
         stop-opacity="0.38"
         id="stop17" /><stop
         offset="0.8598"
         stop-color="white"
         stop-opacity="0.01"
         id="stop18" /><stop
         offset="1"
         stop-color="white"
         stop-opacity="0"
         id="stop19" /></linearGradient><clipPath
       id="clip0"><rect
         width="326.825"
         height="282.054"
         fill="white"
         transform="translate(0.205078 0.816406)"
         id="rect19" /></clipPath></defs><g
     inkscape:groupmode="layer"
     id="layer2"
     inkscape:label="background"
     style="display:none"><rect
       style="display:inline;fill:#181820;stroke:#181820;stroke-width:0.268236;stroke-opacity:1"
       id="rect79"
       width="209.75536"
       height="118.79427"
       x="0.1235418"
       y="0.1341182" /></g><g
     inkscape:label="Layer 1"
     inkscape:groupmode="layer"
     id="layer1"
     style="display:inline"><path
       id="rect77"
       style="fill:#4c4b54;fill-opacity:1;stroke:#4c4b54;stroke-width:0.264583"
       d="m 130.10872,28.854546 c -0.16249,8.78e-4 -0.30923,0.006 -0.47232,0.0072 -0.95885,0.0071 -1.82368,0.0238 -2.72697,0.04237 -0.48135,0.0099 -0.9852,0.01456 -1.42213,0.02739 -0.37264,0.01093 -0.69832,0.0227 -1.02526,0.03566 -0.19054,0.0075 -0.40193,0.01402 -0.57361,0.02222 -0.48423,0.02313 -0.90064,0.0485 -1.19786,0.07648 -3.58388,0.337445 -6.69344,0.84601 -9.26714,1.509469 -0.64343,0.165867 -1.25332,0.341059 -1.82882,0.526066 -0.57551,0.185007 -1.11647,0.379775 -1.62213,0.583427 -0.50565,0.203652 -0.97585,0.416401 -1.40973,0.638204 -0.43389,0.221802 -0.83146,0.452489 -1.19166,0.691947 -0.40682,0.270457 -0.88707,0.671506 -1.29863,1.067118 -0.20577,0.197779 -0.39447,0.39408 -0.54828,0.572059 -8e-5,8.3e-5 7e-5,4.32e-4 0,5.16e-4 -0.15368,0.177844 -0.27261,0.337421 -0.339,0.461471 -0.0358,0.06682 -0.0637,0.125551 -0.076,0.177767 -0.0122,0.05222 -0.009,0.09769 0.0176,0.137459 0.0263,0.03977 0.0757,0.07388 0.15555,0.103353 0.0799,0.02947 0.19006,0.05463 0.33848,0.07596 0.29682,0.04267 0.7461,0.07098 1.40715,0.09405 0.66105,0.02307 1.53413,0.04077 2.67942,0.0615 6.30002,0.114025 34.22949,0.120019 40.41201,0.0088 2.14913,-0.03867 3.4873,-0.07044 4.29947,-0.109554 0.40666,-0.01958 0.68184,-0.04131 0.8599,-0.06615 0.17787,-0.02479 0.2594,-0.05283 0.28009,-0.0863 0.0409,-0.06624 0.0328,-0.171713 -0.008,-0.299207 -0.037,-0.114316 -0.10145,-0.246864 -0.1912,-0.39119 -0.0176,-0.028 -0.0457,-0.0591 -0.0651,-0.08785 -0.18792,-0.281967 -0.44579,-0.591536 -0.75602,-0.870748 -0.0115,-0.01038 -0.0256,-0.02014 -0.0372,-0.03049 -0.002,-0.0022 -0.004,-0.0045 -0.007,-0.0067 -0.0541,-0.04827 -0.11815,-0.09394 -0.17466,-0.141594 -0.12899,-0.108167 -0.25567,-0.217003 -0.39688,-0.321944 -0.14712,-0.109724 -0.30864,-0.215756 -0.46922,-0.321944 -0.0668,-0.0441 -0.12729,-0.08985 -0.19637,-0.133325 -0.2142,-0.135003 -0.44237,-0.266314 -0.67851,-0.395325 -0.0238,-0.013 -0.0447,-0.02685 -0.0687,-0.03979 -10e-4,-7.07e-4 -0.003,-0.0014 -0.004,-0.0021 -0.22158,-0.11928 -0.45742,-0.234795 -0.69763,-0.348816 -0.0497,-0.0236 -0.0948,-0.04846 -0.14521,-0.07183 -0.23404,-0.108304 -0.48191,-0.212358 -0.73277,-0.315743 -0.0627,-0.02588 -0.12022,-0.0535 -0.18397,-0.07906 -0.19031,-0.07623 -0.39372,-0.148247 -0.59324,-0.221692 -0.13941,-0.05138 -0.27268,-0.105023 -0.41652,-0.155029 -0.13859,-0.04812 -0.28776,-0.09269 -0.43046,-0.139526 -0.21163,-0.06956 -0.41923,-0.14052 -0.63976,-0.207223 -0.12773,-0.03859 -0.26462,-0.07399 -0.39532,-0.111621 -0.24833,-0.07158 -0.494,-0.144319 -0.75293,-0.21239 -0.003,-7.05e-4 -0.006,-0.0014 -0.008,-0.0021 -0.005,-0.0013 -0.011,-0.0023 -0.016,-0.0036 -3.14277,-0.823916 -7.05788,-1.389038 -11.63495,-1.665014 -0.67057,-0.04043 -1.68964,-0.06615 -2.8758,-0.07803 -0.88962,-0.0089 -1.87309,-0.01006 -2.87424,-0.0046 z m -24.96437,7.07502 v 47.164046 h 50.73903 V 35.929566 Z m 16.51889,47.210036 c -8.74523,0.0118 -15.82948,0.0599 -16.1649,0.15193 -0.43548,0.11943 -0.42565,0.37115 0.0408,1.07539 1.20123,1.81353 5.0773,3.55504 10.21385,4.58938 3.90846,0.78706 6.74578,1.11889 10.34562,1.20975 1.84094,0.0465 3.70312,0.0933 4.13825,0.10387 1.4493,0.0352 6.82923,-0.21393 8.75244,-0.40515 5.06542,-0.50364 8.93284,-1.34816 12.12174,-2.64686 1.69672,-0.69101 2.76433,-1.35287 3.73155,-2.31356 0.83387,-0.82826 1.12552,-1.36853 0.83561,-1.54771 -0.24977,-0.15436 -19.43957,-0.23665 -34.01498,-0.21704 z" /><path
       sodipodi:type="star"
       style="fill:#53c4e9;stroke:#53c4e9;stroke-width:0.264583;fill-opacity:1"
       id="path78"
       inkscape:flatsided="false"
       sodipodi:sides="3"
       sodipodi:cx="8.5200577"
       sodipodi:cy="38.948833"
       sodipodi:r1="7.1408496"
       sodipodi:r2="3.5704248"
       sodipodi:arg1="2.0878283"
       sodipodi:arg2="3.1350258"
       inkscape:rounded="0"
       inkscape:randomized="0"
       d="m 4.9903197,45.156303 -0.04061,-6.184023 -0.04061,-6.184024 5.375827,3.056842 5.375826,3.056843 -5.335216,3.127181 z"
       inkscape:transform-center-x="-1.2040217"
       inkscape:transform-center-y="0.017518433"
       transform="matrix(0.68221593,0,0,0.7471755,-2.0054404,9.3995496)" /><path
       sodipodi:type="star"
       style="fill:#999999;stroke:#999999;stroke-width:0.264583"
       id="path78-5"
       inkscape:flatsided="false"
       sodipodi:sides="3"
       sodipodi:cx="8.5200577"
       sodipodi:cy="38.948833"
       sodipodi:r1="7.1408496"
       sodipodi:r2="3.5704248"
       sodipodi:arg1="2.0878283"
       sodipodi:arg2="3.1350258"
       inkscape:rounded="0"
       inkscape:randomized="0"
       d="m 4.9903197,45.156303 -0.04061,-6.184023 -0.04061,-6.184024 5.375827,3.056842 5.375826,3.056843 -5.335216,3.127181 z"
       inkscape:transform-center-x="-1.2040217"
       inkscape:transform-center-y="0.017518433"
       transform="matrix(0.68221593,0,0,0.7471755,8.3367046,9.3995496)" /><path
       sodipodi:type="star"
       style="fill:#999999;stroke:#999999;stroke-width:0.264583"
       id="path78-2"
       inkscape:flatsided="false"
       sodipodi:sides="3"
       sodipodi:cx="8.5200577"
       sodipodi:cy="38.948833"
       sodipodi:r1="7.1408496"
       sodipodi:r2="3.5704248"
       sodipodi:arg1="2.0878283"
       sodipodi:arg2="3.1350258"
       inkscape:rounded="0"
       inkscape:randomized="0"
       d="m 4.9903197,45.156303 -0.04061,-6.184023 -0.04061,-6.184024 5.375827,3.056842 5.375826,3.056843 -5.335216,3.127181 z"
       inkscape:transform-center-x="-1.2040217"
       inkscape:transform-center-y="0.017518433"
       transform="matrix(0.68221593,0,0,0.7471755,18.068371,9.3995496)" /><path
       sodipodi:type="star"
       style="fill:#999999;stroke:#999999;stroke-width:0.264583"
       id="path78-5-6"
       inkscape:flatsided="false"
       sodipodi:sides="3"
       sodipodi:cx="8.5200577"
       sodipodi:cy="38.948833"
       sodipodi:r1="7.1408496"
       sodipodi:r2="3.5704248"
       sodipodi:arg1="2.0878283"
       sodipodi:arg2="3.1350258"
       inkscape:rounded="0"
       inkscape:randomized="0"
       d="m 4.9903197,45.156303 -0.04061,-6.184023 -0.04061,-6.184024 5.375827,3.056842 5.375826,3.056843 -5.335216,3.127181 z"
       inkscape:transform-center-x="-1.2040217"
       inkscape:transform-center-y="0.017518433"
       transform="matrix(0.68221593,0,0,0.7471755,28.410517,9.3995496)" /><path
       sodipodi:type="star"
       style="fill:#999999;stroke:#999999;stroke-width:0.264583"
       id="path78-2-4"
       inkscape:flatsided="false"
       sodipodi:sides="3"
       sodipodi:cx="8.5200577"
       sodipodi:cy="38.948833"
       sodipodi:r1="7.1408496"
       sodipodi:r2="3.5704248"
       sodipodi:arg1="2.0878283"
       sodipodi:arg2="3.1350258"
       inkscape:rounded="0"
       inkscape:randomized="0"
       d="m 4.9903197,45.156303 -0.04061,-6.184023 -0.04061,-6.184024 5.375827,3.056842 5.375826,3.056843 -5.335216,3.127181 z"
       inkscape:transform-center-x="-1.2040217"
       inkscape:transform-center-y="0.017518433"
       transform="matrix(0.68221593,0,0,0.7471755,38.752663,9.3995496)" /><path
       sodipodi:type="star"
       style="fill:#999999;stroke:#999999;stroke-width:0.264583"
       id="path78-5-6-8"
       inkscape:flatsided="false"
       sodipodi:sides="3"
       sodipodi:cx="8.5200577"
       sodipodi:cy="38.948833"
       sodipodi:r1="7.1408496"
       sodipodi:r2="3.5704248"
       sodipodi:arg1="2.0878283"
       sodipodi:arg2="3.1350258"
       inkscape:rounded="0"
       inkscape:randomized="0"
       d="m 4.9903197,45.156303 -0.04061,-6.184023 -0.04061,-6.184024 5.375827,3.056842 5.375826,3.056843 -5.335216,3.127181 z"
       inkscape:transform-center-x="-1.2040217"
       inkscape:transform-center-y="0.017518433"
       transform="matrix(0.68221593,0,0,0.7471755,49.094809,9.3995496)" /><path
       sodipodi:type="star"
       style="fill:#999999;stroke:#999999;stroke-width:0.264583"
       id="path78-2-4-9"
       inkscape:flatsided="false"
       sodipodi:sides="3"
       sodipodi:cx="8.5200577"
       sodipodi:cy="38.948833"
       sodipodi:r1="7.1408496"
       sodipodi:r2="3.5704248"
       sodipodi:arg1="2.0878283"
       sodipodi:arg2="3.1350258"
       inkscape:rounded="0"
       inkscape:randomized="0"
       d="m 4.9903197,45.156303 -0.04061,-6.184023 -0.04061,-6.184024 5.375827,3.056842 5.375826,3.056843 -5.335216,3.127181 z"
       inkscape:transform-center-x="-1.2040217"
       inkscape:transform-center-y="0.017518433"
       transform="matrix(0.68221593,0,0,0.7471755,59.436955,9.3995496)" /><path
       sodipodi:type="star"
       style="fill:#999999;stroke:#999999;stroke-width:0.264583"
       id="path78-5-6-8-3"
       inkscape:flatsided="false"
       sodipodi:sides="3"
       sodipodi:cx="8.5200577"
       sodipodi:cy="38.948833"
       sodipodi:r1="7.1408496"
       sodipodi:r2="3.5704248"
       sodipodi:arg1="2.0878283"
       sodipodi:arg2="3.1350258"
       inkscape:rounded="0"
       inkscape:randomized="0"
       d="m 4.9903197,45.156303 -0.04061,-6.184023 -0.04061,-6.184024 5.375827,3.056842 5.375826,3.056843 -5.335216,3.127181 z"
       inkscape:transform-center-x="-1.2040217"
       inkscape:transform-center-y="0.017518433"
       transform="matrix(0.68221593,0,0,0.7471755,69.779101,9.3995496)" /><path
       sodipodi:type="star"
       style="fill:#999999;stroke:#999999;stroke-width:0.264583"
       id="path78-2-4-9-9"
       inkscape:flatsided="false"
       sodipodi:sides="3"
       sodipodi:cx="8.5200577"
       sodipodi:cy="38.948833"
       sodipodi:r1="7.1408496"
       sodipodi:r2="3.5704248"
       sodipodi:arg1="2.0878283"
       sodipodi:arg2="3.1350258"
       inkscape:rounded="0"
       inkscape:randomized="0"
       d="m 4.9903197,45.156303 -0.04061,-6.184023 -0.04061,-6.184024 5.375827,3.056842 5.375826,3.056843 -5.335216,3.127181 z"
       inkscape:transform-center-x="-1.2040217"
       inkscape:transform-center-y="0.017518433"
       transform="matrix(0.68221593,0,0,0.7471755,80.121247,9.3995496)" /><path
       sodipodi:type="star"
       style="fill:#999999;stroke:#999999;stroke-width:0.264583"
       id="path78-5-6-8-3-5"
       inkscape:flatsided="false"
       sodipodi:sides="3"
       sodipodi:cx="8.5200577"
       sodipodi:cy="38.948833"
       sodipodi:r1="7.1408496"
       sodipodi:r2="3.5704248"
       sodipodi:arg1="2.0878283"
       sodipodi:arg2="3.1350258"
       inkscape:rounded="0"
       inkscape:randomized="0"
       d="m 4.9903197,45.156303 -0.04061,-6.184023 -0.04061,-6.184024 5.375827,3.056842 5.375826,3.056843 -5.335216,3.127181 z"
       inkscape:transform-center-x="-1.2040217"
       inkscape:transform-center-y="0.017518433"
       transform="matrix(0.68221593,0,0,0.7471755,90.463393,9.3995496)" /><path
       sodipodi:type="star"
       style="fill:#999999;stroke:#999999;stroke-width:0.264583"
       id="path78-7"
       inkscape:flatsided="false"
       sodipodi:sides="3"
       sodipodi:cx="8.5200577"
       sodipodi:cy="38.948833"
       sodipodi:r1="7.1408496"
       sodipodi:r2="3.5704248"
       sodipodi:arg1="2.0878283"
       sodipodi:arg2="3.1350258"
       inkscape:rounded="0"
       inkscape:randomized="0"
       d="m 4.9903197,45.156303 -0.04061,-6.184023 -0.04061,-6.184024 5.375827,3.056842 5.375826,3.056843 -5.335216,3.127181 z"
       inkscape:transform-center-x="-1.2040217"
       inkscape:transform-center-y="0.017518433"
       transform="matrix(0.68221593,0,0,0.7471755,-2.0054386,24.170129)" /><path
       sodipodi:type="star"
       style="fill:#999999;stroke:#999999;stroke-width:0.264583"
       id="path78-5-8"
       inkscape:flatsided="false"
       sodipodi:sides="3"
       sodipodi:cx="8.5200577"
       sodipodi:cy="38.948833"
       sodipodi:r1="7.1408496"
       sodipodi:r2="3.5704248"
       sodipodi:arg1="2.0878283"
       sodipodi:arg2="3.1350258"
       inkscape:rounded="0"
       inkscape:randomized="0"
       d="m 4.9903197,45.156303 -0.04061,-6.184023 -0.04061,-6.184024 5.375827,3.056842 5.375826,3.056843 -5.335216,3.127181 z"
       inkscape:transform-center-x="-1.2040217"
       inkscape:transform-center-y="0.017518433"
       transform="matrix(0.68221593,0,0,0.7471755,8.3367059,24.170129)" /><path
       sodipodi:type="star"
       style="fill:#999999;stroke:#999999;stroke-width:0.264583"
       id="path78-5-6-0"
       inkscape:flatsided="false"
       sodipodi:sides="3"
       sodipodi:cx="8.5200577"
       sodipodi:cy="38.948833"
       sodipodi:r1="7.1408496"
       sodipodi:r2="3.5704248"
       sodipodi:arg1="2.0878283"
       sodipodi:arg2="3.1350258"
       inkscape:rounded="0"
       inkscape:randomized="0"
       d="m 4.9903197,45.156303 -0.04061,-6.184023 -0.04061,-6.184024 5.375827,3.056842 5.375826,3.056843 -5.335216,3.127181 z"
       inkscape:transform-center-x="-1.2040217"
       inkscape:transform-center-y="0.017518433"
       transform="matrix(0.68221593,0,0,0.7471755,28.410517,24.170129)" /><path
       sodipodi:type="star"
       style="fill:#999999;stroke:#999999;stroke-width:0.264583"
       id="path78-2-4-6"
       inkscape:flatsided="false"
       sodipodi:sides="3"
       sodipodi:cx="8.5200577"
       sodipodi:cy="38.948833"
       sodipodi:r1="7.1408496"
       sodipodi:r2="3.5704248"
       sodipodi:arg1="2.0878283"
       sodipodi:arg2="3.1350258"
       inkscape:rounded="0"
       inkscape:randomized="0"
       d="m 4.9903197,45.156303 -0.04061,-6.184023 -0.04061,-6.184024 5.375827,3.056842 5.375826,3.056843 -5.335216,3.127181 z"
       inkscape:transform-center-x="-1.2040217"
       inkscape:transform-center-y="0.017518433"
       transform="matrix(0.68221593,0,0,0.7471755,38.752663,24.170129)" /><path
       sodipodi:type="star"
       style="fill:#999999;stroke:#999999;stroke-width:0.264583"
       id="path78-2-4-9-4"
       inkscape:flatsided="false"
       sodipodi:sides="3"
       sodipodi:cx="8.5200577"
       sodipodi:cy="38.948833"
       sodipodi:r1="7.1408496"
       sodipodi:r2="3.5704248"
       sodipodi:arg1="2.0878283"
       sodipodi:arg2="3.1350258"
       inkscape:rounded="0"
       inkscape:randomized="0"
       d="m 4.9903197,45.156303 -0.04061,-6.184023 -0.04061,-6.184024 5.375827,3.056842 5.375826,3.056843 -5.335216,3.127181 z"
       inkscape:transform-center-x="-1.2040217"
       inkscape:transform-center-y="0.017518433"
       transform="matrix(0.68221593,0,0,0.7471755,59.436957,24.170129)" /><path
       sodipodi:type="star"
       style="fill:#999999;stroke:#999999;stroke-width:0.264583"
       id="path78-5-6-8-3-7"
       inkscape:flatsided="false"
       sodipodi:sides="3"
       sodipodi:cx="8.5200577"
       sodipodi:cy="38.948833"
       sodipodi:r1="7.1408496"
       sodipodi:r2="3.5704248"
       sodipodi:arg1="2.0878283"
       sodipodi:arg2="3.1350258"
       inkscape:rounded="0"
       inkscape:randomized="0"
       d="m 4.9903197,45.156303 -0.04061,-6.184023 -0.04061,-6.184024 5.375827,3.056842 5.375826,3.056843 -5.335216,3.127181 z"
       inkscape:transform-center-x="-1.2040217"
       inkscape:transform-center-y="0.017518433"
       transform="matrix(0.68221593,0,0,0.7471755,69.779097,24.170129)" /><path
       sodipodi:type="star"
       style="fill:#999999;stroke:#999999;stroke-width:0.264583"
       id="path78-5-6-8-3-5-1"
       inkscape:flatsided="false"
       sodipodi:sides="3"
       sodipodi:cx="8.5200577"
       sodipodi:cy="38.948833"
       sodipodi:r1="7.1408496"
       sodipodi:r2="3.5704248"
       sodipodi:arg1="2.0878283"
       sodipodi:arg2="3.1350258"
       inkscape:rounded="0"
       inkscape:randomized="0"
       d="m 4.9903197,45.156303 -0.04061,-6.184023 -0.04061,-6.184024 5.375827,3.056842 5.375826,3.056843 -5.335216,3.127181 z"
       inkscape:transform-center-x="-1.2040217"
       inkscape:transform-center-y="0.017518433"
       transform="matrix(0.68221593,0,0,0.7471755,90.463397,24.170129)" /><path
       sodipodi:type="star"
       style="fill:#999999;stroke:#999999;stroke-width:0.264583"
       id="path78-7-0"
       inkscape:flatsided="false"
       sodipodi:sides="3"
       sodipodi:cx="8.5200577"
       sodipodi:cy="38.948833"
       sodipodi:r1="7.1408496"
       sodipodi:r2="3.5704248"
       sodipodi:arg1="2.0878283"
       sodipodi:arg2="3.1350258"
       inkscape:rounded="0"
       inkscape:randomized="0"
       d="m 4.9903197,45.156303 -0.04061,-6.184023 -0.04061,-6.184024 5.375827,3.056842 5.375826,3.056843 -5.335216,3.127181 z"
       inkscape:transform-center-x="-1.2040217"
       inkscape:transform-center-y="0.017518433"
       transform="matrix(0.68221593,0,0,0.7471755,-2.005439,38.940708)" /><path
       sodipodi:type="star"
       style="fill:#999999;stroke:#999999;stroke-width:0.264583"
       id="path78-5-8-4"
       inkscape:flatsided="false"
       sodipodi:sides="3"
       sodipodi:cx="8.5200577"
       sodipodi:cy="38.948833"
       sodipodi:r1="7.1408496"
       sodipodi:r2="3.5704248"
       sodipodi:arg1="2.0878283"
       sodipodi:arg2="3.1350258"
       inkscape:rounded="0"
       inkscape:randomized="0"
       d="m 4.9903197,45.156303 -0.04061,-6.184023 -0.04061,-6.184024 5.375827,3.056842 5.375826,3.056843 -5.335216,3.127181 z"
       inkscape:transform-center-x="-1.2040217"
       inkscape:transform-center-y="0.017518433"
       transform="matrix(0.68221593,0,0,0.7471755,5.3018055,38.888153)" /><path
       sodipodi:type="star"
       style="fill:#999999;stroke:#999999;stroke-width:0.264583"
       id="path78-2-40-0"
       inkscape:flatsided="false"
       sodipodi:sides="3"
       sodipodi:cx="8.5200577"
       sodipodi:cy="38.948833"
       sodipodi:r1="7.1408496"
       sodipodi:r2="3.5704248"
       sodipodi:arg1="2.0878283"
       sodipodi:arg2="3.1350258"
       inkscape:rounded="0"
       inkscape:randomized="0"
       d="m 4.9903197,45.156303 -0.04061,-6.184023 -0.04061,-6.184024 5.375827,3.056842 5.375826,3.056843 -5.335216,3.127181 z"
       inkscape:transform-center-x="-1.2040217"
       inkscape:transform-center-y="0.017518433"
       transform="matrix(0.68221593,0,0,0.7471755,12.60905,38.940708)" /><path
       sodipodi:type="star"
       style="fill:#999999;stroke:#999999;stroke-width:0.264583"
       id="path78-5-6-0-5"
       inkscape:flatsided="false"
       sodipodi:sides="3"
       sodipodi:cx="8.5200577"
       sodipodi:cy="38.948833"
       sodipodi:r1="7.1408496"
       sodipodi:r2="3.5704248"
       sodipodi:arg1="2.0878283"
       sodipodi:arg2="3.1350258"
       inkscape:rounded="0"
       inkscape:randomized="0"
       d="m 4.9903197,45.156303 -0.04061,-6.184023 -0.04061,-6.184024 5.375827,3.056842 5.375826,3.056843 -5.335216,3.127181 z"
       inkscape:transform-center-x="-1.2040217"
       inkscape:transform-center-y="0.017518433"
       transform="matrix(0.68221593,0,0,0.7471755,19.916294,38.888153)" /><path
       sodipodi:type="star"
       style="fill:#999999;stroke:#999999;stroke-width:0.264583"
       id="path78-7-0-5"
       inkscape:flatsided="false"
       sodipodi:sides="3"
       sodipodi:cx="8.5200577"
       sodipodi:cy="38.948833"
       sodipodi:r1="7.1408496"
       sodipodi:r2="3.5704248"
       sodipodi:arg1="2.0878283"
       sodipodi:arg2="3.1350258"
       inkscape:rounded="0"
       inkscape:randomized="0"
       d="m 4.9903197,45.156303 -0.04061,-6.184023 -0.04061,-6.184024 5.375827,3.056842 5.375826,3.056843 -5.335216,3.127181 z"
       inkscape:transform-center-x="-1.2040217"
       inkscape:transform-center-y="0.017518433"
       transform="matrix(0.68221593,0,0,0.7471755,27.223539,38.993263)" /><path
       sodipodi:type="star"
       style="fill:#999999;stroke:#999999;stroke-width:0.264583"
       id="path78-5-8-4-7"
       inkscape:flatsided="false"
       sodipodi:sides="3"
       sodipodi:cx="8.5200577"
       sodipodi:cy="38.948833"
       sodipodi:r1="7.1408496"
       sodipodi:r2="3.5704248"
       sodipodi:arg1="2.0878283"
       sodipodi:arg2="3.1350258"
       inkscape:rounded="0"
       inkscape:randomized="0"
       d="m 4.9903197,45.156303 -0.04061,-6.184023 -0.04061,-6.184024 5.375827,3.056842 5.375826,3.056843 -5.335216,3.127181 z"
       inkscape:transform-center-x="-1.2040217"
       inkscape:transform-center-y="0.017518433"
       transform="matrix(0.68221593,0,0,0.7471755,34.530783,38.940708)" /><path
       sodipodi:type="star"
       style="fill:#999999;stroke:#999999;stroke-width:0.264583"
       id="path78-2-40-0-3"
       inkscape:flatsided="false"
       sodipodi:sides="3"
       sodipodi:cx="8.5200577"
       sodipodi:cy="38.948833"
       sodipodi:r1="7.1408496"
       sodipodi:r2="3.5704248"
       sodipodi:arg1="2.0878283"
       sodipodi:arg2="3.1350258"
       inkscape:rounded="0"
       inkscape:randomized="0"
       d="m 4.9903197,45.156303 -0.04061,-6.184023 -0.04061,-6.184024 5.375827,3.056842 5.375826,3.056843 -5.335216,3.127181 z"
       inkscape:transform-center-x="-1.2040217"
       inkscape:transform-center-y="0.017518433"
       transform="matrix(0.68221593,0,0,0.7471755,41.838028,38.993263)" /><path
       sodipodi:type="star"
       style="fill:#999999;stroke:#999999;stroke-width:0.264583"
       id="path78-5-6-0-5-4"
       inkscape:flatsided="false"
       sodipodi:sides="3"
       sodipodi:cx="8.5200577"
       sodipodi:cy="38.948833"
       sodipodi:r1="7.1408496"
       sodipodi:r2="3.5704248"
       sodipodi:arg1="2.0878283"
       sodipodi:arg2="3.1350258"
       inkscape:rounded="0"
       inkscape:randomized="0"
       d="m 4.9903197,45.156303 -0.04061,-6.184023 -0.04061,-6.184024 5.375827,3.056842 5.375826,3.056843 -5.335216,3.127181 z"
       inkscape:transform-center-x="-1.2040217"
       inkscape:transform-center-y="0.017518433"
       transform="matrix(0.68221593,0,0,0.7471755,49.145272,38.940708)" /><path
       sodipodi:type="star"
       style="fill:#999999;stroke:#999999;stroke-width:0.264583"
       id="path78-7-0-8"
       inkscape:flatsided="false"
       sodipodi:sides="3"
       sodipodi:cx="8.5200577"
       sodipodi:cy="38.948833"
       sodipodi:r1="7.1408496"
       sodipodi:r2="3.5704248"
       sodipodi:arg1="2.0878283"
       sodipodi:arg2="3.1350258"
       inkscape:rounded="0"
       inkscape:randomized="0"
       d="m 4.9903197,45.156303 -0.04061,-6.184023 -0.04061,-6.184024 5.375827,3.056842 5.375826,3.056843 -5.335216,3.127181 z"
       inkscape:transform-center-x="-1.2040217"
       inkscape:transform-center-y="0.017518433"
       transform="matrix(0.68221593,0,0,0.7471755,56.452517,38.993263)" /><path
       sodipodi:type="star"
       style="fill:#999999;stroke:#999999;stroke-width:0.264583"
       id="path78-5-8-4-75"
       inkscape:flatsided="false"
       sodipodi:sides="3"
       sodipodi:cx="8.5200577"
       sodipodi:cy="38.948833"
       sodipodi:r1="7.1408496"
       sodipodi:r2="3.5704248"
       sodipodi:arg1="2.0878283"
       sodipodi:arg2="3.1350258"
       inkscape:rounded="0"
       inkscape:randomized="0"
       d="m 4.9903197,45.156303 -0.04061,-6.184023 -0.04061,-6.184024 5.375827,3.056842 5.375826,3.056843 -5.335216,3.127181 z"
       inkscape:transform-center-x="-1.2040217"
       inkscape:transform-center-y="0.017518433"
       transform="matrix(0.68221593,0,0,0.7471755,63.759761,38.940708)" /><path
       sodipodi:type="star"
       style="fill:#999999;stroke:#999999;stroke-width:0.264583"
       id="path78-2-40-0-9"
       inkscape:flatsided="false"
       sodipodi:sides="3"
       sodipodi:cx="8.5200577"
       sodipodi:cy="38.948833"
       sodipodi:r1="7.1408496"
       sodipodi:r2="3.5704248"
       sodipodi:arg1="2.0878283"
       sodipodi:arg2="3.1350258"
       inkscape:rounded="0"
       inkscape:randomized="0"
       d="m 4.9903197,45.156303 -0.04061,-6.184023 -0.04061,-6.184024 5.375827,3.056842 5.375826,3.056843 -5.335216,3.127181 z"
       inkscape:transform-center-x="-1.2040217"
       inkscape:transform-center-y="0.017518433"
       transform="matrix(0.68221593,0,0,0.7471755,71.067006,38.993263)" /><path
       sodipodi:type="star"
       style="fill:#999999;stroke:#999999;stroke-width:0.264583"
       id="path78-5-6-0-5-5"
       inkscape:flatsided="false"
       sodipodi:sides="3"
       sodipodi:cx="8.5200577"
       sodipodi:cy="38.948833"
       sodipodi:r1="7.1408496"
       sodipodi:r2="3.5704248"
       sodipodi:arg1="2.0878283"
       sodipodi:arg2="3.1350258"
       inkscape:rounded="0"
       inkscape:randomized="0"
       d="m 4.9903197,45.156303 -0.04061,-6.184023 -0.04061,-6.184024 5.375827,3.056842 5.375826,3.056843 -5.335216,3.127181 z"
       inkscape:transform-center-x="-1.2040217"
       inkscape:transform-center-y="0.017518433"
       transform="matrix(0.68221593,0,0,0.7471755,78.37425,38.940708)" /><path
       sodipodi:type="star"
       style="fill:#999999;stroke:#999999;stroke-width:0.264583"
       id="path78-2-40-0-9-3"
       inkscape:flatsided="false"
       sodipodi:sides="3"
       sodipodi:cx="8.5200577"
       sodipodi:cy="38.948833"
       sodipodi:r1="7.1408496"
       sodipodi:r2="3.5704248"
       sodipodi:arg1="2.0878283"
       sodipodi:arg2="3.1350258"
       inkscape:rounded="0"
       inkscape:randomized="0"
       d="m 4.9903197,45.156303 -0.04061,-6.184023 -0.04061,-6.184024 5.375827,3.056842 5.375826,3.056843 -5.335216,3.127181 z"
       inkscape:transform-center-x="-1.2040217"
       inkscape:transform-center-y="0.017518433"
       transform="matrix(0.68221593,0,0,0.7471755,85.681495,38.993263)" /><path
       sodipodi:type="star"
       style="fill:#999999;stroke:#999999;stroke-width:0.264583"
       id="path78-5-6-0-5-5-3"
       inkscape:flatsided="false"
       sodipodi:sides="3"
       sodipodi:cx="8.5200577"
       sodipodi:cy="38.948833"
       sodipodi:r1="7.1408496"
       sodipodi:r2="3.5704248"
       sodipodi:arg1="2.0878283"
       sodipodi:arg2="3.1350258"
       inkscape:rounded="0"
       inkscape:randomized="0"
       d="m 4.9903197,45.156303 -0.04061,-6.184023 -0.04061,-6.184024 5.375827,3.056842 5.375826,3.056843 -5.335216,3.127181 z"
       inkscape:transform-center-x="-1.2040217"
       inkscape:transform-center-y="0.017518433"
       transform="matrix(0.68221593,0,0,0.7471755,92.988739,38.940708)" /><path
       sodipodi:type="star"
       style="fill:#999999;stroke:#999999;stroke-width:0.264583"
       id="path78-7-0-1"
       inkscape:flatsided="false"
       sodipodi:sides="3"
       sodipodi:cx="8.5200577"
       sodipodi:cy="38.948833"
       sodipodi:r1="7.1408496"
       sodipodi:r2="3.5704248"
       sodipodi:arg1="2.0878283"
       sodipodi:arg2="3.1350258"
       inkscape:rounded="0"
       inkscape:randomized="0"
       d="m 4.9903197,45.156303 -0.04061,-6.184023 -0.04061,-6.184024 5.375827,3.056842 5.375826,3.056843 -5.335216,3.127181 z"
       inkscape:transform-center-x="-1.2040217"
       inkscape:transform-center-y="0.017518433"
       transform="matrix(0.68221593,0,0,0.7471755,-2.005439,53.711287)" /><path
       sodipodi:type="star"
       style="fill:#999999;stroke:#999999;stroke-width:0.264583"
       id="path78-5-6-0-5-9"
       inkscape:flatsided="false"
       sodipodi:sides="3"
       sodipodi:cx="8.5200577"
       sodipodi:cy="38.948833"
       sodipodi:r1="7.1408496"
       sodipodi:r2="3.5704248"
       sodipodi:arg1="2.0878283"
       sodipodi:arg2="3.1350258"
       inkscape:rounded="0"
       inkscape:randomized="0"
       d="m 4.9903197,45.156303 -0.04061,-6.184023 -0.04061,-6.184024 5.375827,3.056842 5.375826,3.056843 -5.335216,3.127181 z"
       inkscape:transform-center-x="-1.2040217"
       inkscape:transform-center-y="0.017518433"
       transform="matrix(0.68221593,0,0,0.7471755,28.410517,53.711287)" /><path
       sodipodi:type="star"
       style="fill:#999999;stroke:#999999;stroke-width:0.264583"
       id="path78-5-6-8-2-8-3"
       inkscape:flatsided="false"
       sodipodi:sides="3"
       sodipodi:cx="8.5200577"
       sodipodi:cy="38.948833"
       sodipodi:r1="7.1408496"
       sodipodi:r2="3.5704248"
       sodipodi:arg1="2.0878283"
       sodipodi:arg2="3.1350258"
       inkscape:rounded="0"
       inkscape:randomized="0"
       d="m 4.9903197,45.156303 -0.04061,-6.184023 -0.04061,-6.184024 5.375827,3.056842 5.375826,3.056843 -5.335216,3.127181 z"
       inkscape:transform-center-x="-1.2040217"
       inkscape:transform-center-y="0.017518433"
       transform="matrix(0.68221593,0,0,0.7471755,49.094809,53.711287)" /><path
       sodipodi:type="star"
       style="fill:#999999;stroke:#999999;stroke-width:0.264583"
       id="path78-2-4-9-4-5-1"
       inkscape:flatsided="false"
       sodipodi:sides="3"
       sodipodi:cx="8.5200577"
       sodipodi:cy="38.948833"
       sodipodi:r1="7.1408496"
       sodipodi:r2="3.5704248"
       sodipodi:arg1="2.0878283"
       sodipodi:arg2="3.1350258"
       inkscape:rounded="0"
       inkscape:randomized="0"
       d="m 4.9903197,45.156303 -0.04061,-6.184023 -0.04061,-6.184024 5.375827,3.056842 5.375826,3.056843 -5.335216,3.127181 z"
       inkscape:transform-center-x="-1.2040217"
       inkscape:transform-center-y="0.017518433"
       transform="matrix(0.68221593,0,0,0.7471755,59.436961,53.711287)" /><path
       sodipodi:type="star"
       style="fill:#999999;stroke:#999999;stroke-width:0.264583"
       id="path78-5-6-8-3-5-1-6-3"
       inkscape:flatsided="false"
       sodipodi:sides="3"
       sodipodi:cx="8.5200577"
       sodipodi:cy="38.948833"
       sodipodi:r1="7.1408496"
       sodipodi:r2="3.5704248"
       sodipodi:arg1="2.0878283"
       sodipodi:arg2="3.1350258"
       inkscape:rounded="0"
       inkscape:randomized="0"
       d="m 4.9903197,45.156303 -0.04061,-6.184023 -0.04061,-6.184024 5.375827,3.056842 5.375826,3.056843 -5.335216,3.127181 z"
       inkscape:transform-center-x="-1.2040217"
       inkscape:transform-center-y="0.017518433"
       transform="matrix(0.68221593,0,0,0.7471755,90.463401,53.711287)" /><ellipse
       style="fill:#c42e5e;stroke:#c42e5e;stroke-width:0.264583;stroke-opacity:1"
       id="path79"
       cx="158.83821"
       cy="58.081661"
       rx="2.0691566"
       ry="2.0798087" /><ellipse
       style="fill:#808080;stroke:#808080;stroke-width:0.264583"
       id="path79-1"
       cx="163.8622"
       cy="58.081661"
       rx="2.0691566"
       ry="2.0798087" /><ellipse
       style="fill:#808080;stroke:#808080;stroke-width:0.264583"
       id="path79-0"
       cx="168.88618"
       cy="58.081661"
       rx="2.0691566"
       ry="2.0798087" /><ellipse
       style="fill:#808080;stroke:#808080;stroke-width:0.264583"
       id="path79-1-0"
       cx="173.91017"
       cy="58.081661"
       rx="2.0691566"
       ry="2.0798087" /><ellipse
       style="fill:#808080;stroke:#808080;stroke-width:0.264583"
       id="path79-0-9"
       cx="178.93416"
       cy="58.081661"
       rx="2.0691566"
       ry="2.0798087" /><ellipse
       style="fill:#808080;stroke:#808080;stroke-width:0.264583"
       id="path79-1-0-8"
       cx="183.95815"
       cy="58.081661"
       rx="2.0691566"
       ry="2.0798087" /><g
       style="fill:none"
       id="g116"
       transform="matrix(0.03653447,0,0,0.03653447,107.91755,54.349079)"><path
         d="m 984.031,210.875 c 44.569,0 70.999,-27.72 70.999,-73.68 0,-45.8162 -26.43,-73.3923 -69.999,-73.3923 h -50.57 V 210.875 Z M 960.96,187.823 V 86.8546 h 22.571 c 29.709,0 45.209,16.6604 45.209,50.3404 0,33.824 -15.5,50.628 -45.995,50.628 z"
         fill="#ffffff"
         id="path1" /><path
         d="m 1069.86,210.875 h 59.21 c 33.5,0 49.93,-17.163 49.93,-40.071 0,-22.262 -15.71,-35.332 -31.28,-36.122 v -1.436 c 14.28,-3.376 25.57,-13.429 25.57,-31.311 0,-21.9026 -15.72,-38.1323 -47.43,-38.1323 h -56 z m 26.5,-22.262 v -43.087 h 29.21 c 16.36,0 26.5,10.053 26.5,23.195 0,11.706 -8,19.892 -27.21,19.892 z m 0,-62.261 V 85.7774 h 26.79 c 15.57,0 23.64,8.2585 23.64,19.6046 0,12.927 -10.43,20.97 -24.22,20.97 z"
         fill="#ffffff"
         id="path2" /><path
         d="m 504.115,137.488 c 0,-46.5589 -28.259,-73.988 -65.821,-73.988 -37.632,0 -65.821,27.4291 -65.821,73.988 0,46.489 28.189,73.989 65.821,73.989 9.093,0 17.627,-1.618 25.391,-4.713 l 11.821,15.122 h 25.182 l -19.866,-25.601 c 14.41,-12.659 23.293,-32.704 23.293,-58.797 z m -74.635,23.632 19.376,25.6 c -3.358,0.914 -6.855,1.336 -10.562,1.336 -23.293,0 -39.731,-17.793 -39.731,-50.568 0,-32.774 16.438,-50.5677 39.731,-50.5677 23.362,0 39.73,17.7937 39.73,50.5677 0,17.724 -4.756,31.016 -12.87,39.526 L 452.983,161.12 Z"
         fill="#ffffff"
         id="path3" /><path
         d="m 587.71,162.147 c 0,16.458 -11.681,24.616 -22.873,24.616 -12.17,0 -20.284,-8.65 -20.284,-22.365 V 99.5528 h -25.322 v 68.7842 c 0,25.952 14.483,41.415 35.607,41.415 16.088,0 27.626,-9.274 32.523,-21.371 h 1.119 v 21.371 h 24.552 V 99.5528 H 587.71 Z"
         fill="#ffffff"
         id="path4" /><path
         d="m 680.163,211.617 c 25.041,0 42.249,-12.308 46.725,-31.086 l -23.642,-2.673 c -3.428,9.143 -11.821,13.926 -22.733,13.926 -16.368,0 -27.21,-10.831 -27.42,-29.328 h 74.845 v -7.807 c 0,-37.908 -22.664,-54.577 -49.104,-54.577 -30.777,0 -50.852,22.717 -50.852,56.054 0,33.9 19.795,55.491 52.181,55.491 z m -27,-66.322 c 0.769,-13.785 10.912,-25.389 26.021,-25.389 14.549,0 24.342,10.69 24.482,25.389 z"
         fill="#ffffff"
         id="path5" /><path
         d="m 830.848,130.033 c -3.497,-18.286 -18.046,-29.961 -43.227,-29.961 -25.881,0 -43.508,12.8 -43.438,32.774 -0.07,15.755 9.583,26.164 30.217,30.454 l 18.327,3.868 c 9.862,2.18 14.479,6.189 14.479,12.308 0,7.385 -7.974,12.941 -20.005,12.941 -11.612,0 -19.166,-5.064 -21.334,-14.77 l -24.692,2.392 c 3.148,19.833 19.725,31.578 46.096,31.578 26.86,0 45.816,-13.996 45.886,-34.462 -0.07,-15.402 -9.933,-24.827 -30.218,-29.258 l -18.326,-3.938 c -10.912,-2.462 -15.249,-6.26 -15.179,-12.519 -0.07,-7.315 7.974,-12.378 18.536,-12.378 11.682,0 17.837,6.4 19.796,13.503 z"
         fill="#ffffff"
         id="path6" /><path
         d="M 907.938,101.479 H 886.744 V 75.597 h -25.321 v 25.882 h -15.249 v 19.692 h 15.249 v 60.063 c -0.14,20.326 14.549,30.313 33.575,29.75 7.205,-0.211 12.171,-1.617 14.899,-2.532 l -4.267,-19.903 c -1.399,0.351 -4.267,0.984 -7.414,0.984 -6.366,0 -11.472,-2.25 -11.472,-12.519 v -55.843 h 21.194 z"
         fill="#ffffff"
         id="path7" /><g
         clip-path="url(#clip0)"
         id="g11"><path
           d="m 53.8284,141.617 c 0,-48.8952 40.2175,-88.2832 90.1426,-88.2832 18.029,0 34.67,4.9801 48.538,14.0348 L 231.34,29.7915 C 207.302,11.6821 176.792,0.816406 143.971,0.816406 64.4606,0.816406 0.205078,63.7467 0.205078,141.617 c 0,77.871 64.255522,140.801 143.765922,140.801 v -52.517 c -49.9251,0 -90.1426,-39.388 -90.1426,-88.284 z"
           fill="url(#paint0_linear)"
           id="path8"
           style="fill:url(#paint0_linear)" /><path
           d="m 234.113,141.618 h 53.624 c 0,-37.124 -14.793,-71.0793 -38.831,-96.4325 L 211,82.3099 c 14.33,15.8457 23.113,36.6711 23.113,59.3081 z"
           fill="url(#paint1_linear)"
           id="path9"
           style="fill:url(#paint1_linear)" /><path
           d="m 187.886,146.146 h -79.048 l 139.605,136.727 78.586,-0.453 z"
           fill="url(#paint2_linear)"
           id="path10"
           style="fill:url(#paint2_linear)" /><path
           opacity="0.6"
           d="M 19.1579,71.4473 C -15.5124,170.144 88.0362,211.343 88.0362,211.343 76.9417,203.193 63.0736,184.179 58.9131,170.596 50.13,142.527 52.9036,120.343 67.234,95.895"
           fill="url(#paint3_linear)"
           id="path11"
           style="fill:url(#paint3_linear)" /></g></g><ellipse
       style="fill:#808080;stroke:#808080;stroke-width:0.264583"
       id="path79-0-9-1"
       cx="188.98213"
       cy="58.081661"
       rx="2.0691566"
       ry="2.0798087" /><ellipse
       style="fill:#808080;stroke:#808080;stroke-width:0.264583"
       id="path79-1-0-8-6"
       cx="194.00612"
       cy="58.081661"
       rx="2.0691566"
       ry="2.0798087" /><path
       style="fill:#53c4e9;fill-opacity:1;stroke:#53c4e9;stroke-width:0.460026"
       d="m 44.38988,159.74388 c -0.0014,-1.70784 -0.138623,-9.59577 -0.304888,-17.52872 l -0.3023,-14.42356 5.148775,3.17736 c 2.831826,1.74755 5.504916,3.48229 5.940201,3.855 0.435285,0.3727 0.950745,0.71714 1.145468,0.76543 0.923473,0.22899 6.776356,3.95233 6.776356,4.31081 0,0.22418 0.159194,0.35585 0.353766,0.2926 0.513642,-0.16699 7.006643,3.82522 7.006643,4.30801 0,0.22399 0.232888,0.3555 0.517529,0.29224 0.284641,-0.0632 0.604541,0.12016 0.710889,0.40757 0.184714,0.49921 -8.827839,6.58024 -9.697537,6.54321 -0.23027,-0.01 -0.605263,0.31559 -0.833318,0.72311 -0.228056,0.40751 -0.608935,0.62085 -0.846399,0.47409 -0.237464,-0.14676 -0.431752,-0.0922 -0.431752,0.12115 0,0.2134 -0.672788,0.78542 -1.495083,1.27116 -0.822296,0.48574 -1.495083,0.80282 -1.495083,0.70461 0,-0.0982 -0.595326,0.37316 -1.322945,1.0475 -0.72762,0.67433 -1.486232,1.12514 -1.685805,1.0018 -0.199573,-0.12334 -0.432294,-0.0414 -0.517158,0.18205 -0.161396,0.425 -7.912609,5.57976 -8.390289,5.57976 -0.150965,0 -0.275646,-1.39733 -0.27707,-3.10518 z"
       id="path86"
       transform="scale(0.26458333)" /><path
       style="fill:#53c4e9;fill-opacity:1;stroke:#53c4e9;stroke-width:0.460026"
       d="m 80.981781,150.31336 c -0.174577,-6.89463 -0.249883,-14.74889 -0.167346,-17.4539 l 0.150067,-4.91821 2.499268,1.577 c 1.374596,0.86734 2.63981,1.80439 2.811586,2.08233 0.171775,0.27794 0.457461,0.46653 0.634857,0.41909 0.518245,-0.13858 10.385197,6.07504 10.385197,6.53999 0,0.2323 0.175661,0.3138 0.390358,0.18111 0.214697,-0.13269 0.882626,0.21736 1.484286,0.7779 0.601661,0.56053 1.143826,0.91564 1.204816,0.78913 0.061,-0.1265 0.49121,0.0805 0.95604,0.46003 0.46483,0.37952 1.80062,1.19423 2.96841,1.81046 1.16779,0.61623 2.60553,1.49603 3.19499,1.95511 l 1.07173,0.83468 -1.13721,0.88408 c -0.62546,0.48623 -1.29824,0.78453 -1.49508,0.66288 -0.19683,-0.12165 -0.35788,-0.0287 -0.35788,0.20653 0,0.4209 -11.553711,7.96617 -12.278767,8.01878 -0.204564,0.0148 -0.624116,0.35804 -0.932337,0.76267 -0.308221,0.40463 -0.566986,0.54087 -0.575032,0.30275 -0.008,-0.23812 -0.273395,-0.11741 -0.589662,0.26824 -0.51019,0.62212 -9.287737,6.37505 -9.726749,6.37505 -0.09577,0 -0.316965,-5.64107 -0.491542,-12.5357 z"
       id="path87"
       transform="scale(0.26458333)" /><path
       style="fill:#53c4e9;fill-opacity:1;stroke:#53c4e9;stroke-width:0.460026"
       d="m 120.08551,152.61349 c -0.17248,-5.62957 -0.24728,-13.50824 -0.16622,-17.50816 l 0.14739,-7.27259 1.02612,0.95683 c 0.56436,0.52626 1.0873,0.90076 1.16208,0.83223 0.26067,-0.23889 6.7823,3.89432 6.7823,4.29842 0,0.22399 0.16634,0.3555 0.36966,0.29224 0.53668,-0.16697 10.67095,6.14604 10.67095,6.64733 0,0.2323 0.17566,0.3138 0.39036,0.18111 0.21469,-0.13269 0.88262,0.21736 1.48428,0.77789 0.60166,0.56054 1.2023,0.96571 1.33474,0.90038 0.13245,-0.0653 0.55133,0.14169 0.93085,0.46003 0.37952,0.31834 1.25932,0.83312 1.95511,1.14396 1.56565,0.69946 1.5916,1.18518 0.115,2.15269 -0.63253,0.41445 -1.15006,0.6057 -1.15006,0.425 0,-0.18069 -0.30393,0.0733 -0.67541,0.56443 -0.37147,0.49113 -0.68516,0.68596 -0.69708,0.43294 -0.0119,-0.25301 -0.1801,-0.21077 -0.37373,0.0939 -0.37902,0.59631 -17.57485,11.73828 -17.57485,11.38755 0,-0.11593 -0.41403,0.20323 -0.92005,0.70926 -0.50603,0.50603 -1.13572,0.92005 -1.39932,0.92005 -0.26359,0 -0.92366,0.41403 -1.46682,0.92005 -0.54315,0.50603 -1.13249,0.92006 -1.30963,0.92006 -0.17714,0 -0.46319,-4.60601 -0.63567,-10.23557 z"
       id="path88"
       transform="scale(0.26458333)" /><path
       style="fill:#53c4e9;fill-opacity:1;stroke:#53c4e9;stroke-width:0.460026"
       d="m 159.24171,156.98373 c -0.16453,-3.22593 -0.29998,-11.09496 -0.30101,-17.48674 l -0.002,-11.62142 1.95511,1.22459 c 1.07531,0.67353 2.02411,1.40066 2.10845,1.61586 0.0843,0.2152 0.44661,0.39127 0.80504,0.39127 0.35844,0 0.65171,0.20701 0.65171,0.46003 0,0.25301 0.15919,0.40827 0.35376,0.34502 0.51364,-0.16699 7.00664,3.82522 7.00664,4.30801 0,0.22399 0.16635,0.35549 0.36967,0.29224 0.53668,-0.16697 10.67095,6.14604 10.67095,6.64733 0,0.2323 0.17566,0.3138 0.39036,0.18111 0.21469,-0.13269 0.83171,0.16992 1.37114,0.67248 0.53943,0.50255 1.13488,0.89389 1.32323,0.86964 0.18835,-0.0242 0.40854,0.15416 0.48931,0.39647 0.13211,0.39632 -7.4552,5.50133 -8.2893,5.57733 -0.18976,0.0173 -0.75905,0.44546 -1.26507,0.95149 -0.50603,0.50603 -1.21332,0.92005 -1.57176,0.92005 -0.35843,0 -0.7207,0.16731 -0.80504,0.3718 -0.23766,0.57624 -4.52268,3.39988 -4.53063,2.98549 -0.004,-0.20192 -0.15913,-0.15014 -0.34502,0.11507 -0.60895,0.86879 -3.19517,2.4876 -3.49508,2.1877 -0.1612,-0.1612 -0.29309,-0.0747 -0.29309,0.19222 0,0.38082 -5.61578,4.26829 -6.16592,4.26829 -0.0729,0 -0.26706,-2.6394 -0.43159,-5.86533 z"
       id="path89"
       transform="scale(0.26458333)" /><path
       style="fill:#53c4e9;fill-opacity:1;stroke:#53c4e9;stroke-width:0.460026"
       d="m 198.38507,160.20391 c -0.11061,-1.45483 -0.23859,-9.35103 -0.2844,-17.54711 -0.0794,-14.21494 -0.0456,-14.87239 0.73357,-14.26079 0.44928,0.35264 0.96895,0.84818 1.15484,1.10119 0.18588,0.25302 0.34114,0.30734 0.34502,0.12072 0.008,-0.40688 5.23071,2.85672 5.45068,3.40634 0.0843,0.21074 0.44661,0.38316 0.80504,0.38316 0.35844,0 0.6517,0.20701 0.6517,0.46002 0,0.25302 0.15526,0.41747 0.34502,0.36545 0.56559,-0.15505 3.33519,1.46135 3.33519,1.9465 0,0.24651 0.16957,0.39645 0.37683,0.3332 0.4842,-0.14777 14.34399,8.42578 14.34399,8.87308 0,0.18514 -0.51753,0.67572 -1.15007,1.09018 -0.63253,0.41445 -1.15006,0.64527 -1.15006,0.51293 0,-0.13234 -0.41402,0.1734 -0.92005,0.67943 -0.50603,0.50603 -1.21332,0.92005 -1.57176,0.92005 -0.35843,0 -0.7207,0.16731 -0.80504,0.3718 -0.20669,0.50115 -4.52359,3.42862 -4.52359,3.06764 0,-0.15674 -0.30821,0.0232 -0.68492,0.39995 -0.95887,0.95887 -8.84967,5.92467 -9.25224,5.82258 -0.18189,-0.0461 -0.51729,0.24955 -0.74535,0.65707 -0.22805,0.40751 -0.60893,0.62085 -0.8464,0.47409 -0.23746,-0.14676 -0.43175,-0.0786 -0.43175,0.15157 0,0.34678 -4.3144,3.3161 -4.81826,3.3161 -0.0863,0 -0.24737,-1.19032 -0.35799,-2.64515 z"
       id="path90"
       transform="scale(0.26458333)" /><path
       style="fill:#53c4e9;fill-opacity:1;stroke:#53c4e9;stroke-width:0.460026"
       d="m 237.44128,160.43392 c -0.15955,-1.32832 -0.29189,-9.20112 -0.29409,-17.49511 l -0.004,-15.07997 2.64514,1.68537 c 1.45484,0.92696 2.79724,1.91662 2.98313,2.19926 0.18588,0.28264 0.34114,0.3612 0.34502,0.17458 0.008,-0.40688 5.23071,2.85672 5.45068,3.40634 0.0843,0.21074 0.37622,0.38316 0.64864,0.38316 0.8404,0 15.56056,9.3356 15.4139,9.77558 -0.0759,0.22769 -0.30264,0.3467 -0.50387,0.26447 -0.20123,-0.0822 -0.57105,0.21712 -0.82182,0.66522 -0.25076,0.44809 -0.65023,0.69464 -0.88769,0.54788 -0.23746,-0.14676 -0.43175,-0.0673 -0.43175,0.17662 0,0.43675 -3.8577,2.90258 -4.40368,2.81482 -0.1542,-0.0248 -0.56544,0.33099 -0.91388,0.79061 -0.34843,0.45962 -0.64327,0.62867 -0.65519,0.37565 -0.0119,-0.25301 -0.1801,-0.21077 -0.37373,0.0939 -0.29431,0.46304 -17.35795,11.63679 -17.77076,11.63679 -0.0748,0 -0.2665,-1.08681 -0.42605,-2.41514 z"
       id="path91"
       transform="scale(0.26458333)" /><path
       style="fill:#53c4e9;fill-opacity:1;stroke:#53c4e9;stroke-width:0.460026"
       d="m 276.45515,162.2722 c -0.12174,-0.31727 -0.167,-8.15111 -0.10057,-17.40854 l 0.12079,-16.83168 6.90039,4.3024 c 3.79521,2.36632 7.26502,4.61086 7.71069,4.98785 0.44566,0.37699 0.94211,0.68544 1.10322,0.68544 0.70504,0 11.66843,7.0968 11.5433,7.47219 -0.0765,0.22949 -0.30373,0.34997 -0.50496,0.26774 -0.20124,-0.0822 -0.57106,0.21712 -0.82182,0.66522 -0.25077,0.44809 -0.65023,0.69464 -0.88769,0.54788 -0.23747,-0.14676 -0.43176,-0.0829 -0.43176,0.14184 0,0.38925 -10.68555,7.35046 -10.9256,7.11759 -0.0633,-0.0614 -0.52903,0.30246 -1.03506,0.80849 -0.50603,0.50603 -1.23057,0.92005 -1.61009,0.92005 -0.37952,0 -0.69004,0.16238 -0.69004,0.36084 0,0.40087 -2.88036,2.20585 -3.17882,1.99202 -0.10377,-0.0743 -0.37526,0.19825 -0.60331,0.60577 -0.22806,0.40751 -0.60894,0.62085 -0.8464,0.47409 -0.23746,-0.14676 -0.43175,-0.0476 -0.43175,0.22034 0,0.26794 -0.21567,0.48717 -0.47926,0.48717 -0.2636,0 -0.91598,0.40687 -1.44975,0.90415 -0.53376,0.49727 -1.12445,0.80898 -1.31263,0.69268 -0.18819,-0.11631 -0.46086,0.0979 -0.60594,0.47593 -0.3211,0.83678 -1.15993,0.90016 -1.46294,0.11054 z"
       id="path92"
       transform="scale(0.26458333)" /><path
       style="fill:#53c4e9;fill-opacity:1;stroke:#53c4e9;stroke-width:0.460026"
       d="m 315.34754,145.6298 v -17.71166 l 1.61009,0.94998 c 0.88554,0.52248 1.61009,1.13654 1.61009,1.36456 0,0.22802 0.16634,0.36283 0.36966,0.29958 0.51844,-0.1613 10.67095,6.13724 10.67095,6.62017 0,0.21737 0.15526,0.34778 0.34502,0.2898 0.49954,-0.15264 4.25523,2.04528 4.25523,2.49026 0,0.20642 0.23317,0.37531 0.51816,0.37531 0.70814,0 8.22233,4.63776 8.22233,5.07482 0,0.34805 -6.64789,4.65426 -7.11573,4.60926 -0.13457,-0.013 -0.6587,0.39048 -1.16473,0.89651 -0.50603,0.50603 -1.21332,0.92005 -1.57175,0.92005 -0.35844,0 -0.72071,0.16731 -0.80505,0.3718 -0.23766,0.57624 -4.52268,3.39988 -4.53063,2.98549 -0.004,-0.20192 -0.15913,-0.15014 -0.34502,0.11507 -0.54658,0.77981 -3.32685,2.60521 -3.34213,2.19428 -0.008,-0.20699 -0.22743,-0.01 -0.4883,0.43838 -0.26087,0.44809 -0.66859,0.69464 -0.90606,0.54788 -0.23746,-0.14676 -0.43175,-0.0673 -0.43175,0.17662 0,0.49595 -4.17524,3.09327 -4.71526,2.93325 -0.18976,-0.0562 -0.34502,0.0975 -0.34502,0.34161 0,0.24411 -0.41402,0.66542 -0.92005,0.93624 -0.91265,0.48843 -0.92005,0.34984 -0.92005,-17.21926 z"
       id="path93"
       transform="scale(0.26458333)" /><path
       style="fill:#53c4e9;fill-opacity:1;stroke:#53c4e9;stroke-width:0.460026"
       d="m 354.44971,145.65865 v -17.75624 l 3.45019,2.12921 c 1.89761,1.17107 3.45019,2.30619 3.45019,2.52249 0,0.21631 0.16958,0.34153 0.37684,0.27828 0.35347,-0.10788 13.89773,8.08706 15.01615,9.0855 0.28342,0.25302 1.54195,1.01553 2.79673,1.69447 1.25478,0.67894 2.28142,1.45524 2.28142,1.7251 0,0.26986 -0.16982,0.4389 -0.37738,0.37564 -0.20755,-0.0633 -0.58255,0.25162 -0.83331,0.69972 -0.25077,0.44809 -0.65023,0.69464 -0.8877,0.54788 -0.23746,-0.14676 -0.43175,-0.0476 -0.43175,0.22034 0,0.26794 -0.21567,0.48717 -0.47926,0.48717 -0.26359,0 -0.91598,0.40687 -1.44974,0.90415 -0.53377,0.49727 -1.14615,0.79557 -1.36085,0.66288 -0.21469,-0.13269 -0.39035,-0.0435 -0.39035,0.19831 0,0.50312 -6.9512,4.95284 -7.47542,4.78529 -0.18976,-0.0607 -0.34502,0.0771 -0.34502,0.30604 0,0.46486 -3.96889,2.90654 -4.39414,2.7033 -0.14896,-0.0712 -0.476,0.23718 -0.72677,0.68528 -0.25077,0.44809 -0.65023,0.69464 -0.88769,0.54788 -0.23747,-0.14676 -0.43176,-0.0786 -0.43176,0.15157 0,0.23013 -0.9833,1.03068 -2.18512,1.77899 -1.20181,0.74832 -2.7544,1.73463 -3.45019,2.19179 l -1.26507,0.83121 z"
       id="path94"
       transform="scale(0.26458333)" /><path
       style="fill:#53c4e9;fill-opacity:1;stroke:#53c4e9;stroke-width:0.460026"
       d="M 5.2894017,214.31324 C 5.2889108,211.68887 5.152115,203.79708 4.985411,196.77594 4.6661333,183.3288 4.7162876,182.9762 6.6703709,184.93028 c 0.5060282,0.50603 1.0753098,0.91836 1.2650704,0.91629 0.1897605,-0.002 0.7590422,0.35073 1.2650703,0.78401 0.5060282,0.43327 1.0235574,0.74379 1.1500644,0.69004 0.126507,-0.0538 0.594649,0.21447 1.040316,0.59607 0.445666,0.38159 0.947267,0.6938 1.114668,0.6938 0.1674,0 4.830292,2.82166 10.361982,6.27037 8.860379,5.52395 9.959802,6.33839 9.235907,6.84181 -2.868079,1.99458 -16.692592,10.74641 -16.692592,10.56752 0,-0.12012 -0.414023,0.19563 -0.920051,0.70165 -0.506028,0.50603 -1.213318,0.92006 -1.571754,0.92006 -0.358437,0 -0.720707,0.1673 -0.805045,0.37179 -0.237659,0.57624 -4.5226779,3.39988 -4.5306292,2.98549 -0.00387,-0.20191 -0.159133,-0.16011 -0.3450192,0.0929 -0.1858861,0.25301 -0.700245,0.74413 -1.1430196,1.09138 -0.7555354,0.59253 -0.8050997,0.33791 -0.8059373,-4.14023 z"
       id="path95"
       transform="scale(0.26458333)" /><path
       style="fill:#53c4e9;fill-opacity:1;stroke:#53c4e9;stroke-width:0.460026"
       d="m 44.234715,207.10875 c -0.429028,-16.67322 -0.385146,-23.09852 0.157754,-23.09852 0.253014,0 0.460025,0.20701 0.460025,0.46003 0,0.25301 0.155259,0.41402 0.345019,0.35779 0.54002,-0.16001 4.715263,2.4373 4.715263,2.93325 0,0.2439 0.17566,0.3349 0.390357,0.20221 0.214697,-0.13269 0.882626,0.21736 1.484286,0.77789 0.601661,0.56053 1.202294,0.96571 1.334739,0.90038 0.132445,-0.0653 0.605446,0.19344 1.051113,0.57503 0.445667,0.38159 0.933847,0.69381 1.084845,0.69381 0.150999,0 3.99089,2.30448 8.533092,5.12107 l 8.258549,5.12107 -3.363062,2.23817 c -1.849685,1.231 -3.621827,2.2387 -3.938094,2.23934 -0.316268,6.4e-4 -0.575032,0.16354 -0.575032,0.36201 0,0.40086 -2.88036,2.20584 -3.178825,1.99201 -0.103763,-0.0743 -0.375251,0.19826 -0.603306,0.60577 -0.228055,0.40751 -0.608935,0.62085 -0.846398,0.47409 -0.237464,-0.14676 -0.431753,-0.0922 -0.431753,0.12116 0,0.46095 -2.83793,2.22397 -3.335185,2.07193 -0.189761,-0.058 -0.345019,0.0801 -0.345019,0.30691 0,0.48454 -6.968648,4.92012 -7.475416,4.75815 -0.189761,-0.0607 -0.345019,0.0763 -0.345019,0.30431 0,0.22802 -0.692024,0.82289 -1.53783,1.32193 l -1.53783,0.90734 z"
       id="path96"
       transform="scale(0.26458333)" /><path
       style="fill:#53c4e9;fill-opacity:1;stroke:#53c4e9;stroke-width:0.460026"
       d="m 115.93691,271.20777 c 0.006,-2.03659 -0.0978,-6.04388 -0.23002,-8.90507 l -0.24047,-5.20219 -5.4053,3.45772 c -2.97291,1.90175 -5.40847,3.31118 -5.41234,3.13207 -0.004,-0.17911 -0.16258,-0.0811 -0.35267,0.21782 -0.46632,0.73327 -7.458862,5.277 -7.467768,4.85254 -0.0039,-0.18465 -0.159132,-0.11875 -0.345019,0.14646 -0.546589,0.77981 -3.326859,2.6052 -3.342132,2.19428 -0.0077,-0.20699 -0.227428,-0.01 -0.488299,0.43837 -0.260871,0.4481 -0.668596,0.69465 -0.906062,0.54789 -0.237465,-0.14676 -0.431752,-0.0681 -0.431752,0.1749 0,0.24295 -0.672787,0.83874 -1.495083,1.32397 l -1.495083,0.88224 -0.03407,-2.33188 c -0.01874,-1.28254 -0.07049,-5.16867 -0.115007,-8.63584 l -0.08093,-6.30396 -1.494734,0.78365 c -0.822107,0.43101 -1.5984,0.89713 -1.725096,1.03583 -0.67563,0.73961 -3.222548,2.28631 -3.234518,1.96427 -0.0077,-0.20699 -0.227427,-0.01 -0.488298,0.43837 -0.260872,0.4481 -0.668597,0.69465 -0.906062,0.54788 -0.237465,-0.14676 -0.431753,-0.0476 -0.431753,0.22034 0,0.26795 -0.215669,0.48718 -0.479259,0.48718 -0.263595,0 -0.91598,0.40686 -1.449747,0.90414 -0.533764,0.49728 -1.12445,0.80899 -1.312637,0.69268 -0.188183,-0.1163 -0.465891,0.11099 -0.61712,0.50509 -0.151234,0.39411 -0.483441,0.58771 -0.738245,0.43024 -0.254799,-0.15748 -0.463273,-0.0868 -0.463273,0.15714 0,0.43158 -3.449828,2.65425 -4.370243,2.81568 -0.253014,0.0444 -0.628009,0.38085 -0.833318,0.74772 -0.205309,0.36688 -0.56758,0.54696 -0.805045,0.4002 -0.237465,-0.14676 -0.431752,-0.0673 -0.431752,0.17663 0,0.43158 -3.449829,2.65425 -4.370243,2.81568 -0.253014,0.0444 -0.628009,0.38085 -0.833318,0.74772 -0.20531,0.36688 -0.56758,0.54697 -0.805045,0.4002 -0.237465,-0.14676 -0.431752,-0.0697 -0.431752,0.17112 0,0.24088 -0.279424,0.54519 -0.620947,0.67624 -0.505477,0.19397 -0.639132,-1.35634 -0.718731,-8.3366 -0.05378,-4.71619 -0.161455,-8.63856 -0.239277,-8.71638 -0.07782,-0.0778 -2.120106,1.13134 -4.538415,2.68703 -2.418308,1.55569 -4.534196,2.79155 -4.701977,2.74636 -0.16778,-0.0452 -0.590134,0.2939 -0.938567,0.75352 -0.348435,0.45962 -0.6401,0.64085 -0.648147,0.40273 -0.008,-0.23812 -0.273394,-0.11943 -0.589662,0.26374 -0.612242,0.74176 -12.874711,8.67968 -13.408341,8.67968 -0.173739,0 -0.773011,0.42616 -1.331713,0.94703 l -1.015822,0.94702 -0.125157,-8.53745 c -0.06884,-4.69559 -0.297021,-8.53744 -0.507078,-8.53744 -0.210056,0 -4.242213,2.47548 -8.960348,5.50108 -4.718135,3.0256 -8.584723,5.35448 -8.592417,5.17529 -0.0077,-0.17919 -0.227428,0.0408 -0.488298,0.48892 -0.260871,0.4481 -0.668599,0.69464 -0.906063,0.54788 -0.237463,-0.14676 -0.431752,-0.0476 -0.431752,0.22034 0,0.26795 -0.204645,0.48718 -0.454767,0.48718 -0.250122,0 -0.819404,0.31221 -1.26507,0.6938 -0.445667,0.38159 -1.010739,0.74386 -1.255716,0.80504 -0.2449756,0.0612 -0.9502096,0.57908 -1.5671857,1.15087 -0.6169758,0.5718 -1.2174779,0.94392 -1.334449,0.82695 -0.1169711,-0.11697 -0.5231919,0.0978 -0.902713,0.47737 -0.3795211,0.37952 -0.7446035,0.62842 -0.8112941,0.55312 -0.066691,-0.0753 -0.2722645,-7.97788 -0.4568308,-17.56129 l -0.3355751,-17.42439 1.8916725,1.06318 c 1.0404198,0.58475 1.8916725,1.23207 1.8916725,1.4385 0,0.20642 0.3105172,0.37531 0.6900383,0.37531 0.3795211,0 0.6900384,0.20701 0.6900384,0.46003 0,0.25301 0.159195,0.40827 0.353766,0.34502 0.513642,-0.16698 7.006643,3.82522 7.006643,4.30801 0,0.22399 0.166348,0.3555 0.369662,0.29224 0.536685,-0.16697 10.670952,6.14604 10.670952,6.64733 0,0.2323 0.175661,0.3138 0.390358,0.18111 0.214696,-0.13269 0.835731,0.17367 1.380076,0.68081 0.544346,0.50713 0.98972,0.76909 0.98972,0.58212 0,-0.18696 0.248414,-0.0915 0.55203,0.21209 0.303617,0.30362 0.681195,0.55203 0.839063,0.55203 0.157867,0 0.192434,-3.94951 0.07682,-8.77669 l -0.210215,-8.77669 3.396376,2.16951 c 1.868008,1.19323 3.523028,2.36577 3.677822,2.60564 0.154795,0.23987 0.465313,0.43407 0.690039,0.43157 0.746543,-0.008 13.979348,8.33065 13.979348,8.80943 0,0.25872 0.128425,0.34197 0.285395,0.185 0.156965,-0.15696 1.347282,0.38959 2.645147,1.21456 1.297861,0.82498 2.621313,1.65739 2.941004,1.84981 0.464336,0.27948 0.519189,-1.36825 0.272698,-8.19162 -0.169703,-4.6978 -0.186255,-8.54146 -0.03678,-8.54146 0.585811,0 4.933154,2.92231 4.933154,3.31609 0,0.23013 0.175661,0.30985 0.390359,0.17716 0.214694,-0.13269 0.835729,0.17367 1.380077,0.68081 0.544344,0.50713 0.9963,0.75874 1.004346,0.55912 0.0081,-0.19962 0.318568,0.0389 0.690038,0.53003 0.371476,0.49113 0.67541,0.74354 0.67541,0.5609 0,-0.4127 5.164192,2.84694 5.62827,3.55255 0.185888,0.28264 0.341146,0.3612 0.34502,0.17458 0.0084,-0.40688 5.230716,2.85672 5.450677,3.40635 0.08434,0.21073 0.446611,0.38315 0.805045,0.38315 0.358438,0 0.651704,0.24151 0.651704,0.5367 0,0.29518 0.128426,0.40827 0.285396,0.2513 0.156965,-0.15697 1.403055,0.42957 2.769082,1.30341 1.366032,0.87383 2.606689,1.58879 2.757012,1.58879 0.150327,0 0.122707,-3.93567 -0.06138,-8.74594 l -0.334701,-8.74594 3.356793,2.0696 c 1.846235,1.13828 3.497322,2.29698 3.669077,2.57489 0.171759,0.27791 0.457951,0.46584 0.635981,0.41763 0.381973,-0.10343 7.96767,4.56338 8.85424,5.44723 0.33536,0.33434 0.61633,0.43785 0.62438,0.23002 0.008,-0.20784 0.31857,0.024 0.69004,0.51509 0.37147,0.49113 0.67541,0.74353 0.67541,0.56089 0,-0.41269 5.16419,2.84694 5.62827,3.55256 0.18588,0.28264 0.34114,0.34453 0.34502,0.13754 0.004,-0.20699 0.57632,0.0178 1.27211,0.4996 2.75064,1.90458 2.59107,2.40017 2.24239,-6.96417 l -0.32008,-8.59636 4.90689,3.03304 c 9.8338,6.07845 13.76282,8.61047 14.03839,9.04691 0.1548,0.24516 0.36181,0.38807 0.46002,0.31758 0.3517,-0.25239 6.84896,3.84474 6.84896,4.31891 0,0.26635 0.13621,0.34805 0.30269,0.18157 0.16648,-0.16648 0.60642,-0.0506 0.97764,0.25747 0.59035,0.48994 0.65111,-0.54856 0.48472,-8.28445 -0.10463,-4.86454 -0.13457,-8.84461 -0.0665,-8.84461 0.23593,0 5.43303,3.37257 5.66189,3.67418 0.1265,0.16673 0.57235,0.42916 0.99078,0.58318 0.41843,0.15402 5.24771,3.08884 10.73174,6.52181 5.48403,3.43298 10.06724,6.24177 10.1849,6.24177 0.11767,0 0.15316,-3.72645 0.0789,-8.281 -0.0743,-4.55456 0.0181,-8.28077 0.20524,-8.28046 0.48036,7.7e-4 6.96067,4.17506 7.30154,4.70328 0.1548,0.23987 0.36181,0.37044 0.46003,0.29015 0.32924,-0.26913 14.20936,8.47432 14.20936,8.95085 0,0.25872 0.12368,0.34672 0.27485,0.19555 0.15116,-0.15116 1.26087,0.33186 2.46601,1.0734 1.20514,0.74153 2.32353,1.34823 2.48531,1.34823 0.16178,0 0.29414,-3.82627 0.29414,-8.50282 v -8.50283 l 3.45019,2.12922 c 1.89761,1.17106 3.45019,2.3184 3.45019,2.54964 0,0.23123 0.17566,0.31186 0.39036,0.17917 0.2147,-0.13269 0.83573,0.17368 1.38008,0.68081 0.54434,0.50714 0.98972,0.7964 0.98972,0.64281 0,-0.34434 2.86169,1.62588 3.32814,2.29137 0.18589,0.2652 0.34114,0.31283 0.34502,0.10584 0.008,-0.41259 2.79189,1.41917 3.33518,2.19429 0.18589,0.2652 0.34115,0.3295 0.34502,0.14288 0.006,-0.30841 4.98609,2.65551 5.52735,3.2899 0.24206,0.2837 4.84888,2.79933 5.12808,2.80027 0.0892,3e-4 0.10128,-3.74622 0.0268,-8.3256 -0.0745,-4.57938 0.0291,-8.25408 0.23008,-8.166 1.52449,0.66798 7.03573,4.25779 7.03573,4.58282 0,0.22418 0.17174,0.35584 0.38165,0.29259 0.51603,-0.1555 6.97876,3.90887 6.97876,4.3889 0,0.20936 0.17566,0.2721 0.39036,0.1394 0.2147,-0.13268 0.83573,0.17368 1.38008,0.68081 0.54434,0.50714 0.9963,0.75875 1.00434,0.55913 0.008,-0.19962 0.31857,0.0389 0.69004,0.53003 0.37148,0.49113 0.67541,0.74353 0.67541,0.56089 0,-0.41269 5.16419,2.84694 5.62827,3.55256 0.18589,0.28264 0.34115,0.34689 0.34502,0.14278 0.004,-0.20411 0.46713,-0.0488 1.02946,0.34502 0.56232,0.39387 1.24455,0.71612 1.51607,0.71612 0.34073,0 0.43403,-2.64739 0.30116,-8.54564 l -0.19251,-8.54564 4.01832,2.50725 c 2.21008,1.37899 4.35737,2.79755 4.77177,3.15237 0.4144,0.35482 0.96046,0.71297 1.21348,0.79588 1.17123,0.38383 6.67037,3.88581 6.67037,4.24785 0,0.22418 0.1592,0.35585 0.35376,0.2926 0.53131,-0.17273 7.00665,3.83371 7.00665,4.33516 0,0.23892 0.17566,0.32583 0.39036,0.19314 0.21469,-0.13269 0.78397,0.11386 1.26507,0.54788 0.48109,0.43403 1.23332,0.84913 1.67162,0.92245 0.7402,0.12381 0.7762,-0.45724 0.50593,-8.16546 -0.16004,-4.56432 -0.15217,-8.29876 0.0175,-8.29876 0.52837,0 12.93175,7.89011 13.09476,8.32991 0.0849,0.22897 0.34509,0.2984 0.57828,0.15428 0.23319,-0.14412 0.54772,0.0604 0.69895,0.45451 0.15123,0.39411 0.42894,0.6214 0.61712,0.50509 0.18819,-0.1163 0.78351,0.19972 1.32294,0.70228 0.53943,0.50255 1.0816,0.85766 1.20482,0.78913 0.12322,-0.0685 0.64713,0.23767 1.16426,0.68045 0.51712,0.44277 1.07574,0.80504 1.24137,0.80504 0.16563,0 1.7676,0.90065 3.55994,2.00144 1.79233,1.10078 3.54211,2.16323 3.88839,2.361 0.52835,0.30174 0.57519,-1.06218 0.29126,-8.4815 l -0.33834,-8.84107 2.00887,1.25853 c 1.10487,0.69219 2.07787,1.4346 2.16221,1.6498 0.0843,0.2152 0.37776,0.39127 0.65205,0.39127 0.7536,0 19.20572,11.59029 19.20572,12.06365 0,0.22623 0.17566,0.30277 0.39036,0.17008 0.21469,-0.13269 0.78397,0.11386 1.26507,0.54788 0.48109,0.43403 1.26878,0.85727 1.75042,0.94054 0.84311,0.14577 0.86471,-0.15814 0.58038,-8.16545 -0.16243,-4.57427 -0.18428,-8.31686 -0.0486,-8.31686 0.44803,0 5.48592,3.33193 5.83083,3.85636 0.18589,0.28264 0.34114,0.3612 0.34502,0.17458 0.008,-0.40688 5.23071,2.85672 5.45068,3.40634 0.0843,0.21074 0.44661,0.38316 0.80504,0.38316 0.35844,0 0.6517,0.20701 0.6517,0.46002 0,0.25302 0.1592,0.40828 0.35377,0.34502 0.56319,-0.18309 7.00664,3.84916 7.00664,4.38469 0,0.26615 0.12843,0.35549 0.2854,0.19852 0.29208,-0.29208 5.24677,2.6754 5.73554,3.43516 0.14884,0.23136 0.51811,0.12245 0.82059,-0.24202 0.39423,-0.47501 0.50649,-2.95431 0.39643,-8.75488 l -0.15355,-8.09221 1.13334,0.74259 c 0.62334,0.40843 1.824,1.1501 2.66814,1.64815 0.84415,0.49806 1.5348,1.10434 1.5348,1.34729 0,0.24296 0.17567,0.33317 0.39036,0.20048 0.2147,-0.13269 0.83573,0.17368 1.38008,0.68081 0.54434,0.50714 0.9963,0.75874 1.00435,0.55913 0.008,-0.19962 0.31856,0.0389 0.69004,0.53003 0.37147,0.49113 0.6754,0.74353 0.6754,0.56089 0,-0.41269 5.1642,2.84694 5.62828,3.55256 0.18588,0.28264 0.34114,0.3612 0.34501,0.17458 0.008,-0.40688 5.23072,2.85672 5.45068,3.40634 0.0843,0.21074 0.44661,0.38316 0.80505,0.38316 0.35843,0 0.6517,0.24151 0.6517,0.53669 0,0.29518 0.12368,0.41302 0.27485,0.26185 0.30609,-0.30609 4.78748,2.32368 4.78189,2.80611 -0.004,0.36445 -3.86437,2.62215 -4.00188,2.3406 -0.0524,-0.10722 -0.40805,0.21909 -0.79041,0.72512 -0.38237,0.50602 -0.70497,0.71304 -0.71689,0.46002 -0.0119,-0.25301 -0.1801,-0.21077 -0.37373,0.0939 -0.43983,0.69198 -17.57485,11.70883 -17.57485,11.29963 0,-0.1643 -0.30394,0.10312 -0.67541,0.59425 -0.37147,0.49113 -0.68199,0.72965 -0.69004,0.53003 -0.008,-0.19962 -0.46768,0.0591 -1.02142,0.57503 -0.55374,0.51588 -1.17021,0.93797 -1.36993,0.93797 -0.19972,0 -0.41945,-3.84184 -0.48829,-8.53744 l -0.12516,-8.53743 -6.05671,3.89913 c -3.33119,2.14453 -6.1776,3.77825 -6.32535,3.6305 -0.14775,-0.14775 -0.26864,-0.0271 -0.26864,0.26806 0,0.29518 -0.31052,0.5367 -0.69004,0.5367 -0.37952,0 -0.69004,0.20701 -0.69004,0.46002 0,0.25302 -0.29326,0.46003 -0.6517,0.46003 -0.35843,0 -0.7207,0.16731 -0.80504,0.3718 -0.23766,0.57623 -4.52268,3.39987 -4.53063,2.98548 -0.004,-0.20191 -0.15913,-0.14457 -0.34502,0.12744 -0.287,0.41995 -4.52746,3.39295 -6.46165,4.53027 -0.49112,0.28879 -0.5767,-1.27958 -0.46002,-8.43091 0.0933,-5.72215 -0.0192,-8.7855 -0.32283,-8.78515 -0.25639,3.1e-4 -1.55021,0.7306 -2.87516,1.62287 -1.32495,0.89227 -2.41216,1.46155 -2.41604,1.26507 -0.004,-0.19649 -0.15913,-0.14026 -0.34502,0.12495 -0.60895,0.86879 -3.19517,2.4876 -3.49507,2.1877 -0.1612,-0.1612 -0.29309,-0.0666 -0.29309,0.21029 0,0.51524 -5.30894,3.95144 -5.71574,3.69951 -0.12375,-0.0766 -0.53784,0.27469 -0.9202,0.78072 -0.38237,0.50602 -0.70179,0.72522 -0.70984,0.4871 -0.008,-0.23812 -0.2734,-0.11741 -0.58967,0.26825 -0.58999,0.71943 -9.32141,6.37504 -9.84211,6.37504 -0.15922,0 -0.18682,-3.82971 -0.0613,-8.51047 0.1255,-4.68076 0.0909,-8.51047 -0.0769,-8.51047 -0.16781,0 -1.27718,0.61647 -2.46528,1.36994 -1.1881,0.75347 -2.16647,1.21925 -2.17417,1.03506 -0.008,-0.18419 -0.22742,0.0317 -0.4883,0.47983 -0.26087,0.4481 -0.66859,0.69464 -0.90606,0.54788 -0.23746,-0.14676 -0.43175,-0.0837 -0.43175,0.14005 0,0.46713 -6.54547,4.7077 -7.2665,4.7077 -0.2625,0 -0.54627,0.18054 -0.63061,0.40121 -0.24606,0.64383 -9.4719,6.45779 -9.77172,6.15797 -0.14969,-0.14969 -0.27217,-0.0511 -0.27217,0.21909 0,0.27019 -0.75724,0.93804 -1.68275,1.4841 l -1.68275,0.99285 0.31171,-8.68214 c 0.17144,-4.77517 0.18504,-8.8088 0.0302,-8.96362 -0.15481,-0.15482 -2.8171,1.3592 -5.91619,3.36449 -3.09909,2.00528 -5.8574,3.64597 -6.12957,3.64597 -0.27218,0 -0.56387,0.16731 -0.64821,0.3718 -0.27243,0.66054 -4.39705,3.28159 -4.69509,2.98356 -0.15868,-0.15869 -0.28852,-0.047 -0.28852,0.24817 0,0.29519 -0.21567,0.5367 -0.47926,0.5367 -0.26359,0 -0.91598,0.40686 -1.44975,0.90414 -0.53376,0.49728 -1.14614,0.79558 -1.36083,0.66289 -0.2147,-0.13269 -0.39036,-0.0451 -0.39036,0.19454 0,0.3935 -5.69241,4.21876 -6.27798,4.21876 -0.13448,0 -0.096,-3.82971 0.0856,-8.51047 0.3288,-8.47808 0.32633,-8.51047 -0.64898,-8.51047 -0.53847,0 -0.97903,0.16237 -0.97903,0.36084 0,0.43272 -2.37108,1.88623 -2.90752,1.78235 -0.20756,-0.0402 -0.58255,0.29355 -0.83331,0.74164 -0.25077,0.4481 -0.65023,0.69464 -0.8877,0.54788 -0.23746,-0.14676 -0.43175,-0.0476 -0.43175,0.22034 0,0.26795 -0.21567,0.48718 -0.47926,0.48718 -0.26359,0 -0.91598,0.40686 -1.44975,0.90414 -0.53376,0.49728 -1.14614,0.79558 -1.36084,0.66289 -0.21469,-0.13269 -0.39035,-0.0488 -0.39035,0.18645 0,0.50363 -11.77161,8.06536 -12.19612,7.83442 -0.15911,-0.0866 -0.49447,0.20924 -0.74523,0.65734 -0.25077,0.4481 -0.65023,0.69464 -0.8877,0.54788 -0.23746,-0.14676 -0.43175,-0.0681 -0.43175,0.1749 0,0.24296 -0.72097,0.86712 -1.60217,1.38704 l -1.60217,0.9453 0.29156,-7.72219 c 0.16035,-4.2472 0.1544,-8.26865 -0.0132,-8.93655 l -0.30479,-1.21436 -3.9049,2.51909 c -2.1477,1.3855 -3.90491,2.3748 -3.90491,2.19845 0,-0.17636 -0.30394,0.0812 -0.67541,0.57232 -0.37147,0.49113 -0.68199,0.69814 -0.69004,0.46002 -0.008,-0.23812 -0.27339,-0.11944 -0.58966,0.26374 -0.73033,0.88483 -12.92665,8.67968 -13.58078,8.67968 -0.26858,0 -0.55734,0.16274 -0.64168,0.36163 -0.14848,0.35019 -2.89332,2.39837 -3.21452,2.39867 -0.0874,8e-5 -0.159,-3.70858 -0.159,-8.24147 0,-4.53288 -0.12894,-8.37085 -0.28654,-8.52881 -0.1576,-0.15797 -3.36628,1.68651 -7.1304,4.09883 -3.76412,2.41232 -7.01367,4.33537 -7.22123,4.27344 -0.20756,-0.0619 -0.58255,0.25401 -0.83332,0.70211 -0.25077,0.4481 -0.62853,0.70805 -0.83949,0.57767 -0.21095,-0.13037 -0.50728,0.0854 -0.65851,0.47951 -0.15123,0.39411 -0.48344,0.58771 -0.73825,0.43023 -0.25479,-0.15747 -0.46327,-0.0671 -0.46327,0.20086 0,0.26795 -0.21567,0.48718 -0.47926,0.48718 -0.26359,0 -0.91598,0.40686 -1.44975,0.90414 -0.53376,0.49728 -1.14614,0.79558 -1.36083,0.66289 -0.2147,-0.13269 -0.39036,-0.0452 -0.39036,0.19453 0,0.23969 -1.29383,1.24726 -2.87516,2.23906 l -2.87516,1.80326 0.0679,-6.00711 c 0.0955,-8.45111 -0.22716,-11.92883 -1.04397,-11.25094 -0.34872,0.28942 -0.63403,0.39735 -0.63403,0.23987 0,-0.15749 -0.41403,0.12768 -0.92005,0.63371 -0.50603,0.50602 -1.21332,0.92005 -1.57176,0.92005 -0.35843,0 -0.7207,0.16731 -0.80504,0.3718 -0.20669,0.50114 -4.52359,3.42861 -4.52359,3.06763 0,-0.15673 -0.30822,0.0232 -0.68493,0.39995 -0.95766,0.95767 -8.65443,5.80103 -9.16427,5.76682 -0.23026,-0.0155 -0.60526,0.30532 -0.83331,0.71283 -0.22806,0.40751 -0.60894,0.62086 -0.8464,0.4741 -0.23747,-0.14677 -0.43175,-0.077 -0.43175,0.15495 0,0.32286 -4.55136,3.46027 -5.96856,4.11434 -0.13299,0.0614 -0.3016,-3.65564 -0.37469,-8.26003 -0.0731,-4.60439 -0.22336,-8.46206 -0.33391,-8.57261 -0.11054,-0.11054 -0.48381,0.0337 -0.82947,0.3206 -0.34566,0.28687 -0.76468,0.38537 -0.93117,0.21889 -0.16648,-0.16648 -0.30269,-0.0762 -0.30269,0.2007 0,0.48818 -5.20084,3.89442 -5.77743,3.78388 -0.15768,-0.0302 -0.57177,0.32109 -0.9202,0.78071 -0.34843,0.45963 -0.64327,0.62867 -0.65519,0.37566 -0.0119,-0.25302 -0.1801,-0.21078 -0.37374,0.0939 -0.19363,0.30464 -4.17543,3.006 -8.84844,6.00302 l -8.49639,5.44913 z"
       id="path97"
       transform="scale(0.26458333)" /><path
       style="fill:#53c4e9;fill-opacity:1;stroke:#53c4e9;stroke-width:0.460026"
       d="m 5.062883,313.02489 c -0.1875009,-9.50042 -0.2497263,-17.36467 -0.1382786,-17.47612 0.1114477,-0.11145 0.6493212,0.21352 1.1952744,0.72216 0.5459532,0.50863 1.0538248,0.86871 1.1286036,0.80018 0.2606758,-0.23889 6.7822976,3.89432 6.7822976,4.29843 0,0.22398 0.164753,0.35549 0.366118,0.29224 0.430247,-0.13516 8.074502,4.48111 9.071618,5.47822 0.375555,0.37556 0.682827,0.56711 0.682827,0.42567 0,-0.35408 5.25305,3.01228 5.443636,3.48849 0.08434,0.21074 0.446608,0.38316 0.805045,0.38316 0.358436,0 0.651703,0.21923 0.651703,0.48717 0,0.26795 0.183555,0.37373 0.407901,0.23508 0.224346,-0.13865 0.618977,0.004 0.876957,0.31787 0.351759,0.42744 -1.117657,1.57655 -5.876081,4.59519 -3.489825,2.21388 -6.575605,4.02523 -6.857289,4.02523 -0.281684,0 -0.512153,0.20701 -0.512153,0.46002 0,0.25302 -0.310518,0.46003 -0.690039,0.46003 -0.379521,0 -0.690038,0.16238 -0.690038,0.36084 0,0.37633 -2.472813,1.9679 -3.093783,1.99124 -0.196025,0.007 -0.524391,0.31357 -0.729701,0.68044 -0.205312,0.36687 -0.567582,0.54696 -0.805045,0.40019 -0.237464,-0.14676 -0.431753,-0.0476 -0.431753,0.22034 0,0.26795 -0.215667,0.48718 -0.47926,0.48718 -0.263594,0 -0.915979,0.40686 -1.449745,0.90414 -0.533766,0.49728 -1.146145,0.79558 -1.3608417,0.66289 -0.2146967,-0.13269 -0.3903575,-0.0389 -0.3903575,0.2084 0,0.40492 -2.7620774,2.3648 -3.3327343,2.3648 -0.1286838,0 -0.3873805,-7.77307 -0.5748815,-17.27348 z"
       id="path98"
       transform="scale(0.26458333)" /><path
       style="fill:#53c4e9;fill-opacity:1;stroke:#53c4e9;stroke-width:0.460026"
       d="m 120.13892,322.63447 c -0.16624,-4.21514 -0.30226,-12.07813 -0.30226,-17.47332 v -9.80943 l 3.4502,2.12921 c 1.8976,1.17107 3.45019,2.31841 3.45019,2.54964 0,0.23124 0.17566,0.31187 0.39036,0.17918 0.21469,-0.13269 0.88262,0.21736 1.48428,0.77789 0.60166,0.56054 1.20229,0.96571 1.33474,0.90038 0.13245,-0.0653 0.56214,0.14169 0.95488,0.46003 0.39275,0.31834 1.52629,0.99282 2.51899,1.49885 0.9927,0.50602 2.1722,1.28232 2.62111,1.72509 0.44891,0.44278 0.87336,0.75329 0.94322,0.69004 0.25587,-0.23166 6.77336,3.91361 6.77336,4.30802 0,0.22398 0.15526,0.36468 0.34502,0.31266 0.53771,-0.14741 3.33519,1.44973 3.33519,1.90412 0,0.40004 -15.81008,10.72671 -16.30575,10.65042 -0.14034,-0.0216 -0.6692,0.37476 -1.17522,0.88078 -0.50603,0.50603 -1.21332,0.92006 -1.57176,0.92006 -0.35843,0 -0.7207,0.16731 -0.80504,0.37179 -0.2013,0.48808 -4.52359,3.43348 -4.52359,3.08258 0,-0.14852 -0.45305,0.15205 -1.00679,0.66794 -0.55374,0.51588 -1.14226,0.93797 -1.30783,0.93797 -0.16558,0 -0.43706,-3.44875 -0.6033,-7.6639 z"
       id="path99"
       transform="scale(0.26458333)" /><path
       style="fill:#53c4e9;fill-opacity:1;stroke:#53c4e9;stroke-width:0.460026"
       d="m 120.19122,213.78302 c -0.31627,-10.05418 -0.37747,-29.77279 -0.0924,-29.77279 0.60792,0 5.71818,3.37165 5.71818,3.77274 0,0.23199 0.17566,0.31323 0.39035,0.18054 0.2147,-0.13269 0.83574,0.17367 1.38008,0.68081 0.54435,0.50713 0.9963,0.75874 1.00435,0.55912 0.008,-0.19962 0.32748,0.0511 0.70984,0.55711 0.38237,0.50603 0.79198,0.86411 0.91024,0.79573 0.40477,-0.23404 2.96555,1.2973 2.96555,1.77338 0,0.26144 0.17566,0.36679 0.39035,0.2341 0.2147,-0.13269 0.83573,0.17368 1.38008,0.68081 0.54435,0.50714 0.98972,0.81307 0.98972,0.67985 0,-0.34407 5.25816,3.03999 5.44364,3.50343 0.0843,0.21073 0.4466,0.38315 0.80504,0.38315 0.35844,0 0.6517,0.20701 0.6517,0.46003 0,0.25301 0.15526,0.41746 0.34502,0.36544 0.58309,-0.15985 3.33519,1.46875 3.33519,1.97365 0,0.26144 0.19271,0.35626 0.42824,0.21069 0.23553,-0.14556 0.53479,-0.0923 0.66502,0.11846 0.22897,0.37049 -1.84477,1.83652 -2.63024,1.85945 -0.2128,0.006 -0.67199,0.38735 -1.02043,0.84697 -0.34843,0.45963 -0.64009,0.64086 -0.64814,0.40274 -0.008,-0.23812 -0.2734,-0.11944 -0.58966,0.26373 -0.75586,0.91577 -12.93807,8.67968 -13.61912,8.67968 -0.28967,0 -0.52667,0.16238 -0.52667,0.36084 0,0.40572 -2.30252,1.85505 -2.94881,1.85615 -0.23027,3.9e-4 -0.60527,0.33413 -0.83332,0.74164 -0.22806,0.40751 -0.60894,0.62085 -0.8464,0.47409 -0.23746,-0.14676 -0.43175,-0.0476 -0.43175,0.22034 0,0.26795 -0.31052,0.48717 -0.69004,0.48717 -0.37952,0 -0.69004,0.15722 -0.69004,0.34937 0,0.19215 -0.40122,0.59994 -0.8916,0.90619 -0.85907,0.53649 -0.89754,0.36842 -1.05397,-4.60461 z"
       id="path100"
       transform="scale(0.26458333)" /><path
       style="fill:#53c4e9;fill-opacity:1;stroke:#53c4e9;stroke-width:0.460026"
       d="m 159.28982,214.92624 c -0.3665,-8.36417 -0.35943,-30.91601 0.01,-30.91601 0.21224,0 0.83493,0.41834 1.38375,0.92965 0.54882,0.5113 1.05904,0.87357 1.13382,0.80504 0.27171,-0.249 6.7823,3.90328 6.7823,4.32557 0,0.23892 0.17566,0.32584 0.39035,0.19314 0.2147,-0.13268 0.83573,0.17368 1.38008,0.68081 0.54435,0.50714 0.98972,0.81186 0.98972,0.67715 0,-0.35152 6.60356,3.91449 7.00834,4.5275 0.18589,0.28152 0.34115,0.35916 0.34502,0.17254 0.007,-0.31398 5.0112,2.6733 5.52736,3.29926 0.1265,0.15343 0.84566,0.55019 1.59813,0.88171 l 1.36811,0.60276 -4.80144,3.06808 c -2.64079,1.68745 -4.86078,3.01633 -4.93332,2.95308 -0.0725,-0.0633 -0.54589,0.29901 -1.05192,0.80504 -0.50603,0.50603 -1.21332,0.92005 -1.57175,0.92005 -0.35844,0 -0.72071,0.16731 -0.80505,0.3718 -0.19317,0.46838 -4.52358,3.44078 -4.52358,3.105 0,-0.13619 -0.40273,0.0972 -0.89494,0.51866 -0.49222,0.42145 -2.7544,1.96269 -5.02707,3.42498 l -4.13213,2.6587 z"
       id="path101"
       transform="scale(0.26458333)" /><path
       style="fill:#53c4e9;fill-opacity:1;stroke:#53c4e9;stroke-width:0.460026"
       d="m 198.38507,327.65322 c -0.11061,-1.45483 -0.23853,-9.32598 -0.28427,-17.49145 l -0.0831,-14.84629 3.80689,2.38031 c 10.62598,6.64404 12.56974,7.90375 12.82883,8.31409 0.15479,0.24516 0.3618,0.38807 0.46002,0.31758 0.31597,-0.22675 6.84895,3.81977 6.84895,4.24223 0,0.22418 0.15526,0.36504 0.34502,0.31302 0.53067,-0.14548 3.33519,1.44682 3.33519,1.89359 0,0.21742 -0.51753,0.7344 -1.15007,1.14886 -0.63253,0.41445 -1.15006,0.65515 -1.15006,0.5349 0,-0.12026 -0.54998,0.29104 -1.22217,0.91401 -0.67219,0.62297 -1.31787,1.03696 -1.43484,0.91999 -0.11697,-0.11697 -0.49625,0.0709 -0.84283,0.41749 -0.78637,0.78636 -8.73213,5.84201 -9.23883,5.87839 -0.20463,0.0147 -0.62424,0.35776 -0.93246,0.76239 -0.30822,0.40463 -0.56699,0.54087 -0.57503,0.30275 -0.008,-0.23812 -0.2734,-0.11741 -0.58967,0.26824 -0.51707,0.63052 -9.2906,6.37505 -9.73651,6.37505 -0.10114,0 -0.27439,-1.19032 -0.38501,-2.64515 z"
       id="path102"
       transform="scale(0.26458333)" /><path
       style="fill:#53c4e9;fill-opacity:1;stroke:#53c4e9;stroke-width:0.460026"
       d="m 237.38749,326.96318 c -0.16183,-1.83435 -0.23124,-9.6683 -0.15426,-17.40878 l 0.13997,-14.07359 8.70833,5.44001 c 4.78958,2.99201 8.84945,5.66835 9.02193,5.94743 0.17248,0.27908 0.43901,0.43799 0.59228,0.35312 0.15327,-0.0849 0.64765,0.16164 1.09863,0.54778 0.45097,0.38614 0.9685,0.69665 1.15006,0.69003 0.18156,-0.007 0.71042,0.29849 1.17525,0.67801 0.46484,0.37952 1.83403,1.20757 3.04266,1.8401 1.20864,0.63254 2.31388,1.33373 2.45611,1.55821 0.29045,0.45841 -1.74531,2.15684 -2.2278,1.85865 -0.17032,-0.10527 -0.43341,0.13106 -0.58464,0.52516 -0.15123,0.3941 -0.48344,0.58771 -0.73824,0.43023 -0.2548,-0.15747 -0.46328,-0.10389 -0.46328,0.11908 0,0.48889 -17.07803,11.42853 -17.58526,11.26455 -0.19565,-0.0632 -0.35574,0.0964 -0.35574,0.35488 0,0.25844 -0.56928,0.72273 -1.26507,1.03176 -0.69578,0.30903 -1.66637,0.92562 -2.15685,1.37021 -0.49049,0.44459 -1.04211,0.80835 -1.22583,0.80835 -0.18371,0 -0.46643,-1.50084 -0.62825,-3.33519 z"
       id="path103"
       transform="scale(0.26458333)" /><path
       style="fill:#53c4e9;fill-opacity:1;stroke:#53c4e9;stroke-width:0.460026"
       d="m 237.46857,217.19917 c -0.39548,-2.95956 -0.36196,-33.18894 0.0368,-33.18894 0.21141,0 0.83342,0.41834 1.38224,0.92965 0.54882,0.5113 1.05363,0.88533 1.1218,0.83118 0.26848,-0.21328 6.79431,3.88984 6.79431,4.27193 0,0.22418 0.1592,0.35585 0.35377,0.29259 0.5313,-0.17272 7.00664,3.83372 7.00664,4.33517 0,0.23892 0.17566,0.32583 0.39036,0.19314 0.2147,-0.13269 0.88263,0.21736 1.48429,0.7779 0.60166,0.56053 1.20229,0.98309 1.33474,0.93902 0.13244,-0.0441 1.96108,0.97482 4.06363,2.26421 l 3.82282,2.34433 -4.05284,2.62265 c -2.22905,1.44245 -4.1864,2.54662 -4.34965,2.45369 -0.16324,-0.0929 -0.42055,0.1535 -0.57178,0.54761 -0.15123,0.3941 -0.46576,0.59864 -0.69895,0.45452 -0.23319,-0.14412 -0.49342,-0.0656 -0.57828,0.17441 -0.0849,0.24005 -4.01563,2.91093 -8.73504,5.93529 l -8.58074,5.49884 z"
       id="path104"
       transform="scale(0.26458333)" /><path
       style="fill:#53c4e9;fill-opacity:1;stroke:#53c4e9;stroke-width:0.460026"
       d="m 276.5531,218.00514 c -0.35849,-1.33968 -0.41192,-33.99491 -0.0556,-33.99491 0.41798,0 5.47678,3.30912 5.77966,3.78065 0.15479,0.24099 0.42305,0.40508 0.59612,0.36464 0.56442,-0.13189 14.07326,8.38669 14.07326,8.8745 0,0.26086 0.12843,0.34587 0.2854,0.1889 0.29611,-0.29611 5.25052,2.68071 5.74637,3.45267 0.15479,0.24099 0.41356,0.42049 0.57503,0.39888 0.91822,-0.12289 0.80407,0.0665 -0.63945,1.06114 -0.87841,0.60523 -1.75236,1.00704 -1.94212,0.8929 -0.18976,-0.11414 -0.34502,-0.0236 -0.34502,0.20115 0,0.39259 -9.9878,6.90365 -10.6956,6.97248 -0.18976,0.0185 -0.75904,0.44757 -1.26507,0.9536 -0.50603,0.50603 -1.21332,0.92005 -1.57175,0.92005 -0.35844,0 -0.72071,0.16731 -0.80505,0.3718 -0.23766,0.57624 -4.52267,3.39988 -4.53063,2.98549 -0.004,-0.20192 -0.15913,-0.15014 -0.34501,0.11507 -0.51991,0.74175 -3.32815,2.61611 -3.32815,2.22136 0,-0.19209 -0.27836,0.0314 -0.61859,0.49672 -0.58648,0.80206 -0.63393,0.78871 -0.91377,-0.25709 z"
       id="path105"
       transform="scale(0.26458333)" /><path
       style="fill:#53c4e9;fill-opacity:1;stroke:#53c4e9;stroke-width:0.460026"
       d=""
       id="path106"
       transform="scale(0.26458333)" /><path
       style="fill:#53c4e9;fill-opacity:1;stroke:#53c4e9;stroke-width:0.460026"
       d="m 354.44971,313.09356 v -17.71913 l 2.30013,1.42983 c 1.26507,0.78641 2.30013,1.61813 2.30013,1.84825 0,0.23013 0.17566,0.30985 0.39035,0.17716 0.2147,-0.13269 0.83171,0.16993 1.37114,0.67249 0.53943,0.50255 1.0816,0.85766 1.20482,0.78913 0.12322,-0.0685 0.64714,0.23767 1.16426,0.68045 0.51712,0.44277 1.06615,0.80504 1.22006,0.80504 0.66406,0 17.64298,10.8336 17.52651,11.183 -0.0709,0.21265 -0.29781,0.35733 -0.50429,0.32151 -0.20648,-0.0358 -0.61532,0.23221 -0.90855,0.59564 -0.71351,0.88432 -13.64193,9.12704 -13.65091,8.70336 -0.004,-0.18281 -0.16777,-0.0794 -0.3642,0.22977 -0.2767,0.43549 -6.75986,4.75776 -11.47442,7.64988 -0.45618,0.27984 -0.57503,-3.30963 -0.57503,-17.36638 z"
       id="path107"
       transform="scale(0.26458333)" /><path
       style="fill:#53c4e9;fill-opacity:1;stroke:#53c4e9;stroke-width:0.460026"
       d="m 354.44971,201.4912 c 0,-9.61453 0.0917,-17.48097 0.20372,-17.48097 0.56104,0 3.47649,1.98981 3.47649,2.37272 0,0.24295 0.17566,0.33317 0.39035,0.20048 0.2147,-0.13269 0.83573,0.17367 1.38008,0.68081 0.54434,0.50713 0.9963,0.75874 1.00435,0.55912 0.008,-0.19961 0.32747,0.0511 0.70984,0.55712 0.38237,0.50602 0.84156,0.87307 1.02043,0.81566 0.49631,-0.15931 12.51589,7.33034 12.51589,7.79891 0,0.22562 0.15526,0.31585 0.34502,0.2005 0.18976,-0.11534 1.84434,0.76025 3.67685,1.94577 l 3.33183,2.15548 -1.49173,0.88118 c -0.82045,0.48466 -1.57209,0.82123 -1.67031,0.74795 -0.0982,-0.0733 -0.30523,0.0497 -0.46002,0.27324 -0.49852,0.71998 -3.27113,2.50777 -3.2856,2.11857 -0.008,-0.20699 -0.22743,-0.01 -0.4883,0.43838 -0.26087,0.44809 -0.6686,0.69464 -0.90606,0.54788 -0.23747,-0.14676 -0.43176,-0.0673 -0.43176,0.17662 0,0.46082 -4.29771,3.15834 -4.46544,2.8028 -0.0524,-0.11098 -0.40805,0.21223 -0.79042,0.71826 -0.38236,0.50603 -0.70496,0.71304 -0.71688,0.46002 -0.0119,-0.25301 -0.17922,-0.2122 -0.37178,0.0907 -0.31966,0.50284 -12.34101,8.41978 -12.78487,8.41978 -0.10543,0 -0.19168,-7.86644 -0.19168,-17.48098 z"
       id="path108"
       transform="scale(0.26458333)" /><path
       style="fill:#008000;fill-opacity:1;stroke:#008000;stroke-width:0.460026;stroke-opacity:1"
       d="m 615.82165,226.72557 c -4.76148,-2.35687 -5.96392,-8.28093 -2.51322,-12.38186 1.60505,-1.90749 3.38817,-2.73194 5.90864,-2.73194 8.74989,0 11.20081,11.60947 3.21657,15.2362 -2.44567,1.11091 -4.18545,1.07871 -6.61199,-0.1224 z"
       id="path109"
       transform="scale(0.26458333)" /><path
       style="fill:#008000;fill-opacity:1;stroke:#008000;stroke-width:0.460026;stroke-opacity:1"
       d="m 635.80334,227.25855 c -1.6056,-0.50891 -3.78188,-2.50097 -4.74239,-4.34095 -0.84723,-1.62298 -0.91748,-5.23084 -0.13146,-6.75165 1.58262,-3.06208 3.99269,-4.55418 7.356,-4.55418 2.73175,0 4.47874,0.78614 6.14345,2.76455 4.08395,4.85348 1.05212,12.4162 -5.24628,13.08655 -1.12597,0.11984 -2.64667,0.0279 -3.37932,-0.20432 z"
       id="path110"
       transform="scale(0.26458333)" /><path
       style="fill:#c42e5e;stroke:#c42e5e;fill-opacity:1;stroke-opacity:1"
       d="m 654.10297,226.83258 c -5.56353,-2.5265 -6.40926,-10.38539 -1.49425,-13.8852 1.76598,-1.25748 5.74664,-1.70872 7.75071,-0.87861 0.75759,0.31381 2.08911,1.35829 2.95893,2.32108 3.54809,3.92732 2.25242,9.99487 -2.64006,12.36328 -2.43395,1.17825 -4.11107,1.19851 -6.57533,0.0795 z"
       id="path111"
       transform="scale(0.26458333)" /><path
       style="fill:#c42e5e;stroke:#c42e5e;fill-opacity:1;stroke-opacity:1"
       d="m 672.77359,226.67761 c -4.82591,-2.43798 -6.02485,-8.36159 -2.48536,-12.27938 2.05721,-2.27708 3.75171,-2.94912 6.7989,-2.69642 3.07753,0.25521 4.95499,1.5413 6.29702,4.31356 2.01017,4.15246 0.3029,8.92088 -3.87296,10.81721 -2.50657,1.13828 -4.25735,1.09801 -6.7376,-0.15497 z"
       id="path112"
       transform="scale(0.26458333)" /><path
       style="fill:#c42e5e;stroke:#c42e5e;fill-opacity:1;stroke-opacity:1"
       d="m 691.84383,226.78394 c -4.77916,-2.3657 -6.06376,-8.36084 -2.65861,-12.40762 1.63196,-1.93948 3.40356,-2.76455 5.93607,-2.76455 4.32565,0 7.52863,2.78722 7.92332,6.89483 0.11922,1.24068 0.088,2.76859 -0.0693,3.39534 -0.69729,2.77823 -4.77142,5.77834 -7.8767,5.80026 -0.75904,0.005 -2.22371,-0.40786 -3.25482,-0.91826 z"
       id="path113"
       transform="scale(0.26458333)" /><path
       style="fill:#c42e5e;stroke:#c42e5e;fill-opacity:1;stroke-opacity:1"
       d="m 711.18052,226.84797 c -2.07362,-0.94192 -4.20235,-3.21226 -4.63749,-4.94603 -0.15731,-0.62675 -0.18847,-2.15466 -0.0693,-3.39534 0.39469,-4.10761 3.59767,-6.89483 7.92332,-6.89483 3.54959,0 6.4367,2.1859 7.6191,5.76861 1.13515,3.43953 -0.79552,7.67881 -4.26116,9.3565 -2.45851,1.19015 -4.13655,1.2185 -6.57451,0.11109 z"
       id="path114"
       transform="scale(0.26458333)" /><path
       style="fill:#c42e5e;stroke:#c42e5e;fill-opacity:1;stroke-opacity:1"
       d="m 730.3043,226.98422 c -2.1025,-0.91194 -3.14552,-1.89679 -4.20287,-3.96849 -2.63785,-5.16842 1.2227,-11.37629 7.08719,-11.39639 2.65023,-0.009 4.30313,0.77572 6.21152,2.94926 3.35823,3.82481 2.06447,9.72462 -2.65535,12.10901 -2.36791,1.19623 -4.18953,1.28295 -6.44049,0.30661 z"
       id="path115"
       transform="scale(0.26458333)" /><text
       xml:space="preserve"
       style="font-size:6.35px;font-family:Sans;-inkscape-font-specification:'Sans, Normal';letter-spacing:0.132292px;display:inline;fill:#4c4b54;fill-opacity:1;stroke:#4c4b54;stroke-width:0.264583;stroke-opacity:1"
       x="5.1880035"
       y="23.176746"
       id="text115-2"><tspan
         sodipodi:role="line"
         id="tspan115-2"
         style="font-style:normal;font-variant:normal;font-weight:300;font-stretch:normal;font-size:4.93889px;font-family:Helvetica;-inkscape-font-specification:'Helvetica, Light';font-variant-ligatures:normal;font-variant-caps:normal;font-variant-numeric:normal;font-variant-east-asian:normal;letter-spacing:0.132292px;fill:#ffffff;stroke:#ffffff;stroke-width:0.264583"
         x="5.1880035"
         y="23.176746">Time-series streaming data</tspan></text><text
       xml:space="preserve"
       style="font-size:6.35px;font-family:Sans;-inkscape-font-specification:'Sans, Normal';display:inline;fill:#4c4b54;fill-opacity:1;stroke:#4c4b54;stroke-width:0.264583;stroke-opacity:1"
       x="143.96609"
       y="23.196503"
       id="text115-2-9"><tspan
         sodipodi:role="line"
         id="tspan115-2-0"
         style="font-style:normal;font-variant:normal;font-weight:300;font-stretch:normal;font-size:4.93889px;font-family:Helvetica;-inkscape-font-specification:'Helvetica, Light';font-variant-ligatures:normal;font-variant-caps:normal;font-variant-numeric:normal;font-variant-east-asian:normal;letter-spacing:0.132292px;fill:#ffffff;stroke:#ffffff;stroke-width:0.264583"
         x="143.96609"
         y="23.196503">Low-latency query results</tspan><tspan
         sodipodi:role="line"
         style="font-style:normal;font-variant:normal;font-weight:normal;font-stretch:normal;font-size:5.64444px;font-family:Sans;-inkscape-font-specification:'Sans, Normal';font-variant-ligatures:normal;font-variant-caps:normal;font-variant-numeric:normal;font-variant-east-asian:normal;fill:#ffffff;stroke:#ffffff;stroke-width:0.264583"
         x="143.96609"
         y="31.134003"
         id="tspan116" /></text><path
       id="path119"
       style="fill:#c42e5e;stroke:#c42e5e;fill-opacity:1;stroke-opacity:1"
       d="M 618.20704 212.01172 C 618.04518 212.01341 617.88137 212.01795 617.71485 212.02344 C 615.84407 212.08509 613.39453 214.17735 612.18555 216.7461 C 610.03611 221.3131 613.22768 226.42547 618.73438 227.23633 C 623.34386 227.91506 627.90915 222.72549 626.83595 218.02539 C 625.90824 213.96259 623.38746 212.08744 618.68555 212.01367 C 618.52882 212.01122 618.3689 212.01004 618.20704 212.01172 z "
       transform="scale(0.26458333)" /><path
       style="fill:#c42e5e;stroke:#c42e5e;fill-opacity:1;stroke-opacity:1"
       d="m 635.47949,226.7842 c -6.36018,-3.31334 -6.58516,-11.06925 -0.41417,-14.27793 2.37119,-1.23293 6.4004,-0.60494 8.45212,1.31735 4.26501,3.99594 3.02091,10.46751 -2.47179,12.85776 -2.38641,1.03848 -3.72272,1.06317 -5.56616,0.10282 z"
       id="path120"
       transform="scale(0.26458333)" /><path
       style="fill:#c42e5e;fill-opacity:1;stroke:#c42e5e;stroke-width:0.460026;stroke-opacity:1"
       d="m 655.04382,227.05335 c -4.11588,-2.26534 -5.62393,-4.65902 -5.25321,-8.33826 0.44829,-4.44895 2.98695,-6.63876 7.69963,-6.64158 2.64103,-0.002 3.01865,0.12911 4.66151,1.61334 2.27345,2.05393 2.9874,3.79173 2.71641,6.61196 -0.3669,3.81836 -2.88635,6.29718 -7.06418,6.95025 -1.05153,0.16437 -2.26185,0.0786 -2.76016,-0.19571 z"
       id="path121"
       transform="scale(0.26458333)" /><path
       style="fill:#c42e5e;fill-opacity:1;stroke:#c42e5e;stroke-width:0.460026;stroke-opacity:1"
       d="m 691.60231,226.33659 c -1.83923,-0.9721 -2.92217,-2.39466 -3.87168,-5.08586 -0.54804,-1.55333 -0.53883,-2.07605 0.068,-3.85691 0.91063,-2.67255 3.7553,-5.30384 5.8063,-5.37077 4.31175,-0.14071 6.30726,0.66439 8.04756,3.24682 1.56793,2.32666 1.48063,6.78423 -0.17132,8.74746 -2.58155,3.068 -6.65349,4.02397 -9.87883,2.31926 z"
       id="path122"
       transform="scale(0.26458333)" /><path
       style="fill:#c42e5e;fill-opacity:1;stroke:#c42e5e;stroke-width:0.460026;stroke-opacity:1"
       d="m 729.14185,226.65613 c -2.41793,-1.36938 -4.09559,-4.36975 -4.05218,-7.24705 0.0702,-4.65561 3.43449,-7.89238 8.276,-7.96236 4.40373,-0.0636 7.96555,3.56551 7.96555,8.11616 0,6.25953 -6.73808,10.18056 -12.18937,7.09325 z"
       id="path123"
       transform="scale(0.26458333)" /></g></svg>
