<?xml version="1.0" encoding="UTF-8" standalone="no"?>
<!-- Generated by graphviz version 2.43.0 (0)
 -->

<!-- Title: %3 Pages: 1 -->

<svg
   width="518pt"
   height="335pt"
   viewBox="0.00 0.00 518.00 335.00"
   version="1.1"
   id="svg22"
   sodipodi:docname="questdb_network_protocols.svg"
   inkscape:version="1.3 (0e150ed, 2023-07-21)"
   xmlns:inkscape="http://www.inkscape.org/namespaces/inkscape"
   xmlns:sodipodi="http://sodipodi.sourceforge.net/DTD/sodipodi-0.dtd"
   xmlns="http://www.w3.org/2000/svg"
   xmlns:svg="http://www.w3.org/2000/svg">
  <defs
     id="defs22" />
  <sodipodi:namedview
     id="namedview22"
     pagecolor="#ffffff"
     bordercolor="#000000"
     borderopacity="0.25"
     inkscape:showpageshadow="2"
     inkscape:pageopacity="0.0"
     inkscape:pagecheckerboard="0"
     inkscape:deskcolor="#d1d1d1"
     inkscape:document-units="pt"
     inkscape:zoom="1.7664093"
     inkscape:cx="393.45355"
     inkscape:cy="252.48962"
     inkscape:window-width="2560"
     inkscape:window-height="1387"
     inkscape:window-x="1512"
     inkscape:window-y="237"
     inkscape:window-maximized="1"
     inkscape:current-layer="svg22" />
  <g
     inkscape:groupmode="layer"
     id="layer1"
     inkscape:label="back"
     style="display:none">
    <rect
       style="fill:#000000;fill-opacity:1;stroke:#000000;stroke-width:0.75;stroke-dasharray:2.99999, 0.749999"
       id="rect22"
       width="518"
       height="335"
       x="0"
       y="0" />
    <rect
       style="fill:#000000;fill-opacity:1;stroke:#000000;stroke-width:0.75;stroke-dasharray:2.99999, 0.749999"
       id="rect23"
       width="518"
       height="335"
       x="0"
       y="0" />
  </g>
  <g
     id="clust1"
     class="cluster"
     transform="translate(4,331)">
    <title
       id="title2">cluster_clients</title>
    <polygon
       fill="none"
       stroke="#53c4e9"
       stroke-dasharray="5, 2"
       points="28,-244 28,-319 463,-319 463,-244 "
       id="polygon2" />
    <text
       text-anchor="middle"
       x="245.5"
       y="-305.39999"
       font-family="'Helvetica Light'"
       font-size="12px"
       fill="#ffffff"
       id="text2">Client Applications</text>
  </g>
  <g
     id="clust2"
     class="cluster"
     transform="translate(4,331)">
    <title
       id="title3">cluster_interfaces</title>
    <polygon
       fill="none"
       stroke="#53c4e9"
       stroke-dasharray="5, 2"
       points="8,-161 8,-236 502,-236 502,-161 "
       id="polygon3" />
    <text
       text-anchor="middle"
       x="255"
       y="-222.39999"
       font-family="'Helvetica Light'"
       font-size="12px"
       fill="#ffffff"
       id="text3">Network Interfaces</text>
  </g>
  <g
     id="clust3"
     class="cluster"
     transform="translate(4,331)">
    <title
       id="title4">cluster_core</title>
    <polygon
       fill="none"
       stroke="#53c4e9"
       stroke-dasharray="5, 2"
       points="24,-8 24,-153 326,-153 326,-8 "
       id="polygon4" />
    <text
       text-anchor="middle"
       x="175"
       y="-139.39999"
       font-family="'Helvetica Light'"
       font-size="12px"
       fill="#ffffff"
       id="text4">QuestDB Core</text>
  </g>
  <g
     id="node1"
     class="node"
     transform="translate(4,331)">
    <title
       id="title5">ILPClients</title>
    <polygon
       fill="#c42e5e"
       stroke="#c42e5e"
       points="186,-290 36,-290 36,-252 186,-252 "
       id="polygon5" />
    <text
       text-anchor="middle"
       x="111"
       y="-274.79999"
       font-family="'Helvetica Light'"
       font-size="14px"
       fill="#ffffff"
       id="text5"><tspan
         sodipodi:role="line"
         id="tspan30"
         x="111"
         y="-274.79999">InfluxDB Line</tspan><tspan
         sodipodi:role="line"
         id="tspan31"
         x="111"
         y="-257.29999">Protocol Clients</tspan></text>
    <text
       text-anchor="middle"
       x="111"
       y="-259.79999"
       font-family="'Helvetica Light'"
       font-size="14px"
       fill="#ffffff"
       id="text6" />
  </g>
  <g
     id="node4"
     class="node"
     transform="translate(4,331)">
    <title
       id="title6">ILP</title>
    <polygon
       fill="#c42e5e"
       stroke="#c42e5e"
       points="166,-207 16,-207 16,-169 166,-169 "
       id="polygon6" />
    <text
       text-anchor="middle"
       x="91"
       y="-191.8"
       font-family="'Helvetica Light'"
       font-size="14px"
       fill="#ffffff"
       id="text7"><tspan
         sodipodi:role="line"
         id="tspan23"
         x="91"
         y="-191.8">InfluxDB Line</tspan><tspan
         sodipodi:role="line"
         id="tspan24"
         x="91"
         y="-174.3">Protocol</tspan></text>
  </g>
  <g
     id="edge1"
     class="edge"
     transform="translate(4,331)">
    <title
       id="title8">ILPClients-&gt;ILP</title>
    <path
       fill="none"
       stroke="#53c4e9"
       d="m 106.46,-251.62 c -2.52,10.22 -5.72,23.15 -8.54,34.61"
       id="path8" />
    <polygon
       fill="#53c4e9"
       stroke="#53c4e9"
       points="95.45,-207.03 94.45,-217.58 101.25,-215.9 "
       id="polygon8" />
  </g>
  <g
     id="edge1-5"
     class="edge"
     transform="rotate(180,102.955,-63.825)">
    <title
       id="title8-3">ILPClients-&gt;ILP</title>
    <path
       fill="none"
       stroke="#53c4e9"
       d="m 106.46,-251.62 c -2.52,10.22 -5.72,23.15 -8.54,34.61"
       id="path8-5" />
    <polygon
       fill="#53c4e9"
       stroke="#53c4e9"
       points="101.25,-215.9 95.45,-207.03 94.45,-217.58 "
       id="polygon8-4" />
  </g>
  <g
     id="node2"
     class="node"
     transform="translate(4,331)">
    <title
       id="title9">PGClients</title>
    <polygon
       fill="#c42e5e"
       stroke="#c42e5e"
       points="340,-289 204,-289 204,-253 340,-253 "
       id="polygon9" />
    <text
       text-anchor="middle"
       x="272"
       y="-267.29999"
       font-family="'Helvetica Light'"
       font-size="14px"
       fill="#ffffff"
       id="text9">PostgreSQL Clients</text>
  </g>
  <g
     id="node5"
     class="node"
     transform="translate(4,331)">
    <title
       id="title10">PG</title>
    <polygon
       fill="#c42e5e"
       stroke="#c42e5e"
       points="360,-207 184,-207 184,-169 360,-169 "
       id="polygon10" />
    <text
       text-anchor="middle"
       x="272"
       y="-191.8"
       font-family="'Helvetica Light'"
       font-size="14px"
       fill="#ffffff"
       id="text10"><tspan
         sodipodi:role="line"
         id="tspan25"
         x="272"
         y="-191.8">PostgreSQL Wire</tspan><tspan
         sodipodi:role="line"
         id="tspan26"
         x="272"
         y="-174.3">Protocol</tspan></text>
  </g>
  <g
     id="edge2"
     class="edge"
     transform="translate(4,331)">
    <title
       id="title11">PGClients-&gt;PG</title>
    <path
       fill="none"
       stroke="#53c4e9"
       d="m 272,-252.82 c 0,10.24 0,23.49 0,35.27"
       id="path11" />
    <polygon
       fill="#53c4e9"
       stroke="#53c4e9"
       points="272,-207.28 268.5,-217.28 275.5,-217.28 "
       id="polygon11" />
  </g>
  <g
     id="edge2-2"
     class="edge"
     transform="matrix(1,0,0,-1,4,-137.6)">
    <title
       id="title11-6">PGClients-&gt;PG</title>
    <path
       fill="none"
       stroke="#53c4e9"
       d="m 272,-252.82 c 0,10.24 0,23.49 0,35.27"
       id="path11-9" />
    <polygon
       fill="#53c4e9"
       stroke="#53c4e9"
       points="268.5,-217.28 275.5,-217.28 272,-207.28 "
       id="polygon11-4" />
  </g>
  <g
     id="node3"
     class="node"
     transform="translate(4,331)">
    <title
       id="title12">HTTPClients</title>
    <polygon
       fill="#c42e5e"
       stroke="#c42e5e"
       points="455.5,-289 358.5,-289 358.5,-253 455.5,-253 "
       id="polygon12" />
    <text
       text-anchor="middle"
       x="407"
       y="-267.29999"
       font-family="'Helvetica Light'"
       font-size="14px"
       fill="#ffffff"
       id="text12">HTTP Clients</text>
  </g>
  <g
     id="node6"
     class="node"
     transform="translate(4,331)">
    <title
       id="title13">HTTP</title>
    <polygon
       fill="#c42e5e"
       stroke="#c42e5e"
       points="494,-207 378,-207 378,-169 494,-169 "
       id="polygon13" />
    <text
       text-anchor="middle"
       x="436"
       y="-191.8"
       font-family="'Helvetica Light'"
       font-size="14px"
       fill="#ffffff"
       id="text13"><tspan
         sodipodi:role="line"
         id="tspan27"
         x="436"
         y="-191.8">HTTP REST</tspan><tspan
         sodipodi:role="line"
         id="tspan28"
         x="436"
         y="-174.3">API</tspan></text>
  </g>
  <g
     id="edge3"
     class="edge"
     transform="translate(4,331)">
    <title
       id="title14">HTTPClients-&gt;HTTP</title>
    <path
       fill="none"
       stroke="#53c4e9"
       d="m 413.15,-252.82 c 3.74,10.45 8.61,24.04 12.89,35.99"
       id="path14" />
    <polygon
       fill="#53c4e9"
       stroke="#53c4e9"
       points="429.46,-207.28 422.79,-215.51 429.38,-217.87 "
       id="polygon14" />
  </g>
  <g
     id="edge3-7"
     class="edge"
     transform="rotate(180,421.2981,-69.439295)">
    <title
       id="title14-8">HTTPClients-&gt;HTTP</title>
    <path
       fill="none"
       stroke="#53c4e9"
       d="m 413.15,-252.82 c 3.74,10.45 8.61,24.04 12.89,35.99"
       id="path14-8" />
    <polygon
       fill="#53c4e9"
       stroke="#53c4e9"
       points="429.46,-207.28 422.79,-215.51 429.38,-217.87 "
       id="polygon14-3" />
  </g>
  <g
     id="node8"
     class="node"
     transform="translate(4,331)">
    <title
       id="title15">Writers</title>
    <polygon
       fill="#c42e5e"
       stroke="#c42e5e"
       points="207.5,-52 32.5,-52 32.5,-16 207.5,-16 "
       id="polygon15" />
    <text
       text-anchor="middle"
       x="120"
       y="-30.299999"
       font-family="'Helvetica Light'"
       font-size="14px"
       fill="#ffffff"
       id="text15">TableWriter / WAL System</text>
  </g>
  <g
     id="edge4"
     class="edge"
     transform="translate(4,331)">
    <title
       id="title16">ILP-&gt;Writers</title>
    <path
       fill="none"
       stroke="#53c4e9"
       d="m 94.44,-168.97 c 5.05,26.45 14.49,75.96 20.38,106.82"
       id="path16" />
    <polygon
       fill="#53c4e9"
       stroke="#53c4e9"
       points="116.74,-52.08 111.43,-61.24 118.31,-62.56 "
       id="polygon16" />
  </g>
  <g
     id="node7"
     class="node"
     transform="translate(4,331)">
    <title
       id="title17">CairoEngine</title>
    <polygon
       fill="#c42e5e"
       stroke="#c42e5e"
       points="317.5,-124 226.5,-124 226.5,-88 317.5,-88 "
       id="polygon17" />
    <text
       text-anchor="middle"
       x="272"
       y="-102.3"
       font-family="'Helvetica Light'"
       font-size="14px"
       fill="#ffffff"
       id="text17">CairoEngine</text>
  </g>
  <g
     id="edge5"
     class="edge"
     transform="translate(4,331)">
    <title
       id="title18">PG-&gt;CairoEngine</title>
    <path
       fill="none"
       stroke="#53c4e9"
       d="m 272,-168.85 c 0,10.13 0,22.96 0,34.31"
       id="path18" />
    <polygon
       fill="#53c4e9"
       stroke="#53c4e9"
       points="272,-124.26 268.5,-134.26 275.5,-134.26 "
       id="polygon18" />
  </g>
  <g
     id="edge6"
     class="edge"
     transform="translate(4,331)">
    <title
       id="title19">HTTP-&gt;CairoEngine</title>
    <path
       fill="none"
       stroke="#53c4e9"
       d="m 398.79,-168.85 c -24.5,11.95 -56.68,27.65 -82.49,40.24"
       id="path19" />
    <polygon
       fill="#53c4e9"
       stroke="#53c4e9"
       points="307.1,-124.12 314.56,-131.65 317.62,-125.36 "
       id="polygon19" />
  </g>
  <g
     id="edge7"
     class="edge"
     transform="translate(4,331)">
    <title
       id="title20">CairoEngine-&gt;Writers</title>
    <path
       fill="none"
       stroke="#53c4e9"
       d="m 234.82,-87.88 c -20.69,9.53 -46.62,21.47 -68.6,31.6"
       id="path20" />
    <polygon
       fill="#53c4e9"
       stroke="#53c4e9"
       points="157.06,-52.07 164.68,-59.43 167.61,-53.07 "
       id="polygon20" />
  </g>
  <g
     id="node9"
     class="node"
     transform="translate(4,331)">
    <title
       id="title21">Readers</title>
    <polygon
       fill="#c42e5e"
       stroke="#c42e5e"
       points="318.5,-52 225.5,-52 225.5,-16 318.5,-16 "
       id="polygon21" />
    <text
       text-anchor="middle"
       x="272"
       y="-30.299999"
       font-family="'Helvetica Light'"
       font-size="14px"
       fill="#ffffff"
       id="text21">TableReader</text>
  </g>
  <g
     id="edge8"
     class="edge"
     transform="matrix(1,0,0,-1,4,192.71354)">
    <title
       id="title22">CairoEngine-&gt;Readers</title>
    <path
       fill="none"
       stroke="#53c4e9"
       d="m 272,-87.7 c 0,7.72 0,16.99 0,25.59"
       id="path22" />
    <polygon
       fill="#53c4e9"
       stroke="#53c4e9"
       points="268.5,-62.1 275.5,-62.1 272,-52.1 "
       id="polygon22" />
  </g>
</svg>
